<?xml version="1.0" encoding="us-ascii" standalone="no"?><svg xmlns="http://www.w3.org/2000/svg" xmlns:xlink="http://www.w3.org/1999/xlink" contentStyleType="text/css" height="631px" preserveAspectRatio="none" style="width:771px;height:631px;background:#FFFFFF;" version="1.1" viewBox="0 0 771 631" width="771px" zoomAndPan="magnify"><defs/><g><text fill="#000000" font-family="sans-serif" font-size="14" font-weight="bold" lengthAdjust="spacing" textLength="263" x="255.75" y="27.9951">System Sequence Diagram (SSD)</text><rect fill="#FFFFFF" height="404.114" style="stroke:#181818;stroke-width:1.0;" width="10" x="92" y="128.5938"/><rect fill="#FFFFFF" height="382.963" style="stroke:#181818;stroke-width:1.0;" width="10" x="705" y="149.7448"/><rect fill="none" height="223.208" style="stroke:#000000;stroke-width:1.5;" width="755.5" x="10" y="223.0468"/><rect fill="none" height="75.453" style="stroke:#000000;stroke-width:1.5;" width="735.5" x="20" y="363.8018"/><line style="stroke:#181818;stroke-width:0.5;stroke-dasharray:5.0,5.0;" x1="97" x2="97" y1="118.5938" y2="550.7078"/><line style="stroke:#181818;stroke-width:0.5;stroke-dasharray:5.0,5.0;" x1="709.5" x2="709.5" y1="118.5938" y2="550.7078"/><text fill="#000000" font-family="sans-serif" font-size="14" lengthAdjust="spacing" textLength="128" x="30" y="115.292">Unregistered User</text><ellipse cx="97" cy="50.7969" fill="#E3E3E3" rx="8" ry="8" style="stroke:#181818;stroke-width:0.5;"/><path d="M97,58.7969 L97,85.7969 M84,66.7969 L110,66.7969 M97,85.7969 L84,100.7969 M97,85.7969 L110,100.7969 " fill="none" style="stroke:#181818;stroke-width:0.5;"/><text fill="#000000" font-family="sans-serif" font-size="14" lengthAdjust="spacing" textLength="128" x="30" y="562.7029">Unregistered User</text><ellipse cx="97" cy="574.5046" fill="#E3E3E3" rx="8" ry="8" style="stroke:#181818;stroke-width:0.5;"/><path d="M97,582.5046 L97,609.5046 M84,590.5046 L110,590.5046 M97,609.5046 L84,624.5046 M97,609.5046 L110,624.5046 " fill="none" style="stroke:#181818;stroke-width:0.5;"/><rect fill="#E3E3E3" height="30.2969" rx="2.5" ry="2.5" style="stroke:#181818;stroke-width:0.5;" width="71" x="674.5" y="87.2969"/><text fill="#000000" font-family="sans-serif" font-size="14" lengthAdjust="spacing" textLength="57" x="681.5" y="107.292">:System</text><rect fill="#E3E3E3" height="30.2969" rx="2.5" ry="2.5" style="stroke:#181818;stroke-width:0.5;" width="71" x="674.5" y="549.7078"/><text fill="#000000" font-family="sans-serif" font-size="14" lengthAdjust="spacing" textLength="57" x="681.5" y="569.7029">:System</text><rect fill="#FFFFFF" height="404.114" style="stroke:#181818;stroke-width:1.0;" width="10" x="92" y="128.5938"/><rect fill="#FFFFFF" height="382.963" style="stroke:#181818;stroke-width:1.0;" width="10" x="705" y="149.7448"/><polygon fill="#181818" points="693,145.7448,703,149.7448,693,153.7448,697,149.7448" style="stroke:#181818;stroke-width:1.0;"/><line style="stroke:#181818;stroke-width:1.0;" x1="102" x2="699" y1="149.7448" y2="149.7448"/><text fill="#000000" font-family="sans-serif" font-size="13" font-weight="bold" lengthAdjust="spacing" textLength="9" x="109" y="144.6751">1</text><text fill="#000000" font-family="sans-serif" font-size="13" lengthAdjust="spacing" textLength="181" x="122" y="144.6751">asks to list listed properties</text><polygon fill="#181818" points="113,174.8958,103,178.8958,113,182.8958,109,178.8958" style="stroke:#181818;stroke-width:1.0;"/><line style="stroke:#181818;stroke-width:1.0;stroke-dasharray:2.0,2.0;" x1="107" x2="704" y1="178.8958" y2="178.8958"/><text fill="#000000" font-family="sans-serif" font-size="13" font-weight="bold" lengthAdjust="spacing" textLength="9" x="119" y="173.8261">2</text><text fill="#000000" font-family="sans-serif" font-size="13" lengthAdjust="spacing" textLength="566" x="132" y="173.8261">asks if the user want to use filters (business type, number of bedrooms, property type)</text><polygon fill="#181818" points="693,204.0468,703,208.0468,693,212.0468,697,208.0468" style="stroke:#181818;stroke-width:1.0;"/><line style="stroke:#181818;stroke-width:1.0;" x1="102" x2="699" y1="208.0468" y2="208.0468"/><text fill="#000000" font-family="sans-serif" font-size="13" font-weight="bold" lengthAdjust="spacing" textLength="9" x="109" y="202.9771">3</text><text fill="#000000" font-family="sans-serif" font-size="13" lengthAdjust="spacing" textLength="82" x="122" y="202.9771">send answer</text><path d="M10,223.0468 L84,223.0468 L84,230.1978 L74,240.1978 L10,240.1978 L10,223.0468 " fill="#EEEEEE" style="stroke:#000000;stroke-width:1.5;"/><rect fill="none" height="223.208" style="stroke:#000000;stroke-width:1.5;" width="755.5" x="10" y="223.0468"/><text fill="#000000" font-family="sans-serif" font-size="13" font-weight="bold" lengthAdjust="spacing" textLength="24" x="25" y="236.1282">opt</text><text fill="#000000" font-family="sans-serif" font-size="11" font-weight="bold" lengthAdjust="spacing" textLength="96" x="99" y="235.2717">[answer = true]</text><polygon fill="#181818" points="113,257.3488,103,261.3488,113,265.3488,109,261.3488" style="stroke:#181818;stroke-width:1.0;"/><line style="stroke:#181818;stroke-width:1.0;stroke-dasharray:2.0,2.0;" x1="107" x2="704" y1="261.3488" y2="261.3488"/><text fill="#000000" font-family="sans-serif" font-size="13" font-weight="bold" lengthAdjust="spacing" textLength="9" x="119" y="256.2792">4</text><text fill="#000000" font-family="sans-serif" font-size="13" lengthAdjust="spacing" textLength="155" x="132" y="256.2792">displays business types</text><polygon fill="#181818" points="693,286.4998,703,290.4998,693,294.4998,697,290.4998" style="stroke:#181818;stroke-width:1.0;"/><line style="stroke:#181818;stroke-width:1.0;" x1="102" x2="699" y1="290.4998" y2="290.4998"/><text fill="#000000" font-family="sans-serif" font-size="13" font-weight="bold" lengthAdjust="spacing" textLength="9" x="109" y="285.4302">5</text><text fill="#000000" font-family="sans-serif" font-size="13" lengthAdjust="spacing" textLength="140" x="122" y="285.4302">selects business type</text><polygon fill="#181818" points="113,315.6508,103,319.6508,113,323.6508,109,319.6508" style="stroke:#181818;stroke-width:1.0;"/><line style="stroke:#181818;stroke-width:1.0;stroke-dasharray:2.0,2.0;" x1="107" x2="704" y1="319.6508" y2="319.6508"/><text fill="#000000" font-family="sans-serif" font-size="13" font-weight="bold" lengthAdjust="spacing" textLength="9" x="119" y="314.5812">6</text><text fill="#000000" font-family="sans-serif" font-size="13" lengthAdjust="spacing" textLength="153" x="132" y="314.5812">displays property types</text><polygon fill="#181818" points="693,344.8018,703,348.8018,693,352.8018,697,348.8018" style="stroke:#181818;stroke-width:1.0;"/><line style="stroke:#181818;stroke-width:1.0;" x1="102" x2="699" y1="348.8018" y2="348.8018"/><text fill="#000000" font-family="sans-serif" font-size="13" font-weight="bold" lengthAdjust="spacing" textLength="9" x="109" y="343.7322">7</text><text fill="#000000" font-family="sans-serif" font-size="13" lengthAdjust="spacing" textLength="138" x="122" y="343.7322">selects property type</text><path d="M20,363.8018 L89,363.8018 L89,370.9528 L79,380.9528 L20,380.9528 L20,363.8018 " fill="#EEEEEE" style="stroke:#000000;stroke-width:1.5;"/><rect fill="none" height="75.453" style="stroke:#000000;stroke-width:1.5;" width="735.5" x="20" y="363.8018"/><text fill="#000000" font-family="sans-serif" font-size="13" font-weight="bold" lengthAdjust="spacing" textLength="24" x="35" y="376.8832">opt</text><text fill="#000000" font-family="sans-serif" font-size="11" font-weight="bold" lengthAdjust="spacing" textLength="174" x="104" y="376.0267">[keepPropertyType != Land]</text><polygon fill="#181818" points="113,398.1038,103,402.1038,113,406.1038,109,402.1038" style="stroke:#181818;stroke-width:1.0;"/><line style="stroke:#181818;stroke-width:1.0;stroke-dasharray:2.0,2.0;" x1="107" x2="704" y1="402.1038" y2="402.1038"/><text fill="#000000" font-family="sans-serif" font-size="13" font-weight="bold" lengthAdjust="spacing" textLength="9" x="119" y="397.0342">8</text><text fill="#000000" font-family="sans-serif" font-size="13" lengthAdjust="spacing" textLength="170" x="132" y="397.0342">asks number of bedrooms</text><polygon fill="#181818" points="693,427.2548,703,431.2548,693,435.2548,697,431.2548" style="stroke:#181818;stroke-width:1.0;"/><line style="stroke:#181818;stroke-width:1.0;" x1="102" x2="699" y1="431.2548" y2="431.2548"/><text fill="#000000" font-family="sans-serif" font-size="13" font-weight="bold" lengthAdjust="spacing" textLength="9" x="109" y="426.1852">9</text><text fill="#000000" font-family="sans-serif" font-size="13" lengthAdjust="spacing" textLength="169" x="122" y="426.1852">type number of bedrooms</text><polygon fill="#181818" points="113,470.4058,103,474.4058,113,478.4058,109,474.4058" style="stroke:#181818;stroke-width:1.0;"/><line style="stroke:#181818;stroke-width:1.0;stroke-dasharray:2.0,2.0;" x1="107" x2="704" y1="474.4058" y2="474.4058"/><text fill="#000000" font-family="sans-serif" font-size="13" font-weight="bold" lengthAdjust="spacing" textLength="18" x="119" y="469.3362">10</text><text fill="#000000" font-family="sans-serif" font-size="13" lengthAdjust="spacing" textLength="144" x="141" y="469.3362">displays sort methods</text><polygon fill="#181818" points="693,499.5568,703,503.5568,693,507.5568,697,503.5568" style="stroke:#181818;stroke-width:1.0;"/><line style="stroke:#181818;stroke-width:1.0;" x1="102" x2="699" y1="503.5568" y2="503.5568"/><text fill="#000000" font-family="sans-serif" font-size="13" font-weight="bold" lengthAdjust="spacing" textLength="18" x="109" y="498.4872">11</text><text fill="#000000" font-family="sans-serif" font-size="13" lengthAdjust="spacing" textLength="129" x="131" y="498.4872">selects sort method</text><polygon fill="#181818" points="108,528.7078,98,532.7078,108,536.7078,104,532.7078" style="stroke:#181818;stroke-width:1.0;"/><line style="stroke:#181818;stroke-width:1.0;stroke-dasharray:2.0,2.0;" x1="102" x2="709" y1="532.7078" y2="532.7078"/><text fill="#000000" font-family="sans-serif" font-size="13" font-weight="bold" lengthAdjust="spacing" textLength="18" x="114" y="527.6382">12</text><text fill="#000000" font-family="sans-serif" font-size="13" lengthAdjust="spacing" textLength="157" x="136" y="527.6382">display listed properties</text><!--SRC=[VLBBRi8m4BpxAwQSG2e_W4gbIbmgjLAbb5FLWqcMO97OhjSfojztdG1DMi07AyxCpiu-U6-irq7Ng9rr-IwucX13GuhFYDVvNfUKnROY1CgZjcKr9F1E5-vWR8cjhfYKYYOADMivKesClXgoEM5bT9deqonRpPJIJNIsgJSKv3kFBc2oje5A8r612goPmWIQyRHwLP8ecjnuRICcYrwv0zVFNRJvrf4wff8ByqS1i132dX4TAX7jBj7rmNaIDMAb5EISmvDM_okTfFCmdm-4p1PnHsZ460x9YIZB0rjJYMN6TDEmiSIIilLqZxuwk2qsL0JdQhu_PMyxocoShNEz09Cje2qVKcTEU1bSu-5yn4SFOTdDwVEN8aRd8f6K5YWC-qgtZ94dlfIGgPAX_c6gOIikAuzAkQayOWvqKpbx8lzsnDy5njqIBzeMPzBOm74K_rkhHW63TgQSD_dIxYkFqGgSwsON8cgAErTSgXffWdtT0-QrRfvaBsnduXOqsix1C-tw3m00]--></g></svg>