<?xml version="1.0" encoding="us-ascii" standalone="no"?><svg xmlns="http://www.w3.org/2000/svg" xmlns:xlink="http://www.w3.org/1999/xlink" contentStyleType="text/css" height="2002px" preserveAspectRatio="none" style="width:3014px;height:2002px;background:#FFFFFF;" version="1.1" viewBox="0 0 3014 2002" width="3014px" zoomAndPan="magnify"><defs/><g><rect fill="#FFFFFF" height="1812.4063" style="stroke:#181818;stroke-width:1.0;" width="10" x="82" y="91.2969"/><rect fill="#FFFFFF" height="1791.2734" style="stroke:#181818;stroke-width:1.0;" width="10" x="560" y="112.4297"/><rect fill="#FFFFFF" height="1691.7109" style="stroke:#181818;stroke-width:1.0;" width="10" x="1924" y="182.8594"/><rect fill="#FFFFFF" height="29.1328" style="stroke:#181818;stroke-width:1.0;" width="10" x="2078" y="182.8594"/><rect fill="#FFFFFF" height="29.1328" style="stroke:#181818;stroke-width:1.0;" width="10" x="2195" y="1506.1719"/><rect fill="#FFFFFF" height="29.1328" style="stroke:#181818;stroke-width:1.0;" width="10" x="2399" y="1564.4375"/><rect fill="#FFFFFF" height="29.1328" style="stroke:#181818;stroke-width:1.0;" width="10" x="2912" y="1729.2344"/><rect fill="#FFFFFF" height="29.1328" style="stroke:#181818;stroke-width:1.0;" width="10" x="2912" y="1802.3047"/><rect fill="none" height="519.125" style="stroke:#000000;stroke-width:1.5;" width="687" x="10" y="929.7813"/><rect fill="none" height="237.8672" style="stroke:#000000;stroke-width:1.5;" width="1190" x="1818.5" y="1608.5703"/><rect fill="none" height="148.4688" style="stroke:#000000;stroke-width:1.5;" width="1170" x="1828.5" y="1690.9688"/><line style="stroke:#181818;stroke-width:0.5;stroke-dasharray:5.0,5.0;" x1="87" x2="87" y1="81.2969" y2="1921.7031"/><line style="stroke:#181818;stroke-width:0.5;stroke-dasharray:5.0,5.0;" x1="565" x2="565" y1="81.2969" y2="1921.7031"/><line style="stroke:#181818;stroke-width:0.5;stroke-dasharray:5.0,5.0;" x1="1928.5" x2="1928.5" y1="151.0781" y2="1921.7031"/><line style="stroke:#181818;stroke-width:0.5;stroke-dasharray:5.0,5.0;" x1="2082.5" x2="2082.5" y1="81.2969" y2="1921.7031"/><line style="stroke:#181818;stroke-width:0.5;stroke-dasharray:5.0,5.0;" x1="2199.5" x2="2199.5" y1="81.2969" y2="1921.7031"/><line style="stroke:#181818;stroke-width:0.5;stroke-dasharray:5.0,5.0;" x1="2403.5" x2="2403.5" y1="81.2969" y2="1921.7031"/><line style="stroke:#181818;stroke-width:0.5;stroke-dasharray:5.0,5.0;" x1="2916.5" x2="2916.5" y1="81.2969" y2="1921.7031"/><text fill="#000000" font-family="sans-serif" font-size="14" lengthAdjust="spacing" textLength="128" x="20" y="77.9951">Unregistered User</text><ellipse cx="87" cy="13.5" fill="#E3E3E3" rx="8" ry="8" style="stroke:#181818;stroke-width:0.5;"/><path d="M87,21.5 L87,48.5 M74,29.5 L100,29.5 M87,48.5 L74,63.5 M87,48.5 L100,63.5 " fill="none" style="stroke:#181818;stroke-width:0.5;"/><text fill="#000000" font-family="sans-serif" font-size="14" lengthAdjust="spacing" textLength="128" x="20" y="1933.6982">Unregistered User</text><ellipse cx="87" cy="1945.5" fill="#E3E3E3" rx="8" ry="8" style="stroke:#181818;stroke-width:0.5;"/><path d="M87,1953.5 L87,1980.5 M74,1961.5 L100,1961.5 M87,1980.5 L74,1995.5 M87,1980.5 L100,1995.5 " fill="none" style="stroke:#181818;stroke-width:0.5;"/><rect fill="#E3E3E3" height="30.2969" rx="2.5" ry="2.5" style="stroke:#181818;stroke-width:0.5;" width="124" x="503" y="50"/><text fill="#000000" font-family="sans-serif" font-size="14" lengthAdjust="spacing" textLength="110" x="510" y="69.9951">:RegisterUserUI</text><rect fill="#E3E3E3" height="30.2969" rx="2.5" ry="2.5" style="stroke:#181818;stroke-width:0.5;" width="124" x="503" y="1920.7031"/><text fill="#000000" font-family="sans-serif" font-size="14" lengthAdjust="spacing" textLength="110" x="510" y="1940.6982">:RegisterUserUI</text><rect fill="#E3E3E3" height="30.2969" rx="2.5" ry="2.5" style="stroke:#181818;stroke-width:0.5;" width="181" x="1838.5" y="1920.7031"/><text fill="#000000" font-family="sans-serif" font-size="14" lengthAdjust="spacing" textLength="167" x="1845.5" y="1940.6982">:RegisterUserController</text><rect fill="#E3E3E3" height="30.2969" rx="2.5" ry="2.5" style="stroke:#181818;stroke-width:0.5;" width="107" x="2029.5" y="50"/><text fill="#000000" font-family="sans-serif" font-size="14" lengthAdjust="spacing" textLength="93" x="2036.5" y="69.9951">:Repositories</text><rect fill="#E3E3E3" height="30.2969" rx="2.5" ry="2.5" style="stroke:#181818;stroke-width:0.5;" width="107" x="2029.5" y="1920.7031"/><text fill="#000000" font-family="sans-serif" font-size="14" lengthAdjust="spacing" textLength="93" x="2036.5" y="1940.6982">:Repositories</text><rect fill="#E3E3E3" height="46.5938" rx="2.5" ry="2.5" style="stroke:#181818;stroke-width:0.5;" width="107" x="2146.5" y="33.7031"/><text fill="#000000" font-family="sans-serif" font-size="14" lengthAdjust="spacing" textLength="84" x="2158" y="53.6982">repositories</text><text fill="#000000" font-family="sans-serif" font-size="14" lengthAdjust="spacing" textLength="93" x="2153.5" y="69.9951">:Repositories</text><rect fill="#E3E3E3" height="46.5938" rx="2.5" ry="2.5" style="stroke:#181818;stroke-width:0.5;" width="107" x="2146.5" y="1920.7031"/><text fill="#000000" font-family="sans-serif" font-size="14" lengthAdjust="spacing" textLength="84" x="2158" y="1940.6982">repositories</text><text fill="#000000" font-family="sans-serif" font-size="14" lengthAdjust="spacing" textLength="93" x="2153.5" y="1956.9951">:Repositories</text><rect fill="#E3E3E3" height="46.5938" rx="2.5" ry="2.5" style="stroke:#181818;stroke-width:0.5;" width="199" x="2304.5" y="33.7031"/><text fill="#000000" font-family="sans-serif" font-size="14" lengthAdjust="spacing" textLength="179" x="2314.5" y="53.6982">authenticationRepository</text><text fill="#000000" font-family="sans-serif" font-size="14" lengthAdjust="spacing" textLength="185" x="2311.5" y="69.9951">:AuthenticationRepository</text><rect fill="#E3E3E3" height="46.5938" rx="2.5" ry="2.5" style="stroke:#181818;stroke-width:0.5;" width="199" x="2304.5" y="1920.7031"/><text fill="#000000" font-family="sans-serif" font-size="14" lengthAdjust="spacing" textLength="179" x="2314.5" y="1940.6982">authenticationRepository</text><text fill="#000000" font-family="sans-serif" font-size="14" lengthAdjust="spacing" textLength="185" x="2311.5" y="1956.9951">:AuthenticationRepository</text><rect fill="#E3E3E3" height="46.5938" rx="2.5" ry="2.5" style="stroke:#181818;stroke-width:0.5;" width="143" x="2845.5" y="33.7031"/><text fill="#000000" font-family="sans-serif" font-size="14" lengthAdjust="spacing" textLength="125" x="2854.5" y="53.6982">personRepository</text><text fill="#000000" font-family="sans-serif" font-size="14" lengthAdjust="spacing" textLength="129" x="2852.5" y="69.9951">:PersonRepository</text><rect fill="#E3E3E3" height="46.5938" rx="2.5" ry="2.5" style="stroke:#181818;stroke-width:0.5;" width="143" x="2845.5" y="1920.7031"/><text fill="#000000" font-family="sans-serif" font-size="14" lengthAdjust="spacing" textLength="125" x="2854.5" y="1940.6982">personRepository</text><text fill="#000000" font-family="sans-serif" font-size="14" lengthAdjust="spacing" textLength="129" x="2852.5" y="1956.9951">:PersonRepository</text><rect fill="#FFFFFF" height="1812.4063" style="stroke:#181818;stroke-width:1.0;" width="10" x="82" y="91.2969"/><rect fill="#FFFFFF" height="1791.2734" style="stroke:#181818;stroke-width:1.0;" width="10" x="560" y="112.4297"/><rect fill="#FFFFFF" height="1691.7109" style="stroke:#181818;stroke-width:1.0;" width="10" x="1924" y="182.8594"/><rect fill="#FFFFFF" height="29.1328" style="stroke:#181818;stroke-width:1.0;" width="10" x="2078" y="182.8594"/><rect fill="#FFFFFF" height="29.1328" style="stroke:#181818;stroke-width:1.0;" width="10" x="2195" y="1506.1719"/><rect fill="#FFFFFF" height="29.1328" style="stroke:#181818;stroke-width:1.0;" width="10" x="2399" y="1564.4375"/><rect fill="#FFFFFF" height="29.1328" style="stroke:#181818;stroke-width:1.0;" width="10" x="2912" y="1729.2344"/><rect fill="#FFFFFF" height="29.1328" style="stroke:#181818;stroke-width:1.0;" width="10" x="2912" y="1802.3047"/><polygon fill="#181818" points="548,108.4297,558,112.4297,548,116.4297,552,112.4297" style="stroke:#181818;stroke-width:1.0;"/><line style="stroke:#181818;stroke-width:1.0;" x1="92" x2="554" y1="112.4297" y2="112.4297"/><text fill="#000000" font-family="sans-serif" font-size="13" font-weight="bold" lengthAdjust="spacing" textLength="9" x="99" y="107.3638">1</text><text fill="#000000" font-family="sans-serif" font-size="13" lengthAdjust="spacing" textLength="218" x="112" y="107.3638">asks to register in the application</text><polygon fill="#181818" points="1826.5,137.5625,1836.5,141.5625,1826.5,145.5625,1830.5,141.5625" style="stroke:#181818;stroke-width:1.0;"/><line style="stroke:#181818;stroke-width:1.0;" x1="570" x2="1832.5" y1="141.5625" y2="141.5625"/><text fill="#000000" font-family="sans-serif" font-size="13" font-weight="bold" lengthAdjust="spacing" textLength="9" x="577" y="136.4966">2</text><text fill="#000000" font-family="sans-serif" font-size="13" lengthAdjust="spacing" textLength="51" x="590" y="136.4966">create()</text><rect fill="#E3E3E3" height="30.2969" rx="2.5" ry="2.5" style="stroke:#181818;stroke-width:0.5;" width="181" x="1838.5" y="120.4297"/><text fill="#000000" font-family="sans-serif" font-size="14" lengthAdjust="spacing" textLength="167" x="1845.5" y="140.4248">:RegisterUserController</text><polygon fill="#181818" points="2066,178.8594,2076,182.8594,2066,186.8594,2070,182.8594" style="stroke:#181818;stroke-width:1.0;"/><line style="stroke:#181818;stroke-width:1.0;" x1="1934" x2="2072" y1="182.8594" y2="182.8594"/><text fill="#000000" font-family="sans-serif" font-size="13" font-weight="bold" lengthAdjust="spacing" textLength="9" x="1941" y="177.7935">3</text><text fill="#000000" font-family="sans-serif" font-size="13" lengthAdjust="spacing" textLength="86" x="1954" y="177.7935">getInstance()</text><polygon fill="#181818" points="1945,207.9922,1935,211.9922,1945,215.9922,1941,211.9922" style="stroke:#181818;stroke-width:1.0;"/><line style="stroke:#181818;stroke-width:1.0;stroke-dasharray:2.0,2.0;" x1="1939" x2="2082" y1="211.9922" y2="211.9922"/><text fill="#000000" font-family="sans-serif" font-size="13" font-weight="bold" lengthAdjust="spacing" textLength="9" x="1951" y="206.9263">4</text><text fill="#000000" font-family="sans-serif" font-size="13" lengthAdjust="spacing" textLength="77" x="1964" y="206.9263">repositories</text><polygon fill="#181818" points="103,237.125,93,241.125,103,245.125,99,241.125" style="stroke:#181818;stroke-width:1.0;"/><line style="stroke:#181818;stroke-width:1.0;stroke-dasharray:2.0,2.0;" x1="97" x2="559" y1="241.125" y2="241.125"/><text fill="#000000" font-family="sans-serif" font-size="13" font-weight="bold" lengthAdjust="spacing" textLength="9" x="109" y="236.0591">5</text><text fill="#000000" font-family="sans-serif" font-size="13" lengthAdjust="spacing" textLength="93" x="122" y="236.0591">asks for name</text><polygon fill="#181818" points="548,266.2578,558,270.2578,548,274.2578,552,270.2578" style="stroke:#181818;stroke-width:1.0;"/><line style="stroke:#181818;stroke-width:1.0;" x1="92" x2="554" y1="270.2578" y2="270.2578"/><text fill="#000000" font-family="sans-serif" font-size="13" font-weight="bold" lengthAdjust="spacing" textLength="9" x="99" y="265.1919">6</text><text fill="#000000" font-family="sans-serif" font-size="13" lengthAdjust="spacing" textLength="71" x="112" y="265.1919">sends data</text><line style="stroke:#181818;stroke-width:1.0;" x1="570" x2="612" y1="299.3906" y2="299.3906"/><line style="stroke:#181818;stroke-width:1.0;" x1="612" x2="612" y1="299.3906" y2="312.3906"/><line style="stroke:#181818;stroke-width:1.0;" x1="571" x2="612" y1="312.3906" y2="312.3906"/><polygon fill="#181818" points="581,308.3906,571,312.3906,581,316.3906,577,312.3906" style="stroke:#181818;stroke-width:1.0;"/><text fill="#000000" font-family="sans-serif" font-size="13" font-weight="bold" lengthAdjust="spacing" textLength="9" x="577" y="294.3247">7</text><text fill="#000000" font-family="sans-serif" font-size="13" lengthAdjust="spacing" textLength="71" x="590" y="294.3247">keepName</text><polygon fill="#181818" points="103,337.5234,93,341.5234,103,345.5234,99,341.5234" style="stroke:#181818;stroke-width:1.0;"/><line style="stroke:#181818;stroke-width:1.0;stroke-dasharray:2.0,2.0;" x1="97" x2="559" y1="341.5234" y2="341.5234"/><text fill="#000000" font-family="sans-serif" font-size="13" font-weight="bold" lengthAdjust="spacing" textLength="9" x="109" y="336.4575">8</text><text fill="#000000" font-family="sans-serif" font-size="13" lengthAdjust="spacing" textLength="98" x="122" y="336.4575">asks for e-mail</text><polygon fill="#181818" points="548,366.6563,558,370.6563,548,374.6563,552,370.6563" style="stroke:#181818;stroke-width:1.0;"/><line style="stroke:#181818;stroke-width:1.0;" x1="92" x2="554" y1="370.6563" y2="370.6563"/><text fill="#000000" font-family="sans-serif" font-size="13" font-weight="bold" lengthAdjust="spacing" textLength="9" x="99" y="365.5903">9</text><text fill="#000000" font-family="sans-serif" font-size="13" lengthAdjust="spacing" textLength="71" x="112" y="365.5903">sends data</text><line style="stroke:#181818;stroke-width:1.0;" x1="570" x2="612" y1="399.7891" y2="399.7891"/><line style="stroke:#181818;stroke-width:1.0;" x1="612" x2="612" y1="399.7891" y2="412.7891"/><line style="stroke:#181818;stroke-width:1.0;" x1="571" x2="612" y1="412.7891" y2="412.7891"/><polygon fill="#181818" points="581,408.7891,571,412.7891,581,416.7891,577,412.7891" style="stroke:#181818;stroke-width:1.0;"/><text fill="#000000" font-family="sans-serif" font-size="13" font-weight="bold" lengthAdjust="spacing" textLength="18" x="577" y="394.7231">10</text><text fill="#000000" font-family="sans-serif" font-size="13" lengthAdjust="spacing" textLength="69" x="599" y="394.7231">keepEmail</text><polygon fill="#181818" points="103,437.9219,93,441.9219,103,445.9219,99,441.9219" style="stroke:#181818;stroke-width:1.0;"/><line style="stroke:#181818;stroke-width:1.0;stroke-dasharray:2.0,2.0;" x1="97" x2="559" y1="441.9219" y2="441.9219"/><text fill="#000000" font-family="sans-serif" font-size="13" font-weight="bold" lengthAdjust="spacing" textLength="18" x="109" y="436.856">11</text><text fill="#000000" font-family="sans-serif" font-size="13" lengthAdjust="spacing" textLength="118" x="131" y="436.856">asks for password</text><polygon fill="#181818" points="548,467.0547,558,471.0547,548,475.0547,552,471.0547" style="stroke:#181818;stroke-width:1.0;"/><line style="stroke:#181818;stroke-width:1.0;" x1="92" x2="554" y1="471.0547" y2="471.0547"/><text fill="#000000" font-family="sans-serif" font-size="13" font-weight="bold" lengthAdjust="spacing" textLength="18" x="99" y="465.9888">12</text><text fill="#000000" font-family="sans-serif" font-size="13" lengthAdjust="spacing" textLength="71" x="121" y="465.9888">sends data</text><line style="stroke:#181818;stroke-width:1.0;" x1="570" x2="612" y1="500.1875" y2="500.1875"/><line style="stroke:#181818;stroke-width:1.0;" x1="612" x2="612" y1="500.1875" y2="513.1875"/><line style="stroke:#181818;stroke-width:1.0;" x1="571" x2="612" y1="513.1875" y2="513.1875"/><polygon fill="#181818" points="581,509.1875,571,513.1875,581,517.1875,577,513.1875" style="stroke:#181818;stroke-width:1.0;"/><text fill="#000000" font-family="sans-serif" font-size="13" font-weight="bold" lengthAdjust="spacing" textLength="18" x="577" y="495.1216">13</text><text fill="#000000" font-family="sans-serif" font-size="13" lengthAdjust="spacing" textLength="94" x="599" y="495.1216">keepPassword</text><polygon fill="#181818" points="103,538.3203,93,542.3203,103,546.3203,99,542.3203" style="stroke:#181818;stroke-width:1.0;"/><line style="stroke:#181818;stroke-width:1.0;stroke-dasharray:2.0,2.0;" x1="97" x2="559" y1="542.3203" y2="542.3203"/><text fill="#000000" font-family="sans-serif" font-size="13" font-weight="bold" lengthAdjust="spacing" textLength="18" x="109" y="537.2544">14</text><text fill="#000000" font-family="sans-serif" font-size="13" lengthAdjust="spacing" textLength="151" x="131" y="537.2544">asks for citizenNumber</text><polygon fill="#181818" points="548,567.4531,558,571.4531,548,575.4531,552,571.4531" style="stroke:#181818;stroke-width:1.0;"/><line style="stroke:#181818;stroke-width:1.0;" x1="92" x2="554" y1="571.4531" y2="571.4531"/><text fill="#000000" font-family="sans-serif" font-size="13" font-weight="bold" lengthAdjust="spacing" textLength="18" x="99" y="566.3872">15</text><text fill="#000000" font-family="sans-serif" font-size="13" lengthAdjust="spacing" textLength="71" x="121" y="566.3872">sends data</text><line style="stroke:#181818;stroke-width:1.0;" x1="570" x2="612" y1="600.5859" y2="600.5859"/><line style="stroke:#181818;stroke-width:1.0;" x1="612" x2="612" y1="600.5859" y2="613.5859"/><line style="stroke:#181818;stroke-width:1.0;" x1="571" x2="612" y1="613.5859" y2="613.5859"/><polygon fill="#181818" points="581,609.5859,571,613.5859,581,617.5859,577,613.5859" style="stroke:#181818;stroke-width:1.0;"/><text fill="#000000" font-family="sans-serif" font-size="13" font-weight="bold" lengthAdjust="spacing" textLength="18" x="577" y="595.52">16</text><text fill="#000000" font-family="sans-serif" font-size="13" lengthAdjust="spacing" textLength="129" x="599" y="595.52">keepCitizenNumber</text><polygon fill="#181818" points="103,638.7188,93,642.7188,103,646.7188,99,642.7188" style="stroke:#181818;stroke-width:1.0;"/><line style="stroke:#181818;stroke-width:1.0;stroke-dasharray:2.0,2.0;" x1="97" x2="559" y1="642.7188" y2="642.7188"/><text fill="#000000" font-family="sans-serif" font-size="13" font-weight="bold" lengthAdjust="spacing" textLength="18" x="109" y="637.6528">17</text><text fill="#000000" font-family="sans-serif" font-size="13" lengthAdjust="spacing" textLength="73" x="131" y="637.6528">asks for tin</text><polygon fill="#181818" points="548,667.8516,558,671.8516,548,675.8516,552,671.8516" style="stroke:#181818;stroke-width:1.0;"/><line style="stroke:#181818;stroke-width:1.0;" x1="92" x2="554" y1="671.8516" y2="671.8516"/><text fill="#000000" font-family="sans-serif" font-size="13" font-weight="bold" lengthAdjust="spacing" textLength="18" x="99" y="666.7856">18</text><text fill="#000000" font-family="sans-serif" font-size="13" lengthAdjust="spacing" textLength="71" x="121" y="666.7856">sends data</text><line style="stroke:#181818;stroke-width:1.0;" x1="570" x2="612" y1="700.9844" y2="700.9844"/><line style="stroke:#181818;stroke-width:1.0;" x1="612" x2="612" y1="700.9844" y2="713.9844"/><line style="stroke:#181818;stroke-width:1.0;" x1="571" x2="612" y1="713.9844" y2="713.9844"/><polygon fill="#181818" points="581,709.9844,571,713.9844,581,717.9844,577,713.9844" style="stroke:#181818;stroke-width:1.0;"/><text fill="#000000" font-family="sans-serif" font-size="13" font-weight="bold" lengthAdjust="spacing" textLength="18" x="577" y="695.9185">19</text><text fill="#000000" font-family="sans-serif" font-size="13" lengthAdjust="spacing" textLength="52" x="599" y="695.9185">keepTin</text><polygon fill="#181818" points="103,739.1172,93,743.1172,103,747.1172,99,743.1172" style="stroke:#181818;stroke-width:1.0;"/><line style="stroke:#181818;stroke-width:1.0;stroke-dasharray:2.0,2.0;" x1="97" x2="559" y1="743.1172" y2="743.1172"/><text fill="#000000" font-family="sans-serif" font-size="13" font-weight="bold" lengthAdjust="spacing" textLength="18" x="109" y="738.0513">20</text><text fill="#000000" font-family="sans-serif" font-size="13" lengthAdjust="spacing" textLength="150" x="131" y="738.0513">asks for phone number</text><polygon fill="#181818" points="548,768.25,558,772.25,548,776.25,552,772.25" style="stroke:#181818;stroke-width:1.0;"/><line style="stroke:#181818;stroke-width:1.0;" x1="92" x2="554" y1="772.25" y2="772.25"/><text fill="#000000" font-family="sans-serif" font-size="13" font-weight="bold" lengthAdjust="spacing" textLength="18" x="99" y="767.1841">21</text><text fill="#000000" font-family="sans-serif" font-size="13" lengthAdjust="spacing" textLength="71" x="121" y="767.1841">sends data</text><line style="stroke:#181818;stroke-width:1.0;" x1="570" x2="612" y1="801.3828" y2="801.3828"/><line style="stroke:#181818;stroke-width:1.0;" x1="612" x2="612" y1="801.3828" y2="814.3828"/><line style="stroke:#181818;stroke-width:1.0;" x1="571" x2="612" y1="814.3828" y2="814.3828"/><polygon fill="#181818" points="581,810.3828,571,814.3828,581,818.3828,577,814.3828" style="stroke:#181818;stroke-width:1.0;"/><text fill="#000000" font-family="sans-serif" font-size="13" font-weight="bold" lengthAdjust="spacing" textLength="18" x="577" y="796.3169">22</text><text fill="#000000" font-family="sans-serif" font-size="13" lengthAdjust="spacing" textLength="124" x="599" y="796.3169">keepPhoneNumber</text><polygon fill="#181818" points="103,839.5156,93,843.5156,103,847.5156,99,843.5156" style="stroke:#181818;stroke-width:1.0;"/><line style="stroke:#181818;stroke-width:1.0;" x1="97" x2="559" y1="843.5156" y2="843.5156"/><text fill="#000000" font-family="sans-serif" font-size="13" font-weight="bold" lengthAdjust="spacing" textLength="18" x="109" y="838.4497">23</text><text fill="#000000" font-family="sans-serif" font-size="13" lengthAdjust="spacing" textLength="422" x="131" y="838.4497">asks if the unregistered user wants to give the new user location</text><polygon fill="#181818" points="548,868.6484,558,872.6484,548,876.6484,552,872.6484" style="stroke:#181818;stroke-width:1.0;"/><line style="stroke:#181818;stroke-width:1.0;" x1="92" x2="554" y1="872.6484" y2="872.6484"/><text fill="#000000" font-family="sans-serif" font-size="13" font-weight="bold" lengthAdjust="spacing" textLength="18" x="99" y="867.5825">24</text><text fill="#000000" font-family="sans-serif" font-size="13" lengthAdjust="spacing" textLength="62" x="121" y="867.5825">true/false</text><line style="stroke:#181818;stroke-width:1.0;" x1="570" x2="612" y1="901.7813" y2="901.7813"/><line style="stroke:#181818;stroke-width:1.0;" x1="612" x2="612" y1="901.7813" y2="914.7813"/><line style="stroke:#181818;stroke-width:1.0;" x1="571" x2="612" y1="914.7813" y2="914.7813"/><polygon fill="#181818" points="581,910.7813,571,914.7813,581,918.7813,577,914.7813" style="stroke:#181818;stroke-width:1.0;"/><text fill="#000000" font-family="sans-serif" font-size="13" font-weight="bold" lengthAdjust="spacing" textLength="18" x="577" y="896.7153">25</text><text fill="#000000" font-family="sans-serif" font-size="13" lengthAdjust="spacing" textLength="41" x="599" y="896.7153">option</text><path d="M10,929.7813 L84,929.7813 L84,936.9141 L74,946.9141 L10,946.9141 L10,929.7813 " fill="#EEEEEE" style="stroke:#000000;stroke-width:1.5;"/><rect fill="none" height="519.125" style="stroke:#000000;stroke-width:1.5;" width="687" x="10" y="929.7813"/><text fill="#000000" font-family="sans-serif" font-size="13" font-weight="bold" lengthAdjust="spacing" textLength="24" x="25" y="942.8481">opt</text><text fill="#000000" font-family="sans-serif" font-size="11" font-weight="bold" lengthAdjust="spacing" textLength="35" x="99" y="941.9917">[true]</text><polygon fill="#181818" points="103,964.0469,93,968.0469,103,972.0469,99,968.0469" style="stroke:#181818;stroke-width:1.0;"/><line style="stroke:#181818;stroke-width:1.0;stroke-dasharray:2.0,2.0;" x1="97" x2="559" y1="968.0469" y2="968.0469"/><text fill="#000000" font-family="sans-serif" font-size="13" font-weight="bold" lengthAdjust="spacing" textLength="18" x="109" y="962.981">26</text><text fill="#000000" font-family="sans-serif" font-size="13" lengthAdjust="spacing" textLength="94" x="131" y="962.981">asks for street</text><polygon fill="#181818" points="548,993.1797,558,997.1797,548,1001.1797,552,997.1797" style="stroke:#181818;stroke-width:1.0;"/><line style="stroke:#181818;stroke-width:1.0;" x1="92" x2="554" y1="997.1797" y2="997.1797"/><text fill="#000000" font-family="sans-serif" font-size="13" font-weight="bold" lengthAdjust="spacing" textLength="18" x="99" y="992.1138">27</text><text fill="#000000" font-family="sans-serif" font-size="13" lengthAdjust="spacing" textLength="71" x="121" y="992.1138">sends data</text><line style="stroke:#181818;stroke-width:1.0;" x1="570" x2="612" y1="1026.3125" y2="1026.3125"/><line style="stroke:#181818;stroke-width:1.0;" x1="612" x2="612" y1="1026.3125" y2="1039.3125"/><line style="stroke:#181818;stroke-width:1.0;" x1="571" x2="612" y1="1039.3125" y2="1039.3125"/><polygon fill="#181818" points="581,1035.3125,571,1039.3125,581,1043.3125,577,1039.3125" style="stroke:#181818;stroke-width:1.0;"/><text fill="#000000" font-family="sans-serif" font-size="13" font-weight="bold" lengthAdjust="spacing" textLength="18" x="577" y="1021.2466">28</text><text fill="#000000" font-family="sans-serif" font-size="13" lengthAdjust="spacing" textLength="71" x="599" y="1021.2466">keepStreet</text><polygon fill="#181818" points="103,1064.4453,93,1068.4453,103,1072.4453,99,1068.4453" style="stroke:#181818;stroke-width:1.0;"/><line style="stroke:#181818;stroke-width:1.0;stroke-dasharray:2.0,2.0;" x1="97" x2="559" y1="1068.4453" y2="1068.4453"/><text fill="#000000" font-family="sans-serif" font-size="13" font-weight="bold" lengthAdjust="spacing" textLength="18" x="109" y="1063.3794">29</text><text fill="#000000" font-family="sans-serif" font-size="13" lengthAdjust="spacing" textLength="106" x="131" y="1063.3794">asks for zipcode</text><polygon fill="#181818" points="548,1093.5781,558,1097.5781,548,1101.5781,552,1097.5781" style="stroke:#181818;stroke-width:1.0;"/><line style="stroke:#181818;stroke-width:1.0;" x1="92" x2="554" y1="1097.5781" y2="1097.5781"/><text fill="#000000" font-family="sans-serif" font-size="13" font-weight="bold" lengthAdjust="spacing" textLength="18" x="99" y="1092.5122">30</text><text fill="#000000" font-family="sans-serif" font-size="13" lengthAdjust="spacing" textLength="71" x="121" y="1092.5122">sends data</text><line style="stroke:#181818;stroke-width:1.0;" x1="570" x2="612" y1="1126.7109" y2="1126.7109"/><line style="stroke:#181818;stroke-width:1.0;" x1="612" x2="612" y1="1126.7109" y2="1139.7109"/><line style="stroke:#181818;stroke-width:1.0;" x1="571" x2="612" y1="1139.7109" y2="1139.7109"/><polygon fill="#181818" points="581,1135.7109,571,1139.7109,581,1143.7109,577,1139.7109" style="stroke:#181818;stroke-width:1.0;"/><text fill="#000000" font-family="sans-serif" font-size="13" font-weight="bold" lengthAdjust="spacing" textLength="18" x="577" y="1121.645">31</text><text fill="#000000" font-family="sans-serif" font-size="13" lengthAdjust="spacing" textLength="86" x="599" y="1121.645">keepZipCode</text><polygon fill="#181818" points="103,1164.8438,93,1168.8438,103,1172.8438,99,1168.8438" style="stroke:#181818;stroke-width:1.0;"/><line style="stroke:#181818;stroke-width:1.0;stroke-dasharray:2.0,2.0;" x1="97" x2="559" y1="1168.8438" y2="1168.8438"/><text fill="#000000" font-family="sans-serif" font-size="13" font-weight="bold" lengthAdjust="spacing" textLength="18" x="109" y="1163.7778">32</text><text fill="#000000" font-family="sans-serif" font-size="13" lengthAdjust="spacing" textLength="89" x="131" y="1163.7778">asks for state</text><polygon fill="#181818" points="548,1193.9766,558,1197.9766,548,1201.9766,552,1197.9766" style="stroke:#181818;stroke-width:1.0;"/><line style="stroke:#181818;stroke-width:1.0;" x1="92" x2="554" y1="1197.9766" y2="1197.9766"/><text fill="#000000" font-family="sans-serif" font-size="13" font-weight="bold" lengthAdjust="spacing" textLength="18" x="99" y="1192.9106">33</text><text fill="#000000" font-family="sans-serif" font-size="13" lengthAdjust="spacing" textLength="71" x="121" y="1192.9106">sends data</text><line style="stroke:#181818;stroke-width:1.0;" x1="570" x2="612" y1="1227.1094" y2="1227.1094"/><line style="stroke:#181818;stroke-width:1.0;" x1="612" x2="612" y1="1227.1094" y2="1240.1094"/><line style="stroke:#181818;stroke-width:1.0;" x1="571" x2="612" y1="1240.1094" y2="1240.1094"/><polygon fill="#181818" points="581,1236.1094,571,1240.1094,581,1244.1094,577,1240.1094" style="stroke:#181818;stroke-width:1.0;"/><text fill="#000000" font-family="sans-serif" font-size="13" font-weight="bold" lengthAdjust="spacing" textLength="18" x="577" y="1222.0435">34</text><text fill="#000000" font-family="sans-serif" font-size="13" lengthAdjust="spacing" textLength="84" x="599" y="1222.0435">keepStateUS</text><polygon fill="#181818" points="103,1265.2422,93,1269.2422,103,1273.2422,99,1269.2422" style="stroke:#181818;stroke-width:1.0;"/><line style="stroke:#181818;stroke-width:1.0;stroke-dasharray:2.0,2.0;" x1="97" x2="559" y1="1269.2422" y2="1269.2422"/><text fill="#000000" font-family="sans-serif" font-size="13" font-weight="bold" lengthAdjust="spacing" textLength="18" x="109" y="1264.1763">35</text><text fill="#000000" font-family="sans-serif" font-size="13" lengthAdjust="spacing" textLength="80" x="131" y="1264.1763">asks for city</text><polygon fill="#181818" points="548,1294.375,558,1298.375,548,1302.375,552,1298.375" style="stroke:#181818;stroke-width:1.0;"/><line style="stroke:#181818;stroke-width:1.0;" x1="92" x2="554" y1="1298.375" y2="1298.375"/><text fill="#000000" font-family="sans-serif" font-size="13" font-weight="bold" lengthAdjust="spacing" textLength="18" x="99" y="1293.3091">36</text><text fill="#000000" font-family="sans-serif" font-size="13" lengthAdjust="spacing" textLength="71" x="121" y="1293.3091">sends data</text><line style="stroke:#181818;stroke-width:1.0;" x1="570" x2="612" y1="1327.5078" y2="1327.5078"/><line style="stroke:#181818;stroke-width:1.0;" x1="612" x2="612" y1="1327.5078" y2="1340.5078"/><line style="stroke:#181818;stroke-width:1.0;" x1="571" x2="612" y1="1340.5078" y2="1340.5078"/><polygon fill="#181818" points="581,1336.5078,571,1340.5078,581,1344.5078,577,1340.5078" style="stroke:#181818;stroke-width:1.0;"/><text fill="#000000" font-family="sans-serif" font-size="13" font-weight="bold" lengthAdjust="spacing" textLength="18" x="577" y="1322.4419">37</text><text fill="#000000" font-family="sans-serif" font-size="13" lengthAdjust="spacing" textLength="58" x="599" y="1322.4419">keepCity</text><polygon fill="#181818" points="103,1365.6406,93,1369.6406,103,1373.6406,99,1369.6406" style="stroke:#181818;stroke-width:1.0;"/><line style="stroke:#181818;stroke-width:1.0;stroke-dasharray:2.0,2.0;" x1="97" x2="559" y1="1369.6406" y2="1369.6406"/><text fill="#000000" font-family="sans-serif" font-size="13" font-weight="bold" lengthAdjust="spacing" textLength="18" x="109" y="1364.5747">38</text><text fill="#000000" font-family="sans-serif" font-size="13" lengthAdjust="spacing" textLength="101" x="131" y="1364.5747">asks for district</text><polygon fill="#181818" points="548,1394.7734,558,1398.7734,548,1402.7734,552,1398.7734" style="stroke:#181818;stroke-width:1.0;"/><line style="stroke:#181818;stroke-width:1.0;" x1="92" x2="554" y1="1398.7734" y2="1398.7734"/><text fill="#000000" font-family="sans-serif" font-size="13" font-weight="bold" lengthAdjust="spacing" textLength="18" x="99" y="1393.7075">39</text><text fill="#000000" font-family="sans-serif" font-size="13" lengthAdjust="spacing" textLength="71" x="121" y="1393.7075">sends data</text><line style="stroke:#181818;stroke-width:1.0;" x1="570" x2="612" y1="1427.9063" y2="1427.9063"/><line style="stroke:#181818;stroke-width:1.0;" x1="612" x2="612" y1="1427.9063" y2="1440.9063"/><line style="stroke:#181818;stroke-width:1.0;" x1="571" x2="612" y1="1440.9063" y2="1440.9063"/><polygon fill="#181818" points="581,1436.9063,571,1440.9063,581,1444.9063,577,1440.9063" style="stroke:#181818;stroke-width:1.0;"/><text fill="#000000" font-family="sans-serif" font-size="13" font-weight="bold" lengthAdjust="spacing" textLength="18" x="577" y="1422.8403">40</text><text fill="#000000" font-family="sans-serif" font-size="13" lengthAdjust="spacing" textLength="79" x="599" y="1422.8403">keepDistrict</text><polygon fill="#181818" points="1912,1473.0391,1922,1477.0391,1912,1481.0391,1916,1477.0391" style="stroke:#181818;stroke-width:1.0;"/><line style="stroke:#181818;stroke-width:1.0;" x1="570" x2="1918" y1="1477.0391" y2="1477.0391"/><text fill="#000000" font-family="sans-serif" font-size="13" font-weight="bold" lengthAdjust="spacing" textLength="18" x="577" y="1471.9731">41</text><text fill="#000000" font-family="sans-serif" font-size="13" lengthAdjust="spacing" textLength="1308" x="599" y="1471.9731">registerUserWithClientAndOwnerPerms(keepName,keepEmail,keepPassword,Roles,keepCitizenNumber,keepPhoneNumber,keepTin,keepStreet,keepZipCode,keepStateUS,keepCity,keepDistrict,option)</text><polygon fill="#181818" points="2183,1502.1719,2193,1506.1719,2183,1510.1719,2187,1506.1719" style="stroke:#181818;stroke-width:1.0;"/><line style="stroke:#181818;stroke-width:1.0;" x1="1934" x2="2189" y1="1506.1719" y2="1506.1719"/><text fill="#000000" font-family="sans-serif" font-size="13" font-weight="bold" lengthAdjust="spacing" textLength="18" x="1941" y="1501.106">42</text><text fill="#000000" font-family="sans-serif" font-size="13" lengthAdjust="spacing" textLength="196" x="1963" y="1501.106">getAuthenticationRepository()</text><polygon fill="#181818" points="1945,1531.3047,1935,1535.3047,1945,1539.3047,1941,1535.3047" style="stroke:#181818;stroke-width:1.0;"/><line style="stroke:#181818;stroke-width:1.0;stroke-dasharray:2.0,2.0;" x1="1939" x2="2199" y1="1535.3047" y2="1535.3047"/><text fill="#000000" font-family="sans-serif" font-size="13" font-weight="bold" lengthAdjust="spacing" textLength="18" x="1951" y="1530.2388">43</text><text fill="#000000" font-family="sans-serif" font-size="13" lengthAdjust="spacing" textLength="164" x="1973" y="1530.2388">authenticationRepository</text><polygon fill="#181818" points="2387,1560.4375,2397,1564.4375,2387,1568.4375,2391,1564.4375" style="stroke:#181818;stroke-width:1.0;"/><line style="stroke:#181818;stroke-width:1.0;" x1="1934" x2="2393" y1="1564.4375" y2="1564.4375"/><text fill="#000000" font-family="sans-serif" font-size="13" font-weight="bold" lengthAdjust="spacing" textLength="18" x="1941" y="1559.3716">44</text><text fill="#000000" font-family="sans-serif" font-size="13" lengthAdjust="spacing" textLength="424" x="1963" y="1559.3716">addUserWithRoles(keepName, keepEmail, keepPassword, Roles)</text><polygon fill="#181818" points="1945,1589.5703,1935,1593.5703,1945,1597.5703,1941,1593.5703" style="stroke:#181818;stroke-width:1.0;"/><line style="stroke:#181818;stroke-width:1.0;stroke-dasharray:2.0,2.0;" x1="1939" x2="2403" y1="1593.5703" y2="1593.5703"/><text fill="#000000" font-family="sans-serif" font-size="13" font-weight="bold" lengthAdjust="spacing" textLength="18" x="1951" y="1588.5044">45</text><text fill="#000000" font-family="sans-serif" font-size="13" lengthAdjust="spacing" textLength="62" x="1973" y="1588.5044">true/false</text><path d="M1818.5,1608.5703 L1892.5,1608.5703 L1892.5,1615.7031 L1882.5,1625.7031 L1818.5,1625.7031 L1818.5,1608.5703 " fill="#EEEEEE" style="stroke:#000000;stroke-width:1.5;"/><rect fill="none" height="237.8672" style="stroke:#000000;stroke-width:1.5;" width="1190" x="1818.5" y="1608.5703"/><text fill="#000000" font-family="sans-serif" font-size="13" font-weight="bold" lengthAdjust="spacing" textLength="24" x="1833.5" y="1621.6372">opt</text><text fill="#000000" font-family="sans-serif" font-size="11" font-weight="bold" lengthAdjust="spacing" textLength="35" x="1907.5" y="1620.7808">[true]</text><polygon fill="#181818" points="2188,1642.8359,2198,1646.8359,2188,1650.8359,2192,1646.8359" style="stroke:#181818;stroke-width:1.0;"/><line style="stroke:#181818;stroke-width:1.0;" x1="1934" x2="2194" y1="1646.8359" y2="1646.8359"/><text fill="#000000" font-family="sans-serif" font-size="13" font-weight="bold" lengthAdjust="spacing" textLength="18" x="1941" y="1641.77">46</text><text fill="#000000" font-family="sans-serif" font-size="13" lengthAdjust="spacing" textLength="145" x="1963" y="1641.77">getPersonRepository()</text><polygon fill="#181818" points="1945,1671.9688,1935,1675.9688,1945,1679.9688,1941,1675.9688" style="stroke:#181818;stroke-width:1.0;"/><line style="stroke:#181818;stroke-width:1.0;stroke-dasharray:2.0,2.0;" x1="1939" x2="2199" y1="1675.9688" y2="1675.9688"/><text fill="#000000" font-family="sans-serif" font-size="13" font-weight="bold" lengthAdjust="spacing" textLength="18" x="1951" y="1670.9028">47</text><text fill="#000000" font-family="sans-serif" font-size="13" lengthAdjust="spacing" textLength="114" x="1973" y="1670.9028">personRepository</text><path d="M1828.5,1690.9688 L1902.5,1690.9688 L1902.5,1698.1016 L1892.5,1708.1016 L1828.5,1708.1016 L1828.5,1690.9688 " fill="#EEEEEE" style="stroke:#000000;stroke-width:1.5;"/><rect fill="none" height="148.4688" style="stroke:#000000;stroke-width:1.5;" width="1170" x="1828.5" y="1690.9688"/><text fill="#000000" font-family="sans-serif" font-size="13" font-weight="bold" lengthAdjust="spacing" textLength="19" x="1843.5" y="1704.0356">alt</text><text fill="#000000" font-family="sans-serif" font-size="11" font-weight="bold" lengthAdjust="spacing" textLength="85" x="1917.5" y="1703.1792">[option=true]</text><polygon fill="#181818" points="2900,1725.2344,2910,1729.2344,2900,1733.2344,2904,1729.2344" style="stroke:#181818;stroke-width:1.0;"/><line style="stroke:#181818;stroke-width:1.0;" x1="1934" x2="2906" y1="1729.2344" y2="1729.2344"/><text fill="#000000" font-family="sans-serif" font-size="13" font-weight="bold" lengthAdjust="spacing" textLength="18" x="1941" y="1724.1685">48</text><text fill="#000000" font-family="sans-serif" font-size="13" lengthAdjust="spacing" textLength="937" x="1963" y="1724.1685">addPerson(keepName,keepEmail,keepCitizenNumber,keepTin,keepPhoneNumber,keepStreet,keepZipCode,keepStateUS,keepCity,keepDistrict)</text><polygon fill="#181818" points="1945,1754.3672,1935,1758.3672,1945,1762.3672,1941,1758.3672" style="stroke:#181818;stroke-width:1.0;"/><line style="stroke:#181818;stroke-width:1.0;stroke-dasharray:2.0,2.0;" x1="1939" x2="2916" y1="1758.3672" y2="1758.3672"/><text fill="#000000" font-family="sans-serif" font-size="13" font-weight="bold" lengthAdjust="spacing" textLength="18" x="1951" y="1753.3013">49</text><text fill="#000000" font-family="sans-serif" font-size="13" lengthAdjust="spacing" textLength="44" x="1973" y="1753.3013">person</text><line style="stroke:#000000;stroke-width:1.0;stroke-dasharray:2.0,2.0;" x1="1828.5" x2="2998.5" y1="1767.3672" y2="1767.3672"/><text fill="#000000" font-family="sans-serif" font-size="11" font-weight="bold" lengthAdjust="spacing" textLength="90" x="1833.5" y="1777.5776">[option=false]</text><polygon fill="#181818" points="2900,1798.3047,2910,1802.3047,2900,1806.3047,2904,1802.3047" style="stroke:#181818;stroke-width:1.0;"/><line style="stroke:#181818;stroke-width:1.0;" x1="1934" x2="2906" y1="1802.3047" y2="1802.3047"/><text fill="#000000" font-family="sans-serif" font-size="13" font-weight="bold" lengthAdjust="spacing" textLength="18" x="1941" y="1797.2388">50</text><text fill="#000000" font-family="sans-serif" font-size="13" lengthAdjust="spacing" textLength="539" x="1963" y="1797.2388">addPerson(keepName,keepEmail,keepCitizenNumber,keepTin,keepPhoneNumber)</text><polygon fill="#181818" points="1945,1827.4375,1935,1831.4375,1945,1835.4375,1941,1831.4375" style="stroke:#181818;stroke-width:1.0;"/><line style="stroke:#181818;stroke-width:1.0;stroke-dasharray:2.0,2.0;" x1="1939" x2="2916" y1="1831.4375" y2="1831.4375"/><text fill="#000000" font-family="sans-serif" font-size="13" font-weight="bold" lengthAdjust="spacing" textLength="18" x="1951" y="1826.3716">51</text><text fill="#000000" font-family="sans-serif" font-size="13" lengthAdjust="spacing" textLength="44" x="1973" y="1826.3716">person</text><polygon fill="#181818" points="581,1870.5703,571,1874.5703,581,1878.5703,577,1874.5703" style="stroke:#181818;stroke-width:1.0;"/><line style="stroke:#181818;stroke-width:1.0;stroke-dasharray:2.0,2.0;" x1="575" x2="1928" y1="1874.5703" y2="1874.5703"/><text fill="#000000" font-family="sans-serif" font-size="13" font-weight="bold" lengthAdjust="spacing" textLength="18" x="587" y="1869.5044">52</text><text fill="#000000" font-family="sans-serif" font-size="13" lengthAdjust="spacing" textLength="62" x="609" y="1869.5044">true/false</text><polygon fill="#181818" points="98,1899.7031,88,1903.7031,98,1907.7031,94,1903.7031" style="stroke:#181818;stroke-width:1.0;"/><line style="stroke:#181818;stroke-width:1.0;stroke-dasharray:2.0,2.0;" x1="92" x2="564" y1="1903.7031" y2="1903.7031"/><text fill="#000000" font-family="sans-serif" font-size="13" font-weight="bold" lengthAdjust="spacing" textLength="18" x="104" y="1898.6372">53</text><text fill="#000000" font-family="sans-serif" font-size="13" lengthAdjust="spacing" textLength="168" x="126" y="1898.6372">display operation success</text><!--SRC=[lLTBRzim3BxhLn2zB1rSx1vW1Ogq609iRP0s6B1k1zLc4o6EP4XAi_JNZv8TMtxbqQtJAP78Z-H7YfJDKiYCQxw2bP8gNcYrGh1wZSoK9ncFbtoEztQR8cYCBPVpD1Gm2vweZP1pUEQfGSRusYgvNZsXPkp3GYG8pqhP9_MRyTWg3MSpgN4kZ4MD2SmCwZFW1gwklp52j28M6PSMpeRJGig9pCPUQ3RU8pDIqcgLfWNWw67wjIMTAIF82O76oznDlzH5T23nKxOLfZUJkxe6XRj0IV-v5KgM2blIlkevokFjEQoZPwXD0tNIsF9epKsMBs9Sl72Bdbq6jEW7N5mIaJ0alQK1gs2N3X0Io2dWMPOMVh5SgyIX1FWDjmY3a1pD7pyE8TP80eDpLWcu8oT2B9ErETgnD5G_iPFQoPJ8FbsjNPUWSXSyqaLXT0XXiagX1BkLdRSNbnH-4VSpbQBaAwmaIcg6O50c1X9kUJDSEbqYPhSrpIvil5XnaOREdsxbfWxHPIRZncoKJlxEqAI5qcKh5bQyehmjBZVqh0E6EnqOrQ7tkc65_BV67qB0Jf8NIYB8lhXFOjf1DHdC9IgRujdVmtNOADVKuM13JS5VsRbuGIyZSPCVfQguiN34gZnsxVvJthcFKPoDY-QXihmz7ACqrsgT0Md0epFtwq1-ZTM8TW_qgJa6H_nzWLhATPb-5Lci4ZmSrf4kT7hoGsGZRuJj9O4wsFlwSUzCpEuFtldj4La-pO-68wFGHfSJ2Lq2BMBxldnSbrO21GB9wvSnrZNwO5YEJ_S6-IxiOfGA6knNChdRIDGqcLTci9iPKTdMex3lHbELeebQdJ1gj8oeQ5THLT5HK59HaDOTs3OAOuloUtlU7jBkPUE7TD_3P10ebIFMluVARVSlcCzzJoFMDQphI3kl-fnnhvSasJ7ksQiuXefagB4CNl2yNW_L6-cWkxtUL347_RHMCK6a_NPOVySCFMwbhFdw6pH2hEM5gCjQhyLsk-Qf1NZCo-Np7YUQjdrYyis-gc-N-AwacwN-bXBlI-zaRz3DqogbELbrwI2R-s6H2W4A4ekg-9yadlTtp2C3U3j79_CLjDhsLfsnthTBOCX_K3HcM_x6ed6IfNnBUK7jxo2OTHoZCJln0CLzy8HtbxwZ_W00]--></g></svg>