<?xml version="1.0" encoding="us-ascii" standalone="no"?><svg xmlns="http://www.w3.org/2000/svg" xmlns:xlink="http://www.w3.org/1999/xlink" contentStyleType="text/css" height="277px" preserveAspectRatio="none" style="width:4383px;height:277px;background:#FFFFFF;" version="1.1" viewBox="0 0 4383 277" width="4383px" zoomAndPan="magnify"><defs/><g><!--class RegisterUserUI--><g id="elem_RegisterUserUI"><rect codeLine="26" fill="#F1F1F1" height="64.2969" id="RegisterUserUI" rx="2.5" ry="2.5" style="stroke:#181818;stroke-width:0.5;" width="236" x="977" y="21"/><ellipse cx="1038.25" cy="37" fill="#ADD1B2" rx="11" ry="11" style="stroke:#181818;stroke-width:1.0;"/><path d="M1041.2188,42.6406 Q1040.6406,42.9375 1040,43.0781 Q1039.3594,43.2344 1038.6563,43.2344 Q1036.1563,43.2344 1034.8281,41.5938 Q1033.5156,39.9375 1033.5156,36.8125 Q1033.5156,33.6875 1034.8281,32.0313 Q1036.1563,30.375 1038.6563,30.375 Q1039.3594,30.375 1040,30.5313 Q1040.6563,30.6875 1041.2188,30.9844 L1041.2188,33.7031 Q1040.5938,33.125 1040,32.8594 Q1039.4063,32.5781 1038.7813,32.5781 Q1037.4375,32.5781 1036.75,33.6563 Q1036.0625,34.7188 1036.0625,36.8125 Q1036.0625,38.9063 1036.75,39.9844 Q1037.4375,41.0469 1038.7813,41.0469 Q1039.4063,41.0469 1040,40.7813 Q1040.5938,40.5 1041.2188,39.9219 L1041.2188,42.6406 Z " fill="#000000"/><text fill="#000000" font-family="sans-serif" font-size="14" lengthAdjust="spacing" textLength="105" x="1058.75" y="41.8467">RegisterUserUI</text><line style="stroke:#181818;stroke-width:0.5;" x1="978" x2="1212" y1="53" y2="53"/><text fill="#000000" font-family="sans-serif" font-size="14" lengthAdjust="spacing" textLength="224" x="983" y="69.9951">+create RegisterUserController</text><line style="stroke:#181818;stroke-width:0.5;" x1="978" x2="1212" y1="77.2969" y2="77.2969"/></g><!--class RegisterUserController--><g id="elem_RegisterUserController"><rect codeLine="31" fill="#F1F1F1" height="64.2969" id="RegisterUserController" rx="2.5" ry="2.5" style="stroke:#181818;stroke-width:0.5;" width="2176" x="7" y="120"/><ellipse cx="1009.75" cy="136" fill="#ADD1B2" rx="11" ry="11" style="stroke:#181818;stroke-width:1.0;"/><path d="M1012.7188,141.6406 Q1012.1406,141.9375 1011.5,142.0781 Q1010.8594,142.2344 1010.1563,142.2344 Q1007.6563,142.2344 1006.3281,140.5938 Q1005.0156,138.9375 1005.0156,135.8125 Q1005.0156,132.6875 1006.3281,131.0313 Q1007.6563,129.375 1010.1563,129.375 Q1010.8594,129.375 1011.5,129.5313 Q1012.1563,129.6875 1012.7188,129.9844 L1012.7188,132.7031 Q1012.0938,132.125 1011.5,131.8594 Q1010.9063,131.5781 1010.2813,131.5781 Q1008.9375,131.5781 1008.25,132.6563 Q1007.5625,133.7188 1007.5625,135.8125 Q1007.5625,137.9063 1008.25,138.9844 Q1008.9375,140.0469 1010.2813,140.0469 Q1010.9063,140.0469 1011.5,139.7813 Q1012.0938,139.5 1012.7188,138.9219 L1012.7188,141.6406 Z " fill="#000000"/><text fill="#000000" font-family="sans-serif" font-size="14" lengthAdjust="spacing" textLength="162" x="1030.25" y="140.8467">RegisterUserController</text><line style="stroke:#181818;stroke-width:0.5;" x1="8" x2="2182" y1="152" y2="152"/><line style="stroke:#181818;stroke-width:0.5;" x1="8" x2="2182" y1="160" y2="160"/><text fill="#000000" font-family="sans-serif" font-size="14" lengthAdjust="spacing" textLength="2164" x="13" y="176.9951">+boolean registerUserWithClientAndOwnerPerms(String[] roles, String keepName, String keepEmail, String keepPassword, String keepCitizenNumber, String keepPhoneNumber, String keepTin, String keepStreet, String keepZipCode, String keepStateUS, String keepCity, String keepDistrict,boolean option)}</text></g><!--class Repositories--><g id="elem_Repositories"><rect codeLine="36" fill="#F1F1F1" height="113.1875" id="Repositories" rx="2.5" ry="2.5" style="stroke:#181818;stroke-width:0.5;" width="236" x="2322" y="95.5"/><ellipse cx="2391.75" cy="111.5" fill="#ADD1B2" rx="11" ry="11" style="stroke:#181818;stroke-width:1.0;"/><path d="M2394.7188,117.1406 Q2394.1406,117.4375 2393.5,117.5781 Q2392.8594,117.7344 2392.1563,117.7344 Q2389.6563,117.7344 2388.3281,116.0938 Q2387.0156,114.4375 2387.0156,111.3125 Q2387.0156,108.1875 2388.3281,106.5313 Q2389.6563,104.875 2392.1563,104.875 Q2392.8594,104.875 2393.5,105.0313 Q2394.1563,105.1875 2394.7188,105.4844 L2394.7188,108.2031 Q2394.0938,107.625 2393.5,107.3594 Q2392.9063,107.0781 2392.2813,107.0781 Q2390.9375,107.0781 2390.25,108.1563 Q2389.5625,109.2188 2389.5625,111.3125 Q2389.5625,113.4063 2390.25,114.4844 Q2390.9375,115.5469 2392.2813,115.5469 Q2392.9063,115.5469 2393.5,115.2813 Q2394.0938,115 2394.7188,114.4219 L2394.7188,117.1406 Z " fill="#000000"/><text fill="#000000" font-family="sans-serif" font-size="14" lengthAdjust="spacing" textLength="88" x="2412.25" y="116.3467">Repositories</text><line style="stroke:#181818;stroke-width:0.5;" x1="2323" x2="2557" y1="127.5" y2="127.5"/><line style="stroke:#181818;stroke-width:0.5;" x1="2323" x2="2557" y1="135.5" y2="135.5"/><text fill="#000000" font-family="sans-serif" font-size="14" lengthAdjust="spacing" textLength="103" x="2328" y="152.4951">-Repositories()</text><text fill="#000000" font-family="sans-serif" font-size="14" lengthAdjust="spacing" textLength="206" x="2328" y="168.792">+getInstance() : Repositories</text><text fill="#000000" font-family="sans-serif" font-size="14" lengthAdjust="spacing" textLength="224" x="2328" y="185.0889">+getauthenticationRepository()</text><text fill="#000000" font-family="sans-serif" font-size="14" lengthAdjust="spacing" textLength="169" x="2328" y="201.3857">+getPersonRepository()</text></g><!--class AuthenticationRepository--><g id="elem_AuthenticationRepository"><rect codeLine="43" fill="#F1F1F1" height="48" id="AuthenticationRepository" rx="2.5" ry="2.5" style="stroke:#181818;stroke-width:0.5;" width="212" x="3391.5" y="7"/><ellipse cx="3406.5" cy="23" fill="#ADD1B2" rx="11" ry="11" style="stroke:#181818;stroke-width:1.0;"/><path d="M3409.4688,28.6406 Q3408.8906,28.9375 3408.25,29.0781 Q3407.6094,29.2344 3406.9063,29.2344 Q3404.4063,29.2344 3403.0781,27.5938 Q3401.7656,25.9375 3401.7656,22.8125 Q3401.7656,19.6875 3403.0781,18.0313 Q3404.4063,16.375 3406.9063,16.375 Q3407.6094,16.375 3408.25,16.5313 Q3408.9063,16.6875 3409.4688,16.9844 L3409.4688,19.7031 Q3408.8438,19.125 3408.25,18.8594 Q3407.6563,18.5781 3407.0313,18.5781 Q3405.6875,18.5781 3405,19.6563 Q3404.3125,20.7188 3404.3125,22.8125 Q3404.3125,24.9063 3405,25.9844 Q3405.6875,27.0469 3407.0313,27.0469 Q3407.6563,27.0469 3408.25,26.7813 Q3408.8438,26.5 3409.4688,25.9219 L3409.4688,28.6406 Z " fill="#000000"/><text fill="#000000" font-family="sans-serif" font-size="14" lengthAdjust="spacing" textLength="180" x="3420.5" y="27.8467">AuthenticationRepository</text><line style="stroke:#181818;stroke-width:0.5;" x1="3392.5" x2="3602.5" y1="39" y2="39"/><line style="stroke:#181818;stroke-width:0.5;" x1="3392.5" x2="3602.5" y1="47" y2="47"/></g><!--class PersonRepository--><g id="elem_PersonRepository"><rect codeLine="47" fill="#F1F1F1" height="129.4844" id="PersonRepository" rx="2.5" ry="2.5" style="stroke:#181818;stroke-width:0.5;" width="1757" x="2619" y="141.5"/><ellipse cx="3431.25" cy="157.5" fill="#ADD1B2" rx="11" ry="11" style="stroke:#181818;stroke-width:1.0;"/><path d="M3434.2188,163.1406 Q3433.6406,163.4375 3433,163.5781 Q3432.3594,163.7344 3431.6563,163.7344 Q3429.1563,163.7344 3427.8281,162.0938 Q3426.5156,160.4375 3426.5156,157.3125 Q3426.5156,154.1875 3427.8281,152.5313 Q3429.1563,150.875 3431.6563,150.875 Q3432.3594,150.875 3433,151.0313 Q3433.6563,151.1875 3434.2188,151.4844 L3434.2188,154.2031 Q3433.5938,153.625 3433,153.3594 Q3432.4063,153.0781 3431.7813,153.0781 Q3430.4375,153.0781 3429.75,154.1563 Q3429.0625,155.2188 3429.0625,157.3125 Q3429.0625,159.4063 3429.75,160.4844 Q3430.4375,161.5469 3431.7813,161.5469 Q3432.4063,161.5469 3433,161.2813 Q3433.5938,161 3434.2188,160.4219 L3434.2188,163.1406 Z " fill="#000000"/><text fill="#000000" font-family="sans-serif" font-size="14" lengthAdjust="spacing" textLength="124" x="3451.75" y="162.3467">PersonRepository</text><line style="stroke:#181818;stroke-width:0.5;" x1="2620" x2="4375" y1="173.5" y2="173.5"/><text fill="#000000" font-family="sans-serif" font-size="14" lengthAdjust="spacing" textLength="161" x="2625" y="190.4951">-List&lt;Person&gt; persons</text><line style="stroke:#181818;stroke-width:0.5;" x1="2620" x2="4375" y1="197.7969" y2="197.7969"/><text fill="#000000" font-family="sans-serif" font-size="14" lengthAdjust="spacing" textLength="890" x="2625" y="214.792">+boolean addPerson(String keepEmail,String keepName,String keepCitizenNumber,String keepTin,String keepPhoneNumber)</text><text fill="#000000" font-family="sans-serif" font-size="14" lengthAdjust="spacing" textLength="991" x="2625" y="231.0889">+boolean addEmployee(String keepEmail,String keepName,String keepCitizenNumber,String keepTin,String keepPhoneNumber,String role)</text><text fill="#000000" font-family="sans-serif" font-size="14" lengthAdjust="spacing" textLength="1745" x="2625" y="247.3857">+boolean addEmployeeWithLocation(String keepEmail,String keepName,String keepCitizenNumber,String keepTin,String keepPhoneNumber,String keepStreet,String keepZipCode,String keepStateUS,String keepCity,String keepDistrict,String role)</text><text fill="#000000" font-family="sans-serif" font-size="14" lengthAdjust="spacing" textLength="1644" x="2625" y="263.6826">+boolean addPersonWithLocation(String keepEmail,String keepName,String keepCitizenNumber,String keepTin,String keepPhoneNumber,String keepStreet,String keepZipCode,String keepStateUS,String keepCity,String keepDistrict)</text></g><!--link RegisterUserUI to RegisterUserController--><g id="link_RegisterUserUI_RegisterUserController"><path codeLine="12" d="M1095,85.18 C1095,85.71 1095,86 1095,86 C1095,86 1095,105.34 1095,114.78 " fill="none" id="RegisterUserUI-to-RegisterUserController" style="stroke:#181818;stroke-width:1.0;stroke-dasharray:7.0,7.0;"/><polygon fill="#181818" points="1095,119.82,1099,110.82,1095,114.82,1091,110.82,1095,119.82" style="stroke:#181818;stroke-width:1.0;"/></g><!--link RegisterUserController to Repositories--><g id="link_RegisterUserController_Repositories"><path codeLine="15" d="M2183.23,152 C2233.61,152 2278.85,152 2316.76,152 " fill="none" id="RegisterUserController-to-Repositories" style="stroke:#181818;stroke-width:1.0;stroke-dasharray:7.0,7.0;"/><polygon fill="#181818" points="2321.83,152,2312.83,148,2316.83,152,2312.83,156,2321.83,152" style="stroke:#181818;stroke-width:1.0;"/><text fill="#000000" font-family="sans-serif" font-size="13" lengthAdjust="spacing" textLength="77" x="2214" y="148.0669">repositories</text></g><!--link Repositories to AuthenticationRepository--><g id="link_Repositories_AuthenticationRepository"><path codeLine="17" d="M2558.24,133.56 C2591.57,128.32 2619,124 2619,124 C2619,124 3150.07,67.72 3385.92,42.72 " fill="none" id="Repositories-to-AuthenticationRepository" style="stroke:#181818;stroke-width:1.0;"/><polygon fill="#181818" points="3391.09,42.17,3381.7175,39.144,3386.118,42.6986,3382.5633,47.0991,3391.09,42.17" style="stroke:#181818;stroke-width:1.0;"/><text fill="#000000" font-family="sans-serif" font-size="13" lengthAdjust="spacing" textLength="8" x="3375.6718" y="55.4957">1</text></g><!--link Repositories to PersonRepository--><g id="link_Repositories_PersonRepository"><path codeLine="18" d="M2558.24,158 C2575.32,158.87 2593.9,159.82 2613.73,160.84 " fill="none" id="Repositories-to-PersonRepository" style="stroke:#181818;stroke-width:1.0;"/><polygon fill="#181818" points="2618.8,161.1,2610.0173,156.643,2613.8066,160.8432,2609.6064,164.6325,2618.8,161.1" style="stroke:#181818;stroke-width:1.0;"/><text fill="#000000" font-family="sans-serif" font-size="13" lengthAdjust="spacing" textLength="8" x="2603.9039" y="172.8733">1</text></g><!--link Repositories to Repositories--><g id="link_Repositories_Repositories"><path codeLine="20" d="M2412.25,95.26 C2412.11,75.99 2421.36,60.5 2440,60.5 C2456.9,60.5 2466.08,73.22 2467.54,89.95 " fill="none" id="Repositories-to-Repositories" style="stroke:#181818;stroke-width:1.0;"/><polygon fill="#181818" points="2467.75,95.26,2471.4122,86.1173,2467.5639,90.2635,2463.4178,86.4151,2467.75,95.26" style="stroke:#181818;stroke-width:1.0;"/><text fill="#000000" font-family="sans-serif" font-size="13" lengthAdjust="spacing" textLength="55" x="2412.5" y="51.5669">instance</text></g><!--link RegisterUserController to PersonRepository--><g id="link_RegisterUserController_PersonRepository"><path codeLine="22" d="M1527.38,184.02 C1880.5,210.23 2322,243 2322,243 C2322,243 2558,243 2558,243 C2558,243 2578.56,242.19 2613.58,240.81 " fill="none" id="RegisterUserController-to-PersonRepository" style="stroke:#181818;stroke-width:1.0;stroke-dasharray:7.0,7.0;"/><polygon fill="#181818" points="2618.85,240.6,2609.6973,236.9629,2613.854,240.7998,2610.0171,244.9565,2618.85,240.6" style="stroke:#181818;stroke-width:1.0;"/><text fill="#000000" font-family="sans-serif" font-size="13" lengthAdjust="spacing" textLength="114" x="2383" y="239.0669">personRepository</text></g><!--link RegisterUserController to AuthenticationRepository--><g id="link_RegisterUserController_AuthenticationRepository"><path codeLine="23" d="M1791.72,120 C2004.25,110.22 2183,102 2183,102 C2183,102 2322,33 2322,33 C2322,33 3094.29,31.68 3386.38,31.19 " fill="none" id="RegisterUserController-to-AuthenticationRepository" style="stroke:#181818;stroke-width:1.0;stroke-dasharray:7.0,7.0;"/><polygon fill="#181818" points="3391.5,31.18,3382.4886,27.2057,3386.5,31.1943,3382.5115,35.2057,3391.5,31.18" style="stroke:#181818;stroke-width:1.0;"/><text fill="#000000" font-family="sans-serif" font-size="13" lengthAdjust="spacing" textLength="99" x="2390.5" y="29.0669">authRepository</text></g><!--SRC=[tLF1Yjim4BthAuQzRC9kblOQoa98zn1OjalJfT3IWsBFsYAonaWJWhlatol7JIqfTcxjeGA3DVD6UlFcwTfjbQcbbHLKP2WhBLK8R7Se-amjiwqiSCsDHh2OiJI53W6kb3djbIdWLMeNPhGoo4sDK9Dksesu7aYIPH91LQQbSmjcgpOxnbL6Pgr-8hmJGkCh0nDOLPGCkMhPA392YCzOACTeNvp_Ld1t3s5aIOOjQOqsWVO9k3lMrEGKarNeOEwRxRTjNP2SpUxXwlqLB7PSec6LoPR87qWpZ7v6woBKEIoXe8ppUcTuaNPwxBnExxbGFDR1NFf4I5KSvmA9qc_Y9hCe6SS4FmnM1YJU1FXrio7IA8qNlKTzLLmkjVBq5YR_j3TeVQkLcwozDqpn_GVu8z3TGhU7BMBz92kC0W-LL3gAF7ioUx9v55mgzYOpJxjgWpQ6bsHm8Fv5cMZlVn4v2drJzP9oJ61Uh9TrUdaJ1Jvw2QpA-FQa2jNjTAQ7ICx0APs8ioWucNRAGe6y-ksZoTIRAWJr43bYXF2Or6a-TpZn6JEIvzQ3qWDEn1zzmn-wv3rqzdMnBsIUT_d9sN3JyO-EDPdUy92dP_S-LBMc1l5lttmAjwuUPz4-YaVgLFvNZ09_3zXxmDsfkOUyVR7RRjR_Iw_JunCuhby0]--></g></svg>