<?xml version="1.0" encoding="us-ascii" standalone="no"?><svg xmlns="http://www.w3.org/2000/svg" xmlns:xlink="http://www.w3.org/1999/xlink" contentStyleType="text/css" height="786px" preserveAspectRatio="none" style="width:596px;height:786px;background:#FFFFFF;" version="1.1" viewBox="0 0 596 786" width="596px" zoomAndPan="magnify"><defs/><g><!--class PropertyType--><g id="elem_PropertyType"><rect codeLine="10" fill="#F1F1F1" height="55.2422" id="PropertyType" rx="2.5" ry="2.5" style="stroke:#181818;stroke-width:0.5;" width="92" x="10.5" y="469"/><text fill="#000000" font-family="sans-serif" font-size="14" lengthAdjust="spacing" textLength="86" x="13.5" y="489.1074">PropertyType</text><line style="stroke:#181818;stroke-width:0.5;" x1="11.5" x2="101.5" y1="497.6211" y2="497.6211"/><text fill="#000000" font-family="sans-serif" font-size="14" lengthAdjust="spacing" textLength="73" x="16.5" y="516.7285">designation</text></g><!--class Property--><g id="elem_Property"><rect codeLine="14" fill="#F1F1F1" height="108.4453" id="Property" rx="2.5" ry="2.5" style="stroke:#181818;stroke-width:0.5;" width="132" x="201.5" y="442.5"/><text fill="#000000" font-family="sans-serif" font-size="12" font-style="italic" lengthAdjust="spacing" textLength="62" x="236.5" y="460.4492">&#171;Interface&#187;</text><text fill="#000000" font-family="sans-serif" font-size="14" lengthAdjust="spacing" textLength="54" x="240.5" y="478.5684">Property</text><line style="stroke:#181818;stroke-width:0.5;" x1="202.5" x2="332.5" y1="487.082" y2="487.082"/><text fill="#000000" font-family="sans-serif" font-size="14" lengthAdjust="spacing" textLength="43" x="207.5" y="506.1895">photos</text><text fill="#000000" font-family="sans-serif" font-size="14" lengthAdjust="spacing" textLength="83" x="207.5" y="524.8105">areaProperty</text><text fill="#000000" font-family="sans-serif" font-size="14" lengthAdjust="spacing" textLength="120" x="207.5" y="543.4316">distanceCityCenter</text></g><!--class House--><g id="elem_House"><rect codeLine="20" fill="#F1F1F1" height="166.9688" id="House" rx="2.5" ry="2.5" style="stroke:#181818;stroke-width:0.5;" width="135" x="30" y="613"/><text fill="#000000" font-family="sans-serif" font-size="14" lengthAdjust="spacing" textLength="40" x="77.5" y="633.1074">House</text><line style="stroke:#181818;stroke-width:0.5;" x1="31" x2="164" y1="641.6211" y2="641.6211"/><text fill="#000000" font-family="sans-serif" font-size="14" lengthAdjust="spacing" textLength="112" x="36" y="660.7285">numberBedrooms</text><text fill="#000000" font-family="sans-serif" font-size="14" lengthAdjust="spacing" textLength="116" x="36" y="679.3496">numberBathrooms</text><text fill="#000000" font-family="sans-serif" font-size="14" lengthAdjust="spacing" textLength="96" x="36" y="697.9707">numberParking</text><text fill="#000000" font-family="sans-serif" font-size="14" lengthAdjust="spacing" textLength="123" x="36" y="716.5918">availableEquipment</text><text fill="#000000" font-family="sans-serif" font-size="14" lengthAdjust="spacing" textLength="62" x="36" y="735.2129">basement</text><text fill="#000000" font-family="sans-serif" font-size="14" lengthAdjust="spacing" textLength="19" x="36" y="753.834">loft</text><text fill="#000000" font-family="sans-serif" font-size="14" lengthAdjust="spacing" textLength="82" x="36" y="772.4551">sunExposure</text></g><!--class Apartment--><g id="elem_Apartment"><rect codeLine="30" fill="#F1F1F1" height="111.1055" id="Apartment" rx="2.5" ry="2.5" style="stroke:#181818;stroke-width:0.5;" width="135" x="200" y="641"/><text fill="#000000" font-family="sans-serif" font-size="14" lengthAdjust="spacing" textLength="65" x="235" y="661.1074">Apartment</text><line style="stroke:#181818;stroke-width:0.5;" x1="201" x2="334" y1="669.6211" y2="669.6211"/><text fill="#000000" font-family="sans-serif" font-size="14" lengthAdjust="spacing" textLength="112" x="206" y="688.7285">numberBedrooms</text><text fill="#000000" font-family="sans-serif" font-size="14" lengthAdjust="spacing" textLength="116" x="206" y="707.3496">numberBathrooms</text><text fill="#000000" font-family="sans-serif" font-size="14" lengthAdjust="spacing" textLength="96" x="206" y="725.9707">numberParking</text><text fill="#000000" font-family="sans-serif" font-size="14" lengthAdjust="spacing" textLength="123" x="206" y="744.5918">availableEquipment</text></g><!--class Land--><g id="elem_Land"><rect codeLine="37" fill="#F1F1F1" height="36.6211" id="Land" rx="2.5" ry="2.5" style="stroke:#181818;stroke-width:0.5;" width="38" x="370.5" y="678"/><text fill="#000000" font-family="sans-serif" font-size="14" lengthAdjust="spacing" textLength="32" x="373.5" y="698.1074">Land</text><line style="stroke:#181818;stroke-width:0.5;" x1="371.5" x2="407.5" y1="706.6211" y2="706.6211"/></g><!--class Request--><g id="elem_Request"><rect codeLine="39" fill="#F1F1F1" height="71.2031" id="Request" rx="2.5" ry="2.5" style="stroke:#181818;stroke-width:0.5;" width="64" x="258.5" y="36.5"/><text fill="#000000" font-family="sans-serif" font-size="12" font-style="italic" lengthAdjust="spacing" textLength="62" x="259.5" y="54.4492">&#171;Interface&#187;</text><text fill="#000000" font-family="sans-serif" font-size="14" lengthAdjust="spacing" textLength="53" x="264" y="72.5684">Request</text><line style="stroke:#181818;stroke-width:0.5;" x1="259.5" x2="321.5" y1="81.082" y2="81.082"/><text fill="#000000" font-family="sans-serif" font-size="14" lengthAdjust="spacing" textLength="28" x="264.5" y="100.1895">date</text></g><!--class RequestSale--><g id="elem_RequestSale"><rect codeLine="43" fill="#F1F1F1" height="55.2422" id="RequestSale" rx="2.5" ry="2.5" style="stroke:#181818;stroke-width:0.5;" width="87" x="247" y="261.5"/><text fill="#000000" font-family="sans-serif" font-size="14" lengthAdjust="spacing" textLength="81" x="250" y="281.6074">RequestSale</text><line style="stroke:#181818;stroke-width:0.5;" x1="248" x2="333" y1="290.1211" y2="290.1211"/><text fill="#000000" font-family="sans-serif" font-size="14" lengthAdjust="spacing" textLength="58" x="253" y="309.2285">salePrice</text></g><!--class RequestLease--><g id="elem_RequestLease"><rect codeLine="47" fill="#F1F1F1" height="73.8633" id="RequestLease" rx="2.5" ry="2.5" style="stroke:#181818;stroke-width:0.5;" width="133" x="7" y="252"/><text fill="#000000" font-family="sans-serif" font-size="14" lengthAdjust="spacing" textLength="92" x="27.5" y="272.1074">RequestLease</text><line style="stroke:#181818;stroke-width:0.5;" x1="8" x2="139" y1="280.6211" y2="280.6211"/><text fill="#000000" font-family="sans-serif" font-size="14" lengthAdjust="spacing" textLength="68" x="13" y="299.7285">rentalPrice</text><text fill="#000000" font-family="sans-serif" font-size="14" lengthAdjust="spacing" textLength="121" x="13" y="318.3496">durationOfContract</text></g><!--class BusinessType--><g id="elem_BusinessType"><rect codeLine="52" fill="#F1F1F1" height="55.2422" id="BusinessType" rx="2.5" ry="2.5" style="stroke:#181818;stroke-width:0.5;" width="95" x="65" y="44.5"/><text fill="#000000" font-family="sans-serif" font-size="14" lengthAdjust="spacing" textLength="89" x="68" y="64.6074">BusinessType</text><line style="stroke:#181818;stroke-width:0.5;" x1="66" x2="159" y1="73.1211" y2="73.1211"/><text fill="#000000" font-family="sans-serif" font-size="14" lengthAdjust="spacing" textLength="73" x="71" y="92.2285">designation</text></g><!--class Store--><g id="elem_Store"><rect codeLine="56" fill="#F1F1F1" height="111.1055" id="Store" rx="2.5" ry="2.5" style="stroke:#181818;stroke-width:0.5;" width="101" x="443" y="441"/><text fill="#000000" font-family="sans-serif" font-size="14" lengthAdjust="spacing" textLength="34" x="476.5" y="461.1074">Store</text><line style="stroke:#181818;stroke-width:0.5;" x1="444" x2="543" y1="469.6211" y2="469.6211"/><text fill="#000000" font-family="sans-serif" font-size="14" lengthAdjust="spacing" textLength="11" x="449" y="488.7285">id</text><text fill="#000000" font-family="sans-serif" font-size="14" lengthAdjust="spacing" textLength="35" x="449" y="507.3496">name</text><text fill="#000000" font-family="sans-serif" font-size="14" lengthAdjust="spacing" textLength="85" x="449" y="525.9707">emailAddress</text><text fill="#000000" font-family="sans-serif" font-size="14" lengthAdjust="spacing" textLength="89" x="449" y="544.5918">phoneNumber</text></g><!--class Location--><g id="elem_Location"><rect codeLine="63" fill="#F1F1F1" height="145.6875" id="Location" rx="2.5" ry="2.5" style="stroke:#181818;stroke-width:0.5;" width="64" x="525.5" y="216"/><text fill="#000000" font-family="sans-serif" font-size="12" font-style="italic" lengthAdjust="spacing" textLength="62" x="526.5" y="233.9492">&#171;Interface&#187;</text><text fill="#000000" font-family="sans-serif" font-size="14" lengthAdjust="spacing" textLength="54" x="530.5" y="252.0684">Location</text><line style="stroke:#181818;stroke-width:0.5;" x1="526.5" x2="588.5" y1="260.582" y2="260.582"/><text fill="#000000" font-family="sans-serif" font-size="14" lengthAdjust="spacing" textLength="36" x="531.5" y="279.6895">street</text><text fill="#000000" font-family="sans-serif" font-size="14" lengthAdjust="spacing" textLength="51" x="531.5" y="298.3105">zipCode</text><text fill="#000000" font-family="sans-serif" font-size="14" lengthAdjust="spacing" textLength="49" x="531.5" y="316.9316">stateUS</text><text fill="#000000" font-family="sans-serif" font-size="14" lengthAdjust="spacing" textLength="21" x="531.5" y="335.5527">city</text><text fill="#000000" font-family="sans-serif" font-size="14" lengthAdjust="spacing" textLength="41" x="531.5" y="354.1738">district</text></g><!--class Person--><g id="elem_Person"><rect codeLine="71" fill="#F1F1F1" height="129.7266" id="Person" rx="2.5" ry="2.5" style="stroke:#181818;stroke-width:0.5;" width="101" x="455" y="7"/><text fill="#000000" font-family="sans-serif" font-size="14" lengthAdjust="spacing" textLength="45" x="483" y="27.1074">Person</text><line style="stroke:#181818;stroke-width:0.5;" x1="456" x2="555" y1="35.6211" y2="35.6211"/><text fill="#000000" font-family="sans-serif" font-size="14" lengthAdjust="spacing" textLength="85" x="461" y="54.7285">emailAddress</text><text fill="#000000" font-family="sans-serif" font-size="14" lengthAdjust="spacing" textLength="55" x="461" y="73.3496">passport</text><text fill="#000000" font-family="sans-serif" font-size="14" lengthAdjust="spacing" textLength="15" x="461" y="91.9707">tin</text><text fill="#000000" font-family="sans-serif" font-size="14" lengthAdjust="spacing" textLength="89" x="461" y="110.5918">phoneNumber</text><text fill="#000000" font-family="sans-serif" font-size="14" lengthAdjust="spacing" textLength="35" x="461" y="129.2129">name</text></g><!--class Advertisement--><g id="elem_Advertisement"><rect codeLine="79" fill="#F1F1F1" height="92.4844" id="Advertisement" rx="2.5" ry="2.5" style="stroke:#181818;stroke-width:0.5;" width="121" x="369" y="243"/><text fill="#000000" font-family="sans-serif" font-size="14" lengthAdjust="spacing" textLength="90" x="384.5" y="263.1074">Advertisement</text><line style="stroke:#181818;stroke-width:0.5;" x1="370" x2="489" y1="271.6211" y2="271.6211"/><text fill="#000000" font-family="sans-serif" font-size="14" lengthAdjust="spacing" textLength="109" x="375" y="290.7285">commissionValue</text><text fill="#000000" font-family="sans-serif" font-size="14" lengthAdjust="spacing" textLength="105" x="375" y="309.3496">commissionType</text><text fill="#000000" font-family="sans-serif" font-size="14" lengthAdjust="spacing" textLength="28" x="375" y="327.9707">date</text></g><!--link Person to Location--><g id="link_Person_Location"><path codeLine="85" d="M521.03,137.22 C525.52,155.78 530.51,176.4 535.32,196.29 " fill="none" id="Person-to-Location" style="stroke:#181818;stroke-width:1.0;stroke-dasharray:7.0,7.0;"/><polygon fill="none" points="542.15,194.75,540.05,215.83,528.54,198.04,542.15,194.75" style="stroke:#181818;stroke-width:1.0;"/></g><!--link Request to Person--><g id="link_Request_Person"><path codeLine="86" d="M322.87,83.59 C336.13,87.75 351.74,91.94 366.25,94 C395.69,98.19 428.55,93.45 454.96,87.31 " fill="none" id="Request-Person" style="stroke:#181818;stroke-width:1.0;"/><polygon fill="#000000" points="366.252,84.5048,375.2107,87.6971,375.3762,81.8216,366.252,84.5048" style="stroke:#000000;stroke-width:1.0;"/><text fill="#000000" font-family="sans-serif" font-size="13" lengthAdjust="spacing" textLength="30" x="380.25" y="90.0283">owns</text><text fill="#000000" font-family="sans-serif" font-size="13" lengthAdjust="spacing" textLength="20" x="330.4172" y="101.2047">1..*</text><text fill="#000000" font-family="sans-serif" font-size="13" lengthAdjust="spacing" textLength="7" x="440.0229" y="104.8769">1</text></g><!--link Person to Request--><g id="link_Person_Request"><path codeLine="87" d="M454.68,72 C413.8,72 357.6,72 322.69,72 " fill="none" id="Person-Request" style="stroke:#181818;stroke-width:1.0;"/><polygon fill="#000000" points="339.75,59.6455,348.7951,62.5844,348.7951,56.7066,339.75,59.6455" style="stroke:#000000;stroke-width:1.0;"/><text fill="#000000" font-family="sans-serif" font-size="13" lengthAdjust="spacing" textLength="83" x="353.75" y="65.0283">asks to create</text><text fill="#000000" font-family="sans-serif" font-size="13" lengthAdjust="spacing" textLength="7" x="440.0413" y="67.8727">1</text><text fill="#000000" font-family="sans-serif" font-size="13" lengthAdjust="spacing" textLength="5" x="330.7121" y="67.0729">*</text></g><!--reverse link Property to House--><g id="link_Property_House"><path codeLine="89" d="M208.85,565.81 C194.8,582.17 179.68,599.79 165.25,616.59 " fill="none" id="Property-backto-House" style="stroke:#181818;stroke-width:1.0;stroke-dasharray:7.0,7.0;"/><polygon fill="none" points="203.6,561.17,221.94,550.56,214.23,570.29,203.6,561.17" style="stroke:#181818;stroke-width:1.0;"/></g><!--reverse link Property to Apartment--><g id="link_Property_Apartment"><path codeLine="90" d="M267.5,570.73 C267.5,593.97 267.5,619.23 267.5,640.91 " fill="none" id="Property-backto-Apartment" style="stroke:#181818;stroke-width:1.0;stroke-dasharray:7.0,7.0;"/><polygon fill="none" points="260.5,570.56,267.5,550.56,274.5,570.56,260.5,570.56" style="stroke:#181818;stroke-width:1.0;"/></g><!--reverse link Property to Land--><g id="link_Property_Land"><path codeLine="91" d="M322.15,566.78 C332.81,581.64 343.48,597.53 352.5,613 C365,634.42 376.16,660.83 382.88,677.91 " fill="none" id="Property-backto-Land" style="stroke:#181818;stroke-width:1.0;stroke-dasharray:7.0,7.0;"/><polygon fill="none" points="316.4,570.77,310.18,550.52,327.67,562.48,316.4,570.77" style="stroke:#181818;stroke-width:1.0;"/></g><!--link PropertyType to Property--><g id="link_PropertyType_Property"><path codeLine="92" d="M102.54,496.5 C131.4,496.5 169.08,496.5 201.13,496.5 " fill="none" id="PropertyType-Property" style="stroke:#181818;stroke-width:1.0;"/><polygon fill="#000000" points="120,484.1455,129.0451,487.0844,129.0451,481.2066,120,484.1455" style="stroke:#000000;stroke-width:1.0;"/><text fill="#000000" font-family="sans-serif" font-size="13" lengthAdjust="spacing" textLength="49" x="134" y="489.5283">contains</text><text fill="#000000" font-family="sans-serif" font-size="13" lengthAdjust="spacing" textLength="7" x="110.4354" y="492.1775">1</text><text fill="#000000" font-family="sans-serif" font-size="13" lengthAdjust="spacing" textLength="5" x="188.5973" y="492.5902">*</text></g><!--reverse link Location to Property--><g id="link_Location_Property"><path codeLine="94" d="M520.47,380.02 C513.08,391.45 504.46,402.2 494.5,411 C488.1,416.66 398.36,449.18 333.66,472.18 " fill="none" id="Location-backto-Property" style="stroke:#181818;stroke-width:1.0;stroke-dasharray:7.0,7.0;"/><polygon fill="none" points="514.65,376.09,530.75,362.31,526.76,383.12,514.65,376.09" style="stroke:#181818;stroke-width:1.0;"/></g><!--reverse link Location to Store--><g id="link_Location_Store"><path codeLine="95" d="M543.63,381.85 C541.29,391.79 538.6,401.67 535.5,411 C532.2,420.95 527.92,431.21 523.36,440.99 " fill="none" id="Location-backto-Store" style="stroke:#181818;stroke-width:1.0;stroke-dasharray:7.0,7.0;"/><polygon fill="none" points="536.8,380.28,547.81,362.18,550.5,383.2,536.8,380.28" style="stroke:#181818;stroke-width:1.0;"/></g><!--link Advertisement to Store--><g id="link_Advertisement_Store"><path codeLine="97" d="M441.38,335.03 C447.61,357.9 455.57,386.04 463.5,411 C466.56,420.64 470,430.84 473.44,440.68 " fill="none" id="Advertisement-Store" style="stroke:#181818;stroke-width:1.0;"/><polygon fill="#000000" points="467.0481,396.8609,466.8623,406.3697,472.4869,404.6629,467.0481,396.8609" style="stroke:#000000;stroke-width:1.0;"/><text fill="#000000" font-family="sans-serif" font-size="13" lengthAdjust="spacing" textLength="49" x="477.5" y="407.0283">contains</text><text fill="#000000" font-family="sans-serif" font-size="13" lengthAdjust="spacing" textLength="5" x="437.8163" y="357.3934">*</text><text fill="#000000" font-family="sans-serif" font-size="13" lengthAdjust="spacing" textLength="7" x="463.5686" y="429.8806">1</text></g><!--link Request to Property--><g id="link_Request_Property"><path codeLine="99" d="M271.06,107.56 C256.38,135.75 237.44,177.13 229.5,216 C216.51,279.57 220.53,297.73 229.5,362 C233.26,388.97 241.11,418.14 248.7,442.32 " fill="none" id="Request-Property" style="stroke:#181818;stroke-width:1.0;"/><text fill="#000000" font-family="sans-serif" font-size="13" lengthAdjust="spacing" textLength="7" x="259.8304" y="129.72">1</text><text fill="#000000" font-family="sans-serif" font-size="13" lengthAdjust="spacing" textLength="7" x="238.8428" y="431.3076">1</text></g><!--reverse link Request to RequestLease--><g id="link_Request_RequestLease"><path codeLine="100" d="M241.74,105.8 C218.15,122.76 190.11,144.57 167.5,167 C141.16,193.14 115.61,226.72 97.82,251.87 " fill="none" id="Request-backto-RequestLease" style="stroke:#181818;stroke-width:1.0;stroke-dasharray:7.0,7.0;"/><polygon fill="none" points="237.99,99.89,258.37,94.12,246.03,111.34,237.99,99.89" style="stroke:#181818;stroke-width:1.0;"/></g><!--reverse link Request to RequestSale--><g id="link_Request_RequestSale"><path codeLine="101" d="M290.5,127.77 C290.5,170.55 290.5,228.14 290.5,261.35 " fill="none" id="Request-backto-RequestSale" style="stroke:#181818;stroke-width:1.0;stroke-dasharray:7.0,7.0;"/><polygon fill="none" points="283.5,127.54,290.5,107.54,297.5,127.54,283.5,127.54" style="stroke:#181818;stroke-width:1.0;"/></g><!--link BusinessType to Request--><g id="link_BusinessType_Request"><path codeLine="102" d="M160.2,72 C191.3,72 231.05,72 258.42,72 " fill="none" id="BusinessType-Request" style="stroke:#181818;stroke-width:1.0;"/><polygon fill="#000000" points="177.25,59.6455,186.2951,62.5844,186.2951,56.7066,177.25,59.6455" style="stroke:#000000;stroke-width:1.0;"/><text fill="#000000" font-family="sans-serif" font-size="13" lengthAdjust="spacing" textLength="49" x="191.25" y="65.0283">contains</text><text fill="#000000" font-family="sans-serif" font-size="13" lengthAdjust="spacing" textLength="7" x="168.04" y="67.7305">1</text><text fill="#000000" font-family="sans-serif" font-size="13" lengthAdjust="spacing" textLength="5" x="245.4234" y="67.0729">*</text></g><!--link Request to Advertisement--><g id="link_Request_Advertisement"><path codeLine="103" d="M312.83,107.54 C336.55,144.22 374.13,202.36 400.21,242.69 " fill="none" id="Request-Advertisement" style="stroke:#181818;stroke-width:1.0;"/><polygon fill="#000000" points="361.7853,172.4467,364.2282,181.6381,369.1643,178.4468,361.7853,172.4467" style="stroke:#000000;stroke-width:1.0;"/><text fill="#000000" font-family="sans-serif" font-size="13" lengthAdjust="spacing" textLength="49" x="373.5" y="182.0283">contains</text><text fill="#000000" font-family="sans-serif" font-size="13" lengthAdjust="spacing" textLength="7" x="309.3018" y="129.6963">1</text><text fill="#000000" font-family="sans-serif" font-size="13" lengthAdjust="spacing" textLength="7" x="388.394" y="231.6539">1</text></g><!--SRC=[hLJ1Rjim3BthAuGS2yJOhaKG80qAj42n1SksEoCnjX1RSaMfNThktoTBjYCdsKxBnJBv_CX7FeKEIhTWeU6DqKPKrZJ8dVN8QCoq80vGujOTQ-GMXGDTrZc0Af3cLUcIxw4cP5bAr42qSiwgdNVuA8pUgZVadnYhb4Gkb1M1AfuRT9MHn5ZyXc-iQT6wu_TZY- -CXvz4KgK6funclyzXVB5ur0xj7WGkb-c3jZBEK3o2HHYWYKnHq25mhTnnZTsN9yu7umbvuj2-sQ6zGscDQIWFWQlEOnkmGNcPAhw0gc5Nu_spLsqJIiJm3WZ7bzhiqu6yll_L6l8MJssimWXTX_t_dOmrda3Bz_7j6pvx97Tbb19SrbcFsqBThuR2QMELkCGyOH2SG3PKXZh18gUtSPbVzskZdGMHzNNdIMaawhRF_x7-hJEsfrSowOScqMCJPA-aj85ci8F6Bt4ysG2CY9HJ__GboLd4jA4trQwDn3uSfl5Z6yz2POOAqZ8D6xHazFjVcWc8rjX4xfI-w73KSlA3V0dsLSa_VOV2D8qY2W9-GktnBDPDRxA-r18lYe_bg7m8pZxF-Bp6lPk7Or7Sp8OLtdBpgeal9q0-om501-BES16kcSC0PUaE5RxjIeqtRxJqHQOpuaKm_mz8PQqgAvUA3ydR83WOIuKM5uoTzlbH51dz91nTmrXy95xV9jB9Z3FceAWNc_3p-1ZfXrnapvr_DTFTcnFTJJRssSJua_fNoa-RFKtX3m00]--></g></svg>