<?xml version="1.0" encoding="us-ascii" standalone="no"?><svg xmlns="http://www.w3.org/2000/svg" xmlns:xlink="http://www.w3.org/1999/xlink" contentStyleType="text/css" height="2729px" preserveAspectRatio="none" style="width:1436px;height:2729px;background:#FFFFFF;" version="1.1" viewBox="0 0 1436 2729" width="1436px" zoomAndPan="magnify"><defs/><g><!--class ScheduleVisitUI--><g id="elem_ScheduleVisitUI"><rect codeLine="11" fill="#F1F1F1" height="345.9375" id="ScheduleVisitUI" rx="2.5" ry="2.5" style="stroke:#181818;stroke-width:0.5;" width="644" x="417" y="7"/><ellipse cx="686.25" cy="23" fill="#ADD1B2" rx="11" ry="11" style="stroke:#181818;stroke-width:1.0;"/><path d="M689.0156,18.875 Q689.1719,18.6563 689.3594,18.5469 Q689.5469,18.4375 689.7656,18.4375 Q690.1406,18.4375 690.375,18.7031 Q690.6094,18.9531 690.6094,19.5625 L690.6094,21.0156 Q690.6094,21.625 690.375,21.8906 Q690.1406,22.1563 689.7656,22.1563 Q689.4219,22.1563 689.2188,21.9531 Q689.0156,21.7656 688.9063,21.25 Q688.8594,20.8906 688.6719,20.7031 Q688.3438,20.3281 687.7344,20.1094 Q687.125,19.8906 686.5,19.8906 Q685.7344,19.8906 685.0938,20.2188 Q684.4688,20.5469 683.9688,21.2969 Q683.4844,22.0469 683.4844,23.0781 L683.4844,24.1719 Q683.4844,25.4063 684.375,26.2344 Q685.2656,27.0469 686.8594,27.0469 Q687.7969,27.0469 688.4531,26.7969 Q688.8438,26.6406 689.2656,26.2031 Q689.5313,25.9375 689.6719,25.8594 Q689.8281,25.7813 690.0313,25.7813 Q690.3594,25.7813 690.6094,26.0469 Q690.875,26.2969 690.875,26.6406 Q690.875,26.9844 690.5313,27.3906 Q690.0313,27.9688 689.2344,28.2969 Q688.1563,28.75 686.8594,28.75 Q685.3438,28.75 684.1406,28.125 Q683.1563,27.625 682.4688,26.5625 Q681.7813,25.4844 681.7813,24.2031 L681.7813,23.0469 Q681.7813,21.7188 682.3906,20.5781 Q683.0156,19.4219 684.1094,18.8125 Q685.2031,18.1875 686.4375,18.1875 Q687.1719,18.1875 687.8125,18.3594 Q688.4688,18.5156 689.0156,18.875 Z " fill="#000000"/><text fill="#000000" font-family="sans-serif" font-size="14" lengthAdjust="spacing" textLength="97" x="706.75" y="28.7969">ScheduleVisitUI</text><line style="stroke:#181818;stroke-width:0.5;" x1="418" x2="1060" y1="39" y2="39"/><text fill="#000000" font-family="sans-serif" font-size="14" lengthAdjust="spacing" textLength="260" x="423" y="58.1074">-PropertyType keepPropertyTypeChoice;</text><text fill="#000000" font-family="sans-serif" font-size="14" lengthAdjust="spacing" textLength="266" x="423" y="76.7285">-BusinessType keepBusinessTypeChoice;</text><text fill="#000000" font-family="sans-serif" font-size="14" lengthAdjust="spacing" textLength="89" x="423" y="95.3496">-int keepYear;</text><text fill="#000000" font-family="sans-serif" font-size="14" lengthAdjust="spacing" textLength="98" x="423" y="113.9707">-int keepMonth;</text><text fill="#000000" font-family="sans-serif" font-size="14" lengthAdjust="spacing" textLength="84" x="423" y="132.5918">-int keepDay;</text><text fill="#000000" font-family="sans-serif" font-size="14" lengthAdjust="spacing" textLength="89" x="423" y="151.2129">-int keepHour;</text><text fill="#000000" font-family="sans-serif" font-size="14" lengthAdjust="spacing" textLength="232" x="423" y="169.834">-Advertisement advertisementChoice</text><text fill="#000000" font-family="sans-serif" font-size="14" lengthAdjust="spacing" textLength="292" x="423" y="188.4551">-AdvertisementDTO advertisementDTOChoice</text><text fill="#000000" font-family="sans-serif" font-size="14" lengthAdjust="spacing" textLength="103" x="423" y="207.0762">-Visit visitChoice</text><line style="stroke:#181818;stroke-width:0.5;" x1="418" x2="1060" y1="214.5898" y2="214.5898"/><text fill="#000000" font-family="sans-serif" font-size="14" lengthAdjust="spacing" textLength="209" x="423" y="233.6973">+create ScheduleVisitController()</text><text fill="#000000" font-family="sans-serif" font-size="14" lengthAdjust="spacing" textLength="195" x="423" y="252.3184">+listAndChoosePropertyType()</text><text fill="#000000" font-family="sans-serif" font-size="14" lengthAdjust="spacing" textLength="198" x="423" y="270.9395">+listAndChooseBusinessType()</text><text fill="#000000" font-family="sans-serif" font-size="14" lengthAdjust="spacing" textLength="632" x="423" y="289.5605">+listAndDisplayandChooseAdvertisementDTO(keepPropertyTypeChoice, keepBusinessTypeChoice)</text><text fill="#000000" font-family="sans-serif" font-size="14" lengthAdjust="spacing" textLength="547" x="423" y="308.1816">+getAdvertismentDTOListSorted(keepPropertyTypeChoice, keepBusinessTypeChoice)</text><text fill="#000000" font-family="sans-serif" font-size="14" lengthAdjust="spacing" textLength="597" x="423" y="326.8027">+displayAdvertisments( adsVisitListDTO, keepPropertyTypeChoice, keepBusinessTypeChoice)</text><text fill="#000000" font-family="sans-serif" font-size="14" lengthAdjust="spacing" textLength="517" x="423" y="345.4238">+displayConditionsAskToConfirm(AdvertisementDTO adchoiceVisitDTO, Visit visit)</text></g><!--class ScheduleVisitController--><g id="elem_ScheduleVisitController"><rect codeLine="32" fill="#F1F1F1" height="196.9688" id="ScheduleVisitController" rx="2.5" ry="2.5" style="stroke:#181818;stroke-width:0.5;" width="340" x="569" y="414"/><ellipse cx="661.25" cy="430" fill="#ADD1B2" rx="11" ry="11" style="stroke:#181818;stroke-width:1.0;"/><path d="M664.0156,425.875 Q664.1719,425.6563 664.3594,425.5469 Q664.5469,425.4375 664.7656,425.4375 Q665.1406,425.4375 665.375,425.7031 Q665.6094,425.9531 665.6094,426.5625 L665.6094,428.0156 Q665.6094,428.625 665.375,428.8906 Q665.1406,429.1563 664.7656,429.1563 Q664.4219,429.1563 664.2188,428.9531 Q664.0156,428.7656 663.9063,428.25 Q663.8594,427.8906 663.6719,427.7031 Q663.3438,427.3281 662.7344,427.1094 Q662.125,426.8906 661.5,426.8906 Q660.7344,426.8906 660.0938,427.2188 Q659.4688,427.5469 658.9688,428.2969 Q658.4844,429.0469 658.4844,430.0781 L658.4844,431.1719 Q658.4844,432.4063 659.375,433.2344 Q660.2656,434.0469 661.8594,434.0469 Q662.7969,434.0469 663.4531,433.7969 Q663.8438,433.6406 664.2656,433.2031 Q664.5313,432.9375 664.6719,432.8594 Q664.8281,432.7813 665.0313,432.7813 Q665.3594,432.7813 665.6094,433.0469 Q665.875,433.2969 665.875,433.6406 Q665.875,433.9844 665.5313,434.3906 Q665.0313,434.9688 664.2344,435.2969 Q663.1563,435.75 661.8594,435.75 Q660.3438,435.75 659.1406,435.125 Q658.1563,434.625 657.4688,433.5625 Q656.7813,432.4844 656.7813,431.2031 L656.7813,430.0469 Q656.7813,428.7188 657.3906,427.5781 Q658.0156,426.4219 659.1094,425.8125 Q660.2031,425.1875 661.4375,425.1875 Q662.1719,425.1875 662.8125,425.3594 Q663.4688,425.5156 664.0156,425.875 Z " fill="#000000"/><text fill="#000000" font-family="sans-serif" font-size="14" lengthAdjust="spacing" textLength="147" x="681.75" y="435.7969">ScheduleVisitController</text><line style="stroke:#181818;stroke-width:0.5;" x1="570" x2="908" y1="446" y2="446"/><text fill="#000000" font-family="sans-serif" font-size="14" lengthAdjust="spacing" textLength="166" x="575" y="465.1074">-Repositories repositories;</text><text fill="#000000" font-family="sans-serif" font-size="14" lengthAdjust="spacing" textLength="256" x="575" y="483.7285">-PropertyRepository propertyRepository;</text><text fill="#000000" font-family="sans-serif" font-size="14" lengthAdjust="spacing" textLength="250" x="575" y="502.3496">-RequestRepository requestRepository;</text><text fill="#000000" font-family="sans-serif" font-size="14" lengthAdjust="spacing" textLength="328" x="575" y="520.9707">-AdvertisementRepository advertisementRepository;</text><line style="stroke:#181818;stroke-width:0.5;" x1="570" x2="908" y1="528.4844" y2="528.4844"/><text fill="#000000" font-family="sans-serif" font-size="14" lengthAdjust="spacing" textLength="91" x="575" y="547.5918">+getInstance()</text><text fill="#000000" font-family="sans-serif" font-size="14" lengthAdjust="spacing" textLength="146" x="575" y="566.2129">+getPropertyTypeList()</text><text fill="#000000" font-family="sans-serif" font-size="14" lengthAdjust="spacing" textLength="149" x="575" y="584.834">+getBusinessTypeList()</text><text fill="#000000" font-family="sans-serif" font-size="14" lengthAdjust="spacing" textLength="188" x="575" y="603.4551">+getAdvertismentRepository()</text></g><!--class Repositories--><g id="elem_Repositories"><rect codeLine="46" fill="#F1F1F1" height="159.7266" id="Repositories" rx="2.5" ry="2.5" style="stroke:#181818;stroke-width:0.5;" width="207" x="417.5" y="831"/><ellipse cx="477.25" cy="847" fill="#ADD1B2" rx="11" ry="11" style="stroke:#181818;stroke-width:1.0;"/><path d="M480.0156,842.875 Q480.1719,842.6563 480.3594,842.5469 Q480.5469,842.4375 480.7656,842.4375 Q481.1406,842.4375 481.375,842.7031 Q481.6094,842.9531 481.6094,843.5625 L481.6094,845.0156 Q481.6094,845.625 481.375,845.8906 Q481.1406,846.1563 480.7656,846.1563 Q480.4219,846.1563 480.2188,845.9531 Q480.0156,845.7656 479.9063,845.25 Q479.8594,844.8906 479.6719,844.7031 Q479.3438,844.3281 478.7344,844.1094 Q478.125,843.8906 477.5,843.8906 Q476.7344,843.8906 476.0938,844.2188 Q475.4688,844.5469 474.9688,845.2969 Q474.4844,846.0469 474.4844,847.0781 L474.4844,848.1719 Q474.4844,849.4063 475.375,850.2344 Q476.2656,851.0469 477.8594,851.0469 Q478.7969,851.0469 479.4531,850.7969 Q479.8438,850.6406 480.2656,850.2031 Q480.5313,849.9375 480.6719,849.8594 Q480.8281,849.7813 481.0313,849.7813 Q481.3594,849.7813 481.6094,850.0469 Q481.875,850.2969 481.875,850.6406 Q481.875,850.9844 481.5313,851.3906 Q481.0313,851.9688 480.2344,852.2969 Q479.1563,852.75 477.8594,852.75 Q476.3438,852.75 475.1406,852.125 Q474.1563,851.625 473.4688,850.5625 Q472.7813,849.4844 472.7813,848.2031 L472.7813,847.0469 Q472.7813,845.7188 473.3906,844.5781 Q474.0156,843.4219 475.1094,842.8125 Q476.2031,842.1875 477.4375,842.1875 Q478.1719,842.1875 478.8125,842.3594 Q479.4688,842.5156 480.0156,842.875 Z " fill="#000000"/><text fill="#000000" font-family="sans-serif" font-size="14" lengthAdjust="spacing" textLength="79" x="497.75" y="852.7969">Repositories</text><line style="stroke:#181818;stroke-width:0.5;" x1="418.5" x2="623.5" y1="863" y2="863"/><line style="stroke:#181818;stroke-width:0.5;" x1="418.5" x2="623.5" y1="871" y2="871"/><text fill="#000000" font-family="sans-serif" font-size="14" lengthAdjust="spacing" textLength="94" x="423.5" y="890.1074">-Repositories()</text><text fill="#000000" font-family="sans-serif" font-size="14" lengthAdjust="spacing" textLength="182" x="423.5" y="908.7285">+getInstance() : Repositories</text><text fill="#000000" font-family="sans-serif" font-size="14" lengthAdjust="spacing" textLength="160" x="423.5" y="927.3496">+getPropertyRepository()</text><text fill="#000000" font-family="sans-serif" font-size="14" lengthAdjust="spacing" textLength="195" x="423.5" y="945.9707">+getBusinessTypeRepository()</text><text fill="#000000" font-family="sans-serif" font-size="14" lengthAdjust="spacing" textLength="159" x="423.5" y="964.5918">+getRequestRepository()</text><text fill="#000000" font-family="sans-serif" font-size="14" lengthAdjust="spacing" textLength="188" x="423.5" y="983.2129">+getAdvertismentRepository()</text></g><!--class PropertyRepository--><g id="elem_PropertyRepository"><rect codeLine="56" fill="#F1F1F1" height="66.6211" id="PropertyRepository" rx="2.5" ry="2.5" style="stroke:#181818;stroke-width:0.5;" width="154" x="725" y="1149"/><ellipse cx="740" cy="1165" fill="#ADD1B2" rx="11" ry="11" style="stroke:#181818;stroke-width:1.0;"/><path d="M742.7656,1160.875 Q742.9219,1160.6563 743.1094,1160.5469 Q743.2969,1160.4375 743.5156,1160.4375 Q743.8906,1160.4375 744.125,1160.7031 Q744.3594,1160.9531 744.3594,1161.5625 L744.3594,1163.0156 Q744.3594,1163.625 744.125,1163.8906 Q743.8906,1164.1563 743.5156,1164.1563 Q743.1719,1164.1563 742.9688,1163.9531 Q742.7656,1163.7656 742.6563,1163.25 Q742.6094,1162.8906 742.4219,1162.7031 Q742.0938,1162.3281 741.4844,1162.1094 Q740.875,1161.8906 740.25,1161.8906 Q739.4844,1161.8906 738.8438,1162.2188 Q738.2188,1162.5469 737.7188,1163.2969 Q737.2344,1164.0469 737.2344,1165.0781 L737.2344,1166.1719 Q737.2344,1167.4063 738.125,1168.2344 Q739.0156,1169.0469 740.6094,1169.0469 Q741.5469,1169.0469 742.2031,1168.7969 Q742.5938,1168.6406 743.0156,1168.2031 Q743.2813,1167.9375 743.4219,1167.8594 Q743.5781,1167.7813 743.7813,1167.7813 Q744.1094,1167.7813 744.3594,1168.0469 Q744.625,1168.2969 744.625,1168.6406 Q744.625,1168.9844 744.2813,1169.3906 Q743.7813,1169.9688 742.9844,1170.2969 Q741.9063,1170.75 740.6094,1170.75 Q739.0938,1170.75 737.8906,1170.125 Q736.9063,1169.625 736.2188,1168.5625 Q735.5313,1167.4844 735.5313,1166.2031 L735.5313,1165.0469 Q735.5313,1163.7188 736.1406,1162.5781 Q736.7656,1161.4219 737.8594,1160.8125 Q738.9531,1160.1875 740.1875,1160.1875 Q740.9219,1160.1875 741.5625,1160.3594 Q742.2188,1160.5156 742.7656,1160.875 Z " fill="#000000"/><text fill="#000000" font-family="sans-serif" font-size="14" lengthAdjust="spacing" textLength="122" x="754" y="1170.7969">PropertyRepository</text><line style="stroke:#181818;stroke-width:0.5;" x1="726" x2="878" y1="1181" y2="1181"/><line style="stroke:#181818;stroke-width:0.5;" x1="726" x2="878" y1="1189" y2="1189"/><text fill="#000000" font-family="sans-serif" font-size="14" lengthAdjust="spacing" textLength="114" x="731" y="1208.1074">+getPropertyList()</text></g><!--class Property--><g id="elem_Property"><rect codeLine="59" fill="#F1F1F1" height="122.4844" id="Property" rx="2.5" ry="2.5" style="stroke:#181818;stroke-width:0.5;" width="180" x="947" y="2060.5"/><ellipse cx="1005.75" cy="2076.5" fill="#B4A7E5" rx="11" ry="11" style="stroke:#181818;stroke-width:1.0;"/><path d="M1006.7031,2073.1406 L1006.7031,2079.7969 L1008.4219,2079.7969 Q1009.0313,2079.7969 1009.2969,2080.0313 Q1009.5625,2080.2656 1009.5625,2080.6563 Q1009.5625,2081.0313 1009.2969,2081.2656 Q1009.0313,2081.5 1008.4219,2081.5 L1003.2813,2081.5 Q1002.6719,2081.5 1002.4063,2081.2656 Q1002.1406,2081.0313 1002.1406,2080.6406 Q1002.1406,2080.2656 1002.4063,2080.0313 Q1002.6719,2079.7969 1003.2813,2079.7969 L1005,2079.7969 L1005,2073.1406 L1003.2813,2073.1406 Q1002.6719,2073.1406 1002.4063,2072.9063 Q1002.1406,2072.6719 1002.1406,2072.2813 Q1002.1406,2071.9063 1002.4063,2071.6719 Q1002.6719,2071.4375 1003.2813,2071.4375 L1008.4219,2071.4375 Q1009.0313,2071.4375 1009.2969,2071.6719 Q1009.5625,2071.9063 1009.5625,2072.2813 Q1009.5625,2072.6719 1009.2969,2072.9063 Q1009.0313,2073.1406 1008.4219,2073.1406 L1006.7031,2073.1406 Z " fill="#000000"/><text fill="#000000" font-family="sans-serif" font-size="14" font-style="italic" lengthAdjust="spacing" textLength="54" x="1026.25" y="2082.2969">Property</text><line style="stroke:#181818;stroke-width:0.5;" x1="948" x2="1126" y1="2092.5" y2="2092.5"/><text fill="#000000" font-family="sans-serif" font-size="14" lengthAdjust="spacing" textLength="85" x="953" y="2111.6074">-double area;</text><text fill="#000000" font-family="sans-serif" font-size="14" lengthAdjust="spacing" textLength="109" x="953" y="2130.2285">-double distance;</text><text fill="#000000" font-family="sans-serif" font-size="14" lengthAdjust="spacing" textLength="116" x="953" y="2148.8496">-Location location;</text><text fill="#000000" font-family="sans-serif" font-size="14" lengthAdjust="spacing" textLength="168" x="953" y="2167.4707">-List&lt;String&gt; photographs;</text><line style="stroke:#181818;stroke-width:0.5;" x1="948" x2="1126" y1="2174.9844" y2="2174.9844"/></g><!--class Land--><g id="elem_Land"><rect codeLine="65" fill="#F1F1F1" height="48" id="Land" rx="2.5" ry="2.5" style="stroke:#181818;stroke-width:0.5;" width="64" x="1365" y="2327"/><ellipse cx="1380" cy="2343" fill="#ADD1B2" rx="11" ry="11" style="stroke:#181818;stroke-width:1.0;"/><path d="M1382.7656,2338.875 Q1382.9219,2338.6563 1383.1094,2338.5469 Q1383.2969,2338.4375 1383.5156,2338.4375 Q1383.8906,2338.4375 1384.125,2338.7031 Q1384.3594,2338.9531 1384.3594,2339.5625 L1384.3594,2341.0156 Q1384.3594,2341.625 1384.125,2341.8906 Q1383.8906,2342.1563 1383.5156,2342.1563 Q1383.1719,2342.1563 1382.9688,2341.9531 Q1382.7656,2341.7656 1382.6563,2341.25 Q1382.6094,2340.8906 1382.4219,2340.7031 Q1382.0938,2340.3281 1381.4844,2340.1094 Q1380.875,2339.8906 1380.25,2339.8906 Q1379.4844,2339.8906 1378.8438,2340.2188 Q1378.2188,2340.5469 1377.7188,2341.2969 Q1377.2344,2342.0469 1377.2344,2343.0781 L1377.2344,2344.1719 Q1377.2344,2345.4063 1378.125,2346.2344 Q1379.0156,2347.0469 1380.6094,2347.0469 Q1381.5469,2347.0469 1382.2031,2346.7969 Q1382.5938,2346.6406 1383.0156,2346.2031 Q1383.2813,2345.9375 1383.4219,2345.8594 Q1383.5781,2345.7813 1383.7813,2345.7813 Q1384.1094,2345.7813 1384.3594,2346.0469 Q1384.625,2346.2969 1384.625,2346.6406 Q1384.625,2346.9844 1384.2813,2347.3906 Q1383.7813,2347.9688 1382.9844,2348.2969 Q1381.9063,2348.75 1380.6094,2348.75 Q1379.0938,2348.75 1377.8906,2348.125 Q1376.9063,2347.625 1376.2188,2346.5625 Q1375.5313,2345.4844 1375.5313,2344.2031 L1375.5313,2343.0469 Q1375.5313,2341.7188 1376.1406,2340.5781 Q1376.7656,2339.4219 1377.8594,2338.8125 Q1378.9531,2338.1875 1380.1875,2338.1875 Q1380.9219,2338.1875 1381.5625,2338.3594 Q1382.2188,2338.5156 1382.7656,2338.875 Z " fill="#000000"/><text fill="#000000" font-family="sans-serif" font-size="14" lengthAdjust="spacing" textLength="32" x="1394" y="2348.7969">Land</text><line style="stroke:#181818;stroke-width:0.5;" x1="1366" x2="1428" y1="2359" y2="2359"/><line style="stroke:#181818;stroke-width:0.5;" x1="1366" x2="1428" y1="2367" y2="2367"/></g><!--class Apartment--><g id="elem_Apartment"><rect codeLine="67" fill="#F1F1F1" height="122.4844" id="Apartment" rx="2.5" ry="2.5" style="stroke:#181818;stroke-width:0.5;" width="185" x="551.5" y="2290"/><ellipse cx="607.25" cy="2306" fill="#ADD1B2" rx="11" ry="11" style="stroke:#181818;stroke-width:1.0;"/><path d="M610.0156,2301.875 Q610.1719,2301.6563 610.3594,2301.5469 Q610.5469,2301.4375 610.7656,2301.4375 Q611.1406,2301.4375 611.375,2301.7031 Q611.6094,2301.9531 611.6094,2302.5625 L611.6094,2304.0156 Q611.6094,2304.625 611.375,2304.8906 Q611.1406,2305.1563 610.7656,2305.1563 Q610.4219,2305.1563 610.2188,2304.9531 Q610.0156,2304.7656 609.9063,2304.25 Q609.8594,2303.8906 609.6719,2303.7031 Q609.3438,2303.3281 608.7344,2303.1094 Q608.125,2302.8906 607.5,2302.8906 Q606.7344,2302.8906 606.0938,2303.2188 Q605.4688,2303.5469 604.9688,2304.2969 Q604.4844,2305.0469 604.4844,2306.0781 L604.4844,2307.1719 Q604.4844,2308.4063 605.375,2309.2344 Q606.2656,2310.0469 607.8594,2310.0469 Q608.7969,2310.0469 609.4531,2309.7969 Q609.8438,2309.6406 610.2656,2309.2031 Q610.5313,2308.9375 610.6719,2308.8594 Q610.8281,2308.7813 611.0313,2308.7813 Q611.3594,2308.7813 611.6094,2309.0469 Q611.875,2309.2969 611.875,2309.6406 Q611.875,2309.9844 611.5313,2310.3906 Q611.0313,2310.9688 610.2344,2311.2969 Q609.1563,2311.75 607.8594,2311.75 Q606.3438,2311.75 605.1406,2311.125 Q604.1563,2310.625 603.4688,2309.5625 Q602.7813,2308.4844 602.7813,2307.2031 L602.7813,2306.0469 Q602.7813,2304.7188 603.3906,2303.5781 Q604.0156,2302.4219 605.1094,2301.8125 Q606.2031,2301.1875 607.4375,2301.1875 Q608.1719,2301.1875 608.8125,2301.3594 Q609.4688,2301.5156 610.0156,2301.875 Z " fill="#000000"/><text fill="#000000" font-family="sans-serif" font-size="14" lengthAdjust="spacing" textLength="65" x="627.75" y="2311.7969">Apartment</text><line style="stroke:#181818;stroke-width:0.5;" x1="552.5" x2="735.5" y1="2322" y2="2322"/><text fill="#000000" font-family="sans-serif" font-size="14" lengthAdjust="spacing" textLength="140" x="557.5" y="2341.1074">-int: numberBedrooms</text><text fill="#000000" font-family="sans-serif" font-size="14" lengthAdjust="spacing" textLength="124" x="557.5" y="2359.7285">-int: numberParking</text><text fill="#000000" font-family="sans-serif" font-size="14" lengthAdjust="spacing" textLength="144" x="557.5" y="2378.3496">-int: numberBathrooms</text><text fill="#000000" font-family="sans-serif" font-size="14" lengthAdjust="spacing" textLength="173" x="557.5" y="2396.9707">-String: availableEquipment</text><line style="stroke:#181818;stroke-width:0.5;" x1="552.5" x2="735.5" y1="2404.4844" y2="2404.4844"/></g><!--class House--><g id="elem_House"><rect codeLine="73" fill="#F1F1F1" height="159.7266" id="House" rx="2.5" ry="2.5" style="stroke:#181818;stroke-width:0.5;" width="185" x="1144.5" y="2271"/><ellipse cx="1212.75" cy="2287" fill="#ADD1B2" rx="11" ry="11" style="stroke:#181818;stroke-width:1.0;"/><path d="M1215.5156,2282.875 Q1215.6719,2282.6563 1215.8594,2282.5469 Q1216.0469,2282.4375 1216.2656,2282.4375 Q1216.6406,2282.4375 1216.875,2282.7031 Q1217.1094,2282.9531 1217.1094,2283.5625 L1217.1094,2285.0156 Q1217.1094,2285.625 1216.875,2285.8906 Q1216.6406,2286.1563 1216.2656,2286.1563 Q1215.9219,2286.1563 1215.7188,2285.9531 Q1215.5156,2285.7656 1215.4063,2285.25 Q1215.3594,2284.8906 1215.1719,2284.7031 Q1214.8438,2284.3281 1214.2344,2284.1094 Q1213.625,2283.8906 1213,2283.8906 Q1212.2344,2283.8906 1211.5938,2284.2188 Q1210.9688,2284.5469 1210.4688,2285.2969 Q1209.9844,2286.0469 1209.9844,2287.0781 L1209.9844,2288.1719 Q1209.9844,2289.4063 1210.875,2290.2344 Q1211.7656,2291.0469 1213.3594,2291.0469 Q1214.2969,2291.0469 1214.9531,2290.7969 Q1215.3438,2290.6406 1215.7656,2290.2031 Q1216.0313,2289.9375 1216.1719,2289.8594 Q1216.3281,2289.7813 1216.5313,2289.7813 Q1216.8594,2289.7813 1217.1094,2290.0469 Q1217.375,2290.2969 1217.375,2290.6406 Q1217.375,2290.9844 1217.0313,2291.3906 Q1216.5313,2291.9688 1215.7344,2292.2969 Q1214.6563,2292.75 1213.3594,2292.75 Q1211.8438,2292.75 1210.6406,2292.125 Q1209.6563,2291.625 1208.9688,2290.5625 Q1208.2813,2289.4844 1208.2813,2288.2031 L1208.2813,2287.0469 Q1208.2813,2285.7188 1208.8906,2284.5781 Q1209.5156,2283.4219 1210.6094,2282.8125 Q1211.7031,2282.1875 1212.9375,2282.1875 Q1213.6719,2282.1875 1214.3125,2282.3594 Q1214.9688,2282.5156 1215.5156,2282.875 Z " fill="#000000"/><text fill="#000000" font-family="sans-serif" font-size="14" lengthAdjust="spacing" textLength="40" x="1233.25" y="2292.7969">House</text><line style="stroke:#181818;stroke-width:0.5;" x1="1145.5" x2="1328.5" y1="2303" y2="2303"/><text fill="#000000" font-family="sans-serif" font-size="14" lengthAdjust="spacing" textLength="140" x="1150.5" y="2322.1074">-int: numberBedrooms</text><text fill="#000000" font-family="sans-serif" font-size="14" lengthAdjust="spacing" textLength="124" x="1150.5" y="2340.7285">-int: numberParking</text><text fill="#000000" font-family="sans-serif" font-size="14" lengthAdjust="spacing" textLength="144" x="1150.5" y="2359.3496">-int: numberBathrooms</text><text fill="#000000" font-family="sans-serif" font-size="14" lengthAdjust="spacing" textLength="173" x="1150.5" y="2377.9707">-String: availableEquipment</text><text fill="#000000" font-family="sans-serif" font-size="14" lengthAdjust="spacing" textLength="126" x="1150.5" y="2396.5918">-boolean: basement</text><text fill="#000000" font-family="sans-serif" font-size="14" lengthAdjust="spacing" textLength="146" x="1150.5" y="2415.2129">-boolean: habitableLoft</text><line style="stroke:#181818;stroke-width:0.5;" x1="1145.5" x2="1328.5" y1="2422.7266" y2="2422.7266"/></g><!--class SunExposureType--><g id="elem_SunExposureType"><rect codeLine="81" fill="#F1F1F1" height="66.6211" id="SunExposureType" rx="2.5" ry="2.5" style="stroke:#181818;stroke-width:0.5;" width="217" x="1128.5" y="2656"/><ellipse cx="1174.75" cy="2672" fill="#EB937F" rx="11" ry="11" style="stroke:#181818;stroke-width:1.0;"/><path d="M1173.6094,2672.7969 L1173.6094,2675.2969 L1177.9375,2675.2969 L1177.9375,2674.375 Q1177.9375,2673.7656 1178.1719,2673.5 Q1178.4219,2673.2344 1178.7969,2673.2344 Q1179.1719,2673.2344 1179.4063,2673.5 Q1179.6406,2673.7656 1179.6406,2674.375 L1179.6406,2677 L1171.6406,2677 Q1171.0156,2677 1170.75,2676.7656 Q1170.5,2676.5313 1170.5,2676.1406 Q1170.5,2675.7656 1170.7656,2675.5313 Q1171.0313,2675.2969 1171.6406,2675.2969 L1171.9063,2675.2969 L1171.9063,2668.6406 L1171.6406,2668.6406 Q1171.0156,2668.6406 1170.75,2668.4063 Q1170.5,2668.1719 1170.5,2667.7813 Q1170.5,2667.4063 1170.75,2667.1719 Q1171.0156,2666.9375 1171.6406,2666.9375 L1179.2656,2666.9375 L1179.2656,2669.5313 Q1179.2656,2670.1406 1179.0313,2670.4063 Q1178.8125,2670.6563 1178.4219,2670.6563 Q1178.0469,2670.6563 1177.8125,2670.4063 Q1177.5781,2670.1406 1177.5781,2669.5313 L1177.5781,2668.6406 L1173.6094,2668.6406 L1173.6094,2671.0938 L1175.0938,2671.0938 Q1175.0938,2670.4375 1175.2188,2670.25 Q1175.4844,2669.8438 1175.9531,2669.8438 Q1176.3281,2669.8438 1176.5625,2670.1094 Q1176.7969,2670.3594 1176.7969,2670.9688 L1176.7969,2672.9375 Q1176.7969,2673.4844 1176.6719,2673.6719 Q1176.4063,2674.0625 1175.9531,2674.0625 Q1175.4844,2674.0625 1175.2188,2673.6563 Q1175.0938,2673.4688 1175.0938,2672.7969 L1173.6094,2672.7969 Z " fill="#000000"/><text fill="#000000" font-family="sans-serif" font-size="14" lengthAdjust="spacing" textLength="116" x="1195.25" y="2677.7969">SunExposureType</text><line style="stroke:#181818;stroke-width:0.5;" x1="1129.5" x2="1344.5" y1="2688" y2="2688"/><text fill="#000000" font-family="sans-serif" font-size="14" lengthAdjust="spacing" textLength="205" x="1134.5" y="2707.1074">-String: North, South, East, West</text><line style="stroke:#181818;stroke-width:0.5;" x1="1129.5" x2="1344.5" y1="2714.6211" y2="2714.6211"/></g><!--class SunExposure--><g id="elem_SunExposure"><rect codeLine="84" fill="#F1F1F1" height="66.6211" id="SunExposure" rx="2.5" ry="2.5" style="stroke:#181818;stroke-width:0.5;" width="166" x="1154" y="2519"/><ellipse cx="1191.5" cy="2535" fill="#ADD1B2" rx="11" ry="11" style="stroke:#181818;stroke-width:1.0;"/><path d="M1194.2656,2530.875 Q1194.4219,2530.6563 1194.6094,2530.5469 Q1194.7969,2530.4375 1195.0156,2530.4375 Q1195.3906,2530.4375 1195.625,2530.7031 Q1195.8594,2530.9531 1195.8594,2531.5625 L1195.8594,2533.0156 Q1195.8594,2533.625 1195.625,2533.8906 Q1195.3906,2534.1563 1195.0156,2534.1563 Q1194.6719,2534.1563 1194.4688,2533.9531 Q1194.2656,2533.7656 1194.1563,2533.25 Q1194.1094,2532.8906 1193.9219,2532.7031 Q1193.5938,2532.3281 1192.9844,2532.1094 Q1192.375,2531.8906 1191.75,2531.8906 Q1190.9844,2531.8906 1190.3438,2532.2188 Q1189.7188,2532.5469 1189.2188,2533.2969 Q1188.7344,2534.0469 1188.7344,2535.0781 L1188.7344,2536.1719 Q1188.7344,2537.4063 1189.625,2538.2344 Q1190.5156,2539.0469 1192.1094,2539.0469 Q1193.0469,2539.0469 1193.7031,2538.7969 Q1194.0938,2538.6406 1194.5156,2538.2031 Q1194.7813,2537.9375 1194.9219,2537.8594 Q1195.0781,2537.7813 1195.2813,2537.7813 Q1195.6094,2537.7813 1195.8594,2538.0469 Q1196.125,2538.2969 1196.125,2538.6406 Q1196.125,2538.9844 1195.7813,2539.3906 Q1195.2813,2539.9688 1194.4844,2540.2969 Q1193.4063,2540.75 1192.1094,2540.75 Q1190.5938,2540.75 1189.3906,2540.125 Q1188.4063,2539.625 1187.7188,2538.5625 Q1187.0313,2537.4844 1187.0313,2536.2031 L1187.0313,2535.0469 Q1187.0313,2533.7188 1187.6406,2532.5781 Q1188.2656,2531.4219 1189.3594,2530.8125 Q1190.4531,2530.1875 1191.6875,2530.1875 Q1192.4219,2530.1875 1193.0625,2530.3594 Q1193.7188,2530.5156 1194.2656,2530.875 Z " fill="#000000"/><text fill="#000000" font-family="sans-serif" font-size="14" lengthAdjust="spacing" textLength="84" x="1210.5" y="2540.7969">SunExposure</text><line style="stroke:#181818;stroke-width:0.5;" x1="1155" x2="1319" y1="2551" y2="2551"/><line style="stroke:#181818;stroke-width:0.5;" x1="1155" x2="1319" y1="2559" y2="2559"/><text fill="#000000" font-family="sans-serif" font-size="14" lengthAdjust="spacing" textLength="154" x="1160" y="2578.1074">+getSunExposureType()</text></g><!--class PropertyType--><g id="elem_PropertyType"><rect codeLine="88" fill="#F1F1F1" height="85.2422" id="PropertyType" rx="2.5" ry="2.5" style="stroke:#181818;stroke-width:0.5;" width="216" x="772" y="2308.5"/><ellipse cx="832.75" cy="2324.5" fill="#EB937F" rx="11" ry="11" style="stroke:#181818;stroke-width:1.0;"/><path d="M831.6094,2325.2969 L831.6094,2327.7969 L835.9375,2327.7969 L835.9375,2326.875 Q835.9375,2326.2656 836.1719,2326 Q836.4219,2325.7344 836.7969,2325.7344 Q837.1719,2325.7344 837.4063,2326 Q837.6406,2326.2656 837.6406,2326.875 L837.6406,2329.5 L829.6406,2329.5 Q829.0156,2329.5 828.75,2329.2656 Q828.5,2329.0313 828.5,2328.6406 Q828.5,2328.2656 828.7656,2328.0313 Q829.0313,2327.7969 829.6406,2327.7969 L829.9063,2327.7969 L829.9063,2321.1406 L829.6406,2321.1406 Q829.0156,2321.1406 828.75,2320.9063 Q828.5,2320.6719 828.5,2320.2813 Q828.5,2319.9063 828.75,2319.6719 Q829.0156,2319.4375 829.6406,2319.4375 L837.2656,2319.4375 L837.2656,2322.0313 Q837.2656,2322.6406 837.0313,2322.9063 Q836.8125,2323.1563 836.4219,2323.1563 Q836.0469,2323.1563 835.8125,2322.9063 Q835.5781,2322.6406 835.5781,2322.0313 L835.5781,2321.1406 L831.6094,2321.1406 L831.6094,2323.5938 L833.0938,2323.5938 Q833.0938,2322.9375 833.2188,2322.75 Q833.4844,2322.3438 833.9531,2322.3438 Q834.3281,2322.3438 834.5625,2322.6094 Q834.7969,2322.8594 834.7969,2323.4688 L834.7969,2325.4375 Q834.7969,2325.9844 834.6719,2326.1719 Q834.4063,2326.5625 833.9531,2326.5625 Q833.4844,2326.5625 833.2188,2326.1563 Q833.0938,2325.9688 833.0938,2325.2969 L831.6094,2325.2969 Z " fill="#000000"/><text fill="#000000" font-family="sans-serif" font-size="14" lengthAdjust="spacing" textLength="86" x="853.25" y="2330.2969">PropertyType</text><line style="stroke:#181818;stroke-width:0.5;" x1="773" x2="987" y1="2340.5" y2="2340.5"/><text fill="#000000" font-family="sans-serif" font-size="14" lengthAdjust="spacing" textLength="204" x="778" y="2359.6074">-LAND + APARTMENT + HOUSE</text><text fill="#000000" font-family="sans-serif" font-size="14" lengthAdjust="spacing" textLength="74" x="778" y="2378.2285">-description</text><line style="stroke:#181818;stroke-width:0.5;" x1="773" x2="987" y1="2385.7422" y2="2385.7422"/></g><!--class Location--><g id="elem_Location"><rect codeLine="93" fill="#F1F1F1" height="141.1055" id="Location" rx="2.5" ry="2.5" style="stroke:#181818;stroke-width:0.5;" width="86" x="1023" y="2280.5"/><ellipse cx="1038" cy="2296.5" fill="#B4A7E5" rx="11" ry="11" style="stroke:#181818;stroke-width:1.0;"/><path d="M1038.9531,2293.1406 L1038.9531,2299.7969 L1040.6719,2299.7969 Q1041.2813,2299.7969 1041.5469,2300.0313 Q1041.8125,2300.2656 1041.8125,2300.6563 Q1041.8125,2301.0313 1041.5469,2301.2656 Q1041.2813,2301.5 1040.6719,2301.5 L1035.5313,2301.5 Q1034.9219,2301.5 1034.6563,2301.2656 Q1034.3906,2301.0313 1034.3906,2300.6406 Q1034.3906,2300.2656 1034.6563,2300.0313 Q1034.9219,2299.7969 1035.5313,2299.7969 L1037.25,2299.7969 L1037.25,2293.1406 L1035.5313,2293.1406 Q1034.9219,2293.1406 1034.6563,2292.9063 Q1034.3906,2292.6719 1034.3906,2292.2813 Q1034.3906,2291.9063 1034.6563,2291.6719 Q1034.9219,2291.4375 1035.5313,2291.4375 L1040.6719,2291.4375 Q1041.2813,2291.4375 1041.5469,2291.6719 Q1041.8125,2291.9063 1041.8125,2292.2813 Q1041.8125,2292.6719 1041.5469,2292.9063 Q1041.2813,2293.1406 1040.6719,2293.1406 L1038.9531,2293.1406 Z " fill="#000000"/><text fill="#000000" font-family="sans-serif" font-size="14" font-style="italic" lengthAdjust="spacing" textLength="54" x="1052" y="2302.2969">Location</text><line style="stroke:#181818;stroke-width:0.5;" x1="1024" x2="1108" y1="2312.5" y2="2312.5"/><text fill="#000000" font-family="sans-serif" font-size="14" lengthAdjust="spacing" textLength="41" x="1029" y="2331.6074">-street</text><text fill="#000000" font-family="sans-serif" font-size="14" lengthAdjust="spacing" textLength="56" x="1029" y="2350.2285">-zipCode</text><text fill="#000000" font-family="sans-serif" font-size="14" lengthAdjust="spacing" textLength="54" x="1029" y="2368.8496">-stateUS</text><text fill="#000000" font-family="sans-serif" font-size="14" lengthAdjust="spacing" textLength="26" x="1029" y="2387.4707">-city</text><text fill="#000000" font-family="sans-serif" font-size="14" lengthAdjust="spacing" textLength="46" x="1029" y="2406.0918">-district</text><line style="stroke:#181818;stroke-width:0.5;" x1="1024" x2="1108" y1="2413.6055" y2="2413.6055"/></g><!--class RequestRepository--><g id="elem_RequestRepository"><rect codeLine="101" fill="#F1F1F1" height="66.6211" id="RequestRepository" rx="2.5" ry="2.5" style="stroke:#181818;stroke-width:0.5;" width="153" x="388.5" y="1361"/><ellipse cx="403.5" cy="1377" fill="#ADD1B2" rx="11" ry="11" style="stroke:#181818;stroke-width:1.0;"/><path d="M406.2656,1372.875 Q406.4219,1372.6563 406.6094,1372.5469 Q406.7969,1372.4375 407.0156,1372.4375 Q407.3906,1372.4375 407.625,1372.7031 Q407.8594,1372.9531 407.8594,1373.5625 L407.8594,1375.0156 Q407.8594,1375.625 407.625,1375.8906 Q407.3906,1376.1563 407.0156,1376.1563 Q406.6719,1376.1563 406.4688,1375.9531 Q406.2656,1375.7656 406.1563,1375.25 Q406.1094,1374.8906 405.9219,1374.7031 Q405.5938,1374.3281 404.9844,1374.1094 Q404.375,1373.8906 403.75,1373.8906 Q402.9844,1373.8906 402.3438,1374.2188 Q401.7188,1374.5469 401.2188,1375.2969 Q400.7344,1376.0469 400.7344,1377.0781 L400.7344,1378.1719 Q400.7344,1379.4063 401.625,1380.2344 Q402.5156,1381.0469 404.1094,1381.0469 Q405.0469,1381.0469 405.7031,1380.7969 Q406.0938,1380.6406 406.5156,1380.2031 Q406.7813,1379.9375 406.9219,1379.8594 Q407.0781,1379.7813 407.2813,1379.7813 Q407.6094,1379.7813 407.8594,1380.0469 Q408.125,1380.2969 408.125,1380.6406 Q408.125,1380.9844 407.7813,1381.3906 Q407.2813,1381.9688 406.4844,1382.2969 Q405.4063,1382.75 404.1094,1382.75 Q402.5938,1382.75 401.3906,1382.125 Q400.4063,1381.625 399.7188,1380.5625 Q399.0313,1379.4844 399.0313,1378.2031 L399.0313,1377.0469 Q399.0313,1375.7188 399.6406,1374.5781 Q400.2656,1373.4219 401.3594,1372.8125 Q402.4531,1372.1875 403.6875,1372.1875 Q404.4219,1372.1875 405.0625,1372.3594 Q405.7188,1372.5156 406.2656,1372.875 Z " fill="#000000"/><text fill="#000000" font-family="sans-serif" font-size="14" lengthAdjust="spacing" textLength="121" x="417.5" y="1382.7969">RequestRepository</text><line style="stroke:#181818;stroke-width:0.5;" x1="389.5" x2="540.5" y1="1393" y2="1393"/><line style="stroke:#181818;stroke-width:0.5;" x1="389.5" x2="540.5" y1="1401" y2="1401"/><text fill="#000000" font-family="sans-serif" font-size="14" lengthAdjust="spacing" textLength="113" x="394.5" y="1420.1074">+getRequestList()</text></g><!--class Request--><g id="elem_Request"><rect codeLine="104" fill="#F1F1F1" height="66.6211" id="Request" rx="2.5" ry="2.5" style="stroke:#181818;stroke-width:0.5;" width="85" x="478.5" y="2088"/><ellipse cx="493.5" cy="2104" fill="#ADD1B2" rx="11" ry="11" style="stroke:#181818;stroke-width:1.0;"/><path d="M496.2656,2099.875 Q496.4219,2099.6563 496.6094,2099.5469 Q496.7969,2099.4375 497.0156,2099.4375 Q497.3906,2099.4375 497.625,2099.7031 Q497.8594,2099.9531 497.8594,2100.5625 L497.8594,2102.0156 Q497.8594,2102.625 497.625,2102.8906 Q497.3906,2103.1563 497.0156,2103.1563 Q496.6719,2103.1563 496.4688,2102.9531 Q496.2656,2102.7656 496.1563,2102.25 Q496.1094,2101.8906 495.9219,2101.7031 Q495.5938,2101.3281 494.9844,2101.1094 Q494.375,2100.8906 493.75,2100.8906 Q492.9844,2100.8906 492.3438,2101.2188 Q491.7188,2101.5469 491.2188,2102.2969 Q490.7344,2103.0469 490.7344,2104.0781 L490.7344,2105.1719 Q490.7344,2106.4063 491.625,2107.2344 Q492.5156,2108.0469 494.1094,2108.0469 Q495.0469,2108.0469 495.7031,2107.7969 Q496.0938,2107.6406 496.5156,2107.2031 Q496.7813,2106.9375 496.9219,2106.8594 Q497.0781,2106.7813 497.2813,2106.7813 Q497.6094,2106.7813 497.8594,2107.0469 Q498.125,2107.2969 498.125,2107.6406 Q498.125,2107.9844 497.7813,2108.3906 Q497.2813,2108.9688 496.4844,2109.2969 Q495.4063,2109.75 494.1094,2109.75 Q492.5938,2109.75 491.3906,2109.125 Q490.4063,2108.625 489.7188,2107.5625 Q489.0313,2106.4844 489.0313,2105.2031 L489.0313,2104.0469 Q489.0313,2102.7188 489.6406,2101.5781 Q490.2656,2100.4219 491.3594,2099.8125 Q492.4531,2099.1875 493.6875,2099.1875 Q494.4219,2099.1875 495.0625,2099.3594 Q495.7188,2099.5156 496.2656,2099.875 Z " fill="#000000"/><text fill="#000000" font-family="sans-serif" font-size="14" lengthAdjust="spacing" textLength="53" x="507.5" y="2109.7969">Request</text><line style="stroke:#181818;stroke-width:0.5;" x1="479.5" x2="562.5" y1="2120" y2="2120"/><text fill="#000000" font-family="sans-serif" font-size="14" lengthAdjust="spacing" textLength="71" x="484.5" y="2139.1074">-Date date;</text><line style="stroke:#181818;stroke-width:0.5;" x1="479.5" x2="562.5" y1="2146.6211" y2="2146.6211"/></g><!--class BusinessType--><g id="elem_BusinessType"><rect codeLine="110" fill="#F1F1F1" height="85.2422" id="BusinessType" rx="2.5" ry="2.5" style="stroke:#181818;stroke-width:0.5;" width="161" x="355.5" y="2308.5"/><ellipse cx="388.5" cy="2324.5" fill="#EB937F" rx="11" ry="11" style="stroke:#181818;stroke-width:1.0;"/><path d="M387.3594,2325.2969 L387.3594,2327.7969 L391.6875,2327.7969 L391.6875,2326.875 Q391.6875,2326.2656 391.9219,2326 Q392.1719,2325.7344 392.5469,2325.7344 Q392.9219,2325.7344 393.1563,2326 Q393.3906,2326.2656 393.3906,2326.875 L393.3906,2329.5 L385.3906,2329.5 Q384.7656,2329.5 384.5,2329.2656 Q384.25,2329.0313 384.25,2328.6406 Q384.25,2328.2656 384.5156,2328.0313 Q384.7813,2327.7969 385.3906,2327.7969 L385.6563,2327.7969 L385.6563,2321.1406 L385.3906,2321.1406 Q384.7656,2321.1406 384.5,2320.9063 Q384.25,2320.6719 384.25,2320.2813 Q384.25,2319.9063 384.5,2319.6719 Q384.7656,2319.4375 385.3906,2319.4375 L393.0156,2319.4375 L393.0156,2322.0313 Q393.0156,2322.6406 392.7813,2322.9063 Q392.5625,2323.1563 392.1719,2323.1563 Q391.7969,2323.1563 391.5625,2322.9063 Q391.3281,2322.6406 391.3281,2322.0313 L391.3281,2321.1406 L387.3594,2321.1406 L387.3594,2323.5938 L388.8438,2323.5938 Q388.8438,2322.9375 388.9688,2322.75 Q389.2344,2322.3438 389.7031,2322.3438 Q390.0781,2322.3438 390.3125,2322.6094 Q390.5469,2322.8594 390.5469,2323.4688 L390.5469,2325.4375 Q390.5469,2325.9844 390.4219,2326.1719 Q390.1563,2326.5625 389.7031,2326.5625 Q389.2344,2326.5625 388.9688,2326.1563 Q388.8438,2325.9688 388.8438,2325.2969 L387.3594,2325.2969 Z " fill="#000000"/><text fill="#000000" font-family="sans-serif" font-size="14" lengthAdjust="spacing" textLength="89" x="406.5" y="2330.2969">BusinessType</text><line style="stroke:#181818;stroke-width:0.5;" x1="356.5" x2="515.5" y1="2340.5" y2="2340.5"/><text fill="#000000" font-family="sans-serif" font-size="14" lengthAdjust="spacing" textLength="74" x="361.5" y="2359.6074">-description</text><line style="stroke:#181818;stroke-width:0.5;" x1="356.5" x2="515.5" y1="2367.1211" y2="2367.1211"/><text fill="#000000" font-family="sans-serif" font-size="14" lengthAdjust="spacing" textLength="149" x="361.5" y="2386.2285">+getBusinessTypeList()</text></g><!--class BusinessTypeRent--><g id="elem_BusinessTypeRent"><rect codeLine="113" fill="#F1F1F1" height="85.2422" id="BusinessTypeRent" rx="2.5" ry="2.5" style="stroke:#181818;stroke-width:0.5;" width="151" x="268.5" y="2510"/><ellipse cx="283.5" cy="2526" fill="#ADD1B2" rx="11" ry="11" style="stroke:#181818;stroke-width:1.0;"/><path d="M286.2656,2521.875 Q286.4219,2521.6563 286.6094,2521.5469 Q286.7969,2521.4375 287.0156,2521.4375 Q287.3906,2521.4375 287.625,2521.7031 Q287.8594,2521.9531 287.8594,2522.5625 L287.8594,2524.0156 Q287.8594,2524.625 287.625,2524.8906 Q287.3906,2525.1563 287.0156,2525.1563 Q286.6719,2525.1563 286.4688,2524.9531 Q286.2656,2524.7656 286.1563,2524.25 Q286.1094,2523.8906 285.9219,2523.7031 Q285.5938,2523.3281 284.9844,2523.1094 Q284.375,2522.8906 283.75,2522.8906 Q282.9844,2522.8906 282.3438,2523.2188 Q281.7188,2523.5469 281.2188,2524.2969 Q280.7344,2525.0469 280.7344,2526.0781 L280.7344,2527.1719 Q280.7344,2528.4063 281.625,2529.2344 Q282.5156,2530.0469 284.1094,2530.0469 Q285.0469,2530.0469 285.7031,2529.7969 Q286.0938,2529.6406 286.5156,2529.2031 Q286.7813,2528.9375 286.9219,2528.8594 Q287.0781,2528.7813 287.2813,2528.7813 Q287.6094,2528.7813 287.8594,2529.0469 Q288.125,2529.2969 288.125,2529.6406 Q288.125,2529.9844 287.7813,2530.3906 Q287.2813,2530.9688 286.4844,2531.2969 Q285.4063,2531.75 284.1094,2531.75 Q282.5938,2531.75 281.3906,2531.125 Q280.4063,2530.625 279.7188,2529.5625 Q279.0313,2528.4844 279.0313,2527.2031 L279.0313,2526.0469 Q279.0313,2524.7188 279.6406,2523.5781 Q280.2656,2522.4219 281.3594,2521.8125 Q282.4531,2521.1875 283.6875,2521.1875 Q284.4219,2521.1875 285.0625,2521.3594 Q285.7188,2521.5156 286.2656,2521.875 Z " fill="#000000"/><text fill="#000000" font-family="sans-serif" font-size="14" lengthAdjust="spacing" textLength="119" x="297.5" y="2531.7969">BusinessTypeRent</text><line style="stroke:#181818;stroke-width:0.5;" x1="269.5" x2="418.5" y1="2542" y2="2542"/><text fill="#000000" font-family="sans-serif" font-size="14" lengthAdjust="spacing" textLength="120" x="274.5" y="2561.1074">-double:rentalPrice</text><text fill="#000000" font-family="sans-serif" font-size="14" lengthAdjust="spacing" textLength="130" x="274.5" y="2579.7285">-int:durationContract</text><line style="stroke:#181818;stroke-width:0.5;" x1="269.5" x2="418.5" y1="2587.2422" y2="2587.2422"/></g><!--class BusinessTypeSale--><g id="elem_BusinessTypeSale"><rect codeLine="117" fill="#F1F1F1" height="66.6211" id="BusinessTypeSale" rx="2.5" ry="2.5" style="stroke:#181818;stroke-width:0.5;" width="149" x="454.5" y="2519"/><ellipse cx="469.5" cy="2535" fill="#ADD1B2" rx="11" ry="11" style="stroke:#181818;stroke-width:1.0;"/><path d="M472.2656,2530.875 Q472.4219,2530.6563 472.6094,2530.5469 Q472.7969,2530.4375 473.0156,2530.4375 Q473.3906,2530.4375 473.625,2530.7031 Q473.8594,2530.9531 473.8594,2531.5625 L473.8594,2533.0156 Q473.8594,2533.625 473.625,2533.8906 Q473.3906,2534.1563 473.0156,2534.1563 Q472.6719,2534.1563 472.4688,2533.9531 Q472.2656,2533.7656 472.1563,2533.25 Q472.1094,2532.8906 471.9219,2532.7031 Q471.5938,2532.3281 470.9844,2532.1094 Q470.375,2531.8906 469.75,2531.8906 Q468.9844,2531.8906 468.3438,2532.2188 Q467.7188,2532.5469 467.2188,2533.2969 Q466.7344,2534.0469 466.7344,2535.0781 L466.7344,2536.1719 Q466.7344,2537.4063 467.625,2538.2344 Q468.5156,2539.0469 470.1094,2539.0469 Q471.0469,2539.0469 471.7031,2538.7969 Q472.0938,2538.6406 472.5156,2538.2031 Q472.7813,2537.9375 472.9219,2537.8594 Q473.0781,2537.7813 473.2813,2537.7813 Q473.6094,2537.7813 473.8594,2538.0469 Q474.125,2538.2969 474.125,2538.6406 Q474.125,2538.9844 473.7813,2539.3906 Q473.2813,2539.9688 472.4844,2540.2969 Q471.4063,2540.75 470.1094,2540.75 Q468.5938,2540.75 467.3906,2540.125 Q466.4063,2539.625 465.7188,2538.5625 Q465.0313,2537.4844 465.0313,2536.2031 L465.0313,2535.0469 Q465.0313,2533.7188 465.6406,2532.5781 Q466.2656,2531.4219 467.3594,2530.8125 Q468.4531,2530.1875 469.6875,2530.1875 Q470.4219,2530.1875 471.0625,2530.3594 Q471.7188,2530.5156 472.2656,2530.875 Z " fill="#000000"/><text fill="#000000" font-family="sans-serif" font-size="14" lengthAdjust="spacing" textLength="117" x="483.5" y="2540.7969">BusinessTypeSale</text><line style="stroke:#181818;stroke-width:0.5;" x1="455.5" x2="602.5" y1="2551" y2="2551"/><text fill="#000000" font-family="sans-serif" font-size="14" lengthAdjust="spacing" textLength="110" x="460.5" y="2570.1074">-double:salePrice</text><line style="stroke:#181818;stroke-width:0.5;" x1="455.5" x2="602.5" y1="2577.6211" y2="2577.6211"/></g><!--class AdvertisementRepository--><g id="elem_AdvertisementRepository"><rect codeLine="121" fill="#F1F1F1" height="66.6211" id="AdvertisementRepository" rx="2.5" ry="2.5" style="stroke:#181818;stroke-width:0.5;" width="190" x="574" y="1052"/><ellipse cx="589" cy="1068" fill="#ADD1B2" rx="11" ry="11" style="stroke:#181818;stroke-width:1.0;"/><path d="M591.7656,1063.875 Q591.9219,1063.6563 592.1094,1063.5469 Q592.2969,1063.4375 592.5156,1063.4375 Q592.8906,1063.4375 593.125,1063.7031 Q593.3594,1063.9531 593.3594,1064.5625 L593.3594,1066.0156 Q593.3594,1066.625 593.125,1066.8906 Q592.8906,1067.1563 592.5156,1067.1563 Q592.1719,1067.1563 591.9688,1066.9531 Q591.7656,1066.7656 591.6563,1066.25 Q591.6094,1065.8906 591.4219,1065.7031 Q591.0938,1065.3281 590.4844,1065.1094 Q589.875,1064.8906 589.25,1064.8906 Q588.4844,1064.8906 587.8438,1065.2188 Q587.2188,1065.5469 586.7188,1066.2969 Q586.2344,1067.0469 586.2344,1068.0781 L586.2344,1069.1719 Q586.2344,1070.4063 587.125,1071.2344 Q588.0156,1072.0469 589.6094,1072.0469 Q590.5469,1072.0469 591.2031,1071.7969 Q591.5938,1071.6406 592.0156,1071.2031 Q592.2813,1070.9375 592.4219,1070.8594 Q592.5781,1070.7813 592.7813,1070.7813 Q593.1094,1070.7813 593.3594,1071.0469 Q593.625,1071.2969 593.625,1071.6406 Q593.625,1071.9844 593.2813,1072.3906 Q592.7813,1072.9688 591.9844,1073.2969 Q590.9063,1073.75 589.6094,1073.75 Q588.0938,1073.75 586.8906,1073.125 Q585.9063,1072.625 585.2188,1071.5625 Q584.5313,1070.4844 584.5313,1069.2031 L584.5313,1068.0469 Q584.5313,1066.7188 585.1406,1065.5781 Q585.7656,1064.4219 586.8594,1063.8125 Q587.9531,1063.1875 589.1875,1063.1875 Q589.9219,1063.1875 590.5625,1063.3594 Q591.2188,1063.5156 591.7656,1063.875 Z " fill="#000000"/><text fill="#000000" font-family="sans-serif" font-size="14" lengthAdjust="spacing" textLength="158" x="603" y="1073.7969">AdvertisementRepository</text><line style="stroke:#181818;stroke-width:0.5;" x1="575" x2="763" y1="1084" y2="1084"/><line style="stroke:#181818;stroke-width:0.5;" x1="575" x2="763" y1="1092" y2="1092"/><text fill="#000000" font-family="sans-serif" font-size="14" lengthAdjust="spacing" textLength="150" x="580" y="1111.1074">+getAdvertisementList()</text></g><!--class Advertisement--><g id="elem_Advertisement"><rect codeLine="124" fill="#F1F1F1" height="513.5273" id="Advertisement" rx="2.5" ry="2.5" style="stroke:#181818;stroke-width:0.5;" width="234" x="477" y="1458"/><ellipse cx="544.75" cy="1474" fill="#ADD1B2" rx="11" ry="11" style="stroke:#181818;stroke-width:1.0;"/><path d="M547.5156,1469.875 Q547.6719,1469.6563 547.8594,1469.5469 Q548.0469,1469.4375 548.2656,1469.4375 Q548.6406,1469.4375 548.875,1469.7031 Q549.1094,1469.9531 549.1094,1470.5625 L549.1094,1472.0156 Q549.1094,1472.625 548.875,1472.8906 Q548.6406,1473.1563 548.2656,1473.1563 Q547.9219,1473.1563 547.7188,1472.9531 Q547.5156,1472.7656 547.4063,1472.25 Q547.3594,1471.8906 547.1719,1471.7031 Q546.8438,1471.3281 546.2344,1471.1094 Q545.625,1470.8906 545,1470.8906 Q544.2344,1470.8906 543.5938,1471.2188 Q542.9688,1471.5469 542.4688,1472.2969 Q541.9844,1473.0469 541.9844,1474.0781 L541.9844,1475.1719 Q541.9844,1476.4063 542.875,1477.2344 Q543.7656,1478.0469 545.3594,1478.0469 Q546.2969,1478.0469 546.9531,1477.7969 Q547.3438,1477.6406 547.7656,1477.2031 Q548.0313,1476.9375 548.1719,1476.8594 Q548.3281,1476.7813 548.5313,1476.7813 Q548.8594,1476.7813 549.1094,1477.0469 Q549.375,1477.2969 549.375,1477.6406 Q549.375,1477.9844 549.0313,1478.3906 Q548.5313,1478.9688 547.7344,1479.2969 Q546.6563,1479.75 545.3594,1479.75 Q543.8438,1479.75 542.6406,1479.125 Q541.6563,1478.625 540.9688,1477.5625 Q540.2813,1476.4844 540.2813,1475.2031 L540.2813,1474.0469 Q540.2813,1472.7188 540.8906,1471.5781 Q541.5156,1470.4219 542.6094,1469.8125 Q543.7031,1469.1875 544.9375,1469.1875 Q545.6719,1469.1875 546.3125,1469.3594 Q546.9688,1469.5156 547.5156,1469.875 Z " fill="#000000"/><text fill="#000000" font-family="sans-serif" font-size="14" lengthAdjust="spacing" textLength="90" x="565.25" y="1479.7969">Advertisement</text><line style="stroke:#181818;stroke-width:0.5;" x1="478" x2="710" y1="1490" y2="1490"/><text fill="#000000" font-family="sans-serif" font-size="14" lengthAdjust="spacing" textLength="150" x="483" y="1509.1074">-Request keepRequest;</text><text fill="#000000" font-family="sans-serif" font-size="14" lengthAdjust="spacing" textLength="216" x="483" y="1527.7285">-PropertyType keepPropertyType;</text><text fill="#000000" font-family="sans-serif" font-size="14" lengthAdjust="spacing" textLength="222" x="483" y="1546.3496">-BusinessType keepBusinessType;</text><text fill="#000000" font-family="sans-serif" font-size="14" lengthAdjust="spacing" textLength="152" x="483" y="1564.9707">-Property keepProperty;</text><text fill="#000000" font-family="sans-serif" font-size="14" lengthAdjust="spacing" textLength="85" x="483" y="1583.5918">-double area;</text><text fill="#000000" font-family="sans-serif" font-size="14" lengthAdjust="spacing" textLength="109" x="483" y="1602.2129">-double distance;</text><text fill="#000000" font-family="sans-serif" font-size="14" lengthAdjust="spacing" textLength="136" x="483" y="1620.834">-int numberBedrooms</text><text fill="#000000" font-family="sans-serif" font-size="14" lengthAdjust="spacing" textLength="120" x="483" y="1639.4551">-int numberParking</text><text fill="#000000" font-family="sans-serif" font-size="14" lengthAdjust="spacing" textLength="140" x="483" y="1658.0762">-int numberBathrooms</text><text fill="#000000" font-family="sans-serif" font-size="14" lengthAdjust="spacing" textLength="169" x="483" y="1676.6973">-String availableEquipment</text><text fill="#000000" font-family="sans-serif" font-size="14" lengthAdjust="spacing" textLength="122" x="483" y="1695.3184">-boolean basement</text><text fill="#000000" font-family="sans-serif" font-size="14" lengthAdjust="spacing" textLength="79" x="483" y="1713.9395">-boolean loft</text><text fill="#000000" font-family="sans-serif" font-size="14" lengthAdjust="spacing" textLength="116" x="483" y="1732.5605">-SunExposure sun</text><text fill="#000000" font-family="sans-serif" font-size="14" lengthAdjust="spacing" textLength="82" x="483" y="1751.1816">-String street</text><text fill="#000000" font-family="sans-serif" font-size="14" lengthAdjust="spacing" textLength="63" x="483" y="1769.8027">-String zip</text><text fill="#000000" font-family="sans-serif" font-size="14" lengthAdjust="spacing" textLength="77" x="483" y="1788.4238">-String state</text><text fill="#000000" font-family="sans-serif" font-size="14" lengthAdjust="spacing" textLength="67" x="483" y="1807.0449">-String city</text><text fill="#000000" font-family="sans-serif" font-size="14" lengthAdjust="spacing" textLength="87" x="483" y="1825.666">-String district</text><text fill="#000000" font-family="sans-serif" font-size="14" lengthAdjust="spacing" textLength="164" x="483" y="1844.2871">-List&lt;String&gt; photographs</text><text fill="#000000" font-family="sans-serif" font-size="14" lengthAdjust="spacing" textLength="110" x="483" y="1862.9082">-double salePrice</text><text fill="#000000" font-family="sans-serif" font-size="14" lengthAdjust="spacing" textLength="109" x="483" y="1881.5293">-double rentPrice</text><text fill="#000000" font-family="sans-serif" font-size="14" lengthAdjust="spacing" textLength="152" x="483" y="1900.1504">-int duractionOfContract</text><text fill="#000000" font-family="sans-serif" font-size="14" lengthAdjust="spacing" textLength="71" x="483" y="1918.7715">-Date date;</text><text fill="#000000" font-family="sans-serif" font-size="14" lengthAdjust="spacing" textLength="57" x="483" y="1937.3926">-List Visit</text><text fill="#000000" font-family="sans-serif" font-size="14" lengthAdjust="spacing" textLength="63" x="483" y="1956.0137">-List Offer</text><line style="stroke:#181818;stroke-width:0.5;" x1="478" x2="710" y1="1963.5273" y2="1963.5273"/></g><!--class AdvertisementMapper--><g id="elem_AdvertisementMapper"><rect codeLine="151" fill="#F1F1F1" height="85.2422" id="AdvertisementMapper" rx="2.5" ry="2.5" style="stroke:#181818;stroke-width:0.5;" width="289" x="682.5" y="1246"/><ellipse cx="753.75" cy="1262" fill="#ADD1B2" rx="11" ry="11" style="stroke:#181818;stroke-width:1.0;"/><path d="M756.5156,1257.875 Q756.6719,1257.6563 756.8594,1257.5469 Q757.0469,1257.4375 757.2656,1257.4375 Q757.6406,1257.4375 757.875,1257.7031 Q758.1094,1257.9531 758.1094,1258.5625 L758.1094,1260.0156 Q758.1094,1260.625 757.875,1260.8906 Q757.6406,1261.1563 757.2656,1261.1563 Q756.9219,1261.1563 756.7188,1260.9531 Q756.5156,1260.7656 756.4063,1260.25 Q756.3594,1259.8906 756.1719,1259.7031 Q755.8438,1259.3281 755.2344,1259.1094 Q754.625,1258.8906 754,1258.8906 Q753.2344,1258.8906 752.5938,1259.2188 Q751.9688,1259.5469 751.4688,1260.2969 Q750.9844,1261.0469 750.9844,1262.0781 L750.9844,1263.1719 Q750.9844,1264.4063 751.875,1265.2344 Q752.7656,1266.0469 754.3594,1266.0469 Q755.2969,1266.0469 755.9531,1265.7969 Q756.3438,1265.6406 756.7656,1265.2031 Q757.0313,1264.9375 757.1719,1264.8594 Q757.3281,1264.7813 757.5313,1264.7813 Q757.8594,1264.7813 758.1094,1265.0469 Q758.375,1265.2969 758.375,1265.6406 Q758.375,1265.9844 758.0313,1266.3906 Q757.5313,1266.9688 756.7344,1267.2969 Q755.6563,1267.75 754.3594,1267.75 Q752.8438,1267.75 751.6406,1267.125 Q750.6563,1266.625 749.9688,1265.5625 Q749.2813,1264.4844 749.2813,1263.2031 L749.2813,1262.0469 Q749.2813,1260.7188 749.8906,1259.5781 Q750.5156,1258.4219 751.6094,1257.8125 Q752.7031,1257.1875 753.9375,1257.1875 Q754.6719,1257.1875 755.3125,1257.3594 Q755.9688,1257.5156 756.5156,1257.875 Z " fill="#000000"/><text fill="#000000" font-family="sans-serif" font-size="14" lengthAdjust="spacing" textLength="138" x="774.25" y="1267.7969">AdvertisementMapper</text><line style="stroke:#181818;stroke-width:0.5;" x1="683.5" x2="970.5" y1="1278" y2="1278"/><line style="stroke:#181818;stroke-width:0.5;" x1="683.5" x2="970.5" y1="1286" y2="1286"/><text fill="#000000" font-family="sans-serif" font-size="14" lengthAdjust="spacing" textLength="170" x="688.5" y="1305.1074">+toDTO(Advertisement ad)</text><text fill="#000000" font-family="sans-serif" font-size="14" lengthAdjust="spacing" textLength="277" x="688.5" y="1323.7285">+fromDTOtoAD(AdvertisementDTO adDTO)</text></g><!--class AdvertisementDTO--><g id="elem_AdvertisementDTO"><rect codeLine="155" fill="#F1F1F1" height="439.043" id="AdvertisementDTO" rx="2.5" ry="2.5" style="stroke:#181818;stroke-width:0.5;" width="237" x="746.5" y="1495.5"/><ellipse cx="800.75" cy="1511.5" fill="#ADD1B2" rx="11" ry="11" style="stroke:#181818;stroke-width:1.0;"/><path d="M803.5156,1507.375 Q803.6719,1507.1563 803.8594,1507.0469 Q804.0469,1506.9375 804.2656,1506.9375 Q804.6406,1506.9375 804.875,1507.2031 Q805.1094,1507.4531 805.1094,1508.0625 L805.1094,1509.5156 Q805.1094,1510.125 804.875,1510.3906 Q804.6406,1510.6563 804.2656,1510.6563 Q803.9219,1510.6563 803.7188,1510.4531 Q803.5156,1510.2656 803.4063,1509.75 Q803.3594,1509.3906 803.1719,1509.2031 Q802.8438,1508.8281 802.2344,1508.6094 Q801.625,1508.3906 801,1508.3906 Q800.2344,1508.3906 799.5938,1508.7188 Q798.9688,1509.0469 798.4688,1509.7969 Q797.9844,1510.5469 797.9844,1511.5781 L797.9844,1512.6719 Q797.9844,1513.9063 798.875,1514.7344 Q799.7656,1515.5469 801.3594,1515.5469 Q802.2969,1515.5469 802.9531,1515.2969 Q803.3438,1515.1406 803.7656,1514.7031 Q804.0313,1514.4375 804.1719,1514.3594 Q804.3281,1514.2813 804.5313,1514.2813 Q804.8594,1514.2813 805.1094,1514.5469 Q805.375,1514.7969 805.375,1515.1406 Q805.375,1515.4844 805.0313,1515.8906 Q804.5313,1516.4688 803.7344,1516.7969 Q802.6563,1517.25 801.3594,1517.25 Q799.8438,1517.25 798.6406,1516.625 Q797.6563,1516.125 796.9688,1515.0625 Q796.2813,1513.9844 796.2813,1512.7031 L796.2813,1511.5469 Q796.2813,1510.2188 796.8906,1509.0781 Q797.5156,1507.9219 798.6094,1507.3125 Q799.7031,1506.6875 800.9375,1506.6875 Q801.6719,1506.6875 802.3125,1506.8594 Q802.9688,1507.0156 803.5156,1507.375 Z " fill="#000000"/><text fill="#000000" font-family="sans-serif" font-size="14" lengthAdjust="spacing" textLength="120" x="821.25" y="1517.2969">AdvertisementDTO</text><line style="stroke:#181818;stroke-width:0.5;" x1="747.5" x2="982.5" y1="1527.5" y2="1527.5"/><text fill="#000000" font-family="sans-serif" font-size="14" lengthAdjust="spacing" textLength="120" x="752.5" y="1546.6074">+double keepArea;</text><text fill="#000000" font-family="sans-serif" font-size="14" lengthAdjust="spacing" textLength="143" x="752.5" y="1565.2285">+double keepdistance;</text><text fill="#000000" font-family="sans-serif" font-size="14" lengthAdjust="spacing" textLength="219" x="752.5" y="1583.8496">+PropertyType keepPropertyType;</text><text fill="#000000" font-family="sans-serif" font-size="14" lengthAdjust="spacing" textLength="225" x="752.5" y="1602.4707">+BusinessType keepBusinessType;</text><text fill="#000000" font-family="sans-serif" font-size="14" lengthAdjust="spacing" textLength="175" x="752.5" y="1621.0918">+int keepNumberBedrooms;</text><text fill="#000000" font-family="sans-serif" font-size="14" lengthAdjust="spacing" textLength="131" x="752.5" y="1639.7129">+int numberParking ;</text><text fill="#000000" font-family="sans-serif" font-size="14" lengthAdjust="spacing" textLength="151" x="752.5" y="1658.334">+int numberBathrooms ;</text><text fill="#000000" font-family="sans-serif" font-size="14" lengthAdjust="spacing" textLength="180" x="752.5" y="1676.9551">+String availableEquipment ;</text><text fill="#000000" font-family="sans-serif" font-size="14" lengthAdjust="spacing" textLength="134" x="752.5" y="1695.5762">+Boolean basement ;</text><text fill="#000000" font-family="sans-serif" font-size="14" lengthAdjust="spacing" textLength="91" x="752.5" y="1714.1973">+Boolean loft ;</text><text fill="#000000" font-family="sans-serif" font-size="14" lengthAdjust="spacing" textLength="127" x="752.5" y="1732.8184">+SunExposure sun ;</text><text fill="#000000" font-family="sans-serif" font-size="14" lengthAdjust="spacing" textLength="122" x="752.5" y="1751.4395">+String keepStreet;</text><text fill="#000000" font-family="sans-serif" font-size="14" lengthAdjust="spacing" textLength="103" x="752.5" y="1770.0605">+String keepZip;</text><text fill="#000000" font-family="sans-serif" font-size="14" lengthAdjust="spacing" textLength="117" x="752.5" y="1788.6816">+String keepState;</text><text fill="#000000" font-family="sans-serif" font-size="14" lengthAdjust="spacing" textLength="108" x="752.5" y="1807.3027">+String keepCity;</text><text fill="#000000" font-family="sans-serif" font-size="14" lengthAdjust="spacing" textLength="127" x="752.5" y="1825.9238">+String keepDistrict;</text><text fill="#000000" font-family="sans-serif" font-size="14" lengthAdjust="spacing" textLength="203" x="752.5" y="1844.5449">+List&lt;String&gt; keepPhotographs;</text><text fill="#000000" font-family="sans-serif" font-size="14" lengthAdjust="spacing" textLength="150" x="752.5" y="1863.166">+double keepSalePrice;</text><text fill="#000000" font-family="sans-serif" font-size="14" lengthAdjust="spacing" textLength="152" x="752.5" y="1881.7871">+double keepRentPrice;</text><text fill="#000000" font-family="sans-serif" font-size="14" lengthAdjust="spacing" textLength="185" x="752.5" y="1900.4082">+int keepDurationOfContract;</text><text fill="#000000" font-family="sans-serif" font-size="14" lengthAdjust="spacing" textLength="107" x="752.5" y="1919.0293">+Date keepDate;</text><line style="stroke:#181818;stroke-width:0.5;" x1="747.5" x2="982.5" y1="1926.543" y2="1926.543"/></g><!--class AdvertisementCollections--><g id="elem_AdvertisementCollections"><rect codeLine="179" fill="#F1F1F1" height="159.7266" id="AdvertisementCollections" rx="2.5" ry="2.5" style="stroke:#181818;stroke-width:0.5;" width="421" x="643.5" y="641"/><ellipse cx="770.25" cy="657" fill="#ADD1B2" rx="11" ry="11" style="stroke:#181818;stroke-width:1.0;"/><path d="M773.0156,652.875 Q773.1719,652.6563 773.3594,652.5469 Q773.5469,652.4375 773.7656,652.4375 Q774.1406,652.4375 774.375,652.7031 Q774.6094,652.9531 774.6094,653.5625 L774.6094,655.0156 Q774.6094,655.625 774.375,655.8906 Q774.1406,656.1563 773.7656,656.1563 Q773.4219,656.1563 773.2188,655.9531 Q773.0156,655.7656 772.9063,655.25 Q772.8594,654.8906 772.6719,654.7031 Q772.3438,654.3281 771.7344,654.1094 Q771.125,653.8906 770.5,653.8906 Q769.7344,653.8906 769.0938,654.2188 Q768.4688,654.5469 767.9688,655.2969 Q767.4844,656.0469 767.4844,657.0781 L767.4844,658.1719 Q767.4844,659.4063 768.375,660.2344 Q769.2656,661.0469 770.8594,661.0469 Q771.7969,661.0469 772.4531,660.7969 Q772.8438,660.6406 773.2656,660.2031 Q773.5313,659.9375 773.6719,659.8594 Q773.8281,659.7813 774.0313,659.7813 Q774.3594,659.7813 774.6094,660.0469 Q774.875,660.2969 774.875,660.6406 Q774.875,660.9844 774.5313,661.3906 Q774.0313,661.9688 773.2344,662.2969 Q772.1563,662.75 770.8594,662.75 Q769.3438,662.75 768.1406,662.125 Q767.1563,661.625 766.4688,660.5625 Q765.7813,659.4844 765.7813,658.2031 L765.7813,657.0469 Q765.7813,655.7188 766.3906,654.5781 Q767.0156,653.4219 768.1094,652.8125 Q769.2031,652.1875 770.4375,652.1875 Q771.1719,652.1875 771.8125,652.3594 Q772.4688,652.5156 773.0156,652.875 Z " fill="#000000"/><text fill="#000000" font-family="sans-serif" font-size="14" lengthAdjust="spacing" textLength="159" x="790.75" y="662.7969">AdvertisementCollections</text><line style="stroke:#181818;stroke-width:0.5;" x1="644.5" x2="1063.5" y1="673" y2="673"/><line style="stroke:#181818;stroke-width:0.5;" x1="644.5" x2="1063.5" y1="681" y2="681"/><text fill="#000000" font-family="sans-serif" font-size="14" lengthAdjust="spacing" textLength="204" x="649.5" y="700.1074">+getAdvertismentDTOListSorted</text><text fill="#000000" font-family="sans-serif" font-size="14" lengthAdjust="spacing" textLength="275" x="649.5" y="718.7285">(propertyTypeChoice,businessTypeChoice)</text><text fill="#000000" font-family="sans-serif" font-size="14" lengthAdjust="spacing" textLength="409" x="649.5" y="737.3496">+createNewAdvertAllInformationList(adsList, propertyTypeChoice</text><text fill="#000000" font-family="sans-serif" font-size="14" lengthAdjust="spacing" textLength="145" x="649.5" y="755.9707">, businessTypeChoice)</text><text fill="#000000" font-family="sans-serif" font-size="14" lengthAdjust="spacing" textLength="224" x="649.5" y="774.5918">+sortAdVisitListByDate(adsVisitList)</text><text fill="#000000" font-family="sans-serif" font-size="14" lengthAdjust="spacing" textLength="276" x="649.5" y="793.2129">+getVerifyVisitTimeFree(adchoiceVisit, visit)</text></g><!--class Visit--><g id="elem_Visit"><rect codeLine="186" fill="#F1F1F1" height="141.1055" id="Visit" rx="2.5" ry="2.5" style="stroke:#181818;stroke-width:0.5;" width="125" x="131.5" y="2051"/><ellipse cx="176.75" cy="2067" fill="#ADD1B2" rx="11" ry="11" style="stroke:#181818;stroke-width:1.0;"/><path d="M179.5156,2062.875 Q179.6719,2062.6563 179.8594,2062.5469 Q180.0469,2062.4375 180.2656,2062.4375 Q180.6406,2062.4375 180.875,2062.7031 Q181.1094,2062.9531 181.1094,2063.5625 L181.1094,2065.0156 Q181.1094,2065.625 180.875,2065.8906 Q180.6406,2066.1563 180.2656,2066.1563 Q179.9219,2066.1563 179.7188,2065.9531 Q179.5156,2065.7656 179.4063,2065.25 Q179.3594,2064.8906 179.1719,2064.7031 Q178.8438,2064.3281 178.2344,2064.1094 Q177.625,2063.8906 177,2063.8906 Q176.2344,2063.8906 175.5938,2064.2188 Q174.9688,2064.5469 174.4688,2065.2969 Q173.9844,2066.0469 173.9844,2067.0781 L173.9844,2068.1719 Q173.9844,2069.4063 174.875,2070.2344 Q175.7656,2071.0469 177.3594,2071.0469 Q178.2969,2071.0469 178.9531,2070.7969 Q179.3438,2070.6406 179.7656,2070.2031 Q180.0313,2069.9375 180.1719,2069.8594 Q180.3281,2069.7813 180.5313,2069.7813 Q180.8594,2069.7813 181.1094,2070.0469 Q181.375,2070.2969 181.375,2070.6406 Q181.375,2070.9844 181.0313,2071.3906 Q180.5313,2071.9688 179.7344,2072.2969 Q178.6563,2072.75 177.3594,2072.75 Q175.8438,2072.75 174.6406,2072.125 Q173.6563,2071.625 172.9688,2070.5625 Q172.2813,2069.4844 172.2813,2068.2031 L172.2813,2067.0469 Q172.2813,2065.7188 172.8906,2064.5781 Q173.5156,2063.4219 174.6094,2062.8125 Q175.7031,2062.1875 176.9375,2062.1875 Q177.6719,2062.1875 178.3125,2062.3594 Q178.9688,2062.5156 179.5156,2062.875 Z " fill="#000000"/><text fill="#000000" font-family="sans-serif" font-size="14" lengthAdjust="spacing" textLength="26" x="197.25" y="2072.7969">Visit</text><line style="stroke:#181818;stroke-width:0.5;" x1="132.5" x2="255.5" y1="2083" y2="2083"/><text fill="#000000" font-family="sans-serif" font-size="14" lengthAdjust="spacing" textLength="52" x="137.5" y="2102.1074">-int year</text><text fill="#000000" font-family="sans-serif" font-size="14" lengthAdjust="spacing" textLength="63" x="137.5" y="2120.7285">-int Month</text><text fill="#000000" font-family="sans-serif" font-size="14" lengthAdjust="spacing" textLength="49" x="137.5" y="2139.3496">-int Day</text><text fill="#000000" font-family="sans-serif" font-size="14" lengthAdjust="spacing" textLength="54" x="137.5" y="2157.9707">-int Hour</text><text fill="#000000" font-family="sans-serif" font-size="14" lengthAdjust="spacing" textLength="113" x="137.5" y="2176.5918">-String clientEmail</text><line style="stroke:#181818;stroke-width:0.5;" x1="132.5" x2="255.5" y1="2184.1055" y2="2184.1055"/></g><!--class SunExposureRepository--><g id="elem_SunExposureRepository"><rect fill="#F1F1F1" height="48" id="SunExposureRepository" rx="2.5" ry="2.5" style="stroke:#181818;stroke-width:0.5;" width="184" x="59" y="1061.5"/><ellipse cx="74" cy="1077.5" fill="#ADD1B2" rx="11" ry="11" style="stroke:#181818;stroke-width:1.0;"/><path d="M76.7656,1073.375 Q76.9219,1073.1563 77.1094,1073.0469 Q77.2969,1072.9375 77.5156,1072.9375 Q77.8906,1072.9375 78.125,1073.2031 Q78.3594,1073.4531 78.3594,1074.0625 L78.3594,1075.5156 Q78.3594,1076.125 78.125,1076.3906 Q77.8906,1076.6563 77.5156,1076.6563 Q77.1719,1076.6563 76.9688,1076.4531 Q76.7656,1076.2656 76.6563,1075.75 Q76.6094,1075.3906 76.4219,1075.2031 Q76.0938,1074.8281 75.4844,1074.6094 Q74.875,1074.3906 74.25,1074.3906 Q73.4844,1074.3906 72.8438,1074.7188 Q72.2188,1075.0469 71.7188,1075.7969 Q71.2344,1076.5469 71.2344,1077.5781 L71.2344,1078.6719 Q71.2344,1079.9063 72.125,1080.7344 Q73.0156,1081.5469 74.6094,1081.5469 Q75.5469,1081.5469 76.2031,1081.2969 Q76.5938,1081.1406 77.0156,1080.7031 Q77.2813,1080.4375 77.4219,1080.3594 Q77.5781,1080.2813 77.7813,1080.2813 Q78.1094,1080.2813 78.3594,1080.5469 Q78.625,1080.7969 78.625,1081.1406 Q78.625,1081.4844 78.2813,1081.8906 Q77.7813,1082.4688 76.9844,1082.7969 Q75.9063,1083.25 74.6094,1083.25 Q73.0938,1083.25 71.8906,1082.625 Q70.9063,1082.125 70.2188,1081.0625 Q69.5313,1079.9844 69.5313,1078.7031 L69.5313,1077.5469 Q69.5313,1076.2188 70.1406,1075.0781 Q70.7656,1073.9219 71.8594,1073.3125 Q72.9531,1072.6875 74.1875,1072.6875 Q74.9219,1072.6875 75.5625,1072.8594 Q76.2188,1073.0156 76.7656,1073.375 Z " fill="#000000"/><text fill="#000000" font-family="sans-serif" font-size="14" lengthAdjust="spacing" textLength="152" x="88" y="1083.2969">SunExposureRepository</text><line style="stroke:#181818;stroke-width:0.5;" x1="60" x2="242" y1="1093.5" y2="1093.5"/><line style="stroke:#181818;stroke-width:0.5;" x1="60" x2="242" y1="1101.5" y2="1101.5"/></g><!--class BusinessTypeRepository--><g id="elem_BusinessTypeRepository"><rect fill="#F1F1F1" height="48" id="BusinessTypeRepository" rx="2.5" ry="2.5" style="stroke:#181818;stroke-width:0.5;" width="189" x="278.5" y="1061.5"/><ellipse cx="293.5" cy="1077.5" fill="#ADD1B2" rx="11" ry="11" style="stroke:#181818;stroke-width:1.0;"/><path d="M296.2656,1073.375 Q296.4219,1073.1563 296.6094,1073.0469 Q296.7969,1072.9375 297.0156,1072.9375 Q297.3906,1072.9375 297.625,1073.2031 Q297.8594,1073.4531 297.8594,1074.0625 L297.8594,1075.5156 Q297.8594,1076.125 297.625,1076.3906 Q297.3906,1076.6563 297.0156,1076.6563 Q296.6719,1076.6563 296.4688,1076.4531 Q296.2656,1076.2656 296.1563,1075.75 Q296.1094,1075.3906 295.9219,1075.2031 Q295.5938,1074.8281 294.9844,1074.6094 Q294.375,1074.3906 293.75,1074.3906 Q292.9844,1074.3906 292.3438,1074.7188 Q291.7188,1075.0469 291.2188,1075.7969 Q290.7344,1076.5469 290.7344,1077.5781 L290.7344,1078.6719 Q290.7344,1079.9063 291.625,1080.7344 Q292.5156,1081.5469 294.1094,1081.5469 Q295.0469,1081.5469 295.7031,1081.2969 Q296.0938,1081.1406 296.5156,1080.7031 Q296.7813,1080.4375 296.9219,1080.3594 Q297.0781,1080.2813 297.2813,1080.2813 Q297.6094,1080.2813 297.8594,1080.5469 Q298.125,1080.7969 298.125,1081.1406 Q298.125,1081.4844 297.7813,1081.8906 Q297.2813,1082.4688 296.4844,1082.7969 Q295.4063,1083.25 294.1094,1083.25 Q292.5938,1083.25 291.3906,1082.625 Q290.4063,1082.125 289.7188,1081.0625 Q289.0313,1079.9844 289.0313,1078.7031 L289.0313,1077.5469 Q289.0313,1076.2188 289.6406,1075.0781 Q290.2656,1073.9219 291.3594,1073.3125 Q292.4531,1072.6875 293.6875,1072.6875 Q294.4219,1072.6875 295.0625,1072.8594 Q295.7188,1073.0156 296.2656,1073.375 Z " fill="#000000"/><text fill="#000000" font-family="sans-serif" font-size="14" lengthAdjust="spacing" textLength="157" x="307.5" y="1083.2969">BusinessTypeRepository</text><line style="stroke:#181818;stroke-width:0.5;" x1="279.5" x2="466.5" y1="1093.5" y2="1093.5"/><line style="stroke:#181818;stroke-width:0.5;" x1="279.5" x2="466.5" y1="1101.5" y2="1101.5"/></g><!--class PersonRepository--><g id="elem_PersonRepository"><rect fill="#F1F1F1" height="48" id="PersonRepository" rx="2.5" ry="2.5" style="stroke:#181818;stroke-width:0.5;" width="145" x="297.5" y="488.5"/><ellipse cx="312.5" cy="504.5" fill="#ADD1B2" rx="11" ry="11" style="stroke:#181818;stroke-width:1.0;"/><path d="M315.2656,500.375 Q315.4219,500.1563 315.6094,500.0469 Q315.7969,499.9375 316.0156,499.9375 Q316.3906,499.9375 316.625,500.2031 Q316.8594,500.4531 316.8594,501.0625 L316.8594,502.5156 Q316.8594,503.125 316.625,503.3906 Q316.3906,503.6563 316.0156,503.6563 Q315.6719,503.6563 315.4688,503.4531 Q315.2656,503.2656 315.1563,502.75 Q315.1094,502.3906 314.9219,502.2031 Q314.5938,501.8281 313.9844,501.6094 Q313.375,501.3906 312.75,501.3906 Q311.9844,501.3906 311.3438,501.7188 Q310.7188,502.0469 310.2188,502.7969 Q309.7344,503.5469 309.7344,504.5781 L309.7344,505.6719 Q309.7344,506.9063 310.625,507.7344 Q311.5156,508.5469 313.1094,508.5469 Q314.0469,508.5469 314.7031,508.2969 Q315.0938,508.1406 315.5156,507.7031 Q315.7813,507.4375 315.9219,507.3594 Q316.0781,507.2813 316.2813,507.2813 Q316.6094,507.2813 316.8594,507.5469 Q317.125,507.7969 317.125,508.1406 Q317.125,508.4844 316.7813,508.8906 Q316.2813,509.4688 315.4844,509.7969 Q314.4063,510.25 313.1094,510.25 Q311.5938,510.25 310.3906,509.625 Q309.4063,509.125 308.7188,508.0625 Q308.0313,506.9844 308.0313,505.7031 L308.0313,504.5469 Q308.0313,503.2188 308.6406,502.0781 Q309.2656,500.9219 310.3594,500.3125 Q311.4531,499.6875 312.6875,499.6875 Q313.4219,499.6875 314.0625,499.8594 Q314.7188,500.0156 315.2656,500.375 Z " fill="#000000"/><text fill="#000000" font-family="sans-serif" font-size="14" lengthAdjust="spacing" textLength="113" x="326.5" y="510.2969">PersonRepository</text><line style="stroke:#181818;stroke-width:0.5;" x1="298.5" x2="441.5" y1="520.5" y2="520.5"/><line style="stroke:#181818;stroke-width:0.5;" x1="298.5" x2="441.5" y1="528.5" y2="528.5"/></g><!--class Person--><g id="elem_Person"><rect fill="#F1F1F1" height="48" id="Person" rx="2.5" ry="2.5" style="stroke:#181818;stroke-width:0.5;" width="77" x="30.5" y="488.5"/><ellipse cx="45.5" cy="504.5" fill="#ADD1B2" rx="11" ry="11" style="stroke:#181818;stroke-width:1.0;"/><path d="M48.2656,500.375 Q48.4219,500.1563 48.6094,500.0469 Q48.7969,499.9375 49.0156,499.9375 Q49.3906,499.9375 49.625,500.2031 Q49.8594,500.4531 49.8594,501.0625 L49.8594,502.5156 Q49.8594,503.125 49.625,503.3906 Q49.3906,503.6563 49.0156,503.6563 Q48.6719,503.6563 48.4688,503.4531 Q48.2656,503.2656 48.1563,502.75 Q48.1094,502.3906 47.9219,502.2031 Q47.5938,501.8281 46.9844,501.6094 Q46.375,501.3906 45.75,501.3906 Q44.9844,501.3906 44.3438,501.7188 Q43.7188,502.0469 43.2188,502.7969 Q42.7344,503.5469 42.7344,504.5781 L42.7344,505.6719 Q42.7344,506.9063 43.625,507.7344 Q44.5156,508.5469 46.1094,508.5469 Q47.0469,508.5469 47.7031,508.2969 Q48.0938,508.1406 48.5156,507.7031 Q48.7813,507.4375 48.9219,507.3594 Q49.0781,507.2813 49.2813,507.2813 Q49.6094,507.2813 49.8594,507.5469 Q50.125,507.7969 50.125,508.1406 Q50.125,508.4844 49.7813,508.8906 Q49.2813,509.4688 48.4844,509.7969 Q47.4063,510.25 46.1094,510.25 Q44.5938,510.25 43.3906,509.625 Q42.4063,509.125 41.7188,508.0625 Q41.0313,506.9844 41.0313,505.7031 L41.0313,504.5469 Q41.0313,503.2188 41.6406,502.0781 Q42.2656,500.9219 43.3594,500.3125 Q44.4531,499.6875 45.6875,499.6875 Q46.4219,499.6875 47.0625,499.8594 Q47.7188,500.0156 48.2656,500.375 Z " fill="#000000"/><text fill="#000000" font-family="sans-serif" font-size="14" lengthAdjust="spacing" textLength="45" x="59.5" y="510.2969">Person</text><line style="stroke:#181818;stroke-width:0.5;" x1="31.5" x2="106.5" y1="520.5" y2="520.5"/><line style="stroke:#181818;stroke-width:0.5;" x1="31.5" x2="106.5" y1="528.5" y2="528.5"/></g><!--link ScheduleVisitUI to ScheduleVisitController--><g id="link_ScheduleVisitUI_ScheduleVisitController"><path codeLine="193" d="M739,353.03 C739,371.93 739,390.72 739,408.39 " fill="none" id="ScheduleVisitUI-to-ScheduleVisitController" style="stroke:#181818;stroke-width:1.0;stroke-dasharray:7.0,7.0;"/><polygon fill="#181818" points="739,413.84,743,404.84,739,408.84,735,404.84,739,413.84" style="stroke:#181818;stroke-width:1.0;"/></g><!--link ScheduleVisitController to Repositories--><g id="link_ScheduleVisitController_Repositories"><path codeLine="195" d="M599.67,611.11 C575,628.39 557,641 557,641 C557,641 542.85,746.71 532.3,825.59 " fill="none" id="ScheduleVisitController-to-Repositories" style="stroke:#181818;stroke-width:1.0;stroke-dasharray:7.0,7.0;"/><polygon fill="#181818" points="531.61,830.75,536.7612,822.3557,532.2689,825.7936,528.831,821.3013,531.61,830.75" style="stroke:#181818;stroke-width:1.0;"/><text fill="#000000" font-family="sans-serif" font-size="13" lengthAdjust="spacing" textLength="67" x="558" y="726.5283">repositories</text></g><!--link Repositories to PropertyRepository--><g id="link_Repositories_PropertyRepository"><path codeLine="197" d="M624.53,967.53 C697.4,1006.62 782,1052 782,1052 C782,1052 790.27,1105.54 796.17,1143.77 " fill="none" id="Repositories-to-PropertyRepository" style="stroke:#181818;stroke-width:1.0;"/><polygon fill="#181818" points="796.95,1148.82,799.5143,1139.3108,796.179,1143.8798,791.61,1140.5445,796.95,1148.82" style="stroke:#181818;stroke-width:1.0;"/></g><!--link Repositories to SunExposureRepository--><g id="link_Repositories_SunExposureRepository"><path codeLine="198" d="M417.44,960.28 C348.51,992.42 260.73,1033.34 205.18,1059.24 " fill="none" id="Repositories-to-SunExposureRepository" style="stroke:#181818;stroke-width:1.0;"/><polygon fill="#181818" points="200.57,1061.39,210.4172,1061.2071,205.1006,1059.2748,207.0328,1053.9582,200.57,1061.39" style="stroke:#181818;stroke-width:1.0;"/></g><!--link Repositories to BusinessTypeRepository--><g id="link_Repositories_BusinessTypeRepository"><path codeLine="199" d="M453.06,991.18 C432.72,1014.9 411.76,1039.33 396.39,1057.24 " fill="none" id="Repositories-to-BusinessTypeRepository" style="stroke:#181818;stroke-width:1.0;"/><polygon fill="#181818" points="393,1061.19,401.902,1056.9764,396.261,1057.3998,395.8377,1051.7588,393,1061.19" style="stroke:#181818;stroke-width:1.0;"/></g><!--link Repositories to RequestRepository--><g id="link_Repositories_RequestRepository"><path codeLine="200" d="M511.78,991.24 C499.56,1096.38 478.46,1277.8 469.37,1355.92 " fill="none" id="Repositories-to-RequestRepository" style="stroke:#181818;stroke-width:1.0;"/><polygon fill="#181818" points="468.79,1360.92,473.7916,1352.4356,469.361,1355.9527,465.8439,1351.5221,468.79,1360.92" style="stroke:#181818;stroke-width:1.0;"/></g><!--reverse link PersonRepository to Repositories--><g id="link_PersonRepository_Repositories"><path codeLine="201" d="M380.6,541.34 C403.2,600.68 456.83,741.49 490.88,830.9 " fill="none" id="PersonRepository-backto-Repositories" style="stroke:#181818;stroke-width:1.0;"/><polygon fill="#181818" points="378.77,536.53,378.2473,546.365,380.5553,541.2004,385.7199,543.5085,378.77,536.53" style="stroke:#181818;stroke-width:1.0;"/></g><!--link Repositories to AdvertisementRepository--><g id="link_Repositories_AdvertisementRepository"><path codeLine="202" d="M588.94,991.18 C605.89,1010.94 623.27,1031.2 637.49,1047.77 " fill="none" id="Repositories-to-AdvertisementRepository" style="stroke:#181818;stroke-width:1.0;"/><polygon fill="#181818" points="641.03,1051.9,638.1923,1042.4688,637.769,1048.1098,632.128,1047.6864,641.03,1051.9" style="stroke:#181818;stroke-width:1.0;"/></g><!--link PropertyRepository to Property--><g id="link_PropertyRepository_Property"><path codeLine="204" d="M879.14,1209.28 C930.65,1226.5 989,1246 989,1246 C989,1246 1001,1458 1001,1458 C1001,1458 1024.34,1887.55 1033.43,2054.89 " fill="none" id="PropertyRepository-to-Property" style="stroke:#181818;stroke-width:1.0;"/><polygon fill="#181818" points="1033.73,2060.25,1037.2348,2051.0459,1033.4582,2055.2574,1029.2467,2051.4808,1033.73,2060.25" style="stroke:#181818;stroke-width:1.0;"/><text fill="#000000" font-family="sans-serif" font-size="13" lengthAdjust="spacing" textLength="5" x="1028.0628" y="2049.2023">*</text></g><!--link Property to PropertyType--><g id="link_Property_PropertyType"><path codeLine="205" d="M995.54,2182.57 C969.27,2220.65 935.8,2269.14 911.66,2304.12 " fill="none" id="Property-to-PropertyType" style="stroke:#181818;stroke-width:1.0;"/><polygon fill="#181818" points="908.76,2308.32,917.167,2303.1895,911.6023,2304.2065,910.5854,2298.6418,908.76,2308.32" style="stroke:#181818;stroke-width:1.0;"/><text fill="#000000" font-family="sans-serif" font-size="13" lengthAdjust="spacing" textLength="30" x="968" y="2237.0283">owns</text><text fill="#000000" font-family="sans-serif" font-size="13" lengthAdjust="spacing" textLength="7" x="983.0605" y="2205.0654">1</text><text fill="#000000" font-family="sans-serif" font-size="13" lengthAdjust="spacing" textLength="7" x="905.7858" y="2297.1954">1</text></g><!--link Property to Location--><g id="link_Property_Location"><path codeLine="206" d="M1044.66,2182.57 C1048.27,2210.94 1052.63,2245.1 1056.46,2275.14 " fill="none" id="Property-to-Location" style="stroke:#181818;stroke-width:1.0;"/><polygon fill="#181818" points="1057.12,2280.31,1059.9561,2270.8783,1056.491,2275.3497,1052.0196,2271.8847,1057.12,2280.31" style="stroke:#181818;stroke-width:1.0;"/><text fill="#000000" font-family="sans-serif" font-size="13" lengthAdjust="spacing" textLength="30" x="1052" y="2237.0283">owns</text><text fill="#000000" font-family="sans-serif" font-size="13" lengthAdjust="spacing" textLength="7" x="1038.167" y="2205.0654">1</text><text fill="#000000" font-family="sans-serif" font-size="13" lengthAdjust="spacing" textLength="7" x="1048.8433" y="2269.1814">1</text></g><!--reverse link Property to Land--><g id="link_Property_Land"><path codeLine="207" d="M1145.19,2174.33 C1234.63,2217.17 1347,2271 1347,2271 C1347,2271 1367.52,2303.42 1382.27,2326.72 " fill="none" id="Property-backto-Land" style="stroke:#181818;stroke-width:1.0;"/><polygon fill="none" points="1142.09,2180.61,1127.08,2165.65,1148.14,2167.98,1142.09,2180.61" style="stroke:#181818;stroke-width:1.0;"/></g><!--reverse link Property to Apartment--><g id="link_Property_Apartment"><path codeLine="208" d="M929.24,2179.25 C849.62,2221.18 755,2271 755,2271 C755,2271 743.75,2279.01 728.41,2289.92 " fill="none" id="Property-backto-Apartment" style="stroke:#181818;stroke-width:1.0;"/><polygon fill="none" points="926.04,2173.02,947,2169.89,932.56,2185.41,926.04,2173.02" style="stroke:#181818;stroke-width:1.0;"/></g><!--reverse link Property to House--><g id="link_Property_House"><path codeLine="209" d="M1103.3,2197.91 C1123.84,2221.28 1146.53,2247.09 1167.29,2270.71 " fill="none" id="Property-backto-House" style="stroke:#181818;stroke-width:1.0;"/><polygon fill="none" points="1097.76,2202.21,1089.81,2182.57,1108.27,2192.97,1097.76,2202.21" style="stroke:#181818;stroke-width:1.0;"/></g><!--reverse link House to SunExposure--><g id="link_House_SunExposure"><path codeLine="210" d="M1237,2436.17 C1237,2465.31 1237,2496.28 1237,2518.77 " fill="none" id="House-backto-SunExposure" style="stroke:#181818;stroke-width:1.0;"/><polygon fill="#181818" points="1237,2431.13,1233,2440.13,1237,2436.13,1241,2440.13,1237,2431.13" style="stroke:#181818;stroke-width:1.0;"/></g><!--link SunExposure to SunExposureType--><g id="link_SunExposure_SunExposureType"><path codeLine="211" d="M1237,2586.18 C1237,2605.6 1237,2630.32 1237,2650.6 " fill="none" id="SunExposure-to-SunExposureType" style="stroke:#181818;stroke-width:1.0;"/><polygon fill="#181818" points="1237,2655.65,1241,2646.65,1237,2650.65,1233,2646.65,1237,2655.65" style="stroke:#181818;stroke-width:1.0;"/><text fill="#000000" font-family="sans-serif" font-size="13" lengthAdjust="spacing" textLength="5" x="1231.5234" y="2644.6692">*</text></g><!--link RequestRepository to Request--><g id="link_RequestRepository_Request"><path codeLine="213" d="M462.38,1428.21 C461.17,1443.34 460,1458 460,1458 C460,1458 446,2002 446,2002 C446,2002 446,2021 446,2021 C446,2021 471.95,2055.43 493.33,2083.79 " fill="none" id="RequestRepository-to-Request" style="stroke:#181818;stroke-width:1.0;"/><polygon fill="#181818" points="496.44,2087.92,494.2016,2078.3289,493.424,2083.932,487.8209,2083.1545,496.44,2087.92" style="stroke:#181818;stroke-width:1.0;"/><text fill="#000000" font-family="sans-serif" font-size="13" lengthAdjust="spacing" textLength="5" x="486.1126" y="2076.7298">*</text></g><!--link Request to BusinessType--><g id="link_Request_BusinessType"><path codeLine="214" d="M508.82,2155.1 C494.29,2193.98 469.9,2259.26 453.39,2303.45 " fill="none" id="Request-to-BusinessType" style="stroke:#181818;stroke-width:1.0;"/><polygon fill="#181818" points="451.62,2308.19,458.5254,2301.1675,453.3756,2303.5084,451.0348,2298.3585,451.62,2308.19" style="stroke:#181818;stroke-width:1.0;"/><text fill="#000000" font-family="sans-serif" font-size="13" lengthAdjust="spacing" textLength="72" x="484" y="2237.0283">is classified:</text><text fill="#000000" font-family="sans-serif" font-size="13" lengthAdjust="spacing" textLength="5" x="501.2051" y="2176.687">*</text><text fill="#000000" font-family="sans-serif" font-size="13" lengthAdjust="spacing" textLength="7" x="446.4759" y="2297.3652">1</text></g><!--link Request to Property--><g id="link_Request_Property"><path codeLine="215" d="M563.67,2121.5 C646.02,2121.5 828.72,2121.5 941.51,2121.5 " fill="none" id="Request-to-Property" style="stroke:#181818;stroke-width:1.0;"/><polygon fill="#181818" points="946.83,2121.5,937.83,2117.5,941.83,2121.5,937.83,2125.5,946.83,2121.5" style="stroke:#181818;stroke-width:1.0;"/><text fill="#000000" font-family="sans-serif" font-size="13" lengthAdjust="spacing" textLength="45" x="732.75" y="2114.5283">include:</text><text fill="#000000" font-family="sans-serif" font-size="13" lengthAdjust="spacing" textLength="7" x="571.6055" y="2117.125">1</text><text fill="#000000" font-family="sans-serif" font-size="13" lengthAdjust="spacing" textLength="7" x="932.073" y="2117.8164">1</text></g><!--link BusinessType to BusinessTypeRent--><g id="link_BusinessType_BusinessTypeRent"><path codeLine="216" d="M416.71,2393.82 C401.75,2426.27 381.01,2471.25 365.51,2504.86 " fill="none" id="BusinessType-to-BusinessTypeRent" style="stroke:#181818;stroke-width:1.0;"/><polygon fill="#181818" points="363.26,2509.73,370.675,2503.2479,365.3635,2505.194,363.4174,2499.8824,363.26,2509.73" style="stroke:#181818;stroke-width:1.0;"/><text fill="#000000" font-family="sans-serif" font-size="13" lengthAdjust="spacing" textLength="43" x="385" y="2476.0283">can be:</text></g><!--link BusinessType to BusinessTypeSale--><g id="link_BusinessType_BusinessTypeSale"><path codeLine="217" d="M455.5,2393.82 C472.05,2429.32 495.58,2479.81 511.53,2514.01 " fill="none" id="BusinessType-to-BusinessTypeSale" style="stroke:#181818;stroke-width:1.0;"/><polygon fill="#181818" points="513.82,2518.94,513.6371,2509.0928,511.7048,2514.4094,506.3882,2512.4772,513.82,2518.94" style="stroke:#181818;stroke-width:1.0;"/><text fill="#000000" font-family="sans-serif" font-size="13" lengthAdjust="spacing" textLength="43" x="494" y="2476.0283">can be:</text></g><!--link AdvertisementRepository to Advertisement--><g id="link_AdvertisementRepository_Advertisement"><path codeLine="219" d="M665.07,1119.35 C657.6,1181.91 640.68,1323.43 625.23,1452.72 " fill="none" id="AdvertisementRepository-to-Advertisement" style="stroke:#181818;stroke-width:1.0;"/><polygon fill="#181818" points="624.63,1457.7,629.6584,1449.2315,625.2167,1452.7345,621.7137,1448.2928,624.63,1457.7" style="stroke:#181818;stroke-width:1.0;"/><text fill="#000000" font-family="sans-serif" font-size="13" lengthAdjust="spacing" textLength="5" x="620.4651" y="1446.8487">*</text></g><!--link AdvertisementRepository to AdvertisementMapper--><g id="link_AdvertisementRepository_AdvertisementMapper"><path codeLine="220" d="M678.84,1119.18 C690.39,1157.54 708,1216 708,1216 C708,1216 728.91,1228.57 753.21,1243.16 " fill="none" id="AdvertisementRepository-to-AdvertisementMapper" style="stroke:#181818;stroke-width:1.0;stroke-dasharray:7.0,7.0;"/><polygon fill="#181818" points="757.78,1245.91,752.1205,1237.8496,753.4925,1243.3375,748.0046,1244.7095,757.78,1245.91" style="stroke:#181818;stroke-width:1.0;"/><text fill="#000000" font-family="sans-serif" font-size="13" lengthAdjust="spacing" textLength="5" x="741.3496" y="1234.7997">*</text></g><!--link AdvertisementMapper to AdvertisementDTO--><g id="link_AdvertisementMapper_AdvertisementDTO"><path codeLine="221" d="M830.75,1331.36 C834.17,1369.61 839.52,1429.35 844.98,1490.34 " fill="none" id="AdvertisementMapper-to-AdvertisementDTO" style="stroke:#181818;stroke-width:1.0;stroke-dasharray:7.0,7.0;"/><polygon fill="#181818" points="845.44,1495.49,848.628,1486.1714,844.9976,1490.5096,840.6594,1486.8792,845.44,1495.49" style="stroke:#181818;stroke-width:1.0;"/></g><!--link AdvertisementMapper to Advertisement--><g id="link_AdvertisementMapper_Advertisement"><path codeLine="222" d="M802.78,1331.15 C773.75,1381.05 729,1458 729,1458 C729,1458 723.01,1469.36 713.55,1487.3 " fill="none" id="AdvertisementMapper-to-Advertisement" style="stroke:#181818;stroke-width:1.0;stroke-dasharray:7.0,7.0;"/><polygon fill="#181818" points="711.07,1491.99,718.8071,1485.8959,713.4029,1487.5676,711.7312,1482.1634,711.07,1491.99" style="stroke:#181818;stroke-width:1.0;"/></g><!--link ScheduleVisitController to AdvertisementCollections--><g id="link_ScheduleVisitController_AdvertisementCollections"><path codeLine="224" d="M793.3,611.01 C798.01,619.46 802.75,627.97 807.39,636.31 " fill="none" id="ScheduleVisitController-to-AdvertisementCollections" style="stroke:#181818;stroke-width:1.0;stroke-dasharray:7.0,7.0;"/><polygon fill="#181818" points="809.96,640.92,809.0858,631.11,807.5318,636.5492,802.0926,634.9952,809.96,640.92" style="stroke:#181818;stroke-width:1.0;"/></g><!--link AdvertisementCollections to AdvertisementMapper--><g id="link_AdvertisementCollections_AdvertisementMapper"><path codeLine="225" d="M858.83,801.31 C866.35,924.8 880,1149 880,1149 C880,1149 880,1216 880,1216 C880,1216 871.37,1227.64 861.07,1241.54 " fill="none" id="AdvertisementCollections-to-AdvertisementMapper" style="stroke:#181818;stroke-width:1.0;stroke-dasharray:7.0,7.0;"/><polygon fill="#181818" points="857.83,1245.91,866.3996,1241.056,860.8048,1241.8912,859.9695,1236.2963,857.83,1245.91" style="stroke:#181818;stroke-width:1.0;"/></g><!--link Advertisement to Request--><g id="link_Advertisement_Request"><path codeLine="227" d="M548.62,1972.33 C543.45,2001.49 540,2021 540,2021 C540,2021 533.59,2054.59 528.21,2082.74 " fill="none" id="Advertisement-to-Request" style="stroke:#181818;stroke-width:1.0;"/><polygon fill="#181818" points="527.22,2087.92,532.8442,2079.8349,528.1621,2083.0096,524.9875,2078.3275,527.22,2087.92" style="stroke:#181818;stroke-width:1.0;"/><text fill="#000000" font-family="sans-serif" font-size="13" lengthAdjust="spacing" textLength="45" x="543" y="2017.0283">include:</text><text fill="#000000" font-family="sans-serif" font-size="13" lengthAdjust="spacing" textLength="7" x="540.3216" y="1993.4296">1</text><text fill="#000000" font-family="sans-serif" font-size="13" lengthAdjust="spacing" textLength="7" x="520.7555" y="2076.7298">1</text></g><!--reverse link Person to PersonRepository--><g id="link_Person_PersonRepository"><path codeLine="229" d="M112.52,512.5 C139.61,512.5 169.33,512.5 169.33,512.5 C169.33,512.5 269.67,512.5 269.67,512.5 C269.67,512.5 281.66,512.5 297.35,512.5 " fill="none" id="Person-backto-PersonRepository" style="stroke:#181818;stroke-width:1.0;"/><polygon fill="#181818" points="107.5,512.5,116.5,516.5,112.5,512.5,116.5,508.5,107.5,512.5" style="stroke:#181818;stroke-width:1.0;"/><text fill="#000000" font-family="sans-serif" font-size="13" lengthAdjust="spacing" textLength="5" x="115.5719" y="507.8835">*</text></g><!--link Advertisement to Visit--><g id="link_Advertisement_Visit"><path codeLine="231" d="M476.96,1834.36 C406.46,1905.65 319.24,1993.85 260.42,2053.33 " fill="none" id="Advertisement-to-Visit" style="stroke:#181818;stroke-width:1.0;"/><polygon fill="#181818" points="256.59,2057.21,265.7681,2053.6374,260.1112,2053.6602,260.0884,2048.0034,256.59,2057.21" style="stroke:#181818;stroke-width:1.0;"/><text fill="#000000" font-family="sans-serif" font-size="13" lengthAdjust="spacing" textLength="40" x="303" y="2017.0283">allows:</text><text fill="#000000" font-family="sans-serif" font-size="13" lengthAdjust="spacing" textLength="7" x="461.8612" y="1838.8624">1</text><text fill="#000000" font-family="sans-serif" font-size="13" lengthAdjust="spacing" textLength="5" x="264.5228" y="2045.3783">*</text></g><!--link Person to Visit--><g id="link_Person_Visit"><path codeLine="233" d="M65.34,536.53 C51.89,621.15 6,910 6,910 C6,910 6,910 6,1716 C6,1716 105.16,1929.36 159.45,2046.16 " fill="none" id="Person-to-Visit" style="stroke:#181818;stroke-width:1.0;"/><polygon fill="#181818" points="161.68,2050.96,161.4971,2041.1128,159.5648,2046.4294,154.2482,2044.4972,161.68,2050.96" style="stroke:#181818;stroke-width:1.0;"/><text fill="#000000" font-family="sans-serif" font-size="13" lengthAdjust="spacing" textLength="43" x="7" y="1188.0283">makes:</text><text fill="#000000" font-family="sans-serif" font-size="13" lengthAdjust="spacing" textLength="5" x="58.8385" y="558.523">*</text><text fill="#000000" font-family="sans-serif" font-size="13" lengthAdjust="spacing" textLength="5" x="153.0892" y="2039.8469">*</text></g><!--SRC=[jLXBRziu4BxhLn2vnDtOnUPgBm8uSHODa1SYfujT55ZG4cKJaKMLf9frtVptdQ4eYTIZ3WeuXqIS5ycPRuOpELKlFCkff5ko5Pc8Db9i6T6oO473oMdqGjSirBkK4SaYJRDrwWge3Ot5Ay_M9A6fSZafpvZUvOpa8jtX8ZZjOGgfHU1eHIbLQgwrvAj2ivj8P27_piZlGN2QiaGJBOZawuqcCSVZS945WT4XORHXSP6oprnn_Nn3zi64F4gHCwbtIzpgXR7S9Lnj18_O3CGk2mNdKQeMSmcD6C-quVxDg7JNToBJ6vUme3jt-KaKHduUVuEzkM9R1XpghifDsZABvOCl1eHQqjoJVCFVbdP68icePhuhhk1qKgGfawCF899ofUTP32f2CTSTNQxh1PUxu2fFwOvMSkqpZ_ezFHvmBLfUCrrPiKPkOQyGqC7YNp0NboTqJQeHk58PZw1fs65CVjam-3Jc23urLozB0Sk4o-se9tYHKJNRcYsTg7q8tW3L_nxffpSj6YoOz7XYkG2ga9mfoEvcCNDofnRQaRn3cXahNmkcj2CdsvGE-XrXsa-VbQYuoHJKdAZ47wpTS64SAxeRBfVkGg0nFZgsxwtpFGUtFLuTiRaYcNe2_eszqtVktELsml8EbnmTZTtBxFrRsjYz1L0ycKnen6eTuy1O52juYYWKkbcpXBGqBaJIhOWefYP9xOSXWi0V8RmgsVg2v1kXnLhIV0D0VxCdkuLojgzNStYDD3feNzRnAScAxOh9InPB8RRAfpvI2G_OkYLAzQQIBNUU4lgDyfJ2YQ-_5Zn7-_MEy4WeTlJT9cGbHCfeDYKhMgQSIzlG5TUeSIiIF1e3uoGiikl_85o5PEQ1t3jRt4E5ten9A0hySqsL7fE_07NrjHnbOaFTibVcejd9Uwv1d4nkv_SBSaRcZ_EdvTtr_HA-FpqyXzV0YfcA9CzD2m066hpK0C23AYqPmpj-v_cLY9aXmHlv7C9NnFKEGGJWa3pIHqs0gY2qadBl9MkDVayQxx70Tps6NmrYtVJV3rP16qIlnK7Nma_BXLshJsK2b4asbR2YwQCqxGT2BowaSRHvLMYaUss4D6LDuauLB4iJntVsq8kpz-kWORSyxxTg- -QLCxs1_PuTwZ0FzfQk1KzxzgvIXmrcNwNeAnI3TUAdPQAdIa1TJN3fPhOgiiPUdN9s3PddCW73pT9ce5tLYJXSi1j7D4YgIOZGYeHNHe2Q6U4XgJ7gfLAvJzcKLOk7966o7mXtD8Ve87oqm3wttT3Z0vl060KyBUQBlduGVW-W33XesLu5mJ0taVT8JVJF3a7lx13qpke1vTx3KCNnG4HyQWqZGny4ak5Ujg3a4H5CfGqVJgvTF69eGDKY_iFpZfY9gqUxudhN8Yqiq93i8SsuqMqFFE-75UHQzASATwvJ5xOwDjX3hW5VEIEMjRmF2bVOeXlWgls1uUXBDigx4yogTtWffyDxzbfQcwVfJPO8kJN7D0KG9YJyEoPTcr-oCUatg-0WyxYUh2vtUBMHEspPnlCpappP6UgIRzcV4D6HDo6DdS6eT8iXsww8x63kjfzcvBRVC6tRBnoqdTgISl3MzHP02GRR_nxu68lNxEF5q7mK14E3KwNeTkfJRteA0g_ldw32vAAdz-sNSpBXa6Z_1D0lssazMc95ZcTaKediaAc1XpK8UcR6IkVajvFQ0xKSEJa_QIJEJxoQDYL0LyEoLPzdvR21DxVuqRWwgFlu3iVqsnsgMuLAZnWvdsvlq-fZCUhjGTYzlELMKeRctSSDvfHmLVulZ2USnTD6wnorV6U1S1QbHSocWLVo-r62CqE4vVWzubZn6l5WgADox-d936fKMTJHAD_Oe8TMwxIVpVSB_oIhBmPBS334w2ZPi_iA62g030RC1j69Lz1EE3B1VtDM-MAO_VPGm5m2vhmq5Q-gDcPKAv1QaIrzWIeL_0y0]--></g></svg>