<?xml version="1.0" encoding="us-ascii" standalone="no"?><svg xmlns="http://www.w3.org/2000/svg" xmlns:xlink="http://www.w3.org/1999/xlink" contentStyleType="text/css" height="1376px" preserveAspectRatio="none" style="width:1021px;height:1376px;background:#FFFFFF;" version="1.1" viewBox="0 0 1021 1376" width="1021px" zoomAndPan="magnify"><defs/><g><text fill="#000000" font-family="sans-serif" font-size="14" font-weight="bold" lengthAdjust="spacing" textLength="568" x="228.5" y="27.6738">System Sequence Diagram Parcial Get AdvertismentDTOList Sorted By Date (SSD)</text><rect fill="#FFFFFF" height="1210.4375" style="stroke:#181818;stroke-width:1.0;" width="10" x="82.5" y="97.9219"/><rect fill="#FFFFFF" height="28.5234" style="stroke:#181818;stroke-width:1.0;" width="10" x="299.5" y="118.4453"/><rect fill="#FFFFFF" height="1062.8203" style="stroke:#181818;stroke-width:1.0;" width="10" x="443" y="245.5391"/><rect fill="#FFFFFF" height="70.0469" style="stroke:#181818;stroke-width:1.0;" width="10" x="850" y="175.4922"/><rect fill="none" height="881.2031" style="stroke:#000000;stroke-width:1.5;" width="552" x="323" y="302.0625"/><rect fill="none" height="767.6328" style="stroke:#000000;stroke-width:1.5;" width="532" x="333" y="408.6328"/><rect fill="none" height="727.5313" style="stroke:#000000;stroke-width:1.5;" width="512" x="343" y="441.7344"/><rect fill="none" height="113.8594" style="stroke:#000000;stroke-width:1.5;" width="459" x="353" y="593.9219"/><rect fill="none" height="113.8594" style="stroke:#000000;stroke-width:1.5;" width="459" x="353" y="835.6875"/><rect fill="none" height="113.8594" style="stroke:#000000;stroke-width:1.5;" width="459" x="353" y="1048.4063"/><line style="stroke:#181818;stroke-width:0.5;stroke-dasharray:5.0,5.0;" x1="87" x2="87" y1="87.9219" y2="1326.3594"/><line style="stroke:#181818;stroke-width:0.5;stroke-dasharray:5.0,5.0;" x1="304" x2="304" y1="87.9219" y2="1326.3594"/><line style="stroke:#181818;stroke-width:0.5;stroke-dasharray:5.0,5.0;" x1="448" x2="448" y1="87.9219" y2="1326.3594"/><line style="stroke:#181818;stroke-width:0.5;stroke-dasharray:5.0,5.0;" x1="855" x2="855" y1="87.9219" y2="1326.3594"/><rect fill="#E3E3E3" height="29.6406" rx="2.5" ry="2.5" style="stroke:#181818;stroke-width:0.5;" width="165" x="5" y="57.2813"/><text fill="#000000" font-family="sans-serif" font-size="14" lengthAdjust="spacing" textLength="151" x="12" y="76.9551">:ScheduleVisitController</text><rect fill="#E3E3E3" height="29.6406" rx="2.5" ry="2.5" style="stroke:#181818;stroke-width:0.5;" width="165" x="5" y="1325.3594"/><text fill="#000000" font-family="sans-serif" font-size="14" lengthAdjust="spacing" textLength="151" x="12" y="1345.0332">:ScheduleVisitController</text><rect fill="#E3E3E3" height="45.2813" rx="2.5" ry="2.5" style="stroke:#181818;stroke-width:0.5;" width="97" x="256" y="41.6406"/><text fill="#000000" font-family="sans-serif" font-size="14" lengthAdjust="spacing" textLength="74" x="267.5" y="61.3145">repositories</text><text fill="#000000" font-family="sans-serif" font-size="14" lengthAdjust="spacing" textLength="83" x="263" y="76.9551">:Repositories</text><rect fill="#E3E3E3" height="45.2813" rx="2.5" ry="2.5" style="stroke:#181818;stroke-width:0.5;" width="97" x="256" y="1325.3594"/><text fill="#000000" font-family="sans-serif" font-size="14" lengthAdjust="spacing" textLength="74" x="267.5" y="1345.0332">repositories</text><text fill="#000000" font-family="sans-serif" font-size="14" lengthAdjust="spacing" textLength="83" x="263" y="1360.6738">:Repositories</text><rect fill="#E3E3E3" height="45.2813" rx="2.5" ry="2.5" style="stroke:#181818;stroke-width:0.5;" width="170" x="363" y="41.6406"/><text fill="#000000" font-family="sans-serif" font-size="14" lengthAdjust="spacing" textLength="151" x="372.5" y="61.3145">advertisementCollection</text><text fill="#000000" font-family="sans-serif" font-size="14" lengthAdjust="spacing" textLength="156" x="370" y="76.9551">:AdvertisementCollection</text><rect fill="#E3E3E3" height="45.2813" rx="2.5" ry="2.5" style="stroke:#181818;stroke-width:0.5;" width="170" x="363" y="1325.3594"/><text fill="#000000" font-family="sans-serif" font-size="14" lengthAdjust="spacing" textLength="151" x="372.5" y="1345.0332">advertisementCollection</text><text fill="#000000" font-family="sans-serif" font-size="14" lengthAdjust="spacing" textLength="156" x="370" y="1360.6738">:AdvertisementCollection</text><rect fill="#E3E3E3" height="45.2813" rx="2.5" ry="2.5" style="stroke:#181818;stroke-width:0.5;" width="176" x="767" y="41.6406"/><text fill="#000000" font-family="sans-serif" font-size="14" lengthAdjust="spacing" textLength="157" x="776.5" y="61.3145">advertisementRepository</text><text fill="#000000" font-family="sans-serif" font-size="14" lengthAdjust="spacing" textLength="162" x="774" y="76.9551">:AdvertisementRepository</text><rect fill="#E3E3E3" height="45.2813" rx="2.5" ry="2.5" style="stroke:#181818;stroke-width:0.5;" width="176" x="767" y="1325.3594"/><text fill="#000000" font-family="sans-serif" font-size="14" lengthAdjust="spacing" textLength="157" x="776.5" y="1345.0332">advertisementRepository</text><text fill="#000000" font-family="sans-serif" font-size="14" lengthAdjust="spacing" textLength="162" x="774" y="1360.6738">:AdvertisementRepository</text><rect fill="#FFFFFF" height="1210.4375" style="stroke:#181818;stroke-width:1.0;" width="10" x="82.5" y="97.9219"/><rect fill="#FFFFFF" height="28.5234" style="stroke:#181818;stroke-width:1.0;" width="10" x="299.5" y="118.4453"/><rect fill="#FFFFFF" height="1062.8203" style="stroke:#181818;stroke-width:1.0;" width="10" x="443" y="245.5391"/><rect fill="#FFFFFF" height="70.0469" style="stroke:#181818;stroke-width:1.0;" width="10" x="850" y="175.4922"/><polygon fill="#181818" points="287.5,114.4453,297.5,118.4453,287.5,122.4453,291.5,118.4453" style="stroke:#181818;stroke-width:1.0;"/><line style="stroke:#181818;stroke-width:1.0;" x1="92.5" x2="293.5" y1="118.4453" y2="118.4453"/><text fill="#000000" font-family="sans-serif" font-size="13" font-weight="bold" lengthAdjust="spacing" textLength="14" x="99.5" y="113.6904">24</text><text fill="#000000" font-family="sans-serif" font-size="13" lengthAdjust="spacing" textLength="170" x="117.5" y="113.6904">getAdvertisementRepository()</text><polygon fill="#181818" points="103.5,142.9688,93.5,146.9688,103.5,150.9688,99.5,146.9688" style="stroke:#181818;stroke-width:1.0;"/><line style="stroke:#181818;stroke-width:1.0;" x1="97.5" x2="303.5" y1="146.9688" y2="146.9688"/><text fill="#000000" font-family="sans-serif" font-size="13" font-weight="bold" lengthAdjust="spacing" textLength="14" x="109.5" y="142.2139">25</text><text fill="#000000" font-family="sans-serif" font-size="13" lengthAdjust="spacing" textLength="142" x="127.5" y="142.2139">advertisementRepository</text><polygon fill="#181818" points="838,171.4922,848,175.4922,838,179.4922,842,175.4922" style="stroke:#181818;stroke-width:1.0;"/><line style="stroke:#181818;stroke-width:1.0;" x1="92.5" x2="844" y1="175.4922" y2="175.4922"/><text fill="#000000" font-family="sans-serif" font-size="13" font-weight="bold" lengthAdjust="spacing" textLength="14" x="99.5" y="170.7373">26</text><text fill="#000000" font-family="sans-serif" font-size="13" lengthAdjust="spacing" textLength="489" x="117.5" y="170.7373">getAdvertismentDTOListSorted(keepPropertyTypeChoice, keepBusinessTypeChoice)</text><line style="stroke:#181818;stroke-width:1.0;" x1="860" x2="902" y1="204.0156" y2="204.0156"/><line style="stroke:#181818;stroke-width:1.0;" x1="902" x2="902" y1="204.0156" y2="217.0156"/><line style="stroke:#181818;stroke-width:1.0;" x1="861" x2="902" y1="217.0156" y2="217.0156"/><polygon fill="#181818" points="871,213.0156,861,217.0156,871,221.0156,867,217.0156" style="stroke:#181818;stroke-width:1.0;"/><text fill="#000000" font-family="sans-serif" font-size="13" font-weight="bold" lengthAdjust="spacing" textLength="14" x="867" y="199.2607">27</text><text fill="#000000" font-family="sans-serif" font-size="13" lengthAdjust="spacing" textLength="129" x="885" y="199.2607">getAdvertisementList()</text><polygon fill="#181818" points="464,241.5391,454,245.5391,464,249.5391,460,245.5391" style="stroke:#181818;stroke-width:1.0;"/><line style="stroke:#181818;stroke-width:1.0;" x1="458" x2="854" y1="245.5391" y2="245.5391"/><text fill="#000000" font-family="sans-serif" font-size="13" font-weight="bold" lengthAdjust="spacing" textLength="14" x="470" y="240.7842">28</text><text fill="#000000" font-family="sans-serif" font-size="13" lengthAdjust="spacing" textLength="274" x="488" y="240.7842">createAdvertisementDTOList(advertisementList)</text><line style="stroke:#181818;stroke-width:1.0;" x1="453" x2="495" y1="274.0625" y2="274.0625"/><line style="stroke:#181818;stroke-width:1.0;" x1="495" x2="495" y1="274.0625" y2="287.0625"/><line style="stroke:#181818;stroke-width:1.0;" x1="454" x2="495" y1="287.0625" y2="287.0625"/><polygon fill="#181818" points="464,283.0625,454,287.0625,464,291.0625,460,287.0625" style="stroke:#181818;stroke-width:1.0;"/><text fill="#000000" font-family="sans-serif" font-size="13" font-weight="bold" lengthAdjust="spacing" textLength="14" x="460" y="269.3076">29</text><text fill="#000000" font-family="sans-serif" font-size="13" lengthAdjust="spacing" textLength="173" x="478" y="269.3076">createAdvertisementDTOList()</text><path d="M323,302.0625 L396,302.0625 L396,308.5859 L386,318.5859 L323,318.5859 L323,302.0625 " fill="#EEEEEE" style="stroke:#000000;stroke-width:1.5;"/><rect fill="none" height="881.2031" style="stroke:#000000;stroke-width:1.5;" width="552" x="323" y="302.0625"/><text fill="#000000" font-family="sans-serif" font-size="13" font-weight="bold" lengthAdjust="spacing" textLength="28" x="338" y="314.8311">loop</text><text fill="#000000" font-family="sans-serif" font-size="11" font-weight="bold" lengthAdjust="spacing" textLength="216" x="411" y="314.0205">[(for each object in advertisementList)]</text><line style="stroke:#181818;stroke-width:1.0;" x1="453" x2="495" y1="339.1094" y2="339.1094"/><line style="stroke:#181818;stroke-width:1.0;" x1="495" x2="495" y1="339.1094" y2="352.1094"/><line style="stroke:#181818;stroke-width:1.0;" x1="454" x2="495" y1="352.1094" y2="352.1094"/><polygon fill="#181818" points="464,348.1094,454,352.1094,464,356.1094,460,352.1094" style="stroke:#181818;stroke-width:1.0;"/><text fill="#000000" font-family="sans-serif" font-size="13" font-weight="bold" lengthAdjust="spacing" textLength="14" x="460" y="334.3545">30</text><text fill="#000000" font-family="sans-serif" font-size="13" lengthAdjust="spacing" textLength="127" x="478" y="334.3545">Advertisement = get(i)</text><line style="stroke:#181818;stroke-width:1.0;" x1="453" x2="495" y1="380.6328" y2="380.6328"/><line style="stroke:#181818;stroke-width:1.0;" x1="495" x2="495" y1="380.6328" y2="393.6328"/><line style="stroke:#181818;stroke-width:1.0;" x1="454" x2="495" y1="393.6328" y2="393.6328"/><polygon fill="#181818" points="464,389.6328,454,393.6328,464,397.6328,460,393.6328" style="stroke:#181818;stroke-width:1.0;"/><text fill="#000000" font-family="sans-serif" font-size="13" font-weight="bold" lengthAdjust="spacing" textLength="14" x="460" y="375.8779">31</text><text fill="#000000" font-family="sans-serif" font-size="13" lengthAdjust="spacing" textLength="324" x="478" y="375.8779">getDataFromAdvertisement(propertyType,businessType)</text><path d="M333,408.6328 L394,408.6328 L394,415.1563 L384,425.1563 L333,425.1563 L333,408.6328 " fill="#EEEEEE" style="stroke:#000000;stroke-width:1.5;"/><rect fill="none" height="767.6328" style="stroke:#000000;stroke-width:1.5;" width="532" x="333" y="408.6328"/><text fill="#000000" font-family="sans-serif" font-size="13" font-weight="bold" lengthAdjust="spacing" textLength="16" x="348" y="421.4014">alt</text><text fill="#000000" font-family="sans-serif" font-size="11" font-weight="bold" lengthAdjust="spacing" textLength="236" x="409" y="420.5908">[(propertyType = keepPropertyTypeChoice</text><text fill="#000000" font-family="sans-serif" font-size="11" font-weight="bold" lengthAdjust="spacing" textLength="255" x="409" y="432.8799">&amp;&amp; propertyType = keepPropertyTypeChoice)]</text><path d="M343,441.7344 L404,441.7344 L404,448.2578 L394,458.2578 L343,458.2578 L343,441.7344 " fill="#EEEEEE" style="stroke:#000000;stroke-width:1.5;"/><rect fill="none" height="727.5313" style="stroke:#000000;stroke-width:1.5;" width="512" x="343" y="441.7344"/><text fill="#000000" font-family="sans-serif" font-size="13" font-weight="bold" lengthAdjust="spacing" textLength="16" x="358" y="454.5029">alt</text><text fill="#000000" font-family="sans-serif" font-size="11" font-weight="bold" lengthAdjust="spacing" textLength="127" x="419" y="453.6924">[propertyType= HOUSE]</text><line style="stroke:#181818;stroke-width:1.0;" x1="453" x2="495" y1="565.9219" y2="565.9219"/><line style="stroke:#181818;stroke-width:1.0;" x1="495" x2="495" y1="565.9219" y2="578.9219"/><line style="stroke:#181818;stroke-width:1.0;" x1="454" x2="495" y1="578.9219" y2="578.9219"/><polygon fill="#181818" points="464,574.9219,454,578.9219,464,582.9219,460,578.9219" style="stroke:#181818;stroke-width:1.0;"/><text fill="#000000" font-family="sans-serif" font-size="13" font-weight="bold" lengthAdjust="spacing" textLength="14" x="460" y="517.5967">32</text><text fill="#000000" font-family="sans-serif" font-size="13" lengthAdjust="spacing" textLength="240" x="478" y="474.0264">getDataFromAdvertisement(propertyType,</text><text fill="#000000" font-family="sans-serif" font-size="13" lengthAdjust="spacing" textLength="148" x="478" y="488.5498">area cms. Distance Kms,</text><text fill="#000000" font-family="sans-serif" font-size="13" lengthAdjust="spacing" textLength="274" x="482" y="503.0732">location(street, zipcode, stateUS, city, district),</text><text fill="#000000" font-family="sans-serif" font-size="13" lengthAdjust="spacing" textLength="201" x="478" y="517.5967">numberBedrooms, numberParking,</text><text fill="#000000" font-family="sans-serif" font-size="13" lengthAdjust="spacing" textLength="114" x="478" y="532.1201">,numberBathrooms,</text><text fill="#000000" font-family="sans-serif" font-size="13" lengthAdjust="spacing" textLength="242" x="478" y="546.6436">availableEquipment, basement (YES/NO),</text><text fill="#000000" font-family="sans-serif" font-size="13" lengthAdjust="spacing" textLength="350" x="482" y="561.167">habitable loft (YES/NO), Sun Exposure Type choice, photos)</text><path d="M353,593.9219 L414,593.9219 L414,600.4453 L404,610.4453 L353,610.4453 L353,593.9219 " fill="#EEEEEE" style="stroke:#000000;stroke-width:1.5;"/><rect fill="none" height="113.8594" style="stroke:#000000;stroke-width:1.5;" width="459" x="353" y="593.9219"/><text fill="#000000" font-family="sans-serif" font-size="13" font-weight="bold" lengthAdjust="spacing" textLength="16" x="368" y="606.6904">alt</text><text fill="#000000" font-family="sans-serif" font-size="11" font-weight="bold" lengthAdjust="spacing" textLength="124" x="429" y="605.8799">[businessType= SALE]</text><line style="stroke:#181818;stroke-width:1.0;" x1="453" x2="495" y1="630.9688" y2="630.9688"/><line style="stroke:#181818;stroke-width:1.0;" x1="495" x2="495" y1="630.9688" y2="643.9688"/><line style="stroke:#181818;stroke-width:1.0;" x1="454" x2="495" y1="643.9688" y2="643.9688"/><polygon fill="#181818" points="464,639.9688,454,643.9688,464,647.9688,460,643.9688" style="stroke:#181818;stroke-width:1.0;"/><text fill="#000000" font-family="sans-serif" font-size="13" font-weight="bold" lengthAdjust="spacing" textLength="14" x="460" y="626.2139">33</text><text fill="#000000" font-family="sans-serif" font-size="13" lengthAdjust="spacing" textLength="219" x="478" y="626.2139">getDataFromAdvertisement(salePrice)</text><line style="stroke:#000000;stroke-width:1.0;stroke-dasharray:2.0,2.0;" x1="353" x2="812" y1="652.9688" y2="652.9688"/><text fill="#000000" font-family="sans-serif" font-size="11" font-weight="bold" lengthAdjust="spacing" textLength="130" x="358" y="662.9268">[businessType= LEASE]</text><line style="stroke:#181818;stroke-width:1.0;" x1="453" x2="495" y1="686.7813" y2="686.7813"/><line style="stroke:#181818;stroke-width:1.0;" x1="495" x2="495" y1="686.7813" y2="699.7813"/><line style="stroke:#181818;stroke-width:1.0;" x1="454" x2="495" y1="699.7813" y2="699.7813"/><polygon fill="#181818" points="464,695.7813,454,699.7813,464,703.7813,460,699.7813" style="stroke:#181818;stroke-width:1.0;"/><text fill="#000000" font-family="sans-serif" font-size="13" font-weight="bold" lengthAdjust="spacing" textLength="14" x="460" y="682.0264">34</text><text fill="#000000" font-family="sans-serif" font-size="13" lengthAdjust="spacing" textLength="322" x="478" y="682.0264">getDataFromAdvertisement(rentPrice, ContractDuration)</text><line style="stroke:#000000;stroke-width:1.0;stroke-dasharray:2.0,2.0;" x1="343" x2="855" y1="715.7813" y2="715.7813"/><text fill="#000000" font-family="sans-serif" font-size="11" font-weight="bold" lengthAdjust="spacing" textLength="159" x="348" y="725.7393">[propertyType= APARTMENT]</text><line style="stroke:#181818;stroke-width:1.0;" x1="453" x2="495" y1="807.6875" y2="807.6875"/><line style="stroke:#181818;stroke-width:1.0;" x1="495" x2="495" y1="807.6875" y2="820.6875"/><line style="stroke:#181818;stroke-width:1.0;" x1="454" x2="495" y1="820.6875" y2="820.6875"/><polygon fill="#181818" points="464,816.6875,454,820.6875,464,824.6875,460,820.6875" style="stroke:#181818;stroke-width:1.0;"/><text fill="#000000" font-family="sans-serif" font-size="13" font-weight="bold" lengthAdjust="spacing" textLength="14" x="460" y="773.8857">35</text><text fill="#000000" font-family="sans-serif" font-size="13" lengthAdjust="spacing" textLength="240" x="478" y="744.8389">getDataFromAdvertisement(propertyType,</text><text fill="#000000" font-family="sans-serif" font-size="13" lengthAdjust="spacing" textLength="148" x="478" y="759.3623">area cms. Distance Kms,</text><text fill="#000000" font-family="sans-serif" font-size="13" lengthAdjust="spacing" textLength="274" x="482" y="773.8857">location(street, zipcode, stateUS, city, district),</text><text fill="#000000" font-family="sans-serif" font-size="13" lengthAdjust="spacing" textLength="351" x="478" y="788.4092">numberBedrooms, numberParking, photo,numberBathrooms,</text><text fill="#000000" font-family="sans-serif" font-size="13" lengthAdjust="spacing" textLength="162" x="478" y="802.9326">availableEquipment, photos)</text><path d="M353,835.6875 L414,835.6875 L414,842.2109 L404,852.2109 L353,852.2109 L353,835.6875 " fill="#EEEEEE" style="stroke:#000000;stroke-width:1.5;"/><rect fill="none" height="113.8594" style="stroke:#000000;stroke-width:1.5;" width="459" x="353" y="835.6875"/><text fill="#000000" font-family="sans-serif" font-size="13" font-weight="bold" lengthAdjust="spacing" textLength="16" x="368" y="848.4561">alt</text><text fill="#000000" font-family="sans-serif" font-size="11" font-weight="bold" lengthAdjust="spacing" textLength="124" x="429" y="847.6455">[businessType= SALE]</text><line style="stroke:#181818;stroke-width:1.0;" x1="453" x2="495" y1="872.7344" y2="872.7344"/><line style="stroke:#181818;stroke-width:1.0;" x1="495" x2="495" y1="872.7344" y2="885.7344"/><line style="stroke:#181818;stroke-width:1.0;" x1="454" x2="495" y1="885.7344" y2="885.7344"/><polygon fill="#181818" points="464,881.7344,454,885.7344,464,889.7344,460,885.7344" style="stroke:#181818;stroke-width:1.0;"/><text fill="#000000" font-family="sans-serif" font-size="13" font-weight="bold" lengthAdjust="spacing" textLength="14" x="460" y="867.9795">36</text><text fill="#000000" font-family="sans-serif" font-size="13" lengthAdjust="spacing" textLength="219" x="478" y="867.9795">getDataFromAdvertisement(salePrice)</text><line style="stroke:#000000;stroke-width:1.0;stroke-dasharray:2.0,2.0;" x1="353" x2="812" y1="894.7344" y2="894.7344"/><text fill="#000000" font-family="sans-serif" font-size="11" font-weight="bold" lengthAdjust="spacing" textLength="130" x="358" y="904.6924">[businessType= LEASE]</text><line style="stroke:#181818;stroke-width:1.0;" x1="453" x2="495" y1="928.5469" y2="928.5469"/><line style="stroke:#181818;stroke-width:1.0;" x1="495" x2="495" y1="928.5469" y2="941.5469"/><line style="stroke:#181818;stroke-width:1.0;" x1="454" x2="495" y1="941.5469" y2="941.5469"/><polygon fill="#181818" points="464,937.5469,454,941.5469,464,945.5469,460,941.5469" style="stroke:#181818;stroke-width:1.0;"/><text fill="#000000" font-family="sans-serif" font-size="13" font-weight="bold" lengthAdjust="spacing" textLength="14" x="460" y="923.792">37</text><text fill="#000000" font-family="sans-serif" font-size="13" lengthAdjust="spacing" textLength="322" x="478" y="923.792">getDataFromAdvertisement(rentPrice, ContractDuration)</text><line style="stroke:#000000;stroke-width:1.0;stroke-dasharray:2.0,2.0;" x1="343" x2="855" y1="957.5469" y2="957.5469"/><text fill="#000000" font-family="sans-serif" font-size="11" font-weight="bold" lengthAdjust="spacing" textLength="124" x="348" y="967.5049">[propertyType = LAND]</text><line style="stroke:#181818;stroke-width:1.0;" x1="453" x2="495" y1="1020.4063" y2="1020.4063"/><line style="stroke:#181818;stroke-width:1.0;" x1="495" x2="495" y1="1020.4063" y2="1033.4063"/><line style="stroke:#181818;stroke-width:1.0;" x1="454" x2="495" y1="1033.4063" y2="1033.4063"/><polygon fill="#181818" points="464,1029.4063,454,1033.4063,464,1037.4063,460,1033.4063" style="stroke:#181818;stroke-width:1.0;"/><text fill="#000000" font-family="sans-serif" font-size="13" font-weight="bold" lengthAdjust="spacing" textLength="14" x="460" y="1001.1279">38</text><text fill="#000000" font-family="sans-serif" font-size="13" lengthAdjust="spacing" textLength="240" x="478" y="986.6045">getDataFromAdvertisement(propertyType,</text><text fill="#000000" font-family="sans-serif" font-size="13" lengthAdjust="spacing" textLength="148" x="478" y="1001.1279">area cms. Distance Kms,</text><text fill="#000000" font-family="sans-serif" font-size="13" lengthAdjust="spacing" textLength="361" x="482" y="1015.6514">location(street, zipcode, stateUS, city, district), photo, photos)</text><path d="M353,1048.4063 L414,1048.4063 L414,1054.9297 L404,1064.9297 L353,1064.9297 L353,1048.4063 " fill="#EEEEEE" style="stroke:#000000;stroke-width:1.5;"/><rect fill="none" height="113.8594" style="stroke:#000000;stroke-width:1.5;" width="459" x="353" y="1048.4063"/><text fill="#000000" font-family="sans-serif" font-size="13" font-weight="bold" lengthAdjust="spacing" textLength="16" x="368" y="1061.1748">alt</text><text fill="#000000" font-family="sans-serif" font-size="11" font-weight="bold" lengthAdjust="spacing" textLength="124" x="429" y="1060.3643">[businessType= SALE]</text><line style="stroke:#181818;stroke-width:1.0;" x1="453" x2="495" y1="1085.4531" y2="1085.4531"/><line style="stroke:#181818;stroke-width:1.0;" x1="495" x2="495" y1="1085.4531" y2="1098.4531"/><line style="stroke:#181818;stroke-width:1.0;" x1="454" x2="495" y1="1098.4531" y2="1098.4531"/><polygon fill="#181818" points="464,1094.4531,454,1098.4531,464,1102.4531,460,1098.4531" style="stroke:#181818;stroke-width:1.0;"/><text fill="#000000" font-family="sans-serif" font-size="13" font-weight="bold" lengthAdjust="spacing" textLength="14" x="460" y="1080.6982">39</text><text fill="#000000" font-family="sans-serif" font-size="13" lengthAdjust="spacing" textLength="219" x="478" y="1080.6982">getDataFromAdvertisement(salePrice)</text><line style="stroke:#000000;stroke-width:1.0;stroke-dasharray:2.0,2.0;" x1="353" x2="812" y1="1107.4531" y2="1107.4531"/><text fill="#000000" font-family="sans-serif" font-size="11" font-weight="bold" lengthAdjust="spacing" textLength="130" x="358" y="1117.4111">[businessType= LEASE]</text><line style="stroke:#181818;stroke-width:1.0;" x1="453" x2="495" y1="1141.2656" y2="1141.2656"/><line style="stroke:#181818;stroke-width:1.0;" x1="495" x2="495" y1="1141.2656" y2="1154.2656"/><line style="stroke:#181818;stroke-width:1.0;" x1="454" x2="495" y1="1154.2656" y2="1154.2656"/><polygon fill="#181818" points="464,1150.2656,454,1154.2656,464,1158.2656,460,1154.2656" style="stroke:#181818;stroke-width:1.0;"/><text fill="#000000" font-family="sans-serif" font-size="13" font-weight="bold" lengthAdjust="spacing" textLength="14" x="460" y="1136.5107">40</text><text fill="#000000" font-family="sans-serif" font-size="13" lengthAdjust="spacing" textLength="322" x="478" y="1136.5107">getDataFromAdvertisement(rentPrice, ContractDuration)</text><line style="stroke:#181818;stroke-width:1.0;" x1="453" x2="495" y1="1225.3125" y2="1225.3125"/><line style="stroke:#181818;stroke-width:1.0;" x1="495" x2="495" y1="1225.3125" y2="1238.3125"/><line style="stroke:#181818;stroke-width:1.0;" x1="454" x2="495" y1="1238.3125" y2="1238.3125"/><polygon fill="#181818" points="464,1234.3125,454,1238.3125,464,1242.3125,460,1238.3125" style="stroke:#181818;stroke-width:1.0;"/><text fill="#000000" font-family="sans-serif" font-size="13" font-weight="bold" lengthAdjust="spacing" textLength="14" x="460" y="1213.2959">41</text><text fill="#000000" font-family="sans-serif" font-size="13" lengthAdjust="spacing" textLength="256" x="478" y="1206.0342">Advertisement to AdvertisementDTO (Data)),</text><text fill="#000000" font-family="sans-serif" font-size="13" lengthAdjust="spacing" textLength="169" x="482" y="1220.5576">add to AdvertisementDTOList</text><line style="stroke:#181818;stroke-width:1.0;" x1="453" x2="495" y1="1266.8359" y2="1266.8359"/><line style="stroke:#181818;stroke-width:1.0;" x1="495" x2="495" y1="1266.8359" y2="1279.8359"/><line style="stroke:#181818;stroke-width:1.0;" x1="454" x2="495" y1="1279.8359" y2="1279.8359"/><polygon fill="#181818" points="464,1275.8359,454,1279.8359,464,1283.8359,460,1279.8359" style="stroke:#181818;stroke-width:1.0;"/><text fill="#000000" font-family="sans-serif" font-size="13" font-weight="bold" lengthAdjust="spacing" textLength="14" x="460" y="1262.0811">42</text><text fill="#000000" font-family="sans-serif" font-size="13" lengthAdjust="spacing" textLength="204" x="478" y="1262.0811">sort AdvertisementDTOList by Date</text><polygon fill="#181818" points="98.5,1304.3594,88.5,1308.3594,98.5,1312.3594,94.5,1308.3594" style="stroke:#181818;stroke-width:1.0;"/><line style="stroke:#181818;stroke-width:1.0;" x1="92.5" x2="447" y1="1308.3594" y2="1308.3594"/><text fill="#000000" font-family="sans-serif" font-size="13" font-weight="bold" lengthAdjust="spacing" textLength="14" x="104.5" y="1303.6045">43</text><text fill="#000000" font-family="sans-serif" font-size="13" lengthAdjust="spacing" textLength="210" x="122.5" y="1303.6045">AdvertisementDTOListSortedByDate</text><!--SRC=[xLVVQzim47xtNt7ieNF0ss3iAT11Vcs3PMsfqy6WBx9yYRNQaYl9NRs_VYV7QspNBbb91nirjCJItNVVdJvB9tCbPCuqoo1JKl54gmp1wW8zSpUJCtx5DXZQCaNGo2sJcxHfO18Mgnz2Rc3DKeEUPuKbqx0q5ZC8yRf0oH7cWcsS-HdJNB0KFgA5INo3sWgJeRJprUbI60kXqXPZc9OmPnR13yFvoFDU9Y96M2jb8tNhUHJP2Yvo9Ysy68SymRX8yQimmiwKj5gbAUeNm0pCLkVBZht6N96XqWBDfHoVDruhb-PysvFLVD4HdhaWt0eb2MJIFrFX3NWz07r7gUn2xsRkG-_cF8yLLiaYYr33stUU1_N3AFADA-ksBD1ut0YyUj_A7iQmGJj0m1-r_E-WM-LhcRIWAPGBEHxCeUaPum1yRme3YEri6fhRIiw_GipFjCffkboLESuI9JW6uCQdXH4IZTcD3sG_k2BGUOP8xik_cdJiQHqU3RvJ8u5pZPH12xykaC-wGKVtGZQMQ9yL7IvQumjvEAy6-SVcHQNpKgLoyDTA0sMGW8g-aoS82Jr97u3G65fCuDWjgYz61u4cADersGVQo5jH_BoXwo1gYBdEYQKMMaR4g_zxW4jvT0HxcUvoSl1DbsFuT7eHBho_c3JnPYG4u9bvJOUHeNECalcScU1IGgeuSs2-iHhH1l1Jv5p5v4Ls5Y_20BYmPG0nEMh1xSZXRJVOASPQASA1xJiTS7GsRfn1K5imczGcHEA6YPH5AIwk2v4xdW54h1Q3_sqHlZav7JbE2Ok4TOR4RjsOWh2GiBYbhwhG2DK2y7gdoXDbbUd8rDM-kUB744wMJrrwmr8yqvK6Me6GEeGEc-LYykHAqFIleXD0rH_GpZClTBNaNO8otWrKRDkwdPnDpbTV5YUh_rkxbPBsbU-px9vOThJ3BYSdytzQSbj5FMlbq5hv_U9-kB-3j4pj5iKgw7PFuBiiHjL1nUAupyHrJ0Vgu0mrwBtu46slYNyKfxecZ7lnjZU1QLbXxjlXDXjMhyUukclz0W00]--></g></svg>