<?xml version="1.0" encoding="us-ascii" standalone="no"?><svg xmlns="http://www.w3.org/2000/svg" xmlns:xlink="http://www.w3.org/1999/xlink" contentStyleType="text/css" height="902px" preserveAspectRatio="none" style="width:1791px;height:902px;background:#FFFFFF;" version="1.1" viewBox="0 0 1791 902" width="1791px" zoomAndPan="magnify"><defs/><g><!--class Store--><g id="elem_Store"><rect codeLine="11" fill="#F1F1F1" height="145.7813" id="Store" rx="2.5" ry="2.5" style="stroke:#181818;stroke-width:0.5;" width="828" x="192.5" y="750"/><ellipse cx="583.25" cy="766" fill="#ADD1B2" rx="11" ry="11" style="stroke:#181818;stroke-width:1.0;"/><path d="M586.2344,771.6406 Q585.6563,771.9375 585.0156,772.0781 Q584.375,772.2344 583.6719,772.2344 Q581.1563,772.2344 579.8281,770.5938 Q578.5156,768.9375 578.5156,765.8125 Q578.5156,762.6719 579.8281,761.0313 Q581.1563,759.375 583.6719,759.375 Q584.375,759.375 585.0156,759.5313 Q585.6719,759.6719 586.2344,759.9688 L586.2344,762.6875 Q585.5938,762.1094 585,761.8438 Q584.4063,761.5781 583.7813,761.5781 Q582.4375,761.5781 581.75,762.6406 Q581.0625,763.7031 581.0625,765.8125 Q581.0625,767.9063 581.75,768.9844 Q582.4375,770.0469 583.7813,770.0469 Q584.4063,770.0469 585,769.7813 Q585.5938,769.5 586.2344,768.9219 L586.2344,771.6406 Z " fill="#000000"/><text fill="#000000" font-family="sans-serif" font-size="14" lengthAdjust="spacing" textLength="38" x="603.75" y="770.8467">Store</text><line style="stroke:#181818;stroke-width:0.5;" x1="193.5" x2="1019.5" y1="782" y2="782"/><text fill="#000000" font-family="sans-serif" font-size="14" lengthAdjust="spacing" textLength="64" x="198.5" y="798.9951">-String id</text><text fill="#000000" font-family="sans-serif" font-size="14" lengthAdjust="spacing" textLength="92" x="198.5" y="815.292">-String name</text><text fill="#000000" font-family="sans-serif" font-size="14" lengthAdjust="spacing" textLength="148" x="198.5" y="831.5889">-String emailAddress</text><text fill="#000000" font-family="sans-serif" font-size="14" lengthAdjust="spacing" textLength="129" x="198.5" y="847.8857">-int phoneNumber</text><line style="stroke:#181818;stroke-width:0.5;" x1="193.5" x2="1019.5" y1="855.1875" y2="855.1875"/><text fill="#000000" font-family="sans-serif" font-size="14" lengthAdjust="spacing" textLength="485" x="198.5" y="872.1826">+Store(String id,String name,String emailAddress,int phoneNumber)</text><text fill="#000000" font-family="sans-serif" font-size="14" lengthAdjust="spacing" textLength="816" x="198.5" y="888.4795">+getListedProperties(BusinessType keepBusinessType,PropertyType keepPropertyType,int keepNumberBedrooms)</text></g><!--class BruteForceAlgorithm--><g id="elem_BruteForceAlgorithm"><rect codeLine="20" fill="#F1F1F1" height="129.4844" id="BruteForceAlgorithm" rx="2.5" ry="2.5" style="stroke:#181818;stroke-width:0.5;" width="748" x="224.5" y="277"/><ellipse cx="519.75" cy="293" fill="#ADD1B2" rx="11" ry="11" style="stroke:#181818;stroke-width:1.0;"/><path d="M522.7344,298.6406 Q522.1563,298.9375 521.5156,299.0781 Q520.875,299.2344 520.1719,299.2344 Q517.6563,299.2344 516.3281,297.5938 Q515.0156,295.9375 515.0156,292.8125 Q515.0156,289.6719 516.3281,288.0313 Q517.6563,286.375 520.1719,286.375 Q520.875,286.375 521.5156,286.5313 Q522.1719,286.6719 522.7344,286.9688 L522.7344,289.6875 Q522.0938,289.1094 521.5,288.8438 Q520.9063,288.5781 520.2813,288.5781 Q518.9375,288.5781 518.25,289.6406 Q517.5625,290.7031 517.5625,292.8125 Q517.5625,294.9063 518.25,295.9844 Q518.9375,297.0469 520.2813,297.0469 Q520.9063,297.0469 521.5,296.7813 Q522.0938,296.5 522.7344,295.9219 L522.7344,298.6406 Z " fill="#000000"/><text fill="#000000" font-family="sans-serif" font-size="14" lengthAdjust="spacing" textLength="149" x="540.25" y="297.8467">BruteForceAlgorithm</text><line style="stroke:#181818;stroke-width:0.5;" x1="225.5" x2="971.5" y1="309" y2="309"/><text fill="#000000" font-family="sans-serif" font-size="14" lengthAdjust="spacing" textLength="89" x="230.5" y="325.9951">-long inTime</text><line style="stroke:#181818;stroke-width:0.5;" x1="225.5" x2="971.5" y1="333.2969" y2="333.2969"/><text fill="#000000" font-family="sans-serif" font-size="14" lengthAdjust="spacing" textLength="129" x="230.5" y="350.292">+long getInTime()</text><text fill="#000000" font-family="sans-serif" font-size="14" lengthAdjust="spacing" textLength="725" x="230.5" y="366.5889">+Pair&lt;List&lt;Pair&lt;String,Integer&gt;&gt;,List&lt;Pair&lt;String,Integer&gt;&gt;&gt; start(List&lt;Pair&lt;String,Integer&gt;&gt; list)</text><text fill="#000000" font-family="sans-serif" font-size="14" lengthAdjust="spacing" textLength="736" x="230.5" y="382.8857">+Pair&lt;List&lt;Pair&lt;String,Integer&gt;&gt;,List&lt;Pair&lt;String,Integer&gt;&gt;&gt; divide(List&lt;Pair&lt;String,Integer&gt;&gt; list)</text><text fill="#000000" font-family="sans-serif" font-size="14" lengthAdjust="spacing" textLength="182" x="230.5" y="399.1826">+String toBinary(int num)</text></g><!--class AdvertisementRepository--><g id="elem_AdvertisementRepository"><rect codeLine="31" fill="#F1F1F1" height="64.2969" id="AdvertisementRepository" rx="2.5" ry="2.5" style="stroke:#181818;stroke-width:0.5;" width="212" x="500.5" y="467"/><ellipse cx="515.5" cy="483" fill="#ADD1B2" rx="11" ry="11" style="stroke:#181818;stroke-width:1.0;"/><path d="M518.4844,488.6406 Q517.9063,488.9375 517.2656,489.0781 Q516.625,489.2344 515.9219,489.2344 Q513.4063,489.2344 512.0781,487.5938 Q510.7656,485.9375 510.7656,482.8125 Q510.7656,479.6719 512.0781,478.0313 Q513.4063,476.375 515.9219,476.375 Q516.625,476.375 517.2656,476.5313 Q517.9219,476.6719 518.4844,476.9688 L518.4844,479.6875 Q517.8438,479.1094 517.25,478.8438 Q516.6563,478.5781 516.0313,478.5781 Q514.6875,478.5781 514,479.6406 Q513.3125,480.7031 513.3125,482.8125 Q513.3125,484.9063 514,485.9844 Q514.6875,487.0469 516.0313,487.0469 Q516.6563,487.0469 517.25,486.7813 Q517.8438,486.5 518.4844,485.9219 L518.4844,488.6406 Z " fill="#000000"/><text fill="#000000" font-family="sans-serif" font-size="14" lengthAdjust="spacing" textLength="180" x="529.5" y="487.8467">AdvertisementRepository</text><line style="stroke:#181818;stroke-width:0.5;" x1="501.5" x2="711.5" y1="499" y2="499"/><line style="stroke:#181818;stroke-width:0.5;" x1="501.5" x2="711.5" y1="507" y2="507"/><text fill="#000000" font-family="sans-serif" font-size="14" lengthAdjust="spacing" textLength="151" x="506.5" y="523.9951">+getAdvertisements)</text></g><!--class Repositories--><g id="elem_Repositories"><rect codeLine="35" fill="#F1F1F1" height="113.1875" id="Repositories" rx="2.5" ry="2.5" style="stroke:#181818;stroke-width:0.5;" width="421" x="7" y="134"/><ellipse cx="169.25" cy="150" fill="#ADD1B2" rx="11" ry="11" style="stroke:#181818;stroke-width:1.0;"/><path d="M172.2344,155.6406 Q171.6563,155.9375 171.0156,156.0781 Q170.375,156.2344 169.6719,156.2344 Q167.1563,156.2344 165.8281,154.5938 Q164.5156,152.9375 164.5156,149.8125 Q164.5156,146.6719 165.8281,145.0313 Q167.1563,143.375 169.6719,143.375 Q170.375,143.375 171.0156,143.5313 Q171.6719,143.6719 172.2344,143.9688 L172.2344,146.6875 Q171.5938,146.1094 171,145.8438 Q170.4063,145.5781 169.7813,145.5781 Q168.4375,145.5781 167.75,146.6406 Q167.0625,147.7031 167.0625,149.8125 Q167.0625,151.9063 167.75,152.9844 Q168.4375,154.0469 169.7813,154.0469 Q170.4063,154.0469 171,153.7813 Q171.5938,153.5 172.2344,152.9219 L172.2344,155.6406 Z " fill="#000000"/><text fill="#000000" font-family="sans-serif" font-size="14" lengthAdjust="spacing" textLength="88" x="189.75" y="154.8467">Repositories</text><line style="stroke:#181818;stroke-width:0.5;" x1="8" x2="427" y1="166" y2="166"/><text fill="#000000" font-family="sans-serif" font-size="14" lengthAdjust="spacing" textLength="157" x="13" y="182.9951">-Repositories instance</text><line style="stroke:#181818;stroke-width:0.5;" x1="8" x2="427" y1="190.2969" y2="190.2969"/><text fill="#000000" font-family="sans-serif" font-size="14" lengthAdjust="spacing" textLength="103" x="13" y="207.292">-Repositories()</text><text fill="#000000" font-family="sans-serif" font-size="14" lengthAdjust="spacing" textLength="197" x="13" y="223.5889">+Repositories getInstance()</text><text fill="#000000" font-family="sans-serif" font-size="14" lengthAdjust="spacing" textLength="409" x="13" y="239.8857">+AdvertisementRepository getAdvertisementRepository()</text></g><!--class DivideSetOfStoresController--><g id="elem_DivideSetOfStoresController"><rect codeLine="42" fill="#F1F1F1" height="96.8906" id="DivideSetOfStoresController" rx="2.5" ry="2.5" style="stroke:#181818;stroke-width:0.5;" width="621" x="510" y="7"/><ellipse cx="716.25" cy="23" fill="#ADD1B2" rx="11" ry="11" style="stroke:#181818;stroke-width:1.0;"/><path d="M719.2344,28.6406 Q718.6563,28.9375 718.0156,29.0781 Q717.375,29.2344 716.6719,29.2344 Q714.1563,29.2344 712.8281,27.5938 Q711.5156,25.9375 711.5156,22.8125 Q711.5156,19.6719 712.8281,18.0313 Q714.1563,16.375 716.6719,16.375 Q717.375,16.375 718.0156,16.5313 Q718.6719,16.6719 719.2344,16.9688 L719.2344,19.6875 Q718.5938,19.1094 718,18.8438 Q717.4063,18.5781 716.7813,18.5781 Q715.4375,18.5781 714.75,19.6406 Q714.0625,20.7031 714.0625,22.8125 Q714.0625,24.9063 714.75,25.9844 Q715.4375,27.0469 716.7813,27.0469 Q717.4063,27.0469 718,26.7813 Q718.5938,26.5 719.2344,25.9219 L719.2344,28.6406 Z " fill="#000000"/><text fill="#000000" font-family="sans-serif" font-size="14" lengthAdjust="spacing" textLength="200" x="736.75" y="27.8467">DivideSetOfStoresController</text><line style="stroke:#181818;stroke-width:0.5;" x1="511" x2="1130" y1="39" y2="39"/><line style="stroke:#181818;stroke-width:0.5;" x1="511" x2="1130" y1="47" y2="47"/><text fill="#000000" font-family="sans-serif" font-size="14" lengthAdjust="spacing" textLength="222" x="516" y="63.9951">+DivideSetOfStoresController()</text><text fill="#000000" font-family="sans-serif" font-size="14" lengthAdjust="spacing" textLength="609" x="516" y="80.292">+Pair&lt;List&lt;Pair&lt;String,Integer&gt;&gt;,List&lt;Pair&lt;String,Integer&gt;&gt;&gt; setOfStoresDivided()</text><text fill="#000000" font-family="sans-serif" font-size="14" lengthAdjust="spacing" textLength="116" x="516" y="96.5889">+long getTime()</text></g><!--class DivideSetOfStoresUI--><g id="elem_DivideSetOfStoresUI"><rect codeLine="49" fill="#F1F1F1" height="80.5938" id="DivideSetOfStoresUI" rx="2.5" ry="2.5" style="stroke:#181818;stroke-width:0.5;" width="177" x="234" y="15"/><ellipse cx="249.9" cy="31" fill="#ADD1B2" rx="11" ry="11" style="stroke:#181818;stroke-width:1.0;"/><path d="M252.8844,36.6406 Q252.3063,36.9375 251.6656,37.0781 Q251.025,37.2344 250.3219,37.2344 Q247.8063,37.2344 246.4781,35.5938 Q245.1656,33.9375 245.1656,30.8125 Q245.1656,27.6719 246.4781,26.0313 Q247.8063,24.375 250.3219,24.375 Q251.025,24.375 251.6656,24.5313 Q252.3219,24.6719 252.8844,24.9688 L252.8844,27.6875 Q252.2438,27.1094 251.65,26.8438 Q251.0563,26.5781 250.4313,26.5781 Q249.0875,26.5781 248.4,27.6406 Q247.7125,28.7031 247.7125,30.8125 Q247.7125,32.9063 248.4,33.9844 Q249.0875,35.0469 250.4313,35.0469 Q251.0563,35.0469 251.65,34.7813 Q252.2438,34.5 252.8844,33.9219 L252.8844,36.6406 Z " fill="#000000"/><text fill="#000000" font-family="sans-serif" font-size="14" lengthAdjust="spacing" textLength="143" x="264.1" y="35.8467">DivideSetOfStoresUI</text><line style="stroke:#181818;stroke-width:0.5;" x1="235" x2="410" y1="47" y2="47"/><line style="stroke:#181818;stroke-width:0.5;" x1="235" x2="410" y1="55" y2="55"/><text fill="#000000" font-family="sans-serif" font-size="14" lengthAdjust="spacing" textLength="165" x="240" y="71.9951">+DivideSetOfStoresUI()</text><text fill="#000000" font-family="sans-serif" font-size="14" lengthAdjust="spacing" textLength="46" x="240" y="88.292">+run()</text></g><!--class Advertisement--><g id="elem_Advertisement"><rect codeLine="54" fill="#F1F1F1" height="96.8906" id="Advertisement" rx="2.5" ry="2.5" style="stroke:#181818;stroke-width:0.5;" width="563" x="325" y="592"/><ellipse cx="550.25" cy="608" fill="#ADD1B2" rx="11" ry="11" style="stroke:#181818;stroke-width:1.0;"/><path d="M553.2344,613.6406 Q552.6563,613.9375 552.0156,614.0781 Q551.375,614.2344 550.6719,614.2344 Q548.1563,614.2344 546.8281,612.5938 Q545.5156,610.9375 545.5156,607.8125 Q545.5156,604.6719 546.8281,603.0313 Q548.1563,601.375 550.6719,601.375 Q551.375,601.375 552.0156,601.5313 Q552.6719,601.6719 553.2344,601.9688 L553.2344,604.6875 Q552.5938,604.1094 552,603.8438 Q551.4063,603.5781 550.7813,603.5781 Q549.4375,603.5781 548.75,604.6406 Q548.0625,605.7031 548.0625,607.8125 Q548.0625,609.9063 548.75,610.9844 Q549.4375,612.0469 550.7813,612.0469 Q551.4063,612.0469 552,611.7813 Q552.5938,611.5 553.2344,610.9219 L553.2344,613.6406 Z " fill="#000000"/><text fill="#000000" font-family="sans-serif" font-size="14" lengthAdjust="spacing" textLength="104" x="570.75" y="612.8467">Advertisement</text><line style="stroke:#181818;stroke-width:0.5;" x1="326" x2="887" y1="624" y2="624"/><text fill="#000000" font-family="sans-serif" font-size="14" lengthAdjust="spacing" textLength="75" x="331" y="640.9951">-Date date</text><text fill="#000000" font-family="sans-serif" font-size="14" lengthAdjust="spacing" textLength="186" x="331" y="657.292">-Double commissionValue</text><line style="stroke:#181818;stroke-width:0.5;" x1="326" x2="887" y1="664.5938" y2="664.5938"/><text fill="#000000" font-family="sans-serif" font-size="14" lengthAdjust="spacing" textLength="551" x="331" y="681.5889">+Advertisement(String commissionType,Double commissionValue,Date date)</text></g><!--class AdvertisementCollection--><g id="elem_AdvertisementCollection"><rect codeLine="60" fill="#F1F1F1" height="80.5938" id="AdvertisementCollection" rx="2.5" ry="2.5" style="stroke:#181818;stroke-width:0.5;" width="540" x="1244.5" y="301"/><ellipse cx="1422.75" cy="317" fill="#ADD1B2" rx="11" ry="11" style="stroke:#181818;stroke-width:1.0;"/><path d="M1425.7344,322.6406 Q1425.1563,322.9375 1424.5156,323.0781 Q1423.875,323.2344 1423.1719,323.2344 Q1420.6563,323.2344 1419.3281,321.5938 Q1418.0156,319.9375 1418.0156,316.8125 Q1418.0156,313.6719 1419.3281,312.0313 Q1420.6563,310.375 1423.1719,310.375 Q1423.875,310.375 1424.5156,310.5313 Q1425.1719,310.6719 1425.7344,310.9688 L1425.7344,313.6875 Q1425.0938,313.1094 1424.5,312.8438 Q1423.9063,312.5781 1423.2813,312.5781 Q1421.9375,312.5781 1421.25,313.6406 Q1420.5625,314.7031 1420.5625,316.8125 Q1420.5625,318.9063 1421.25,319.9844 Q1421.9375,321.0469 1423.2813,321.0469 Q1423.9063,321.0469 1424.5,320.7813 Q1425.0938,320.5 1425.7344,319.9219 L1425.7344,322.6406 Z " fill="#000000"/><text fill="#000000" font-family="sans-serif" font-size="14" lengthAdjust="spacing" textLength="175" x="1443.25" y="321.8467">AdvertisementCollection</text><line style="stroke:#181818;stroke-width:0.5;" x1="1245.5" x2="1783.5" y1="333" y2="333"/><line style="stroke:#181818;stroke-width:0.5;" x1="1245.5" x2="1783.5" y1="341" y2="341"/><text fill="#000000" font-family="sans-serif" font-size="14" lengthAdjust="spacing" textLength="528" x="1250.5" y="357.9951">+List&lt;Pair&lt;String,Integer&gt;&gt; divideAdsByStore(List&lt;Advertisement&gt; ads)</text><text fill="#000000" font-family="sans-serif" font-size="14" lengthAdjust="spacing" textLength="379" x="1250.5" y="374.292">+int findPos(List&lt;Pair&lt;String,Integer&gt;&gt; set,String id)</text></g><!--link Repositories to Repositories--><g id="link_Repositories_Repositories"><path codeLine="65" d="M428.34,169.93 C449.51,174.03 463,180.88 463,190.5 C463,199.29 451.73,205.78 433.62,209.95 " fill="none" id="Repositories-to-Repositories" style="stroke:#181818;stroke-width:1.0;"/><polygon fill="#181818" points="428.34,211.07,437.9698,213.1358,433.2334,210.0428,436.3263,205.3064,428.34,211.07" style="stroke:#181818;stroke-width:1.0;"/><text fill="#000000" font-family="sans-serif" font-size="13" lengthAdjust="spacing" textLength="55" x="469" y="195.0669">instance</text></g><!--link DivideSetOfStoresUI to DivideSetOfStoresController--><g id="link_DivideSetOfStoresUI_DivideSetOfStoresController"><path codeLine="66" d="M411.25,55.5 C438.83,55.5 470.98,55.5 504.91,55.5 " fill="none" id="DivideSetOfStoresUI-to-DivideSetOfStoresController" style="stroke:#181818;stroke-width:1.0;stroke-dasharray:7.0,7.0;"/><polygon fill="#181818" points="509.93,55.5,500.93,51.5,504.93,55.5,500.93,59.5,509.93,55.5" style="stroke:#181818;stroke-width:1.0;"/><text fill="#000000" font-family="sans-serif" font-size="13" lengthAdjust="spacing" textLength="62" x="429.5" y="48.5669">controller</text></g><!--link DivideSetOfStoresController to Repositories--><g id="link_DivideSetOfStoresController_Repositories"><path codeLine="68" d="M604.93,104.05 C549.14,116.35 489.07,129.6 433.27,141.91 " fill="none" id="DivideSetOfStoresController-to-Repositories" style="stroke:#181818;stroke-width:1.0;stroke-dasharray:7.0,7.0;"/><polygon fill="#181818" points="428.23,143.02,437.8846,144.9664,433.1103,141.9323,436.1443,137.158,428.23,143.02" style="stroke:#181818;stroke-width:1.0;"/><text fill="#000000" font-family="sans-serif" font-size="13" lengthAdjust="spacing" textLength="77" x="441.1" y="119.0469">repositories</text></g><!--link DivideSetOfStoresController to BruteForceAlgorithm--><g id="link_DivideSetOfStoresController_BruteForceAlgorithm"><path codeLine="70" d="M783.34,104.04 C747.25,150.2 692.1,220.76 651.43,272.79 " fill="none" id="DivideSetOfStoresController-to-BruteForceAlgorithm" style="stroke:#181818;stroke-width:1.0;stroke-dasharray:7.0,7.0;"/><polygon fill="#181818" points="648.28,276.81,656.9664,272.1681,651.3527,272.8655,650.6552,267.2519,648.28,276.81" style="stroke:#181818;stroke-width:1.0;"/><text fill="#000000" font-family="sans-serif" font-size="13" lengthAdjust="spacing" textLength="63" x="756.5" y="195.0669">algorithm</text></g><!--link DivideSetOfStoresController to AdvertisementCollection--><g id="link_DivideSetOfStoresController_AdvertisementCollection"><path codeLine="72" d="M972.62,104.04 C1023.95,120.08 1068.5,134 1068.5,134 C1068.5,134 1294.15,238.48 1424.44,298.8 " fill="none" id="DivideSetOfStoresController-to-AdvertisementCollection" style="stroke:#181818;stroke-width:1.0;stroke-dasharray:7.0,7.0;"/><polygon fill="#181818" points="1429.03,300.93,1422.539,293.5228,1424.4915,298.832,1419.1822,300.7844,1429.03,300.93" style="stroke:#181818;stroke-width:1.0;"/><text fill="#000000" font-family="sans-serif" font-size="13" lengthAdjust="spacing" textLength="63" x="1306.5" y="195.0669">collection</text></g><!--link Repositories to AdvertisementRepository--><g id="link_Repositories_AdvertisementRepository"><path codeLine="74" d="M210.35,247.1 C208.25,263.43 206.5,277 206.5,277 C206.5,277 206.5,406 206.5,406 C206.5,406 377.09,445.24 495.47,472.46 " fill="none" id="Repositories-to-AdvertisementRepository" style="stroke:#181818;stroke-width:1.0;"/><polygon fill="#181818" points="500.36,473.59,492.495,467.662,495.489,472.4615,490.6894,475.4555,500.36,473.59" style="stroke:#181818;stroke-width:1.0;"/><text fill="#000000" font-family="sans-serif" font-size="13" lengthAdjust="spacing" textLength="8" x="484.6158" y="468.3371">1</text></g><!--link DivideSetOfStoresController to AdvertisementRepository--><g id="link_DivideSetOfStoresController_AdvertisementRepository"><path codeLine="76" d="M856.96,104.07 C906.64,168.89 989.5,277 989.5,277 C989.5,277 989.5,406 989.5,406 C989.5,406 830.78,444.13 717.69,471.29 " fill="none" id="DivideSetOfStoresController-to-AdvertisementRepository" style="stroke:#181818;stroke-width:1.0;stroke-dasharray:7.0,7.0;"/><polygon fill="#181818" points="712.68,472.5,722.367,474.2784,717.5406,471.3277,720.4913,466.5014,712.68,472.5" style="stroke:#181818;stroke-width:1.0;"/><text fill="#000000" font-family="sans-serif" font-size="13" lengthAdjust="spacing" textLength="165" x="990.5" y="346.0669">advertisementRepository</text></g><!--link AdvertisementRepository to Advertisement--><g id="link_AdvertisementRepository_Advertisement"><path codeLine="77" d="M606.5,531.31 C606.5,547.61 606.5,567.98 606.5,586.64 " fill="none" id="AdvertisementRepository-to-Advertisement" style="stroke:#181818;stroke-width:1.0;"/><polygon fill="#181818" points="606.5,591.85,610.5,582.85,606.5,586.85,602.5,582.85,606.5,591.85" style="stroke:#181818;stroke-width:1.0;"/><text fill="#000000" font-family="sans-serif" font-size="13" lengthAdjust="spacing" textLength="7" x="599.0078" y="581.0378">*</text></g><!--link Advertisement to Store--><g id="link_Advertisement_Store"><path codeLine="78" d="M606.5,689.4 C606.5,706.29 606.5,725.75 606.5,744.47 " fill="none" id="Advertisement-to-Store" style="stroke:#181818;stroke-width:1.0;"/><polygon fill="#181818" points="606.5,749.72,610.5,740.72,606.5,744.72,602.5,740.72,606.5,749.72" style="stroke:#181818;stroke-width:1.0;"/><text fill="#000000" font-family="sans-serif" font-size="13" lengthAdjust="spacing" textLength="8" x="598.1063" y="738.8524">1</text></g><!--SRC=[hLHDZzem4BtxLrXxWIrXrLxH2WbsLGcfQb7PxTt4Gx1mxCYUR9LM-z_hE8cJG08zB0VapEVpc-UPs9DG6JCifQbMEZuQdG95amDfFHcBJoo17HOIg84OcKfaDy0U6TU_XKheWKdRzKYX08iCQAPbKNwGoO1J6zIaanLBPkqAqOXzZh29jTg9Fq0_4pAHS42AcXgH795oKS8HMX7YS-WEjG7wbz3wDtSMKm8J_DAcM0gNLaYPa2lE3LZRyGg5D3jg1T_pT0ycU6Q-vJIqYJh5eu6IqLcX-xOIJG2_2Ol0jqPdO520dQvpwsYozgKawWIGTGrH7LW4RzVWMvN6gjCQkD4wjVValQ5hRHo_NxM9OIKJRGGUqugxkTJbRTIBg2cQUOC3kF6sQGLxHhTCcCSIzAC_LHUEDWeX0RDSHkEk9RN834x78vn0B7v48oxU18V_xLGF3VLQA6QAQScYobDF6scOM_6tSa0MKb3u4p9jXTD1KKlFZx8NqcKzXBlvrWdplb4enusAOS0NcEyb-C5KEI5W3E8vjDOrxO1yzfpj07ySlCBjarPej9HWmYMln7oCGDhALIiUoZPox8ZndOnYVzsCOtxTXA8cLrqAUYmrStfc29Ixl-PRvtkt5cETfi9Qjuf-CPdNRwPNe5aHRQH_eyFvKMWpXkUffDdlllfcLzHTwN_5xRgejfMFxPLRKiPjmqEf-8DGVAljjKVZnXE5lUTnzZGvdo_x8bsqkXwQqCFocg0MZgBcJCWrTJvSj3MTpnkvBdbWAReQh3dVBZ0o9xg8mtc0ghilTsDFzbRByvvjveADL1nR3Xx9fpCa_UY0rYDnZ-uV]--></g></svg>