<?xml version="1.0" encoding="us-ascii" standalone="no"?><svg xmlns="http://www.w3.org/2000/svg" xmlns:xlink="http://www.w3.org/1999/xlink" contentStyleType="text/css" height="777px" preserveAspectRatio="none" style="width:1696px;height:777px;background:#FFFFFF;" version="1.1" viewBox="0 0 1696 777" width="1696px" zoomAndPan="magnify"><defs/><g><rect fill="#FFFFFF" height="587.6563" style="stroke:#181818;stroke-width:1.0;" width="10" x="86.5" y="91.2969"/><rect fill="#FFFFFF" height="566.5234" style="stroke:#181818;stroke-width:1.0;" width="10" x="424.5" y="112.4297"/><rect fill="#FFFFFF" height="116.5313" style="stroke:#181818;stroke-width:1.0;" width="10" x="609" y="141.5625"/><rect fill="#FFFFFF" height="246.0625" style="stroke:#181818;stroke-width:1.0;" width="10" x="609" y="287.2266"/><rect fill="#FFFFFF" height="87.3984" style="stroke:#181818;stroke-width:1.0;" width="10" x="609" y="562.4219"/><rect fill="#FFFFFF" height="29.1328" style="stroke:#181818;stroke-width:1.0;" width="10" x="774" y="170.6953"/><rect fill="#FFFFFF" height="29.1328" style="stroke:#181818;stroke-width:1.0;" width="10" x="891" y="228.9609"/><rect fill="#FFFFFF" height="29.1328" style="stroke:#181818;stroke-width:1.0;" width="10" x="1054" y="316.3594"/><rect fill="#FFFFFF" height="29.1328" style="stroke:#181818;stroke-width:1.0;" width="10" x="1258" y="374.625"/><rect fill="#FFFFFF" height="71.2656" style="stroke:#181818;stroke-width:1.0;" width="10" x="1444" y="432.8906"/><rect fill="#FFFFFF" height="29.1328" style="stroke:#181818;stroke-width:1.0;" width="10" x="1444" y="591.5547"/><line style="stroke:#181818;stroke-width:0.5;stroke-dasharray:5.0,5.0;" x1="91" x2="91" y1="81.2969" y2="696.9531"/><line style="stroke:#181818;stroke-width:0.5;stroke-dasharray:5.0,5.0;" x1="429.5" x2="429.5" y1="81.2969" y2="696.9531"/><line style="stroke:#181818;stroke-width:0.5;stroke-dasharray:5.0,5.0;" x1="613.5" x2="613.5" y1="81.2969" y2="696.9531"/><line style="stroke:#181818;stroke-width:0.5;stroke-dasharray:5.0,5.0;" x1="778.5" x2="778.5" y1="81.2969" y2="696.9531"/><line style="stroke:#181818;stroke-width:0.5;stroke-dasharray:5.0,5.0;" x1="895.5" x2="895.5" y1="81.2969" y2="696.9531"/><line style="stroke:#181818;stroke-width:0.5;stroke-dasharray:5.0,5.0;" x1="1058.5" x2="1058.5" y1="81.2969" y2="696.9531"/><line style="stroke:#181818;stroke-width:0.5;stroke-dasharray:5.0,5.0;" x1="1262.5" x2="1262.5" y1="81.2969" y2="696.9531"/><line style="stroke:#181818;stroke-width:0.5;stroke-dasharray:5.0,5.0;" x1="1448.5" x2="1448.5" y1="81.2969" y2="696.9531"/><text fill="#000000" font-family="sans-serif" font-size="14" lengthAdjust="spacing" textLength="167" x="5" y="77.9951">Store Network Manager</text><ellipse cx="91.5" cy="13.5" fill="#E3E3E3" rx="8" ry="8" style="stroke:#181818;stroke-width:0.5;"/><path d="M91.5,21.5 L91.5,48.5 M78.5,29.5 L104.5,29.5 M91.5,48.5 L78.5,63.5 M91.5,48.5 L104.5,63.5 " fill="none" style="stroke:#181818;stroke-width:0.5;"/><text fill="#000000" font-family="sans-serif" font-size="14" lengthAdjust="spacing" textLength="167" x="5" y="708.9482">Store Network Manager</text><ellipse cx="91.5" cy="720.75" fill="#E3E3E3" rx="8" ry="8" style="stroke:#181818;stroke-width:0.5;"/><path d="M91.5,728.75 L91.5,755.75 M78.5,736.75 L104.5,736.75 M91.5,755.75 L78.5,770.75 M91.5,755.75 L104.5,770.75 " fill="none" style="stroke:#181818;stroke-width:0.5;"/><rect fill="#E3E3E3" height="30.2969" rx="2.5" ry="2.5" style="stroke:#181818;stroke-width:0.5;" width="146" x="356.5" y="50"/><text fill="#000000" font-family="sans-serif" font-size="14" lengthAdjust="spacing" textLength="132" x="363.5" y="69.9951">:DivideSetStoresUI</text><rect fill="#E3E3E3" height="30.2969" rx="2.5" ry="2.5" style="stroke:#181818;stroke-width:0.5;" width="146" x="356.5" y="695.9531"/><text fill="#000000" font-family="sans-serif" font-size="14" lengthAdjust="spacing" textLength="132" x="363.5" y="715.9482">:DivideSetStoresUI</text><rect fill="#E3E3E3" height="30.2969" rx="2.5" ry="2.5" style="stroke:#181818;stroke-width:0.5;" width="203" x="512.5" y="50"/><text fill="#000000" font-family="sans-serif" font-size="14" lengthAdjust="spacing" textLength="189" x="519.5" y="69.9951">:DivideSetStoresController</text><rect fill="#E3E3E3" height="30.2969" rx="2.5" ry="2.5" style="stroke:#181818;stroke-width:0.5;" width="203" x="512.5" y="695.9531"/><text fill="#000000" font-family="sans-serif" font-size="14" lengthAdjust="spacing" textLength="189" x="519.5" y="715.9482">:DivideSetStoresController</text><rect fill="#E3E3E3" height="30.2969" rx="2.5" ry="2.5" style="stroke:#181818;stroke-width:0.5;" width="107" x="725.5" y="50"/><text fill="#000000" font-family="sans-serif" font-size="14" lengthAdjust="spacing" textLength="93" x="732.5" y="69.9951">:Repositories</text><rect fill="#E3E3E3" height="30.2969" rx="2.5" ry="2.5" style="stroke:#181818;stroke-width:0.5;" width="107" x="725.5" y="695.9531"/><text fill="#000000" font-family="sans-serif" font-size="14" lengthAdjust="spacing" textLength="93" x="732.5" y="715.9482">:Repositories</text><rect fill="#E3E3E3" height="46.5938" rx="2.5" ry="2.5" style="stroke:#181818;stroke-width:0.5;" width="107" x="842.5" y="33.7031"/><text fill="#000000" font-family="sans-serif" font-size="14" lengthAdjust="spacing" textLength="84" x="854" y="53.6982">repositories</text><text fill="#000000" font-family="sans-serif" font-size="14" lengthAdjust="spacing" textLength="93" x="849.5" y="69.9951">:Repositories</text><rect fill="#E3E3E3" height="46.5938" rx="2.5" ry="2.5" style="stroke:#181818;stroke-width:0.5;" width="107" x="842.5" y="695.9531"/><text fill="#000000" font-family="sans-serif" font-size="14" lengthAdjust="spacing" textLength="84" x="854" y="715.9482">repositories</text><text fill="#000000" font-family="sans-serif" font-size="14" lengthAdjust="spacing" textLength="93" x="849.5" y="732.2451">:Repositories</text><rect fill="#E3E3E3" height="46.5938" rx="2.5" ry="2.5" style="stroke:#181818;stroke-width:0.5;" width="199" x="959.5" y="33.7031"/><text fill="#000000" font-family="sans-serif" font-size="14" lengthAdjust="spacing" textLength="179" x="969.5" y="53.6982">advertisementRepository</text><text fill="#000000" font-family="sans-serif" font-size="14" lengthAdjust="spacing" textLength="185" x="966.5" y="69.9951">:AdvertisementRepository</text><rect fill="#E3E3E3" height="46.5938" rx="2.5" ry="2.5" style="stroke:#181818;stroke-width:0.5;" width="199" x="959.5" y="695.9531"/><text fill="#000000" font-family="sans-serif" font-size="14" lengthAdjust="spacing" textLength="179" x="969.5" y="715.9482">advertisementRepository</text><text fill="#000000" font-family="sans-serif" font-size="14" lengthAdjust="spacing" textLength="185" x="966.5" y="732.2451">:AdvertisementRepository</text><rect fill="#E3E3E3" height="30.2969" rx="2.5" ry="2.5" style="stroke:#181818;stroke-width:0.5;" width="189" x="1168.5" y="50"/><text fill="#000000" font-family="sans-serif" font-size="14" lengthAdjust="spacing" textLength="175" x="1175.5" y="69.9951">AdvertisementCollection</text><rect fill="#E3E3E3" height="30.2969" rx="2.5" ry="2.5" style="stroke:#181818;stroke-width:0.5;" width="189" x="1168.5" y="695.9531"/><text fill="#000000" font-family="sans-serif" font-size="14" lengthAdjust="spacing" textLength="175" x="1175.5" y="715.9482">AdvertisementCollection</text><rect fill="#E3E3E3" height="30.2969" rx="2.5" ry="2.5" style="stroke:#181818;stroke-width:0.5;" width="163" x="1367.5" y="50"/><text fill="#000000" font-family="sans-serif" font-size="14" lengthAdjust="spacing" textLength="149" x="1374.5" y="69.9951">BruteForceAlgorithm</text><rect fill="#E3E3E3" height="30.2969" rx="2.5" ry="2.5" style="stroke:#181818;stroke-width:0.5;" width="163" x="1367.5" y="695.9531"/><text fill="#000000" font-family="sans-serif" font-size="14" lengthAdjust="spacing" textLength="149" x="1374.5" y="715.9482">BruteForceAlgorithm</text><rect fill="#FFFFFF" height="587.6563" style="stroke:#181818;stroke-width:1.0;" width="10" x="86.5" y="91.2969"/><rect fill="#FFFFFF" height="566.5234" style="stroke:#181818;stroke-width:1.0;" width="10" x="424.5" y="112.4297"/><rect fill="#FFFFFF" height="116.5313" style="stroke:#181818;stroke-width:1.0;" width="10" x="609" y="141.5625"/><rect fill="#FFFFFF" height="246.0625" style="stroke:#181818;stroke-width:1.0;" width="10" x="609" y="287.2266"/><rect fill="#FFFFFF" height="87.3984" style="stroke:#181818;stroke-width:1.0;" width="10" x="609" y="562.4219"/><rect fill="#FFFFFF" height="29.1328" style="stroke:#181818;stroke-width:1.0;" width="10" x="774" y="170.6953"/><rect fill="#FFFFFF" height="29.1328" style="stroke:#181818;stroke-width:1.0;" width="10" x="891" y="228.9609"/><rect fill="#FFFFFF" height="29.1328" style="stroke:#181818;stroke-width:1.0;" width="10" x="1054" y="316.3594"/><rect fill="#FFFFFF" height="29.1328" style="stroke:#181818;stroke-width:1.0;" width="10" x="1258" y="374.625"/><rect fill="#FFFFFF" height="71.2656" style="stroke:#181818;stroke-width:1.0;" width="10" x="1444" y="432.8906"/><rect fill="#FFFFFF" height="29.1328" style="stroke:#181818;stroke-width:1.0;" width="10" x="1444" y="591.5547"/><polygon fill="#181818" points="412.5,108.4297,422.5,112.4297,412.5,116.4297,416.5,112.4297" style="stroke:#181818;stroke-width:1.0;"/><line style="stroke:#181818;stroke-width:1.0;" x1="96.5" x2="418.5" y1="112.4297" y2="112.4297"/><text fill="#000000" font-family="sans-serif" font-size="13" font-weight="bold" lengthAdjust="spacing" textLength="9" x="103.5" y="107.3638">1</text><text fill="#000000" font-family="sans-serif" font-size="13" lengthAdjust="spacing" textLength="283" x="116.5" y="107.3638">Divide the set of all stores into two subsets</text><polygon fill="#181818" points="597,137.5625,607,141.5625,597,145.5625,601,141.5625" style="stroke:#181818;stroke-width:1.0;"/><line style="stroke:#181818;stroke-width:1.0;" x1="434.5" x2="603" y1="141.5625" y2="141.5625"/><text fill="#000000" font-family="sans-serif" font-size="13" font-weight="bold" lengthAdjust="spacing" textLength="9" x="441.5" y="136.4966">2</text><text fill="#000000" font-family="sans-serif" font-size="13" lengthAdjust="spacing" textLength="51" x="454.5" y="136.4966">create()</text><polygon fill="#181818" points="762,166.6953,772,170.6953,762,174.6953,766,170.6953" style="stroke:#181818;stroke-width:1.0;"/><line style="stroke:#181818;stroke-width:1.0;" x1="619" x2="768" y1="170.6953" y2="170.6953"/><text fill="#000000" font-family="sans-serif" font-size="13" font-weight="bold" lengthAdjust="spacing" textLength="9" x="626" y="165.6294">3</text><text fill="#000000" font-family="sans-serif" font-size="13" lengthAdjust="spacing" textLength="86" x="639" y="165.6294">getInstance()</text><polygon fill="#181818" points="630,195.8281,620,199.8281,630,203.8281,626,199.8281" style="stroke:#181818;stroke-width:1.0;"/><line style="stroke:#181818;stroke-width:1.0;stroke-dasharray:2.0,2.0;" x1="624" x2="778" y1="199.8281" y2="199.8281"/><text fill="#000000" font-family="sans-serif" font-size="13" font-weight="bold" lengthAdjust="spacing" textLength="9" x="636" y="194.7622">4</text><text fill="#000000" font-family="sans-serif" font-size="13" lengthAdjust="spacing" textLength="77" x="649" y="194.7622">repositories</text><polygon fill="#181818" points="879,224.9609,889,228.9609,879,232.9609,883,228.9609" style="stroke:#181818;stroke-width:1.0;"/><line style="stroke:#181818;stroke-width:1.0;" x1="619" x2="885" y1="228.9609" y2="228.9609"/><text fill="#000000" font-family="sans-serif" font-size="13" font-weight="bold" lengthAdjust="spacing" textLength="9" x="626" y="223.895">5</text><text fill="#000000" font-family="sans-serif" font-size="13" lengthAdjust="spacing" textLength="197" x="639" y="223.895">getAdvertisementRepository()</text><polygon fill="#181818" points="625,254.0938,615,258.0938,625,262.0938,621,258.0938" style="stroke:#181818;stroke-width:1.0;"/><line style="stroke:#181818;stroke-width:1.0;stroke-dasharray:2.0,2.0;" x1="619" x2="895" y1="258.0938" y2="258.0938"/><text fill="#000000" font-family="sans-serif" font-size="13" font-weight="bold" lengthAdjust="spacing" textLength="9" x="631" y="253.0278">6</text><text fill="#000000" font-family="sans-serif" font-size="13" lengthAdjust="spacing" textLength="165" x="644" y="253.0278">advertisementRepository</text><polygon fill="#181818" points="597,283.2266,607,287.2266,597,291.2266,601,287.2266" style="stroke:#181818;stroke-width:1.0;"/><line style="stroke:#181818;stroke-width:1.0;" x1="434.5" x2="603" y1="287.2266" y2="287.2266"/><text fill="#000000" font-family="sans-serif" font-size="13" font-weight="bold" lengthAdjust="spacing" textLength="9" x="441.5" y="282.1606">7</text><text fill="#000000" font-family="sans-serif" font-size="13" lengthAdjust="spacing" textLength="136" x="454.5" y="282.1606">setOfStoresDivided()</text><polygon fill="#181818" points="1042,312.3594,1052,316.3594,1042,320.3594,1046,316.3594" style="stroke:#181818;stroke-width:1.0;"/><line style="stroke:#181818;stroke-width:1.0;" x1="619" x2="1048" y1="316.3594" y2="316.3594"/><text fill="#000000" font-family="sans-serif" font-size="13" font-weight="bold" lengthAdjust="spacing" textLength="9" x="626" y="311.2935">8</text><text fill="#000000" font-family="sans-serif" font-size="13" lengthAdjust="spacing" textLength="134" x="639" y="311.2935">getAdvertisements()</text><polygon fill="#181818" points="630,341.4922,620,345.4922,630,349.4922,626,345.4922" style="stroke:#181818;stroke-width:1.0;"/><line style="stroke:#181818;stroke-width:1.0;stroke-dasharray:2.0,2.0;" x1="624" x2="1058" y1="345.4922" y2="345.4922"/><text fill="#000000" font-family="sans-serif" font-size="13" font-weight="bold" lengthAdjust="spacing" textLength="9" x="636" y="340.4263">9</text><text fill="#000000" font-family="sans-serif" font-size="13" lengthAdjust="spacing" textLength="125" x="649" y="340.4263">advertisementsList</text><polygon fill="#181818" points="1246,370.625,1256,374.625,1246,378.625,1250,374.625" style="stroke:#181818;stroke-width:1.0;"/><line style="stroke:#181818;stroke-width:1.0;" x1="619" x2="1252" y1="374.625" y2="374.625"/><text fill="#000000" font-family="sans-serif" font-size="13" font-weight="bold" lengthAdjust="spacing" textLength="18" x="626" y="369.5591">10</text><text fill="#000000" font-family="sans-serif" font-size="13" lengthAdjust="spacing" textLength="250" x="648" y="369.5591">divideAdsByStore(advertisementsList)</text><polygon fill="#181818" points="630,399.7578,620,403.7578,630,407.7578,626,403.7578" style="stroke:#181818;stroke-width:1.0;"/><line style="stroke:#181818;stroke-width:1.0;stroke-dasharray:2.0,2.0;" x1="624" x2="1262" y1="403.7578" y2="403.7578"/><text fill="#000000" font-family="sans-serif" font-size="13" font-weight="bold" lengthAdjust="spacing" textLength="18" x="636" y="398.6919">11</text><text fill="#000000" font-family="sans-serif" font-size="13" lengthAdjust="spacing" textLength="156" x="658" y="398.6919">listOfNumOfAdsByStore</text><polygon fill="#181818" points="1432,428.8906,1442,432.8906,1432,436.8906,1436,432.8906" style="stroke:#181818;stroke-width:1.0;"/><line style="stroke:#181818;stroke-width:1.0;" x1="619" x2="1438" y1="432.8906" y2="432.8906"/><text fill="#000000" font-family="sans-serif" font-size="13" font-weight="bold" lengthAdjust="spacing" textLength="18" x="626" y="427.8247">12</text><text fill="#000000" font-family="sans-serif" font-size="13" lengthAdjust="spacing" textLength="196" x="648" y="427.8247">start(listOfNumOfAdsByStore)</text><line style="stroke:#181818;stroke-width:1.0;" x1="1454" x2="1496" y1="462.0234" y2="462.0234"/><line style="stroke:#181818;stroke-width:1.0;" x1="1496" x2="1496" y1="462.0234" y2="475.0234"/><line style="stroke:#181818;stroke-width:1.0;" x1="1455" x2="1496" y1="475.0234" y2="475.0234"/><polygon fill="#181818" points="1465,471.0234,1455,475.0234,1465,479.0234,1461,475.0234" style="stroke:#181818;stroke-width:1.0;"/><text fill="#000000" font-family="sans-serif" font-size="13" font-weight="bold" lengthAdjust="spacing" textLength="18" x="1461" y="456.9575">13</text><text fill="#000000" font-family="sans-serif" font-size="13" lengthAdjust="spacing" textLength="206" x="1483" y="456.9575">divide(listOfNumOfAdsByStore)</text><polygon fill="#181818" points="630,500.1563,620,504.1563,630,508.1563,626,504.1563" style="stroke:#181818;stroke-width:1.0;"/><line style="stroke:#181818;stroke-width:1.0;stroke-dasharray:2.0,2.0;" x1="624" x2="1448" y1="504.1563" y2="504.1563"/><text fill="#000000" font-family="sans-serif" font-size="13" font-weight="bold" lengthAdjust="spacing" textLength="18" x="636" y="499.0903">14</text><text fill="#000000" font-family="sans-serif" font-size="13" lengthAdjust="spacing" textLength="102" x="658" y="499.0903">pairOfPartitions</text><polygon fill="#181818" points="445.5,529.2891,435.5,533.2891,445.5,537.2891,441.5,533.2891" style="stroke:#181818;stroke-width:1.0;"/><line style="stroke:#181818;stroke-width:1.0;stroke-dasharray:2.0,2.0;" x1="439.5" x2="613" y1="533.2891" y2="533.2891"/><text fill="#000000" font-family="sans-serif" font-size="13" font-weight="bold" lengthAdjust="spacing" textLength="18" x="451.5" y="528.2231">15</text><text fill="#000000" font-family="sans-serif" font-size="13" lengthAdjust="spacing" textLength="102" x="473.5" y="528.2231">pairOfPartitions</text><polygon fill="#181818" points="597,558.4219,607,562.4219,597,566.4219,601,562.4219" style="stroke:#181818;stroke-width:1.0;"/><line style="stroke:#181818;stroke-width:1.0;" x1="434.5" x2="603" y1="562.4219" y2="562.4219"/><text fill="#000000" font-family="sans-serif" font-size="13" font-weight="bold" lengthAdjust="spacing" textLength="18" x="441.5" y="557.356">16</text><text fill="#000000" font-family="sans-serif" font-size="13" lengthAdjust="spacing" textLength="54" x="463.5" y="557.356">getTime</text><polygon fill="#181818" points="1432,587.5547,1442,591.5547,1432,595.5547,1436,591.5547" style="stroke:#181818;stroke-width:1.0;"/><line style="stroke:#181818;stroke-width:1.0;" x1="619" x2="1438" y1="591.5547" y2="591.5547"/><text fill="#000000" font-family="sans-serif" font-size="13" font-weight="bold" lengthAdjust="spacing" textLength="18" x="626" y="586.4888">17</text><text fill="#000000" font-family="sans-serif" font-size="13" lengthAdjust="spacing" textLength="76" x="648" y="586.4888">getInTime()</text><polygon fill="#181818" points="630,616.6875,620,620.6875,630,624.6875,626,620.6875" style="stroke:#181818;stroke-width:1.0;"/><line style="stroke:#181818;stroke-width:1.0;stroke-dasharray:2.0,2.0;" x1="624" x2="1448" y1="620.6875" y2="620.6875"/><text fill="#000000" font-family="sans-serif" font-size="13" font-weight="bold" lengthAdjust="spacing" textLength="18" x="636" y="615.6216">18</text><text fill="#000000" font-family="sans-serif" font-size="13" lengthAdjust="spacing" textLength="30" x="658" y="615.6216">time</text><polygon fill="#181818" points="445.5,645.8203,435.5,649.8203,445.5,653.8203,441.5,649.8203" style="stroke:#181818;stroke-width:1.0;"/><line style="stroke:#181818;stroke-width:1.0;stroke-dasharray:2.0,2.0;" x1="439.5" x2="613" y1="649.8203" y2="649.8203"/><text fill="#000000" font-family="sans-serif" font-size="13" font-weight="bold" lengthAdjust="spacing" textLength="18" x="451.5" y="644.7544">19</text><text fill="#000000" font-family="sans-serif" font-size="13" lengthAdjust="spacing" textLength="30" x="473.5" y="644.7544">time</text><polygon fill="#181818" points="102.5,674.9531,92.5,678.9531,102.5,682.9531,98.5,678.9531" style="stroke:#181818;stroke-width:1.0;"/><line style="stroke:#181818;stroke-width:1.0;stroke-dasharray:2.0,2.0;" x1="96.5" x2="428.5" y1="678.9531" y2="678.9531"/><text fill="#000000" font-family="sans-serif" font-size="13" font-weight="bold" lengthAdjust="spacing" textLength="18" x="108.5" y="673.8872">20</text><text fill="#000000" font-family="sans-serif" font-size="13" lengthAdjust="spacing" textLength="282" x="130.5" y="673.8872">display the two subsets and the time taken</text><!--SRC=[XLN1Sk8m3BtxApIzB7lW1t9WXjBT7MRQfWFbjXUJAE0XiJEsGvU_NzaX9Y4EpQ5JItfFbfuip4d8ccjUGQMaoevQLGXMDyXCyDGyE_43RksbHD2OMIuFPJ_077ckleGyGC5BWupnnYhPL7lKZFquYXoXKChkrJ_6CwiqF6tfBy8xsY-bJ_369V7h9-06bYzlZ5Yjo4JDfOMdv4MSYM6BreFCRktZTkl7OIibhLPbUQLTVMvUxm0Rh9KH52pG-9XqysSOediHV-KOiFdraGuHF3yZ7GrMA6s8ln1u6VTudWdKa7f0i7ALPLOewGcoS1nYddLZyRVI6IxB0ztR7gisONTYxYDDn9bRzBrdG1_z0_C5zHWIQFiAzeXWq88g25s2yKq68Qq24X5CioUlOIq-C99Atk0-OYDE9qG2cKPoptu6Pq1ueOBPdHoAfA6h7D2kfQ7nonnqZ7K21Yjuq3oax8iPWd8SWFjfvmidRq8v9wIBtTvFH6Tr1yhlqqz9FBu8YzbkFRpoKRFJeftqLg1yifd3eYOkCghJH3iyLSOjCXuGP1ZupQimzc6zxPrluvtaljXbRfulllhPc33IXzxxw7mtKoTHITYqU6-gjBZnFnJesj7kCIKqcjhEeZpHPePN65oTfS_QbZn5EuPUowcvq6dnuTQ1gz9ys-RvOhUEe-vh3rD8G_CfAcJneRjlZt- -BluwgXED65LYknHtDs-NWzzJqPZ-gvalQATHAqrTyejVPhsj1LpchKsuNpz-GidkoFmcwntTglmF]--></g></svg>