<?xml version="1.0" encoding="us-ascii" standalone="no"?><svg xmlns="http://www.w3.org/2000/svg" xmlns:xlink="http://www.w3.org/1999/xlink" contentStyleType="text/css" height="1694px" preserveAspectRatio="none" style="width:1182px;height:1694px;background:#FFFFFF;" version="1.1" viewBox="0 0 1182 1694" width="1182px" zoomAndPan="magnify"><defs/><g><rect fill="#FFFFFF" height="1504.2109" style="stroke:#181818;stroke-width:1.0;" width="10" x="82" y="91.2969"/><rect fill="#FFFFFF" height="1483.0781" style="stroke:#181818;stroke-width:1.0;" width="10" x="384" y="112.4297"/><rect fill="#FFFFFF" height="1414.8125" style="stroke:#181818;stroke-width:1.0;" width="10" x="995" y="151.5625"/><rect fill="none" height="519.125" style="stroke:#000000;stroke-width:1.5;" width="511" x="10" y="930.75"/><line style="stroke:#181818;stroke-width:0.5;stroke-dasharray:5.0,5.0;" x1="87" x2="87" y1="81.2969" y2="1613.5078"/><line style="stroke:#181818;stroke-width:0.5;stroke-dasharray:5.0,5.0;" x1="389" x2="389" y1="81.2969" y2="1613.5078"/><line style="stroke:#181818;stroke-width:0.5;stroke-dasharray:5.0,5.0;" x1="999.5" x2="999.5" y1="151.0781" y2="1613.5078"/><text fill="#000000" font-family="sans-serif" font-size="14" lengthAdjust="spacing" textLength="128" x="20" y="77.9951">Unregistered User</text><ellipse cx="87" cy="13.5" fill="#E3E3E3" rx="8" ry="8" style="stroke:#181818;stroke-width:0.5;"/><path d="M87,21.5 L87,48.5 M74,29.5 L100,29.5 M87,48.5 L74,63.5 M87,48.5 L100,63.5 " fill="none" style="stroke:#181818;stroke-width:0.5;"/><text fill="#000000" font-family="sans-serif" font-size="14" lengthAdjust="spacing" textLength="128" x="20" y="1625.5029">Unregistered User</text><ellipse cx="87" cy="1637.3047" fill="#E3E3E3" rx="8" ry="8" style="stroke:#181818;stroke-width:0.5;"/><path d="M87,1645.3047 L87,1672.3047 M74,1653.3047 L100,1653.3047 M87,1672.3047 L74,1687.3047 M87,1672.3047 L100,1687.3047 " fill="none" style="stroke:#181818;stroke-width:0.5;"/><rect fill="#E3E3E3" height="30.2969" rx="2.5" ry="2.5" style="stroke:#181818;stroke-width:0.5;" width="124" x="327" y="50"/><text fill="#000000" font-family="sans-serif" font-size="14" lengthAdjust="spacing" textLength="110" x="334" y="69.9951">:RegisterUserUI</text><rect fill="#E3E3E3" height="30.2969" rx="2.5" ry="2.5" style="stroke:#181818;stroke-width:0.5;" width="124" x="327" y="1612.5078"/><text fill="#000000" font-family="sans-serif" font-size="14" lengthAdjust="spacing" textLength="110" x="334" y="1632.5029">:RegisterUserUI</text><rect fill="#E3E3E3" height="30.2969" rx="2.5" ry="2.5" style="stroke:#181818;stroke-width:0.5;" width="181" x="909.5" y="1612.5078"/><text fill="#000000" font-family="sans-serif" font-size="14" lengthAdjust="spacing" textLength="167" x="916.5" y="1632.5029">:RegisterUserController</text><rect fill="#FFFFFF" height="1504.2109" style="stroke:#181818;stroke-width:1.0;" width="10" x="82" y="91.2969"/><rect fill="#FFFFFF" height="1483.0781" style="stroke:#181818;stroke-width:1.0;" width="10" x="384" y="112.4297"/><rect fill="#FFFFFF" height="1414.8125" style="stroke:#181818;stroke-width:1.0;" width="10" x="995" y="151.5625"/><polygon fill="#181818" points="372,108.4297,382,112.4297,372,116.4297,376,112.4297" style="stroke:#181818;stroke-width:1.0;"/><line style="stroke:#181818;stroke-width:1.0;" x1="92" x2="378" y1="112.4297" y2="112.4297"/><text fill="#000000" font-family="sans-serif" font-size="13" font-weight="bold" lengthAdjust="spacing" textLength="9" x="99" y="107.3638">1</text><text fill="#000000" font-family="sans-serif" font-size="13" lengthAdjust="spacing" textLength="218" x="112" y="107.3638">asks to register in the application</text><polygon fill="#181818" points="897.5,137.5625,907.5,141.5625,897.5,145.5625,901.5,141.5625" style="stroke:#181818;stroke-width:1.0;"/><line style="stroke:#181818;stroke-width:1.0;" x1="394" x2="903.5" y1="141.5625" y2="141.5625"/><text fill="#000000" font-family="sans-serif" font-size="13" font-weight="bold" lengthAdjust="spacing" textLength="9" x="401" y="136.4966">2</text><text fill="#000000" font-family="sans-serif" font-size="13" lengthAdjust="spacing" textLength="51" x="414" y="136.4966">create()</text><rect fill="#E3E3E3" height="30.2969" rx="2.5" ry="2.5" style="stroke:#181818;stroke-width:0.5;" width="181" x="909.5" y="120.4297"/><text fill="#000000" font-family="sans-serif" font-size="14" lengthAdjust="spacing" textLength="167" x="916.5" y="140.4248">:RegisterUserController</text><rect fill="none" height="39.1016" style="stroke:#000000;stroke-width:1.5;" width="187" x="906.5" y="161.7266"/><path d="M906.5,161.7266 L972.5,161.7266 L972.5,168.7266 L962.5,178.7266 L906.5,178.7266 L906.5,161.7266 " fill="#EEEEEE" style="stroke:#000000;stroke-width:2.0;"/><text fill="#000000" font-family="sans-serif" font-size="13" font-weight="bold" lengthAdjust="spacing" textLength="21" x="919.5" y="175.7935">ref</text><text fill="#000000" font-family="sans-serif" font-size="12" lengthAdjust="spacing" textLength="97" x="951.5" y="193.8652">Get Repositories</text><polygon fill="#181818" points="103,222.9609,93,226.9609,103,230.9609,99,226.9609" style="stroke:#181818;stroke-width:1.0;"/><line style="stroke:#181818;stroke-width:1.0;stroke-dasharray:2.0,2.0;" x1="97" x2="383" y1="226.9609" y2="226.9609"/><text fill="#000000" font-family="sans-serif" font-size="13" font-weight="bold" lengthAdjust="spacing" textLength="9" x="109" y="221.895">3</text><text fill="#000000" font-family="sans-serif" font-size="13" lengthAdjust="spacing" textLength="93" x="122" y="221.895">asks for name</text><polygon fill="#181818" points="372,252.0938,382,256.0938,372,260.0938,376,256.0938" style="stroke:#181818;stroke-width:1.0;"/><line style="stroke:#181818;stroke-width:1.0;" x1="92" x2="378" y1="256.0938" y2="256.0938"/><text fill="#000000" font-family="sans-serif" font-size="13" font-weight="bold" lengthAdjust="spacing" textLength="9" x="99" y="251.0278">4</text><text fill="#000000" font-family="sans-serif" font-size="13" lengthAdjust="spacing" textLength="71" x="112" y="251.0278">sends data</text><line style="stroke:#181818;stroke-width:1.0;" x1="394" x2="436" y1="285.2266" y2="285.2266"/><line style="stroke:#181818;stroke-width:1.0;" x1="436" x2="436" y1="285.2266" y2="298.2266"/><line style="stroke:#181818;stroke-width:1.0;" x1="395" x2="436" y1="298.2266" y2="298.2266"/><polygon fill="#181818" points="405,294.2266,395,298.2266,405,302.2266,401,298.2266" style="stroke:#181818;stroke-width:1.0;"/><text fill="#000000" font-family="sans-serif" font-size="13" font-weight="bold" lengthAdjust="spacing" textLength="9" x="401" y="280.1606">5</text><text fill="#000000" font-family="sans-serif" font-size="13" lengthAdjust="spacing" textLength="71" x="414" y="280.1606">keepName</text><polygon fill="#181818" points="103,323.3594,93,327.3594,103,331.3594,99,327.3594" style="stroke:#181818;stroke-width:1.0;"/><line style="stroke:#181818;stroke-width:1.0;stroke-dasharray:2.0,2.0;" x1="97" x2="383" y1="327.3594" y2="327.3594"/><text fill="#000000" font-family="sans-serif" font-size="13" font-weight="bold" lengthAdjust="spacing" textLength="9" x="109" y="322.2935">6</text><text fill="#000000" font-family="sans-serif" font-size="13" lengthAdjust="spacing" textLength="98" x="122" y="322.2935">asks for e-mail</text><polygon fill="#181818" points="372,352.4922,382,356.4922,372,360.4922,376,356.4922" style="stroke:#181818;stroke-width:1.0;"/><line style="stroke:#181818;stroke-width:1.0;" x1="92" x2="378" y1="356.4922" y2="356.4922"/><text fill="#000000" font-family="sans-serif" font-size="13" font-weight="bold" lengthAdjust="spacing" textLength="9" x="99" y="351.4263">7</text><text fill="#000000" font-family="sans-serif" font-size="13" lengthAdjust="spacing" textLength="71" x="112" y="351.4263">sends data</text><line style="stroke:#181818;stroke-width:1.0;" x1="394" x2="436" y1="385.625" y2="385.625"/><line style="stroke:#181818;stroke-width:1.0;" x1="436" x2="436" y1="385.625" y2="398.625"/><line style="stroke:#181818;stroke-width:1.0;" x1="395" x2="436" y1="398.625" y2="398.625"/><polygon fill="#181818" points="405,394.625,395,398.625,405,402.625,401,398.625" style="stroke:#181818;stroke-width:1.0;"/><text fill="#000000" font-family="sans-serif" font-size="13" font-weight="bold" lengthAdjust="spacing" textLength="9" x="401" y="380.5591">8</text><text fill="#000000" font-family="sans-serif" font-size="13" lengthAdjust="spacing" textLength="69" x="414" y="380.5591">keepEmail</text><polygon fill="#181818" points="103,423.7578,93,427.7578,103,431.7578,99,427.7578" style="stroke:#181818;stroke-width:1.0;"/><line style="stroke:#181818;stroke-width:1.0;stroke-dasharray:2.0,2.0;" x1="97" x2="383" y1="427.7578" y2="427.7578"/><text fill="#000000" font-family="sans-serif" font-size="13" font-weight="bold" lengthAdjust="spacing" textLength="9" x="109" y="422.6919">9</text><text fill="#000000" font-family="sans-serif" font-size="13" lengthAdjust="spacing" textLength="118" x="122" y="422.6919">asks for password</text><polygon fill="#181818" points="372,452.8906,382,456.8906,372,460.8906,376,456.8906" style="stroke:#181818;stroke-width:1.0;"/><line style="stroke:#181818;stroke-width:1.0;" x1="92" x2="378" y1="456.8906" y2="456.8906"/><text fill="#000000" font-family="sans-serif" font-size="13" font-weight="bold" lengthAdjust="spacing" textLength="18" x="99" y="451.8247">10</text><text fill="#000000" font-family="sans-serif" font-size="13" lengthAdjust="spacing" textLength="71" x="121" y="451.8247">sends data</text><line style="stroke:#181818;stroke-width:1.0;" x1="394" x2="436" y1="486.0234" y2="486.0234"/><line style="stroke:#181818;stroke-width:1.0;" x1="436" x2="436" y1="486.0234" y2="499.0234"/><line style="stroke:#181818;stroke-width:1.0;" x1="395" x2="436" y1="499.0234" y2="499.0234"/><polygon fill="#181818" points="405,495.0234,395,499.0234,405,503.0234,401,499.0234" style="stroke:#181818;stroke-width:1.0;"/><text fill="#000000" font-family="sans-serif" font-size="13" font-weight="bold" lengthAdjust="spacing" textLength="18" x="401" y="480.9575">11</text><text fill="#000000" font-family="sans-serif" font-size="13" lengthAdjust="spacing" textLength="94" x="423" y="480.9575">keepPassword</text><polygon fill="#181818" points="103,524.1563,93,528.1563,103,532.1563,99,528.1563" style="stroke:#181818;stroke-width:1.0;"/><line style="stroke:#181818;stroke-width:1.0;stroke-dasharray:2.0,2.0;" x1="97" x2="383" y1="528.1563" y2="528.1563"/><text fill="#000000" font-family="sans-serif" font-size="13" font-weight="bold" lengthAdjust="spacing" textLength="18" x="109" y="523.0903">12</text><text fill="#000000" font-family="sans-serif" font-size="13" lengthAdjust="spacing" textLength="151" x="131" y="523.0903">asks for citizenNumber</text><polygon fill="#181818" points="372,553.2891,382,557.2891,372,561.2891,376,557.2891" style="stroke:#181818;stroke-width:1.0;"/><line style="stroke:#181818;stroke-width:1.0;" x1="92" x2="378" y1="557.2891" y2="557.2891"/><text fill="#000000" font-family="sans-serif" font-size="13" font-weight="bold" lengthAdjust="spacing" textLength="18" x="99" y="552.2231">13</text><text fill="#000000" font-family="sans-serif" font-size="13" lengthAdjust="spacing" textLength="71" x="121" y="552.2231">sends data</text><line style="stroke:#181818;stroke-width:1.0;" x1="394" x2="436" y1="586.4219" y2="586.4219"/><line style="stroke:#181818;stroke-width:1.0;" x1="436" x2="436" y1="586.4219" y2="599.4219"/><line style="stroke:#181818;stroke-width:1.0;" x1="395" x2="436" y1="599.4219" y2="599.4219"/><polygon fill="#181818" points="405,595.4219,395,599.4219,405,603.4219,401,599.4219" style="stroke:#181818;stroke-width:1.0;"/><text fill="#000000" font-family="sans-serif" font-size="13" font-weight="bold" lengthAdjust="spacing" textLength="18" x="401" y="581.356">14</text><text fill="#000000" font-family="sans-serif" font-size="13" lengthAdjust="spacing" textLength="129" x="423" y="581.356">keepCitizenNumber</text><polygon fill="#181818" points="103,624.5547,93,628.5547,103,632.5547,99,628.5547" style="stroke:#181818;stroke-width:1.0;"/><line style="stroke:#181818;stroke-width:1.0;stroke-dasharray:2.0,2.0;" x1="97" x2="383" y1="628.5547" y2="628.5547"/><text fill="#000000" font-family="sans-serif" font-size="13" font-weight="bold" lengthAdjust="spacing" textLength="18" x="109" y="623.4888">15</text><text fill="#000000" font-family="sans-serif" font-size="13" lengthAdjust="spacing" textLength="73" x="131" y="623.4888">asks for tin</text><polygon fill="#181818" points="372,653.6875,382,657.6875,372,661.6875,376,657.6875" style="stroke:#181818;stroke-width:1.0;"/><line style="stroke:#181818;stroke-width:1.0;" x1="92" x2="378" y1="657.6875" y2="657.6875"/><text fill="#000000" font-family="sans-serif" font-size="13" font-weight="bold" lengthAdjust="spacing" textLength="18" x="99" y="652.6216">16</text><text fill="#000000" font-family="sans-serif" font-size="13" lengthAdjust="spacing" textLength="71" x="121" y="652.6216">sends data</text><line style="stroke:#181818;stroke-width:1.0;" x1="394" x2="436" y1="686.8203" y2="686.8203"/><line style="stroke:#181818;stroke-width:1.0;" x1="436" x2="436" y1="686.8203" y2="699.8203"/><line style="stroke:#181818;stroke-width:1.0;" x1="395" x2="436" y1="699.8203" y2="699.8203"/><polygon fill="#181818" points="405,695.8203,395,699.8203,405,703.8203,401,699.8203" style="stroke:#181818;stroke-width:1.0;"/><text fill="#000000" font-family="sans-serif" font-size="13" font-weight="bold" lengthAdjust="spacing" textLength="18" x="401" y="681.7544">17</text><text fill="#000000" font-family="sans-serif" font-size="13" lengthAdjust="spacing" textLength="52" x="423" y="681.7544">keepTin</text><polygon fill="#181818" points="103,724.9531,93,728.9531,103,732.9531,99,728.9531" style="stroke:#181818;stroke-width:1.0;"/><line style="stroke:#181818;stroke-width:1.0;stroke-dasharray:2.0,2.0;" x1="97" x2="383" y1="728.9531" y2="728.9531"/><text fill="#000000" font-family="sans-serif" font-size="13" font-weight="bold" lengthAdjust="spacing" textLength="18" x="109" y="723.8872">18</text><text fill="#000000" font-family="sans-serif" font-size="13" lengthAdjust="spacing" textLength="150" x="131" y="723.8872">asks for phone number</text><polygon fill="#181818" points="372,754.0859,382,758.0859,372,762.0859,376,758.0859" style="stroke:#181818;stroke-width:1.0;"/><line style="stroke:#181818;stroke-width:1.0;" x1="92" x2="378" y1="758.0859" y2="758.0859"/><text fill="#000000" font-family="sans-serif" font-size="13" font-weight="bold" lengthAdjust="spacing" textLength="18" x="99" y="753.02">19</text><text fill="#000000" font-family="sans-serif" font-size="13" lengthAdjust="spacing" textLength="71" x="121" y="753.02">sends data</text><line style="stroke:#181818;stroke-width:1.0;" x1="394" x2="436" y1="787.2188" y2="787.2188"/><line style="stroke:#181818;stroke-width:1.0;" x1="436" x2="436" y1="787.2188" y2="800.2188"/><line style="stroke:#181818;stroke-width:1.0;" x1="395" x2="436" y1="800.2188" y2="800.2188"/><polygon fill="#181818" points="405,796.2188,395,800.2188,405,804.2188,401,800.2188" style="stroke:#181818;stroke-width:1.0;"/><text fill="#000000" font-family="sans-serif" font-size="13" font-weight="bold" lengthAdjust="spacing" textLength="18" x="401" y="782.1528">20</text><text fill="#000000" font-family="sans-serif" font-size="13" lengthAdjust="spacing" textLength="124" x="423" y="782.1528">keepPhoneNumber</text><polygon fill="#181818" points="103,840.4844,93,844.4844,103,848.4844,99,844.4844" style="stroke:#181818;stroke-width:1.0;"/><line style="stroke:#181818;stroke-width:1.0;" x1="97" x2="383" y1="844.4844" y2="844.4844"/><text fill="#000000" font-family="sans-serif" font-size="13" font-weight="bold" lengthAdjust="spacing" textLength="18" x="109" y="831.8521">21</text><text fill="#000000" font-family="sans-serif" font-size="13" lengthAdjust="spacing" textLength="246" x="131" y="824.2856">asks if the unregistered user wants to</text><text fill="#000000" font-family="sans-serif" font-size="13" lengthAdjust="spacing" textLength="172" x="139" y="839.4185">give the new user location</text><polygon fill="#181818" points="372,869.6172,382,873.6172,372,877.6172,376,873.6172" style="stroke:#181818;stroke-width:1.0;"/><line style="stroke:#181818;stroke-width:1.0;" x1="92" x2="378" y1="873.6172" y2="873.6172"/><text fill="#000000" font-family="sans-serif" font-size="13" font-weight="bold" lengthAdjust="spacing" textLength="18" x="99" y="868.5513">22</text><text fill="#000000" font-family="sans-serif" font-size="13" lengthAdjust="spacing" textLength="62" x="121" y="868.5513">true/false</text><line style="stroke:#181818;stroke-width:1.0;" x1="394" x2="436" y1="902.75" y2="902.75"/><line style="stroke:#181818;stroke-width:1.0;" x1="436" x2="436" y1="902.75" y2="915.75"/><line style="stroke:#181818;stroke-width:1.0;" x1="395" x2="436" y1="915.75" y2="915.75"/><polygon fill="#181818" points="405,911.75,395,915.75,405,919.75,401,915.75" style="stroke:#181818;stroke-width:1.0;"/><text fill="#000000" font-family="sans-serif" font-size="13" font-weight="bold" lengthAdjust="spacing" textLength="18" x="401" y="897.6841">23</text><text fill="#000000" font-family="sans-serif" font-size="13" lengthAdjust="spacing" textLength="41" x="423" y="897.6841">option</text><path d="M10,930.75 L84,930.75 L84,937.8828 L74,947.8828 L10,947.8828 L10,930.75 " fill="#EEEEEE" style="stroke:#000000;stroke-width:1.5;"/><rect fill="none" height="519.125" style="stroke:#000000;stroke-width:1.5;" width="511" x="10" y="930.75"/><text fill="#000000" font-family="sans-serif" font-size="13" font-weight="bold" lengthAdjust="spacing" textLength="24" x="25" y="943.8169">opt</text><text fill="#000000" font-family="sans-serif" font-size="11" font-weight="bold" lengthAdjust="spacing" textLength="35" x="99" y="942.9604">[true]</text><polygon fill="#181818" points="103,965.0156,93,969.0156,103,973.0156,99,969.0156" style="stroke:#181818;stroke-width:1.0;"/><line style="stroke:#181818;stroke-width:1.0;stroke-dasharray:2.0,2.0;" x1="97" x2="383" y1="969.0156" y2="969.0156"/><text fill="#000000" font-family="sans-serif" font-size="13" font-weight="bold" lengthAdjust="spacing" textLength="18" x="109" y="963.9497">24</text><text fill="#000000" font-family="sans-serif" font-size="13" lengthAdjust="spacing" textLength="94" x="131" y="963.9497">asks for street</text><polygon fill="#181818" points="372,994.1484,382,998.1484,372,1002.1484,376,998.1484" style="stroke:#181818;stroke-width:1.0;"/><line style="stroke:#181818;stroke-width:1.0;" x1="92" x2="378" y1="998.1484" y2="998.1484"/><text fill="#000000" font-family="sans-serif" font-size="13" font-weight="bold" lengthAdjust="spacing" textLength="18" x="99" y="993.0825">25</text><text fill="#000000" font-family="sans-serif" font-size="13" lengthAdjust="spacing" textLength="71" x="121" y="993.0825">sends data</text><line style="stroke:#181818;stroke-width:1.0;" x1="394" x2="436" y1="1027.2813" y2="1027.2813"/><line style="stroke:#181818;stroke-width:1.0;" x1="436" x2="436" y1="1027.2813" y2="1040.2813"/><line style="stroke:#181818;stroke-width:1.0;" x1="395" x2="436" y1="1040.2813" y2="1040.2813"/><polygon fill="#181818" points="405,1036.2813,395,1040.2813,405,1044.2813,401,1040.2813" style="stroke:#181818;stroke-width:1.0;"/><text fill="#000000" font-family="sans-serif" font-size="13" font-weight="bold" lengthAdjust="spacing" textLength="18" x="401" y="1022.2153">26</text><text fill="#000000" font-family="sans-serif" font-size="13" lengthAdjust="spacing" textLength="71" x="423" y="1022.2153">keepStreet</text><polygon fill="#181818" points="103,1065.4141,93,1069.4141,103,1073.4141,99,1069.4141" style="stroke:#181818;stroke-width:1.0;"/><line style="stroke:#181818;stroke-width:1.0;stroke-dasharray:2.0,2.0;" x1="97" x2="383" y1="1069.4141" y2="1069.4141"/><text fill="#000000" font-family="sans-serif" font-size="13" font-weight="bold" lengthAdjust="spacing" textLength="18" x="109" y="1064.3481">27</text><text fill="#000000" font-family="sans-serif" font-size="13" lengthAdjust="spacing" textLength="106" x="131" y="1064.3481">asks for zipcode</text><polygon fill="#181818" points="372,1094.5469,382,1098.5469,372,1102.5469,376,1098.5469" style="stroke:#181818;stroke-width:1.0;"/><line style="stroke:#181818;stroke-width:1.0;" x1="92" x2="378" y1="1098.5469" y2="1098.5469"/><text fill="#000000" font-family="sans-serif" font-size="13" font-weight="bold" lengthAdjust="spacing" textLength="18" x="99" y="1093.481">28</text><text fill="#000000" font-family="sans-serif" font-size="13" lengthAdjust="spacing" textLength="71" x="121" y="1093.481">sends data</text><line style="stroke:#181818;stroke-width:1.0;" x1="394" x2="436" y1="1127.6797" y2="1127.6797"/><line style="stroke:#181818;stroke-width:1.0;" x1="436" x2="436" y1="1127.6797" y2="1140.6797"/><line style="stroke:#181818;stroke-width:1.0;" x1="395" x2="436" y1="1140.6797" y2="1140.6797"/><polygon fill="#181818" points="405,1136.6797,395,1140.6797,405,1144.6797,401,1140.6797" style="stroke:#181818;stroke-width:1.0;"/><text fill="#000000" font-family="sans-serif" font-size="13" font-weight="bold" lengthAdjust="spacing" textLength="18" x="401" y="1122.6138">29</text><text fill="#000000" font-family="sans-serif" font-size="13" lengthAdjust="spacing" textLength="86" x="423" y="1122.6138">keepZipCode</text><polygon fill="#181818" points="103,1165.8125,93,1169.8125,103,1173.8125,99,1169.8125" style="stroke:#181818;stroke-width:1.0;"/><line style="stroke:#181818;stroke-width:1.0;stroke-dasharray:2.0,2.0;" x1="97" x2="383" y1="1169.8125" y2="1169.8125"/><text fill="#000000" font-family="sans-serif" font-size="13" font-weight="bold" lengthAdjust="spacing" textLength="18" x="109" y="1164.7466">30</text><text fill="#000000" font-family="sans-serif" font-size="13" lengthAdjust="spacing" textLength="89" x="131" y="1164.7466">asks for state</text><polygon fill="#181818" points="372,1194.9453,382,1198.9453,372,1202.9453,376,1198.9453" style="stroke:#181818;stroke-width:1.0;"/><line style="stroke:#181818;stroke-width:1.0;" x1="92" x2="378" y1="1198.9453" y2="1198.9453"/><text fill="#000000" font-family="sans-serif" font-size="13" font-weight="bold" lengthAdjust="spacing" textLength="18" x="99" y="1193.8794">31</text><text fill="#000000" font-family="sans-serif" font-size="13" lengthAdjust="spacing" textLength="71" x="121" y="1193.8794">sends data</text><line style="stroke:#181818;stroke-width:1.0;" x1="394" x2="436" y1="1228.0781" y2="1228.0781"/><line style="stroke:#181818;stroke-width:1.0;" x1="436" x2="436" y1="1228.0781" y2="1241.0781"/><line style="stroke:#181818;stroke-width:1.0;" x1="395" x2="436" y1="1241.0781" y2="1241.0781"/><polygon fill="#181818" points="405,1237.0781,395,1241.0781,405,1245.0781,401,1241.0781" style="stroke:#181818;stroke-width:1.0;"/><text fill="#000000" font-family="sans-serif" font-size="13" font-weight="bold" lengthAdjust="spacing" textLength="18" x="401" y="1223.0122">32</text><text fill="#000000" font-family="sans-serif" font-size="13" lengthAdjust="spacing" textLength="84" x="423" y="1223.0122">keepStateUS</text><polygon fill="#181818" points="103,1266.2109,93,1270.2109,103,1274.2109,99,1270.2109" style="stroke:#181818;stroke-width:1.0;"/><line style="stroke:#181818;stroke-width:1.0;stroke-dasharray:2.0,2.0;" x1="97" x2="383" y1="1270.2109" y2="1270.2109"/><text fill="#000000" font-family="sans-serif" font-size="13" font-weight="bold" lengthAdjust="spacing" textLength="18" x="109" y="1265.145">33</text><text fill="#000000" font-family="sans-serif" font-size="13" lengthAdjust="spacing" textLength="80" x="131" y="1265.145">asks for city</text><polygon fill="#181818" points="372,1295.3438,382,1299.3438,372,1303.3438,376,1299.3438" style="stroke:#181818;stroke-width:1.0;"/><line style="stroke:#181818;stroke-width:1.0;" x1="92" x2="378" y1="1299.3438" y2="1299.3438"/><text fill="#000000" font-family="sans-serif" font-size="13" font-weight="bold" lengthAdjust="spacing" textLength="18" x="99" y="1294.2778">34</text><text fill="#000000" font-family="sans-serif" font-size="13" lengthAdjust="spacing" textLength="71" x="121" y="1294.2778">sends data</text><line style="stroke:#181818;stroke-width:1.0;" x1="394" x2="436" y1="1328.4766" y2="1328.4766"/><line style="stroke:#181818;stroke-width:1.0;" x1="436" x2="436" y1="1328.4766" y2="1341.4766"/><line style="stroke:#181818;stroke-width:1.0;" x1="395" x2="436" y1="1341.4766" y2="1341.4766"/><polygon fill="#181818" points="405,1337.4766,395,1341.4766,405,1345.4766,401,1341.4766" style="stroke:#181818;stroke-width:1.0;"/><text fill="#000000" font-family="sans-serif" font-size="13" font-weight="bold" lengthAdjust="spacing" textLength="18" x="401" y="1323.4106">35</text><text fill="#000000" font-family="sans-serif" font-size="13" lengthAdjust="spacing" textLength="58" x="423" y="1323.4106">keepCity</text><polygon fill="#181818" points="103,1366.6094,93,1370.6094,103,1374.6094,99,1370.6094" style="stroke:#181818;stroke-width:1.0;"/><line style="stroke:#181818;stroke-width:1.0;stroke-dasharray:2.0,2.0;" x1="97" x2="383" y1="1370.6094" y2="1370.6094"/><text fill="#000000" font-family="sans-serif" font-size="13" font-weight="bold" lengthAdjust="spacing" textLength="18" x="109" y="1365.5435">36</text><text fill="#000000" font-family="sans-serif" font-size="13" lengthAdjust="spacing" textLength="101" x="131" y="1365.5435">asks for district</text><polygon fill="#181818" points="372,1395.7422,382,1399.7422,372,1403.7422,376,1399.7422" style="stroke:#181818;stroke-width:1.0;"/><line style="stroke:#181818;stroke-width:1.0;" x1="92" x2="378" y1="1399.7422" y2="1399.7422"/><text fill="#000000" font-family="sans-serif" font-size="13" font-weight="bold" lengthAdjust="spacing" textLength="18" x="99" y="1394.6763">37</text><text fill="#000000" font-family="sans-serif" font-size="13" lengthAdjust="spacing" textLength="71" x="121" y="1394.6763">sends data</text><line style="stroke:#181818;stroke-width:1.0;" x1="394" x2="436" y1="1428.875" y2="1428.875"/><line style="stroke:#181818;stroke-width:1.0;" x1="436" x2="436" y1="1428.875" y2="1441.875"/><line style="stroke:#181818;stroke-width:1.0;" x1="395" x2="436" y1="1441.875" y2="1441.875"/><polygon fill="#181818" points="405,1437.875,395,1441.875,405,1445.875,401,1441.875" style="stroke:#181818;stroke-width:1.0;"/><text fill="#000000" font-family="sans-serif" font-size="13" font-weight="bold" lengthAdjust="spacing" textLength="18" x="401" y="1423.8091">38</text><text fill="#000000" font-family="sans-serif" font-size="13" lengthAdjust="spacing" textLength="79" x="423" y="1423.8091">keepDistrict</text><polygon fill="#181818" points="983,1489.1406,993,1493.1406,983,1497.1406,987,1493.1406" style="stroke:#181818;stroke-width:1.0;"/><line style="stroke:#181818;stroke-width:1.0;" x1="394" x2="989" y1="1493.1406" y2="1493.1406"/><text fill="#000000" font-family="sans-serif" font-size="13" font-weight="bold" lengthAdjust="spacing" textLength="18" x="401" y="1480.5083">39</text><text fill="#000000" font-family="sans-serif" font-size="13" lengthAdjust="spacing" textLength="405" x="423" y="1472.9419">registerUserWithClientAndOwnerPerms(keepName,keepEmail</text><text fill="#000000" font-family="sans-serif" font-size="13" lengthAdjust="spacing" textLength="551" x="427" y="1488.0747">,keepPassword,Roles,keepCitizenNumber,keepPhoneNumber,keepTin,keepLocation)</text><rect fill="none" height="39.1016" style="stroke:#000000;stroke-width:1.5;" width="270" x="906.5" y="1501.1406"/><path d="M906.5,1501.1406 L972.5,1501.1406 L972.5,1508.1406 L962.5,1518.1406 L906.5,1518.1406 L906.5,1501.1406 " fill="#EEEEEE" style="stroke:#000000;stroke-width:2.0;"/><text fill="#000000" font-family="sans-serif" font-size="13" font-weight="bold" lengthAdjust="spacing" textLength="21" x="919.5" y="1515.2075">ref</text><text fill="#000000" font-family="sans-serif" font-size="12" lengthAdjust="spacing" textLength="262" x="910.5" y="1533.2793">Register User With Client And Owner Perms</text><polygon fill="#181818" points="405,1562.375,395,1566.375,405,1570.375,401,1566.375" style="stroke:#181818;stroke-width:1.0;"/><line style="stroke:#181818;stroke-width:1.0;stroke-dasharray:2.0,2.0;" x1="399" x2="999" y1="1566.375" y2="1566.375"/><text fill="#000000" font-family="sans-serif" font-size="13" font-weight="bold" lengthAdjust="spacing" textLength="18" x="411" y="1561.3091">40</text><text fill="#000000" font-family="sans-serif" font-size="13" lengthAdjust="spacing" textLength="62" x="433" y="1561.3091">true/false</text><polygon fill="#181818" points="98,1591.5078,88,1595.5078,98,1599.5078,94,1595.5078" style="stroke:#181818;stroke-width:1.0;"/><line style="stroke:#181818;stroke-width:1.0;stroke-dasharray:2.0,2.0;" x1="92" x2="388" y1="1595.5078" y2="1595.5078"/><text fill="#000000" font-family="sans-serif" font-size="13" font-weight="bold" lengthAdjust="spacing" textLength="18" x="104" y="1590.4419">41</text><text fill="#000000" font-family="sans-serif" font-size="13" lengthAdjust="spacing" textLength="168" x="126" y="1590.4419">display operation success</text><!--SRC=[rLPDR-8m4BtxLunwsRO2xPr3fOgkLaZTRWMDLjgFWviCO97Obkt0qb-_OoU4G4ANY5pg2nyUltdF7pFFheJKtF0CCYLLl3GgGt0cHsQh6StZ5L_Wp6rJ18EnutAHrWFiaYTg8-G2vZoro1ZFdP9vzeg6iKzBaI3CbNAlwY_ZiLC6hY9fS26iGuC9H1RD5N0Bzm_V624w4GlDfOEhqRICyY7H90H5atTYnaewezAq11o_J1-PpodMt670Pq23li3mZg1WH64h2qx1ZX082Mw9mBLEHSoTK98LgoeSeX3-y8Cm2CadkhqTGMoG0gvlgkbgJQ02jM5m3cfD-HepVdn51rFKoWhQBu7s801bufSt5YNOdivp7DwHw5Bjd8v0yWptAgeD6O4bT0i9T_nO9Csk4FNJmSesR1ncNAIimQzBbY-746rfDBTseqnoMQBd1afRhbWuyORogRpKS6By9t4hWV4XzBiqd93z9d-f0xPkyb9917bATwUTzb37ErX4x7EAUNXzURr0vFIoOKEltJ_Ktn9W8TOOmYHkYjbKbKyLpXXxqhxIVIwB5lGqeabPMfGkYaTVm0kZSWs42hyyxp-i6tJRwLfd4Ds55C-yT-ToB93yXPcLx3fXjSby4pfMIKzdtAFSLjK_XHu7ikpYmwLEy34qpppLQ7RvXQOwlUtfnVMl-KZqk2lNDi495KaZOlSnplcXOjiHr5kUKF_Qd1UvE5CpWJ-4MuvJWTBTo-JxHg9vHfFPwvrv6LJ-Wdh9eEu11bELeXqqklBWg7qDojOPFX_BrdF3ElYxdMaDvXSyOoWe0t66G1e2wrRZL_qPr0yRlUoK8Jpgz4NRfHkaKxwbne8c206Rnp5QkmkleNZdM_lf3VK_]--></g></svg>