<?xml version="1.0" encoding="us-ascii" standalone="no"?><svg xmlns="http://www.w3.org/2000/svg" xmlns:xlink="http://www.w3.org/1999/xlink" contentStyleType="text/css" height="748px" preserveAspectRatio="none" style="width:502px;height:748px;background:#FFFFFF;" version="1.1" viewBox="0 0 502 748" width="502px" zoomAndPan="magnify"><defs/><g><text fill="#000000" font-family="sans-serif" font-size="14" font-weight="bold" lengthAdjust="spacing" textLength="228" x="138" y="30.1074">System Sequence Diagram (SSD)</text><rect fill="#FFFFFF" height="523.5781" style="stroke:#181818;stroke-width:1.0;" width="10" x="84" y="133.2422"/><rect fill="#FFFFFF" height="48.582" style="stroke:#181818;stroke-width:1.0;" width="10" x="448" y="156.5332"/><rect fill="#FFFFFF" height="31.291" style="stroke:#181818;stroke-width:1.0;" width="10" x="448" y="236.4063"/><rect fill="#FFFFFF" height="31.291" style="stroke:#181818;stroke-width:1.0;" width="10" x="448" y="298.9883"/><rect fill="#FFFFFF" height="31.291" style="stroke:#181818;stroke-width:1.0;" width="10" x="448" y="405.1523"/><rect fill="#FFFFFF" height="31.291" style="stroke:#181818;stroke-width:1.0;" width="10" x="448" y="484.3652"/><rect fill="#FFFFFF" height="31.291" style="stroke:#181818;stroke-width:1.0;" width="10" x="448" y="553.9473"/><rect fill="#FFFFFF" height="31.291" style="stroke:#181818;stroke-width:1.0;" width="10" x="448" y="616.5293"/><rect fill="none" height="178.377" style="stroke:#000000;stroke-width:1.5;" width="485" x="10" y="345.2793"/><line style="stroke:#181818;stroke-width:0.5;stroke-dasharray:5.0,5.0;" x1="89" x2="89" y1="123.2422" y2="665.8203"/><line style="stroke:#181818;stroke-width:0.5;stroke-dasharray:5.0,5.0;" x1="453" x2="453" y1="123.2422" y2="665.8203"/><text fill="#000000" font-family="sans-serif" font-size="14" lengthAdjust="spacing" textLength="132" x="20" y="119.7285">System administrator</text><ellipse cx="89" cy="53.1211" fill="#E3E3E3" rx="8" ry="8" style="stroke:#181818;stroke-width:0.5;"/><path d="M89,61.1211 L89,88.1211 M76,69.1211 L102,69.1211 M89,88.1211 L76,103.1211 M89,88.1211 L102,103.1211 " fill="none" style="stroke:#181818;stroke-width:0.5;"/><text fill="#000000" font-family="sans-serif" font-size="14" lengthAdjust="spacing" textLength="132" x="20" y="679.9277">System administrator</text><ellipse cx="89" cy="691.9414" fill="#E3E3E3" rx="8" ry="8" style="stroke:#181818;stroke-width:0.5;"/><path d="M89,699.9414 L89,726.9414 M76,707.9414 L102,707.9414 M89,726.9414 L76,741.9414 M89,726.9414 L102,741.9414 " fill="none" style="stroke:#181818;stroke-width:0.5;"/><rect fill="#E3E3E3" height="32.6211" rx="2.5" ry="2.5" style="stroke:#181818;stroke-width:0.5;" width="64" x="421" y="89.6211"/><text fill="#000000" font-family="sans-serif" font-size="14" lengthAdjust="spacing" textLength="50" x="428" y="111.7285">:System</text><rect fill="#E3E3E3" height="32.6211" rx="2.5" ry="2.5" style="stroke:#181818;stroke-width:0.5;" width="64" x="421" y="664.8203"/><text fill="#000000" font-family="sans-serif" font-size="14" lengthAdjust="spacing" textLength="50" x="428" y="686.9277">:System</text><rect fill="#FFFFFF" height="523.5781" style="stroke:#181818;stroke-width:1.0;" width="10" x="84" y="133.2422"/><rect fill="#FFFFFF" height="48.582" style="stroke:#181818;stroke-width:1.0;" width="10" x="448" y="156.5332"/><rect fill="#FFFFFF" height="31.291" style="stroke:#181818;stroke-width:1.0;" width="10" x="448" y="236.4063"/><rect fill="#FFFFFF" height="31.291" style="stroke:#181818;stroke-width:1.0;" width="10" x="448" y="298.9883"/><rect fill="#FFFFFF" height="31.291" style="stroke:#181818;stroke-width:1.0;" width="10" x="448" y="405.1523"/><rect fill="#FFFFFF" height="31.291" style="stroke:#181818;stroke-width:1.0;" width="10" x="448" y="484.3652"/><rect fill="#FFFFFF" height="31.291" style="stroke:#181818;stroke-width:1.0;" width="10" x="448" y="553.9473"/><rect fill="#FFFFFF" height="31.291" style="stroke:#181818;stroke-width:1.0;" width="10" x="448" y="616.5293"/><polygon fill="#181818" points="436,152.5332,446,156.5332,436,160.5332,440,156.5332" style="stroke:#181818;stroke-width:1.0;"/><line style="stroke:#181818;stroke-width:1.0;" x1="94" x2="442" y1="156.5332" y2="156.5332"/><text fill="#000000" font-family="sans-serif" font-size="13" font-weight="bold" lengthAdjust="spacing" textLength="7" x="101" y="151.2705">1</text><text fill="#000000" font-family="sans-serif" font-size="13" lengthAdjust="spacing" textLength="192" x="112" y="151.2705">asks to register a new employee.</text><polygon fill="#181818" points="105,201.1152,95,205.1152,105,209.1152,101,205.1152" style="stroke:#181818;stroke-width:1.0;"/><line style="stroke:#181818;stroke-width:1.0;stroke-dasharray:2.0,2.0;" x1="99" x2="452" y1="205.1152" y2="205.1152"/><text fill="#000000" font-family="sans-serif" font-size="13" font-weight="bold" lengthAdjust="spacing" textLength="7" x="111" y="191.207">2</text><text fill="#000000" font-family="sans-serif" font-size="13" lengthAdjust="spacing" textLength="314" x="122" y="182.5615">requests employee data (name, citizen's card number,</text><text fill="#000000" font-family="sans-serif" font-size="13" lengthAdjust="spacing" textLength="223" x="126" y="199.8525">tax number, e-mail, telephone number)</text><polygon fill="#181818" points="436,232.4063,446,236.4063,436,240.4063,440,236.4063" style="stroke:#181818;stroke-width:1.0;"/><line style="stroke:#181818;stroke-width:1.0;" x1="94" x2="442" y1="236.4063" y2="236.4063"/><text fill="#000000" font-family="sans-serif" font-size="13" font-weight="bold" lengthAdjust="spacing" textLength="7" x="101" y="231.1436">3</text><text fill="#000000" font-family="sans-serif" font-size="13" lengthAdjust="spacing" textLength="181" x="112" y="231.1436">types the employee information</text><polygon fill="#181818" points="105,263.6973,95,267.6973,105,271.6973,101,267.6973" style="stroke:#181818;stroke-width:1.0;"/><line style="stroke:#181818;stroke-width:1.0;stroke-dasharray:2.0,2.0;" x1="99" x2="452" y1="267.6973" y2="267.6973"/><text fill="#000000" font-family="sans-serif" font-size="13" font-weight="bold" lengthAdjust="spacing" textLength="7" x="111" y="262.4346">4</text><text fill="#000000" font-family="sans-serif" font-size="13" lengthAdjust="spacing" textLength="238" x="122" y="262.4346">requests data for the employee's address</text><polygon fill="#181818" points="436,294.9883,446,298.9883,436,302.9883,440,298.9883" style="stroke:#181818;stroke-width:1.0;"/><line style="stroke:#181818;stroke-width:1.0;" x1="94" x2="442" y1="298.9883" y2="298.9883"/><text fill="#000000" font-family="sans-serif" font-size="13" font-weight="bold" lengthAdjust="spacing" textLength="7" x="101" y="293.7256">5</text><text fill="#000000" font-family="sans-serif" font-size="13" lengthAdjust="spacing" textLength="275" x="112" y="293.7256">sends data (street, zipcode, state, city, district)</text><polygon fill="#181818" points="105,326.2793,95,330.2793,105,334.2793,101,330.2793" style="stroke:#181818;stroke-width:1.0;"/><line style="stroke:#181818;stroke-width:1.0;stroke-dasharray:2.0,2.0;" x1="99" x2="452" y1="330.2793" y2="330.2793"/><text fill="#000000" font-family="sans-serif" font-size="13" font-weight="bold" lengthAdjust="spacing" textLength="7" x="111" y="325.0166">6</text><text fill="#000000" font-family="sans-serif" font-size="13" lengthAdjust="spacing" textLength="221" x="122" y="325.0166">lists user roles and asks to select one</text><path d="M10,345.2793 L71,345.2793 L71,354.5703 L61,364.5703 L10,364.5703 L10,345.2793 " fill="#EEEEEE" style="stroke:#000000;stroke-width:1.5;"/><rect fill="none" height="178.377" style="stroke:#000000;stroke-width:1.5;" width="485" x="10" y="345.2793"/><text fill="#000000" font-family="sans-serif" font-size="13" font-weight="bold" lengthAdjust="spacing" textLength="16" x="25" y="360.3076">alt</text><text fill="#000000" font-family="sans-serif" font-size="11" font-weight="bold" lengthAdjust="spacing" textLength="174" x="86" y="359.1494">[role = store network manager]</text><polygon fill="#181818" points="105,401.1523,95,405.1523,105,409.1523,101,405.1523" style="stroke:#181818;stroke-width:1.0;"/><line style="stroke:#181818;stroke-width:1.0;stroke-dasharray:2.0,2.0;" x1="99" x2="447" y1="405.1523" y2="405.1523"/><text fill="#000000" font-family="sans-serif" font-size="13" font-weight="bold" lengthAdjust="spacing" textLength="7" x="111" y="391.2441">7</text><text fill="#000000" font-family="sans-serif" font-size="13" lengthAdjust="spacing" textLength="224" x="122" y="382.5986">shows store list and asks to select the</text><text fill="#000000" font-family="sans-serif" font-size="13" lengthAdjust="spacing" textLength="195" x="122" y="399.8896">stores that are part of the network</text><polygon fill="#181818" points="441,432.4434,451,436.4434,441,440.4434,445,436.4434" style="stroke:#181818;stroke-width:1.0;"/><line style="stroke:#181818;stroke-width:1.0;" x1="94" x2="447" y1="436.4434" y2="436.4434"/><text fill="#000000" font-family="sans-serif" font-size="13" font-weight="bold" lengthAdjust="spacing" textLength="7" x="101" y="431.1807">8</text><text fill="#000000" font-family="sans-serif" font-size="13" lengthAdjust="spacing" textLength="104" x="112" y="431.1807">selects the stores</text><line style="stroke:#000000;stroke-width:1.0;stroke-dasharray:2.0,2.0;" x1="10" x2="495" y1="445.4434" y2="445.4434"/><text fill="#000000" font-family="sans-serif" font-size="11" font-weight="bold" lengthAdjust="spacing" textLength="177" x="15" y="457.3135">[role != store network manager]</text><polygon fill="#181818" points="105,480.3652,95,484.3652,105,488.3652,101,484.3652" style="stroke:#181818;stroke-width:1.0;"/><line style="stroke:#181818;stroke-width:1.0;stroke-dasharray:2.0,2.0;" x1="99" x2="447" y1="484.3652" y2="484.3652"/><text fill="#000000" font-family="sans-serif" font-size="13" font-weight="bold" lengthAdjust="spacing" textLength="7" x="111" y="479.1025">9</text><text fill="#000000" font-family="sans-serif" font-size="13" lengthAdjust="spacing" textLength="227" x="122" y="479.1025">shows store list and asks to select one</text><polygon fill="#181818" points="441,511.6563,451,515.6563,441,519.6563,445,515.6563" style="stroke:#181818;stroke-width:1.0;"/><line style="stroke:#181818;stroke-width:1.0;" x1="94" x2="447" y1="515.6563" y2="515.6563"/><text fill="#000000" font-family="sans-serif" font-size="13" font-weight="bold" lengthAdjust="spacing" textLength="14" x="101" y="510.3936">10</text><text fill="#000000" font-family="sans-serif" font-size="13" lengthAdjust="spacing" textLength="86" x="119" y="510.3936">selects a store</text><polygon fill="#181818" points="436,549.9473,446,553.9473,436,557.9473,440,553.9473" style="stroke:#181818;stroke-width:1.0;"/><line style="stroke:#181818;stroke-width:1.0;" x1="94" x2="442" y1="553.9473" y2="553.9473"/><text fill="#000000" font-family="sans-serif" font-size="13" font-weight="bold" lengthAdjust="spacing" textLength="14" x="101" y="548.6846">11</text><text fill="#000000" font-family="sans-serif" font-size="13" lengthAdjust="spacing" textLength="75" x="119" y="548.6846">submits data</text><polygon fill="#181818" points="105,581.2383,95,585.2383,105,589.2383,101,585.2383" style="stroke:#181818;stroke-width:1.0;"/><line style="stroke:#181818;stroke-width:1.0;stroke-dasharray:2.0,2.0;" x1="99" x2="452" y1="585.2383" y2="585.2383"/><text fill="#000000" font-family="sans-serif" font-size="13" font-weight="bold" lengthAdjust="spacing" textLength="14" x="111" y="579.9756">12</text><text fill="#000000" font-family="sans-serif" font-size="13" lengthAdjust="spacing" textLength="290" x="129" y="579.9756">displays the information and requests confirmation</text><polygon fill="#181818" points="436,612.5293,446,616.5293,436,620.5293,440,616.5293" style="stroke:#181818;stroke-width:1.0;"/><line style="stroke:#181818;stroke-width:1.0;" x1="94" x2="442" y1="616.5293" y2="616.5293"/><text fill="#000000" font-family="sans-serif" font-size="13" font-weight="bold" lengthAdjust="spacing" textLength="14" x="101" y="611.2666">13</text><text fill="#000000" font-family="sans-serif" font-size="13" lengthAdjust="spacing" textLength="103" x="119" y="611.2666">gives confirmation</text><polygon fill="#181818" points="105,643.8203,95,647.8203,105,651.8203,101,647.8203" style="stroke:#181818;stroke-width:1.0;"/><line style="stroke:#181818;stroke-width:1.0;stroke-dasharray:2.0,2.0;" x1="99" x2="452" y1="647.8203" y2="647.8203"/><text fill="#000000" font-family="sans-serif" font-size="13" font-weight="bold" lengthAdjust="spacing" textLength="14" x="111" y="642.5576">14</text><text fill="#000000" font-family="sans-serif" font-size="13" lengthAdjust="spacing" textLength="312" x="129" y="642.5576">creates the employee and displays operation success</text><!--SRC=[hLJBSjim3BphAr1VQi_8_G3FjAVq2tJD1I5XcMCHL4aehlBrXPvnQzcECzL9ee35xe90EZgkCQ877pYOGmoUG693MPh_r6YEM58XRKKGoGXoMPq7f0FQS79SmXwhH5acJZIqQ9EGXu9-DSI6uCbXsOMlY-9fasNOIE36lr3KToCXmchCGEiTkoGHzNG5cE2dhwlG4cLQK9nnDRB0QZV4zn73Qu_aNb7eFIM3yPbEOFjZuhRJr6C22Qghr8eK0O7f13J6VkkpPz2foWGvmcmLSKRVAPOgJf9c5B0e26j6JpaO9-wD-6i2Wz72O47-p23uU_e2sdfqLGv25TM7m3J-sVIbBLrbj2XIsffKvO7U6JdUX-XHNE279Pufx8Kfqb_WAWsjZPJIFROBT7UGYEs8lDPBG2GvlBdQ1Alk9L6StiGs1zjT4cTayvakLQuJq2JjUGoL-eDiv-kGr7SZeCRFABTaZ0zMqcF1T-KPeZQDv1JY4JooJb2ypBXEBnt2AOqm7TKbUchwC_SXNNTHOpIu6n48-xuZO_t5iXTg5gCMxzDGVhXHG_d5t0yuHhel1ik-NFFi_rfstj6RRZni1WwLF-Z4XH5ixmnnQbwy6qSkkqjxsI4TcBh2TkZSsGhedPg7sWJUk_Fby9cTKxfNMe1waB29fC7_xAwExAmar1G73QanviRE-GC0]--></g></svg>