<?xml version="1.0" encoding="us-ascii" standalone="no"?><svg xmlns="http://www.w3.org/2000/svg" xmlns:xlink="http://www.w3.org/1999/xlink" contentStyleType="text/css" height="1511px" preserveAspectRatio="none" style="width:1426px;height:1511px;background:#FFFFFF;" version="1.1" viewBox="0 0 1426 1511" width="1426px" zoomAndPan="magnify"><defs/><g><!--class Repositories--><g id="elem_Repositories"><rect codeLine="13" fill="#F1F1F1" height="141.1055" id="Repositories" rx="2.5" ry="2.5" style="stroke:#181818;stroke-width:0.5;" width="370" x="408.5" y="246"/><ellipse cx="549.75" cy="262" fill="#ADD1B2" rx="11" ry="11" style="stroke:#181818;stroke-width:1.0;"/><path d="M552.5156,257.875 Q552.6719,257.6563 552.8594,257.5469 Q553.0469,257.4375 553.2656,257.4375 Q553.6406,257.4375 553.875,257.7031 Q554.1094,257.9531 554.1094,258.5625 L554.1094,260.0156 Q554.1094,260.625 553.875,260.8906 Q553.6406,261.1563 553.2656,261.1563 Q552.9219,261.1563 552.7188,260.9531 Q552.5156,260.7656 552.4063,260.25 Q552.3594,259.8906 552.1719,259.7031 Q551.8438,259.3281 551.2344,259.1094 Q550.625,258.8906 550,258.8906 Q549.2344,258.8906 548.5938,259.2188 Q547.9688,259.5469 547.4688,260.2969 Q546.9844,261.0469 546.9844,262.0781 L546.9844,263.1719 Q546.9844,264.4063 547.875,265.2344 Q548.7656,266.0469 550.3594,266.0469 Q551.2969,266.0469 551.9531,265.7969 Q552.3438,265.6406 552.7656,265.2031 Q553.0313,264.9375 553.1719,264.8594 Q553.3281,264.7813 553.5313,264.7813 Q553.8594,264.7813 554.1094,265.0469 Q554.375,265.2969 554.375,265.6406 Q554.375,265.9844 554.0313,266.3906 Q553.5313,266.9688 552.7344,267.2969 Q551.6563,267.75 550.3594,267.75 Q548.8438,267.75 547.6406,267.125 Q546.6563,266.625 545.9688,265.5625 Q545.2813,264.4844 545.2813,263.2031 L545.2813,262.0469 Q545.2813,260.7188 545.8906,259.5781 Q546.5156,258.4219 547.6094,257.8125 Q548.7031,257.1875 549.9375,257.1875 Q550.6719,257.1875 551.3125,257.3594 Q551.9688,257.5156 552.5156,257.875 Z " fill="#000000"/><text fill="#000000" font-family="sans-serif" font-size="14" lengthAdjust="spacing" textLength="79" x="570.25" y="267.7969">Repositories</text><line style="stroke:#181818;stroke-width:0.5;" x1="409.5" x2="777.5" y1="278" y2="278"/><text fill="#000000" font-family="sans-serif" font-size="14" lengthAdjust="spacing" textLength="141" x="414.5" y="297.1074">-Repositories instance</text><line style="stroke:#181818;stroke-width:0.5;" x1="409.5" x2="777.5" y1="304.6211" y2="304.6211"/><text fill="#000000" font-family="sans-serif" font-size="14" lengthAdjust="spacing" textLength="94" x="414.5" y="323.7285">-Repositories()</text><text fill="#000000" font-family="sans-serif" font-size="14" lengthAdjust="spacing" textLength="174" x="414.5" y="342.3496">+Repositories getInstance()</text><text fill="#000000" font-family="sans-serif" font-size="14" lengthAdjust="spacing" textLength="358" x="414.5" y="360.9707">+AdvertisementRepository getAdvertisementRepository()</text><text fill="#000000" font-family="sans-serif" font-size="14" lengthAdjust="spacing" textLength="268" x="414.5" y="379.5918">+PersonRepository getPersonRepository()</text></g><!--class Person--><g id="elem_Person"><rect codeLine="21" fill="#F1F1F1" height="234.2109" id="Person" rx="2.5" ry="2.5" style="stroke:#181818;stroke-width:0.5;" width="129" x="490" y="960"/><ellipse cx="528.4" cy="976" fill="#ADD1B2" rx="11" ry="11" style="stroke:#181818;stroke-width:1.0;"/><path d="M531.1656,971.875 Q531.3219,971.6563 531.5094,971.5469 Q531.6969,971.4375 531.9156,971.4375 Q532.2906,971.4375 532.525,971.7031 Q532.7594,971.9531 532.7594,972.5625 L532.7594,974.0156 Q532.7594,974.625 532.525,974.8906 Q532.2906,975.1563 531.9156,975.1563 Q531.5719,975.1563 531.3688,974.9531 Q531.1656,974.7656 531.0563,974.25 Q531.0094,973.8906 530.8219,973.7031 Q530.4938,973.3281 529.8844,973.1094 Q529.275,972.8906 528.65,972.8906 Q527.8844,972.8906 527.2438,973.2188 Q526.6188,973.5469 526.1188,974.2969 Q525.6344,975.0469 525.6344,976.0781 L525.6344,977.1719 Q525.6344,978.4063 526.525,979.2344 Q527.4156,980.0469 529.0094,980.0469 Q529.9469,980.0469 530.6031,979.7969 Q530.9938,979.6406 531.4156,979.2031 Q531.6813,978.9375 531.8219,978.8594 Q531.9781,978.7813 532.1813,978.7813 Q532.5094,978.7813 532.7594,979.0469 Q533.025,979.2969 533.025,979.6406 Q533.025,979.9844 532.6813,980.3906 Q532.1813,980.9688 531.3844,981.2969 Q530.3063,981.75 529.0094,981.75 Q527.4938,981.75 526.2906,981.125 Q525.3063,980.625 524.6188,979.5625 Q523.9313,978.4844 523.9313,977.2031 L523.9313,976.0469 Q523.9313,974.7188 524.5406,973.5781 Q525.1656,972.4219 526.2594,971.8125 Q527.3531,971.1875 528.5875,971.1875 Q529.3219,971.1875 529.9625,971.3594 Q530.6188,971.5156 531.1656,971.875 Z " fill="#000000"/><text fill="#000000" font-family="sans-serif" font-size="14" lengthAdjust="spacing" textLength="45" x="547.6" y="981.7969">Person</text><line style="stroke:#181818;stroke-width:0.5;" x1="491" x2="618" y1="992" y2="992"/><text fill="#000000" font-family="sans-serif" font-size="14" lengthAdjust="spacing" textLength="80" x="496" y="1011.1074">-Email email;</text><text fill="#000000" font-family="sans-serif" font-size="14" lengthAdjust="spacing" textLength="85" x="496" y="1029.7285">-String name;</text><text fill="#000000" font-family="sans-serif" font-size="14" lengthAdjust="spacing" textLength="83" x="496" y="1048.3496">-int passport;</text><text fill="#000000" font-family="sans-serif" font-size="14" lengthAdjust="spacing" textLength="43" x="496" y="1066.9707">-int tin;</text><text fill="#000000" font-family="sans-serif" font-size="14" lengthAdjust="spacing" textLength="117" x="496" y="1085.5918">-int phoneNumber;</text><text fill="#000000" font-family="sans-serif" font-size="14" lengthAdjust="spacing" textLength="86" x="496" y="1104.2129">-String street;</text><text fill="#000000" font-family="sans-serif" font-size="14" lengthAdjust="spacing" textLength="67" x="496" y="1122.834">-String zip;</text><text fill="#000000" font-family="sans-serif" font-size="14" lengthAdjust="spacing" textLength="81" x="496" y="1141.4551">-String state;</text><text fill="#000000" font-family="sans-serif" font-size="14" lengthAdjust="spacing" textLength="71" x="496" y="1160.0762">-String city;</text><text fill="#000000" font-family="sans-serif" font-size="14" lengthAdjust="spacing" textLength="91" x="496" y="1178.6973">-String district;</text><line style="stroke:#181818;stroke-width:0.5;" x1="491" x2="618" y1="1186.2109" y2="1186.2109"/></g><!--class Offer--><g id="elem_Offer"><rect codeLine="33" fill="#F1F1F1" height="122.4844" id="Offer" rx="2.5" ry="2.5" style="stroke:#181818;stroke-width:0.5;" width="135" x="577" y="1255"/><ellipse cx="624.25" cy="1271" fill="#ADD1B2" rx="11" ry="11" style="stroke:#181818;stroke-width:1.0;"/><path d="M627.0156,1266.875 Q627.1719,1266.6563 627.3594,1266.5469 Q627.5469,1266.4375 627.7656,1266.4375 Q628.1406,1266.4375 628.375,1266.7031 Q628.6094,1266.9531 628.6094,1267.5625 L628.6094,1269.0156 Q628.6094,1269.625 628.375,1269.8906 Q628.1406,1270.1563 627.7656,1270.1563 Q627.4219,1270.1563 627.2188,1269.9531 Q627.0156,1269.7656 626.9063,1269.25 Q626.8594,1268.8906 626.6719,1268.7031 Q626.3438,1268.3281 625.7344,1268.1094 Q625.125,1267.8906 624.5,1267.8906 Q623.7344,1267.8906 623.0938,1268.2188 Q622.4688,1268.5469 621.9688,1269.2969 Q621.4844,1270.0469 621.4844,1271.0781 L621.4844,1272.1719 Q621.4844,1273.4063 622.375,1274.2344 Q623.2656,1275.0469 624.8594,1275.0469 Q625.7969,1275.0469 626.4531,1274.7969 Q626.8438,1274.6406 627.2656,1274.2031 Q627.5313,1273.9375 627.6719,1273.8594 Q627.8281,1273.7813 628.0313,1273.7813 Q628.3594,1273.7813 628.6094,1274.0469 Q628.875,1274.2969 628.875,1274.6406 Q628.875,1274.9844 628.5313,1275.3906 Q628.0313,1275.9688 627.2344,1276.2969 Q626.1563,1276.75 624.8594,1276.75 Q623.3438,1276.75 622.1406,1276.125 Q621.1563,1275.625 620.4688,1274.5625 Q619.7813,1273.4844 619.7813,1272.2031 L619.7813,1271.0469 Q619.7813,1269.7188 620.3906,1268.5781 Q621.0156,1267.4219 622.1094,1266.8125 Q623.2031,1266.1875 624.4375,1266.1875 Q625.1719,1266.1875 625.8125,1266.3594 Q626.4688,1266.5156 627.0156,1266.875 Z " fill="#000000"/><text fill="#000000" font-family="sans-serif" font-size="14" lengthAdjust="spacing" textLength="32" x="644.75" y="1276.7969">Offer</text><line style="stroke:#181818;stroke-width:0.5;" x1="578" x2="711" y1="1287" y2="1287"/><text fill="#000000" font-family="sans-serif" font-size="14" lengthAdjust="spacing" textLength="71" x="583" y="1306.1074">-Date date;</text><text fill="#000000" font-family="sans-serif" font-size="14" lengthAdjust="spacing" textLength="123" x="583" y="1324.7285">-OfferStatus status;</text><text fill="#000000" font-family="sans-serif" font-size="14" lengthAdjust="spacing" textLength="85" x="583" y="1343.3496">-double offer;</text><text fill="#000000" font-family="sans-serif" font-size="14" lengthAdjust="spacing" textLength="114" x="583" y="1361.9707">-Email clientEmail;</text><line style="stroke:#181818;stroke-width:0.5;" x1="578" x2="711" y1="1369.4844" y2="1369.4844"/></g><!--class Employee--><g id="elem_Employee"><rect codeLine="40" fill="#F1F1F1" height="66.6211" id="Employee" rx="2.5" ry="2.5" style="stroke:#181818;stroke-width:0.5;" width="94" x="433.5" y="1282.5"/><ellipse cx="448.5" cy="1298.5" fill="#ADD1B2" rx="11" ry="11" style="stroke:#181818;stroke-width:1.0;"/><path d="M451.2656,1294.375 Q451.4219,1294.1563 451.6094,1294.0469 Q451.7969,1293.9375 452.0156,1293.9375 Q452.3906,1293.9375 452.625,1294.2031 Q452.8594,1294.4531 452.8594,1295.0625 L452.8594,1296.5156 Q452.8594,1297.125 452.625,1297.3906 Q452.3906,1297.6563 452.0156,1297.6563 Q451.6719,1297.6563 451.4688,1297.4531 Q451.2656,1297.2656 451.1563,1296.75 Q451.1094,1296.3906 450.9219,1296.2031 Q450.5938,1295.8281 449.9844,1295.6094 Q449.375,1295.3906 448.75,1295.3906 Q447.9844,1295.3906 447.3438,1295.7188 Q446.7188,1296.0469 446.2188,1296.7969 Q445.7344,1297.5469 445.7344,1298.5781 L445.7344,1299.6719 Q445.7344,1300.9063 446.625,1301.7344 Q447.5156,1302.5469 449.1094,1302.5469 Q450.0469,1302.5469 450.7031,1302.2969 Q451.0938,1302.1406 451.5156,1301.7031 Q451.7813,1301.4375 451.9219,1301.3594 Q452.0781,1301.2813 452.2813,1301.2813 Q452.6094,1301.2813 452.8594,1301.5469 Q453.125,1301.7969 453.125,1302.1406 Q453.125,1302.4844 452.7813,1302.8906 Q452.2813,1303.4688 451.4844,1303.7969 Q450.4063,1304.25 449.1094,1304.25 Q447.5938,1304.25 446.3906,1303.625 Q445.4063,1303.125 444.7188,1302.0625 Q444.0313,1300.9844 444.0313,1299.7031 L444.0313,1298.5469 Q444.0313,1297.2188 444.6406,1296.0781 Q445.2656,1294.9219 446.3594,1294.3125 Q447.4531,1293.6875 448.6875,1293.6875 Q449.4219,1293.6875 450.0625,1293.8594 Q450.7188,1294.0156 451.2656,1294.375 Z " fill="#000000"/><text fill="#000000" font-family="sans-serif" font-size="14" lengthAdjust="spacing" textLength="62" x="462.5" y="1304.2969">Employee</text><line style="stroke:#181818;stroke-width:0.5;" x1="434.5" x2="526.5" y1="1314.5" y2="1314.5"/><text fill="#000000" font-family="sans-serif" font-size="14" lengthAdjust="spacing" textLength="70" x="439.5" y="1333.6074">-String role</text><line style="stroke:#181818;stroke-width:0.5;" x1="434.5" x2="526.5" y1="1341.1211" y2="1341.1211"/></g><!--class AcceptOrDeclineOffersController--><g id="elem_AcceptOrDeclineOffersController"><rect codeLine="44" fill="#F1F1F1" height="141.1055" id="AcceptOrDeclineOffersController" rx="2.5" ry="2.5" style="stroke:#181818;stroke-width:0.5;" width="446" x="537.5" y="16.5"/><ellipse cx="652.75" cy="32.5" fill="#ADD1B2" rx="11" ry="11" style="stroke:#181818;stroke-width:1.0;"/><path d="M655.5156,28.375 Q655.6719,28.1563 655.8594,28.0469 Q656.0469,27.9375 656.2656,27.9375 Q656.6406,27.9375 656.875,28.2031 Q657.1094,28.4531 657.1094,29.0625 L657.1094,30.5156 Q657.1094,31.125 656.875,31.3906 Q656.6406,31.6563 656.2656,31.6563 Q655.9219,31.6563 655.7188,31.4531 Q655.5156,31.2656 655.4063,30.75 Q655.3594,30.3906 655.1719,30.2031 Q654.8438,29.8281 654.2344,29.6094 Q653.625,29.3906 653,29.3906 Q652.2344,29.3906 651.5938,29.7188 Q650.9688,30.0469 650.4688,30.7969 Q649.9844,31.5469 649.9844,32.5781 L649.9844,33.6719 Q649.9844,34.9063 650.875,35.7344 Q651.7656,36.5469 653.3594,36.5469 Q654.2969,36.5469 654.9531,36.2969 Q655.3438,36.1406 655.7656,35.7031 Q656.0313,35.4375 656.1719,35.3594 Q656.3281,35.2813 656.5313,35.2813 Q656.8594,35.2813 657.1094,35.5469 Q657.375,35.7969 657.375,36.1406 Q657.375,36.4844 657.0313,36.8906 Q656.5313,37.4688 655.7344,37.7969 Q654.6563,38.25 653.3594,38.25 Q651.8438,38.25 650.6406,37.625 Q649.6563,37.125 648.9688,36.0625 Q648.2813,34.9844 648.2813,33.7031 L648.2813,32.5469 Q648.2813,31.2188 648.8906,30.0781 Q649.5156,28.9219 650.6094,28.3125 Q651.7031,27.6875 652.9375,27.6875 Q653.6719,27.6875 654.3125,27.8594 Q654.9688,28.0156 655.5156,28.375 Z " fill="#000000"/><text fill="#000000" font-family="sans-serif" font-size="14" lengthAdjust="spacing" textLength="207" x="673.25" y="38.2969">AcceptOrDeclineOffersController</text><line style="stroke:#181818;stroke-width:0.5;" x1="538.5" x2="982.5" y1="48.5" y2="48.5"/><line style="stroke:#181818;stroke-width:0.5;" x1="538.5" x2="982.5" y1="56.5" y2="56.5"/><text fill="#000000" font-family="sans-serif" font-size="14" lengthAdjust="spacing" textLength="141" x="543.5" y="75.6074">+ListOffersController()</text><text fill="#000000" font-family="sans-serif" font-size="14" lengthAdjust="spacing" textLength="345" x="543.5" y="94.2285">+List&lt;AdvertisementDTO&gt; listedPropertiesWithOffers()</text><text fill="#000000" font-family="sans-serif" font-size="14" lengthAdjust="spacing" textLength="431" x="543.5" y="112.8496">+OfferDTO acceptOffer(AdvertisementDTO ad,OfferDTO  offerDTO)</text><text fill="#000000" font-family="sans-serif" font-size="14" lengthAdjust="spacing" textLength="434" x="543.5" y="131.4707">+OfferDTO declineOffer(AdvertisementDTO ad,OfferDTO  offerDTO)</text><text fill="#000000" font-family="sans-serif" font-size="14" lengthAdjust="spacing" textLength="383" x="543.5" y="150.0918">+void sendEmailToUser(Person user,boolean offerDecision){</text></g><!--class AcceptOrDeclineOffersUI--><g id="elem_AcceptOrDeclineOffersUI"><rect codeLine="53" fill="#F1F1F1" height="159.7266" id="AcceptOrDeclineOffersUI" rx="2.5" ry="2.5" style="stroke:#181818;stroke-width:0.5;" width="441" x="7" y="7"/><ellipse cx="144.75" cy="23" fill="#ADD1B2" rx="11" ry="11" style="stroke:#181818;stroke-width:1.0;"/><path d="M147.5156,18.875 Q147.6719,18.6563 147.8594,18.5469 Q148.0469,18.4375 148.2656,18.4375 Q148.6406,18.4375 148.875,18.7031 Q149.1094,18.9531 149.1094,19.5625 L149.1094,21.0156 Q149.1094,21.625 148.875,21.8906 Q148.6406,22.1563 148.2656,22.1563 Q147.9219,22.1563 147.7188,21.9531 Q147.5156,21.7656 147.4063,21.25 Q147.3594,20.8906 147.1719,20.7031 Q146.8438,20.3281 146.2344,20.1094 Q145.625,19.8906 145,19.8906 Q144.2344,19.8906 143.5938,20.2188 Q142.9688,20.5469 142.4688,21.2969 Q141.9844,22.0469 141.9844,23.0781 L141.9844,24.1719 Q141.9844,25.4063 142.875,26.2344 Q143.7656,27.0469 145.3594,27.0469 Q146.2969,27.0469 146.9531,26.7969 Q147.3438,26.6406 147.7656,26.2031 Q148.0313,25.9375 148.1719,25.8594 Q148.3281,25.7813 148.5313,25.7813 Q148.8594,25.7813 149.1094,26.0469 Q149.375,26.2969 149.375,26.6406 Q149.375,26.9844 149.0313,27.3906 Q148.5313,27.9688 147.7344,28.2969 Q146.6563,28.75 145.3594,28.75 Q143.8438,28.75 142.6406,28.125 Q141.6563,27.625 140.9688,26.5625 Q140.2813,25.4844 140.2813,24.2031 L140.2813,23.0469 Q140.2813,21.7188 140.8906,20.5781 Q141.5156,19.4219 142.6094,18.8125 Q143.7031,18.1875 144.9375,18.1875 Q145.6719,18.1875 146.3125,18.3594 Q146.9688,18.5156 147.5156,18.875 Z " fill="#000000"/><text fill="#000000" font-family="sans-serif" font-size="14" lengthAdjust="spacing" textLength="157" x="165.25" y="28.7969">AcceptOrDeclineOffersUI</text><line style="stroke:#181818;stroke-width:0.5;" x1="8" x2="447" y1="39" y2="39"/><text fill="#000000" font-family="sans-serif" font-size="14" lengthAdjust="spacing" textLength="299" x="13" y="58.1074">-List&lt;AdvertisementDTO&gt; advertisementDTOS;</text><line style="stroke:#181818;stroke-width:0.5;" x1="8" x2="447" y1="65.6211" y2="65.6211"/><text fill="#000000" font-family="sans-serif" font-size="14" lengthAdjust="spacing" textLength="91" x="13" y="84.7285">+ListOffersUI()</text><text fill="#000000" font-family="sans-serif" font-size="14" lengthAdjust="spacing" textLength="195" x="13" y="103.3496">+void displayListedProperties()</text><text fill="#000000" font-family="sans-serif" font-size="14" lengthAdjust="spacing" textLength="285" x="13" y="121.9707">+void deleteAllOffers(AdvertisementDTO dto)</text><text fill="#000000" font-family="sans-serif" font-size="14" lengthAdjust="spacing" textLength="429" x="13" y="140.5918">+void deleteOneOffer(AdvertisementDTO ad, OfferDTO offerDTO){}</text><text fill="#000000" font-family="sans-serif" font-size="14" lengthAdjust="spacing" textLength="69" x="13" y="159.2129">+void run()</text></g><!--class Advertisement--><g id="elem_Advertisement"><rect codeLine="63" fill="#F1F1F1" height="122.4844" id="Advertisement" rx="2.5" ry="2.5" style="stroke:#181818;stroke-width:0.5;" width="494" x="215.5" y="594"/><ellipse cx="413.25" cy="610" fill="#ADD1B2" rx="11" ry="11" style="stroke:#181818;stroke-width:1.0;"/><path d="M416.0156,605.875 Q416.1719,605.6563 416.3594,605.5469 Q416.5469,605.4375 416.7656,605.4375 Q417.1406,605.4375 417.375,605.7031 Q417.6094,605.9531 417.6094,606.5625 L417.6094,608.0156 Q417.6094,608.625 417.375,608.8906 Q417.1406,609.1563 416.7656,609.1563 Q416.4219,609.1563 416.2188,608.9531 Q416.0156,608.7656 415.9063,608.25 Q415.8594,607.8906 415.6719,607.7031 Q415.3438,607.3281 414.7344,607.1094 Q414.125,606.8906 413.5,606.8906 Q412.7344,606.8906 412.0938,607.2188 Q411.4688,607.5469 410.9688,608.2969 Q410.4844,609.0469 410.4844,610.0781 L410.4844,611.1719 Q410.4844,612.4063 411.375,613.2344 Q412.2656,614.0469 413.8594,614.0469 Q414.7969,614.0469 415.4531,613.7969 Q415.8438,613.6406 416.2656,613.2031 Q416.5313,612.9375 416.6719,612.8594 Q416.8281,612.7813 417.0313,612.7813 Q417.3594,612.7813 417.6094,613.0469 Q417.875,613.2969 417.875,613.6406 Q417.875,613.9844 417.5313,614.3906 Q417.0313,614.9688 416.2344,615.2969 Q415.1563,615.75 413.8594,615.75 Q412.3438,615.75 411.1406,615.125 Q410.1563,614.625 409.4688,613.5625 Q408.7813,612.4844 408.7813,611.2031 L408.7813,610.0469 Q408.7813,608.7188 409.3906,607.5781 Q410.0156,606.4219 411.1094,605.8125 Q412.2031,605.1875 413.4375,605.1875 Q414.1719,605.1875 414.8125,605.3594 Q415.4688,605.5156 416.0156,605.875 Z " fill="#000000"/><text fill="#000000" font-family="sans-serif" font-size="14" lengthAdjust="spacing" textLength="90" x="433.75" y="615.7969">Advertisement</text><line style="stroke:#181818;stroke-width:0.5;" x1="216.5" x2="708.5" y1="626" y2="626"/><text fill="#000000" font-family="sans-serif" font-size="14" lengthAdjust="spacing" textLength="67" x="221.5" y="645.1074">-Date date</text><text fill="#000000" font-family="sans-serif" font-size="14" lengthAdjust="spacing" textLength="151" x="221.5" y="663.7285">-String commissionType</text><text fill="#000000" font-family="sans-serif" font-size="14" lengthAdjust="spacing" textLength="163" x="221.5" y="682.3496">-Double commissionValue</text><line style="stroke:#181818;stroke-width:0.5;" x1="216.5" x2="708.5" y1="689.8633" y2="689.8633"/><text fill="#000000" font-family="sans-serif" font-size="14" lengthAdjust="spacing" textLength="482" x="221.5" y="708.9707">+Advertisement(String commissionType,Double commissionValue,Date date)</text></g><!--class Request--><g id="elem_Request"><rect codeLine="70" fill="#F1F1F1" height="122.4844" id="Request" rx="2.5" ry="2.5" style="stroke:#181818;stroke-width:0.5;" width="152" x="386.5" y="777"/><ellipse cx="431.75" cy="793" fill="#B4A7E5" rx="11" ry="11" style="stroke:#181818;stroke-width:1.0;"/><path d="M432.7031,789.6406 L432.7031,796.2969 L434.4219,796.2969 Q435.0313,796.2969 435.2969,796.5313 Q435.5625,796.7656 435.5625,797.1563 Q435.5625,797.5313 435.2969,797.7656 Q435.0313,798 434.4219,798 L429.2813,798 Q428.6719,798 428.4063,797.7656 Q428.1406,797.5313 428.1406,797.1406 Q428.1406,796.7656 428.4063,796.5313 Q428.6719,796.2969 429.2813,796.2969 L431,796.2969 L431,789.6406 L429.2813,789.6406 Q428.6719,789.6406 428.4063,789.4063 Q428.1406,789.1719 428.1406,788.7813 Q428.1406,788.4063 428.4063,788.1719 Q428.6719,787.9375 429.2813,787.9375 L434.4219,787.9375 Q435.0313,787.9375 435.2969,788.1719 Q435.5625,788.4063 435.5625,788.7813 Q435.5625,789.1719 435.2969,789.4063 Q435.0313,789.6406 434.4219,789.6406 L432.7031,789.6406 Z " fill="#000000"/><text fill="#000000" font-family="sans-serif" font-size="14" font-style="italic" lengthAdjust="spacing" textLength="53" x="452.25" y="798.7969">Request</text><line style="stroke:#181818;stroke-width:0.5;" x1="387.5" x2="537.5" y1="809" y2="809"/><text fill="#000000" font-family="sans-serif" font-size="14" lengthAdjust="spacing" textLength="62" x="392.5" y="828.1074">Date date</text><text fill="#000000" font-family="sans-serif" font-size="14" lengthAdjust="spacing" textLength="140" x="392.5" y="846.7285">int durationOfContract</text><text fill="#000000" font-family="sans-serif" font-size="14" lengthAdjust="spacing" textLength="105" x="392.5" y="865.3496">double salePrice</text><text fill="#000000" font-family="sans-serif" font-size="14" lengthAdjust="spacing" textLength="104" x="392.5" y="883.9707">double rentPrice</text><line style="stroke:#181818;stroke-width:0.5;" x1="387.5" x2="537.5" y1="891.4844" y2="891.4844"/></g><!--class AdvertisementRepository--><g id="elem_AdvertisementRepository"><rect codeLine="77" fill="#F1F1F1" height="85.2422" id="AdvertisementRepository" rx="2.5" ry="2.5" style="stroke:#181818;stroke-width:0.5;" width="459" x="132" y="448"/><ellipse cx="278.25" cy="464" fill="#ADD1B2" rx="11" ry="11" style="stroke:#181818;stroke-width:1.0;"/><path d="M281.0156,459.875 Q281.1719,459.6563 281.3594,459.5469 Q281.5469,459.4375 281.7656,459.4375 Q282.1406,459.4375 282.375,459.7031 Q282.6094,459.9531 282.6094,460.5625 L282.6094,462.0156 Q282.6094,462.625 282.375,462.8906 Q282.1406,463.1563 281.7656,463.1563 Q281.4219,463.1563 281.2188,462.9531 Q281.0156,462.7656 280.9063,462.25 Q280.8594,461.8906 280.6719,461.7031 Q280.3438,461.3281 279.7344,461.1094 Q279.125,460.8906 278.5,460.8906 Q277.7344,460.8906 277.0938,461.2188 Q276.4688,461.5469 275.9688,462.2969 Q275.4844,463.0469 275.4844,464.0781 L275.4844,465.1719 Q275.4844,466.4063 276.375,467.2344 Q277.2656,468.0469 278.8594,468.0469 Q279.7969,468.0469 280.4531,467.7969 Q280.8438,467.6406 281.2656,467.2031 Q281.5313,466.9375 281.6719,466.8594 Q281.8281,466.7813 282.0313,466.7813 Q282.3594,466.7813 282.6094,467.0469 Q282.875,467.2969 282.875,467.6406 Q282.875,467.9844 282.5313,468.3906 Q282.0313,468.9688 281.2344,469.2969 Q280.1563,469.75 278.8594,469.75 Q277.3438,469.75 276.1406,469.125 Q275.1563,468.625 274.4688,467.5625 Q273.7813,466.4844 273.7813,465.2031 L273.7813,464.0469 Q273.7813,462.7188 274.3906,461.5781 Q275.0156,460.4219 276.1094,459.8125 Q277.2031,459.1875 278.4375,459.1875 Q279.1719,459.1875 279.8125,459.3594 Q280.4688,459.5156 281.0156,459.875 Z " fill="#000000"/><text fill="#000000" font-family="sans-serif" font-size="14" lengthAdjust="spacing" textLength="158" x="298.75" y="469.7969">AdvertisementRepository</text><line style="stroke:#181818;stroke-width:0.5;" x1="133" x2="590" y1="480" y2="480"/><text fill="#000000" font-family="sans-serif" font-size="14" lengthAdjust="spacing" textLength="237" x="138" y="499.1074">-List&lt;Advertisement&gt; advertisements;</text><line style="stroke:#181818;stroke-width:0.5;" x1="133" x2="590" y1="506.6211" y2="506.6211"/><text fill="#000000" font-family="sans-serif" font-size="14" lengthAdjust="spacing" textLength="447" x="138" y="525.7285">+List&lt;Advertisement&gt; getAdvertisementsByAgent(Employee employee)</text></g><!--class PersonRepository--><g id="elem_PersonRepository"><rect codeLine="82" fill="#F1F1F1" height="85.2422" id="PersonRepository" rx="2.5" ry="2.5" style="stroke:#181818;stroke-width:0.5;" width="341" x="626" y="448"/><ellipse cx="735.75" cy="464" fill="#ADD1B2" rx="11" ry="11" style="stroke:#181818;stroke-width:1.0;"/><path d="M738.5156,459.875 Q738.6719,459.6563 738.8594,459.5469 Q739.0469,459.4375 739.2656,459.4375 Q739.6406,459.4375 739.875,459.7031 Q740.1094,459.9531 740.1094,460.5625 L740.1094,462.0156 Q740.1094,462.625 739.875,462.8906 Q739.6406,463.1563 739.2656,463.1563 Q738.9219,463.1563 738.7188,462.9531 Q738.5156,462.7656 738.4063,462.25 Q738.3594,461.8906 738.1719,461.7031 Q737.8438,461.3281 737.2344,461.1094 Q736.625,460.8906 736,460.8906 Q735.2344,460.8906 734.5938,461.2188 Q733.9688,461.5469 733.4688,462.2969 Q732.9844,463.0469 732.9844,464.0781 L732.9844,465.1719 Q732.9844,466.4063 733.875,467.2344 Q734.7656,468.0469 736.3594,468.0469 Q737.2969,468.0469 737.9531,467.7969 Q738.3438,467.6406 738.7656,467.2031 Q739.0313,466.9375 739.1719,466.8594 Q739.3281,466.7813 739.5313,466.7813 Q739.8594,466.7813 740.1094,467.0469 Q740.375,467.2969 740.375,467.6406 Q740.375,467.9844 740.0313,468.3906 Q739.5313,468.9688 738.7344,469.2969 Q737.6563,469.75 736.3594,469.75 Q734.8438,469.75 733.6406,469.125 Q732.6563,468.625 731.9688,467.5625 Q731.2813,466.4844 731.2813,465.2031 L731.2813,464.0469 Q731.2813,462.7188 731.8906,461.5781 Q732.5156,460.4219 733.6094,459.8125 Q734.7031,459.1875 735.9375,459.1875 Q736.6719,459.1875 737.3125,459.3594 Q737.9688,459.5156 738.5156,459.875 Z " fill="#000000"/><text fill="#000000" font-family="sans-serif" font-size="14" lengthAdjust="spacing" textLength="113" x="756.25" y="469.7969">PersonRepository</text><line style="stroke:#181818;stroke-width:0.5;" x1="627" x2="966" y1="480" y2="480"/><line style="stroke:#181818;stroke-width:0.5;" x1="627" x2="966" y1="488" y2="488"/><text fill="#000000" font-family="sans-serif" font-size="14" lengthAdjust="spacing" textLength="277" x="632" y="507.1074">+List&lt;Person&gt; persons = new ArrayList&lt;&gt;();</text><text fill="#000000" font-family="sans-serif" font-size="14" lengthAdjust="spacing" textLength="329" x="632" y="525.7285">+Person getPersonByEmail(String keepOwnerEmail)</text></g><!--class OfferStatus--><g id="elem_OfferStatus"><rect codeLine="87" fill="#F1F1F1" height="66.6211" id="OfferStatus" rx="2.5" ry="2.5" style="stroke:#181818;stroke-width:0.5;" width="104" x="592.5" y="1438"/><ellipse cx="607.5" cy="1454" fill="#EB937F" rx="11" ry="11" style="stroke:#181818;stroke-width:1.0;"/><path d="M606.3594,1454.7969 L606.3594,1457.2969 L610.6875,1457.2969 L610.6875,1456.375 Q610.6875,1455.7656 610.9219,1455.5 Q611.1719,1455.2344 611.5469,1455.2344 Q611.9219,1455.2344 612.1563,1455.5 Q612.3906,1455.7656 612.3906,1456.375 L612.3906,1459 L604.3906,1459 Q603.7656,1459 603.5,1458.7656 Q603.25,1458.5313 603.25,1458.1406 Q603.25,1457.7656 603.5156,1457.5313 Q603.7813,1457.2969 604.3906,1457.2969 L604.6563,1457.2969 L604.6563,1450.6406 L604.3906,1450.6406 Q603.7656,1450.6406 603.5,1450.4063 Q603.25,1450.1719 603.25,1449.7813 Q603.25,1449.4063 603.5,1449.1719 Q603.7656,1448.9375 604.3906,1448.9375 L612.0156,1448.9375 L612.0156,1451.5313 Q612.0156,1452.1406 611.7813,1452.4063 Q611.5625,1452.6563 611.1719,1452.6563 Q610.7969,1452.6563 610.5625,1452.4063 Q610.3281,1452.1406 610.3281,1451.5313 L610.3281,1450.6406 L606.3594,1450.6406 L606.3594,1453.0938 L607.8438,1453.0938 Q607.8438,1452.4375 607.9688,1452.25 Q608.2344,1451.8438 608.7031,1451.8438 Q609.0781,1451.8438 609.3125,1452.1094 Q609.5469,1452.3594 609.5469,1452.9688 L609.5469,1454.9375 Q609.5469,1455.4844 609.4219,1455.6719 Q609.1563,1456.0625 608.7031,1456.0625 Q608.2344,1456.0625 607.9688,1455.6563 Q607.8438,1455.4688 607.8438,1454.7969 L606.3594,1454.7969 Z " fill="#000000"/><text fill="#000000" font-family="sans-serif" font-size="14" lengthAdjust="spacing" textLength="72" x="621.5" y="1459.7969">OfferStatus</text><line style="stroke:#181818;stroke-width:0.5;" x1="593.5" x2="695.5" y1="1470" y2="1470"/><text fill="#000000" font-family="sans-serif" font-size="14" lengthAdjust="spacing" textLength="38" x="598.5" y="1489.1074">status</text><line style="stroke:#181818;stroke-width:0.5;" x1="593.5" x2="695.5" y1="1496.6211" y2="1496.6211"/></g><!--class AdvertisementMapper--><g id="elem_AdvertisementMapper"><rect codeLine="92" fill="#F1F1F1" height="85.2422" id="AdvertisementMapper" rx="2.5" ry="2.5" style="stroke:#181818;stroke-width:0.5;" width="353" x="1066" y="274"/><ellipse cx="1169.25" cy="290" fill="#ADD1B2" rx="11" ry="11" style="stroke:#181818;stroke-width:1.0;"/><path d="M1172.0156,285.875 Q1172.1719,285.6563 1172.3594,285.5469 Q1172.5469,285.4375 1172.7656,285.4375 Q1173.1406,285.4375 1173.375,285.7031 Q1173.6094,285.9531 1173.6094,286.5625 L1173.6094,288.0156 Q1173.6094,288.625 1173.375,288.8906 Q1173.1406,289.1563 1172.7656,289.1563 Q1172.4219,289.1563 1172.2188,288.9531 Q1172.0156,288.7656 1171.9063,288.25 Q1171.8594,287.8906 1171.6719,287.7031 Q1171.3438,287.3281 1170.7344,287.1094 Q1170.125,286.8906 1169.5,286.8906 Q1168.7344,286.8906 1168.0938,287.2188 Q1167.4688,287.5469 1166.9688,288.2969 Q1166.4844,289.0469 1166.4844,290.0781 L1166.4844,291.1719 Q1166.4844,292.4063 1167.375,293.2344 Q1168.2656,294.0469 1169.8594,294.0469 Q1170.7969,294.0469 1171.4531,293.7969 Q1171.8438,293.6406 1172.2656,293.2031 Q1172.5313,292.9375 1172.6719,292.8594 Q1172.8281,292.7813 1173.0313,292.7813 Q1173.3594,292.7813 1173.6094,293.0469 Q1173.875,293.2969 1173.875,293.6406 Q1173.875,293.9844 1173.5313,294.3906 Q1173.0313,294.9688 1172.2344,295.2969 Q1171.1563,295.75 1169.8594,295.75 Q1168.3438,295.75 1167.1406,295.125 Q1166.1563,294.625 1165.4688,293.5625 Q1164.7813,292.4844 1164.7813,291.2031 L1164.7813,290.0469 Q1164.7813,288.7188 1165.3906,287.5781 Q1166.0156,286.4219 1167.1094,285.8125 Q1168.2031,285.1875 1169.4375,285.1875 Q1170.1719,285.1875 1170.8125,285.3594 Q1171.4688,285.5156 1172.0156,285.875 Z " fill="#000000"/><text fill="#000000" font-family="sans-serif" font-size="14" lengthAdjust="spacing" textLength="138" x="1189.75" y="295.7969">AdvertisementMapper</text><line style="stroke:#181818;stroke-width:0.5;" x1="1067" x2="1418" y1="306" y2="306"/><line style="stroke:#181818;stroke-width:0.5;" x1="1067" x2="1418" y1="314" y2="314"/><text fill="#000000" font-family="sans-serif" font-size="14" lengthAdjust="spacing" textLength="294" x="1072" y="333.1074">+AdvertisementDTO toDTO(Advertisement ad)</text><text fill="#000000" font-family="sans-serif" font-size="14" lengthAdjust="spacing" textLength="341" x="1072" y="351.7285">+Advertisement fromDTOtoAD(AdvertisementDTO ad)</text></g><!--link AcceptOrDeclineOffersController to AdvertisementMapper--><g id="link_AcceptOrDeclineOffersController_AdvertisementMapper"><path codeLine="97" d="M908.06,157.65 C986.72,194.77 1081.09,239.32 1149.5,271.61 " fill="none" id="AcceptOrDeclineOffersController-to-AdvertisementMapper" style="stroke:#181818;stroke-width:1.0;"/><polygon fill="#181818" points="1154.38,273.91,1147.9557,266.4449,1149.8604,271.7714,1144.5339,273.6762,1154.38,273.91" style="stroke:#181818;stroke-width:1.0;"/></g><!--link Repositories to Repositories--><g id="link_Repositories_Repositories"><path codeLine="100" d="M778.88,300.61 C799.88,303.59 813.5,308.88 813.5,316.5 C813.5,323.46 802.12,328.49 784.12,331.57 " fill="none" id="Repositories-to-Repositories" style="stroke:#181818;stroke-width:1.0;"/><polygon fill="#181818" points="778.88,332.39,788.3892,334.9543,783.8202,331.619,787.1555,327.05,778.88,332.39" style="stroke:#181818;stroke-width:1.0;"/><text fill="#000000" font-family="sans-serif" font-size="13" lengthAdjust="spacing" textLength="49" x="819.5" y="322.0283">instance</text></g><!--link AcceptOrDeclineOffersUI to AcceptOrDeclineOffersController--><g id="link_AcceptOrDeclineOffersUI_AcceptOrDeclineOffersController"><path codeLine="101" d="M448.14,87 C475.91,87 504.36,87 532.25,87 " fill="none" id="AcceptOrDeclineOffersUI-to-AcceptOrDeclineOffersController" style="stroke:#181818;stroke-width:1.0;stroke-dasharray:7.0,7.0;"/><polygon fill="#181818" points="537.45,87,528.45,83,532.45,87,528.45,91,537.45,87" style="stroke:#181818;stroke-width:1.0;"/><text fill="#000000" font-family="sans-serif" font-size="13" lengthAdjust="spacing" textLength="53" x="466.25" y="80.0283">controller</text></g><!--link AcceptOrDeclineOffersController to Repositories--><g id="link_AcceptOrDeclineOffersController_Repositories"><path codeLine="103" d="M709.26,157.8 C689.78,184.34 667.54,214.64 647.79,241.54 " fill="none" id="AcceptOrDeclineOffersController-to-Repositories" style="stroke:#181818;stroke-width:1.0;stroke-dasharray:7.0,7.0;"/><polygon fill="#181818" points="644.64,245.83,653.1901,240.9418,647.5987,241.7993,646.7411,236.2079,644.64,245.83" style="stroke:#181818;stroke-width:1.0;"/><text fill="#000000" font-family="sans-serif" font-size="13" lengthAdjust="spacing" textLength="67" x="678.5" y="212.0283">repositories</text></g><!--link Repositories to PersonRepository--><g id="link_Repositories_PersonRepository"><path codeLine="105" d="M675.78,387.21 C698.64,406.58 722.86,427.1 743.55,444.64 " fill="none" id="Repositories-to-PersonRepository" style="stroke:#181818;stroke-width:1.0;"/><polygon fill="#181818" points="747.37,447.88,743.0848,439.0123,743.5536,444.6496,737.9162,445.1185,747.37,447.88" style="stroke:#181818;stroke-width:1.0;"/><text fill="#000000" font-family="sans-serif" font-size="13" lengthAdjust="spacing" textLength="7" x="731.9821" y="436.765">1</text></g><!--link Repositories to AdvertisementRepository--><g id="link_Repositories_AdvertisementRepository"><path codeLine="106" d="M499.47,387.21 C473.23,406.67 445.43,427.27 421.72,444.86 " fill="none" id="Repositories-to-AdvertisementRepository" style="stroke:#181818;stroke-width:1.0;"/><polygon fill="#181818" points="417.64,447.88,427.2537,445.7405,421.6588,444.9052,422.494,439.3104,417.64,447.88" style="stroke:#181818;stroke-width:1.0;"/><text fill="#000000" font-family="sans-serif" font-size="13" lengthAdjust="spacing" textLength="7" x="419.0295" y="436.765">1</text></g><!--link AcceptOrDeclineOffersController to AdvertisementRepository--><g id="link_AcceptOrDeclineOffersController_AdvertisementRepository"><path codeLine="108" d="M537.29,156.61 C398.58,199.25 246.5,246 246.5,246 C246.5,246 246.5,387 246.5,387 C246.5,387 280.1,416.95 310.98,444.47 " fill="none" id="AcceptOrDeclineOffersController-to-AdvertisementRepository" style="stroke:#181818;stroke-width:1.0;stroke-dasharray:7.0,7.0;"/><polygon fill="#181818" points="314.73,447.81,310.6799,438.8324,311.0001,444.4802,305.3523,444.8003,314.73,447.81" style="stroke:#181818;stroke-width:1.0;"/><text fill="#000000" font-family="sans-serif" font-size="13" lengthAdjust="spacing" textLength="142" x="247.5" y="322.0283">advertisementRepository</text></g><!--link AcceptOrDeclineOffersController to PersonRepository--><g id="link_AcceptOrDeclineOffersController_PersonRepository"><path codeLine="109" d="M810.83,157.76 C841.37,200.09 874.5,246 874.5,246 C874.5,246 874.5,387 874.5,387 C874.5,387 852.08,416.46 831.28,443.8 " fill="none" id="AcceptOrDeclineOffersController-to-PersonRepository" style="stroke:#181818;stroke-width:1.0;stroke-dasharray:7.0,7.0;"/><polygon fill="#181818" points="828.23,447.81,836.86,443.0641,831.2551,443.8289,830.4902,438.224,828.23,447.81" style="stroke:#181818;stroke-width:1.0;"/><text fill="#000000" font-family="sans-serif" font-size="13" lengthAdjust="spacing" textLength="101" x="875.5" y="322.0283">personRepository</text></g><!--link AdvertisementRepository to Advertisement--><g id="link_AdvertisementRepository_Advertisement"><path codeLine="111" d="M387.51,533.35 C398.16,550.48 410.73,570.7 422.5,589.64 " fill="none" id="AdvertisementRepository-to-Advertisement" style="stroke:#181818;stroke-width:1.0;"/><polygon fill="#181818" points="425.16,593.92,423.8205,584.1627,422.5267,589.6696,417.0198,588.3759,425.16,593.92" style="stroke:#181818;stroke-width:1.0;"/><text fill="#000000" font-family="sans-serif" font-size="13" lengthAdjust="spacing" textLength="5" x="415.5535" y="582.892">*</text></g><!--link PersonRepository to Person--><g id="link_PersonRepository_Person"><path codeLine="113" d="M783.5,533.2 C763.25,598.12 726.5,716 726.5,716 C726.5,716 662.28,850.41 612.32,954.97 " fill="none" id="PersonRepository-to-Person" style="stroke:#181818;stroke-width:1.0;"/><polygon fill="#181818" points="610.11,959.62,617.5995,953.2241,612.2658,955.1086,610.3813,949.7749,610.11,959.62" style="stroke:#181818;stroke-width:1.0;"/><text fill="#000000" font-family="sans-serif" font-size="13" lengthAdjust="spacing" textLength="5" x="608.5124" y="948.5867">*</text></g><!--reverse link Person to Employee--><g id="link_Person_Employee"><path codeLine="115" d="M512.21,1213.44 C504.16,1239.22 496.45,1263.91 490.65,1282.49 " fill="none" id="Person-backto-Employee" style="stroke:#181818;stroke-width:1.0;"/><polygon fill="none" points="505.62,1211.07,518.26,1194.07,518.98,1215.25,505.62,1211.07" style="stroke:#181818;stroke-width:1.0;"/></g><!--link Advertisement to Request--><g id="link_Advertisement_Request"><path codeLine="117" d="M462.5,716.02 C462.5,733.89 462.5,753.56 462.5,771.75 " fill="none" id="Advertisement-to-Request" style="stroke:#181818;stroke-width:1.0;"/><polygon fill="#181818" points="462.5,776.83,466.5,767.83,462.5,771.83,458.5,767.83,462.5,776.83" style="stroke:#181818;stroke-width:1.0;"/><text fill="#000000" font-family="sans-serif" font-size="13" lengthAdjust="spacing" textLength="7" x="455.0953" y="765.7915">1</text></g><!--link Advertisement to Offer--><g id="link_Advertisement_Offer"><path codeLine="119" d="M508.73,716.15 C532.07,746.51 555.5,777 555.5,777 C555.5,777 636.5,960 636.5,960 C636.5,960 640.72,1147.12 643.03,1249.66 " fill="none" id="Advertisement-to-Offer" style="stroke:#181818;stroke-width:1.0;"/><polygon fill="#181818" points="643.14,1254.78,646.9333,1245.6909,643.0257,1249.7813,638.9354,1245.8738,643.14,1254.78" style="stroke:#181818;stroke-width:1.0;"/><text fill="#000000" font-family="sans-serif" font-size="13" lengthAdjust="spacing" textLength="5" x="637.6937" y="1243.7358">*</text></g><!--reverse link Person to Offer--><g id="link_Person_Offer"><path codeLine="121" d="M600.45,1198.99 C607.8,1218.34 615.11,1237.61 621.61,1254.72 " fill="none" id="Person-backto-Offer" style="stroke:#181818;stroke-width:1.0;"/><polygon fill="#181818" points="598.58,1194.07,598.0573,1203.905,600.3653,1198.7404,605.5299,1201.0485,598.58,1194.07" style="stroke:#181818;stroke-width:1.0;"/><text fill="#000000" font-family="sans-serif" font-size="13" lengthAdjust="spacing" textLength="7" x="594.1797" y="1216.1452">1</text><text fill="#000000" font-family="sans-serif" font-size="13" lengthAdjust="spacing" textLength="5" x="613.6743" y="1243.6688">*</text></g><!--link Offer to OfferStatus--><g id="link_Offer_OfferStatus"><path codeLine="122" d="M644.5,1377.23 C644.5,1395.95 644.5,1416.05 644.5,1432.78 " fill="none" id="Offer-to-OfferStatus" style="stroke:#181818;stroke-width:1.0;"/><polygon fill="#181818" points="644.5,1437.86,648.5,1428.86,644.5,1432.86,640.5,1428.86,644.5,1437.86" style="stroke:#181818;stroke-width:1.0;"/><text fill="#000000" font-family="sans-serif" font-size="13" lengthAdjust="spacing" textLength="7" x="636.8109" y="1426.658">1</text></g><!--link Request to Employee--><g id="link_Request_Employee"><path codeLine="123" d="M464.2,899.22 C467.05,1000.5 472.5,1194 472.5,1194 C472.5,1194 475.65,1241.62 478,1277.11 " fill="none" id="Request-to-Employee" style="stroke:#181818;stroke-width:1.0;"/><polygon fill="#181818" points="478.34,1282.26,481.7395,1273.0164,478.0112,1277.2708,473.7568,1273.5425,478.34,1282.26" style="stroke:#181818;stroke-width:1.0;"/><text fill="#000000" font-family="sans-serif" font-size="13" lengthAdjust="spacing" textLength="7" x="470.2611" y="1271.3002">1</text></g><!--link Request to Person--><g id="link_Request_Person"><path codeLine="124" d="M485.83,899.11 C492.46,916.18 499.92,935.4 507.42,954.72 " fill="none" id="Request-to-Person" style="stroke:#181818;stroke-width:1.0;"/><polygon fill="#181818" points="509.33,959.63,509.8164,949.7932,507.5274,954.9662,502.3544,952.6773,509.33,959.63" style="stroke:#181818;stroke-width:1.0;"/><text fill="#000000" font-family="sans-serif" font-size="13" lengthAdjust="spacing" textLength="7" x="499.2121" y="948.5973">1</text></g><!--SRC=[dLRBSjem55tNNw799gGyfjqIoWmfMJ2Jban9shMmBw29BBcId8n3y- -zacpZPycKXV5z-kZewjYN-ec9X2eQarWA6HwKZ84ObK9mYYGqVA9xs9YC0r4G6Yhsl9gW3pIIBqpioOvoNOrm9i1a2P14yimQmML7K2eZWqfLoAdM2sCKswO6Lg4K6_OAv5CGN7BO6M8aKMn_C2HY5WwJ8i2Vgo8_896Q6QaOQ78C2Fx6TISJ6bSGGaTiSEMSmth17imghoaJ5j4pACCqn21CcPtPt9vGMNeFIajHhsdwCFcjM96F7OCnkOqfumJizHhD3HA4d0iQWpMPCBXLMYT89zhMD4paTyb12lYUnbjGbL9j582fE5vPKWjJ0nKxP2P3CxSYXkKinFAt7EbwjmDbWIwnZaIks9Fi8XjibshNDTMsRIJJBOwKjC4Yqwynv0p9k_KhBPcuZHCkCu1YMtCWIk8qbacBC8J4hDKIGZjWxidwgnG6qpWed0bNxVVY3jVGpCWtwfGmg-teyc4znz7L1g9x9HCR0FsBcOFlKwjsBYmWr8Eovg3PZT1eL2PwCl2kiqrKMTD_z7cMB28QHEI8VP2F6jluyI8fte-s4gca8Y-6a6ayMrV7C-G-hggaZliuemtFvhfp8nvNWnPc7BM4q-okmNf78d0miE0ytumMHv6HFKNhV_5wseAIr-DRiuzAHVNSrleK8rkUZFe8XpAEcRPiFw0W5hd-U9nYFobFVN1OQpxex3BghX-L41nM50TGEne2Qjxl57IEj8xJAaYKAcgbThrpHuM6neNoCwmfXtjK0wWw5MBppcvIJdfNqDCUdSRSe6vy67QcDPLNtsIBlIMdK0qKJd_JqjOcZg7hxsDpahX_JRuG0IzaePGVnDbyS7LTa_IJaDzaxeGL-_84aAnV12ZdTOy7aSPLLVGFzj9eurrqVQD9OlLrs9fG8_5Q7roaxQgHINRuTiT48nVBhYbtmCx9vtWyxqA5Y6llJ9jMSqnFxzq-4PdCpudt58Uvk3yFTTA2e2fc1-2BpnUjYUZEwXdZTs2QJEPzrLFQq_LTJLkV5TDySclmUZvRtBe-DjOL1AsUHPuF50bazcSyBj_EZQUKdENwqXd6bcvLPKTRCCEcfuYxbiqgHoV86nUn4aV3Ns3-2m00]--></g></svg>