<?xml version="1.0" encoding="us-ascii" standalone="no"?><svg xmlns="http://www.w3.org/2000/svg" xmlns:xlink="http://www.w3.org/1999/xlink" contentStyleType="text/css" height="2062px" preserveAspectRatio="none" style="width:2310px;height:2062px;background:#FFFFFF;" version="1.1" viewBox="0 0 2310 2062" width="2310px" zoomAndPan="magnify"><defs/><g><rect fill="#FFFFFF" height="1876.2578" style="stroke:#181818;stroke-width:1.0;" width="10" x="36.5" y="93.6211"/><rect fill="#FFFFFF" height="1852.9668" style="stroke:#181818;stroke-width:1.0;" width="10" x="505.5" y="116.9121"/><rect fill="#FFFFFF" height="62.582" style="stroke:#181818;stroke-width:1.0;" width="10" x="801.5" y="148.2031"/><rect fill="#FFFFFF" height="1718.8027" style="stroke:#181818;stroke-width:1.0;" width="10" x="801.5" y="242.0762"/><rect fill="#FFFFFF" height="31.291" style="stroke:#181818;stroke-width:1.0;" width="10" x="1009.5" y="179.4941"/><rect fill="#FFFFFF" height="31.291" style="stroke:#181818;stroke-width:1.0;" width="10" x="1116.5" y="273.3672"/><rect fill="#FFFFFF" height="31.291" style="stroke:#181818;stroke-width:1.0;" width="10" x="1263" y="335.9492"/><rect fill="#FFFFFF" height="31.291" style="stroke:#181818;stroke-width:1.0;" width="10" x="1263" y="1330.3008"/><rect fill="#FFFFFF" height="31.291" style="stroke:#181818;stroke-width:1.0;" width="10" x="1263" y="1439.1738"/><rect fill="#FFFFFF" height="31.291" style="stroke:#181818;stroke-width:1.0;" width="10" x="1263" y="1808.7148"/><rect fill="#FFFFFF" height="158.4551" style="stroke:#181818;stroke-width:1.0;" width="10" x="1630" y="468.4434"/><rect fill="#FFFFFF" height="31.291" style="stroke:#181818;stroke-width:1.0;" width="10" x="1630" y="1108.2637"/><rect fill="#FFFFFF" height="31.291" style="stroke:#181818;stroke-width:1.0;" width="10" x="1630" y="1639.2598"/><rect fill="#FFFFFF" height="31.291" style="stroke:#181818;stroke-width:1.0;" width="10" x="1767" y="526.0254"/><rect fill="#FFFFFF" height="31.291" style="stroke:#181818;stroke-width:1.0;" width="10" x="1767" y="1170.8457"/><rect fill="#FFFFFF" height="31.291" style="stroke:#181818;stroke-width:1.0;" width="10" x="1767" y="1701.8418"/><rect fill="#FFFFFF" height="108.873" style="stroke:#181818;stroke-width:1.0;" width="10" x="2059" y="727.7715"/><rect fill="#FFFFFF" height="287.9492" style="stroke:#181818;stroke-width:1.0;" width="10" x="2259" y="408.5313"/><rect fill="none" height="240.3281" style="stroke:#000000;stroke-width:1.5;" width="1610" x="682" y="425.8613"/><rect fill="none" height="81.873" style="stroke:#000000;stroke-width:1.5;" width="284" x="1547" y="483.4434"/><rect fill="none" height="63.582" style="stroke:#000000;stroke-width:1.5;" width="335" x="1969" y="742.7715"/><rect fill="none" height="1047.6523" style="stroke:#000000;stroke-width:1.5;" width="1831" x="10" y="882.9355"/><rect fill="none" height="889.1973" style="stroke:#000000;stroke-width:1.5;" width="1420" x="411" y="1034.3906"/><rect fill="none" height="268.3281" style="stroke:#000000;stroke-width:1.5;" width="704" x="672" y="1217.1367"/><rect fill="none" height="235.0371" style="stroke:#000000;stroke-width:1.5;" width="684" x="682" y="1243.4277"/><line style="stroke:#181818;stroke-width:0.5;stroke-dasharray:5.0,5.0;" x1="41" x2="41" y1="83.6211" y2="1978.8789"/><line style="stroke:#181818;stroke-width:0.5;stroke-dasharray:5.0,5.0;" x1="510" x2="510" y1="83.6211" y2="1978.8789"/><line style="stroke:#181818;stroke-width:0.5;stroke-dasharray:5.0,5.0;" x1="806" x2="806" y1="83.6211" y2="1978.8789"/><line style="stroke:#181818;stroke-width:0.5;stroke-dasharray:5.0,5.0;" x1="1014" x2="1014" y1="83.6211" y2="1978.8789"/><line style="stroke:#181818;stroke-width:0.5;stroke-dasharray:5.0,5.0;" x1="1121" x2="1121" y1="83.6211" y2="1978.8789"/><line style="stroke:#181818;stroke-width:0.5;stroke-dasharray:5.0,5.0;" x1="1268" x2="1268" y1="83.6211" y2="1978.8789"/><line style="stroke:#181818;stroke-width:0.5;stroke-dasharray:5.0,5.0;" x1="1456" x2="1456" y1="83.6211" y2="1978.8789"/><line style="stroke:#181818;stroke-width:0.5;stroke-dasharray:5.0,5.0;" x1="1635" x2="1635" y1="83.6211" y2="1978.8789"/><line style="stroke:#181818;stroke-width:0.5;stroke-dasharray:5.0,5.0;" x1="1772" x2="1772" y1="83.6211" y2="1978.8789"/><line style="stroke:#181818;stroke-width:0.5;stroke-dasharray:5.0,5.0;" x1="1900" x2="1900" y1="83.6211" y2="1978.8789"/><line style="stroke:#181818;stroke-width:0.5;stroke-dasharray:5.0,5.0;" x1="2064" x2="2064" y1="83.6211" y2="1978.8789"/><line style="stroke:#181818;stroke-width:0.5;stroke-dasharray:5.0,5.0;" x1="2264" x2="2264" y1="407.0508" y2="1978.8789"/><text fill="#000000" font-family="sans-serif" font-size="14" lengthAdjust="spacing" textLength="37" x="20" y="80.1074">Agent</text><ellipse cx="41.5" cy="13.5" fill="#E3E3E3" rx="8" ry="8" style="stroke:#181818;stroke-width:0.5;"/><path d="M41.5,21.5 L41.5,48.5 M28.5,29.5 L54.5,29.5 M41.5,48.5 L28.5,63.5 M41.5,48.5 L54.5,63.5 " fill="none" style="stroke:#181818;stroke-width:0.5;"/><text fill="#000000" font-family="sans-serif" font-size="14" lengthAdjust="spacing" textLength="37" x="20" y="1992.9863">Agent</text><ellipse cx="41.5" cy="2005" fill="#E3E3E3" rx="8" ry="8" style="stroke:#181818;stroke-width:0.5;"/><path d="M41.5,2013 L41.5,2040 M28.5,2021 L54.5,2021 M41.5,2040 L28.5,2055 M41.5,2040 L54.5,2055 " fill="none" style="stroke:#181818;stroke-width:0.5;"/><rect fill="#E3E3E3" height="32.6211" rx="2.5" ry="2.5" style="stroke:#181818;stroke-width:0.5;" width="179" x="421" y="50"/><text fill="#000000" font-family="sans-serif" font-size="14" lengthAdjust="spacing" textLength="165" x="428" y="72.1074">: AcceptOrDeclineOffersUI</text><rect fill="#E3E3E3" height="32.6211" rx="2.5" ry="2.5" style="stroke:#181818;stroke-width:0.5;" width="179" x="421" y="1977.8789"/><text fill="#000000" font-family="sans-serif" font-size="14" lengthAdjust="spacing" textLength="165" x="428" y="1999.9863">: AcceptOrDeclineOffersUI</text><rect fill="#E3E3E3" height="32.6211" rx="2.5" ry="2.5" style="stroke:#181818;stroke-width:0.5;" width="229" x="692" y="50"/><text fill="#000000" font-family="sans-serif" font-size="14" lengthAdjust="spacing" textLength="215" x="699" y="72.1074">: AcceptOrDeclineOffersController</text><rect fill="#E3E3E3" height="32.6211" rx="2.5" ry="2.5" style="stroke:#181818;stroke-width:0.5;" width="229" x="692" y="1977.8789"/><text fill="#000000" font-family="sans-serif" font-size="14" lengthAdjust="spacing" textLength="215" x="699" y="1999.9863">: AcceptOrDeclineOffersController</text><rect fill="#E3E3E3" height="32.6211" rx="2.5" ry="2.5" style="stroke:#181818;stroke-width:0.5;" width="97" x="966" y="50"/><text fill="#000000" font-family="sans-serif" font-size="14" lengthAdjust="spacing" textLength="83" x="973" y="72.1074">:Repositories</text><rect fill="#E3E3E3" height="32.6211" rx="2.5" ry="2.5" style="stroke:#181818;stroke-width:0.5;" width="97" x="966" y="1977.8789"/><text fill="#000000" font-family="sans-serif" font-size="14" lengthAdjust="spacing" textLength="83" x="973" y="1999.9863">:Repositories</text><rect fill="#E3E3E3" height="51.2422" rx="2.5" ry="2.5" style="stroke:#181818;stroke-width:0.5;" width="97" x="1073" y="31.3789"/><text fill="#000000" font-family="sans-serif" font-size="14" lengthAdjust="spacing" textLength="74" x="1084.5" y="53.4863">repositories</text><text fill="#000000" font-family="sans-serif" font-size="14" lengthAdjust="spacing" textLength="83" x="1080" y="72.1074">:Repositories</text><rect fill="#E3E3E3" height="51.2422" rx="2.5" ry="2.5" style="stroke:#181818;stroke-width:0.5;" width="97" x="1073" y="1977.8789"/><text fill="#000000" font-family="sans-serif" font-size="14" lengthAdjust="spacing" textLength="74" x="1084.5" y="1999.9863">repositories</text><text fill="#000000" font-family="sans-serif" font-size="14" lengthAdjust="spacing" textLength="83" x="1080" y="2018.6074">:Repositories</text><rect fill="#E3E3E3" height="51.2422" rx="2.5" ry="2.5" style="stroke:#181818;stroke-width:0.5;" width="176" x="1180" y="31.3789"/><text fill="#000000" font-family="sans-serif" font-size="14" lengthAdjust="spacing" textLength="157" x="1189.5" y="53.4863">advertisementRepository</text><text fill="#000000" font-family="sans-serif" font-size="14" lengthAdjust="spacing" textLength="162" x="1187" y="72.1074">:AdvertisementRepository</text><rect fill="#E3E3E3" height="51.2422" rx="2.5" ry="2.5" style="stroke:#181818;stroke-width:0.5;" width="176" x="1180" y="1977.8789"/><text fill="#000000" font-family="sans-serif" font-size="14" lengthAdjust="spacing" textLength="157" x="1189.5" y="1999.9863">advertisementRepository</text><text fill="#000000" font-family="sans-serif" font-size="14" lengthAdjust="spacing" textLength="162" x="1187" y="2018.6074">:AdvertisementRepository</text><rect fill="#E3E3E3" height="51.2422" rx="2.5" ry="2.5" style="stroke:#181818;stroke-width:0.5;" width="181" x="1366" y="31.3789"/><text fill="#000000" font-family="sans-serif" font-size="14" lengthAdjust="spacing" textLength="160" x="1376.5" y="53.4863">offerFeedbackRepository</text><text fill="#000000" font-family="sans-serif" font-size="14" lengthAdjust="spacing" textLength="167" x="1373" y="72.1074">:OfferFeedbackRepository</text><rect fill="#E3E3E3" height="51.2422" rx="2.5" ry="2.5" style="stroke:#181818;stroke-width:0.5;" width="181" x="1366" y="1977.8789"/><text fill="#000000" font-family="sans-serif" font-size="14" lengthAdjust="spacing" textLength="160" x="1376.5" y="1999.9863">offerFeedbackRepository</text><text fill="#000000" font-family="sans-serif" font-size="14" lengthAdjust="spacing" textLength="167" x="1373" y="2018.6074">:OfferFeedbackRepository</text><rect fill="#E3E3E3" height="32.6211" rx="2.5" ry="2.5" style="stroke:#181818;stroke-width:0.5;" width="156" x="1557" y="50"/><text fill="#000000" font-family="sans-serif" font-size="14" lengthAdjust="spacing" textLength="142" x="1564" y="72.1074">:AdvertisementMapper</text><rect fill="#E3E3E3" height="32.6211" rx="2.5" ry="2.5" style="stroke:#181818;stroke-width:0.5;" width="156" x="1557" y="1977.8789"/><text fill="#000000" font-family="sans-serif" font-size="14" lengthAdjust="spacing" textLength="142" x="1564" y="1999.9863">:AdvertisementMapper</text><rect fill="#E3E3E3" height="32.6211" rx="2.5" ry="2.5" style="stroke:#181818;stroke-width:0.5;" width="98" x="1723" y="50"/><text fill="#000000" font-family="sans-serif" font-size="14" lengthAdjust="spacing" textLength="84" x="1730" y="72.1074">:OfferMapper</text><rect fill="#E3E3E3" height="32.6211" rx="2.5" ry="2.5" style="stroke:#181818;stroke-width:0.5;" width="98" x="1723" y="1977.8789"/><text fill="#000000" font-family="sans-serif" font-size="14" lengthAdjust="spacing" textLength="84" x="1730" y="1999.9863">:OfferMapper</text><rect fill="#E3E3E3" height="32.6211" rx="2.5" ry="2.5" style="stroke:#181818;stroke-width:0.5;" width="138" x="1831" y="50"/><text fill="#000000" font-family="sans-serif" font-size="14" lengthAdjust="spacing" textLength="124" x="1838" y="72.1074">:AdvertisementDTO</text><rect fill="#E3E3E3" height="32.6211" rx="2.5" ry="2.5" style="stroke:#181818;stroke-width:0.5;" width="138" x="1831" y="1977.8789"/><text fill="#000000" font-family="sans-serif" font-size="14" lengthAdjust="spacing" textLength="124" x="1838" y="1999.9863">:AdvertisementDTO</text><rect fill="#E3E3E3" height="32.6211" rx="2.5" ry="2.5" style="stroke:#181818;stroke-width:0.5;" width="170" x="1979" y="50"/><text fill="#000000" font-family="sans-serif" font-size="14" lengthAdjust="spacing" textLength="156" x="1986" y="72.1074">:AdvertisementCollection</text><rect fill="#E3E3E3" height="32.6211" rx="2.5" ry="2.5" style="stroke:#181818;stroke-width:0.5;" width="170" x="1979" y="1977.8789"/><text fill="#000000" font-family="sans-serif" font-size="14" lengthAdjust="spacing" textLength="156" x="1986" y="1999.9863">:AdvertisementCollection</text><rect fill="#E3E3E3" height="32.6211" rx="2.5" ry="2.5" style="stroke:#181818;stroke-width:0.5;" width="36" x="2246" y="1977.8789"/><text fill="#000000" font-family="sans-serif" font-size="14" lengthAdjust="spacing" textLength="22" x="2253" y="1999.9863">List</text><rect fill="#FFFFFF" height="1876.2578" style="stroke:#181818;stroke-width:1.0;" width="10" x="36.5" y="93.6211"/><rect fill="#FFFFFF" height="1852.9668" style="stroke:#181818;stroke-width:1.0;" width="10" x="505.5" y="116.9121"/><rect fill="#FFFFFF" height="62.582" style="stroke:#181818;stroke-width:1.0;" width="10" x="801.5" y="148.2031"/><rect fill="#FFFFFF" height="1718.8027" style="stroke:#181818;stroke-width:1.0;" width="10" x="801.5" y="242.0762"/><rect fill="#FFFFFF" height="31.291" style="stroke:#181818;stroke-width:1.0;" width="10" x="1009.5" y="179.4941"/><rect fill="#FFFFFF" height="31.291" style="stroke:#181818;stroke-width:1.0;" width="10" x="1116.5" y="273.3672"/><rect fill="#FFFFFF" height="31.291" style="stroke:#181818;stroke-width:1.0;" width="10" x="1263" y="335.9492"/><rect fill="#FFFFFF" height="31.291" style="stroke:#181818;stroke-width:1.0;" width="10" x="1263" y="1330.3008"/><rect fill="#FFFFFF" height="31.291" style="stroke:#181818;stroke-width:1.0;" width="10" x="1263" y="1439.1738"/><rect fill="#FFFFFF" height="31.291" style="stroke:#181818;stroke-width:1.0;" width="10" x="1263" y="1808.7148"/><rect fill="#FFFFFF" height="158.4551" style="stroke:#181818;stroke-width:1.0;" width="10" x="1630" y="468.4434"/><rect fill="#FFFFFF" height="31.291" style="stroke:#181818;stroke-width:1.0;" width="10" x="1630" y="1108.2637"/><rect fill="#FFFFFF" height="31.291" style="stroke:#181818;stroke-width:1.0;" width="10" x="1630" y="1639.2598"/><rect fill="#FFFFFF" height="31.291" style="stroke:#181818;stroke-width:1.0;" width="10" x="1767" y="526.0254"/><rect fill="#FFFFFF" height="31.291" style="stroke:#181818;stroke-width:1.0;" width="10" x="1767" y="1170.8457"/><rect fill="#FFFFFF" height="31.291" style="stroke:#181818;stroke-width:1.0;" width="10" x="1767" y="1701.8418"/><rect fill="#FFFFFF" height="108.873" style="stroke:#181818;stroke-width:1.0;" width="10" x="2059" y="727.7715"/><rect fill="#FFFFFF" height="287.9492" style="stroke:#181818;stroke-width:1.0;" width="10" x="2259" y="408.5313"/><polygon fill="#181818" points="493.5,112.9121,503.5,116.9121,493.5,120.9121,497.5,116.9121" style="stroke:#181818;stroke-width:1.0;"/><line style="stroke:#181818;stroke-width:1.0;" x1="46.5" x2="499.5" y1="116.9121" y2="116.9121"/><text fill="#000000" font-family="sans-serif" font-size="13" font-weight="bold" lengthAdjust="spacing" textLength="7" x="53.5" y="111.6494">1</text><text fill="#000000" font-family="sans-serif" font-size="13" lengthAdjust="spacing" textLength="99" x="64.5" y="111.6494">asks to list offers</text><polygon fill="#181818" points="789.5,144.2031,799.5,148.2031,789.5,152.2031,793.5,148.2031" style="stroke:#181818;stroke-width:1.0;"/><line style="stroke:#181818;stroke-width:1.0;" x1="515.5" x2="795.5" y1="148.2031" y2="148.2031"/><text fill="#000000" font-family="sans-serif" font-size="13" font-weight="bold" lengthAdjust="spacing" textLength="7" x="522.5" y="142.9404">2</text><text fill="#000000" font-family="sans-serif" font-size="13" lengthAdjust="spacing" textLength="44" x="533.5" y="142.9404">create()</text><polygon fill="#181818" points="997.5,175.4941,1007.5,179.4941,997.5,183.4941,1001.5,179.4941" style="stroke:#181818;stroke-width:1.0;"/><line style="stroke:#181818;stroke-width:1.0;" x1="811.5" x2="1003.5" y1="179.4941" y2="179.4941"/><text fill="#000000" font-family="sans-serif" font-size="13" font-weight="bold" lengthAdjust="spacing" textLength="7" x="818.5" y="174.2314">3</text><text fill="#000000" font-family="sans-serif" font-size="13" lengthAdjust="spacing" textLength="75" x="829.5" y="174.2314">getInstance()</text><polygon fill="#181818" points="817.5,206.7852,807.5,210.7852,817.5,214.7852,813.5,210.7852" style="stroke:#181818;stroke-width:1.0;"/><line style="stroke:#181818;stroke-width:1.0;stroke-dasharray:2.0,2.0;" x1="811.5" x2="1013.5" y1="210.7852" y2="210.7852"/><text fill="#000000" font-family="sans-serif" font-size="13" font-weight="bold" lengthAdjust="spacing" textLength="7" x="823.5" y="205.5225">4</text><text fill="#000000" font-family="sans-serif" font-size="13" lengthAdjust="spacing" textLength="67" x="834.5" y="205.5225">repositories</text><polygon fill="#181818" points="789.5,238.0762,799.5,242.0762,789.5,246.0762,793.5,242.0762" style="stroke:#181818;stroke-width:1.0;"/><line style="stroke:#181818;stroke-width:1.0;" x1="515.5" x2="795.5" y1="242.0762" y2="242.0762"/><text fill="#000000" font-family="sans-serif" font-size="13" font-weight="bold" lengthAdjust="spacing" textLength="7" x="522.5" y="236.8135">5</text><text fill="#000000" font-family="sans-serif" font-size="13" lengthAdjust="spacing" textLength="159" x="533.5" y="236.8135">listedPropertiesWithOffers()</text><polygon fill="#181818" points="1104.5,269.3672,1114.5,273.3672,1104.5,277.3672,1108.5,273.3672" style="stroke:#181818;stroke-width:1.0;"/><line style="stroke:#181818;stroke-width:1.0;" x1="811.5" x2="1110.5" y1="273.3672" y2="273.3672"/><text fill="#000000" font-family="sans-serif" font-size="13" font-weight="bold" lengthAdjust="spacing" textLength="7" x="818.5" y="268.1045">6</text><text fill="#000000" font-family="sans-serif" font-size="13" lengthAdjust="spacing" textLength="150" x="829.5" y="268.1045">advertisementRepository()</text><polygon fill="#181818" points="822.5,300.6582,812.5,304.6582,822.5,308.6582,818.5,304.6582" style="stroke:#181818;stroke-width:1.0;"/><line style="stroke:#181818;stroke-width:1.0;stroke-dasharray:2.0,2.0;" x1="816.5" x2="1120.5" y1="304.6582" y2="304.6582"/><text fill="#000000" font-family="sans-serif" font-size="13" font-weight="bold" lengthAdjust="spacing" textLength="7" x="828.5" y="299.3955">7</text><text fill="#000000" font-family="sans-serif" font-size="13" lengthAdjust="spacing" textLength="142" x="839.5" y="299.3955">advertisementRepository</text><polygon fill="#181818" points="1251,331.9492,1261,335.9492,1251,339.9492,1255,335.9492" style="stroke:#181818;stroke-width:1.0;"/><line style="stroke:#181818;stroke-width:1.0;" x1="811.5" x2="1257" y1="335.9492" y2="335.9492"/><text fill="#000000" font-family="sans-serif" font-size="13" font-weight="bold" lengthAdjust="spacing" textLength="7" x="818.5" y="330.6865">8</text><text fill="#000000" font-family="sans-serif" font-size="13" lengthAdjust="spacing" textLength="200" x="829.5" y="330.6865">getAdvertisementsForAgent(agent)</text><polygon fill="#181818" points="822.5,363.2402,812.5,367.2402,822.5,371.2402,818.5,367.2402" style="stroke:#181818;stroke-width:1.0;"/><line style="stroke:#181818;stroke-width:1.0;" x1="816.5" x2="1267" y1="367.2402" y2="367.2402"/><text fill="#000000" font-family="sans-serif" font-size="13" font-weight="bold" lengthAdjust="spacing" textLength="7" x="828.5" y="361.9775">9</text><text fill="#000000" font-family="sans-serif" font-size="13" lengthAdjust="spacing" textLength="101" x="839.5" y="361.9775">advertisementList</text><polygon fill="#181818" points="2234,394.5313,2244,398.5313,2234,402.5313,2238,398.5313" style="stroke:#181818;stroke-width:1.0;"/><line style="stroke:#181818;stroke-width:1.0;" x1="811.5" x2="2240" y1="398.5313" y2="398.5313"/><text fill="#000000" font-family="sans-serif" font-size="13" font-weight="bold" lengthAdjust="spacing" textLength="14" x="818.5" y="393.2686">10</text><text fill="#000000" font-family="sans-serif" font-size="13" lengthAdjust="spacing" textLength="44" x="836.5" y="393.2686">create()</text><rect fill="#E3E3E3" height="32.6211" rx="2.5" ry="2.5" style="stroke:#181818;stroke-width:0.5;" width="36" x="2246" y="375.2402"/><text fill="#000000" font-family="sans-serif" font-size="14" lengthAdjust="spacing" textLength="22" x="2253" y="397.3477">List</text><path d="M682,425.8613 L759,425.8613 L759,435.1523 L749,445.1523 L682,445.1523 L682,425.8613 " fill="#EEEEEE" style="stroke:#000000;stroke-width:1.5;"/><rect fill="none" height="240.3281" style="stroke:#000000;stroke-width:1.5;" width="1610" x="682" y="425.8613"/><text fill="#000000" font-family="sans-serif" font-size="13" font-weight="bold" lengthAdjust="spacing" textLength="28" x="697" y="440.8896">loop</text><text fill="#000000" font-family="sans-serif" font-size="11" font-weight="bold" lengthAdjust="spacing" textLength="194" x="774" y="439.7314">[advertisement:advertisementList]</text><polygon fill="#181818" points="1618,464.4434,1628,468.4434,1618,472.4434,1622,468.4434" style="stroke:#181818;stroke-width:1.0;"/><line style="stroke:#181818;stroke-width:1.0;" x1="811.5" x2="1624" y1="468.4434" y2="468.4434"/><text fill="#000000" font-family="sans-serif" font-size="13" font-weight="bold" lengthAdjust="spacing" textLength="14" x="818.5" y="463.1807">11</text><text fill="#000000" font-family="sans-serif" font-size="13" lengthAdjust="spacing" textLength="125" x="836.5" y="463.1807">toDTO(advertisement)</text><path d="M1547,483.4434 L1624,483.4434 L1624,492.7344 L1614,502.7344 L1547,502.7344 L1547,483.4434 " fill="#EEEEEE" style="stroke:#000000;stroke-width:1.5;"/><rect fill="none" height="81.873" style="stroke:#000000;stroke-width:1.5;" width="284" x="1547" y="483.4434"/><text fill="#000000" font-family="sans-serif" font-size="13" font-weight="bold" lengthAdjust="spacing" textLength="28" x="1562" y="498.4717">loop</text><text fill="#000000" font-family="sans-serif" font-size="11" font-weight="bold" lengthAdjust="spacing" textLength="83" x="1639" y="497.3135">[for each offer]</text><polygon fill="#181818" points="1755,522.0254,1765,526.0254,1755,530.0254,1759,526.0254" style="stroke:#181818;stroke-width:1.0;"/><line style="stroke:#181818;stroke-width:1.0;" x1="1640" x2="1761" y1="526.0254" y2="526.0254"/><text fill="#000000" font-family="sans-serif" font-size="13" font-weight="bold" lengthAdjust="spacing" textLength="14" x="1647" y="520.7627">12</text><text fill="#000000" font-family="sans-serif" font-size="13" lengthAdjust="spacing" textLength="69" x="1665" y="520.7627">toDTO(offer)</text><polygon fill="#181818" points="1651,553.3164,1641,557.3164,1651,561.3164,1647,557.3164" style="stroke:#181818;stroke-width:1.0;"/><line style="stroke:#181818;stroke-width:1.0;stroke-dasharray:2.0,2.0;" x1="1645" x2="1771" y1="557.3164" y2="557.3164"/><text fill="#000000" font-family="sans-serif" font-size="13" font-weight="bold" lengthAdjust="spacing" textLength="14" x="1657" y="552.0537">13</text><text fill="#000000" font-family="sans-serif" font-size="13" lengthAdjust="spacing" textLength="50" x="1675" y="552.0537">offerDTO</text><polygon fill="#181818" points="1888,591.6074,1898,595.6074,1888,599.6074,1892,595.6074" style="stroke:#181818;stroke-width:1.0;"/><line style="stroke:#181818;stroke-width:1.0;" x1="1640" x2="1894" y1="595.6074" y2="595.6074"/><text fill="#000000" font-family="sans-serif" font-size="13" font-weight="bold" lengthAdjust="spacing" textLength="14" x="1647" y="590.3447">14</text><text fill="#000000" font-family="sans-serif" font-size="13" lengthAdjust="spacing" textLength="44" x="1665" y="590.3447">create()</text><polygon fill="#181818" points="822.5,622.8984,812.5,626.8984,822.5,630.8984,818.5,626.8984" style="stroke:#181818;stroke-width:1.0;"/><line style="stroke:#181818;stroke-width:1.0;stroke-dasharray:2.0,2.0;" x1="816.5" x2="1634" y1="626.8984" y2="626.8984"/><text fill="#000000" font-family="sans-serif" font-size="13" font-weight="bold" lengthAdjust="spacing" textLength="14" x="828.5" y="621.6357">15</text><text fill="#000000" font-family="sans-serif" font-size="13" lengthAdjust="spacing" textLength="106" x="846.5" y="621.6357">advertisementDTO</text><polygon fill="#181818" points="2247,654.1895,2257,658.1895,2247,662.1895,2251,658.1895" style="stroke:#181818;stroke-width:1.0;"/><line style="stroke:#181818;stroke-width:1.0;" x1="811.5" x2="2253" y1="658.1895" y2="658.1895"/><text fill="#000000" font-family="sans-serif" font-size="13" font-weight="bold" lengthAdjust="spacing" textLength="14" x="818.5" y="652.9268">16</text><text fill="#000000" font-family="sans-serif" font-size="13" lengthAdjust="spacing" textLength="135" x="836.5" y="652.9268">add(advertisementDTO)</text><polygon fill="#181818" points="822.5,692.4805,812.5,696.4805,822.5,700.4805,818.5,696.4805" style="stroke:#181818;stroke-width:1.0;"/><line style="stroke:#181818;stroke-width:1.0;stroke-dasharray:2.0,2.0;" x1="816.5" x2="2263" y1="696.4805" y2="696.4805"/><text fill="#000000" font-family="sans-serif" font-size="13" font-weight="bold" lengthAdjust="spacing" textLength="14" x="828.5" y="691.2178">17</text><text fill="#000000" font-family="sans-serif" font-size="13" lengthAdjust="spacing" textLength="127" x="846.5" y="691.2178">advertisementDTOList</text><polygon fill="#181818" points="2047,723.7715,2057,727.7715,2047,731.7715,2051,727.7715" style="stroke:#181818;stroke-width:1.0;"/><line style="stroke:#181818;stroke-width:1.0;" x1="811.5" x2="2053" y1="727.7715" y2="727.7715"/><text fill="#000000" font-family="sans-serif" font-size="13" font-weight="bold" lengthAdjust="spacing" textLength="14" x="818.5" y="722.5088">18</text><text fill="#000000" font-family="sans-serif" font-size="13" lengthAdjust="spacing" textLength="200" x="836.5" y="722.5088">sortByDate(advertisementDTOList)</text><path d="M1969,742.7715 L2046,742.7715 L2046,752.0625 L2036,762.0625 L1969,762.0625 L1969,742.7715 " fill="#EEEEEE" style="stroke:#000000;stroke-width:1.5;"/><rect fill="none" height="63.582" style="stroke:#000000;stroke-width:1.5;" width="335" x="1969" y="742.7715"/><text fill="#000000" font-family="sans-serif" font-size="13" font-weight="bold" lengthAdjust="spacing" textLength="28" x="1984" y="757.7998">loop</text><text fill="#000000" font-family="sans-serif" font-size="11" font-weight="bold" lengthAdjust="spacing" textLength="238" x="2061" y="756.6416">[advertisementDTO:advertisementDTOList]</text><line style="stroke:#181818;stroke-width:1.0;" x1="2069" x2="2111" y1="785.3535" y2="785.3535"/><line style="stroke:#181818;stroke-width:1.0;" x1="2111" x2="2111" y1="785.3535" y2="798.3535"/><line style="stroke:#181818;stroke-width:1.0;" x1="2070" x2="2111" y1="798.3535" y2="798.3535"/><polygon fill="#181818" points="2080,794.3535,2070,798.3535,2080,802.3535,2076,798.3535" style="stroke:#181818;stroke-width:1.0;"/><text fill="#000000" font-family="sans-serif" font-size="13" font-weight="bold" lengthAdjust="spacing" textLength="14" x="2076" y="780.0908">19</text><text fill="#000000" font-family="sans-serif" font-size="13" lengthAdjust="spacing" textLength="158" x="2094" y="780.0908">sortOffersByValue(offerList)</text><polygon fill="#181818" points="822.5,832.6445,812.5,836.6445,822.5,840.6445,818.5,836.6445" style="stroke:#181818;stroke-width:1.0;"/><line style="stroke:#181818;stroke-width:1.0;stroke-dasharray:2.0,2.0;" x1="816.5" x2="2063" y1="836.6445" y2="836.6445"/><text fill="#000000" font-family="sans-serif" font-size="13" font-weight="bold" lengthAdjust="spacing" textLength="14" x="828.5" y="831.3818">20</text><text fill="#000000" font-family="sans-serif" font-size="13" lengthAdjust="spacing" textLength="165" x="846.5" y="831.3818">advertisementDTOSortedList</text><polygon fill="#181818" points="526.5,863.9355,516.5,867.9355,526.5,871.9355,522.5,867.9355" style="stroke:#181818;stroke-width:1.0;"/><line style="stroke:#181818;stroke-width:1.0;stroke-dasharray:2.0,2.0;" x1="520.5" x2="800.5" y1="867.9355" y2="867.9355"/><text fill="#000000" font-family="sans-serif" font-size="13" font-weight="bold" lengthAdjust="spacing" textLength="14" x="532.5" y="862.6729">21</text><text fill="#000000" font-family="sans-serif" font-size="13" lengthAdjust="spacing" textLength="165" x="550.5" y="862.6729">advertisementDTOSortedList</text><path d="M10,882.9355 L87,882.9355 L87,892.2266 L77,902.2266 L10,902.2266 L10,882.9355 " fill="#EEEEEE" style="stroke:#000000;stroke-width:1.5;"/><rect fill="none" height="1047.6523" style="stroke:#000000;stroke-width:1.5;" width="1831" x="10" y="882.9355"/><text fill="#000000" font-family="sans-serif" font-size="13" font-weight="bold" lengthAdjust="spacing" textLength="28" x="25" y="897.9639">loop</text><text fill="#000000" font-family="sans-serif" font-size="11" font-weight="bold" lengthAdjust="spacing" textLength="57" x="102" y="896.8057">[intended]</text><polygon fill="#181818" points="57.5,921.5176,47.5,925.5176,57.5,929.5176,53.5,925.5176" style="stroke:#181818;stroke-width:1.0;"/><line style="stroke:#181818;stroke-width:1.0;stroke-dasharray:2.0,2.0;" x1="51.5" x2="504.5" y1="925.5176" y2="925.5176"/><text fill="#000000" font-family="sans-serif" font-size="13" font-weight="bold" lengthAdjust="spacing" textLength="14" x="63.5" y="920.2549">22</text><text fill="#000000" font-family="sans-serif" font-size="13" lengthAdjust="spacing" textLength="417" x="81.5" y="920.2549">display sorted list of advertisements information and asks to choose one</text><polygon fill="#181818" points="493.5,952.8086,503.5,956.8086,493.5,960.8086,497.5,956.8086" style="stroke:#181818;stroke-width:1.0;"/><line style="stroke:#181818;stroke-width:1.0;" x1="46.5" x2="499.5" y1="956.8086" y2="956.8086"/><text fill="#000000" font-family="sans-serif" font-size="13" font-weight="bold" lengthAdjust="spacing" textLength="14" x="53.5" y="951.5459">23</text><text fill="#000000" font-family="sans-serif" font-size="13" lengthAdjust="spacing" textLength="95" x="71.5" y="951.5459">choose one offer</text><polygon fill="#181818" points="57.5,984.0996,47.5,988.0996,57.5,992.0996,53.5,988.0996" style="stroke:#181818;stroke-width:1.0;"/><line style="stroke:#181818;stroke-width:1.0;stroke-dasharray:2.0,2.0;" x1="51.5" x2="504.5" y1="988.0996" y2="988.0996"/><text fill="#000000" font-family="sans-serif" font-size="13" font-weight="bold" lengthAdjust="spacing" textLength="14" x="63.5" y="982.8369">24</text><text fill="#000000" font-family="sans-serif" font-size="13" lengthAdjust="spacing" textLength="95" x="81.5" y="982.8369">approve or reject</text><polygon fill="#181818" points="493.5,1015.3906,503.5,1019.3906,493.5,1023.3906,497.5,1019.3906" style="stroke:#181818;stroke-width:1.0;"/><line style="stroke:#181818;stroke-width:1.0;" x1="46.5" x2="499.5" y1="1019.3906" y2="1019.3906"/><text fill="#000000" font-family="sans-serif" font-size="13" font-weight="bold" lengthAdjust="spacing" textLength="14" x="53.5" y="1014.1279">25</text><text fill="#000000" font-family="sans-serif" font-size="13" lengthAdjust="spacing" textLength="48" x="71.5" y="1014.1279">decision</text><path d="M411,1034.3906 L472,1034.3906 L472,1043.6816 L462,1053.6816 L411,1053.6816 L411,1034.3906 " fill="#EEEEEE" style="stroke:#000000;stroke-width:1.5;"/><rect fill="none" height="889.1973" style="stroke:#000000;stroke-width:1.5;" width="1420" x="411" y="1034.3906"/><text fill="#000000" font-family="sans-serif" font-size="13" font-weight="bold" lengthAdjust="spacing" textLength="16" x="426" y="1049.4189">alt</text><text fill="#000000" font-family="sans-serif" font-size="11" font-weight="bold" lengthAdjust="spacing" textLength="53" x="487" y="1048.2607">[approve]</text><polygon fill="#181818" points="789.5,1072.9727,799.5,1076.9727,789.5,1080.9727,793.5,1076.9727" style="stroke:#181818;stroke-width:1.0;"/><line style="stroke:#181818;stroke-width:1.0;" x1="515.5" x2="795.5" y1="1076.9727" y2="1076.9727"/><text fill="#000000" font-family="sans-serif" font-size="13" font-weight="bold" lengthAdjust="spacing" textLength="14" x="522.5" y="1071.71">26</text><text fill="#000000" font-family="sans-serif" font-size="13" lengthAdjust="spacing" textLength="234" x="540.5" y="1071.71">acceptOffer(advertisementDTO,offerDTO)</text><polygon fill="#181818" points="1618,1104.2637,1628,1108.2637,1618,1112.2637,1622,1108.2637" style="stroke:#181818;stroke-width:1.0;"/><line style="stroke:#181818;stroke-width:1.0;" x1="811.5" x2="1624" y1="1108.2637" y2="1108.2637"/><text fill="#000000" font-family="sans-serif" font-size="13" font-weight="bold" lengthAdjust="spacing" textLength="14" x="818.5" y="1103.001">27</text><text fill="#000000" font-family="sans-serif" font-size="13" lengthAdjust="spacing" textLength="194" x="836.5" y="1103.001">fromDTOtoAD(advertisementDTO)</text><polygon fill="#181818" points="822.5,1135.5547,812.5,1139.5547,822.5,1143.5547,818.5,1139.5547" style="stroke:#181818;stroke-width:1.0;"/><line style="stroke:#181818;stroke-width:1.0;stroke-dasharray:2.0,2.0;" x1="816.5" x2="1634" y1="1139.5547" y2="1139.5547"/><text fill="#000000" font-family="sans-serif" font-size="13" font-weight="bold" lengthAdjust="spacing" textLength="14" x="828.5" y="1134.292">28</text><text fill="#000000" font-family="sans-serif" font-size="13" lengthAdjust="spacing" textLength="80" x="846.5" y="1134.292">advertisement</text><polygon fill="#181818" points="1755,1166.8457,1765,1170.8457,1755,1174.8457,1759,1170.8457" style="stroke:#181818;stroke-width:1.0;"/><line style="stroke:#181818;stroke-width:1.0;" x1="811.5" x2="1761" y1="1170.8457" y2="1170.8457"/><text fill="#000000" font-family="sans-serif" font-size="13" font-weight="bold" lengthAdjust="spacing" textLength="14" x="818.5" y="1165.583">29</text><text fill="#000000" font-family="sans-serif" font-size="13" lengthAdjust="spacing" textLength="138" x="836.5" y="1165.583">fromDTOtoAD(offerDTO)</text><polygon fill="#181818" points="822.5,1198.1367,812.5,1202.1367,822.5,1206.1367,818.5,1202.1367" style="stroke:#181818;stroke-width:1.0;"/><line style="stroke:#181818;stroke-width:1.0;stroke-dasharray:2.0,2.0;" x1="816.5" x2="1771" y1="1202.1367" y2="1202.1367"/><text fill="#000000" font-family="sans-serif" font-size="13" font-weight="bold" lengthAdjust="spacing" textLength="14" x="828.5" y="1196.874">30</text><text fill="#000000" font-family="sans-serif" font-size="13" lengthAdjust="spacing" textLength="56" x="846.5" y="1196.874">offerCTRL</text><path d="M672,1217.1367 L749,1217.1367 L749,1226.4277 L739,1236.4277 L672,1236.4277 L672,1217.1367 " fill="#EEEEEE" style="stroke:#000000;stroke-width:1.5;"/><rect fill="none" height="268.3281" style="stroke:#000000;stroke-width:1.5;" width="704" x="672" y="1217.1367"/><text fill="#000000" font-family="sans-serif" font-size="13" font-weight="bold" lengthAdjust="spacing" textLength="28" x="687" y="1232.165">loop</text><text fill="#000000" font-family="sans-serif" font-size="11" font-weight="bold" lengthAdjust="spacing" textLength="181" x="764" y="1231.0068">[for each offer of advertisement]</text><path d="M682,1243.4277 L747,1243.4277 L747,1252.7188 L737,1262.7188 L682,1262.7188 L682,1243.4277 " fill="#EEEEEE" style="stroke:#000000;stroke-width:1.5;"/><rect fill="none" height="235.0371" style="stroke:#000000;stroke-width:1.5;" width="684" x="682" y="1243.4277"/><text fill="#000000" font-family="sans-serif" font-size="13" font-weight="bold" lengthAdjust="spacing" textLength="16" x="697" y="1258.4561">alt</text><text fill="#000000" font-family="sans-serif" font-size="11" font-weight="bold" lengthAdjust="spacing" textLength="97" x="762" y="1257.2979">[offer=offerCTRL]</text><line style="stroke:#181818;stroke-width:1.0;" x1="811.5" x2="853.5" y1="1286.0098" y2="1286.0098"/><line style="stroke:#181818;stroke-width:1.0;" x1="853.5" x2="853.5" y1="1286.0098" y2="1299.0098"/><line style="stroke:#181818;stroke-width:1.0;" x1="812.5" x2="853.5" y1="1299.0098" y2="1299.0098"/><polygon fill="#181818" points="822.5,1295.0098,812.5,1299.0098,822.5,1303.0098,818.5,1299.0098" style="stroke:#181818;stroke-width:1.0;"/><text fill="#000000" font-family="sans-serif" font-size="13" font-weight="bold" lengthAdjust="spacing" textLength="14" x="818.5" y="1280.7471">31</text><text fill="#000000" font-family="sans-serif" font-size="13" lengthAdjust="spacing" textLength="161" x="836.5" y="1280.7471">sendEmailToUser(user,true)</text><polygon fill="#181818" points="1251,1326.3008,1261,1330.3008,1251,1334.3008,1255,1330.3008" style="stroke:#181818;stroke-width:1.0;"/><line style="stroke:#181818;stroke-width:1.0;" x1="811.5" x2="1257" y1="1330.3008" y2="1330.3008"/><text fill="#000000" font-family="sans-serif" font-size="13" font-weight="bold" lengthAdjust="spacing" textLength="14" x="818.5" y="1325.0381">32</text><text fill="#000000" font-family="sans-serif" font-size="13" lengthAdjust="spacing" textLength="182" x="836.5" y="1325.0381">acceptOffer(advertisement,offer)</text><polygon fill="#181818" points="822.5,1357.5918,812.5,1361.5918,822.5,1365.5918,818.5,1361.5918" style="stroke:#181818;stroke-width:1.0;"/><line style="stroke:#181818;stroke-width:1.0;stroke-dasharray:2.0,2.0;" x1="816.5" x2="1267" y1="1361.5918" y2="1361.5918"/><text fill="#000000" font-family="sans-serif" font-size="13" font-weight="bold" lengthAdjust="spacing" textLength="14" x="828.5" y="1356.3291">33</text><text fill="#000000" font-family="sans-serif" font-size="13" lengthAdjust="spacing" textLength="80" x="846.5" y="1356.3291">advertisement</text><line style="stroke:#000000;stroke-width:1.0;stroke-dasharray:2.0,2.0;" x1="682" x2="1366" y1="1370.5918" y2="1370.5918"/><line style="stroke:#181818;stroke-width:1.0;" x1="811.5" x2="853.5" y1="1394.8828" y2="1394.8828"/><line style="stroke:#181818;stroke-width:1.0;" x1="853.5" x2="853.5" y1="1394.8828" y2="1407.8828"/><line style="stroke:#181818;stroke-width:1.0;" x1="812.5" x2="853.5" y1="1407.8828" y2="1407.8828"/><polygon fill="#181818" points="822.5,1403.8828,812.5,1407.8828,822.5,1411.8828,818.5,1407.8828" style="stroke:#181818;stroke-width:1.0;"/><text fill="#000000" font-family="sans-serif" font-size="13" font-weight="bold" lengthAdjust="spacing" textLength="14" x="818.5" y="1389.6201">34</text><text fill="#000000" font-family="sans-serif" font-size="13" lengthAdjust="spacing" textLength="163" x="836.5" y="1389.6201">sendEmailtoUser(user,false)</text><polygon fill="#181818" points="1251,1435.1738,1261,1439.1738,1251,1443.1738,1255,1439.1738" style="stroke:#181818;stroke-width:1.0;"/><line style="stroke:#181818;stroke-width:1.0;" x1="811.5" x2="1257" y1="1439.1738" y2="1439.1738"/><text fill="#000000" font-family="sans-serif" font-size="13" font-weight="bold" lengthAdjust="spacing" textLength="14" x="818.5" y="1433.9111">35</text><text fill="#000000" font-family="sans-serif" font-size="13" lengthAdjust="spacing" textLength="184" x="836.5" y="1433.9111">declineOffer(advertisement,offer)</text><polygon fill="#181818" points="822.5,1466.4648,812.5,1470.4648,822.5,1474.4648,818.5,1470.4648" style="stroke:#181818;stroke-width:1.0;"/><line style="stroke:#181818;stroke-width:1.0;stroke-dasharray:2.0,2.0;" x1="816.5" x2="1267" y1="1470.4648" y2="1470.4648"/><text fill="#000000" font-family="sans-serif" font-size="13" font-weight="bold" lengthAdjust="spacing" textLength="14" x="828.5" y="1465.2021">36</text><text fill="#000000" font-family="sans-serif" font-size="13" lengthAdjust="spacing" textLength="80" x="846.5" y="1465.2021">advertisement</text><polygon fill="#181818" points="526.5,1511.7559,516.5,1515.7559,526.5,1519.7559,522.5,1515.7559" style="stroke:#181818;stroke-width:1.0;"/><line style="stroke:#181818;stroke-width:1.0;stroke-dasharray:2.0,2.0;" x1="520.5" x2="800.5" y1="1515.7559" y2="1515.7559"/><text fill="#000000" font-family="sans-serif" font-size="13" font-weight="bold" lengthAdjust="spacing" textLength="14" x="532.5" y="1510.4932">37</text><text fill="#000000" font-family="sans-serif" font-size="13" lengthAdjust="spacing" textLength="50" x="550.5" y="1510.4932">offerDTO</text><line style="stroke:#181818;stroke-width:1.0;" x1="515.5" x2="557.5" y1="1547.0469" y2="1547.0469"/><line style="stroke:#181818;stroke-width:1.0;" x1="557.5" x2="557.5" y1="1547.0469" y2="1560.0469"/><line style="stroke:#181818;stroke-width:1.0;" x1="516.5" x2="557.5" y1="1560.0469" y2="1560.0469"/><polygon fill="#181818" points="526.5,1556.0469,516.5,1560.0469,526.5,1564.0469,522.5,1560.0469" style="stroke:#181818;stroke-width:1.0;"/><text fill="#000000" font-family="sans-serif" font-size="13" font-weight="bold" lengthAdjust="spacing" textLength="14" x="522.5" y="1541.7842">38</text><text fill="#000000" font-family="sans-serif" font-size="13" lengthAdjust="spacing" textLength="198" x="540.5" y="1541.7842">deleteAllOffers(advertisementDTO)</text><line style="stroke:#000000;stroke-width:1.0;stroke-dasharray:2.0,2.0;" x1="411" x2="1831" y1="1569.0469" y2="1569.0469"/><text fill="#000000" font-family="sans-serif" font-size="11" font-weight="bold" lengthAdjust="spacing" textLength="40" x="416" y="1580.917">[reject]</text><polygon fill="#181818" points="789.5,1603.9688,799.5,1607.9688,789.5,1611.9688,793.5,1607.9688" style="stroke:#181818;stroke-width:1.0;"/><line style="stroke:#181818;stroke-width:1.0;" x1="515.5" x2="795.5" y1="1607.9688" y2="1607.9688"/><text fill="#000000" font-family="sans-serif" font-size="13" font-weight="bold" lengthAdjust="spacing" textLength="14" x="522.5" y="1602.7061">39</text><text fill="#000000" font-family="sans-serif" font-size="13" lengthAdjust="spacing" textLength="236" x="540.5" y="1602.7061">declineOffer(advertisementDTO,offerDTO)</text><polygon fill="#181818" points="1618,1635.2598,1628,1639.2598,1618,1643.2598,1622,1639.2598" style="stroke:#181818;stroke-width:1.0;"/><line style="stroke:#181818;stroke-width:1.0;" x1="811.5" x2="1624" y1="1639.2598" y2="1639.2598"/><text fill="#000000" font-family="sans-serif" font-size="13" font-weight="bold" lengthAdjust="spacing" textLength="14" x="818.5" y="1633.9971">40</text><text fill="#000000" font-family="sans-serif" font-size="13" lengthAdjust="spacing" textLength="194" x="836.5" y="1633.9971">fromDTOtoAD(advertisementDTO)</text><polygon fill="#181818" points="822.5,1666.5508,812.5,1670.5508,822.5,1674.5508,818.5,1670.5508" style="stroke:#181818;stroke-width:1.0;"/><line style="stroke:#181818;stroke-width:1.0;stroke-dasharray:2.0,2.0;" x1="816.5" x2="1634" y1="1670.5508" y2="1670.5508"/><text fill="#000000" font-family="sans-serif" font-size="13" font-weight="bold" lengthAdjust="spacing" textLength="14" x="828.5" y="1665.2881">41</text><text fill="#000000" font-family="sans-serif" font-size="13" lengthAdjust="spacing" textLength="80" x="846.5" y="1665.2881">advertisement</text><polygon fill="#181818" points="1755,1697.8418,1765,1701.8418,1755,1705.8418,1759,1701.8418" style="stroke:#181818;stroke-width:1.0;"/><line style="stroke:#181818;stroke-width:1.0;" x1="811.5" x2="1761" y1="1701.8418" y2="1701.8418"/><text fill="#000000" font-family="sans-serif" font-size="13" font-weight="bold" lengthAdjust="spacing" textLength="14" x="818.5" y="1696.5791">42</text><text fill="#000000" font-family="sans-serif" font-size="13" lengthAdjust="spacing" textLength="138" x="836.5" y="1696.5791">fromDTOtoAD(offerDTO)</text><polygon fill="#181818" points="822.5,1729.1328,812.5,1733.1328,822.5,1737.1328,818.5,1733.1328" style="stroke:#181818;stroke-width:1.0;"/><line style="stroke:#181818;stroke-width:1.0;stroke-dasharray:2.0,2.0;" x1="816.5" x2="1771" y1="1733.1328" y2="1733.1328"/><text fill="#000000" font-family="sans-serif" font-size="13" font-weight="bold" lengthAdjust="spacing" textLength="14" x="828.5" y="1727.8701">43</text><text fill="#000000" font-family="sans-serif" font-size="13" lengthAdjust="spacing" textLength="24" x="846.5" y="1727.8701">offer</text><line style="stroke:#181818;stroke-width:1.0;" x1="811.5" x2="853.5" y1="1764.4238" y2="1764.4238"/><line style="stroke:#181818;stroke-width:1.0;" x1="853.5" x2="853.5" y1="1764.4238" y2="1777.4238"/><line style="stroke:#181818;stroke-width:1.0;" x1="812.5" x2="853.5" y1="1777.4238" y2="1777.4238"/><polygon fill="#181818" points="822.5,1773.4238,812.5,1777.4238,822.5,1781.4238,818.5,1777.4238" style="stroke:#181818;stroke-width:1.0;"/><text fill="#000000" font-family="sans-serif" font-size="13" font-weight="bold" lengthAdjust="spacing" textLength="14" x="818.5" y="1759.1611">44</text><text fill="#000000" font-family="sans-serif" font-size="13" lengthAdjust="spacing" textLength="166" x="836.5" y="1759.1611">sendEmailToUser(user,false)</text><polygon fill="#181818" points="1251,1804.7148,1261,1808.7148,1251,1812.7148,1255,1808.7148" style="stroke:#181818;stroke-width:1.0;"/><line style="stroke:#181818;stroke-width:1.0;" x1="811.5" x2="1257" y1="1808.7148" y2="1808.7148"/><text fill="#000000" font-family="sans-serif" font-size="13" font-weight="bold" lengthAdjust="spacing" textLength="14" x="818.5" y="1803.4521">45</text><text fill="#000000" font-family="sans-serif" font-size="13" lengthAdjust="spacing" textLength="184" x="836.5" y="1803.4521">declineOffer(advertisement,offer)</text><polygon fill="#181818" points="822.5,1836.0059,812.5,1840.0059,822.5,1844.0059,818.5,1840.0059" style="stroke:#181818;stroke-width:1.0;"/><line style="stroke:#181818;stroke-width:1.0;stroke-dasharray:2.0,2.0;" x1="816.5" x2="1267" y1="1840.0059" y2="1840.0059"/><text fill="#000000" font-family="sans-serif" font-size="13" font-weight="bold" lengthAdjust="spacing" textLength="14" x="828.5" y="1834.7432">46</text><text fill="#000000" font-family="sans-serif" font-size="13" lengthAdjust="spacing" textLength="80" x="846.5" y="1834.7432">advertisement</text><polygon fill="#181818" points="526.5,1867.2969,516.5,1871.2969,526.5,1875.2969,522.5,1871.2969" style="stroke:#181818;stroke-width:1.0;"/><line style="stroke:#181818;stroke-width:1.0;stroke-dasharray:2.0,2.0;" x1="520.5" x2="800.5" y1="1871.2969" y2="1871.2969"/><text fill="#000000" font-family="sans-serif" font-size="13" font-weight="bold" lengthAdjust="spacing" textLength="14" x="532.5" y="1866.0342">47</text><text fill="#000000" font-family="sans-serif" font-size="13" lengthAdjust="spacing" textLength="50" x="550.5" y="1866.0342">offerDTO</text><line style="stroke:#181818;stroke-width:1.0;" x1="515.5" x2="557.5" y1="1902.5879" y2="1902.5879"/><line style="stroke:#181818;stroke-width:1.0;" x1="557.5" x2="557.5" y1="1902.5879" y2="1915.5879"/><line style="stroke:#181818;stroke-width:1.0;" x1="516.5" x2="557.5" y1="1915.5879" y2="1915.5879"/><polygon fill="#181818" points="526.5,1911.5879,516.5,1915.5879,526.5,1919.5879,522.5,1915.5879" style="stroke:#181818;stroke-width:1.0;"/><text fill="#000000" font-family="sans-serif" font-size="13" font-weight="bold" lengthAdjust="spacing" textLength="14" x="522.5" y="1897.3252">48</text><text fill="#000000" font-family="sans-serif" font-size="13" lengthAdjust="spacing" textLength="254" x="540.5" y="1897.3252">deleteOneOffer(advertisementDTO,offerDTO)</text><polygon fill="#181818" points="57.5,1956.8789,47.5,1960.8789,57.5,1964.8789,53.5,1960.8789" style="stroke:#181818;stroke-width:1.0;"/><line style="stroke:#181818;stroke-width:1.0;stroke-dasharray:2.0,2.0;" x1="51.5" x2="504.5" y1="1960.8789" y2="1960.8789"/><text fill="#000000" font-family="sans-serif" font-size="13" font-weight="bold" lengthAdjust="spacing" textLength="14" x="63.5" y="1955.6162">49</text><text fill="#000000" font-family="sans-serif" font-size="13" lengthAdjust="spacing" textLength="151" x="81.5" y="1955.6162">display operation success</text><!--SRC=[lLZDRkCs4BxhAOXS6Y_Y5n3G0DvujmYmWHVPf3riSs2aiSr69WMIJkktxv2q9P8YBUqchGv9HCutd9zlPgYe5yPRAkcEx0GNrLQA7H0jzr2eRgUbrGlTm3TzQ818g3JbcyONK5jQYxyPtv0rRHGK1TrhmVUxPv15ySkMrK3MGkXdyKz1AoqakLXiWEiBGXLPBEyArA9PnLhADRaeoQAgeDKhkOIgOHnMwpL8zNXhnHzl9qdV2AwbQ1gG5dNpSFybmjr3AnH3OnWeAxEw_oqKaPx4dtm8kF_qTHKYQFqA-AfWXzvryWS4Bz8xBWBflL2rC6vz1gYVCHc1wbLwn_cKtej24HXmHzls6BN4UeIq-Zs4jNANaWnqBHzMLfp4g-T0DoQTbMQ2MspLlHQ6LEoLQh1aAWW- -0UPNoDRI8d2BufeGHgcjBDG5Kwgmo6hx89v48D8mvYIL19m-tBMxtOGIwcYw7VCWa4YZ_3G3UXRhh1IAWCVe0tPkbLYCVFkL9zudL0DQN2_xYbyl9rVErt6QQY_Ij6QI8BwW-cjAn7VgyWjuliqlpP4BpFSzfphbTZAw9RDs_neJqPBB-ov4rcHAPCI8nrigSz2slPoIStFb7sBCIio0Yadlc20a-R7zXl13n_A8QLwkwokVdqZnRubZH0j-HwSERJWoIDJCc2kI4ijiCek0_WiWAPZT2n-Nz0tReqj7HtVkkeARHc4q-aobU9rYwDXTcKsm7T6-Vqb5lBsR2sbtBSofi_4u1Jjy05U5oEEH756vNsAnw2dYgTn6vnWMaygXDUNiGhlSED4_sOGoMf4q4GkczprxRTKGkgFXwLnEQKmLO1-ynwdkubfIdD8j5vdQ1ysOsEXQteV3x_JPW-EQ95rGR9zRRaqVKErK4T5wqSj3jlysWoaIMhyO32kqJQedu86ZyHRtfKrKsr33zP5g4ypZWHdAC8ubkYEMdSehxkHM6s5K5XMF32s6vwb9-3gAxB0Y9R8PIbUKK3YvFeBWvPKLKF5L9XmscZxo-6B89lU5ARkWcUE7n3iwbJHmwOHCpRL3zPutKMm5elbkGhAjQDKZyoYaasmc_d1wLaToPBC-EjtLz_FyOWbssrMEkwxpX-xwkv8Kvp92kN7p83cJrablI93kUyM_cjduNcS7rBhci9Q_BIZh7aGZmefkSSVL-QBQJQgfslRkGj6dkjNcT7u0y_ezUSjoZCwCytpBITbvc7g0VCnIYPcPPXWxINOVjZE9Yixa-BQ-qvzznp_jqd-7xCyDStXvIQrURvJsfcSlnVw7rHsY3MWOT4qnq-euSme0lAT1c9cikMfa1zjxpFEfe-mdnrRPwwjRvjEFp-f9awjQGf6_CkFYaGdUTUEyMCTu0qLdRkCZ9HLK4gh2UptApWiz-36tbz8oUbIRFxfuIwzQe-3LQdaDVrV]--></g></svg>