<?xml version="1.0" encoding="us-ascii" standalone="no"?><svg xmlns="http://www.w3.org/2000/svg" xmlns:xlink="http://www.w3.org/1999/xlink" contentStyleType="text/css" height="558px" preserveAspectRatio="none" style="width:751px;height:558px;background:#FFFFFF;" version="1.1" viewBox="0 0 751 558" width="751px" zoomAndPan="magnify"><defs/><g><text fill="#000000" font-family="sans-serif" font-size="14" font-weight="bold" lengthAdjust="spacing" textLength="440" x="154.5" y="27.6738">System Sequence Diagram Parcial Create New Apartment (SSD)</text><rect fill="#FFFFFF" height="28.5234" style="stroke:#181818;stroke-width:1.0;" width="10" x="286.5" y="118.4453"/><rect fill="#FFFFFF" height="28.5234" style="stroke:#181818;stroke-width:1.0;" width="10" x="414.5" y="369.1563"/><rect fill="#FFFFFF" height="28.5234" style="stroke:#181818;stroke-width:1.0;" width="10" x="414.5" y="455.0156"/><rect fill="#FFFFFF" height="85.5703" style="stroke:#181818;stroke-width:1.0;" width="10" x="537.5" y="175.4922"/><rect fill="#FFFFFF" height="28.5234" style="stroke:#181818;stroke-width:1.0;" width="10" x="691.5" y="204.0156"/><rect fill="none" height="173.9531" style="stroke:#000000;stroke-width:1.5;" width="489" x="10" y="317.5859"/><line style="stroke:#181818;stroke-width:0.5;stroke-dasharray:5.0,5.0;" x1="106" x2="106" y1="87.9219" y2="508.5391"/><line style="stroke:#181818;stroke-width:0.5;stroke-dasharray:5.0,5.0;" x1="291" x2="291" y1="87.9219" y2="508.5391"/><line style="stroke:#181818;stroke-width:0.5;stroke-dasharray:5.0,5.0;" x1="419" x2="419" y1="87.9219" y2="508.5391"/><line style="stroke:#181818;stroke-width:0.5;stroke-dasharray:5.0,5.0;" x1="542" x2="542" y1="87.9219" y2="508.5391"/><line style="stroke:#181818;stroke-width:0.5;stroke-dasharray:5.0,5.0;" x1="696" x2="696" y1="87.9219" y2="508.5391"/><rect fill="#E3E3E3" height="29.6406" rx="2.5" ry="2.5" style="stroke:#181818;stroke-width:0.5;" width="173" x="20" y="57.2813"/><text fill="#000000" font-family="sans-serif" font-size="14" lengthAdjust="spacing" textLength="159" x="27" y="76.9551">:SubmiPropertyController</text><rect fill="#E3E3E3" height="29.6406" rx="2.5" ry="2.5" style="stroke:#181818;stroke-width:0.5;" width="173" x="20" y="507.5391"/><text fill="#000000" font-family="sans-serif" font-size="14" lengthAdjust="spacing" textLength="159" x="27" y="527.2129">:SubmiPropertyController</text><rect fill="#E3E3E3" height="45.2813" rx="2.5" ry="2.5" style="stroke:#181818;stroke-width:0.5;" width="97" x="243" y="41.6406"/><text fill="#000000" font-family="sans-serif" font-size="14" lengthAdjust="spacing" textLength="74" x="254.5" y="61.3145">repositories</text><text fill="#000000" font-family="sans-serif" font-size="14" lengthAdjust="spacing" textLength="83" x="250" y="76.9551">:Repositories</text><rect fill="#E3E3E3" height="45.2813" rx="2.5" ry="2.5" style="stroke:#181818;stroke-width:0.5;" width="97" x="243" y="507.5391"/><text fill="#000000" font-family="sans-serif" font-size="14" lengthAdjust="spacing" textLength="74" x="254.5" y="527.2129">repositories</text><text fill="#000000" font-family="sans-serif" font-size="14" lengthAdjust="spacing" textLength="83" x="250" y="542.8535">:Repositories</text><rect fill="#E3E3E3" height="45.2813" rx="2.5" ry="2.5" style="stroke:#181818;stroke-width:0.5;" width="139" x="350" y="41.6406"/><text fill="#000000" font-family="sans-serif" font-size="14" lengthAdjust="spacing" textLength="116" x="361.5" y="61.3145">requestRepository</text><text fill="#000000" font-family="sans-serif" font-size="14" lengthAdjust="spacing" textLength="125" x="357" y="76.9551">:RequestRepository</text><rect fill="#E3E3E3" height="45.2813" rx="2.5" ry="2.5" style="stroke:#181818;stroke-width:0.5;" width="139" x="350" y="507.5391"/><text fill="#000000" font-family="sans-serif" font-size="14" lengthAdjust="spacing" textLength="116" x="361.5" y="527.2129">requestRepository</text><text fill="#000000" font-family="sans-serif" font-size="14" lengthAdjust="spacing" textLength="125" x="357" y="542.8535">:RequestRepository</text><rect fill="#E3E3E3" height="45.2813" rx="2.5" ry="2.5" style="stroke:#181818;stroke-width:0.5;" width="87" x="499" y="41.6406"/><text fill="#000000" font-family="sans-serif" font-size="14" lengthAdjust="spacing" textLength="68" x="508.5" y="61.3145">application</text><text fill="#000000" font-family="sans-serif" font-size="14" lengthAdjust="spacing" textLength="73" x="506" y="76.9551">:Application</text><rect fill="#E3E3E3" height="45.2813" rx="2.5" ry="2.5" style="stroke:#181818;stroke-width:0.5;" width="87" x="499" y="507.5391"/><text fill="#000000" font-family="sans-serif" font-size="14" lengthAdjust="spacing" textLength="68" x="508.5" y="527.2129">application</text><text fill="#000000" font-family="sans-serif" font-size="14" lengthAdjust="spacing" textLength="73" x="506" y="542.8535">:Application</text><rect fill="#E3E3E3" height="45.2813" rx="2.5" ry="2.5" style="stroke:#181818;stroke-width:0.5;" width="97" x="648" y="41.6406"/><text fill="#000000" font-family="sans-serif" font-size="14" lengthAdjust="spacing" textLength="78" x="657.5" y="61.3145">userSession</text><text fill="#000000" font-family="sans-serif" font-size="14" lengthAdjust="spacing" textLength="83" x="655" y="76.9551">:UserSession</text><rect fill="#E3E3E3" height="45.2813" rx="2.5" ry="2.5" style="stroke:#181818;stroke-width:0.5;" width="97" x="648" y="507.5391"/><text fill="#000000" font-family="sans-serif" font-size="14" lengthAdjust="spacing" textLength="78" x="657.5" y="527.2129">userSession</text><text fill="#000000" font-family="sans-serif" font-size="14" lengthAdjust="spacing" textLength="83" x="655" y="542.8535">:UserSession</text><rect fill="#FFFFFF" height="28.5234" style="stroke:#181818;stroke-width:1.0;" width="10" x="286.5" y="118.4453"/><rect fill="#FFFFFF" height="28.5234" style="stroke:#181818;stroke-width:1.0;" width="10" x="414.5" y="369.1563"/><rect fill="#FFFFFF" height="28.5234" style="stroke:#181818;stroke-width:1.0;" width="10" x="414.5" y="455.0156"/><rect fill="#FFFFFF" height="85.5703" style="stroke:#181818;stroke-width:1.0;" width="10" x="537.5" y="175.4922"/><rect fill="#FFFFFF" height="28.5234" style="stroke:#181818;stroke-width:1.0;" width="10" x="691.5" y="204.0156"/><polygon fill="#181818" points="274.5,114.4453,284.5,118.4453,274.5,122.4453,278.5,118.4453" style="stroke:#181818;stroke-width:1.0;"/><line style="stroke:#181818;stroke-width:1.0;" x1="106.5" x2="280.5" y1="118.4453" y2="118.4453"/><text fill="#000000" font-family="sans-serif" font-size="13" font-weight="bold" lengthAdjust="spacing" textLength="21" x="113.5" y="113.6904">101</text><text fill="#000000" font-family="sans-serif" font-size="13" lengthAdjust="spacing" textLength="136" x="138.5" y="113.6904">getRequestRepository()</text><polygon fill="#181818" points="117.5,142.9688,107.5,146.9688,117.5,150.9688,113.5,146.9688" style="stroke:#181818;stroke-width:1.0;"/><line style="stroke:#181818;stroke-width:1.0;stroke-dasharray:2.0,2.0;" x1="111.5" x2="290.5" y1="146.9688" y2="146.9688"/><text fill="#000000" font-family="sans-serif" font-size="13" font-weight="bold" lengthAdjust="spacing" textLength="21" x="123.5" y="142.2139">102</text><text fill="#000000" font-family="sans-serif" font-size="13" lengthAdjust="spacing" textLength="105" x="148.5" y="142.2139">requestRepository</text><polygon fill="#181818" points="525.5,171.4922,535.5,175.4922,525.5,179.4922,529.5,175.4922" style="stroke:#181818;stroke-width:1.0;"/><line style="stroke:#181818;stroke-width:1.0;" x1="106.5" x2="531.5" y1="175.4922" y2="175.4922"/><text fill="#000000" font-family="sans-serif" font-size="13" font-weight="bold" lengthAdjust="spacing" textLength="21" x="113.5" y="170.7373">103</text><text fill="#000000" font-family="sans-serif" font-size="13" lengthAdjust="spacing" textLength="100" x="138.5" y="170.7373">getPersonEmail()</text><polygon fill="#181818" points="679.5,200.0156,689.5,204.0156,679.5,208.0156,683.5,204.0156" style="stroke:#181818;stroke-width:1.0;"/><line style="stroke:#181818;stroke-width:1.0;" x1="547.5" x2="685.5" y1="204.0156" y2="204.0156"/><text fill="#000000" font-family="sans-serif" font-size="13" font-weight="bold" lengthAdjust="spacing" textLength="21" x="554.5" y="199.2607">104</text><text fill="#000000" font-family="sans-serif" font-size="13" lengthAdjust="spacing" textLength="100" x="579.5" y="199.2607">getPersonEmail()</text><polygon fill="#181818" points="558.5,228.5391,548.5,232.5391,558.5,236.5391,554.5,232.5391" style="stroke:#181818;stroke-width:1.0;"/><line style="stroke:#181818;stroke-width:1.0;" x1="552.5" x2="695.5" y1="232.5391" y2="232.5391"/><text fill="#000000" font-family="sans-serif" font-size="13" font-weight="bold" lengthAdjust="spacing" textLength="21" x="564.5" y="227.7842">105</text><text fill="#000000" font-family="sans-serif" font-size="13" lengthAdjust="spacing" textLength="60" x="589.5" y="227.7842">UserEmail</text><polygon fill="#181818" points="117.5,257.0625,107.5,261.0625,117.5,265.0625,113.5,261.0625" style="stroke:#181818;stroke-width:1.0;"/><line style="stroke:#181818;stroke-width:1.0;" x1="111.5" x2="541.5" y1="261.0625" y2="261.0625"/><text fill="#000000" font-family="sans-serif" font-size="13" font-weight="bold" lengthAdjust="spacing" textLength="21" x="123.5" y="256.3076">106</text><text fill="#000000" font-family="sans-serif" font-size="13" lengthAdjust="spacing" textLength="60" x="148.5" y="256.3076">UserEmail</text><line style="stroke:#181818;stroke-width:1.0;" x1="106.5" x2="148.5" y1="289.5859" y2="289.5859"/><line style="stroke:#181818;stroke-width:1.0;" x1="148.5" x2="148.5" y1="289.5859" y2="302.5859"/><line style="stroke:#181818;stroke-width:1.0;" x1="107.5" x2="148.5" y1="302.5859" y2="302.5859"/><polygon fill="#181818" points="117.5,298.5859,107.5,302.5859,117.5,306.5859,113.5,302.5859" style="stroke:#181818;stroke-width:1.0;"/><text fill="#000000" font-family="sans-serif" font-size="13" font-weight="bold" lengthAdjust="spacing" textLength="21" x="113.5" y="284.8311">107</text><text fill="#000000" font-family="sans-serif" font-size="13" lengthAdjust="spacing" textLength="88" x="138.5" y="284.8311">keepUserEmail</text><path d="M10,317.5859 L71,317.5859 L71,324.1094 L61,334.1094 L10,334.1094 L10,317.5859 " fill="#EEEEEE" style="stroke:#000000;stroke-width:1.5;"/><rect fill="none" height="173.9531" style="stroke:#000000;stroke-width:1.5;" width="489" x="10" y="317.5859"/><text fill="#000000" font-family="sans-serif" font-size="13" font-weight="bold" lengthAdjust="spacing" textLength="16" x="25" y="330.3545">alt</text><text fill="#000000" font-family="sans-serif" font-size="11" font-weight="bold" lengthAdjust="spacing" textLength="122" x="86" y="329.5439">[businessType = Sale]</text><polygon fill="#181818" points="402.5,365.1563,412.5,369.1563,402.5,373.1563,406.5,369.1563" style="stroke:#181818;stroke-width:1.0;"/><line style="stroke:#181818;stroke-width:1.0;" x1="106.5" x2="408.5" y1="369.1563" y2="369.1563"/><text fill="#000000" font-family="sans-serif" font-size="13" font-weight="bold" lengthAdjust="spacing" textLength="21" x="113.5" y="357.1396">108</text><text fill="#000000" font-family="sans-serif" font-size="13" lengthAdjust="spacing" textLength="246" x="138.5" y="349.8779">newRequest(requestID, newProperty,agent</text><text fill="#000000" font-family="sans-serif" font-size="13" lengthAdjust="spacing" textLength="146" x="138.5" y="364.4014">, personEmail, salePrice)</text><polygon fill="#181818" points="117.5,393.6797,107.5,397.6797,117.5,401.6797,113.5,397.6797" style="stroke:#181818;stroke-width:1.0;"/><line style="stroke:#181818;stroke-width:1.0;" x1="111.5" x2="418.5" y1="397.6797" y2="397.6797"/><text fill="#000000" font-family="sans-serif" font-size="13" font-weight="bold" lengthAdjust="spacing" textLength="21" x="123.5" y="392.9248">109</text><text fill="#000000" font-family="sans-serif" font-size="13" lengthAdjust="spacing" textLength="71" x="148.5" y="392.9248">newRequest</text><line style="stroke:#000000;stroke-width:1.0;stroke-dasharray:2.0,2.0;" x1="10" x2="499" y1="406.6797" y2="406.6797"/><text fill="#000000" font-family="sans-serif" font-size="11" font-weight="bold" lengthAdjust="spacing" textLength="124" x="15" y="416.6377">[businessType = Rent]</text><polygon fill="#181818" points="402.5,451.0156,412.5,455.0156,402.5,459.0156,406.5,455.0156" style="stroke:#181818;stroke-width:1.0;"/><line style="stroke:#181818;stroke-width:1.0;" x1="106.5" x2="408.5" y1="455.0156" y2="455.0156"/><text fill="#000000" font-family="sans-serif" font-size="13" font-weight="bold" lengthAdjust="spacing" textLength="21" x="113.5" y="442.999">110</text><text fill="#000000" font-family="sans-serif" font-size="13" lengthAdjust="spacing" textLength="246" x="138.5" y="435.7373">newRequest(requestID, newProperty,agent</text><text fill="#000000" font-family="sans-serif" font-size="13" lengthAdjust="spacing" textLength="254" x="138.5" y="450.2607">, personEmail, rentPrice, duractionContract)</text><polygon fill="#181818" points="117.5,479.5391,107.5,483.5391,117.5,487.5391,113.5,483.5391" style="stroke:#181818;stroke-width:1.0;"/><line style="stroke:#181818;stroke-width:1.0;" x1="111.5" x2="418.5" y1="483.5391" y2="483.5391"/><text fill="#000000" font-family="sans-serif" font-size="13" font-weight="bold" lengthAdjust="spacing" textLength="21" x="123.5" y="478.7842">111</text><text fill="#000000" font-family="sans-serif" font-size="13" lengthAdjust="spacing" textLength="71" x="148.5" y="478.7842">newRequest</text><!--SRC=[pLHDYzim4BthLmnxQG9Uw5uDBIn93uLIGhozxMLYppeYigHAuwR-zvMS3yjsmlPIg4wMthodfwUn_45gYmuRQ8msvTwPXe1TIy9V4Olb0Migk5C4Zaf6NQkqmE-nCaUfQtX3vKa8bXnAYyupDL3GpvPqIR2MMCVo3RfIeeAL8sI2xtI4vo343Mc6HL6ibq9ysCkAuCqOtfdV8gAob1P3mKDUjBj6RfonvBXR6StEA4Nk0T33wcNxJOph7LdZ9HidoR_gV9jCUqgApwZ1kkShfUlvaxMpo6HrB8JMAbaYIwE3nFCmwya9EgQrdbn1tfzeFuPPJqjG8R1bezjcHmwUFZu90USH0u77pwDJGWuryUmWY-ML5GUMB7_52ne7b9QCH1_3Bd6t_4OOAQcYTvGlbfDOUiCRSjxeBmrATSzgckIuOW2YT1BTtqgFqeR9IC2PytXjlVACbIHnLtrY_1JmRSb4xcOEbrnF6WSYE-W8L0oxraiTJBnqbk0J51Z-ybkTDBdT73GTpzsqEADVrrbSlVobMNW_DB_g3EoGT0O-xB1nigJbB9kaHwRDD6d12Nmv8QIsxZVWJ5m0XJTiciKssF-dKRYms4UHGTMwQD3e_cqBd_zJEe9qzGS0]--></g></svg>