<?xml version="1.0" encoding="us-ascii" standalone="no"?><svg xmlns="http://www.w3.org/2000/svg" xmlns:xlink="http://www.w3.org/1999/xlink" contentStyleType="text/css" height="2108px" preserveAspectRatio="none" style="width:1844px;height:2108px;background:#FFFFFF;" version="1.1" viewBox="0 0 1844 2108" width="1844px" zoomAndPan="magnify"><defs/><g><!--class ListPropertyRequestsUI--><g id="elem_ListPropertyRequestsUI"><rect codeLine="8" fill="#F1F1F1" height="178.3477" id="ListPropertyRequestsUI" rx="2.5" ry="2.5" style="stroke:#181818;stroke-width:0.5;" width="234" x="867" y="7"/><ellipse cx="906.3" cy="23" fill="#ADD1B2" rx="11" ry="11" style="stroke:#181818;stroke-width:1.0;"/><path d="M909.0656,18.875 Q909.2219,18.6563 909.4094,18.5469 Q909.5969,18.4375 909.8156,18.4375 Q910.1906,18.4375 910.425,18.7031 Q910.6594,18.9531 910.6594,19.5625 L910.6594,21.0156 Q910.6594,21.625 910.425,21.8906 Q910.1906,22.1563 909.8156,22.1563 Q909.4719,22.1563 909.2688,21.9531 Q909.0656,21.7656 908.9563,21.25 Q908.9094,20.8906 908.7219,20.7031 Q908.3938,20.3281 907.7844,20.1094 Q907.175,19.8906 906.55,19.8906 Q905.7844,19.8906 905.1438,20.2188 Q904.5188,20.5469 904.0188,21.2969 Q903.5344,22.0469 903.5344,23.0781 L903.5344,24.1719 Q903.5344,25.4063 904.425,26.2344 Q905.3156,27.0469 906.9094,27.0469 Q907.8469,27.0469 908.5031,26.7969 Q908.8938,26.6406 909.3156,26.2031 Q909.5813,25.9375 909.7219,25.8594 Q909.8781,25.7813 910.0813,25.7813 Q910.4094,25.7813 910.6594,26.0469 Q910.925,26.2969 910.925,26.6406 Q910.925,26.9844 910.5813,27.3906 Q910.0813,27.9688 909.2844,28.2969 Q908.2063,28.75 906.9094,28.75 Q905.3938,28.75 904.1906,28.125 Q903.2063,27.625 902.5188,26.5625 Q901.8313,25.4844 901.8313,24.2031 L901.8313,23.0469 Q901.8313,21.7188 902.4406,20.5781 Q903.0656,19.4219 904.1594,18.8125 Q905.2531,18.1875 906.4875,18.1875 Q907.2219,18.1875 907.8625,18.3594 Q908.5188,18.5156 909.0656,18.875 Z " fill="#000000"/><text fill="#000000" font-family="sans-serif" font-size="14" lengthAdjust="spacing" textLength="148" x="925.7" y="28.7969">ListPropertyRequestsUI</text><line style="stroke:#181818;stroke-width:0.5;" x1="868" x2="1100" y1="39" y2="39"/><text fill="#000000" font-family="sans-serif" font-size="14" lengthAdjust="spacing" textLength="107" x="873" y="58.1074">-Employee agent</text><text fill="#000000" font-family="sans-serif" font-size="14" lengthAdjust="spacing" textLength="110" x="873" y="76.7285">-Request request</text><text fill="#000000" font-family="sans-serif" font-size="14" lengthAdjust="spacing" textLength="170" x="873" y="95.3496">-List&lt;Request&gt; requestList</text><text fill="#000000" font-family="sans-serif" font-size="14" lengthAdjust="spacing" textLength="222" x="873" y="113.9707">-CommissionType commissionType</text><text fill="#000000" font-family="sans-serif" font-size="14" lengthAdjust="spacing" textLength="161" x="873" y="132.5918">-double commissionValue</text><text fill="#000000" font-family="sans-serif" font-size="14" lengthAdjust="spacing" textLength="188" x="873" y="151.2129">-Advertisement advertisement</text><line style="stroke:#181818;stroke-width:0.5;" x1="868" x2="1100" y1="158.7266" y2="158.7266"/><text fill="#000000" font-family="sans-serif" font-size="14" lengthAdjust="spacing" textLength="209" x="873" y="177.834">+CreateListPropertyRequestsUI()</text></g><!--class ListPropertyRequestsController--><g id="elem_ListPropertyRequestsController"><rect codeLine="18" fill="#F1F1F1" height="178.3477" id="ListPropertyRequestsController" rx="2.5" ry="2.5" style="stroke:#181818;stroke-width:0.5;" width="403" x="1190.5" y="7"/><ellipse cx="1288.75" cy="23" fill="#ADD1B2" rx="11" ry="11" style="stroke:#181818;stroke-width:1.0;"/><path d="M1291.5156,18.875 Q1291.6719,18.6563 1291.8594,18.5469 Q1292.0469,18.4375 1292.2656,18.4375 Q1292.6406,18.4375 1292.875,18.7031 Q1293.1094,18.9531 1293.1094,19.5625 L1293.1094,21.0156 Q1293.1094,21.625 1292.875,21.8906 Q1292.6406,22.1563 1292.2656,22.1563 Q1291.9219,22.1563 1291.7188,21.9531 Q1291.5156,21.7656 1291.4063,21.25 Q1291.3594,20.8906 1291.1719,20.7031 Q1290.8438,20.3281 1290.2344,20.1094 Q1289.625,19.8906 1289,19.8906 Q1288.2344,19.8906 1287.5938,20.2188 Q1286.9688,20.5469 1286.4688,21.2969 Q1285.9844,22.0469 1285.9844,23.0781 L1285.9844,24.1719 Q1285.9844,25.4063 1286.875,26.2344 Q1287.7656,27.0469 1289.3594,27.0469 Q1290.2969,27.0469 1290.9531,26.7969 Q1291.3438,26.6406 1291.7656,26.2031 Q1292.0313,25.9375 1292.1719,25.8594 Q1292.3281,25.7813 1292.5313,25.7813 Q1292.8594,25.7813 1293.1094,26.0469 Q1293.375,26.2969 1293.375,26.6406 Q1293.375,26.9844 1293.0313,27.3906 Q1292.5313,27.9688 1291.7344,28.2969 Q1290.6563,28.75 1289.3594,28.75 Q1287.8438,28.75 1286.6406,28.125 Q1285.6563,27.625 1284.9688,26.5625 Q1284.2813,25.4844 1284.2813,24.2031 L1284.2813,23.0469 Q1284.2813,21.7188 1284.8906,20.5781 Q1285.5156,19.4219 1286.6094,18.8125 Q1287.7031,18.1875 1288.9375,18.1875 Q1289.6719,18.1875 1290.3125,18.3594 Q1290.9688,18.5156 1291.5156,18.875 Z " fill="#000000"/><text fill="#000000" font-family="sans-serif" font-size="14" lengthAdjust="spacing" textLength="198" x="1309.25" y="28.7969">ListPropertyRequestsController</text><line style="stroke:#181818;stroke-width:0.5;" x1="1191.5" x2="1592.5" y1="39" y2="39"/><line style="stroke:#181818;stroke-width:0.5;" x1="1191.5" x2="1592.5" y1="47" y2="47"/><text fill="#000000" font-family="sans-serif" font-size="14" lengthAdjust="spacing" textLength="259" x="1196.5" y="66.1074">+CreateListPropertyRequestsController()</text><text fill="#000000" font-family="sans-serif" font-size="14" lengthAdjust="spacing" textLength="232" x="1196.5" y="84.7285">+getAgentFromSession() : Employee</text><text fill="#000000" font-family="sans-serif" font-size="14" lengthAdjust="spacing" textLength="216" x="1196.5" y="103.3496">+getRequestList() : List&lt;Request&gt;</text><text fill="#000000" font-family="sans-serif" font-size="14" lengthAdjust="spacing" textLength="304" x="1196.5" y="121.9707">+getCommissionType() : List&lt;CommissionType&gt;</text><text fill="#000000" font-family="sans-serif" font-size="14" lengthAdjust="spacing" textLength="267" x="1196.5" y="140.5918">+removeRequestFromRepository(request)</text><text fill="#000000" font-family="sans-serif" font-size="14" lengthAdjust="spacing" textLength="391" x="1196.5" y="159.2129">+approveRequest(Request request, double commissionValue,</text><text fill="#000000" font-family="sans-serif" font-size="14" lengthAdjust="spacing" textLength="324" x="1196.5" y="177.834">CommissionType commissionType) : Advertisement</text></g><!--class ApplicationSession--><g id="elem_ApplicationSession"><rect codeLine="29" fill="#F1F1F1" height="85.2422" id="ApplicationSession" rx="2.5" ry="2.5" style="stroke:#181818;stroke-width:0.5;" width="151" x="1686.5" y="503.5"/><ellipse cx="1701.5" cy="519.5" fill="#ADD1B2" rx="11" ry="11" style="stroke:#181818;stroke-width:1.0;"/><path d="M1704.2656,515.375 Q1704.4219,515.1563 1704.6094,515.0469 Q1704.7969,514.9375 1705.0156,514.9375 Q1705.3906,514.9375 1705.625,515.2031 Q1705.8594,515.4531 1705.8594,516.0625 L1705.8594,517.5156 Q1705.8594,518.125 1705.625,518.3906 Q1705.3906,518.6563 1705.0156,518.6563 Q1704.6719,518.6563 1704.4688,518.4531 Q1704.2656,518.2656 1704.1563,517.75 Q1704.1094,517.3906 1703.9219,517.2031 Q1703.5938,516.8281 1702.9844,516.6094 Q1702.375,516.3906 1701.75,516.3906 Q1700.9844,516.3906 1700.3438,516.7188 Q1699.7188,517.0469 1699.2188,517.7969 Q1698.7344,518.5469 1698.7344,519.5781 L1698.7344,520.6719 Q1698.7344,521.9063 1699.625,522.7344 Q1700.5156,523.5469 1702.1094,523.5469 Q1703.0469,523.5469 1703.7031,523.2969 Q1704.0938,523.1406 1704.5156,522.7031 Q1704.7813,522.4375 1704.9219,522.3594 Q1705.0781,522.2813 1705.2813,522.2813 Q1705.6094,522.2813 1705.8594,522.5469 Q1706.125,522.7969 1706.125,523.1406 Q1706.125,523.4844 1705.7813,523.8906 Q1705.2813,524.4688 1704.4844,524.7969 Q1703.4063,525.25 1702.1094,525.25 Q1700.5938,525.25 1699.3906,524.625 Q1698.4063,524.125 1697.7188,523.0625 Q1697.0313,521.9844 1697.0313,520.7031 L1697.0313,519.5469 Q1697.0313,518.2188 1697.6406,517.0781 Q1698.2656,515.9219 1699.3594,515.3125 Q1700.4531,514.6875 1701.6875,514.6875 Q1702.4219,514.6875 1703.0625,514.8594 Q1703.7188,515.0156 1704.2656,515.375 Z " fill="#000000"/><text fill="#000000" font-family="sans-serif" font-size="14" lengthAdjust="spacing" textLength="119" x="1715.5" y="525.2969">ApplicationSession</text><line style="stroke:#181818;stroke-width:0.5;" x1="1687.5" x2="1836.5" y1="535.5" y2="535.5"/><line style="stroke:#181818;stroke-width:0.5;" x1="1687.5" x2="1836.5" y1="543.5" y2="543.5"/><text fill="#000000" font-family="sans-serif" font-size="14" lengthAdjust="spacing" textLength="128" x="1692.5" y="562.6074">+static getInstance()</text><text fill="#000000" font-family="sans-serif" font-size="14" lengthAdjust="spacing" textLength="136" x="1692.5" y="581.2285">+getCurrentSession()</text></g><!--class UserSession--><g id="elem_UserSession"><rect codeLine="34" fill="#F1F1F1" height="66.6211" id="UserSession" rx="2.5" ry="2.5" style="stroke:#181818;stroke-width:0.5;" width="111" x="1706.5" y="723.5"/><ellipse cx="1721.5" cy="739.5" fill="#ADD1B2" rx="11" ry="11" style="stroke:#181818;stroke-width:1.0;"/><path d="M1724.2656,735.375 Q1724.4219,735.1563 1724.6094,735.0469 Q1724.7969,734.9375 1725.0156,734.9375 Q1725.3906,734.9375 1725.625,735.2031 Q1725.8594,735.4531 1725.8594,736.0625 L1725.8594,737.5156 Q1725.8594,738.125 1725.625,738.3906 Q1725.3906,738.6563 1725.0156,738.6563 Q1724.6719,738.6563 1724.4688,738.4531 Q1724.2656,738.2656 1724.1563,737.75 Q1724.1094,737.3906 1723.9219,737.2031 Q1723.5938,736.8281 1722.9844,736.6094 Q1722.375,736.3906 1721.75,736.3906 Q1720.9844,736.3906 1720.3438,736.7188 Q1719.7188,737.0469 1719.2188,737.7969 Q1718.7344,738.5469 1718.7344,739.5781 L1718.7344,740.6719 Q1718.7344,741.9063 1719.625,742.7344 Q1720.5156,743.5469 1722.1094,743.5469 Q1723.0469,743.5469 1723.7031,743.2969 Q1724.0938,743.1406 1724.5156,742.7031 Q1724.7813,742.4375 1724.9219,742.3594 Q1725.0781,742.2813 1725.2813,742.2813 Q1725.6094,742.2813 1725.8594,742.5469 Q1726.125,742.7969 1726.125,743.1406 Q1726.125,743.4844 1725.7813,743.8906 Q1725.2813,744.4688 1724.4844,744.7969 Q1723.4063,745.25 1722.1094,745.25 Q1720.5938,745.25 1719.3906,744.625 Q1718.4063,744.125 1717.7188,743.0625 Q1717.0313,741.9844 1717.0313,740.7031 L1717.0313,739.5469 Q1717.0313,738.2188 1717.6406,737.0781 Q1718.2656,735.9219 1719.3594,735.3125 Q1720.4531,734.6875 1721.6875,734.6875 Q1722.4219,734.6875 1723.0625,734.8594 Q1723.7188,735.0156 1724.2656,735.375 Z " fill="#000000"/><text fill="#000000" font-family="sans-serif" font-size="14" lengthAdjust="spacing" textLength="79" x="1735.5" y="745.2969">UserSession</text><line style="stroke:#181818;stroke-width:0.5;" x1="1707.5" x2="1816.5" y1="755.5" y2="755.5"/><line style="stroke:#181818;stroke-width:0.5;" x1="1707.5" x2="1816.5" y1="763.5" y2="763.5"/><text fill="#000000" font-family="sans-serif" font-size="14" lengthAdjust="spacing" textLength="67" x="1712.5" y="782.6074">+getUser()</text></g><!--class Repositories--><g id="elem_Repositories"><rect codeLine="38" fill="#F1F1F1" height="159.7266" id="Repositories" rx="2.5" ry="2.5" style="stroke:#181818;stroke-width:0.5;" width="378" x="865" y="264"/><ellipse cx="1010.25" cy="280" fill="#ADD1B2" rx="11" ry="11" style="stroke:#181818;stroke-width:1.0;"/><path d="M1013.0156,275.875 Q1013.1719,275.6563 1013.3594,275.5469 Q1013.5469,275.4375 1013.7656,275.4375 Q1014.1406,275.4375 1014.375,275.7031 Q1014.6094,275.9531 1014.6094,276.5625 L1014.6094,278.0156 Q1014.6094,278.625 1014.375,278.8906 Q1014.1406,279.1563 1013.7656,279.1563 Q1013.4219,279.1563 1013.2188,278.9531 Q1013.0156,278.7656 1012.9063,278.25 Q1012.8594,277.8906 1012.6719,277.7031 Q1012.3438,277.3281 1011.7344,277.1094 Q1011.125,276.8906 1010.5,276.8906 Q1009.7344,276.8906 1009.0938,277.2188 Q1008.4688,277.5469 1007.9688,278.2969 Q1007.4844,279.0469 1007.4844,280.0781 L1007.4844,281.1719 Q1007.4844,282.4063 1008.375,283.2344 Q1009.2656,284.0469 1010.8594,284.0469 Q1011.7969,284.0469 1012.4531,283.7969 Q1012.8438,283.6406 1013.2656,283.2031 Q1013.5313,282.9375 1013.6719,282.8594 Q1013.8281,282.7813 1014.0313,282.7813 Q1014.3594,282.7813 1014.6094,283.0469 Q1014.875,283.2969 1014.875,283.6406 Q1014.875,283.9844 1014.5313,284.3906 Q1014.0313,284.9688 1013.2344,285.2969 Q1012.1563,285.75 1010.8594,285.75 Q1009.3438,285.75 1008.1406,285.125 Q1007.1563,284.625 1006.4688,283.5625 Q1005.7813,282.4844 1005.7813,281.2031 L1005.7813,280.0469 Q1005.7813,278.7188 1006.3906,277.5781 Q1007.0156,276.4219 1008.1094,275.8125 Q1009.2031,275.1875 1010.4375,275.1875 Q1011.1719,275.1875 1011.8125,275.3594 Q1012.4688,275.5156 1013.0156,275.875 Z " fill="#000000"/><text fill="#000000" font-family="sans-serif" font-size="14" lengthAdjust="spacing" textLength="79" x="1030.75" y="285.7969">Repositories</text><line style="stroke:#181818;stroke-width:0.5;" x1="866" x2="1242" y1="296" y2="296"/><text fill="#000000" font-family="sans-serif" font-size="14" lengthAdjust="spacing" textLength="141" x="871" y="315.1074">-Repositories instance</text><line style="stroke:#181818;stroke-width:0.5;" x1="866" x2="1242" y1="322.6211" y2="322.6211"/><text fill="#000000" font-family="sans-serif" font-size="14" lengthAdjust="spacing" textLength="94" x="871" y="341.7285">-Repositories()</text><text fill="#000000" font-family="sans-serif" font-size="14" lengthAdjust="spacing" textLength="182" x="871" y="360.3496">+Repositories : getInstance()</text><text fill="#000000" font-family="sans-serif" font-size="14" lengthAdjust="spacing" textLength="276" x="871" y="378.9707">+getPersonRepository() : PersonRepository</text><text fill="#000000" font-family="sans-serif" font-size="14" lengthAdjust="spacing" textLength="292" x="871" y="397.5918">+getRequestRepository() : RequestRepository</text><text fill="#000000" font-family="sans-serif" font-size="14" lengthAdjust="spacing" textLength="366" x="871" y="416.2129">+getAdvertisementRepository() : AdvertisementRepository</text></g><!--class Person--><g id="elem_Person"><rect codeLine="47" fill="#F1F1F1" height="215.5898" id="Person" rx="2.5" ry="2.5" style="stroke:#181818;stroke-width:0.5;" width="251" x="1150.5" y="907"/><ellipse cx="1249.25" cy="923" fill="#ADD1B2" rx="11" ry="11" style="stroke:#181818;stroke-width:1.0;"/><path d="M1252.0156,918.875 Q1252.1719,918.6563 1252.3594,918.5469 Q1252.5469,918.4375 1252.7656,918.4375 Q1253.1406,918.4375 1253.375,918.7031 Q1253.6094,918.9531 1253.6094,919.5625 L1253.6094,921.0156 Q1253.6094,921.625 1253.375,921.8906 Q1253.1406,922.1563 1252.7656,922.1563 Q1252.4219,922.1563 1252.2188,921.9531 Q1252.0156,921.7656 1251.9063,921.25 Q1251.8594,920.8906 1251.6719,920.7031 Q1251.3438,920.3281 1250.7344,920.1094 Q1250.125,919.8906 1249.5,919.8906 Q1248.7344,919.8906 1248.0938,920.2188 Q1247.4688,920.5469 1246.9688,921.2969 Q1246.4844,922.0469 1246.4844,923.0781 L1246.4844,924.1719 Q1246.4844,925.4063 1247.375,926.2344 Q1248.2656,927.0469 1249.8594,927.0469 Q1250.7969,927.0469 1251.4531,926.7969 Q1251.8438,926.6406 1252.2656,926.2031 Q1252.5313,925.9375 1252.6719,925.8594 Q1252.8281,925.7813 1253.0313,925.7813 Q1253.3594,925.7813 1253.6094,926.0469 Q1253.875,926.2969 1253.875,926.6406 Q1253.875,926.9844 1253.5313,927.3906 Q1253.0313,927.9688 1252.2344,928.2969 Q1251.1563,928.75 1249.8594,928.75 Q1248.3438,928.75 1247.1406,928.125 Q1246.1563,927.625 1245.4688,926.5625 Q1244.7813,925.4844 1244.7813,924.2031 L1244.7813,923.0469 Q1244.7813,921.7188 1245.3906,920.5781 Q1246.0156,919.4219 1247.1094,918.8125 Q1248.2031,918.1875 1249.4375,918.1875 Q1250.1719,918.1875 1250.8125,918.3594 Q1251.4688,918.5156 1252.0156,918.875 Z " fill="#000000"/><text fill="#000000" font-family="sans-serif" font-size="14" lengthAdjust="spacing" textLength="45" x="1269.75" y="928.7969">Person</text><line style="stroke:#181818;stroke-width:0.5;" x1="1151.5" x2="1400.5" y1="939" y2="939"/><text fill="#000000" font-family="sans-serif" font-size="14" lengthAdjust="spacing" textLength="79" x="1156.5" y="958.1074">-String email</text><text fill="#000000" font-family="sans-serif" font-size="14" lengthAdjust="spacing" textLength="81" x="1156.5" y="976.7285">-String name</text><text fill="#000000" font-family="sans-serif" font-size="14" lengthAdjust="spacing" textLength="79" x="1156.5" y="995.3496">-int passport</text><text fill="#000000" font-family="sans-serif" font-size="14" lengthAdjust="spacing" textLength="39" x="1156.5" y="1013.9707">-int tin</text><text fill="#000000" font-family="sans-serif" font-size="14" lengthAdjust="spacing" textLength="113" x="1156.5" y="1032.5918">-int phoneNumber</text><line style="stroke:#181818;stroke-width:0.5;" x1="1151.5" x2="1400.5" y1="1040.1055" y2="1040.1055"/><text fill="#000000" font-family="sans-serif" font-size="14" lengthAdjust="spacing" textLength="215" x="1156.5" y="1059.2129">+Person(String email, int citizenID,</text><text fill="#000000" font-family="sans-serif" font-size="14" lengthAdjust="spacing" textLength="239" x="1156.5" y="1077.834">int tin, int phoneNumber, String name)</text><text fill="#000000" font-family="sans-serif" font-size="14" lengthAdjust="spacing" textLength="211" x="1156.5" y="1096.4551">+getPerson(int citizenID) : Person</text><text fill="#000000" font-family="sans-serif" font-size="14" lengthAdjust="spacing" textLength="211" x="1156.5" y="1115.0762">+getPerson(Email email) : Person</text></g><!--class Employee--><g id="elem_Employee"><rect codeLine="59" fill="#F1F1F1" height="66.6211" id="Employee" rx="2.5" ry="2.5" style="stroke:#181818;stroke-width:0.5;" width="94" x="1425" y="1351"/><ellipse cx="1440" cy="1367" fill="#ADD1B2" rx="11" ry="11" style="stroke:#181818;stroke-width:1.0;"/><path d="M1442.7656,1362.875 Q1442.9219,1362.6563 1443.1094,1362.5469 Q1443.2969,1362.4375 1443.5156,1362.4375 Q1443.8906,1362.4375 1444.125,1362.7031 Q1444.3594,1362.9531 1444.3594,1363.5625 L1444.3594,1365.0156 Q1444.3594,1365.625 1444.125,1365.8906 Q1443.8906,1366.1563 1443.5156,1366.1563 Q1443.1719,1366.1563 1442.9688,1365.9531 Q1442.7656,1365.7656 1442.6563,1365.25 Q1442.6094,1364.8906 1442.4219,1364.7031 Q1442.0938,1364.3281 1441.4844,1364.1094 Q1440.875,1363.8906 1440.25,1363.8906 Q1439.4844,1363.8906 1438.8438,1364.2188 Q1438.2188,1364.5469 1437.7188,1365.2969 Q1437.2344,1366.0469 1437.2344,1367.0781 L1437.2344,1368.1719 Q1437.2344,1369.4063 1438.125,1370.2344 Q1439.0156,1371.0469 1440.6094,1371.0469 Q1441.5469,1371.0469 1442.2031,1370.7969 Q1442.5938,1370.6406 1443.0156,1370.2031 Q1443.2813,1369.9375 1443.4219,1369.8594 Q1443.5781,1369.7813 1443.7813,1369.7813 Q1444.1094,1369.7813 1444.3594,1370.0469 Q1444.625,1370.2969 1444.625,1370.6406 Q1444.625,1370.9844 1444.2813,1371.3906 Q1443.7813,1371.9688 1442.9844,1372.2969 Q1441.9063,1372.75 1440.6094,1372.75 Q1439.0938,1372.75 1437.8906,1372.125 Q1436.9063,1371.625 1436.2188,1370.5625 Q1435.5313,1369.4844 1435.5313,1368.2031 L1435.5313,1367.0469 Q1435.5313,1365.7188 1436.1406,1364.5781 Q1436.7656,1363.4219 1437.8594,1362.8125 Q1438.9531,1362.1875 1440.1875,1362.1875 Q1440.9219,1362.1875 1441.5625,1362.3594 Q1442.2188,1362.5156 1442.7656,1362.875 Z " fill="#000000"/><text fill="#000000" font-family="sans-serif" font-size="14" lengthAdjust="spacing" textLength="62" x="1454" y="1372.7969">Employee</text><line style="stroke:#181818;stroke-width:0.5;" x1="1426" x2="1518" y1="1383" y2="1383"/><text fill="#000000" font-family="sans-serif" font-size="14" lengthAdjust="spacing" textLength="70" x="1431" y="1402.1074">-String role</text><line style="stroke:#181818;stroke-width:0.5;" x1="1426" x2="1518" y1="1409.6211" y2="1409.6211"/></g><!--class SunExposure--><g id="elem_SunExposure"><rect codeLine="63" fill="#F1F1F1" height="85.2422" id="SunExposure" rx="2.5" ry="2.5" style="stroke:#181818;stroke-width:0.5;" width="183" x="1136.5" y="2016"/><ellipse cx="1181.75" cy="2032" fill="#EB937F" rx="11" ry="11" style="stroke:#181818;stroke-width:1.0;"/><path d="M1180.6094,2032.7969 L1180.6094,2035.2969 L1184.9375,2035.2969 L1184.9375,2034.375 Q1184.9375,2033.7656 1185.1719,2033.5 Q1185.4219,2033.2344 1185.7969,2033.2344 Q1186.1719,2033.2344 1186.4063,2033.5 Q1186.6406,2033.7656 1186.6406,2034.375 L1186.6406,2037 L1178.6406,2037 Q1178.0156,2037 1177.75,2036.7656 Q1177.5,2036.5313 1177.5,2036.1406 Q1177.5,2035.7656 1177.7656,2035.5313 Q1178.0313,2035.2969 1178.6406,2035.2969 L1178.9063,2035.2969 L1178.9063,2028.6406 L1178.6406,2028.6406 Q1178.0156,2028.6406 1177.75,2028.4063 Q1177.5,2028.1719 1177.5,2027.7813 Q1177.5,2027.4063 1177.75,2027.1719 Q1178.0156,2026.9375 1178.6406,2026.9375 L1186.2656,2026.9375 L1186.2656,2029.5313 Q1186.2656,2030.1406 1186.0313,2030.4063 Q1185.8125,2030.6563 1185.4219,2030.6563 Q1185.0469,2030.6563 1184.8125,2030.4063 Q1184.5781,2030.1406 1184.5781,2029.5313 L1184.5781,2028.6406 L1180.6094,2028.6406 L1180.6094,2031.0938 L1182.0938,2031.0938 Q1182.0938,2030.4375 1182.2188,2030.25 Q1182.4844,2029.8438 1182.9531,2029.8438 Q1183.3281,2029.8438 1183.5625,2030.1094 Q1183.7969,2030.3594 1183.7969,2030.9688 L1183.7969,2032.9375 Q1183.7969,2033.4844 1183.6719,2033.6719 Q1183.4063,2034.0625 1182.9531,2034.0625 Q1182.4844,2034.0625 1182.2188,2033.6563 Q1182.0938,2033.4688 1182.0938,2032.7969 L1180.6094,2032.7969 Z " fill="#000000"/><text fill="#000000" font-family="sans-serif" font-size="14" lengthAdjust="spacing" textLength="84" x="1202.25" y="2037.7969">SunExposure</text><line style="stroke:#181818;stroke-width:0.5;" x1="1137.5" x2="1318.5" y1="2048" y2="2048"/><text fill="#000000" font-family="sans-serif" font-size="14" lengthAdjust="spacing" textLength="115" x="1142.5" y="2067.1074">-String description</text><line style="stroke:#181818;stroke-width:0.5;" x1="1137.5" x2="1318.5" y1="2074.6211" y2="2074.6211"/><text fill="#000000" font-family="sans-serif" font-size="14" lengthAdjust="spacing" textLength="171" x="1142.5" y="2093.7285">+getSunExposure() : String</text></g><!--class Location--><g id="elem_Location"><rect codeLine="68" fill="#F1F1F1" height="364.5586" id="Location" rx="2.5" ry="2.5" style="stroke:#181818;stroke-width:0.5;" width="275" x="696.5" y="1202"/><ellipse cx="802.75" cy="1218" fill="#B4A7E5" rx="11" ry="11" style="stroke:#181818;stroke-width:1.0;"/><path d="M803.7031,1214.6406 L803.7031,1221.2969 L805.4219,1221.2969 Q806.0313,1221.2969 806.2969,1221.5313 Q806.5625,1221.7656 806.5625,1222.1563 Q806.5625,1222.5313 806.2969,1222.7656 Q806.0313,1223 805.4219,1223 L800.2813,1223 Q799.6719,1223 799.4063,1222.7656 Q799.1406,1222.5313 799.1406,1222.1406 Q799.1406,1221.7656 799.4063,1221.5313 Q799.6719,1221.2969 800.2813,1221.2969 L802,1221.2969 L802,1214.6406 L800.2813,1214.6406 Q799.6719,1214.6406 799.4063,1214.4063 Q799.1406,1214.1719 799.1406,1213.7813 Q799.1406,1213.4063 799.4063,1213.1719 Q799.6719,1212.9375 800.2813,1212.9375 L805.4219,1212.9375 Q806.0313,1212.9375 806.2969,1213.1719 Q806.5625,1213.4063 806.5625,1213.7813 Q806.5625,1214.1719 806.2969,1214.4063 Q806.0313,1214.6406 805.4219,1214.6406 L803.7031,1214.6406 Z " fill="#000000"/><text fill="#000000" font-family="sans-serif" font-size="14" font-style="italic" lengthAdjust="spacing" textLength="54" x="823.25" y="1223.7969">Location</text><line style="stroke:#181818;stroke-width:0.5;" x1="697.5" x2="970.5" y1="1234" y2="1234"/><line style="stroke:#181818;stroke-width:0.5;" x1="697.5" x2="970.5" y1="1242" y2="1242"/><text fill="#000000" font-family="sans-serif" font-size="14" lengthAdjust="spacing" textLength="125" x="702.5" y="1261.1074">+getStreet() : String</text><text fill="#000000" font-family="sans-serif" font-size="14" lengthAdjust="spacing" textLength="106" x="702.5" y="1279.7285">+getZip() : String</text><text fill="#000000" font-family="sans-serif" font-size="14" lengthAdjust="spacing" textLength="120" x="702.5" y="1298.3496">+getState() : String</text><text fill="#000000" font-family="sans-serif" font-size="14" lengthAdjust="spacing" textLength="111" x="702.5" y="1316.9707">+getCity() : String</text><text fill="#000000" font-family="sans-serif" font-size="14" lengthAdjust="spacing" textLength="130" x="702.5" y="1335.5918">+getDistrict() : String</text><text fill="#000000" font-family="sans-serif" font-size="14" lengthAdjust="spacing" textLength="141" x="702.5" y="1354.2129">+getLocation() : String</text><text fill="#000000" font-family="sans-serif" font-size="14" lengthAdjust="spacing" textLength="152" x="702.5" y="1372.834">+setStreet(String street)</text><text fill="#000000" font-family="sans-serif" font-size="14" lengthAdjust="spacing" textLength="114" x="702.5" y="1391.4551">+setZip(String zip)</text><text fill="#000000" font-family="sans-serif" font-size="14" lengthAdjust="spacing" textLength="142" x="702.5" y="1410.0762">+setState(String state)</text><text fill="#000000" font-family="sans-serif" font-size="14" lengthAdjust="spacing" textLength="123" x="702.5" y="1428.6973">+setCity(String city)</text><text fill="#000000" font-family="sans-serif" font-size="14" lengthAdjust="spacing" textLength="162" x="702.5" y="1447.3184">+setDistrict(String district)</text><text fill="#000000" font-family="sans-serif" font-size="14" lengthAdjust="spacing" textLength="233" x="702.5" y="1465.9395">+setLocation(String street, String zip,</text><text fill="#000000" font-family="sans-serif" font-size="14" lengthAdjust="spacing" textLength="237" x="702.5" y="1484.5605">String state, String city, String district)</text><text fill="#000000" font-family="sans-serif" font-size="14" lengthAdjust="spacing" textLength="144" x="702.5" y="1503.1816">+validateZip(String zip)</text><text fill="#000000" font-family="sans-serif" font-size="14" lengthAdjust="spacing" textLength="263" x="702.5" y="1521.8027">+validateLocation(String zip, String street,</text><text fill="#000000" font-family="sans-serif" font-size="14" lengthAdjust="spacing" textLength="237" x="702.5" y="1540.4238">String state, String city, String district)</text><text fill="#000000" font-family="sans-serif" font-size="14" lengthAdjust="spacing" textLength="170" x="702.5" y="1559.0449">+locationToString() : String</text></g><!--class Property--><g id="elem_Property"><rect codeLine="89" fill="#F1F1F1" height="196.9688" id="Property" rx="2.5" ry="2.5" style="stroke:#181818;stroke-width:0.5;" width="383" x="1006.5" y="1286"/><ellipse cx="1166.75" cy="1302" fill="#B4A7E5" rx="11" ry="11" style="stroke:#181818;stroke-width:1.0;"/><path d="M1167.7031,1298.6406 L1167.7031,1305.2969 L1169.4219,1305.2969 Q1170.0313,1305.2969 1170.2969,1305.5313 Q1170.5625,1305.7656 1170.5625,1306.1563 Q1170.5625,1306.5313 1170.2969,1306.7656 Q1170.0313,1307 1169.4219,1307 L1164.2813,1307 Q1163.6719,1307 1163.4063,1306.7656 Q1163.1406,1306.5313 1163.1406,1306.1406 Q1163.1406,1305.7656 1163.4063,1305.5313 Q1163.6719,1305.2969 1164.2813,1305.2969 L1166,1305.2969 L1166,1298.6406 L1164.2813,1298.6406 Q1163.6719,1298.6406 1163.4063,1298.4063 Q1163.1406,1298.1719 1163.1406,1297.7813 Q1163.1406,1297.4063 1163.4063,1297.1719 Q1163.6719,1296.9375 1164.2813,1296.9375 L1169.4219,1296.9375 Q1170.0313,1296.9375 1170.2969,1297.1719 Q1170.5625,1297.4063 1170.5625,1297.7813 Q1170.5625,1298.1719 1170.2969,1298.4063 Q1170.0313,1298.6406 1169.4219,1298.6406 L1167.7031,1298.6406 Z " fill="#000000"/><text fill="#000000" font-family="sans-serif" font-size="14" font-style="italic" lengthAdjust="spacing" textLength="54" x="1187.25" y="1307.7969">Property</text><line style="stroke:#181818;stroke-width:0.5;" x1="1007.5" x2="1388.5" y1="1318" y2="1318"/><line style="stroke:#181818;stroke-width:0.5;" x1="1007.5" x2="1388.5" y1="1326" y2="1326"/><text fill="#000000" font-family="sans-serif" font-size="14" lengthAdjust="spacing" textLength="123" x="1012.5" y="1345.1074">+getArea() : double</text><text fill="#000000" font-family="sans-serif" font-size="14" lengthAdjust="spacing" textLength="148" x="1012.5" y="1363.7285">+getDistance() : double</text><text fill="#000000" font-family="sans-serif" font-size="14" lengthAdjust="spacing" textLength="173" x="1012.5" y="1382.3496">+getPropertyType() : String</text><text fill="#000000" font-family="sans-serif" font-size="14" lengthAdjust="spacing" textLength="206" x="1012.5" y="1400.9707">+getPhotographs() : List&lt;String&gt;</text><text fill="#000000" font-family="sans-serif" font-size="14" lengthAdjust="spacing" textLength="363" x="1012.5" y="1419.5918">+validatePropertyArguments(PropertyType propertyType,</text><text fill="#000000" font-family="sans-serif" font-size="14" lengthAdjust="spacing" textLength="356" x="1012.5" y="1438.2129">double area, double distance, List&lt;String&gt; photographs)</text><text fill="#000000" font-family="sans-serif" font-size="14" lengthAdjust="spacing" textLength="371" x="1012.5" y="1456.834">+validPropertyType(PropertyType propertyType) : boolean</text><text fill="#000000" font-family="sans-serif" font-size="14" lengthAdjust="spacing" textLength="333" x="1012.5" y="1475.4551">+validatePhotos(List&lt;String&gt; photographs) : boolean</text></g><!--class Land--><g id="elem_Land"><rect codeLine="100" fill="#F1F1F1" height="196.9688" id="Land" rx="2.5" ry="2.5" style="stroke:#181818;stroke-width:0.5;" width="176" x="923" y="1693"/><ellipse cx="990.75" cy="1709" fill="#ADD1B2" rx="11" ry="11" style="stroke:#181818;stroke-width:1.0;"/><path d="M993.5156,1704.875 Q993.6719,1704.6563 993.8594,1704.5469 Q994.0469,1704.4375 994.2656,1704.4375 Q994.6406,1704.4375 994.875,1704.7031 Q995.1094,1704.9531 995.1094,1705.5625 L995.1094,1707.0156 Q995.1094,1707.625 994.875,1707.8906 Q994.6406,1708.1563 994.2656,1708.1563 Q993.9219,1708.1563 993.7188,1707.9531 Q993.5156,1707.7656 993.4063,1707.25 Q993.3594,1706.8906 993.1719,1706.7031 Q992.8438,1706.3281 992.2344,1706.1094 Q991.625,1705.8906 991,1705.8906 Q990.2344,1705.8906 989.5938,1706.2188 Q988.9688,1706.5469 988.4688,1707.2969 Q987.9844,1708.0469 987.9844,1709.0781 L987.9844,1710.1719 Q987.9844,1711.4063 988.875,1712.2344 Q989.7656,1713.0469 991.3594,1713.0469 Q992.2969,1713.0469 992.9531,1712.7969 Q993.3438,1712.6406 993.7656,1712.2031 Q994.0313,1711.9375 994.1719,1711.8594 Q994.3281,1711.7813 994.5313,1711.7813 Q994.8594,1711.7813 995.1094,1712.0469 Q995.375,1712.2969 995.375,1712.6406 Q995.375,1712.9844 995.0313,1713.3906 Q994.5313,1713.9688 993.7344,1714.2969 Q992.6563,1714.75 991.3594,1714.75 Q989.8438,1714.75 988.6406,1714.125 Q987.6563,1713.625 986.9688,1712.5625 Q986.2813,1711.4844 986.2813,1710.2031 L986.2813,1709.0469 Q986.2813,1707.7188 986.8906,1706.5781 Q987.5156,1705.4219 988.6094,1704.8125 Q989.7031,1704.1875 990.9375,1704.1875 Q991.6719,1704.1875 992.3125,1704.3594 Q992.9688,1704.5156 993.5156,1704.875 Z " fill="#000000"/><text fill="#000000" font-family="sans-serif" font-size="14" lengthAdjust="spacing" textLength="32" x="1011.25" y="1714.7969">Land</text><line style="stroke:#181818;stroke-width:0.5;" x1="924" x2="1098" y1="1725" y2="1725"/><text fill="#000000" font-family="sans-serif" font-size="14" lengthAdjust="spacing" textLength="77" x="929" y="1744.1074">-String state</text><text fill="#000000" font-family="sans-serif" font-size="14" lengthAdjust="spacing" textLength="67" x="929" y="1762.7285">-String city</text><text fill="#000000" font-family="sans-serif" font-size="14" lengthAdjust="spacing" textLength="87" x="929" y="1781.3496">-String district</text><text fill="#000000" font-family="sans-serif" font-size="14" lengthAdjust="spacing" textLength="82" x="929" y="1799.9707">-String street</text><text fill="#000000" font-family="sans-serif" font-size="14" lengthAdjust="spacing" textLength="63" x="929" y="1818.5918">-String zip</text><text fill="#000000" font-family="sans-serif" font-size="14" lengthAdjust="spacing" textLength="81" x="929" y="1837.2129">-double area</text><text fill="#000000" font-family="sans-serif" font-size="14" lengthAdjust="spacing" textLength="105" x="929" y="1855.834">-double distance</text><text fill="#000000" font-family="sans-serif" font-size="14" lengthAdjust="spacing" textLength="164" x="929" y="1874.4551">-List&lt;String&gt; photographs</text><line style="stroke:#181818;stroke-width:0.5;" x1="924" x2="1098" y1="1881.9688" y2="1881.9688"/></g><!--class Apartment--><g id="elem_Apartment"><rect codeLine="111" fill="#F1F1F1" height="271.4531" id="Apartment" rx="2.5" ry="2.5" style="stroke:#181818;stroke-width:0.5;" width="181" x="706.5" y="1656"/><ellipse cx="760.25" cy="1672" fill="#ADD1B2" rx="11" ry="11" style="stroke:#181818;stroke-width:1.0;"/><path d="M763.0156,1667.875 Q763.1719,1667.6563 763.3594,1667.5469 Q763.5469,1667.4375 763.7656,1667.4375 Q764.1406,1667.4375 764.375,1667.7031 Q764.6094,1667.9531 764.6094,1668.5625 L764.6094,1670.0156 Q764.6094,1670.625 764.375,1670.8906 Q764.1406,1671.1563 763.7656,1671.1563 Q763.4219,1671.1563 763.2188,1670.9531 Q763.0156,1670.7656 762.9063,1670.25 Q762.8594,1669.8906 762.6719,1669.7031 Q762.3438,1669.3281 761.7344,1669.1094 Q761.125,1668.8906 760.5,1668.8906 Q759.7344,1668.8906 759.0938,1669.2188 Q758.4688,1669.5469 757.9688,1670.2969 Q757.4844,1671.0469 757.4844,1672.0781 L757.4844,1673.1719 Q757.4844,1674.4063 758.375,1675.2344 Q759.2656,1676.0469 760.8594,1676.0469 Q761.7969,1676.0469 762.4531,1675.7969 Q762.8438,1675.6406 763.2656,1675.2031 Q763.5313,1674.9375 763.6719,1674.8594 Q763.8281,1674.7813 764.0313,1674.7813 Q764.3594,1674.7813 764.6094,1675.0469 Q764.875,1675.2969 764.875,1675.6406 Q764.875,1675.9844 764.5313,1676.3906 Q764.0313,1676.9688 763.2344,1677.2969 Q762.1563,1677.75 760.8594,1677.75 Q759.3438,1677.75 758.1406,1677.125 Q757.1563,1676.625 756.4688,1675.5625 Q755.7813,1674.4844 755.7813,1673.2031 L755.7813,1672.0469 Q755.7813,1670.7188 756.3906,1669.5781 Q757.0156,1668.4219 758.1094,1667.8125 Q759.2031,1667.1875 760.4375,1667.1875 Q761.1719,1667.1875 761.8125,1667.3594 Q762.4688,1667.5156 763.0156,1667.875 Z " fill="#000000"/><text fill="#000000" font-family="sans-serif" font-size="14" lengthAdjust="spacing" textLength="65" x="780.75" y="1677.7969">Apartment</text><line style="stroke:#181818;stroke-width:0.5;" x1="707.5" x2="886.5" y1="1688" y2="1688"/><text fill="#000000" font-family="sans-serif" font-size="14" lengthAdjust="spacing" textLength="77" x="712.5" y="1707.1074">-String state</text><text fill="#000000" font-family="sans-serif" font-size="14" lengthAdjust="spacing" textLength="67" x="712.5" y="1725.7285">-String city</text><text fill="#000000" font-family="sans-serif" font-size="14" lengthAdjust="spacing" textLength="87" x="712.5" y="1744.3496">-String district</text><text fill="#000000" font-family="sans-serif" font-size="14" lengthAdjust="spacing" textLength="82" x="712.5" y="1762.9707">-String street</text><text fill="#000000" font-family="sans-serif" font-size="14" lengthAdjust="spacing" textLength="63" x="712.5" y="1781.5918">-String zip</text><text fill="#000000" font-family="sans-serif" font-size="14" lengthAdjust="spacing" textLength="81" x="712.5" y="1800.2129">-double area</text><text fill="#000000" font-family="sans-serif" font-size="14" lengthAdjust="spacing" textLength="105" x="712.5" y="1818.834">-double distance</text><text fill="#000000" font-family="sans-serif" font-size="14" lengthAdjust="spacing" textLength="164" x="712.5" y="1837.4551">-List&lt;String&gt; photographs</text><text fill="#000000" font-family="sans-serif" font-size="14" lengthAdjust="spacing" textLength="136" x="712.5" y="1856.0762">-int numberBedrooms</text><text fill="#000000" font-family="sans-serif" font-size="14" lengthAdjust="spacing" textLength="140" x="712.5" y="1874.6973">-int numberBathrooms</text><text fill="#000000" font-family="sans-serif" font-size="14" lengthAdjust="spacing" textLength="120" x="712.5" y="1893.3184">-int numberParking</text><text fill="#000000" font-family="sans-serif" font-size="14" lengthAdjust="spacing" textLength="169" x="712.5" y="1911.9395">-String availableEquipment</text><line style="stroke:#181818;stroke-width:0.5;" x1="707.5" x2="886.5" y1="1919.4531" y2="1919.4531"/></g><!--class House--><g id="elem_House"><rect codeLine="126" fill="#F1F1F1" height="327.3164" id="House" rx="2.5" ry="2.5" style="stroke:#181818;stroke-width:0.5;" width="187" x="1134.5" y="1628"/><ellipse cx="1203.75" cy="1644" fill="#ADD1B2" rx="11" ry="11" style="stroke:#181818;stroke-width:1.0;"/><path d="M1206.5156,1639.875 Q1206.6719,1639.6563 1206.8594,1639.5469 Q1207.0469,1639.4375 1207.2656,1639.4375 Q1207.6406,1639.4375 1207.875,1639.7031 Q1208.1094,1639.9531 1208.1094,1640.5625 L1208.1094,1642.0156 Q1208.1094,1642.625 1207.875,1642.8906 Q1207.6406,1643.1563 1207.2656,1643.1563 Q1206.9219,1643.1563 1206.7188,1642.9531 Q1206.5156,1642.7656 1206.4063,1642.25 Q1206.3594,1641.8906 1206.1719,1641.7031 Q1205.8438,1641.3281 1205.2344,1641.1094 Q1204.625,1640.8906 1204,1640.8906 Q1203.2344,1640.8906 1202.5938,1641.2188 Q1201.9688,1641.5469 1201.4688,1642.2969 Q1200.9844,1643.0469 1200.9844,1644.0781 L1200.9844,1645.1719 Q1200.9844,1646.4063 1201.875,1647.2344 Q1202.7656,1648.0469 1204.3594,1648.0469 Q1205.2969,1648.0469 1205.9531,1647.7969 Q1206.3438,1647.6406 1206.7656,1647.2031 Q1207.0313,1646.9375 1207.1719,1646.8594 Q1207.3281,1646.7813 1207.5313,1646.7813 Q1207.8594,1646.7813 1208.1094,1647.0469 Q1208.375,1647.2969 1208.375,1647.6406 Q1208.375,1647.9844 1208.0313,1648.3906 Q1207.5313,1648.9688 1206.7344,1649.2969 Q1205.6563,1649.75 1204.3594,1649.75 Q1202.8438,1649.75 1201.6406,1649.125 Q1200.6563,1648.625 1199.9688,1647.5625 Q1199.2813,1646.4844 1199.2813,1645.2031 L1199.2813,1644.0469 Q1199.2813,1642.7188 1199.8906,1641.5781 Q1200.5156,1640.4219 1201.6094,1639.8125 Q1202.7031,1639.1875 1203.9375,1639.1875 Q1204.6719,1639.1875 1205.3125,1639.3594 Q1205.9688,1639.5156 1206.5156,1639.875 Z " fill="#000000"/><text fill="#000000" font-family="sans-serif" font-size="14" lengthAdjust="spacing" textLength="40" x="1224.25" y="1649.7969">House</text><line style="stroke:#181818;stroke-width:0.5;" x1="1135.5" x2="1320.5" y1="1660" y2="1660"/><text fill="#000000" font-family="sans-serif" font-size="14" lengthAdjust="spacing" textLength="77" x="1140.5" y="1679.1074">-String state</text><text fill="#000000" font-family="sans-serif" font-size="14" lengthAdjust="spacing" textLength="67" x="1140.5" y="1697.7285">-String city</text><text fill="#000000" font-family="sans-serif" font-size="14" lengthAdjust="spacing" textLength="87" x="1140.5" y="1716.3496">-String district</text><text fill="#000000" font-family="sans-serif" font-size="14" lengthAdjust="spacing" textLength="82" x="1140.5" y="1734.9707">-String street</text><text fill="#000000" font-family="sans-serif" font-size="14" lengthAdjust="spacing" textLength="63" x="1140.5" y="1753.5918">-String zip</text><text fill="#000000" font-family="sans-serif" font-size="14" lengthAdjust="spacing" textLength="81" x="1140.5" y="1772.2129">-double area</text><text fill="#000000" font-family="sans-serif" font-size="14" lengthAdjust="spacing" textLength="105" x="1140.5" y="1790.834">-double distance</text><text fill="#000000" font-family="sans-serif" font-size="14" lengthAdjust="spacing" textLength="164" x="1140.5" y="1809.4551">-List&lt;String&gt; photographs</text><text fill="#000000" font-family="sans-serif" font-size="14" lengthAdjust="spacing" textLength="136" x="1140.5" y="1828.0762">-int numberBedrooms</text><text fill="#000000" font-family="sans-serif" font-size="14" lengthAdjust="spacing" textLength="140" x="1140.5" y="1846.6973">-int numberBathrooms</text><text fill="#000000" font-family="sans-serif" font-size="14" lengthAdjust="spacing" textLength="120" x="1140.5" y="1865.3184">-int numberParking</text><text fill="#000000" font-family="sans-serif" font-size="14" lengthAdjust="spacing" textLength="169" x="1140.5" y="1883.9395">-String availableEquipment</text><text fill="#000000" font-family="sans-serif" font-size="14" lengthAdjust="spacing" textLength="122" x="1140.5" y="1902.5605">-boolean basement</text><text fill="#000000" font-family="sans-serif" font-size="14" lengthAdjust="spacing" textLength="79" x="1140.5" y="1921.1816">-boolean loft</text><text fill="#000000" font-family="sans-serif" font-size="14" lengthAdjust="spacing" textLength="175" x="1140.5" y="1939.8027">-SunExposure sunExposure</text><line style="stroke:#181818;stroke-width:0.5;" x1="1135.5" x2="1320.5" y1="1947.3164" y2="1947.3164"/></g><!--class BusinessType--><g id="elem_BusinessType"><rect codeLine="144" fill="#F1F1F1" height="85.2422" id="BusinessType" rx="2.5" ry="2.5" style="stroke:#181818;stroke-width:0.5;" width="188" x="240" y="1342"/><ellipse cx="285.25" cy="1358" fill="#EB937F" rx="11" ry="11" style="stroke:#181818;stroke-width:1.0;"/><path d="M284.1094,1358.7969 L284.1094,1361.2969 L288.4375,1361.2969 L288.4375,1360.375 Q288.4375,1359.7656 288.6719,1359.5 Q288.9219,1359.2344 289.2969,1359.2344 Q289.6719,1359.2344 289.9063,1359.5 Q290.1406,1359.7656 290.1406,1360.375 L290.1406,1363 L282.1406,1363 Q281.5156,1363 281.25,1362.7656 Q281,1362.5313 281,1362.1406 Q281,1361.7656 281.2656,1361.5313 Q281.5313,1361.2969 282.1406,1361.2969 L282.4063,1361.2969 L282.4063,1354.6406 L282.1406,1354.6406 Q281.5156,1354.6406 281.25,1354.4063 Q281,1354.1719 281,1353.7813 Q281,1353.4063 281.25,1353.1719 Q281.5156,1352.9375 282.1406,1352.9375 L289.7656,1352.9375 L289.7656,1355.5313 Q289.7656,1356.1406 289.5313,1356.4063 Q289.3125,1356.6563 288.9219,1356.6563 Q288.5469,1356.6563 288.3125,1356.4063 Q288.0781,1356.1406 288.0781,1355.5313 L288.0781,1354.6406 L284.1094,1354.6406 L284.1094,1357.0938 L285.5938,1357.0938 Q285.5938,1356.4375 285.7188,1356.25 Q285.9844,1355.8438 286.4531,1355.8438 Q286.8281,1355.8438 287.0625,1356.1094 Q287.2969,1356.3594 287.2969,1356.9688 L287.2969,1358.9375 Q287.2969,1359.4844 287.1719,1359.6719 Q286.9063,1360.0625 286.4531,1360.0625 Q285.9844,1360.0625 285.7188,1359.6563 Q285.5938,1359.4688 285.5938,1358.7969 L284.1094,1358.7969 Z " fill="#000000"/><text fill="#000000" font-family="sans-serif" font-size="14" lengthAdjust="spacing" textLength="89" x="305.75" y="1363.7969">BusinessType</text><line style="stroke:#181818;stroke-width:0.5;" x1="241" x2="427" y1="1374" y2="1374"/><text fill="#000000" font-family="sans-serif" font-size="14" lengthAdjust="spacing" textLength="115" x="246" y="1393.1074">-String description</text><line style="stroke:#181818;stroke-width:0.5;" x1="241" x2="427" y1="1400.6211" y2="1400.6211"/><text fill="#000000" font-family="sans-serif" font-size="14" lengthAdjust="spacing" textLength="176" x="246" y="1419.7285">+getBusinessType() : String</text></g><!--class Request--><g id="elem_Request"><rect codeLine="149" fill="#F1F1F1" height="196.9688" id="Request" rx="2.5" ry="2.5" style="stroke:#181818;stroke-width:0.5;" width="431" x="621.5" y="916.5"/><ellipse cx="806.25" cy="932.5" fill="#B4A7E5" rx="11" ry="11" style="stroke:#181818;stroke-width:1.0;"/><path d="M807.2031,929.1406 L807.2031,935.7969 L808.9219,935.7969 Q809.5313,935.7969 809.7969,936.0313 Q810.0625,936.2656 810.0625,936.6563 Q810.0625,937.0313 809.7969,937.2656 Q809.5313,937.5 808.9219,937.5 L803.7813,937.5 Q803.1719,937.5 802.9063,937.2656 Q802.6406,937.0313 802.6406,936.6406 Q802.6406,936.2656 802.9063,936.0313 Q803.1719,935.7969 803.7813,935.7969 L805.5,935.7969 L805.5,929.1406 L803.7813,929.1406 Q803.1719,929.1406 802.9063,928.9063 Q802.6406,928.6719 802.6406,928.2813 Q802.6406,927.9063 802.9063,927.6719 Q803.1719,927.4375 803.7813,927.4375 L808.9219,927.4375 Q809.5313,927.4375 809.7969,927.6719 Q810.0625,927.9063 810.0625,928.2813 Q810.0625,928.6719 809.7969,928.9063 Q809.5313,929.1406 808.9219,929.1406 L807.2031,929.1406 Z " fill="#000000"/><text fill="#000000" font-family="sans-serif" font-size="14" font-style="italic" lengthAdjust="spacing" textLength="53" x="826.75" y="938.2969">Request</text><line style="stroke:#181818;stroke-width:0.5;" x1="622.5" x2="1051.5" y1="948.5" y2="948.5"/><line style="stroke:#181818;stroke-width:0.5;" x1="622.5" x2="1051.5" y1="956.5" y2="956.5"/><text fill="#000000" font-family="sans-serif" font-size="14" lengthAdjust="spacing" textLength="158" x="627.5" y="975.6074">+getProperty() : Property</text><text fill="#000000" font-family="sans-serif" font-size="14" lengthAdjust="spacing" textLength="176" x="627.5" y="994.2285">+getBusinessType() : String</text><text fill="#000000" font-family="sans-serif" font-size="14" lengthAdjust="spacing" textLength="136" x="627.5" y="1012.8496">+getOwner() : Person</text><text fill="#000000" font-family="sans-serif" font-size="14" lengthAdjust="spacing" textLength="149" x="627.5" y="1031.4707">+getAgent() : Employee</text><text fill="#000000" font-family="sans-serif" font-size="14" lengthAdjust="spacing" textLength="110" x="627.5" y="1050.0918">+getDate() : Date</text><text fill="#000000" font-family="sans-serif" font-size="14" lengthAdjust="spacing" textLength="419" x="627.5" y="1068.7129">+validateRequest(Property property, BusinessType businessType,</text><text fill="#000000" font-family="sans-serif" font-size="14" lengthAdjust="spacing" textLength="360" x="627.5" y="1087.334">Person owner, Employee agent, double... args) : boolean</text><text fill="#000000" font-family="sans-serif" font-size="14" lengthAdjust="spacing" textLength="393" x="627.5" y="1105.9551">+confirmBusinessType(BusinessType businessType): boolean</text></g><!--class RequestSale--><g id="elem_RequestSale"><rect codeLine="160" fill="#F1F1F1" height="159.7266" id="RequestSale" rx="2.5" ry="2.5" style="stroke:#181818;stroke-width:0.5;" width="198" x="463" y="1304.5"/><ellipse cx="517.25" cy="1320.5" fill="#ADD1B2" rx="11" ry="11" style="stroke:#181818;stroke-width:1.0;"/><path d="M520.0156,1316.375 Q520.1719,1316.1563 520.3594,1316.0469 Q520.5469,1315.9375 520.7656,1315.9375 Q521.1406,1315.9375 521.375,1316.2031 Q521.6094,1316.4531 521.6094,1317.0625 L521.6094,1318.5156 Q521.6094,1319.125 521.375,1319.3906 Q521.1406,1319.6563 520.7656,1319.6563 Q520.4219,1319.6563 520.2188,1319.4531 Q520.0156,1319.2656 519.9063,1318.75 Q519.8594,1318.3906 519.6719,1318.2031 Q519.3438,1317.8281 518.7344,1317.6094 Q518.125,1317.3906 517.5,1317.3906 Q516.7344,1317.3906 516.0938,1317.7188 Q515.4688,1318.0469 514.9688,1318.7969 Q514.4844,1319.5469 514.4844,1320.5781 L514.4844,1321.6719 Q514.4844,1322.9063 515.375,1323.7344 Q516.2656,1324.5469 517.8594,1324.5469 Q518.7969,1324.5469 519.4531,1324.2969 Q519.8438,1324.1406 520.2656,1323.7031 Q520.5313,1323.4375 520.6719,1323.3594 Q520.8281,1323.2813 521.0313,1323.2813 Q521.3594,1323.2813 521.6094,1323.5469 Q521.875,1323.7969 521.875,1324.1406 Q521.875,1324.4844 521.5313,1324.8906 Q521.0313,1325.4688 520.2344,1325.7969 Q519.1563,1326.25 517.8594,1326.25 Q516.3438,1326.25 515.1406,1325.625 Q514.1563,1325.125 513.4688,1324.0625 Q512.7813,1322.9844 512.7813,1321.7031 L512.7813,1320.5469 Q512.7813,1319.2188 513.3906,1318.0781 Q514.0156,1316.9219 515.1094,1316.3125 Q516.2031,1315.6875 517.4375,1315.6875 Q518.1719,1315.6875 518.8125,1315.8594 Q519.4688,1316.0156 520.0156,1316.375 Z " fill="#000000"/><text fill="#000000" font-family="sans-serif" font-size="14" lengthAdjust="spacing" textLength="81" x="537.75" y="1326.2969">RequestSale</text><line style="stroke:#181818;stroke-width:0.5;" x1="464" x2="660" y1="1336.5" y2="1336.5"/><text fill="#000000" font-family="sans-serif" font-size="14" lengthAdjust="spacing" textLength="110" x="469" y="1355.6074">-double salePrice</text><text fill="#000000" font-family="sans-serif" font-size="14" lengthAdjust="spacing" textLength="67" x="469" y="1374.2285">-Date date</text><text fill="#000000" font-family="sans-serif" font-size="14" lengthAdjust="spacing" textLength="186" x="469" y="1392.8496">-BusinessType businessType</text><text fill="#000000" font-family="sans-serif" font-size="14" lengthAdjust="spacing" textLength="116" x="469" y="1411.4707">-Property property</text><text fill="#000000" font-family="sans-serif" font-size="14" lengthAdjust="spacing" textLength="132" x="469" y="1430.0918">-Employee employee</text><text fill="#000000" font-family="sans-serif" font-size="14" lengthAdjust="spacing" textLength="98" x="469" y="1448.7129">-Person person</text><line style="stroke:#181818;stroke-width:0.5;" x1="464" x2="660" y1="1456.2266" y2="1456.2266"/></g><!--class RequestLease--><g id="elem_RequestLease"><rect codeLine="169" fill="#F1F1F1" height="178.3477" id="RequestLease" rx="2.5" ry="2.5" style="stroke:#181818;stroke-width:0.5;" width="198" x="7" y="1295.5"/><ellipse cx="55.75" cy="1311.5" fill="#ADD1B2" rx="11" ry="11" style="stroke:#181818;stroke-width:1.0;"/><path d="M58.5156,1307.375 Q58.6719,1307.1563 58.8594,1307.0469 Q59.0469,1306.9375 59.2656,1306.9375 Q59.6406,1306.9375 59.875,1307.2031 Q60.1094,1307.4531 60.1094,1308.0625 L60.1094,1309.5156 Q60.1094,1310.125 59.875,1310.3906 Q59.6406,1310.6563 59.2656,1310.6563 Q58.9219,1310.6563 58.7188,1310.4531 Q58.5156,1310.2656 58.4063,1309.75 Q58.3594,1309.3906 58.1719,1309.2031 Q57.8438,1308.8281 57.2344,1308.6094 Q56.625,1308.3906 56,1308.3906 Q55.2344,1308.3906 54.5938,1308.7188 Q53.9688,1309.0469 53.4688,1309.7969 Q52.9844,1310.5469 52.9844,1311.5781 L52.9844,1312.6719 Q52.9844,1313.9063 53.875,1314.7344 Q54.7656,1315.5469 56.3594,1315.5469 Q57.2969,1315.5469 57.9531,1315.2969 Q58.3438,1315.1406 58.7656,1314.7031 Q59.0313,1314.4375 59.1719,1314.3594 Q59.3281,1314.2813 59.5313,1314.2813 Q59.8594,1314.2813 60.1094,1314.5469 Q60.375,1314.7969 60.375,1315.1406 Q60.375,1315.4844 60.0313,1315.8906 Q59.5313,1316.4688 58.7344,1316.7969 Q57.6563,1317.25 56.3594,1317.25 Q54.8438,1317.25 53.6406,1316.625 Q52.6563,1316.125 51.9688,1315.0625 Q51.2813,1313.9844 51.2813,1312.7031 L51.2813,1311.5469 Q51.2813,1310.2188 51.8906,1309.0781 Q52.5156,1307.9219 53.6094,1307.3125 Q54.7031,1306.6875 55.9375,1306.6875 Q56.6719,1306.6875 57.3125,1306.8594 Q57.9688,1307.0156 58.5156,1307.375 Z " fill="#000000"/><text fill="#000000" font-family="sans-serif" font-size="14" lengthAdjust="spacing" textLength="92" x="76.25" y="1317.2969">RequestLease</text><line style="stroke:#181818;stroke-width:0.5;" x1="8" x2="204" y1="1327.5" y2="1327.5"/><text fill="#000000" font-family="sans-serif" font-size="14" lengthAdjust="spacing" textLength="120" x="13" y="1346.6074">-double rentalPrice</text><text fill="#000000" font-family="sans-serif" font-size="14" lengthAdjust="spacing" textLength="145" x="13" y="1365.2285">-int durationOfContract</text><text fill="#000000" font-family="sans-serif" font-size="14" lengthAdjust="spacing" textLength="67" x="13" y="1383.8496">-Date date</text><text fill="#000000" font-family="sans-serif" font-size="14" lengthAdjust="spacing" textLength="186" x="13" y="1402.4707">-BusinessType businessType</text><text fill="#000000" font-family="sans-serif" font-size="14" lengthAdjust="spacing" textLength="116" x="13" y="1421.0918">-Property property</text><text fill="#000000" font-family="sans-serif" font-size="14" lengthAdjust="spacing" textLength="132" x="13" y="1439.7129">-Employee employee</text><text fill="#000000" font-family="sans-serif" font-size="14" lengthAdjust="spacing" textLength="98" x="13" y="1458.334">-Person person</text><line style="stroke:#181818;stroke-width:0.5;" x1="8" x2="204" y1="1465.8477" y2="1465.8477"/></g><!--class CommissionType--><g id="elem_CommissionType"><rect codeLine="179" fill="#F1F1F1" height="85.2422" id="CommissionType" rx="2.5" ry="2.5" style="stroke:#181818;stroke-width:0.5;" width="207" x="1552.5" y="972.5"/><ellipse cx="1597.75" cy="988.5" fill="#EB937F" rx="11" ry="11" style="stroke:#181818;stroke-width:1.0;"/><path d="M1596.6094,989.2969 L1596.6094,991.7969 L1600.9375,991.7969 L1600.9375,990.875 Q1600.9375,990.2656 1601.1719,990 Q1601.4219,989.7344 1601.7969,989.7344 Q1602.1719,989.7344 1602.4063,990 Q1602.6406,990.2656 1602.6406,990.875 L1602.6406,993.5 L1594.6406,993.5 Q1594.0156,993.5 1593.75,993.2656 Q1593.5,993.0313 1593.5,992.6406 Q1593.5,992.2656 1593.7656,992.0313 Q1594.0313,991.7969 1594.6406,991.7969 L1594.9063,991.7969 L1594.9063,985.1406 L1594.6406,985.1406 Q1594.0156,985.1406 1593.75,984.9063 Q1593.5,984.6719 1593.5,984.2813 Q1593.5,983.9063 1593.75,983.6719 Q1594.0156,983.4375 1594.6406,983.4375 L1602.2656,983.4375 L1602.2656,986.0313 Q1602.2656,986.6406 1602.0313,986.9063 Q1601.8125,987.1563 1601.4219,987.1563 Q1601.0469,987.1563 1600.8125,986.9063 Q1600.5781,986.6406 1600.5781,986.0313 L1600.5781,985.1406 L1596.6094,985.1406 L1596.6094,987.5938 L1598.0938,987.5938 Q1598.0938,986.9375 1598.2188,986.75 Q1598.4844,986.3438 1598.9531,986.3438 Q1599.3281,986.3438 1599.5625,986.6094 Q1599.7969,986.8594 1599.7969,987.4688 L1599.7969,989.4375 Q1599.7969,989.9844 1599.6719,990.1719 Q1599.4063,990.5625 1598.9531,990.5625 Q1598.4844,990.5625 1598.2188,990.1563 Q1598.0938,989.9688 1598.0938,989.2969 L1596.6094,989.2969 Z " fill="#000000"/><text fill="#000000" font-family="sans-serif" font-size="14" lengthAdjust="spacing" textLength="108" x="1618.25" y="994.2969">CommissionType</text><line style="stroke:#181818;stroke-width:0.5;" x1="1553.5" x2="1758.5" y1="1004.5" y2="1004.5"/><text fill="#000000" font-family="sans-serif" font-size="14" lengthAdjust="spacing" textLength="115" x="1558.5" y="1023.6074">-String description</text><line style="stroke:#181818;stroke-width:0.5;" x1="1553.5" x2="1758.5" y1="1031.1211" y2="1031.1211"/><text fill="#000000" font-family="sans-serif" font-size="14" lengthAdjust="spacing" textLength="195" x="1558.5" y="1050.2285">+getCommissionType() : String</text></g><!--class Advertisement--><g id="elem_Advertisement"><rect codeLine="184" fill="#F1F1F1" height="178.3477" id="Advertisement" rx="2.5" ry="2.5" style="stroke:#181818;stroke-width:0.5;" width="234" x="1355" y="668"/><ellipse cx="1422.75" cy="684" fill="#ADD1B2" rx="11" ry="11" style="stroke:#181818;stroke-width:1.0;"/><path d="M1425.5156,679.875 Q1425.6719,679.6563 1425.8594,679.5469 Q1426.0469,679.4375 1426.2656,679.4375 Q1426.6406,679.4375 1426.875,679.7031 Q1427.1094,679.9531 1427.1094,680.5625 L1427.1094,682.0156 Q1427.1094,682.625 1426.875,682.8906 Q1426.6406,683.1563 1426.2656,683.1563 Q1425.9219,683.1563 1425.7188,682.9531 Q1425.5156,682.7656 1425.4063,682.25 Q1425.3594,681.8906 1425.1719,681.7031 Q1424.8438,681.3281 1424.2344,681.1094 Q1423.625,680.8906 1423,680.8906 Q1422.2344,680.8906 1421.5938,681.2188 Q1420.9688,681.5469 1420.4688,682.2969 Q1419.9844,683.0469 1419.9844,684.0781 L1419.9844,685.1719 Q1419.9844,686.4063 1420.875,687.2344 Q1421.7656,688.0469 1423.3594,688.0469 Q1424.2969,688.0469 1424.9531,687.7969 Q1425.3438,687.6406 1425.7656,687.2031 Q1426.0313,686.9375 1426.1719,686.8594 Q1426.3281,686.7813 1426.5313,686.7813 Q1426.8594,686.7813 1427.1094,687.0469 Q1427.375,687.2969 1427.375,687.6406 Q1427.375,687.9844 1427.0313,688.3906 Q1426.5313,688.9688 1425.7344,689.2969 Q1424.6563,689.75 1423.3594,689.75 Q1421.8438,689.75 1420.6406,689.125 Q1419.6563,688.625 1418.9688,687.5625 Q1418.2813,686.4844 1418.2813,685.2031 L1418.2813,684.0469 Q1418.2813,682.7188 1418.8906,681.5781 Q1419.5156,680.4219 1420.6094,679.8125 Q1421.7031,679.1875 1422.9375,679.1875 Q1423.6719,679.1875 1424.3125,679.3594 Q1424.9688,679.5156 1425.5156,679.875 Z " fill="#000000"/><text fill="#000000" font-family="sans-serif" font-size="14" lengthAdjust="spacing" textLength="90" x="1443.25" y="689.7969">Advertisement</text><line style="stroke:#181818;stroke-width:0.5;" x1="1356" x2="1588" y1="700" y2="700"/><text fill="#000000" font-family="sans-serif" font-size="14" lengthAdjust="spacing" textLength="110" x="1361" y="719.1074">-Request request</text><text fill="#000000" font-family="sans-serif" font-size="14" lengthAdjust="spacing" textLength="67" x="1361" y="737.7285">-Date date</text><text fill="#000000" font-family="sans-serif" font-size="14" lengthAdjust="spacing" textLength="222" x="1361" y="756.3496">-CommissionType commissionType</text><text fill="#000000" font-family="sans-serif" font-size="14" lengthAdjust="spacing" textLength="161" x="1361" y="774.9707">-double commissionValue</text><text fill="#000000" font-family="sans-serif" font-size="14" lengthAdjust="spacing" textLength="221" x="1361" y="793.5918">CommissionType commissionType,</text><line style="stroke:#181818;stroke-width:0.5;" x1="1356" x2="1588" y1="801.1055" y2="801.1055"/><text fill="#000000" font-family="sans-serif" font-size="14" lengthAdjust="spacing" textLength="212" x="1361" y="820.2129">+Advertisement(Request request,</text><text fill="#000000" font-family="sans-serif" font-size="14" lengthAdjust="spacing" textLength="161" x="1361" y="838.834">double commissionValue)</text></g><!--class PersonRepository--><g id="elem_PersonRepository"><rect codeLine="194" fill="#F1F1F1" height="85.2422" id="PersonRepository" rx="2.5" ry="2.5" style="stroke:#181818;stroke-width:0.5;" width="276" x="1007" y="503.5"/><ellipse cx="1084.25" cy="519.5" fill="#ADD1B2" rx="11" ry="11" style="stroke:#181818;stroke-width:1.0;"/><path d="M1087.0156,515.375 Q1087.1719,515.1563 1087.3594,515.0469 Q1087.5469,514.9375 1087.7656,514.9375 Q1088.1406,514.9375 1088.375,515.2031 Q1088.6094,515.4531 1088.6094,516.0625 L1088.6094,517.5156 Q1088.6094,518.125 1088.375,518.3906 Q1088.1406,518.6563 1087.7656,518.6563 Q1087.4219,518.6563 1087.2188,518.4531 Q1087.0156,518.2656 1086.9063,517.75 Q1086.8594,517.3906 1086.6719,517.2031 Q1086.3438,516.8281 1085.7344,516.6094 Q1085.125,516.3906 1084.5,516.3906 Q1083.7344,516.3906 1083.0938,516.7188 Q1082.4688,517.0469 1081.9688,517.7969 Q1081.4844,518.5469 1081.4844,519.5781 L1081.4844,520.6719 Q1081.4844,521.9063 1082.375,522.7344 Q1083.2656,523.5469 1084.8594,523.5469 Q1085.7969,523.5469 1086.4531,523.2969 Q1086.8438,523.1406 1087.2656,522.7031 Q1087.5313,522.4375 1087.6719,522.3594 Q1087.8281,522.2813 1088.0313,522.2813 Q1088.3594,522.2813 1088.6094,522.5469 Q1088.875,522.7969 1088.875,523.1406 Q1088.875,523.4844 1088.5313,523.8906 Q1088.0313,524.4688 1087.2344,524.7969 Q1086.1563,525.25 1084.8594,525.25 Q1083.3438,525.25 1082.1406,524.625 Q1081.1563,524.125 1080.4688,523.0625 Q1079.7813,521.9844 1079.7813,520.7031 L1079.7813,519.5469 Q1079.7813,518.2188 1080.3906,517.0781 Q1081.0156,515.9219 1082.1094,515.3125 Q1083.2031,514.6875 1084.4375,514.6875 Q1085.1719,514.6875 1085.8125,514.8594 Q1086.4688,515.0156 1087.0156,515.375 Z " fill="#000000"/><text fill="#000000" font-family="sans-serif" font-size="14" lengthAdjust="spacing" textLength="113" x="1104.75" y="525.2969">PersonRepository</text><line style="stroke:#181818;stroke-width:0.5;" x1="1008" x2="1282" y1="535.5" y2="535.5"/><text fill="#000000" font-family="sans-serif" font-size="14" lengthAdjust="spacing" textLength="162" x="1013" y="554.6074">-List &lt;Person&gt; personList</text><line style="stroke:#181818;stroke-width:0.5;" x1="1008" x2="1282" y1="562.1211" y2="562.1211"/><text fill="#000000" font-family="sans-serif" font-size="14" lengthAdjust="spacing" textLength="264" x="1013" y="581.2285">+getPersonByEmail(String email) : Person</text></g><!--class RequestRepository--><g id="elem_RequestRepository"><rect codeLine="199" fill="#F1F1F1" height="103.8633" id="RequestRepository" rx="2.5" ry="2.5" style="stroke:#181818;stroke-width:0.5;" width="228" x="723" y="494"/><ellipse cx="772.25" cy="510" fill="#ADD1B2" rx="11" ry="11" style="stroke:#181818;stroke-width:1.0;"/><path d="M775.0156,505.875 Q775.1719,505.6563 775.3594,505.5469 Q775.5469,505.4375 775.7656,505.4375 Q776.1406,505.4375 776.375,505.7031 Q776.6094,505.9531 776.6094,506.5625 L776.6094,508.0156 Q776.6094,508.625 776.375,508.8906 Q776.1406,509.1563 775.7656,509.1563 Q775.4219,509.1563 775.2188,508.9531 Q775.0156,508.7656 774.9063,508.25 Q774.8594,507.8906 774.6719,507.7031 Q774.3438,507.3281 773.7344,507.1094 Q773.125,506.8906 772.5,506.8906 Q771.7344,506.8906 771.0938,507.2188 Q770.4688,507.5469 769.9688,508.2969 Q769.4844,509.0469 769.4844,510.0781 L769.4844,511.1719 Q769.4844,512.4063 770.375,513.2344 Q771.2656,514.0469 772.8594,514.0469 Q773.7969,514.0469 774.4531,513.7969 Q774.8438,513.6406 775.2656,513.2031 Q775.5313,512.9375 775.6719,512.8594 Q775.8281,512.7813 776.0313,512.7813 Q776.3594,512.7813 776.6094,513.0469 Q776.875,513.2969 776.875,513.6406 Q776.875,513.9844 776.5313,514.3906 Q776.0313,514.9688 775.2344,515.2969 Q774.1563,515.75 772.8594,515.75 Q771.3438,515.75 770.1406,515.125 Q769.1563,514.625 768.4688,513.5625 Q767.7813,512.4844 767.7813,511.2031 L767.7813,510.0469 Q767.7813,508.7188 768.3906,507.5781 Q769.0156,506.4219 770.1094,505.8125 Q771.2031,505.1875 772.4375,505.1875 Q773.1719,505.1875 773.8125,505.3594 Q774.4688,505.5156 775.0156,505.875 Z " fill="#000000"/><text fill="#000000" font-family="sans-serif" font-size="14" lengthAdjust="spacing" textLength="121" x="792.75" y="515.7969">RequestRepository</text><line style="stroke:#181818;stroke-width:0.5;" x1="724" x2="950" y1="526" y2="526"/><text fill="#000000" font-family="sans-serif" font-size="14" lengthAdjust="spacing" textLength="170" x="729" y="545.1074">-List&lt;Request&gt; requestList</text><line style="stroke:#181818;stroke-width:0.5;" x1="724" x2="950" y1="552.6211" y2="552.6211"/><text fill="#000000" font-family="sans-serif" font-size="14" lengthAdjust="spacing" textLength="216" x="729" y="571.7285">+getRequestList() : List&lt;Request&gt;</text><text fill="#000000" font-family="sans-serif" font-size="14" lengthAdjust="spacing" textLength="166" x="729" y="590.3496">+removeRequest(request)</text></g><!--class AdvertisementRepository--><g id="elem_AdvertisementRepository"><rect codeLine="205" fill="#F1F1F1" height="122.4844" id="AdvertisementRepository" rx="2.5" ry="2.5" style="stroke:#181818;stroke-width:0.5;" width="264" x="1340" y="485"/><ellipse cx="1388.75" cy="501" fill="#ADD1B2" rx="11" ry="11" style="stroke:#181818;stroke-width:1.0;"/><path d="M1391.5156,496.875 Q1391.6719,496.6563 1391.8594,496.5469 Q1392.0469,496.4375 1392.2656,496.4375 Q1392.6406,496.4375 1392.875,496.7031 Q1393.1094,496.9531 1393.1094,497.5625 L1393.1094,499.0156 Q1393.1094,499.625 1392.875,499.8906 Q1392.6406,500.1563 1392.2656,500.1563 Q1391.9219,500.1563 1391.7188,499.9531 Q1391.5156,499.7656 1391.4063,499.25 Q1391.3594,498.8906 1391.1719,498.7031 Q1390.8438,498.3281 1390.2344,498.1094 Q1389.625,497.8906 1389,497.8906 Q1388.2344,497.8906 1387.5938,498.2188 Q1386.9688,498.5469 1386.4688,499.2969 Q1385.9844,500.0469 1385.9844,501.0781 L1385.9844,502.1719 Q1385.9844,503.4063 1386.875,504.2344 Q1387.7656,505.0469 1389.3594,505.0469 Q1390.2969,505.0469 1390.9531,504.7969 Q1391.3438,504.6406 1391.7656,504.2031 Q1392.0313,503.9375 1392.1719,503.8594 Q1392.3281,503.7813 1392.5313,503.7813 Q1392.8594,503.7813 1393.1094,504.0469 Q1393.375,504.2969 1393.375,504.6406 Q1393.375,504.9844 1393.0313,505.3906 Q1392.5313,505.9688 1391.7344,506.2969 Q1390.6563,506.75 1389.3594,506.75 Q1387.8438,506.75 1386.6406,506.125 Q1385.6563,505.625 1384.9688,504.5625 Q1384.2813,503.4844 1384.2813,502.2031 L1384.2813,501.0469 Q1384.2813,499.7188 1384.8906,498.5781 Q1385.5156,497.4219 1386.6094,496.8125 Q1387.7031,496.1875 1388.9375,496.1875 Q1389.6719,496.1875 1390.3125,496.3594 Q1390.9688,496.5156 1391.5156,496.875 Z " fill="#000000"/><text fill="#000000" font-family="sans-serif" font-size="14" lengthAdjust="spacing" textLength="158" x="1409.25" y="506.7969">AdvertisementRepository</text><line style="stroke:#181818;stroke-width:0.5;" x1="1341" x2="1603" y1="517" y2="517"/><text fill="#000000" font-family="sans-serif" font-size="14" lengthAdjust="spacing" textLength="248" x="1346" y="536.1074">-List&lt;Advertisement&gt; advertisementList</text><text fill="#000000" font-family="sans-serif" font-size="14" lengthAdjust="spacing" textLength="221" x="1346" y="554.7285">CommissionType commissionType,</text><line style="stroke:#181818;stroke-width:0.5;" x1="1341" x2="1603" y1="562.2422" y2="562.2422"/><text fill="#000000" font-family="sans-serif" font-size="14" lengthAdjust="spacing" textLength="252" x="1346" y="581.3496">+createAdvertisement(Request request,</text><text fill="#000000" font-family="sans-serif" font-size="14" lengthAdjust="spacing" textLength="161" x="1346" y="599.9707">double commissionValue)</text></g><!--link ApplicationSession to UserSession--><g id="link_ApplicationSession_UserSession"><path codeLine="212" d="M1762,588.54 C1762,626.33 1762,681.62 1762,718.19 " fill="none" id="ApplicationSession-to-UserSession" style="stroke:#181818;stroke-width:1.0;"/><polygon fill="#181818" points="1762,723.44,1766,714.44,1762,718.44,1758,714.44,1762,723.44" style="stroke:#181818;stroke-width:1.0;"/><text fill="#000000" font-family="sans-serif" font-size="13" lengthAdjust="spacing" textLength="7" x="1754.3109" y="712.2537">1</text></g><!--link ListPropertyRequestsUI to ListPropertyRequestsController--><g id="link_ListPropertyRequestsUI_ListPropertyRequestsController"><path codeLine="214" d="M1101.19,96 C1127.56,96 1156.32,96 1185.15,96 " fill="none" id="ListPropertyRequestsUI-to-ListPropertyRequestsController" style="stroke:#181818;stroke-width:1.0;stroke-dasharray:7.0,7.0;"/><polygon fill="#181818" points="1190.15,96,1181.15,92,1185.15,96,1181.15,100,1190.15,96" style="stroke:#181818;stroke-width:1.0;"/><text fill="#000000" font-family="sans-serif" font-size="13" lengthAdjust="spacing" textLength="53" x="1119.25" y="89.0283">controller</text></g><!--link ListPropertyRequestsController to Repositories--><g id="link_ListPropertyRequestsController_Repositories"><path codeLine="216" d="M1270.93,185.12 C1236.98,209.82 1200.22,236.58 1166.78,260.92 " fill="none" id="ListPropertyRequestsController-to-Repositories" style="stroke:#181818;stroke-width:1.0;stroke-dasharray:7.0,7.0;"/><polygon fill="#181818" points="1162.71,263.88,1172.3404,261.8174,1166.7524,260.9374,1167.6324,255.3494,1162.71,263.88" style="stroke:#181818;stroke-width:1.0;"/><text fill="#000000" font-family="sans-serif" font-size="13" lengthAdjust="spacing" textLength="67" x="1224" y="230.0283">repositories</text></g><!--link ListPropertyRequestsController to ApplicationSession--><g id="link_ListPropertyRequestsController_ApplicationSession"><path codeLine="217" d="M1530.82,185.15 C1594.04,225.29 1655,264 1655,264 C1655,264 1713.92,418.73 1744.31,498.56 " fill="none" id="ListPropertyRequestsController-to-ApplicationSession" style="stroke:#181818;stroke-width:1.0;stroke-dasharray:7.0,7.0;"/><polygon fill="#181818" points="1746.1,503.23,1746.649,493.3965,1744.3272,498.5548,1739.1688,496.233,1746.1,503.23" style="stroke:#181818;stroke-width:1.0;"/></g><!--link ListPropertyRequestsController to PersonRepository--><g id="link_ListPropertyRequestsController_PersonRepository"><path codeLine="218" d="M1377.73,185.06 C1362.03,281.91 1339,424 1339,424 C1339,424 1271.45,466.13 1216.07,500.68 " fill="none" id="ListPropertyRequestsController-to-PersonRepository" style="stroke:#181818;stroke-width:1.0;stroke-dasharray:7.0,7.0;"/><polygon fill="#181818" points="1211.76,503.36,1221.5141,501.9968,1216.004,500.7164,1217.2843,495.2064,1211.76,503.36" style="stroke:#181818;stroke-width:1.0;"/><text fill="#000000" font-family="sans-serif" font-size="13" lengthAdjust="spacing" textLength="101" x="1366" y="349.5283">personRepository</text></g><!--link ListPropertyRequestsController to RequestRepository--><g id="link_ListPropertyRequestsController_RequestRepository"><path codeLine="219" d="M1190.35,161.76 C1149.1,175.01 1118,185 1118,185 C1118,185 740,264 740,264 C740,264 740,424 740,424 C740,424 766.95,457.62 792.44,489.42 " fill="none" id="ListPropertyRequestsController-to-RequestRepository" style="stroke:#181818;stroke-width:1.0;stroke-dasharray:7.0,7.0;"/><polygon fill="#181818" points="795.86,493.69,793.3485,484.1668,792.7313,489.7898,787.1082,489.1727,795.86,493.69" style="stroke:#181818;stroke-width:1.0;"/><text fill="#000000" font-family="sans-serif" font-size="13" lengthAdjust="spacing" textLength="105" x="741" y="349.5283">requestRepository</text></g><!--link ListPropertyRequestsController to AdvertisementRepository--><g id="link_ListPropertyRequestsController_AdvertisementRepository"><path codeLine="220" d="M1450.75,185.39 C1477.38,225.45 1503,264 1503,264 C1503,264 1503,424 1503,424 C1503,424 1496.02,451.24 1488.68,479.88 " fill="none" id="ListPropertyRequestsController-to-AdvertisementRepository" style="stroke:#181818;stroke-width:1.0;stroke-dasharray:7.0,7.0;"/><polygon fill="#181818" points="1487.41,484.85,1493.5162,477.1225,1488.6495,480.0061,1485.7659,475.1393,1487.41,484.85" style="stroke:#181818;stroke-width:1.0;"/><text fill="#000000" font-family="sans-serif" font-size="13" lengthAdjust="spacing" textLength="142" x="1504" y="349.5283">advertisementRepository</text></g><!--link Repositories to Repositories--><g id="link_Repositories_Repositories"><path codeLine="222" d="M1243.16,326.59 C1264.31,329.87 1278,335.67 1278,344 C1278,351.61 1266.57,357.11 1248.44,360.51 " fill="none" id="Repositories-to-Repositories" style="stroke:#181818;stroke-width:1.0;"/><polygon fill="#181818" points="1243.16,361.41,1252.7055,363.8357,1248.0885,360.5672,1251.3569,355.9501,1243.16,361.41" style="stroke:#181818;stroke-width:1.0;"/><text fill="#000000" font-family="sans-serif" font-size="13" lengthAdjust="spacing" textLength="49" x="1284" y="349.5283">instance</text></g><!--link Repositories to PersonRepository--><g id="link_Repositories_PersonRepository"><path codeLine="223" d="M1089.97,424.05 C1101.47,449.33 1113.82,476.48 1123.9,498.64 " fill="none" id="Repositories-to-PersonRepository" style="stroke:#181818;stroke-width:1.0;"/><polygon fill="#181818" points="1126.02,503.29,1125.9256,493.4416,1123.9456,498.7406,1118.6466,496.7606,1126.02,503.29" style="stroke:#181818;stroke-width:1.0;"/><text fill="#000000" font-family="sans-serif" font-size="13" lengthAdjust="spacing" textLength="7" x="1115.4373" y="492.1606">1</text></g><!--link Repositories to RequestRepository--><g id="link_Repositories_RequestRepository"><path codeLine="224" d="M968.24,424.05 C944.16,446.24 918.52,469.87 896.35,490.3 " fill="none" id="Repositories-to-RequestRepository" style="stroke:#181818;stroke-width:1.0;"/><polygon fill="#181818" points="892.54,493.82,901.8679,490.6592,896.2157,490.4304,896.4445,484.7782,892.54,493.82" style="stroke:#181818;stroke-width:1.0;"/><text fill="#000000" font-family="sans-serif" font-size="13" lengthAdjust="spacing" textLength="7" x="892.5329" y="482.7232">1</text></g><!--link Repositories to AdvertisementRepository--><g id="link_Repositories_AdvertisementRepository"><path codeLine="225" d="M1219.2,424.05 C1259.88,443.51 1302.88,464.08 1341.65,482.63 " fill="none" id="Repositories-to-AdvertisementRepository" style="stroke:#181818;stroke-width:1.0;"/><polygon fill="#181818" points="1346.35,484.88,1339.9541,477.3905,1341.8386,482.7242,1336.5049,484.6087,1346.35,484.88" style="stroke:#181818;stroke-width:1.0;"/><text fill="#000000" font-family="sans-serif" font-size="13" lengthAdjust="spacing" textLength="7" x="1325.2242" y="474.2831">1</text></g><!--link RequestRepository to Request--><g id="link_RequestRepository_Request"><path codeLine="227" d="M837,598.31 C837,673.27 837,814.28 837,911.12 " fill="none" id="RequestRepository-to-Request" style="stroke:#181818;stroke-width:1.0;"/><polygon fill="#181818" points="837,916.27,841,907.27,837,911.27,833,907.27,837,916.27" style="stroke:#181818;stroke-width:1.0;"/><text fill="#000000" font-family="sans-serif" font-size="13" lengthAdjust="spacing" textLength="5" x="831.8086" y="905.1009">*</text></g><!--link AdvertisementRepository to Advertisement--><g id="link_AdvertisementRepository_Advertisement"><path codeLine="228" d="M1472,607.17 C1472,624.48 1472,643.77 1472,662.59 " fill="none" id="AdvertisementRepository-to-Advertisement" style="stroke:#181818;stroke-width:1.0;"/><polygon fill="#181818" points="1472,667.88,1476,658.88,1472,662.88,1468,658.88,1472,667.88" style="stroke:#181818;stroke-width:1.0;"/><text fill="#000000" font-family="sans-serif" font-size="13" lengthAdjust="spacing" textLength="5" x="1466.793" y="656.8218">*</text></g><!--reverse link Person to Employee--><g id="link_Person_Employee"><path codeLine="230" d="M1363.18,1139.78 C1387.3,1174.03 1407,1202 1407,1202 C1407,1202 1441.5,1298.33 1460.23,1350.63 " fill="none" id="Person-backto-Employee" style="stroke:#181818;stroke-width:1.0;"/><polygon fill="none" points="1357.24,1143.5,1351.44,1123.12,1368.68,1135.44,1357.24,1143.5" style="stroke:#181818;stroke-width:1.0;"/></g><!--reverse link Location to Land--><g id="link_Location_Land"><path codeLine="232" d="M921.54,1585.81 C937.81,1623.03 954.12,1660.35 968.28,1692.74 " fill="none" id="Location-backto-Land" style="stroke:#181818;stroke-width:1.0;stroke-dasharray:7.0,7.0;"/><polygon fill="none" points="915.03,1588.4,913.44,1567.27,927.86,1582.79,915.03,1588.4" style="stroke:#181818;stroke-width:1.0;"/></g><!--reverse link Location to Apartment--><g id="link_Location_Apartment"><path codeLine="233" d="M815.57,1587.2 C813.45,1610.44 811.33,1633.7 809.31,1655.74 " fill="none" id="Location-backto-Apartment" style="stroke:#181818;stroke-width:1.0;stroke-dasharray:7.0,7.0;"/><polygon fill="none" points="808.6,1586.55,817.39,1567.27,822.55,1587.82,808.6,1586.55" style="stroke:#181818;stroke-width:1.0;"/></g><!--reverse link Location to House--><g id="link_Location_House"><path codeLine="234" d="M984.56,1561.8 C987.41,1565.14 989,1567 989,1567 C989,1567 1116,1628 1116,1628 C1116,1628 1123.44,1638.8 1134.49,1654.83 " fill="none" id="Location-backto-House" style="stroke:#181818;stroke-width:1.0;stroke-dasharray:7.0,7.0;"/><polygon fill="none" points="979.19,1566.29,971.52,1546.53,989.83,1557.2,979.19,1566.29" style="stroke:#181818;stroke-width:1.0;"/></g><!--reverse link Property to Land--><g id="link_Property_Land"><path codeLine="236" d="M1144.5,1501.37 C1116.55,1561.89 1082.73,1635.14 1056.12,1692.77 " fill="none" id="Property-backto-Land" style="stroke:#181818;stroke-width:1.0;stroke-dasharray:7.0,7.0;"/><polygon fill="none" points="1138.23,1498.25,1152.97,1483.02,1150.94,1504.12,1138.23,1498.25" style="stroke:#181818;stroke-width:1.0;"/></g><!--reverse link Property to Apartment--><g id="link_Property_Apartment"><path codeLine="237" d="M1070.31,1496.39 C1026.84,1534.14 989,1567 989,1567 C989,1567 905,1628 905,1628 C905,1628 897.49,1639.3 886.43,1655.93 " fill="none" id="Property-backto-Apartment" style="stroke:#181818;stroke-width:1.0;stroke-dasharray:7.0,7.0;"/><polygon fill="none" points="1065.86,1490.99,1085.55,1483.16,1075.04,1501.56,1065.86,1490.99" style="stroke:#181818;stroke-width:1.0;"/></g><!--reverse link Property to House--><g id="link_Property_House"><path codeLine="238" d="M1206.72,1503.17 C1209.6,1542.1 1212.86,1586.14 1215.95,1627.83 " fill="none" id="Property-backto-House" style="stroke:#181818;stroke-width:1.0;stroke-dasharray:7.0,7.0;"/><polygon fill="none" points="1199.72,1503.49,1205.22,1483.02,1213.68,1502.45,1199.72,1503.49" style="stroke:#181818;stroke-width:1.0;"/></g><!--reverse link Request to RequestLease--><g id="link_Request_RequestLease"><path codeLine="240" d="M602.09,1087.05 C428.43,1139.57 222,1202 222,1202 C222,1202 191.86,1249.16 162.3,1295.41 " fill="none" id="Request-backto-RequestLease" style="stroke:#181818;stroke-width:1.0;stroke-dasharray:7.0,7.0;"/><polygon fill="none" points="600.3,1080.27,621.47,1081.18,604.35,1093.67,600.3,1080.27" style="stroke:#181818;stroke-width:1.0;"/></g><!--reverse link Request to RequestSale--><g id="link_Request_RequestSale"><path codeLine="241" d="M740.98,1129.03 C707.9,1167.98 679,1202 679,1202 C679,1202 644.51,1255.51 612.98,1304.42 " fill="none" id="Request-backto-RequestSale" style="stroke:#181818;stroke-width:1.0;stroke-dasharray:7.0,7.0;"/><polygon fill="none" points="735.78,1124.34,754.07,1113.63,746.45,1133.4,735.78,1124.34" style="stroke:#181818;stroke-width:1.0;"/></g><!--link House to SunExposure--><g id="link_House_SunExposure"><path codeLine="243" d="M1228,1955.04 C1228,1975.07 1228,1994.12 1228,2010.25 " fill="none" id="House-to-SunExposure" style="stroke:#181818;stroke-width:1.0;"/><polygon fill="#181818" points="1228,2015.6,1232,2006.6,1228,2010.6,1224,2006.6,1228,2015.6" style="stroke:#181818;stroke-width:1.0;"/><text fill="#000000" font-family="sans-serif" font-size="13" lengthAdjust="spacing" textLength="22" x="1204.3156" y="2004.7614">0..1</text></g><!--link Request to BusinessType--><g id="link_Request_BusinessType"><path codeLine="245" d="M631.24,1113.63 C536.6,1158.54 445,1202 445,1202 C445,1202 395.08,1283.62 362.2,1337.39 " fill="none" id="Request-to-BusinessType" style="stroke:#181818;stroke-width:1.0;"/><polygon fill="#181818" points="359.47,1341.86,367.58,1336.2717,362.0801,1337.5954,360.7565,1332.0955,359.47,1341.86" style="stroke:#181818;stroke-width:1.0;"/><text fill="#000000" font-family="sans-serif" font-size="13" lengthAdjust="spacing" textLength="7" x="355.9715" y="1330.7418">1</text></g><!--link Request to Property--><g id="link_Request_Property"><path codeLine="246" d="M932.79,1113.52 C983.89,1165.54 1046.7,1229.48 1098.37,1282.08 " fill="none" id="Request-to-Property" style="stroke:#181818;stroke-width:1.0;"/><polygon fill="#181818" points="1102.07,1285.85,1098.6275,1276.6224,1098.5704,1282.2789,1092.9138,1282.2218,1102.07,1285.85" style="stroke:#181818;stroke-width:1.0;"/><text fill="#000000" font-family="sans-serif" font-size="13" lengthAdjust="spacing" textLength="7" x="1087.4574" y="1274.687">1</text></g><!--link Advertisement to Request--><g id="link_Advertisement_Request"><path codeLine="248" d="M1354.79,805.25 C1271.63,838.78 1157.48,884.8 1057.52,925.1 " fill="none" id="Advertisement-to-Request" style="stroke:#181818;stroke-width:1.0;"/><polygon fill="#181818" points="1052.77,927.01,1062.6128,927.3553,1057.4074,925.1408,1059.622,919.9354,1052.77,927.01" style="stroke:#181818;stroke-width:1.0;"/><text fill="#000000" font-family="sans-serif" font-size="13" lengthAdjust="spacing" textLength="7" x="1060.65" y="920.5765">1</text></g><!--link Advertisement to CommissionType--><g id="link_Advertisement_CommissionType"><path codeLine="249" d="M1535.32,846.1 C1564.89,887.24 1598.85,934.49 1623.2,968.36 " fill="none" id="Advertisement-to-CommissionType" style="stroke:#181818;stroke-width:1.0;"/><polygon fill="#181818" points="1626.12,972.42,1624.0958,962.7814,1623.1936,968.3659,1617.6091,967.4637,1626.12,972.42" style="stroke:#181818;stroke-width:1.0;"/><text fill="#000000" font-family="sans-serif" font-size="13" lengthAdjust="spacing" textLength="7" x="1613.8001" y="961.3113">1</text></g><!--reverse link Advertisement to Employee--><g id="link_Advertisement_Employee"><path codeLine="251" d="M1472,851.31 C1472,993.7 1472,1258.42 1472,1350.73 " fill="none" id="Advertisement-backto-Employee" style="stroke:#181818;stroke-width:1.0;"/><polygon fill="#181818" points="1472,846.29,1468,855.29,1472,851.29,1476,855.29,1472,846.29" style="stroke:#181818;stroke-width:1.0;"/><text fill="#000000" font-family="sans-serif" font-size="13" lengthAdjust="spacing" textLength="43" x="1473" y="1020.5283">creates</text></g><!--link Employee to Request--><g id="link_Employee_Request"><path codeLine="252" d="M1460.23,1350.63 C1441.5,1298.33 1407,1202 1407,1202 C1407,1202 1133,1123 1133,1123 C1133,1123 1100.62,1111.3 1057.29,1095.63 " fill="none" id="Employee-to-Request" style="stroke:#181818;stroke-width:1.0;"/><polygon fill="#181818" points="1052.51,1093.9,1059.6128,1100.7227,1057.2119,1095.6007,1062.3339,1093.1997,1052.51,1093.9" style="stroke:#181818;stroke-width:1.0;"/><text fill="#000000" font-family="sans-serif" font-size="13" lengthAdjust="spacing" textLength="51" x="1304" y="1168.0283">approves</text></g><!--link Request to Person--><g id="link_Request_Person"><path codeLine="253" d="M1052.64,1015 C1084.31,1015 1116.09,1015 1145.33,1015 " fill="none" id="Request-to-Person" style="stroke:#181818;stroke-width:1.0;"/><polygon fill="#181818" points="1150.38,1015,1141.38,1011,1145.38,1015,1141.38,1019,1150.38,1015" style="stroke:#181818;stroke-width:1.0;"/><text fill="#000000" font-family="sans-serif" font-size="13" lengthAdjust="spacing" textLength="61" x="1071" y="1008.0283">created by</text></g><!--SRC=[xLXBRnit43vxVmMHazHAGdeL307oewY1e36if8VUg5rA8hoxt91SfqhJ_zuXb-_bscw052XGNopE36S-VYHdE2iUQTjXZXlKuV8H7ybEdck2E2abReyrAOGp42TSiS-qFQ83haMegMbBvBaZg6FrMGsAG5dMM8Yjb9pkUqdkIjRkw1U2tXQ5rg1tLCXxpZh2vVc1VEg9aEBZ7Vgpk5YYswQhsPaG1C1QgIJ60W3g_qga75mQ-SOgb50fhrdJK24eQpyeW6KqL0OLw_TrgFWDrxtMRAidm4G5QI0smk6ekFWHNNE29ScZdysBlvvRtpLh9MTrJJYi4y7VS-wyCRWTZ8z4RXKZFtFMx8Y6FPkZjUDBuGER1y-5LaTCULSnHzuobc-KKquQzaIC2nNzWNHCKCduUMQOjnXnrt5lEqisRZ51_AAuU7RB5BXeOmhFzBRhQbfY2QQ65CUka20krMBlMlZTbYJayhhd75mv9htBZuBmr1TCKEBGpB50YJ1sorX8JTYCpY699godmDuJBbWRyAueIONUtF2Us8-amS4AsKscJUWy4GCEHy4ERZta2z9WMiUY5ZUM2mgtguF97UCo44dQXWOdrf9V-sPFk84wX9g58HRQjAGI4anxTxFGbiRN8dMp2A6C-9r5dZp58xjR5NW87rWvGbm6IoY12qsK5Mdx1ktwzlOF8BFd8xkAY9BJJfrf7pgmrzios2ftW9hm0ou9UiU6cn0UMx0ZH8PJdEftscNbExWu9AkvflASLTn0xk2qpCUniCPAuV2PfGizcdkrmcXqNsWt3-Sfa6uQ30AbncbqiA7dGEMGMhBDE31nU2DGxkm0Zk6KXS6TLeLpWzJv4wvf1TRvLLbj6by5H36MRunV6yyVs62GxaXyd6nHKdLvI1DGh_IK8OyRgM9qI5YfnZfm9SQ4CjeJa-p8SNSIlluC5hhkM3giboq_zYe7YLde5tN1OE35L1aCQ5t9gGp8HHH6vGQBOUvYHh0dOod8UmPN6hSHMkLHp2QZ1BFySm6tLPe4zAx68hMrIQOm-vjELMSabi4PCeA0dLXYAJBIgHM4jHTpgHzA_ndilhYqkY1SaOeprcGKM9xocdlC7-rzSH3n4zG234XkF_MqqsyKHzClh1VaVueo50rwSntG7flNNIoksS4jDgYPmlzsDVMg5z282A7lwckAQZXXighQLsnGL6rI6DvXPl2oMsVm_dEh7fEP5uP-uiVlUbzaRLc-iMV7fntxv7OvswQgHSpAFXWCsT8ytvY2j4YwBvi-LwiLdAXZbBs6-D3Q7IXleXLF1fndSfy1liErtp9pOWN8xk7ysoEhbeqgVsycunZzY0iZTsia8SLBoqINFETiHqMm645KBGIkGv3g5bGzrsNs_K7tSTZTu7zz1VfQ9CtLQov6fZtqLyDa_wXLzWrGtAldr_ryXnund3Rf0yGe-AZFr4RFne2MC-z_dlOrlkDnQrIf4rqEweqXMtzxIFg4gxDk5A9s9TSlZ1gpA5B-CqVQwqtq-sdxxXls_3vEOOYCDl67aG1FgJzeVD_DoNJyo-K6lVdfJTYv5yN4DwRLvgMlCskLrCmWxoOm1dT92y-3uOkpLp1_lA1NJHiTpxKvYa6F_Xe_uzEtjdlr3prDdQHrV5u2hqN4dTh6X4pt2MLagFPxz0KaQpN-xf4rsqvZJ0dIKtvmdekfXLkxvEELoTANNvS-ayD1iytxvLUejgebI4JkkPt8zViIlDfQuUV78Zy_bflvzfvgMLZpiXfLhujYUDhgPRvThO34u8NcFLg6msetKhfNLCnckeiJsZYVf3ukFSzhawD4uMheqjq1TLA7BvZ2uxCt3Tcf5Te3ohy1]--></g></svg>