<?xml version="1.0" encoding="us-ascii" standalone="no"?><svg xmlns="http://www.w3.org/2000/svg" xmlns:xlink="http://www.w3.org/1999/xlink" contentStyleType="text/css" height="388px" preserveAspectRatio="none" style="width:358px;height:388px;background:#FFFFFF;" version="1.1" viewBox="0 0 358 388" width="358px" zoomAndPan="magnify"><defs/><g><text fill="#000000" font-family="sans-serif" font-size="14" font-weight="bold" lengthAdjust="spacing" textLength="228" x="64" y="27.6738">System Sequence Diagram (SSD)</text><rect fill="#FFFFFF" height="163.1406" style="stroke:#181818;stroke-width:1.0;" width="10" x="21" y="127.2813"/><rect fill="#FFFFFF" height="28.5234" style="stroke:#181818;stroke-width:1.0;" width="10" x="315" y="147.8047"/><rect fill="#FFFFFF" height="28.5234" style="stroke:#181818;stroke-width:1.0;" width="10" x="315" y="204.8516"/><rect fill="#FFFFFF" height="28.5234" style="stroke:#181818;stroke-width:1.0;" width="10" x="315" y="261.8984"/><line style="stroke:#181818;stroke-width:0.5;stroke-dasharray:5.0,5.0;" x1="26" x2="26" y1="117.2813" y2="308.4219"/><line style="stroke:#181818;stroke-width:0.5;stroke-dasharray:5.0,5.0;" x1="320" x2="320" y1="117.2813" y2="308.4219"/><text fill="#000000" font-family="sans-serif" font-size="14" lengthAdjust="spacing" textLength="36" x="5" y="114.3145">Client</text><ellipse cx="26" cy="50.1406" fill="#E3E3E3" rx="8" ry="8" style="stroke:#181818;stroke-width:0.5;"/><path d="M26,58.1406 L26,85.1406 M13,66.1406 L39,66.1406 M26,85.1406 L13,100.1406 M26,85.1406 L39,100.1406 " fill="none" style="stroke:#181818;stroke-width:0.5;"/><text fill="#000000" font-family="sans-serif" font-size="14" lengthAdjust="spacing" textLength="36" x="5" y="320.0957">Client</text><ellipse cx="26" cy="331.5625" fill="#E3E3E3" rx="8" ry="8" style="stroke:#181818;stroke-width:0.5;"/><path d="M26,339.5625 L26,366.5625 M13,347.5625 L39,347.5625 M26,366.5625 L13,381.5625 M26,366.5625 L39,381.5625 " fill="none" style="stroke:#181818;stroke-width:0.5;"/><rect fill="#E3E3E3" height="29.6406" rx="2.5" ry="2.5" style="stroke:#181818;stroke-width:0.5;" width="64" x="288" y="86.6406"/><text fill="#000000" font-family="sans-serif" font-size="14" lengthAdjust="spacing" textLength="50" x="295" y="106.3145">:System</text><rect fill="#E3E3E3" height="29.6406" rx="2.5" ry="2.5" style="stroke:#181818;stroke-width:0.5;" width="64" x="288" y="307.4219"/><text fill="#000000" font-family="sans-serif" font-size="14" lengthAdjust="spacing" textLength="50" x="295" y="327.0957">:System</text><rect fill="#FFFFFF" height="163.1406" style="stroke:#181818;stroke-width:1.0;" width="10" x="21" y="127.2813"/><rect fill="#FFFFFF" height="28.5234" style="stroke:#181818;stroke-width:1.0;" width="10" x="315" y="147.8047"/><rect fill="#FFFFFF" height="28.5234" style="stroke:#181818;stroke-width:1.0;" width="10" x="315" y="204.8516"/><rect fill="#FFFFFF" height="28.5234" style="stroke:#181818;stroke-width:1.0;" width="10" x="315" y="261.8984"/><polygon fill="#181818" points="303,143.8047,313,147.8047,303,151.8047,307,147.8047" style="stroke:#181818;stroke-width:1.0;"/><line style="stroke:#181818;stroke-width:1.0;" x1="31" x2="309" y1="147.8047" y2="147.8047"/><text fill="#000000" font-family="sans-serif" font-size="13" font-weight="bold" lengthAdjust="spacing" textLength="7" x="38" y="143.0498">1</text><text fill="#000000" font-family="sans-serif" font-size="13" lengthAdjust="spacing" textLength="136" x="49" y="143.0498">asks to schedule a visit</text><polygon fill="#181818" points="42,172.3281,32,176.3281,42,180.3281,38,176.3281" style="stroke:#181818;stroke-width:1.0;"/><line style="stroke:#181818;stroke-width:1.0;stroke-dasharray:2.0,2.0;" x1="36" x2="319" y1="176.3281" y2="176.3281"/><text fill="#000000" font-family="sans-serif" font-size="13" font-weight="bold" lengthAdjust="spacing" textLength="7" x="48" y="171.5732">2</text><text fill="#000000" font-family="sans-serif" font-size="13" lengthAdjust="spacing" textLength="249" x="59" y="171.5732">initiate process, asks to chosse a Property</text><polygon fill="#181818" points="303,200.8516,313,204.8516,303,208.8516,307,204.8516" style="stroke:#181818;stroke-width:1.0;"/><line style="stroke:#181818;stroke-width:1.0;" x1="31" x2="309" y1="204.8516" y2="204.8516"/><text fill="#000000" font-family="sans-serif" font-size="13" font-weight="bold" lengthAdjust="spacing" textLength="7" x="38" y="200.0967">3</text><text fill="#000000" font-family="sans-serif" font-size="13" lengthAdjust="spacing" textLength="115" x="49" y="200.0967">selects the property</text><polygon fill="#181818" points="42,229.375,32,233.375,42,237.375,38,233.375" style="stroke:#181818;stroke-width:1.0;"/><line style="stroke:#181818;stroke-width:1.0;stroke-dasharray:2.0,2.0;" x1="36" x2="319" y1="233.375" y2="233.375"/><text fill="#000000" font-family="sans-serif" font-size="13" font-weight="bold" lengthAdjust="spacing" textLength="7" x="48" y="228.6201">4</text><text fill="#000000" font-family="sans-serif" font-size="13" lengthAdjust="spacing" textLength="207" x="59" y="228.6201">requests data: date and hour to visit</text><polygon fill="#181818" points="303,257.8984,313,261.8984,303,265.8984,307,261.8984" style="stroke:#181818;stroke-width:1.0;"/><line style="stroke:#181818;stroke-width:1.0;" x1="31" x2="309" y1="261.8984" y2="261.8984"/><text fill="#000000" font-family="sans-serif" font-size="13" font-weight="bold" lengthAdjust="spacing" textLength="7" x="38" y="257.1436">5</text><text fill="#000000" font-family="sans-serif" font-size="13" lengthAdjust="spacing" textLength="185" x="49" y="257.1436">input data: date and hour to visit</text><polygon fill="#181818" points="37,286.4219,27,290.4219,37,294.4219,33,290.4219" style="stroke:#181818;stroke-width:1.0;"/><line style="stroke:#181818;stroke-width:1.0;" x1="31" x2="319" y1="290.4219" y2="290.4219"/><text fill="#000000" font-family="sans-serif" font-size="13" font-weight="bold" lengthAdjust="spacing" textLength="7" x="43" y="285.667">6</text><text fill="#000000" font-family="sans-serif" font-size="13" lengthAdjust="spacing" textLength="203" x="54" y="285.667">shows confimation of schedule visit</text><!--SRC=[ZPB1JiCm38RFv2ciNG29lK0FNDW385LmDwdNHclZ4hkRzlOuBIsRLedb44Nr_t_-6qSE8VQOi8EE8_icSKUWQI0dIwL7Vy2QIZst18cyOgpRIu4qMF4fn1hss0evfq5DMfv5gOEIlWUAdc0NiCxofxBSFJk7Wt8SkYzApZs-jO6YGkaRgWRpVWO92c0ghvnWCzKtW08VOWvhhC677isqAQPEOtKwZhvmHAL9xi1MFi7sTSvLcFmWe0moTqKuvhwZEgy5CbCVyjTV_zPG8x88CMZ8iZwn9v6NXUmR5idSzyGz9Jqlw8fkuAiPXLgxSOCr8_uQiefOZMXpioc8WIfKBF9kiM853Gyf9xt-yTjqSsKzfRs4GUz3_vjvYImDdmGyntteK0D7uFtVhEuFV56R7iCF]--></g></svg>