<?xml version="1.0" encoding="us-ascii" standalone="no"?><svg xmlns="http://www.w3.org/2000/svg" xmlns:xlink="http://www.w3.org/1999/xlink" contentStyleType="text/css" height="1599px" preserveAspectRatio="none" style="width:575px;height:1599px;background:#FFFFFF;" version="1.1" viewBox="0 0 575 1599" width="575px" zoomAndPan="magnify"><defs/><g><!--entity unregisteredUser--><g id="elem_unregisteredUser"><ellipse cx="72.5" cy="1483.5" fill="#F1F1F1" rx="8" ry="8" style="stroke:#181818;stroke-width:0.5;"/><path d="M72.5,1491.5 L72.5,1518.5 M59.5,1499.5 L85.5,1499.5 M72.5,1518.5 L59.5,1533.5 M72.5,1518.5 L85.5,1533.5 " fill="none" style="stroke:#181818;stroke-width:0.5;"/><text fill="#000000" font-family="sans-serif" font-size="14" lengthAdjust="spacing" textLength="114" x="15.5" y="1550.1074">Unregistered User</text></g><!--entity Owner--><g id="elem_Owner"><ellipse cx="72.5" cy="1339.5" fill="#F1F1F1" rx="8" ry="8" style="stroke:#181818;stroke-width:0.5;"/><path d="M72.5,1347.5 L72.5,1374.5 M59.5,1355.5 L85.5,1355.5 M72.5,1374.5 L59.5,1389.5 M72.5,1374.5 L85.5,1389.5 " fill="none" style="stroke:#181818;stroke-width:0.5;"/><text fill="#000000" font-family="sans-serif" font-size="14" lengthAdjust="spacing" textLength="41" x="52" y="1406.1074">Owner</text></g><!--entity Client--><g id="elem_Client"><ellipse cx="72.5" cy="1177.5" fill="#F1F1F1" rx="8" ry="8" style="stroke:#181818;stroke-width:0.5;"/><path d="M72.5,1185.5 L72.5,1212.5 M59.5,1193.5 L85.5,1193.5 M72.5,1212.5 L59.5,1227.5 M72.5,1212.5 L85.5,1227.5 " fill="none" style="stroke:#181818;stroke-width:0.5;"/><text fill="#000000" font-family="sans-serif" font-size="14" lengthAdjust="spacing" textLength="36" x="54.5" y="1244.1074">Client</text></g><!--entity Agent--><g id="elem_Agent"><ellipse cx="72.5" cy="837.5" fill="#F1F1F1" rx="8" ry="8" style="stroke:#181818;stroke-width:0.5;"/><path d="M72.5,845.5 L72.5,872.5 M59.5,853.5 L85.5,853.5 M72.5,872.5 L59.5,887.5 M72.5,872.5 L85.5,887.5 " fill="none" style="stroke:#181818;stroke-width:0.5;"/><text fill="#000000" font-family="sans-serif" font-size="14" lengthAdjust="spacing" textLength="37" x="54" y="904.1074">Agent</text></g><!--entity storeManager--><g id="elem_storeManager"><ellipse cx="72.5" cy="552.5" fill="#F1F1F1" rx="8" ry="8" style="stroke:#181818;stroke-width:0.5;"/><path d="M72.5,560.5 L72.5,587.5 M59.5,568.5 L85.5,568.5 M72.5,587.5 L59.5,602.5 M72.5,587.5 L85.5,602.5 " fill="none" style="stroke:#181818;stroke-width:0.5;"/><text fill="#000000" font-family="sans-serif" font-size="14" lengthAdjust="spacing" textLength="94" x="25.5" y="619.1074">Store Manager</text></g><!--entity networkManager--><g id="elem_networkManager"><ellipse cx="72.5" cy="398.5" fill="#F1F1F1" rx="8" ry="8" style="stroke:#181818;stroke-width:0.5;"/><path d="M72.5,406.5 L72.5,433.5 M59.5,414.5 L85.5,414.5 M72.5,433.5 L59.5,448.5 M72.5,433.5 L85.5,448.5 " fill="none" style="stroke:#181818;stroke-width:0.5;"/><text fill="#000000" font-family="sans-serif" font-size="14" lengthAdjust="spacing" textLength="110" x="17.5" y="465.1074">Network Manager</text></g><!--entity systemAdministrator--><g id="elem_systemAdministrator"><ellipse cx="72.5" cy="120.5" fill="#F1F1F1" rx="8" ry="8" style="stroke:#181818;stroke-width:0.5;"/><path d="M72.5,128.5 L72.5,155.5 M59.5,136.5 L85.5,136.5 M72.5,155.5 L59.5,170.5 M72.5,155.5 L85.5,170.5 " fill="none" style="stroke:#181818;stroke-width:0.5;"/><text fill="#000000" font-family="sans-serif" font-size="14" lengthAdjust="spacing" textLength="133" x="6" y="187.1074">System Administrator</text></g><g id="elem_UC1"><ellipse cx="383.7711" cy="1488.4542" fill="#F1F1F1" rx="95.2711" ry="21.4542" style="stroke:#181818;stroke-width:0.5;"/><text fill="#000000" font-family="sans-serif" font-size="14" lengthAdjust="spacing" textLength="147" x="307.6672" y="1493.1405">UC1 - List of Properties</text></g><g id="elem_UC2"><ellipse cx="384.1018" cy="675.7204" fill="#F1F1F1" rx="126.6018" ry="27.7204" style="stroke:#181818;stroke-width:0.5;"/><text fill="#000000" font-family="sans-serif" font-size="14" lengthAdjust="spacing" textLength="217" x="275.6018" y="679.5172">UC2 - Publish Sale Announcement</text></g><g id="elem_UC3"><ellipse cx="383.8743" cy="28.4749" fill="#F1F1F1" rx="100.3743" ry="22.4749" style="stroke:#181818;stroke-width:0.5;"/><text fill="#000000" font-family="sans-serif" font-size="14" lengthAdjust="spacing" textLength="159" x="303.3782" y="32.6376">UC3 - Register Employee</text></g><g id="elem_UC4"><ellipse cx="384.0561" cy="1370.7112" fill="#F1F1F1" rx="171.5561" ry="36.7112" style="stroke:#181818;stroke-width:0.5;"/><text fill="#000000" font-family="sans-serif" font-size="14" lengthAdjust="spacing" textLength="312" x="228.0561" y="1374.5081">UC4 - Request for Listing a Property Sale or Rent</text></g><g id="elem_UC5"><ellipse cx="384.1171" cy="107.6234" fill="#F1F1F1" rx="93.6171" ry="21.1234" style="stroke:#181818;stroke-width:0.5;"/><text fill="#000000" font-family="sans-serif" font-size="14" lengthAdjust="spacing" textLength="143" x="309.6171" y="112.4271">UC5 - Register a Store</text></g><g id="elem_UC6"><ellipse cx="384.1726" cy="194.3345" fill="#F1F1F1" rx="139.6726" ry="30.3345" style="stroke:#181818;stroke-width:0.5;"/><text fill="#000000" font-family="sans-serif" font-size="14" lengthAdjust="spacing" textLength="245" x="261.6726" y="198.1314">UC6 - Specify stateUS, city, and district</text></g><g id="elem_UC7"><ellipse cx="384.1919" cy="1569.3384" fill="#F1F1F1" rx="109.6919" ry="24.3384" style="stroke:#181818;stroke-width:0.5;"/><text fill="#000000" font-family="sans-serif" font-size="14" lengthAdjust="spacing" textLength="180" x="294.1919" y="1573.1353">UC7 - Register in the system</text></g><g id="elem_UC8"><ellipse cx="384.0115" cy="770.6023" fill="#F1F1F1" rx="151.0115" ry="32.6023" style="stroke:#181818;stroke-width:0.5;"/><text fill="#000000" font-family="sans-serif" font-size="14" lengthAdjust="spacing" textLength="269" x="249.5115" y="774.3992">UC8 - List property announcement request</text></g><g id="elem_UC9"><ellipse cx="383.7713" cy="1161.3543" fill="#F1F1F1" rx="104.7713" ry="23.3543" style="stroke:#181818;stroke-width:0.5;"/><text fill="#000000" font-family="sans-serif" font-size="14" lengthAdjust="spacing" textLength="169" x="299.2713" y="1165.1511">UC9 - Client Schedule Visit</text></g><g id="elem_UC10"><ellipse cx="384.0526" cy="1259.4105" fill="#F1F1F1" rx="185.0526" ry="39.4105" style="stroke:#181818;stroke-width:0.5;"/><text fill="#000000" font-family="sans-serif" font-size="14" lengthAdjust="spacing" textLength="340" x="214.0526" y="1263.2074">UC10 - Client place an order to purchase the property</text></g><g id="elem_UC11"><ellipse cx="383.7939" cy="868.4588" fill="#F1F1F1" rx="137.7939" ry="29.9588" style="stroke:#181818;stroke-width:0.5;"/><text fill="#000000" font-family="sans-serif" font-size="14" lengthAdjust="spacing" textLength="241" x="263.2939" y="872.2557">UC11 - Display Listed Purchase Order</text></g><g id="elem_UC12"><ellipse cx="383.8399" cy="295.368" fill="#F1F1F1" rx="164.8399" ry="35.368" style="stroke:#181818;stroke-width:0.5;"/><text fill="#000000" font-family="sans-serif" font-size="14" lengthAdjust="spacing" textLength="298" x="234.8399" y="299.1649">UC12 - Import information from a legacy system</text></g><g id="elem_UC15"><ellipse cx="383.7939" cy="963.4588" fill="#F1F1F1" rx="137.7939" ry="29.9588" style="stroke:#181818;stroke-width:0.5;"/><text fill="#000000" font-family="sans-serif" font-size="14" lengthAdjust="spacing" textLength="241" x="263.2939" y="967.2557">UC15 - List agent managed properties</text></g><g id="elem_UC16"><ellipse cx="383.9602" cy="1065.692" fill="#F1F1F1" rx="173.9602" ry="37.192" style="stroke:#181818;stroke-width:0.5;"/><text fill="#000000" font-family="sans-serif" font-size="14" lengthAdjust="spacing" textLength="317" x="225.4602" y="1069.4889">UC16 - Agent response to client's booking request</text></g><g id="elem_UC17"><ellipse cx="383.9985" cy="389.4997" fill="#F1F1F1" rx="102.9985" ry="22.9997" style="stroke:#181818;stroke-width:0.5;"/><text fill="#000000" font-family="sans-serif" font-size="14" lengthAdjust="spacing" textLength="165" x="301.2441" y="393.3933">UC17 - List all deals made</text></g><g id="elem_UC18"><ellipse cx="384.0473" cy="583.7095" fill="#F1F1F1" rx="134.0473" ry="29.2095" style="stroke:#181818;stroke-width:0.5;"/><text fill="#000000" font-family="sans-serif" font-size="14" lengthAdjust="spacing" textLength="233" x="267.5473" y="587.5063">UC18 - Store manager analyse deals</text></g><g id="elem_UC19"><ellipse cx="383.7979" cy="483.5596" fill="#F1F1F1" rx="165.7979" ry="35.5596" style="stroke:#181818;stroke-width:0.5;"/><text fill="#000000" font-family="sans-serif" font-size="14" lengthAdjust="spacing" textLength="300" x="233.7979" y="487.3565">UC19 - Number of properties by group of stores</text></g><!--link unregisteredUser to UC1--><g id="link_unregisteredUser_UC1"><path d="M129.55,1509.79 C174.01,1506.06 237.14,1500.75 289.27,1496.37 " fill="none" id="unregisteredUser-to-UC1" style="stroke:#181818;stroke-width:1.0;"/><polygon fill="#181818" points="294.28,1495.95,284.9797,1492.709,289.2972,1496.364,285.6421,1500.6815,294.28,1495.95" style="stroke:#181818;stroke-width:1.0;"/></g><!--link Agent to UC2--><g id="link_Agent_UC2"><path d="M91.11,838 C112.32,804.05 151.15,750.08 199,720.5 C220.64,707.13 245.99,697.73 270.85,691.12 " fill="none" id="Agent-to-UC2" style="stroke:#181818;stroke-width:1.0;"/><polygon fill="#181818" points="275.81,689.83,266.0937,688.2197,270.9704,691.0863,268.1038,695.963,275.81,689.83" style="stroke:#181818;stroke-width:1.0;"/></g><!--link systemAdministrator to UC3--><g id="link_systemAdministrator_UC3"><path d="M123.87,111.99 C145.88,96.41 172.65,79.62 199,68.5 C228.33,56.13 261.96,47.38 292.39,41.29 " fill="none" id="systemAdministrator-to-UC3" style="stroke:#181818;stroke-width:1.0;"/><polygon fill="#181818" points="297.63,40.26,288.024,38.0866,292.7255,41.2323,289.5797,45.9338,297.63,40.26" style="stroke:#181818;stroke-width:1.0;"/></g><!--link Owner to UC4--><g id="link_Owner_UC4"><path d="M93.33,1370.5 C117.6,1370.5 161.17,1370.5 207.28,1370.5 " fill="none" id="Owner-to-UC4" style="stroke:#181818;stroke-width:1.0;"/><polygon fill="#181818" points="212.33,1370.5,203.33,1366.5,207.33,1370.5,203.33,1374.5,212.33,1370.5" style="stroke:#181818;stroke-width:1.0;"/></g><!--link systemAdministrator to UC5--><g id="link_systemAdministrator_UC5"><path d="M139.14,142.17 C185.88,135.52 249.09,126.54 299.44,119.38 " fill="none" id="systemAdministrator-to-UC5" style="stroke:#181818;stroke-width:1.0;"/><polygon fill="#181818" points="304.58,118.65,295.1004,115.9783,299.6314,119.3651,296.2446,123.8961,304.58,118.65" style="stroke:#181818;stroke-width:1.0;"/></g><!--link systemAdministrator to UC6--><g id="link_systemAdministrator_UC6"><path d="M139.14,160.62 C174.52,165.53 219.33,171.76 260.85,177.53 " fill="none" id="systemAdministrator-to-UC6" style="stroke:#181818;stroke-width:1.0;"/><polygon fill="#181818" points="265.9,178.23,257.533,173.0345,260.9472,177.5449,256.4368,180.9591,265.9,178.23" style="stroke:#181818;stroke-width:1.0;"/></g><!--link unregisteredUser to UC7--><g id="link_unregisteredUser_UC7"><path d="M129.55,1524.46 C174.94,1532.53 239.79,1544.05 292.52,1553.42 " fill="none" id="unregisteredUser-to-UC7" style="stroke:#181818;stroke-width:1.0;"/><polygon fill="#181818" points="297.58,1554.32,289.4139,1548.8141,292.6564,1553.4494,288.021,1556.6919,297.58,1554.32" style="stroke:#181818;stroke-width:1.0;"/></g><!--link Agent to UC8--><g id="link_Agent_UC8"><path d="M91.2,861.31 C115.34,851.63 160.06,834.16 199,821.5 C225.56,812.86 254.57,804.39 281.54,796.9 " fill="none" id="Agent-to-UC8" style="stroke:#181818;stroke-width:1.0;"/><polygon fill="#181818" points="286.55,795.52,276.8073,794.0777,281.7328,796.8597,278.9508,801.7852,286.55,795.52" style="stroke:#181818;stroke-width:1.0;"/></g><!--link Client to UC9--><g id="link_Client_UC9"><path d="M90.58,1205.91 C128.2,1200.19 220.51,1186.18 291.44,1175.4 " fill="none" id="Client-to-UC9" style="stroke:#181818;stroke-width:1.0;"/><polygon fill="#181818" points="296.5,1174.64,287.0055,1172.022,291.5555,1175.3831,288.1944,1179.9332,296.5,1174.64" style="stroke:#181818;stroke-width:1.0;"/></g><!--link Client to UC10--><g id="link_Client_UC10"><path d="M90.58,1211.31 C118.2,1215.87 175.28,1225.27 231.74,1234.58 " fill="none" id="Client-to-UC10" style="stroke:#181818;stroke-width:1.0;"/><polygon fill="#181818" points="236.85,1235.42,228.6224,1230.0064,231.9169,1234.605,227.3183,1237.8994,236.85,1235.42" style="stroke:#181818;stroke-width:1.0;"/></g><!--link Agent to UC11--><g id="link_Agent_UC11"><path d="M91.03,868.5 C120.26,868.5 181.59,868.5 240.53,868.5 " fill="none" id="Agent-to-UC11" style="stroke:#181818;stroke-width:1.0;"/><polygon fill="#181818" points="245.86,868.5,236.86,864.5,240.86,868.5,236.86,872.5,245.86,868.5" style="stroke:#181818;stroke-width:1.0;"/></g><!--link systemAdministrator to UC12--><g id="link_systemAdministrator_UC12"><path d="M119.87,191.1 C142.54,208.84 170.94,228.81 199,242.5 C219.78,252.64 242.85,261.18 265.43,268.24 " fill="none" id="systemAdministrator-to-UC12" style="stroke:#181818;stroke-width:1.0;"/><polygon fill="#181818" points="270.24,269.73,262.813,263.2617,265.4608,268.2606,260.4619,270.9084,270.24,269.73" style="stroke:#181818;stroke-width:1.0;"/></g><!--link Agent to UC15--><g id="link_Agent_UC15"><path d="M91.14,875.99 C115.23,886.04 159.87,904.07 199,916.5 C226.21,925.15 256.07,933.32 283.68,940.36 " fill="none" id="Agent-to-UC15" style="stroke:#181818;stroke-width:1.0;"/><polygon fill="#181818" points="288.8,941.66,281.0557,935.5752,283.9527,940.4339,279.0939,943.3309,288.8,941.66" style="stroke:#181818;stroke-width:1.0;"/></g><!--link Agent to UC16--><g id="link_Agent_UC16"><path d="M91.02,896.7 C112.56,929.08 152.08,981.56 199,1011.5 C215.82,1022.23 234.84,1030.9 254.12,1037.88 " fill="none" id="Agent-to-UC16" style="stroke:#181818;stroke-width:1.0;"/><polygon fill="#181818" points="259.03,1039.62,251.8905,1032.8356,254.319,1037.9447,249.21,1040.3732,259.03,1039.62" style="stroke:#181818;stroke-width:1.0;"/></g><!--link networkManager to UC17--><g id="link_networkManager_UC17"><path d="M127.76,422.49 C172.36,416.72 236.56,408.43 289.41,401.6 " fill="none" id="networkManager-to-UC17" style="stroke:#181818;stroke-width:1.0;"/><polygon fill="#181818" points="294.49,400.94,285.0513,398.1272,289.5313,401.5812,286.0773,406.0612,294.49,400.94" style="stroke:#181818;stroke-width:1.0;"/></g><!--link storeManager to UC18--><g id="link_storeManager_UC18"><path d="M119.5,583.5 C152.82,583.5 199.74,583.5 244.78,583.5 " fill="none" id="storeManager-to-UC18" style="stroke:#181818;stroke-width:1.0;"/><polygon fill="#181818" points="249.97,583.5,240.97,579.5,244.97,583.5,240.97,587.5,249.97,583.5" style="stroke:#181818;stroke-width:1.0;"/></g><!--link networkManager to UC19--><g id="link_networkManager_UC19"><path d="M127.76,438.97 C161.65,444.88 206.87,452.77 249.82,460.26 " fill="none" id="networkManager-to-UC19" style="stroke:#181818;stroke-width:1.0;"/><polygon fill="#181818" points="254.77,461.13,246.5885,455.6471,249.8439,460.2733,245.2177,463.5288,254.77,461.13" style="stroke:#181818;stroke-width:1.0;"/></g><!--SRC=[VPJ9Rjim48RlV8g1BxuaGEJ4swL0wkHGe4s22EwTbiOIOObKAGgkKFJTEvH8YmmQ-s3BitoQvIVdxKd8XcjUGwsaoagjQWIZEsIJf-7PYHUOchv2q9WPBeiAsNoAQ4kUgxEG1HnvrI8BaY_nVnZGvwlIEUgTgfI67gjAdTbVnkP666BlMuGTfwydmGkR_FoRrmszYbLuD60KQ56K1d9XgK99ndXcY3JRIus5Q0rgp2r6pu2tq0LMQtJHhsTvUTvL0gLnVnwBwNcMqZV23owfzH7NMeip-AWND6UbJr6S76qV8jEU2gdXCQ-5f9eq9-k87HoHdR6knSnEOhRV9N0Btya3wWXlMZMeZS1sI2Kd-zWatDv-6HqJOa68j-vGYRQ4bDEa7wLKdSomfeOTQS66zbtw8ao_f_Htzn9ufese7j6btRF_rEyWzo7aOO3ywf0wELA8RSagXlkc-h4qShrFLJsmOLl4iyy1RXdMn67ObijPNYbf6J9Mn4WRpCInf-LoW_lq1Z9X-XlWCYUPKQx8V2chAzXLY5s7fGa9faItP4TQVxQqTOZP-BqtVZuys1eTh66M3hc9jhS9ELlYZ3A7D2inxsZ8FqKhVEgMEU-OkusqTpSbDnNFa6g0uGZRqzXqEYjjfEtGL-c5UHTZwN_8jQ9-4Yqn-w59EhPldlPg-HwJH8qbaQmJg-jlTQEqeJcJg6fkRmKuqYr6cgYmu5aVZpvPNDbY4ga-MVe5yA62UZZFkMyqE8FBkCP8OuaLsUZMs3PAsd4fo8RPp5iuA7Mono1UPxAAaP6-alMbiAg27EdAfU9oB_zapU8Ro4CYTILMNkCTLxim-gbwyWv43zkmyDhpg4XWYLNOIrSVo4ztr3GVEFHGQDKrrZnWBjZj9pLksJy0]--></g></svg>