<?xml version="1.0" encoding="us-ascii" standalone="no"?><svg xmlns="http://www.w3.org/2000/svg" xmlns:xlink="http://www.w3.org/1999/xlink" contentStyleType="text/css" height="2578px" preserveAspectRatio="none" style="width:2047px;height:2578px;background:#FFFFFF;" version="1.1" viewBox="0 0 2047 2578" width="2047px" zoomAndPan="magnify"><defs/><g><!--class SubmitPropertyUI--><g id="elem_SubmitPropertyUI"><rect codeLine="11" fill="#F1F1F1" height="1080.2813" id="SubmitPropertyUI" rx="2.5" ry="2.5" style="stroke:#181818;stroke-width:0.5;" width="456" x="7" y="7"/><ellipse cx="176.25" cy="23" fill="#ADD1B2" rx="11" ry="11" style="stroke:#181818;stroke-width:1.0;"/><path d="M179.0156,18.875 Q179.1719,18.6563 179.3594,18.5469 Q179.5469,18.4375 179.7656,18.4375 Q180.1406,18.4375 180.375,18.7031 Q180.6094,18.9531 180.6094,19.5625 L180.6094,21.0156 Q180.6094,21.625 180.375,21.8906 Q180.1406,22.1563 179.7656,22.1563 Q179.4219,22.1563 179.2188,21.9531 Q179.0156,21.7656 178.9063,21.25 Q178.8594,20.8906 178.6719,20.7031 Q178.3438,20.3281 177.7344,20.1094 Q177.125,19.8906 176.5,19.8906 Q175.7344,19.8906 175.0938,20.2188 Q174.4688,20.5469 173.9688,21.2969 Q173.4844,22.0469 173.4844,23.0781 L173.4844,24.1719 Q173.4844,25.4063 174.375,26.2344 Q175.2656,27.0469 176.8594,27.0469 Q177.7969,27.0469 178.4531,26.7969 Q178.8438,26.6406 179.2656,26.2031 Q179.5313,25.9375 179.6719,25.8594 Q179.8281,25.7813 180.0313,25.7813 Q180.3594,25.7813 180.6094,26.0469 Q180.875,26.2969 180.875,26.6406 Q180.875,26.9844 180.5313,27.3906 Q180.0313,27.9688 179.2344,28.2969 Q178.1563,28.75 176.8594,28.75 Q175.3438,28.75 174.1406,28.125 Q173.1563,27.625 172.4688,26.5625 Q171.7813,25.4844 171.7813,24.2031 L171.7813,23.0469 Q171.7813,21.7188 172.3906,20.5781 Q173.0156,19.4219 174.1094,18.8125 Q175.2031,18.1875 176.4375,18.1875 Q177.1719,18.1875 177.8125,18.3594 Q178.4688,18.5156 179.0156,18.875 Z " fill="#000000"/><text fill="#000000" font-family="sans-serif" font-size="14" lengthAdjust="spacing" textLength="109" x="196.75" y="27.8535">SubmitPropertyUI</text><line style="stroke:#181818;stroke-width:0.5;" x1="8" x2="462" y1="39" y2="39"/><text fill="#000000" font-family="sans-serif" font-size="14" lengthAdjust="spacing" textLength="216" x="13" y="55.6738">-PropertyType keepPropertyType;</text><text fill="#000000" font-family="sans-serif" font-size="14" lengthAdjust="spacing" textLength="171" x="13" y="71.3145">-double keepAreaProperty;</text><text fill="#000000" font-family="sans-serif" font-size="14" lengthAdjust="spacing" textLength="209" x="13" y="86.9551">-double keepDistanceCityCenter;</text><text fill="#000000" font-family="sans-serif" font-size="14" lengthAdjust="spacing" textLength="200" x="13" y="102.5957">-List&lt;String&gt; keepPhotographs;</text><text fill="#000000" font-family="sans-serif" font-size="14" lengthAdjust="spacing" textLength="119" x="13" y="118.2363">-String keepStreet;</text><text fill="#000000" font-family="sans-serif" font-size="14" lengthAdjust="spacing" textLength="134" x="13" y="133.877">-String keepZipCode;</text><text fill="#000000" font-family="sans-serif" font-size="14" lengthAdjust="spacing" textLength="132" x="13" y="149.5176">-String keepStateUS;</text><text fill="#000000" font-family="sans-serif" font-size="14" lengthAdjust="spacing" textLength="105" x="13" y="165.1582">-String keepCity;</text><text fill="#000000" font-family="sans-serif" font-size="14" lengthAdjust="spacing" textLength="124" x="13" y="180.7988">-String keepDistrict;</text><text fill="#000000" font-family="sans-serif" font-size="14" lengthAdjust="spacing" textLength="172" x="13" y="196.4395">-int keepNumberBedrooms;</text><text fill="#000000" font-family="sans-serif" font-size="14" lengthAdjust="spacing" textLength="156" x="13" y="212.0801">-int keepNumberParking;</text><text fill="#000000" font-family="sans-serif" font-size="14" lengthAdjust="spacing" textLength="205" x="13" y="227.7207">-String keepAvailableEquipment;</text><text fill="#000000" font-family="sans-serif" font-size="14" lengthAdjust="spacing" textLength="176" x="13" y="243.3613">-int keepNumberBathrooms;</text><text fill="#000000" font-family="sans-serif" font-size="14" lengthAdjust="spacing" textLength="158" x="13" y="259.002">-boolean keepBasement;</text><text fill="#000000" font-family="sans-serif" font-size="14" lengthAdjust="spacing" textLength="119" x="13" y="274.6426">-boolean keepLoft;</text><text fill="#000000" font-family="sans-serif" font-size="14" lengthAdjust="spacing" textLength="212" x="13" y="290.2832">-SunExposure keepSunExposure;</text><text fill="#000000" font-family="sans-serif" font-size="14" lengthAdjust="spacing" textLength="161" x="13" y="305.9238">-Property newAllProperty;</text><text fill="#000000" font-family="sans-serif" font-size="14" lengthAdjust="spacing" textLength="222" x="13" y="321.5645">-BusinessType keepBusinessType;</text><text fill="#000000" font-family="sans-serif" font-size="14" lengthAdjust="spacing" textLength="147" x="13" y="337.2051">-double keepSalePrice;</text><text fill="#000000" font-family="sans-serif" font-size="14" lengthAdjust="spacing" textLength="149" x="13" y="352.8457">-double keepRentPrice;</text><text fill="#000000" font-family="sans-serif" font-size="14" lengthAdjust="spacing" textLength="174" x="13" y="368.4863">-int keepDuractionContract;</text><text fill="#000000" font-family="sans-serif" font-size="14" lengthAdjust="spacing" textLength="143" x="13" y="384.127">-Employee keepAgent;</text><text fill="#000000" font-family="sans-serif" font-size="14" lengthAdjust="spacing" textLength="156" x="13" y="399.7676">-String keepOwnerEmail;</text><line style="stroke:#181818;stroke-width:0.5;" x1="8" x2="462" y1="406.7344" y2="406.7344"/><text fill="#000000" font-family="sans-serif" font-size="14" lengthAdjust="spacing" textLength="221" x="13" y="423.4082">+create SubmitPropertyController()</text><text fill="#000000" font-family="sans-serif" font-size="14" lengthAdjust="spacing" textLength="195" x="13" y="439.0488">+listAndChoosePropertyType()</text><text fill="#000000" font-family="sans-serif" font-size="14" lengthAdjust="spacing" textLength="124" x="13" y="454.6895">+getPropertyType()</text><text fill="#000000" font-family="sans-serif" font-size="14" lengthAdjust="spacing" textLength="155" x="13" y="470.3301">+getKeepAreaProperty()</text><text fill="#000000" font-family="sans-serif" font-size="14" lengthAdjust="spacing" textLength="160" x="13" y="485.9707">+getDistanceCityCenter()</text><text fill="#000000" font-family="sans-serif" font-size="14" lengthAdjust="spacing" textLength="119" x="13" y="501.6113">+getPhotographs()</text><text fill="#000000" font-family="sans-serif" font-size="14" lengthAdjust="spacing" textLength="76" x="13" y="517.252">+getStreet()</text><text fill="#000000" font-family="sans-serif" font-size="14" lengthAdjust="spacing" textLength="91" x="13" y="532.8926">+getZipCode()</text><text fill="#000000" font-family="sans-serif" font-size="14" lengthAdjust="spacing" textLength="89" x="13" y="548.5332">+getStateUS()</text><text fill="#000000" font-family="sans-serif" font-size="14" lengthAdjust="spacing" textLength="62" x="13" y="564.1738">+getCity()</text><text fill="#000000" font-family="sans-serif" font-size="14" lengthAdjust="spacing" textLength="81" x="13" y="579.8145">+getDistrict()</text><text fill="#000000" font-family="sans-serif" font-size="14" lengthAdjust="spacing" textLength="151" x="13" y="595.4551">+getNumberBedrooms()</text><text fill="#000000" font-family="sans-serif" font-size="14" lengthAdjust="spacing" textLength="135" x="13" y="611.0957">+getNumberParking()</text><text fill="#000000" font-family="sans-serif" font-size="14" lengthAdjust="spacing" textLength="155" x="13" y="626.7363">+getNumberBathrooms()</text><text fill="#000000" font-family="sans-serif" font-size="14" lengthAdjust="spacing" textLength="162" x="13" y="642.377">+getAvailableEquipment()</text><text fill="#000000" font-family="sans-serif" font-size="14" lengthAdjust="spacing" textLength="101" x="13" y="658.0176">+getBasement()</text><text fill="#000000" font-family="sans-serif" font-size="14" lengthAdjust="spacing" textLength="62" x="13" y="673.6582">+getLoft()</text><text fill="#000000" font-family="sans-serif" font-size="14" lengthAdjust="spacing" textLength="217" x="13" y="689.2988">+listAndChoseSunExposureType()</text><text fill="#000000" font-family="sans-serif" font-size="14" lengthAdjust="spacing" textLength="259" x="13" y="704.9395">+createNewHouseProperty(PropertyType</text><text fill="#000000" font-family="sans-serif" font-size="14" lengthAdjust="spacing" textLength="291" x="17" y="720.5801">keepPropertyType, double keepAreaProperty,</text><text fill="#000000" font-family="sans-serif" font-size="14" lengthAdjust="spacing" textLength="403" x="17" y="736.2207">double keepDistanceCityCenter, List&lt;String&gt; keepPhotographs,</text><text fill="#000000" font-family="sans-serif" font-size="14" lengthAdjust="spacing" textLength="318" x="17" y="751.8613">int keepNumberBedrooms, int keepNumberParking</text><text fill="#000000" font-family="sans-serif" font-size="14" lengthAdjust="spacing" textLength="375" x="17" y="767.502">int keepNumberBathrooms, String keepAvailableEquipment,</text><text fill="#000000" font-family="sans-serif" font-size="14" lengthAdjust="spacing" textLength="271" x="17" y="783.1426">boolean keepBasement, boolean keepLoft,</text><text fill="#000000" font-family="sans-serif" font-size="14" lengthAdjust="spacing" textLength="325" x="17" y="798.7832">SunExposure keepSunExposure, String keepStreet,</text><text fill="#000000" font-family="sans-serif" font-size="14" lengthAdjust="spacing" textLength="260" x="17" y="814.4238">String keepZipCode, String keepStateUS,</text><text fill="#000000" font-family="sans-serif" font-size="14" lengthAdjust="spacing" textLength="224" x="17" y="830.0645">String keepCity, String keepDistrict)</text><text fill="#000000" font-family="sans-serif" font-size="14" lengthAdjust="spacing" textLength="319" x="13" y="845.7051">+createNewApartmentProperty(keepPropertyType,</text><text fill="#000000" font-family="sans-serif" font-size="14" lengthAdjust="spacing" textLength="400" x="17" y="861.3457">keepAreaProperty, keepDistanceCityCenter, keepPhotographs,</text><text fill="#000000" font-family="sans-serif" font-size="14" lengthAdjust="spacing" textLength="440" x="17" y="876.9863">keepNumberBedrooms, keepNumberParking, keepNumberBathrooms,</text><text fill="#000000" font-family="sans-serif" font-size="14" lengthAdjust="spacing" textLength="418" x="17" y="892.627">keepAvailableEquipment, keepStreet, keepZipCode, keepStateUS,</text><text fill="#000000" font-family="sans-serif" font-size="14" lengthAdjust="spacing" textLength="142" x="17" y="908.2676">keepCity, keepDistrict)</text><text fill="#000000" font-family="sans-serif" font-size="14" lengthAdjust="spacing" textLength="254" x="13" y="923.9082">+createNewProperty(keepPropertyType,</text><text fill="#000000" font-family="sans-serif" font-size="14" lengthAdjust="spacing" textLength="280" x="17" y="939.5488">keepAreaProperty, keepDistanceCityCenter,</text><text fill="#000000" font-family="sans-serif" font-size="14" lengthAdjust="spacing" textLength="285" x="17" y="955.1895">keepPhotographs, keepStreet, keepZipCode,</text><text fill="#000000" font-family="sans-serif" font-size="14" lengthAdjust="spacing" textLength="232" x="17" y="970.8301">keepStateUS, keepCity, keepDistrict)</text><text fill="#000000" font-family="sans-serif" font-size="14" lengthAdjust="spacing" textLength="198" x="13" y="986.4707">+listAndChooseBusinessType()</text><text fill="#000000" font-family="sans-serif" font-size="14" lengthAdjust="spacing" textLength="101" x="13" y="1002.1113">+getAgentList();</text><text fill="#000000" font-family="sans-serif" font-size="14" lengthAdjust="spacing" textLength="79" x="13" y="1017.752">+getAgent();</text><text fill="#000000" font-family="sans-serif" font-size="14" lengthAdjust="spacing" textLength="386" x="13" y="1033.3926">+createNewRequestSale(newAllProperty, keepBusinessType,</text><text fill="#000000" font-family="sans-serif" font-size="14" lengthAdjust="spacing" textLength="176" x="17" y="1049.0332">keepAgent, keepSalePrice);</text><text fill="#000000" font-family="sans-serif" font-size="14" lengthAdjust="spacing" textLength="388" x="13" y="1064.6738">+createNewRequestRent(newAllProperty, keepBusinessType,</text><text fill="#000000" font-family="sans-serif" font-size="14" lengthAdjust="spacing" textLength="328" x="17" y="1080.3145">keepAgent, keepRentPrice, keepDuractionContract)</text></g><!--class SubmitPropertyController--><g id="elem_SubmitPropertyController"><rect codeLine="64" fill="#F1F1F1" height="673.625" id="SubmitPropertyController" rx="2.5" ry="2.5" style="stroke:#181818;stroke-width:0.5;" width="591" x="498.5" y="210"/><ellipse cx="710.25" cy="226" fill="#ADD1B2" rx="11" ry="11" style="stroke:#181818;stroke-width:1.0;"/><path d="M713.0156,221.875 Q713.1719,221.6563 713.3594,221.5469 Q713.5469,221.4375 713.7656,221.4375 Q714.1406,221.4375 714.375,221.7031 Q714.6094,221.9531 714.6094,222.5625 L714.6094,224.0156 Q714.6094,224.625 714.375,224.8906 Q714.1406,225.1563 713.7656,225.1563 Q713.4219,225.1563 713.2188,224.9531 Q713.0156,224.7656 712.9063,224.25 Q712.8594,223.8906 712.6719,223.7031 Q712.3438,223.3281 711.7344,223.1094 Q711.125,222.8906 710.5,222.8906 Q709.7344,222.8906 709.0938,223.2188 Q708.4688,223.5469 707.9688,224.2969 Q707.4844,225.0469 707.4844,226.0781 L707.4844,227.1719 Q707.4844,228.4063 708.375,229.2344 Q709.2656,230.0469 710.8594,230.0469 Q711.7969,230.0469 712.4531,229.7969 Q712.8438,229.6406 713.2656,229.2031 Q713.5313,228.9375 713.6719,228.8594 Q713.8281,228.7813 714.0313,228.7813 Q714.3594,228.7813 714.6094,229.0469 Q714.875,229.2969 714.875,229.6406 Q714.875,229.9844 714.5313,230.3906 Q714.0313,230.9688 713.2344,231.2969 Q712.1563,231.75 710.8594,231.75 Q709.3438,231.75 708.1406,231.125 Q707.1563,230.625 706.4688,229.5625 Q705.7813,228.4844 705.7813,227.2031 L705.7813,226.0469 Q705.7813,224.7188 706.3906,223.5781 Q707.0156,222.4219 708.1094,221.8125 Q709.2031,221.1875 710.4375,221.1875 Q711.1719,221.1875 711.8125,221.3594 Q712.4688,221.5156 713.0156,221.875 Z " fill="#000000"/><text fill="#000000" font-family="sans-serif" font-size="14" lengthAdjust="spacing" textLength="159" x="730.75" y="230.8535">SubmitPropertyController</text><line style="stroke:#181818;stroke-width:0.5;" x1="499.5" x2="1088.5" y1="242" y2="242"/><text fill="#000000" font-family="sans-serif" font-size="14" lengthAdjust="spacing" textLength="166" x="504.5" y="258.6738">-Repositories repositories;</text><text fill="#000000" font-family="sans-serif" font-size="14" lengthAdjust="spacing" textLength="320" x="504.5" y="274.3145">-PropertyTypeRepository propertyTypeRepository;</text><text fill="#000000" font-family="sans-serif" font-size="14" lengthAdjust="spacing" textLength="347" x="504.5" y="289.9551">-SunExposureRepository sunExposureTypeRepository;</text><text fill="#000000" font-family="sans-serif" font-size="14" lengthAdjust="spacing" textLength="256" x="504.5" y="305.5957">-PropertyRepository propertyRepository;</text><text fill="#000000" font-family="sans-serif" font-size="14" lengthAdjust="spacing" textLength="215" x="504.5" y="321.2363">-StoreRepository storeRepository;</text><text fill="#000000" font-family="sans-serif" font-size="14" lengthAdjust="spacing" textLength="326" x="504.5" y="336.877">-BusinessTypeRepository businessTypeRepository;</text><text fill="#000000" font-family="sans-serif" font-size="14" lengthAdjust="spacing" textLength="246" x="504.5" y="352.5176">-RequestRepository requestRepository</text><line style="stroke:#181818;stroke-width:0.5;" x1="499.5" x2="1088.5" y1="359.4844" y2="359.4844"/><text fill="#000000" font-family="sans-serif" font-size="14" lengthAdjust="spacing" textLength="91" x="504.5" y="376.1582">+getInstance()</text><text fill="#000000" font-family="sans-serif" font-size="14" lengthAdjust="spacing" textLength="192" x="504.5" y="391.7988">+getPropertyTypeRepository()</text><text fill="#000000" font-family="sans-serif" font-size="14" lengthAdjust="spacing" textLength="146" x="504.5" y="407.4395">+getPropertyTypeList()</text><text fill="#000000" font-family="sans-serif" font-size="14" lengthAdjust="spacing" textLength="384" x="504.5" y="423.0801">+createNewHouseProperty(PropertyType keepPropertyType,</text><text fill="#000000" font-family="sans-serif" font-size="14" lengthAdjust="spacing" textLength="374" x="508.5" y="438.7207">double keepAreaProperty, double keepDistanceCityCenter,</text><text fill="#000000" font-family="sans-serif" font-size="14" lengthAdjust="spacing" textLength="366" x="508.5" y="454.3613">List&lt;String&gt; keepPhotographs, int keepNumberBedrooms,</text><text fill="#000000" font-family="sans-serif" font-size="14" lengthAdjust="spacing" textLength="326" x="508.5" y="470.002">int keepNumberParking, int keepNumberBathrooms,</text><text fill="#000000" font-family="sans-serif" font-size="14" lengthAdjust="spacing" textLength="357" x="508.5" y="485.6426">String keepAvailableEquipment, boolean keepBasement,</text><text fill="#000000" font-family="sans-serif" font-size="14" lengthAdjust="spacing" textLength="325" x="508.5" y="501.2832">boolean keepLoft, SunExposure keepSunExposure,</text><text fill="#000000" font-family="sans-serif" font-size="14" lengthAdjust="spacing" textLength="247" x="508.5" y="516.9238">String keepStreet, String keepZipCode,</text><text fill="#000000" font-family="sans-serif" font-size="14" lengthAdjust="spacing" textLength="231" x="508.5" y="532.5645">String keepStateUS, String keepCity,</text><text fill="#000000" font-family="sans-serif" font-size="14" lengthAdjust="spacing" textLength="120" x="508.5" y="548.2051">String keepDistrict)</text><text fill="#000000" font-family="sans-serif" font-size="14" lengthAdjust="spacing" textLength="579" x="504.5" y="563.8457">+createNewApartmentProperty(PropertyType keepPropertyType, double keepAreaProperty,</text><text fill="#000000" font-family="sans-serif" font-size="14" lengthAdjust="spacing" textLength="403" x="508.5" y="579.4863">double keepDistanceCityCenter, List&lt;String&gt; keepPhotographs,</text><text fill="#000000" font-family="sans-serif" font-size="14" lengthAdjust="spacing" textLength="322" x="508.5" y="595.127">int keepNumberBedrooms, int keepNumberParking,</text><text fill="#000000" font-family="sans-serif" font-size="14" lengthAdjust="spacing" textLength="375" x="508.5" y="610.7676">int keepNumberBathrooms, String keepAvailableEquipment,</text><text fill="#000000" font-family="sans-serif" font-size="14" lengthAdjust="spacing" textLength="247" x="508.5" y="626.4082">String keepStreet, String keepZipCode,</text><text fill="#000000" font-family="sans-serif" font-size="14" lengthAdjust="spacing" textLength="231" x="508.5" y="642.0488">String keepStateUS, String keepCity,</text><text fill="#000000" font-family="sans-serif" font-size="14" lengthAdjust="spacing" textLength="120" x="508.5" y="657.6895">String keepDistrict)</text><text fill="#000000" font-family="sans-serif" font-size="14" lengthAdjust="spacing" textLength="344" x="504.5" y="673.3301">+createNewProperty(PropertyType keepPropertyType,</text><text fill="#000000" font-family="sans-serif" font-size="14" lengthAdjust="spacing" textLength="374" x="508.5" y="688.9707">double keepAreaProperty, double keepDistanceCityCenter,</text><text fill="#000000" font-family="sans-serif" font-size="14" lengthAdjust="spacing" textLength="313" x="508.5" y="704.6113">List&lt;String&gt; keepPhotographs, String keepStreet,</text><text fill="#000000" font-family="sans-serif" font-size="14" lengthAdjust="spacing" textLength="364" x="508.5" y="720.252">String keepZipCode, String keepStateUS, String keepCity,</text><text fill="#000000" font-family="sans-serif" font-size="14" lengthAdjust="spacing" textLength="120" x="508.5" y="735.8926">String keepDistrict)</text><text fill="#000000" font-family="sans-serif" font-size="14" lengthAdjust="spacing" textLength="195" x="504.5" y="751.5332">+getBusinessTypeRepository()</text><text fill="#000000" font-family="sans-serif" font-size="14" lengthAdjust="spacing" textLength="149" x="504.5" y="767.1738">+getBusinessTypeList()</text><text fill="#000000" font-family="sans-serif" font-size="14" lengthAdjust="spacing" textLength="97" x="504.5" y="782.8145">+getAgentList()</text><text fill="#000000" font-family="sans-serif" font-size="14" lengthAdjust="spacing" textLength="316" x="504.5" y="798.4551">+createNewRequestSale(Property newAllProperty,</text><text fill="#000000" font-family="sans-serif" font-size="14" lengthAdjust="spacing" textLength="359" x="508.5" y="814.0957">BusinessType keepBusinessType, Employee keepAgent,</text><text fill="#000000" font-family="sans-serif" font-size="14" lengthAdjust="spacing" textLength="143" x="508.5" y="829.7363">double keepSalePrice)</text><text fill="#000000" font-family="sans-serif" font-size="14" lengthAdjust="spacing" textLength="318" x="504.5" y="845.377">+createNewRequestRent(Property newAllProperty,</text><text fill="#000000" font-family="sans-serif" font-size="14" lengthAdjust="spacing" textLength="359" x="508.5" y="861.0176">BusinessType keepBusinessType, Employee keepAgent,</text><text fill="#000000" font-family="sans-serif" font-size="14" lengthAdjust="spacing" textLength="318" x="508.5" y="876.6582">double keepRentPrice, int keepDuractionContract)</text></g><!--class Repositories--><g id="elem_Repositories"><rect codeLine="85" fill="#F1F1F1" height="173.125" id="Repositories" rx="2.5" ry="2.5" style="stroke:#181818;stroke-width:0.5;" width="207" x="1193.5" y="460.5"/><ellipse cx="1253.25" cy="476.5" fill="#ADD1B2" rx="11" ry="11" style="stroke:#181818;stroke-width:1.0;"/><path d="M1256.0156,472.375 Q1256.1719,472.1563 1256.3594,472.0469 Q1256.5469,471.9375 1256.7656,471.9375 Q1257.1406,471.9375 1257.375,472.2031 Q1257.6094,472.4531 1257.6094,473.0625 L1257.6094,474.5156 Q1257.6094,475.125 1257.375,475.3906 Q1257.1406,475.6563 1256.7656,475.6563 Q1256.4219,475.6563 1256.2188,475.4531 Q1256.0156,475.2656 1255.9063,474.75 Q1255.8594,474.3906 1255.6719,474.2031 Q1255.3438,473.8281 1254.7344,473.6094 Q1254.125,473.3906 1253.5,473.3906 Q1252.7344,473.3906 1252.0938,473.7188 Q1251.4688,474.0469 1250.9688,474.7969 Q1250.4844,475.5469 1250.4844,476.5781 L1250.4844,477.6719 Q1250.4844,478.9063 1251.375,479.7344 Q1252.2656,480.5469 1253.8594,480.5469 Q1254.7969,480.5469 1255.4531,480.2969 Q1255.8438,480.1406 1256.2656,479.7031 Q1256.5313,479.4375 1256.6719,479.3594 Q1256.8281,479.2813 1257.0313,479.2813 Q1257.3594,479.2813 1257.6094,479.5469 Q1257.875,479.7969 1257.875,480.1406 Q1257.875,480.4844 1257.5313,480.8906 Q1257.0313,481.4688 1256.2344,481.7969 Q1255.1563,482.25 1253.8594,482.25 Q1252.3438,482.25 1251.1406,481.625 Q1250.1563,481.125 1249.4688,480.0625 Q1248.7813,478.9844 1248.7813,477.7031 L1248.7813,476.5469 Q1248.7813,475.2188 1249.3906,474.0781 Q1250.0156,472.9219 1251.1094,472.3125 Q1252.2031,471.6875 1253.4375,471.6875 Q1254.1719,471.6875 1254.8125,471.8594 Q1255.4688,472.0156 1256.0156,472.375 Z " fill="#000000"/><text fill="#000000" font-family="sans-serif" font-size="14" lengthAdjust="spacing" textLength="79" x="1273.75" y="481.3535">Repositories</text><line style="stroke:#181818;stroke-width:0.5;" x1="1194.5" x2="1399.5" y1="492.5" y2="492.5"/><line style="stroke:#181818;stroke-width:0.5;" x1="1194.5" x2="1399.5" y1="500.5" y2="500.5"/><text fill="#000000" font-family="sans-serif" font-size="14" lengthAdjust="spacing" textLength="94" x="1199.5" y="517.1738">-Repositories()</text><text fill="#000000" font-family="sans-serif" font-size="14" lengthAdjust="spacing" textLength="182" x="1199.5" y="532.8145">+getInstance() : Repositories</text><text fill="#000000" font-family="sans-serif" font-size="14" lengthAdjust="spacing" textLength="192" x="1199.5" y="548.4551">+getPropertyTypeRepository()</text><text fill="#000000" font-family="sans-serif" font-size="14" lengthAdjust="spacing" textLength="160" x="1199.5" y="564.0957">+getPropertyRepository()</text><text fill="#000000" font-family="sans-serif" font-size="14" lengthAdjust="spacing" textLength="190" x="1199.5" y="579.7363">+getSunExposureRepository()</text><text fill="#000000" font-family="sans-serif" font-size="14" lengthAdjust="spacing" textLength="195" x="1199.5" y="595.377">+getBusinessTypeRepository()</text><text fill="#000000" font-family="sans-serif" font-size="14" lengthAdjust="spacing" textLength="140" x="1199.5" y="611.0176">+getStoreRepository()</text><text fill="#000000" font-family="sans-serif" font-size="14" lengthAdjust="spacing" textLength="159" x="1199.5" y="626.6582">+getRequestRepository()</text></g><!--class PropertyTypeRepository--><g id="elem_PropertyTypeRepository"><rect codeLine="124" fill="#F1F1F1" height="63.6406" id="PropertyTypeRepository" rx="2.5" ry="2.5" style="stroke:#181818;stroke-width:0.5;" width="186" x="1528" y="1570"/><ellipse cx="1543" cy="1586" fill="#ADD1B2" rx="11" ry="11" style="stroke:#181818;stroke-width:1.0;"/><path d="M1545.7656,1581.875 Q1545.9219,1581.6563 1546.1094,1581.5469 Q1546.2969,1581.4375 1546.5156,1581.4375 Q1546.8906,1581.4375 1547.125,1581.7031 Q1547.3594,1581.9531 1547.3594,1582.5625 L1547.3594,1584.0156 Q1547.3594,1584.625 1547.125,1584.8906 Q1546.8906,1585.1563 1546.5156,1585.1563 Q1546.1719,1585.1563 1545.9688,1584.9531 Q1545.7656,1584.7656 1545.6563,1584.25 Q1545.6094,1583.8906 1545.4219,1583.7031 Q1545.0938,1583.3281 1544.4844,1583.1094 Q1543.875,1582.8906 1543.25,1582.8906 Q1542.4844,1582.8906 1541.8438,1583.2188 Q1541.2188,1583.5469 1540.7188,1584.2969 Q1540.2344,1585.0469 1540.2344,1586.0781 L1540.2344,1587.1719 Q1540.2344,1588.4063 1541.125,1589.2344 Q1542.0156,1590.0469 1543.6094,1590.0469 Q1544.5469,1590.0469 1545.2031,1589.7969 Q1545.5938,1589.6406 1546.0156,1589.2031 Q1546.2813,1588.9375 1546.4219,1588.8594 Q1546.5781,1588.7813 1546.7813,1588.7813 Q1547.1094,1588.7813 1547.3594,1589.0469 Q1547.625,1589.2969 1547.625,1589.6406 Q1547.625,1589.9844 1547.2813,1590.3906 Q1546.7813,1590.9688 1545.9844,1591.2969 Q1544.9063,1591.75 1543.6094,1591.75 Q1542.0938,1591.75 1540.8906,1591.125 Q1539.9063,1590.625 1539.2188,1589.5625 Q1538.5313,1588.4844 1538.5313,1587.2031 L1538.5313,1586.0469 Q1538.5313,1584.7188 1539.1406,1583.5781 Q1539.7656,1582.4219 1540.8594,1581.8125 Q1541.9531,1581.1875 1543.1875,1581.1875 Q1543.9219,1581.1875 1544.5625,1581.3594 Q1545.2188,1581.5156 1545.7656,1581.875 Z " fill="#000000"/><text fill="#000000" font-family="sans-serif" font-size="14" lengthAdjust="spacing" textLength="154" x="1557" y="1590.8535">PropertyTypeRepository</text><line style="stroke:#181818;stroke-width:0.5;" x1="1529" x2="1713" y1="1602" y2="1602"/><line style="stroke:#181818;stroke-width:0.5;" x1="1529" x2="1713" y1="1610" y2="1610"/><text fill="#000000" font-family="sans-serif" font-size="14" lengthAdjust="spacing" textLength="146" x="1534" y="1626.6738">+getPropertyTypeList()</text></g><!--class PropertyRepository--><g id="elem_PropertyRepository"><rect codeLine="114" fill="#F1F1F1" height="360.8125" id="PropertyRepository" rx="2.5" ry="2.5" style="stroke:#181818;stroke-width:0.5;" width="421" x="1207.5" y="1773"/><ellipse cx="1352.75" cy="1789" fill="#ADD1B2" rx="11" ry="11" style="stroke:#181818;stroke-width:1.0;"/><path d="M1355.5156,1784.875 Q1355.6719,1784.6563 1355.8594,1784.5469 Q1356.0469,1784.4375 1356.2656,1784.4375 Q1356.6406,1784.4375 1356.875,1784.7031 Q1357.1094,1784.9531 1357.1094,1785.5625 L1357.1094,1787.0156 Q1357.1094,1787.625 1356.875,1787.8906 Q1356.6406,1788.1563 1356.2656,1788.1563 Q1355.9219,1788.1563 1355.7188,1787.9531 Q1355.5156,1787.7656 1355.4063,1787.25 Q1355.3594,1786.8906 1355.1719,1786.7031 Q1354.8438,1786.3281 1354.2344,1786.1094 Q1353.625,1785.8906 1353,1785.8906 Q1352.2344,1785.8906 1351.5938,1786.2188 Q1350.9688,1786.5469 1350.4688,1787.2969 Q1349.9844,1788.0469 1349.9844,1789.0781 L1349.9844,1790.1719 Q1349.9844,1791.4063 1350.875,1792.2344 Q1351.7656,1793.0469 1353.3594,1793.0469 Q1354.2969,1793.0469 1354.9531,1792.7969 Q1355.3438,1792.6406 1355.7656,1792.2031 Q1356.0313,1791.9375 1356.1719,1791.8594 Q1356.3281,1791.7813 1356.5313,1791.7813 Q1356.8594,1791.7813 1357.1094,1792.0469 Q1357.375,1792.2969 1357.375,1792.6406 Q1357.375,1792.9844 1357.0313,1793.3906 Q1356.5313,1793.9688 1355.7344,1794.2969 Q1354.6563,1794.75 1353.3594,1794.75 Q1351.8438,1794.75 1350.6406,1794.125 Q1349.6563,1793.625 1348.9688,1792.5625 Q1348.2813,1791.4844 1348.2813,1790.2031 L1348.2813,1789.0469 Q1348.2813,1787.7188 1348.8906,1786.5781 Q1349.5156,1785.4219 1350.6094,1784.8125 Q1351.7031,1784.1875 1352.9375,1784.1875 Q1353.6719,1784.1875 1354.3125,1784.3594 Q1354.9688,1784.5156 1355.5156,1784.875 Z " fill="#000000"/><text fill="#000000" font-family="sans-serif" font-size="14" lengthAdjust="spacing" textLength="122" x="1373.25" y="1793.8535">PropertyRepository</text><line style="stroke:#181818;stroke-width:0.5;" x1="1208.5" x2="1627.5" y1="1805" y2="1805"/><line style="stroke:#181818;stroke-width:0.5;" x1="1208.5" x2="1627.5" y1="1813" y2="1813"/><text fill="#000000" font-family="sans-serif" font-size="14" lengthAdjust="spacing" textLength="294" x="1213.5" y="1829.6738">+createNewHouseProperty(keepPropertyType,</text><text fill="#000000" font-family="sans-serif" font-size="14" lengthAdjust="spacing" textLength="280" x="1217.5" y="1845.3145">keepAreaProperty, keepDistanceCityCenter,</text><text fill="#000000" font-family="sans-serif" font-size="14" lengthAdjust="spacing" textLength="268" x="1217.5" y="1860.9551">keepPhotographs, keepNumberBedrooms,</text><text fill="#000000" font-family="sans-serif" font-size="14" lengthAdjust="spacing" textLength="288" x="1217.5" y="1876.5957">keepNumberParking, keepNumberBathrooms,</text><text fill="#000000" font-family="sans-serif" font-size="14" lengthAdjust="spacing" textLength="261" x="1217.5" y="1892.2363">keepAvailableEquipment, keepBasement,</text><text fill="#000000" font-family="sans-serif" font-size="14" lengthAdjust="spacing" textLength="259" x="1217.5" y="1907.877">keepLoft, keepSunExposure, keepStreet,</text><text fill="#000000" font-family="sans-serif" font-size="14" lengthAdjust="spacing" textLength="178" x="1217.5" y="1923.5176">keepZipCode, keepStateUS,</text><text fill="#000000" font-family="sans-serif" font-size="14" lengthAdjust="spacing" textLength="142" x="1217.5" y="1939.1582">keepCity, keepDistrict)</text><text fill="#000000" font-family="sans-serif" font-size="14" lengthAdjust="spacing" textLength="409" x="1213.5" y="1954.7988">+createNewApartmentProperty(PropertyType keepPropertyType,</text><text fill="#000000" font-family="sans-serif" font-size="14" lengthAdjust="spacing" textLength="374" x="1217.5" y="1970.4395">double keepAreaProperty, double keepDistanceCityCenter,</text><text fill="#000000" font-family="sans-serif" font-size="14" lengthAdjust="spacing" textLength="366" x="1217.5" y="1986.0801">List&lt;String&gt; keepPhotographs, int keepNumberBedrooms,</text><text fill="#000000" font-family="sans-serif" font-size="14" lengthAdjust="spacing" textLength="326" x="1217.5" y="2001.7207">int keepNumberParking, int keepNumberBathrooms,</text><text fill="#000000" font-family="sans-serif" font-size="14" lengthAdjust="spacing" textLength="318" x="1217.5" y="2017.3613">String keepAvailableEquipment, String keepStreet,</text><text fill="#000000" font-family="sans-serif" font-size="14" lengthAdjust="spacing" textLength="260" x="1217.5" y="2033.002">String keepZipCode, String keepStateUS,</text><text fill="#000000" font-family="sans-serif" font-size="14" lengthAdjust="spacing" textLength="224" x="1217.5" y="2048.6426">String keepCity, String keepDistrict)</text><text fill="#000000" font-family="sans-serif" font-size="14" lengthAdjust="spacing" textLength="344" x="1213.5" y="2064.2832">+createNewProperty(PropertyType keepPropertyType,</text><text fill="#000000" font-family="sans-serif" font-size="14" lengthAdjust="spacing" textLength="374" x="1217.5" y="2079.9238">double keepAreaProperty, double keepDistanceCityCenter,</text><text fill="#000000" font-family="sans-serif" font-size="14" lengthAdjust="spacing" textLength="313" x="1217.5" y="2095.5645">List&lt;String&gt; keepPhotographs, String keepStreet,</text><text fill="#000000" font-family="sans-serif" font-size="14" lengthAdjust="spacing" textLength="260" x="1217.5" y="2111.2051">String keepZipCode, String keepStateUS,</text><text fill="#000000" font-family="sans-serif" font-size="14" lengthAdjust="spacing" textLength="224" x="1217.5" y="2126.8457">String keepCity, String keepDistrict)</text></g><!--class SunExposureRepository--><g id="elem_SunExposureRepository"><rect codeLine="152" fill="#F1F1F1" height="63.6406" id="SunExposureRepository" rx="2.5" ry="2.5" style="stroke:#181818;stroke-width:0.5;" width="195" x="1199.5" y="1148"/><ellipse cx="1219.45" cy="1164" fill="#ADD1B2" rx="11" ry="11" style="stroke:#181818;stroke-width:1.0;"/><path d="M1222.2156,1159.875 Q1222.3719,1159.6563 1222.5594,1159.5469 Q1222.7469,1159.4375 1222.9656,1159.4375 Q1223.3406,1159.4375 1223.575,1159.7031 Q1223.8094,1159.9531 1223.8094,1160.5625 L1223.8094,1162.0156 Q1223.8094,1162.625 1223.575,1162.8906 Q1223.3406,1163.1563 1222.9656,1163.1563 Q1222.6219,1163.1563 1222.4188,1162.9531 Q1222.2156,1162.7656 1222.1063,1162.25 Q1222.0594,1161.8906 1221.8719,1161.7031 Q1221.5438,1161.3281 1220.9344,1161.1094 Q1220.325,1160.8906 1219.7,1160.8906 Q1218.9344,1160.8906 1218.2938,1161.2188 Q1217.6688,1161.5469 1217.1688,1162.2969 Q1216.6844,1163.0469 1216.6844,1164.0781 L1216.6844,1165.1719 Q1216.6844,1166.4063 1217.575,1167.2344 Q1218.4656,1168.0469 1220.0594,1168.0469 Q1220.9969,1168.0469 1221.6531,1167.7969 Q1222.0438,1167.6406 1222.4656,1167.2031 Q1222.7313,1166.9375 1222.8719,1166.8594 Q1223.0281,1166.7813 1223.2313,1166.7813 Q1223.5594,1166.7813 1223.8094,1167.0469 Q1224.075,1167.2969 1224.075,1167.6406 Q1224.075,1167.9844 1223.7313,1168.3906 Q1223.2313,1168.9688 1222.4344,1169.2969 Q1221.3563,1169.75 1220.0594,1169.75 Q1218.5438,1169.75 1217.3406,1169.125 Q1216.3563,1168.625 1215.6688,1167.5625 Q1214.9813,1166.4844 1214.9813,1165.2031 L1214.9813,1164.0469 Q1214.9813,1162.7188 1215.5906,1161.5781 Q1216.2156,1160.4219 1217.3094,1159.8125 Q1218.4031,1159.1875 1219.6375,1159.1875 Q1220.3719,1159.1875 1221.0125,1159.3594 Q1221.6688,1159.5156 1222.2156,1159.875 Z " fill="#000000"/><text fill="#000000" font-family="sans-serif" font-size="14" lengthAdjust="spacing" textLength="152" x="1234.55" y="1168.8535">SunExposureRepository</text><line style="stroke:#181818;stroke-width:0.5;" x1="1200.5" x2="1393.5" y1="1180" y2="1180"/><line style="stroke:#181818;stroke-width:0.5;" x1="1200.5" x2="1393.5" y1="1188" y2="1188"/><text fill="#000000" font-family="sans-serif" font-size="14" lengthAdjust="spacing" textLength="183" x="1205.5" y="1204.6738">+getSunExposureTypesList()</text></g><!--class BusinessTypeRepository--><g id="elem_BusinessTypeRepository"><rect codeLine="185" fill="#F1F1F1" height="63.6406" id="BusinessTypeRepository" rx="2.5" ry="2.5" style="stroke:#181818;stroke-width:0.5;" width="189" x="1650.5" y="1288.5"/><ellipse cx="1665.5" cy="1304.5" fill="#ADD1B2" rx="11" ry="11" style="stroke:#181818;stroke-width:1.0;"/><path d="M1668.2656,1300.375 Q1668.4219,1300.1563 1668.6094,1300.0469 Q1668.7969,1299.9375 1669.0156,1299.9375 Q1669.3906,1299.9375 1669.625,1300.2031 Q1669.8594,1300.4531 1669.8594,1301.0625 L1669.8594,1302.5156 Q1669.8594,1303.125 1669.625,1303.3906 Q1669.3906,1303.6563 1669.0156,1303.6563 Q1668.6719,1303.6563 1668.4688,1303.4531 Q1668.2656,1303.2656 1668.1563,1302.75 Q1668.1094,1302.3906 1667.9219,1302.2031 Q1667.5938,1301.8281 1666.9844,1301.6094 Q1666.375,1301.3906 1665.75,1301.3906 Q1664.9844,1301.3906 1664.3438,1301.7188 Q1663.7188,1302.0469 1663.2188,1302.7969 Q1662.7344,1303.5469 1662.7344,1304.5781 L1662.7344,1305.6719 Q1662.7344,1306.9063 1663.625,1307.7344 Q1664.5156,1308.5469 1666.1094,1308.5469 Q1667.0469,1308.5469 1667.7031,1308.2969 Q1668.0938,1308.1406 1668.5156,1307.7031 Q1668.7813,1307.4375 1668.9219,1307.3594 Q1669.0781,1307.2813 1669.2813,1307.2813 Q1669.6094,1307.2813 1669.8594,1307.5469 Q1670.125,1307.7969 1670.125,1308.1406 Q1670.125,1308.4844 1669.7813,1308.8906 Q1669.2813,1309.4688 1668.4844,1309.7969 Q1667.4063,1310.25 1666.1094,1310.25 Q1664.5938,1310.25 1663.3906,1309.625 Q1662.4063,1309.125 1661.7188,1308.0625 Q1661.0313,1306.9844 1661.0313,1305.7031 L1661.0313,1304.5469 Q1661.0313,1303.2188 1661.6406,1302.0781 Q1662.2656,1300.9219 1663.3594,1300.3125 Q1664.4531,1299.6875 1665.6875,1299.6875 Q1666.4219,1299.6875 1667.0625,1299.8594 Q1667.7188,1300.0156 1668.2656,1300.375 Z " fill="#000000"/><text fill="#000000" font-family="sans-serif" font-size="14" lengthAdjust="spacing" textLength="157" x="1679.5" y="1309.3535">BusinessTypeRepository</text><line style="stroke:#181818;stroke-width:0.5;" x1="1651.5" x2="1838.5" y1="1320.5" y2="1320.5"/><line style="stroke:#181818;stroke-width:0.5;" x1="1651.5" x2="1838.5" y1="1328.5" y2="1328.5"/><text fill="#000000" font-family="sans-serif" font-size="14" lengthAdjust="spacing" textLength="149" x="1656.5" y="1345.1738">+getBusinessTypeList()</text></g><!--class RequestRepository--><g id="elem_RequestRepository"><rect codeLine="165" fill="#F1F1F1" height="157.4844" id="RequestRepository" rx="2.5" ry="2.5" style="stroke:#181818;stroke-width:0.5;" width="330" x="563" y="1242"/><ellipse cx="663.25" cy="1258" fill="#ADD1B2" rx="11" ry="11" style="stroke:#181818;stroke-width:1.0;"/><path d="M666.0156,1253.875 Q666.1719,1253.6563 666.3594,1253.5469 Q666.5469,1253.4375 666.7656,1253.4375 Q667.1406,1253.4375 667.375,1253.7031 Q667.6094,1253.9531 667.6094,1254.5625 L667.6094,1256.0156 Q667.6094,1256.625 667.375,1256.8906 Q667.1406,1257.1563 666.7656,1257.1563 Q666.4219,1257.1563 666.2188,1256.9531 Q666.0156,1256.7656 665.9063,1256.25 Q665.8594,1255.8906 665.6719,1255.7031 Q665.3438,1255.3281 664.7344,1255.1094 Q664.125,1254.8906 663.5,1254.8906 Q662.7344,1254.8906 662.0938,1255.2188 Q661.4688,1255.5469 660.9688,1256.2969 Q660.4844,1257.0469 660.4844,1258.0781 L660.4844,1259.1719 Q660.4844,1260.4063 661.375,1261.2344 Q662.2656,1262.0469 663.8594,1262.0469 Q664.7969,1262.0469 665.4531,1261.7969 Q665.8438,1261.6406 666.2656,1261.2031 Q666.5313,1260.9375 666.6719,1260.8594 Q666.8281,1260.7813 667.0313,1260.7813 Q667.3594,1260.7813 667.6094,1261.0469 Q667.875,1261.2969 667.875,1261.6406 Q667.875,1261.9844 667.5313,1262.3906 Q667.0313,1262.9688 666.2344,1263.2969 Q665.1563,1263.75 663.8594,1263.75 Q662.3438,1263.75 661.1406,1263.125 Q660.1563,1262.625 659.4688,1261.5625 Q658.7813,1260.4844 658.7813,1259.2031 L658.7813,1258.0469 Q658.7813,1256.7188 659.3906,1255.5781 Q660.0156,1254.4219 661.1094,1253.8125 Q662.2031,1253.1875 663.4375,1253.1875 Q664.1719,1253.1875 664.8125,1253.3594 Q665.4688,1253.5156 666.0156,1253.875 Z " fill="#000000"/><text fill="#000000" font-family="sans-serif" font-size="14" lengthAdjust="spacing" textLength="121" x="683.75" y="1262.8535">RequestRepository</text><line style="stroke:#181818;stroke-width:0.5;" x1="564" x2="892" y1="1274" y2="1274"/><line style="stroke:#181818;stroke-width:0.5;" x1="564" x2="892" y1="1282" y2="1282"/><text fill="#000000" font-family="sans-serif" font-size="14" lengthAdjust="spacing" textLength="316" x="569" y="1298.6738">+createNewRequestSale(Property newAllProperty,</text><text fill="#000000" font-family="sans-serif" font-size="14" lengthAdjust="spacing" textLength="217" x="573" y="1314.3145">BusinessType keepBusinessType,</text><text fill="#000000" font-family="sans-serif" font-size="14" lengthAdjust="spacing" textLength="285" x="573" y="1329.9551">Employee keepAgent, double keepSalePrice)</text><text fill="#000000" font-family="sans-serif" font-size="14" lengthAdjust="spacing" textLength="318" x="569" y="1345.5957">+createNewRequestRent(Property newAllProperty,</text><text fill="#000000" font-family="sans-serif" font-size="14" lengthAdjust="spacing" textLength="217" x="573" y="1361.2363">BusinessType keepBusinessType,</text><text fill="#000000" font-family="sans-serif" font-size="14" lengthAdjust="spacing" textLength="286" x="573" y="1376.877">Employee keepAgent, double keepRentPrice,</text><text fill="#000000" font-family="sans-serif" font-size="14" lengthAdjust="spacing" textLength="170" x="573" y="1392.5176">int keepDuractionContract)</text></g><!--class StoreRepository--><g id="elem_StoreRepository"><rect codeLine="177" fill="#F1F1F1" height="63.6406" id="StoreRepository" rx="2.5" ry="2.5" style="stroke:#181818;stroke-width:0.5;" width="134" x="1030" y="1148"/><ellipse cx="1045" cy="1164" fill="#ADD1B2" rx="11" ry="11" style="stroke:#181818;stroke-width:1.0;"/><path d="M1047.7656,1159.875 Q1047.9219,1159.6563 1048.1094,1159.5469 Q1048.2969,1159.4375 1048.5156,1159.4375 Q1048.8906,1159.4375 1049.125,1159.7031 Q1049.3594,1159.9531 1049.3594,1160.5625 L1049.3594,1162.0156 Q1049.3594,1162.625 1049.125,1162.8906 Q1048.8906,1163.1563 1048.5156,1163.1563 Q1048.1719,1163.1563 1047.9688,1162.9531 Q1047.7656,1162.7656 1047.6563,1162.25 Q1047.6094,1161.8906 1047.4219,1161.7031 Q1047.0938,1161.3281 1046.4844,1161.1094 Q1045.875,1160.8906 1045.25,1160.8906 Q1044.4844,1160.8906 1043.8438,1161.2188 Q1043.2188,1161.5469 1042.7188,1162.2969 Q1042.2344,1163.0469 1042.2344,1164.0781 L1042.2344,1165.1719 Q1042.2344,1166.4063 1043.125,1167.2344 Q1044.0156,1168.0469 1045.6094,1168.0469 Q1046.5469,1168.0469 1047.2031,1167.7969 Q1047.5938,1167.6406 1048.0156,1167.2031 Q1048.2813,1166.9375 1048.4219,1166.8594 Q1048.5781,1166.7813 1048.7813,1166.7813 Q1049.1094,1166.7813 1049.3594,1167.0469 Q1049.625,1167.2969 1049.625,1167.6406 Q1049.625,1167.9844 1049.2813,1168.3906 Q1048.7813,1168.9688 1047.9844,1169.2969 Q1046.9063,1169.75 1045.6094,1169.75 Q1044.0938,1169.75 1042.8906,1169.125 Q1041.9063,1168.625 1041.2188,1167.5625 Q1040.5313,1166.4844 1040.5313,1165.2031 L1040.5313,1164.0469 Q1040.5313,1162.7188 1041.1406,1161.5781 Q1041.7656,1160.4219 1042.8594,1159.8125 Q1043.9531,1159.1875 1045.1875,1159.1875 Q1045.9219,1159.1875 1046.5625,1159.3594 Q1047.2188,1159.5156 1047.7656,1159.875 Z " fill="#000000"/><text fill="#000000" font-family="sans-serif" font-size="14" lengthAdjust="spacing" textLength="102" x="1059" y="1168.8535">StoreRepository</text><line style="stroke:#181818;stroke-width:0.5;" x1="1031" x2="1163" y1="1180" y2="1180"/><line style="stroke:#181818;stroke-width:0.5;" x1="1031" x2="1163" y1="1188" y2="1188"/><text fill="#000000" font-family="sans-serif" font-size="14" lengthAdjust="spacing" textLength="97" x="1036" y="1204.6738">+getAgentList()</text></g><!--class PersonRepository--><g id="elem_PersonRepository"><rect fill="#F1F1F1" height="48" id="PersonRepository" rx="2.5" ry="2.5" style="stroke:#181818;stroke-width:0.5;" width="145" x="849.5" y="1156"/><ellipse cx="864.5" cy="1172" fill="#ADD1B2" rx="11" ry="11" style="stroke:#181818;stroke-width:1.0;"/><path d="M867.2656,1167.875 Q867.4219,1167.6563 867.6094,1167.5469 Q867.7969,1167.4375 868.0156,1167.4375 Q868.3906,1167.4375 868.625,1167.7031 Q868.8594,1167.9531 868.8594,1168.5625 L868.8594,1170.0156 Q868.8594,1170.625 868.625,1170.8906 Q868.3906,1171.1563 868.0156,1171.1563 Q867.6719,1171.1563 867.4688,1170.9531 Q867.2656,1170.7656 867.1563,1170.25 Q867.1094,1169.8906 866.9219,1169.7031 Q866.5938,1169.3281 865.9844,1169.1094 Q865.375,1168.8906 864.75,1168.8906 Q863.9844,1168.8906 863.3438,1169.2188 Q862.7188,1169.5469 862.2188,1170.2969 Q861.7344,1171.0469 861.7344,1172.0781 L861.7344,1173.1719 Q861.7344,1174.4063 862.625,1175.2344 Q863.5156,1176.0469 865.1094,1176.0469 Q866.0469,1176.0469 866.7031,1175.7969 Q867.0938,1175.6406 867.5156,1175.2031 Q867.7813,1174.9375 867.9219,1174.8594 Q868.0781,1174.7813 868.2813,1174.7813 Q868.6094,1174.7813 868.8594,1175.0469 Q869.125,1175.2969 869.125,1175.6406 Q869.125,1175.9844 868.7813,1176.3906 Q868.2813,1176.9688 867.4844,1177.2969 Q866.4063,1177.75 865.1094,1177.75 Q863.5938,1177.75 862.3906,1177.125 Q861.4063,1176.625 860.7188,1175.5625 Q860.0313,1174.4844 860.0313,1173.2031 L860.0313,1172.0469 Q860.0313,1170.7188 860.6406,1169.5781 Q861.2656,1168.4219 862.3594,1167.8125 Q863.4531,1167.1875 864.6875,1167.1875 Q865.4219,1167.1875 866.0625,1167.3594 Q866.7188,1167.5156 867.2656,1167.875 Z " fill="#000000"/><text fill="#000000" font-family="sans-serif" font-size="14" lengthAdjust="spacing" textLength="113" x="878.5" y="1176.8535">PersonRepository</text><line style="stroke:#181818;stroke-width:0.5;" x1="850.5" x2="993.5" y1="1188" y2="1188"/><line style="stroke:#181818;stroke-width:0.5;" x1="850.5" x2="993.5" y1="1196" y2="1196"/></g><!--class Property--><g id="elem_Property"><rect codeLine="104" fill="#F1F1F1" height="110.5625" id="Property" rx="2.5" ry="2.5" style="stroke:#181818;stroke-width:0.5;" width="176" x="1021" y="2336"/><ellipse cx="1077.75" cy="2352" fill="#ADD1B2" rx="11" ry="11" style="stroke:#181818;stroke-width:1.0;"/><path d="M1080.5156,2347.875 Q1080.6719,2347.6563 1080.8594,2347.5469 Q1081.0469,2347.4375 1081.2656,2347.4375 Q1081.6406,2347.4375 1081.875,2347.7031 Q1082.1094,2347.9531 1082.1094,2348.5625 L1082.1094,2350.0156 Q1082.1094,2350.625 1081.875,2350.8906 Q1081.6406,2351.1563 1081.2656,2351.1563 Q1080.9219,2351.1563 1080.7188,2350.9531 Q1080.5156,2350.7656 1080.4063,2350.25 Q1080.3594,2349.8906 1080.1719,2349.7031 Q1079.8438,2349.3281 1079.2344,2349.1094 Q1078.625,2348.8906 1078,2348.8906 Q1077.2344,2348.8906 1076.5938,2349.2188 Q1075.9688,2349.5469 1075.4688,2350.2969 Q1074.9844,2351.0469 1074.9844,2352.0781 L1074.9844,2353.1719 Q1074.9844,2354.4063 1075.875,2355.2344 Q1076.7656,2356.0469 1078.3594,2356.0469 Q1079.2969,2356.0469 1079.9531,2355.7969 Q1080.3438,2355.6406 1080.7656,2355.2031 Q1081.0313,2354.9375 1081.1719,2354.8594 Q1081.3281,2354.7813 1081.5313,2354.7813 Q1081.8594,2354.7813 1082.1094,2355.0469 Q1082.375,2355.2969 1082.375,2355.6406 Q1082.375,2355.9844 1082.0313,2356.3906 Q1081.5313,2356.9688 1080.7344,2357.2969 Q1079.6563,2357.75 1078.3594,2357.75 Q1076.8438,2357.75 1075.6406,2357.125 Q1074.6563,2356.625 1073.9688,2355.5625 Q1073.2813,2354.4844 1073.2813,2353.2031 L1073.2813,2352.0469 Q1073.2813,2350.7188 1073.8906,2349.5781 Q1074.5156,2348.4219 1075.6094,2347.8125 Q1076.7031,2347.1875 1077.9375,2347.1875 Q1078.6719,2347.1875 1079.3125,2347.3594 Q1079.9688,2347.5156 1080.5156,2347.875 Z " fill="#000000"/><text fill="#000000" font-family="sans-serif" font-size="14" lengthAdjust="spacing" textLength="54" x="1098.25" y="2356.8535">Property</text><line style="stroke:#181818;stroke-width:0.5;" x1="1022" x2="1196" y1="2368" y2="2368"/><text fill="#000000" font-family="sans-serif" font-size="14" lengthAdjust="spacing" textLength="81" x="1027" y="2384.6738">-double area</text><text fill="#000000" font-family="sans-serif" font-size="14" lengthAdjust="spacing" textLength="105" x="1027" y="2400.3145">-double distance</text><text fill="#000000" font-family="sans-serif" font-size="14" lengthAdjust="spacing" textLength="112" x="1027" y="2415.9551">-Location location</text><text fill="#000000" font-family="sans-serif" font-size="14" lengthAdjust="spacing" textLength="164" x="1027" y="2431.5957">-List&lt;String&gt; photographs</text><line style="stroke:#181818;stroke-width:0.5;" x1="1022" x2="1196" y1="2438.5625" y2="2438.5625"/></g><!--class Location--><g id="elem_Location"><rect codeLine="204" fill="#F1F1F1" height="126.2031" id="Location" rx="2.5" ry="2.5" style="stroke:#181818;stroke-width:0.5;" width="86" x="1075" y="1890.5"/><ellipse cx="1090" cy="1906.5" fill="#ADD1B2" rx="11" ry="11" style="stroke:#181818;stroke-width:1.0;"/><path d="M1092.7656,1902.375 Q1092.9219,1902.1563 1093.1094,1902.0469 Q1093.2969,1901.9375 1093.5156,1901.9375 Q1093.8906,1901.9375 1094.125,1902.2031 Q1094.3594,1902.4531 1094.3594,1903.0625 L1094.3594,1904.5156 Q1094.3594,1905.125 1094.125,1905.3906 Q1093.8906,1905.6563 1093.5156,1905.6563 Q1093.1719,1905.6563 1092.9688,1905.4531 Q1092.7656,1905.2656 1092.6563,1904.75 Q1092.6094,1904.3906 1092.4219,1904.2031 Q1092.0938,1903.8281 1091.4844,1903.6094 Q1090.875,1903.3906 1090.25,1903.3906 Q1089.4844,1903.3906 1088.8438,1903.7188 Q1088.2188,1904.0469 1087.7188,1904.7969 Q1087.2344,1905.5469 1087.2344,1906.5781 L1087.2344,1907.6719 Q1087.2344,1908.9063 1088.125,1909.7344 Q1089.0156,1910.5469 1090.6094,1910.5469 Q1091.5469,1910.5469 1092.2031,1910.2969 Q1092.5938,1910.1406 1093.0156,1909.7031 Q1093.2813,1909.4375 1093.4219,1909.3594 Q1093.5781,1909.2813 1093.7813,1909.2813 Q1094.1094,1909.2813 1094.3594,1909.5469 Q1094.625,1909.7969 1094.625,1910.1406 Q1094.625,1910.4844 1094.2813,1910.8906 Q1093.7813,1911.4688 1092.9844,1911.7969 Q1091.9063,1912.25 1090.6094,1912.25 Q1089.0938,1912.25 1087.8906,1911.625 Q1086.9063,1911.125 1086.2188,1910.0625 Q1085.5313,1908.9844 1085.5313,1907.7031 L1085.5313,1906.5469 Q1085.5313,1905.2188 1086.1406,1904.0781 Q1086.7656,1902.9219 1087.8594,1902.3125 Q1088.9531,1901.6875 1090.1875,1901.6875 Q1090.9219,1901.6875 1091.5625,1901.8594 Q1092.2188,1902.0156 1092.7656,1902.375 Z " fill="#000000"/><text fill="#000000" font-family="sans-serif" font-size="14" lengthAdjust="spacing" textLength="54" x="1104" y="1911.3535">Location</text><line style="stroke:#181818;stroke-width:0.5;" x1="1076" x2="1160" y1="1922.5" y2="1922.5"/><text fill="#000000" font-family="sans-serif" font-size="14" lengthAdjust="spacing" textLength="36" x="1081" y="1939.1738">street</text><text fill="#000000" font-family="sans-serif" font-size="14" lengthAdjust="spacing" textLength="51" x="1081" y="1954.8145">zipCode</text><text fill="#000000" font-family="sans-serif" font-size="14" lengthAdjust="spacing" textLength="49" x="1081" y="1970.4551">stateUS</text><text fill="#000000" font-family="sans-serif" font-size="14" lengthAdjust="spacing" textLength="21" x="1081" y="1986.0957">city</text><text fill="#000000" font-family="sans-serif" font-size="14" lengthAdjust="spacing" textLength="41" x="1081" y="2001.7363">district</text><line style="stroke:#181818;stroke-width:0.5;" x1="1076" x2="1160" y1="2008.7031" y2="2008.7031"/></g><!--class PropertyType--><g id="elem_PropertyType"><rect codeLine="129" fill="#F1F1F1" height="63.6406" id="PropertyType" rx="2.5" ry="2.5" style="stroke:#181818;stroke-width:0.5;" width="131" x="1307.5" y="2508"/><ellipse cx="1328.35" cy="2524" fill="#ADD1B2" rx="11" ry="11" style="stroke:#181818;stroke-width:1.0;"/><path d="M1331.1156,2519.875 Q1331.2719,2519.6563 1331.4594,2519.5469 Q1331.6469,2519.4375 1331.8656,2519.4375 Q1332.2406,2519.4375 1332.475,2519.7031 Q1332.7094,2519.9531 1332.7094,2520.5625 L1332.7094,2522.0156 Q1332.7094,2522.625 1332.475,2522.8906 Q1332.2406,2523.1563 1331.8656,2523.1563 Q1331.5219,2523.1563 1331.3188,2522.9531 Q1331.1156,2522.7656 1331.0063,2522.25 Q1330.9594,2521.8906 1330.7719,2521.7031 Q1330.4438,2521.3281 1329.8344,2521.1094 Q1329.225,2520.8906 1328.6,2520.8906 Q1327.8344,2520.8906 1327.1938,2521.2188 Q1326.5688,2521.5469 1326.0688,2522.2969 Q1325.5844,2523.0469 1325.5844,2524.0781 L1325.5844,2525.1719 Q1325.5844,2526.4063 1326.475,2527.2344 Q1327.3656,2528.0469 1328.9594,2528.0469 Q1329.8969,2528.0469 1330.5531,2527.7969 Q1330.9438,2527.6406 1331.3656,2527.2031 Q1331.6313,2526.9375 1331.7719,2526.8594 Q1331.9281,2526.7813 1332.1313,2526.7813 Q1332.4594,2526.7813 1332.7094,2527.0469 Q1332.975,2527.2969 1332.975,2527.6406 Q1332.975,2527.9844 1332.6313,2528.3906 Q1332.1313,2528.9688 1331.3344,2529.2969 Q1330.2563,2529.75 1328.9594,2529.75 Q1327.4438,2529.75 1326.2406,2529.125 Q1325.2563,2528.625 1324.5688,2527.5625 Q1323.8813,2526.4844 1323.8813,2525.2031 L1323.8813,2524.0469 Q1323.8813,2522.7188 1324.4906,2521.5781 Q1325.1156,2520.4219 1326.2094,2519.8125 Q1327.3031,2519.1875 1328.5375,2519.1875 Q1329.2719,2519.1875 1329.9125,2519.3594 Q1330.5688,2519.5156 1331.1156,2519.875 Z " fill="#000000"/><text fill="#000000" font-family="sans-serif" font-size="14" lengthAdjust="spacing" textLength="86" x="1343.65" y="2528.8535">PropertyType</text><line style="stroke:#181818;stroke-width:0.5;" x1="1308.5" x2="1437.5" y1="2540" y2="2540"/><text fill="#000000" font-family="sans-serif" font-size="14" lengthAdjust="spacing" textLength="119" x="1313.5" y="2556.6738">-String designation</text><line style="stroke:#181818;stroke-width:0.5;" x1="1308.5" x2="1437.5" y1="2563.6406" y2="2563.6406"/></g><!--class Building--><g id="elem_Building"><rect codeLine="133" fill="#F1F1F1" height="110.5625" id="Building" rx="2.5" ry="2.5" style="stroke:#181818;stroke-width:0.5;" width="185" x="1135.5" y="2164"/><ellipse cx="1198.75" cy="2180" fill="#ADD1B2" rx="11" ry="11" style="stroke:#181818;stroke-width:1.0;"/><path d="M1201.5156,2175.875 Q1201.6719,2175.6563 1201.8594,2175.5469 Q1202.0469,2175.4375 1202.2656,2175.4375 Q1202.6406,2175.4375 1202.875,2175.7031 Q1203.1094,2175.9531 1203.1094,2176.5625 L1203.1094,2178.0156 Q1203.1094,2178.625 1202.875,2178.8906 Q1202.6406,2179.1563 1202.2656,2179.1563 Q1201.9219,2179.1563 1201.7188,2178.9531 Q1201.5156,2178.7656 1201.4063,2178.25 Q1201.3594,2177.8906 1201.1719,2177.7031 Q1200.8438,2177.3281 1200.2344,2177.1094 Q1199.625,2176.8906 1199,2176.8906 Q1198.2344,2176.8906 1197.5938,2177.2188 Q1196.9688,2177.5469 1196.4688,2178.2969 Q1195.9844,2179.0469 1195.9844,2180.0781 L1195.9844,2181.1719 Q1195.9844,2182.4063 1196.875,2183.2344 Q1197.7656,2184.0469 1199.3594,2184.0469 Q1200.2969,2184.0469 1200.9531,2183.7969 Q1201.3438,2183.6406 1201.7656,2183.2031 Q1202.0313,2182.9375 1202.1719,2182.8594 Q1202.3281,2182.7813 1202.5313,2182.7813 Q1202.8594,2182.7813 1203.1094,2183.0469 Q1203.375,2183.2969 1203.375,2183.6406 Q1203.375,2183.9844 1203.0313,2184.3906 Q1202.5313,2184.9688 1201.7344,2185.2969 Q1200.6563,2185.75 1199.3594,2185.75 Q1197.8438,2185.75 1196.6406,2185.125 Q1195.6563,2184.625 1194.9688,2183.5625 Q1194.2813,2182.4844 1194.2813,2181.2031 L1194.2813,2180.0469 Q1194.2813,2178.7188 1194.8906,2177.5781 Q1195.5156,2176.4219 1196.6094,2175.8125 Q1197.7031,2175.1875 1198.9375,2175.1875 Q1199.6719,2175.1875 1200.3125,2175.3594 Q1200.9688,2175.5156 1201.5156,2175.875 Z " fill="#000000"/><text fill="#000000" font-family="sans-serif" font-size="14" lengthAdjust="spacing" textLength="50" x="1219.25" y="2184.8535">Building</text><line style="stroke:#181818;stroke-width:0.5;" x1="1136.5" x2="1319.5" y1="2196" y2="2196"/><text fill="#000000" font-family="sans-serif" font-size="14" lengthAdjust="spacing" textLength="140" x="1141.5" y="2212.6738">-int: numberBedrooms</text><text fill="#000000" font-family="sans-serif" font-size="14" lengthAdjust="spacing" textLength="124" x="1141.5" y="2228.3145">-int: numberParking</text><text fill="#000000" font-family="sans-serif" font-size="14" lengthAdjust="spacing" textLength="144" x="1141.5" y="2243.9551">-int: numberBathrooms</text><text fill="#000000" font-family="sans-serif" font-size="14" lengthAdjust="spacing" textLength="173" x="1141.5" y="2259.5957">-String: availableEquipment</text><line style="stroke:#181818;stroke-width:0.5;" x1="1136.5" x2="1319.5" y1="2266.5625" y2="2266.5625"/></g><!--class House--><g id="elem_House"><rect codeLine="141" fill="#F1F1F1" height="79.2813" id="House" rx="2.5" ry="2.5" style="stroke:#181818;stroke-width:0.5;" width="158" x="1238" y="1664"/><ellipse cx="1292.75" cy="1680" fill="#ADD1B2" rx="11" ry="11" style="stroke:#181818;stroke-width:1.0;"/><path d="M1295.5156,1675.875 Q1295.6719,1675.6563 1295.8594,1675.5469 Q1296.0469,1675.4375 1296.2656,1675.4375 Q1296.6406,1675.4375 1296.875,1675.7031 Q1297.1094,1675.9531 1297.1094,1676.5625 L1297.1094,1678.0156 Q1297.1094,1678.625 1296.875,1678.8906 Q1296.6406,1679.1563 1296.2656,1679.1563 Q1295.9219,1679.1563 1295.7188,1678.9531 Q1295.5156,1678.7656 1295.4063,1678.25 Q1295.3594,1677.8906 1295.1719,1677.7031 Q1294.8438,1677.3281 1294.2344,1677.1094 Q1293.625,1676.8906 1293,1676.8906 Q1292.2344,1676.8906 1291.5938,1677.2188 Q1290.9688,1677.5469 1290.4688,1678.2969 Q1289.9844,1679.0469 1289.9844,1680.0781 L1289.9844,1681.1719 Q1289.9844,1682.4063 1290.875,1683.2344 Q1291.7656,1684.0469 1293.3594,1684.0469 Q1294.2969,1684.0469 1294.9531,1683.7969 Q1295.3438,1683.6406 1295.7656,1683.2031 Q1296.0313,1682.9375 1296.1719,1682.8594 Q1296.3281,1682.7813 1296.5313,1682.7813 Q1296.8594,1682.7813 1297.1094,1683.0469 Q1297.375,1683.2969 1297.375,1683.6406 Q1297.375,1683.9844 1297.0313,1684.3906 Q1296.5313,1684.9688 1295.7344,1685.2969 Q1294.6563,1685.75 1293.3594,1685.75 Q1291.8438,1685.75 1290.6406,1685.125 Q1289.6563,1684.625 1288.9688,1683.5625 Q1288.2813,1682.4844 1288.2813,1681.2031 L1288.2813,1680.0469 Q1288.2813,1678.7188 1288.8906,1677.5781 Q1289.5156,1676.4219 1290.6094,1675.8125 Q1291.7031,1675.1875 1292.9375,1675.1875 Q1293.6719,1675.1875 1294.3125,1675.3594 Q1294.9688,1675.5156 1295.5156,1675.875 Z " fill="#000000"/><text fill="#000000" font-family="sans-serif" font-size="14" lengthAdjust="spacing" textLength="40" x="1313.25" y="1684.8535">House</text><line style="stroke:#181818;stroke-width:0.5;" x1="1239" x2="1395" y1="1696" y2="1696"/><text fill="#000000" font-family="sans-serif" font-size="14" lengthAdjust="spacing" textLength="126" x="1244" y="1712.6738">-boolean: basement</text><text fill="#000000" font-family="sans-serif" font-size="14" lengthAdjust="spacing" textLength="146" x="1244" y="1728.3145">-boolean: habitableLoft</text><line style="stroke:#181818;stroke-width:0.5;" x1="1239" x2="1395" y1="1735.2813" y2="1735.2813"/></g><!--class SunExposure--><g id="elem_SunExposure"><rect codeLine="148" fill="#F1F1F1" height="63.6406" id="SunExposure" rx="2.5" ry="2.5" style="stroke:#181818;stroke-width:0.5;" width="217" x="1181.5" y="1452.5"/><ellipse cx="1243.75" cy="1468.5" fill="#ADD1B2" rx="11" ry="11" style="stroke:#181818;stroke-width:1.0;"/><path d="M1246.5156,1464.375 Q1246.6719,1464.1563 1246.8594,1464.0469 Q1247.0469,1463.9375 1247.2656,1463.9375 Q1247.6406,1463.9375 1247.875,1464.2031 Q1248.1094,1464.4531 1248.1094,1465.0625 L1248.1094,1466.5156 Q1248.1094,1467.125 1247.875,1467.3906 Q1247.6406,1467.6563 1247.2656,1467.6563 Q1246.9219,1467.6563 1246.7188,1467.4531 Q1246.5156,1467.2656 1246.4063,1466.75 Q1246.3594,1466.3906 1246.1719,1466.2031 Q1245.8438,1465.8281 1245.2344,1465.6094 Q1244.625,1465.3906 1244,1465.3906 Q1243.2344,1465.3906 1242.5938,1465.7188 Q1241.9688,1466.0469 1241.4688,1466.7969 Q1240.9844,1467.5469 1240.9844,1468.5781 L1240.9844,1469.6719 Q1240.9844,1470.9063 1241.875,1471.7344 Q1242.7656,1472.5469 1244.3594,1472.5469 Q1245.2969,1472.5469 1245.9531,1472.2969 Q1246.3438,1472.1406 1246.7656,1471.7031 Q1247.0313,1471.4375 1247.1719,1471.3594 Q1247.3281,1471.2813 1247.5313,1471.2813 Q1247.8594,1471.2813 1248.1094,1471.5469 Q1248.375,1471.7969 1248.375,1472.1406 Q1248.375,1472.4844 1248.0313,1472.8906 Q1247.5313,1473.4688 1246.7344,1473.7969 Q1245.6563,1474.25 1244.3594,1474.25 Q1242.8438,1474.25 1241.6406,1473.625 Q1240.6563,1473.125 1239.9688,1472.0625 Q1239.2813,1470.9844 1239.2813,1469.7031 L1239.2813,1468.5469 Q1239.2813,1467.2188 1239.8906,1466.0781 Q1240.5156,1464.9219 1241.6094,1464.3125 Q1242.7031,1463.6875 1243.9375,1463.6875 Q1244.6719,1463.6875 1245.3125,1463.8594 Q1245.9688,1464.0156 1246.5156,1464.375 Z " fill="#000000"/><text fill="#000000" font-family="sans-serif" font-size="14" lengthAdjust="spacing" textLength="84" x="1264.25" y="1473.3535">SunExposure</text><line style="stroke:#181818;stroke-width:0.5;" x1="1182.5" x2="1397.5" y1="1484.5" y2="1484.5"/><text fill="#000000" font-family="sans-serif" font-size="14" lengthAdjust="spacing" textLength="205" x="1187.5" y="1501.1738">-String: North, South, East, West</text><line style="stroke:#181818;stroke-width:0.5;" x1="1182.5" x2="1397.5" y1="1508.1406" y2="1508.1406"/></g><!--class Request--><g id="elem_Request"><rect codeLine="156" fill="#F1F1F1" height="63.6406" id="Request" rx="2.5" ry="2.5" style="stroke:#181818;stroke-width:0.5;" width="85" x="659.5" y="1671.5"/><ellipse cx="674.5" cy="1687.5" fill="#ADD1B2" rx="11" ry="11" style="stroke:#181818;stroke-width:1.0;"/><path d="M677.2656,1683.375 Q677.4219,1683.1563 677.6094,1683.0469 Q677.7969,1682.9375 678.0156,1682.9375 Q678.3906,1682.9375 678.625,1683.2031 Q678.8594,1683.4531 678.8594,1684.0625 L678.8594,1685.5156 Q678.8594,1686.125 678.625,1686.3906 Q678.3906,1686.6563 678.0156,1686.6563 Q677.6719,1686.6563 677.4688,1686.4531 Q677.2656,1686.2656 677.1563,1685.75 Q677.1094,1685.3906 676.9219,1685.2031 Q676.5938,1684.8281 675.9844,1684.6094 Q675.375,1684.3906 674.75,1684.3906 Q673.9844,1684.3906 673.3438,1684.7188 Q672.7188,1685.0469 672.2188,1685.7969 Q671.7344,1686.5469 671.7344,1687.5781 L671.7344,1688.6719 Q671.7344,1689.9063 672.625,1690.7344 Q673.5156,1691.5469 675.1094,1691.5469 Q676.0469,1691.5469 676.7031,1691.2969 Q677.0938,1691.1406 677.5156,1690.7031 Q677.7813,1690.4375 677.9219,1690.3594 Q678.0781,1690.2813 678.2813,1690.2813 Q678.6094,1690.2813 678.8594,1690.5469 Q679.125,1690.7969 679.125,1691.1406 Q679.125,1691.4844 678.7813,1691.8906 Q678.2813,1692.4688 677.4844,1692.7969 Q676.4063,1693.25 675.1094,1693.25 Q673.5938,1693.25 672.3906,1692.625 Q671.4063,1692.125 670.7188,1691.0625 Q670.0313,1689.9844 670.0313,1688.7031 L670.0313,1687.5469 Q670.0313,1686.2188 670.6406,1685.0781 Q671.2656,1683.9219 672.3594,1683.3125 Q673.4531,1682.6875 674.6875,1682.6875 Q675.4219,1682.6875 676.0625,1682.8594 Q676.7188,1683.0156 677.2656,1683.375 Z " fill="#000000"/><text fill="#000000" font-family="sans-serif" font-size="14" lengthAdjust="spacing" textLength="53" x="688.5" y="1692.3535">Request</text><line style="stroke:#181818;stroke-width:0.5;" x1="660.5" x2="743.5" y1="1703.5" y2="1703.5"/><text fill="#000000" font-family="sans-serif" font-size="14" lengthAdjust="spacing" textLength="67" x="665.5" y="1720.1738">-Date date</text><line style="stroke:#181818;stroke-width:0.5;" x1="660.5" x2="743.5" y1="1727.1406" y2="1727.1406"/></g><!--class BusinessType--><g id="elem_BusinessType"><rect codeLine="190" fill="#F1F1F1" height="63.6406" id="BusinessType" rx="2.5" ry="2.5" style="stroke:#181818;stroke-width:0.5;" width="121" x="1713.5" y="1671.5"/><ellipse cx="1728.5" cy="1687.5" fill="#ADD1B2" rx="11" ry="11" style="stroke:#181818;stroke-width:1.0;"/><path d="M1731.2656,1683.375 Q1731.4219,1683.1563 1731.6094,1683.0469 Q1731.7969,1682.9375 1732.0156,1682.9375 Q1732.3906,1682.9375 1732.625,1683.2031 Q1732.8594,1683.4531 1732.8594,1684.0625 L1732.8594,1685.5156 Q1732.8594,1686.125 1732.625,1686.3906 Q1732.3906,1686.6563 1732.0156,1686.6563 Q1731.6719,1686.6563 1731.4688,1686.4531 Q1731.2656,1686.2656 1731.1563,1685.75 Q1731.1094,1685.3906 1730.9219,1685.2031 Q1730.5938,1684.8281 1729.9844,1684.6094 Q1729.375,1684.3906 1728.75,1684.3906 Q1727.9844,1684.3906 1727.3438,1684.7188 Q1726.7188,1685.0469 1726.2188,1685.7969 Q1725.7344,1686.5469 1725.7344,1687.5781 L1725.7344,1688.6719 Q1725.7344,1689.9063 1726.625,1690.7344 Q1727.5156,1691.5469 1729.1094,1691.5469 Q1730.0469,1691.5469 1730.7031,1691.2969 Q1731.0938,1691.1406 1731.5156,1690.7031 Q1731.7813,1690.4375 1731.9219,1690.3594 Q1732.0781,1690.2813 1732.2813,1690.2813 Q1732.6094,1690.2813 1732.8594,1690.5469 Q1733.125,1690.7969 1733.125,1691.1406 Q1733.125,1691.4844 1732.7813,1691.8906 Q1732.2813,1692.4688 1731.4844,1692.7969 Q1730.4063,1693.25 1729.1094,1693.25 Q1727.5938,1693.25 1726.3906,1692.625 Q1725.4063,1692.125 1724.7188,1691.0625 Q1724.0313,1689.9844 1724.0313,1688.7031 L1724.0313,1687.5469 Q1724.0313,1686.2188 1724.6406,1685.0781 Q1725.2656,1683.9219 1726.3594,1683.3125 Q1727.4531,1682.6875 1728.6875,1682.6875 Q1729.4219,1682.6875 1730.0625,1682.8594 Q1730.7188,1683.0156 1731.2656,1683.375 Z " fill="#000000"/><text fill="#000000" font-family="sans-serif" font-size="14" lengthAdjust="spacing" textLength="89" x="1742.5" y="1692.3535">BusinessType</text><line style="stroke:#181818;stroke-width:0.5;" x1="1714.5" x2="1833.5" y1="1703.5" y2="1703.5"/><text fill="#000000" font-family="sans-serif" font-size="14" lengthAdjust="spacing" textLength="78" x="1719.5" y="1720.1738">-designation</text><line style="stroke:#181818;stroke-width:0.5;" x1="1714.5" x2="1833.5" y1="1727.1406" y2="1727.1406"/></g><!--class Agent--><g id="elem_Agent"><rect codeLine="182" fill="#F1F1F1" height="48" id="Agent" rx="2.5" ry="2.5" style="stroke:#181818;stroke-width:0.5;" width="69" x="900.5" y="2195.5"/><ellipse cx="915.5" cy="2211.5" fill="#ADD1B2" rx="11" ry="11" style="stroke:#181818;stroke-width:1.0;"/><path d="M918.2656,2207.375 Q918.4219,2207.1563 918.6094,2207.0469 Q918.7969,2206.9375 919.0156,2206.9375 Q919.3906,2206.9375 919.625,2207.2031 Q919.8594,2207.4531 919.8594,2208.0625 L919.8594,2209.5156 Q919.8594,2210.125 919.625,2210.3906 Q919.3906,2210.6563 919.0156,2210.6563 Q918.6719,2210.6563 918.4688,2210.4531 Q918.2656,2210.2656 918.1563,2209.75 Q918.1094,2209.3906 917.9219,2209.2031 Q917.5938,2208.8281 916.9844,2208.6094 Q916.375,2208.3906 915.75,2208.3906 Q914.9844,2208.3906 914.3438,2208.7188 Q913.7188,2209.0469 913.2188,2209.7969 Q912.7344,2210.5469 912.7344,2211.5781 L912.7344,2212.6719 Q912.7344,2213.9063 913.625,2214.7344 Q914.5156,2215.5469 916.1094,2215.5469 Q917.0469,2215.5469 917.7031,2215.2969 Q918.0938,2215.1406 918.5156,2214.7031 Q918.7813,2214.4375 918.9219,2214.3594 Q919.0781,2214.2813 919.2813,2214.2813 Q919.6094,2214.2813 919.8594,2214.5469 Q920.125,2214.7969 920.125,2215.1406 Q920.125,2215.4844 919.7813,2215.8906 Q919.2813,2216.4688 918.4844,2216.7969 Q917.4063,2217.25 916.1094,2217.25 Q914.5938,2217.25 913.3906,2216.625 Q912.4063,2216.125 911.7188,2215.0625 Q911.0313,2213.9844 911.0313,2212.7031 L911.0313,2211.5469 Q911.0313,2210.2188 911.6406,2209.0781 Q912.2656,2207.9219 913.3594,2207.3125 Q914.4531,2206.6875 915.6875,2206.6875 Q916.4219,2206.6875 917.0625,2206.8594 Q917.7188,2207.0156 918.2656,2207.375 Z " fill="#000000"/><text fill="#000000" font-family="sans-serif" font-size="14" lengthAdjust="spacing" textLength="37" x="929.5" y="2216.3535">Agent</text><line style="stroke:#181818;stroke-width:0.5;" x1="901.5" x2="968.5" y1="2227.5" y2="2227.5"/><line style="stroke:#181818;stroke-width:0.5;" x1="901.5" x2="968.5" y1="2235.5" y2="2235.5"/></g><!--class Owner--><g id="elem_Owner"><rect codeLine="215" fill="#F1F1F1" height="48" id="Owner" rx="2.5" ry="2.5" style="stroke:#181818;stroke-width:0.5;" width="73" x="779.5" y="1679.5"/><ellipse cx="794.5" cy="1695.5" fill="#ADD1B2" rx="11" ry="11" style="stroke:#181818;stroke-width:1.0;"/><path d="M797.2656,1691.375 Q797.4219,1691.1563 797.6094,1691.0469 Q797.7969,1690.9375 798.0156,1690.9375 Q798.3906,1690.9375 798.625,1691.2031 Q798.8594,1691.4531 798.8594,1692.0625 L798.8594,1693.5156 Q798.8594,1694.125 798.625,1694.3906 Q798.3906,1694.6563 798.0156,1694.6563 Q797.6719,1694.6563 797.4688,1694.4531 Q797.2656,1694.2656 797.1563,1693.75 Q797.1094,1693.3906 796.9219,1693.2031 Q796.5938,1692.8281 795.9844,1692.6094 Q795.375,1692.3906 794.75,1692.3906 Q793.9844,1692.3906 793.3438,1692.7188 Q792.7188,1693.0469 792.2188,1693.7969 Q791.7344,1694.5469 791.7344,1695.5781 L791.7344,1696.6719 Q791.7344,1697.9063 792.625,1698.7344 Q793.5156,1699.5469 795.1094,1699.5469 Q796.0469,1699.5469 796.7031,1699.2969 Q797.0938,1699.1406 797.5156,1698.7031 Q797.7813,1698.4375 797.9219,1698.3594 Q798.0781,1698.2813 798.2813,1698.2813 Q798.6094,1698.2813 798.8594,1698.5469 Q799.125,1698.7969 799.125,1699.1406 Q799.125,1699.4844 798.7813,1699.8906 Q798.2813,1700.4688 797.4844,1700.7969 Q796.4063,1701.25 795.1094,1701.25 Q793.5938,1701.25 792.3906,1700.625 Q791.4063,1700.125 790.7188,1699.0625 Q790.0313,1697.9844 790.0313,1696.7031 L790.0313,1695.5469 Q790.0313,1694.2188 790.6406,1693.0781 Q791.2656,1691.9219 792.3594,1691.3125 Q793.4531,1690.6875 794.6875,1690.6875 Q795.4219,1690.6875 796.0625,1690.8594 Q796.7188,1691.0156 797.2656,1691.375 Z " fill="#000000"/><text fill="#000000" font-family="sans-serif" font-size="14" lengthAdjust="spacing" textLength="41" x="808.5" y="1700.3535">Owner</text><line style="stroke:#181818;stroke-width:0.5;" x1="780.5" x2="851.5" y1="1711.5" y2="1711.5"/><line style="stroke:#181818;stroke-width:0.5;" x1="780.5" x2="851.5" y1="1719.5" y2="1719.5"/></g><!--class Store--><g id="elem_Store"><rect codeLine="170" fill="#F1F1F1" height="110.5625" id="Store" rx="2.5" ry="2.5" style="stroke:#181818;stroke-width:0.5;" width="109" x="1034.5" y="1429"/><ellipse cx="1068.85" cy="1445" fill="#ADD1B2" rx="11" ry="11" style="stroke:#181818;stroke-width:1.0;"/><path d="M1071.6156,1440.875 Q1071.7719,1440.6563 1071.9594,1440.5469 Q1072.1469,1440.4375 1072.3656,1440.4375 Q1072.7406,1440.4375 1072.975,1440.7031 Q1073.2094,1440.9531 1073.2094,1441.5625 L1073.2094,1443.0156 Q1073.2094,1443.625 1072.975,1443.8906 Q1072.7406,1444.1563 1072.3656,1444.1563 Q1072.0219,1444.1563 1071.8188,1443.9531 Q1071.6156,1443.7656 1071.5063,1443.25 Q1071.4594,1442.8906 1071.2719,1442.7031 Q1070.9438,1442.3281 1070.3344,1442.1094 Q1069.725,1441.8906 1069.1,1441.8906 Q1068.3344,1441.8906 1067.6938,1442.2188 Q1067.0688,1442.5469 1066.5688,1443.2969 Q1066.0844,1444.0469 1066.0844,1445.0781 L1066.0844,1446.1719 Q1066.0844,1447.4063 1066.975,1448.2344 Q1067.8656,1449.0469 1069.4594,1449.0469 Q1070.3969,1449.0469 1071.0531,1448.7969 Q1071.4438,1448.6406 1071.8656,1448.2031 Q1072.1313,1447.9375 1072.2719,1447.8594 Q1072.4281,1447.7813 1072.6313,1447.7813 Q1072.9594,1447.7813 1073.2094,1448.0469 Q1073.475,1448.2969 1073.475,1448.6406 Q1073.475,1448.9844 1073.1313,1449.3906 Q1072.6313,1449.9688 1071.8344,1450.2969 Q1070.7563,1450.75 1069.4594,1450.75 Q1067.9438,1450.75 1066.7406,1450.125 Q1065.7563,1449.625 1065.0688,1448.5625 Q1064.3813,1447.4844 1064.3813,1446.2031 L1064.3813,1445.0469 Q1064.3813,1443.7188 1064.9906,1442.5781 Q1065.6156,1441.4219 1066.7094,1440.8125 Q1067.8031,1440.1875 1069.0375,1440.1875 Q1069.7719,1440.1875 1070.4125,1440.3594 Q1071.0688,1440.5156 1071.6156,1440.875 Z " fill="#000000"/><text fill="#000000" font-family="sans-serif" font-size="14" lengthAdjust="spacing" textLength="34" x="1087.15" y="1449.8535">Store</text><line style="stroke:#181818;stroke-width:0.5;" x1="1035.5" x2="1142.5" y1="1461" y2="1461"/><text fill="#000000" font-family="sans-serif" font-size="14" lengthAdjust="spacing" textLength="40" x="1040.5" y="1477.6738">-name</text><text fill="#000000" font-family="sans-serif" font-size="14" lengthAdjust="spacing" textLength="90" x="1040.5" y="1493.3145">-emailAddress</text><text fill="#000000" font-family="sans-serif" font-size="14" lengthAdjust="spacing" textLength="94" x="1040.5" y="1508.9551">-phoneNumber</text><line style="stroke:#181818;stroke-width:0.5;" x1="1035.5" x2="1142.5" y1="1515.9219" y2="1515.9219"/><text fill="#000000" font-family="sans-serif" font-size="14" lengthAdjust="spacing" textLength="97" x="1040.5" y="1532.5957">+getAgentList()</text></g><!--class BusinessTypeRent--><g id="elem_BusinessTypeRent"><rect codeLine="195" fill="#F1F1F1" height="79.2813" id="BusinessTypeRent" rx="2.5" ry="2.5" style="stroke:#181818;stroke-width:0.5;" width="151" x="1705.5" y="2180"/><ellipse cx="1720.5" cy="2196" fill="#ADD1B2" rx="11" ry="11" style="stroke:#181818;stroke-width:1.0;"/><path d="M1723.2656,2191.875 Q1723.4219,2191.6563 1723.6094,2191.5469 Q1723.7969,2191.4375 1724.0156,2191.4375 Q1724.3906,2191.4375 1724.625,2191.7031 Q1724.8594,2191.9531 1724.8594,2192.5625 L1724.8594,2194.0156 Q1724.8594,2194.625 1724.625,2194.8906 Q1724.3906,2195.1563 1724.0156,2195.1563 Q1723.6719,2195.1563 1723.4688,2194.9531 Q1723.2656,2194.7656 1723.1563,2194.25 Q1723.1094,2193.8906 1722.9219,2193.7031 Q1722.5938,2193.3281 1721.9844,2193.1094 Q1721.375,2192.8906 1720.75,2192.8906 Q1719.9844,2192.8906 1719.3438,2193.2188 Q1718.7188,2193.5469 1718.2188,2194.2969 Q1717.7344,2195.0469 1717.7344,2196.0781 L1717.7344,2197.1719 Q1717.7344,2198.4063 1718.625,2199.2344 Q1719.5156,2200.0469 1721.1094,2200.0469 Q1722.0469,2200.0469 1722.7031,2199.7969 Q1723.0938,2199.6406 1723.5156,2199.2031 Q1723.7813,2198.9375 1723.9219,2198.8594 Q1724.0781,2198.7813 1724.2813,2198.7813 Q1724.6094,2198.7813 1724.8594,2199.0469 Q1725.125,2199.2969 1725.125,2199.6406 Q1725.125,2199.9844 1724.7813,2200.3906 Q1724.2813,2200.9688 1723.4844,2201.2969 Q1722.4063,2201.75 1721.1094,2201.75 Q1719.5938,2201.75 1718.3906,2201.125 Q1717.4063,2200.625 1716.7188,2199.5625 Q1716.0313,2198.4844 1716.0313,2197.2031 L1716.0313,2196.0469 Q1716.0313,2194.7188 1716.6406,2193.5781 Q1717.2656,2192.4219 1718.3594,2191.8125 Q1719.4531,2191.1875 1720.6875,2191.1875 Q1721.4219,2191.1875 1722.0625,2191.3594 Q1722.7188,2191.5156 1723.2656,2191.875 Z " fill="#000000"/><text fill="#000000" font-family="sans-serif" font-size="14" lengthAdjust="spacing" textLength="119" x="1734.5" y="2200.8535">BusinessTypeRent</text><line style="stroke:#181818;stroke-width:0.5;" x1="1706.5" x2="1855.5" y1="2212" y2="2212"/><text fill="#000000" font-family="sans-serif" font-size="14" lengthAdjust="spacing" textLength="120" x="1711.5" y="2228.6738">-double:rentalPrice</text><text fill="#000000" font-family="sans-serif" font-size="14" lengthAdjust="spacing" textLength="130" x="1711.5" y="2244.3145">-int:durationContract</text><line style="stroke:#181818;stroke-width:0.5;" x1="1706.5" x2="1855.5" y1="2251.2813" y2="2251.2813"/></g><!--class BusinessTypeSale--><g id="elem_BusinessTypeSale"><rect codeLine="200" fill="#F1F1F1" height="63.6406" id="BusinessTypeSale" rx="2.5" ry="2.5" style="stroke:#181818;stroke-width:0.5;" width="149" x="1891.5" y="2187.5"/><ellipse cx="1906.5" cy="2203.5" fill="#ADD1B2" rx="11" ry="11" style="stroke:#181818;stroke-width:1.0;"/><path d="M1909.2656,2199.375 Q1909.4219,2199.1563 1909.6094,2199.0469 Q1909.7969,2198.9375 1910.0156,2198.9375 Q1910.3906,2198.9375 1910.625,2199.2031 Q1910.8594,2199.4531 1910.8594,2200.0625 L1910.8594,2201.5156 Q1910.8594,2202.125 1910.625,2202.3906 Q1910.3906,2202.6563 1910.0156,2202.6563 Q1909.6719,2202.6563 1909.4688,2202.4531 Q1909.2656,2202.2656 1909.1563,2201.75 Q1909.1094,2201.3906 1908.9219,2201.2031 Q1908.5938,2200.8281 1907.9844,2200.6094 Q1907.375,2200.3906 1906.75,2200.3906 Q1905.9844,2200.3906 1905.3438,2200.7188 Q1904.7188,2201.0469 1904.2188,2201.7969 Q1903.7344,2202.5469 1903.7344,2203.5781 L1903.7344,2204.6719 Q1903.7344,2205.9063 1904.625,2206.7344 Q1905.5156,2207.5469 1907.1094,2207.5469 Q1908.0469,2207.5469 1908.7031,2207.2969 Q1909.0938,2207.1406 1909.5156,2206.7031 Q1909.7813,2206.4375 1909.9219,2206.3594 Q1910.0781,2206.2813 1910.2813,2206.2813 Q1910.6094,2206.2813 1910.8594,2206.5469 Q1911.125,2206.7969 1911.125,2207.1406 Q1911.125,2207.4844 1910.7813,2207.8906 Q1910.2813,2208.4688 1909.4844,2208.7969 Q1908.4063,2209.25 1907.1094,2209.25 Q1905.5938,2209.25 1904.3906,2208.625 Q1903.4063,2208.125 1902.7188,2207.0625 Q1902.0313,2205.9844 1902.0313,2204.7031 L1902.0313,2203.5469 Q1902.0313,2202.2188 1902.6406,2201.0781 Q1903.2656,2199.9219 1904.3594,2199.3125 Q1905.4531,2198.6875 1906.6875,2198.6875 Q1907.4219,2198.6875 1908.0625,2198.8594 Q1908.7188,2199.0156 1909.2656,2199.375 Z " fill="#000000"/><text fill="#000000" font-family="sans-serif" font-size="14" lengthAdjust="spacing" textLength="117" x="1920.5" y="2208.3535">BusinessTypeSale</text><line style="stroke:#181818;stroke-width:0.5;" x1="1892.5" x2="2039.5" y1="2219.5" y2="2219.5"/><text fill="#000000" font-family="sans-serif" font-size="14" lengthAdjust="spacing" textLength="110" x="1897.5" y="2236.1738">-double:salePrice</text><line style="stroke:#181818;stroke-width:0.5;" x1="1892.5" x2="2039.5" y1="2243.1406" y2="2243.1406"/></g><!--class Employee--><g id="elem_Employee"><rect codeLine="212" fill="#F1F1F1" height="48" id="Employee" rx="2.5" ry="2.5" style="stroke:#181818;stroke-width:0.5;" width="94" x="888" y="1679.5"/><ellipse cx="903" cy="1695.5" fill="#ADD1B2" rx="11" ry="11" style="stroke:#181818;stroke-width:1.0;"/><path d="M905.7656,1691.375 Q905.9219,1691.1563 906.1094,1691.0469 Q906.2969,1690.9375 906.5156,1690.9375 Q906.8906,1690.9375 907.125,1691.2031 Q907.3594,1691.4531 907.3594,1692.0625 L907.3594,1693.5156 Q907.3594,1694.125 907.125,1694.3906 Q906.8906,1694.6563 906.5156,1694.6563 Q906.1719,1694.6563 905.9688,1694.4531 Q905.7656,1694.2656 905.6563,1693.75 Q905.6094,1693.3906 905.4219,1693.2031 Q905.0938,1692.8281 904.4844,1692.6094 Q903.875,1692.3906 903.25,1692.3906 Q902.4844,1692.3906 901.8438,1692.7188 Q901.2188,1693.0469 900.7188,1693.7969 Q900.2344,1694.5469 900.2344,1695.5781 L900.2344,1696.6719 Q900.2344,1697.9063 901.125,1698.7344 Q902.0156,1699.5469 903.6094,1699.5469 Q904.5469,1699.5469 905.2031,1699.2969 Q905.5938,1699.1406 906.0156,1698.7031 Q906.2813,1698.4375 906.4219,1698.3594 Q906.5781,1698.2813 906.7813,1698.2813 Q907.1094,1698.2813 907.3594,1698.5469 Q907.625,1698.7969 907.625,1699.1406 Q907.625,1699.4844 907.2813,1699.8906 Q906.7813,1700.4688 905.9844,1700.7969 Q904.9063,1701.25 903.6094,1701.25 Q902.0938,1701.25 900.8906,1700.625 Q899.9063,1700.125 899.2188,1699.0625 Q898.5313,1697.9844 898.5313,1696.7031 L898.5313,1695.5469 Q898.5313,1694.2188 899.1406,1693.0781 Q899.7656,1691.9219 900.8594,1691.3125 Q901.9531,1690.6875 903.1875,1690.6875 Q903.9219,1690.6875 904.5625,1690.8594 Q905.2188,1691.0156 905.7656,1691.375 Z " fill="#000000"/><text fill="#000000" font-family="sans-serif" font-size="14" lengthAdjust="spacing" textLength="62" x="917" y="1700.3535">Employee</text><line style="stroke:#181818;stroke-width:0.5;" x1="889" x2="981" y1="1711.5" y2="1711.5"/><line style="stroke:#181818;stroke-width:0.5;" x1="889" x2="981" y1="1719.5" y2="1719.5"/></g><!--class Person--><g id="elem_Person"><rect fill="#F1F1F1" height="48" id="Person" rx="2.5" ry="2.5" style="stroke:#181818;stroke-width:0.5;" width="77" x="883.5" y="1460.5"/><ellipse cx="898.5" cy="1476.5" fill="#ADD1B2" rx="11" ry="11" style="stroke:#181818;stroke-width:1.0;"/><path d="M901.2656,1472.375 Q901.4219,1472.1563 901.6094,1472.0469 Q901.7969,1471.9375 902.0156,1471.9375 Q902.3906,1471.9375 902.625,1472.2031 Q902.8594,1472.4531 902.8594,1473.0625 L902.8594,1474.5156 Q902.8594,1475.125 902.625,1475.3906 Q902.3906,1475.6563 902.0156,1475.6563 Q901.6719,1475.6563 901.4688,1475.4531 Q901.2656,1475.2656 901.1563,1474.75 Q901.1094,1474.3906 900.9219,1474.2031 Q900.5938,1473.8281 899.9844,1473.6094 Q899.375,1473.3906 898.75,1473.3906 Q897.9844,1473.3906 897.3438,1473.7188 Q896.7188,1474.0469 896.2188,1474.7969 Q895.7344,1475.5469 895.7344,1476.5781 L895.7344,1477.6719 Q895.7344,1478.9063 896.625,1479.7344 Q897.5156,1480.5469 899.1094,1480.5469 Q900.0469,1480.5469 900.7031,1480.2969 Q901.0938,1480.1406 901.5156,1479.7031 Q901.7813,1479.4375 901.9219,1479.3594 Q902.0781,1479.2813 902.2813,1479.2813 Q902.6094,1479.2813 902.8594,1479.5469 Q903.125,1479.7969 903.125,1480.1406 Q903.125,1480.4844 902.7813,1480.8906 Q902.2813,1481.4688 901.4844,1481.7969 Q900.4063,1482.25 899.1094,1482.25 Q897.5938,1482.25 896.3906,1481.625 Q895.4063,1481.125 894.7188,1480.0625 Q894.0313,1478.9844 894.0313,1477.7031 L894.0313,1476.5469 Q894.0313,1475.2188 894.6406,1474.0781 Q895.2656,1472.9219 896.3594,1472.3125 Q897.4531,1471.6875 898.6875,1471.6875 Q899.4219,1471.6875 900.0625,1471.8594 Q900.7188,1472.0156 901.2656,1472.375 Z " fill="#000000"/><text fill="#000000" font-family="sans-serif" font-size="14" lengthAdjust="spacing" textLength="45" x="912.5" y="1481.3535">Person</text><line style="stroke:#181818;stroke-width:0.5;" x1="884.5" x2="959.5" y1="1492.5" y2="1492.5"/><line style="stroke:#181818;stroke-width:0.5;" x1="884.5" x2="959.5" y1="1500.5" y2="1500.5"/></g><!--link Repositories to PropertyTypeRepository--><g id="link_Repositories_PropertyTypeRepository"><path codeLine="96" d="M1324.29,633.8 C1374.86,792.76 1478,1117 1478,1117 C1478,1117 1577.3,1453.1 1610.41,1565.14 " fill="none" id="Repositories-to-PropertyTypeRepository" style="stroke:#181818;stroke-width:1.0;"/><polygon fill="#181818" points="1611.84,1569.99,1613.1332,1560.2264,1610.4269,1565.1939,1605.4594,1562.4875,1611.84,1569.99" style="stroke:#181818;stroke-width:1.0;"/></g><!--link Repositories to PropertyRepository--><g id="link_Repositories_PropertyRepository"><path codeLine="97" d="M1318.07,633.76 C1360.45,806.28 1452,1179 1452,1179 C1452,1179 1452,1179 1452,1603 C1452,1603 1444.13,1683.91 1435.96,1767.87 " fill="none" id="Repositories-to-PropertyRepository" style="stroke:#181818;stroke-width:1.0;"/><polygon fill="#181818" points="1435.47,1772.89,1440.3262,1764.3216,1435.9562,1767.9137,1432.3641,1763.5437,1435.47,1772.89" style="stroke:#181818;stroke-width:1.0;"/></g><!--link Repositories to SunExposureRepository--><g id="link_Repositories_SunExposureRepository"><path codeLine="98" d="M1297,633.76 C1297,773.62 1297,1045.06 1297,1142.81 " fill="none" id="Repositories-to-SunExposureRepository" style="stroke:#181818;stroke-width:1.0;"/><polygon fill="#181818" points="1297,1147.89,1301,1138.89,1297,1142.89,1293,1138.89,1297,1147.89" style="stroke:#181818;stroke-width:1.0;"/></g><!--link Repositories to BusinessTypeRepository--><g id="link_Repositories_BusinessTypeRepository"><path codeLine="99" d="M1346.66,633.51 C1444.18,801.45 1657.08,1168.09 1724.26,1283.78 " fill="none" id="Repositories-to-BusinessTypeRepository" style="stroke:#181818;stroke-width:1.0;"/><polygon fill="#181818" points="1726.97,1288.44,1725.9084,1278.6485,1724.4586,1284.1165,1718.9907,1282.6667,1726.97,1288.44" style="stroke:#181818;stroke-width:1.0;"/></g><!--link Repositories to RequestRepository--><g id="link_Repositories_RequestRepository"><path codeLine="100" d="M1266.79,633.7 C1213.18,785.78 1107,1087 1107,1087 C1107,1087 832,1148 832,1148 C832,1148 804.57,1193.24 777.88,1237.25 " fill="none" id="Repositories-to-RequestRepository" style="stroke:#181818;stroke-width:1.0;"/><polygon fill="#181818" points="775.13,1241.78,783.2126,1236.1522,777.7193,1237.5027,776.3689,1232.0094,775.13,1241.78" style="stroke:#181818;stroke-width:1.0;"/></g><!--link Repositories to StoreRepository--><g id="link_Repositories_StoreRepository"><path codeLine="101" d="M1269.82,633.76 C1225.44,773.76 1139.28,1045.6 1108.38,1143.11 " fill="none" id="Repositories-to-StoreRepository" style="stroke:#181818;stroke-width:1.0;"/><polygon fill="#181818" points="1106.86,1147.89,1113.3951,1140.5216,1108.3725,1143.1242,1105.7699,1138.1017,1106.86,1147.89" style="stroke:#181818;stroke-width:1.0;"/></g><!--link Repositories to PersonRepository--><g id="link_Repositories_PersonRepository"><path codeLine="102" d="M1266.79,633.7 C1213.18,785.78 1107,1087 1107,1087 C1107,1087 1027.99,1126.29 973.24,1153.52 " fill="none" id="Repositories-to-PersonRepository" style="stroke:#181818;stroke-width:1.0;"/><polygon fill="#181818" points="968.68,1155.78,978.5198,1155.3579,973.1578,1153.5553,974.9604,1148.1934,968.68,1155.78" style="stroke:#181818;stroke-width:1.0;"/></g><!--link PropertyRepository to Property--><g id="link_PropertyRepository_Property"><path codeLine="112" d="M1373.09,2134.42 C1354.85,2207.48 1338,2275 1338,2275 C1338,2275 1265.25,2311.69 1201.76,2343.71 " fill="none" id="PropertyRepository-to-Property" style="stroke:#181818;stroke-width:1.0;"/><polygon fill="#181818" points="1197.21,2346.01,1207.0475,2345.5376,1201.6764,2343.7625,1203.4515,2338.3914,1197.21,2346.01" style="stroke:#181818;stroke-width:1.0;"/><text fill="#000000" font-family="sans-serif" font-size="13" lengthAdjust="spacing" textLength="5" x="1205.0054" y="2339.309">*</text></g><!--link Location to Property--><g id="link_Location_Property"><path codeLine="119" d="M1104.68,2016.51 C1091.41,2078.28 1073,2164 1073,2164 C1073,2164 1073,2275 1073,2275 C1073,2275 1082.64,2305.94 1091.95,2335.79 " fill="none" id="Location-Property" style="stroke:#181818;stroke-width:1.0;"/><polygon fill="#000000" points="1078.1992,2214.7657,1074.9023,2223.6865,1080.7754,2223.9207,1078.1992,2214.7657" style="stroke:#000000;stroke-width:1.0;"/><text fill="#000000" font-family="sans-serif" font-size="13" lengthAdjust="spacing" textLength="30" x="1087" y="2224.2686">owns</text><text fill="#000000" font-family="sans-serif" font-size="13" lengthAdjust="spacing" textLength="7" x="1095.7352" y="2036.392">1</text><text fill="#000000" font-family="sans-serif" font-size="13" lengthAdjust="spacing" textLength="7" x="1082.1886" y="2325.1965">1</text></g><!--link Property to PropertyType--><g id="link_Property_PropertyType"><path codeLine="121" d="M1197.28,2441.49 C1235.15,2462.5 1278.43,2486.52 1312.57,2505.46 " fill="none" id="Property-to-PropertyType" style="stroke:#181818;stroke-width:1.0;"/><polygon fill="#181818" points="1317.11,2507.98,1311.1852,2500.1126,1312.7392,2505.5518,1307.3,2507.1058,1317.11,2507.98" style="stroke:#181818;stroke-width:1.0;"/></g><!--link PropertyTypeRepository to PropertyType--><g id="link_PropertyTypeRepository_PropertyType"><path codeLine="128" d="M1623.75,1634.02 C1631.34,1719.55 1652,1952.5 1652,1952.5 C1652,1952.5 1652,1952.5 1652,2392.5 C1652,2392.5 1519.4,2462.13 1437.03,2505.38 " fill="none" id="PropertyTypeRepository-to-PropertyType" style="stroke:#181818;stroke-width:1.0;"/><polygon fill="#181818" points="1432.17,2507.93,1441.9975,2507.2819,1436.5955,2505.603,1438.2744,2500.201,1432.17,2507.93" style="stroke:#181818;stroke-width:1.0;"/><text fill="#000000" font-family="sans-serif" font-size="13" lengthAdjust="spacing" textLength="5" x="1439.5666" y="2497.2485">*</text></g><!--link Building to Property--><g id="link_Building_Property"><path codeLine="139" d="M1189.69,2275.22 C1179.93,2289.18 1169.28,2304.38 1159.02,2319.04 " fill="none" id="Building-to-Property" style="stroke:#181818;stroke-width:1.0;"/><polygon fill="none" points="1164.44,2323.51,1147.24,2335.88,1152.97,2315.48,1164.44,2323.51" style="stroke:#181818;stroke-width:1.0;"/></g><!--link House to Building--><g id="link_House_Building"><path codeLine="145" d="M1254.36,1743.15 C1229.19,1758.69 1206,1773 1206,1773 C1206,1773 1206,2134 1206,2134 C1206,2134 1207.01,2137.9 1208.61,2144.02 " fill="none" id="House-to-Building" style="stroke:#181818;stroke-width:1.0;"/><polygon fill="none" points="1215.43,2142.44,1213.69,2163.55,1201.88,2145.96,1215.43,2142.44" style="stroke:#181818;stroke-width:1.0;"/></g><!--link SunExposure to House--><g id="link_SunExposure_House"><path codeLine="146" d="M1293.87,1516.59 C1298.51,1553.87 1306.31,1616.58 1311.55,1658.73 " fill="none" id="SunExposure-to-House" style="stroke:#181818;stroke-width:1.0;"/><polygon fill="#181818" points="1312.18,1663.77,1315.0428,1654.3464,1311.5651,1658.808,1307.1036,1655.3302,1312.18,1663.77" style="stroke:#181818;stroke-width:1.0;"/></g><!--link SunExposureRepository to SunExposure--><g id="link_SunExposureRepository_SunExposure"><path codeLine="151" d="M1296.28,1212.23 C1294.97,1268.65 1292.23,1387.23 1290.84,1447.17 " fill="none" id="SunExposureRepository-to-SunExposure" style="stroke:#181818;stroke-width:1.0;"/><polygon fill="#181818" points="1290.72,1452.44,1294.9252,1443.534,1290.8346,1447.4413,1286.9273,1443.3507,1290.72,1452.44" style="stroke:#181818;stroke-width:1.0;"/><text fill="#000000" font-family="sans-serif" font-size="13" lengthAdjust="spacing" textLength="5" x="1285.3306" y="1441.7607">*</text></g><!--link Request to BusinessType--><g id="link_Request_BusinessType"><path codeLine="159" d="M726.52,1671.38 C749.23,1641.65 779.5,1602 779.5,1602 C779.5,1602 1660.5,1602 1660.5,1602 C1660.5,1602 1701.44,1638.61 1734.14,1667.86 " fill="none" id="Request-to-BusinessType" style="stroke:#181818;stroke-width:1.0;"/><polygon fill="#181818" points="1738.09,1671.38,1734.0591,1662.3938,1734.3672,1668.0423,1728.7187,1668.3504,1738.09,1671.38" style="stroke:#181818;stroke-width:1.0;"/><text fill="#000000" font-family="sans-serif" font-size="13" lengthAdjust="spacing" textLength="5" x="726.3369" y="1660.6876">*</text><text fill="#000000" font-family="sans-serif" font-size="13" lengthAdjust="spacing" textLength="7" x="1722.4691" y="1660.6876">1</text></g><!--link Request to Property--><g id="link_Request_Property"><path codeLine="160" d="M704.69,1735.73 C713.21,1834.57 739,2134 739,2134 C739,2134 826,2275 826,2275 C826,2275 933.27,2318.78 1015.72,2352.43 " fill="none" id="Request-to-Property" style="stroke:#181818;stroke-width:1.0;"/><polygon fill="#181818" points="1020.62,2354.43,1013.7944,2347.33,1015.9895,2352.5435,1010.776,2354.7387,1020.62,2354.43" style="stroke:#181818;stroke-width:1.0;"/><text fill="#000000" font-family="sans-serif" font-size="13" lengthAdjust="spacing" textLength="7" x="697.5407" y="1754.813">1</text><text fill="#000000" font-family="sans-serif" font-size="13" lengthAdjust="spacing" textLength="7" x="1006.0112" y="2348.5888">1</text></g><!--link Request to Agent--><g id="link_Request_Agent"><path codeLine="161" d="M720.58,1735.54 C731.43,1753.67 743,1773 743,1773 C743,1773 881.06,2093.35 923.04,2190.75 " fill="none" id="Request-to-Agent" style="stroke:#181818;stroke-width:1.0;"/><polygon fill="#181818" points="925.08,2195.49,925.1743,2185.6416,923.0932,2190.9017,917.8331,2188.8205,925.08,2195.49" style="stroke:#181818;stroke-width:1.0;"/><text fill="#000000" font-family="sans-serif" font-size="13" lengthAdjust="spacing" textLength="5" x="718.6453" y="1754.8347">*</text><text fill="#000000" font-family="sans-serif" font-size="13" lengthAdjust="spacing" textLength="7" x="914.3056" y="2184.6106">1</text></g><!--link Request to Owner--><g id="link_Request_Owner"><path codeLine="162" d="M744.66,1703.5 C751.95,1703.5 765.99,1703.5 773.77,1703.5 " fill="none" id="Request-to-Owner" style="stroke:#181818;stroke-width:1.0;"/><polygon fill="#181818" points="779.26,1703.5,770.26,1699.5,774.26,1703.5,770.26,1707.5,779.26,1703.5" style="stroke:#181818;stroke-width:1.0;"/><text fill="#000000" font-family="sans-serif" font-size="13" lengthAdjust="spacing" textLength="5" x="752.4219" y="1700.1413">*</text><text fill="#000000" font-family="sans-serif" font-size="13" lengthAdjust="spacing" textLength="7" x="764.5893" y="1699.9841">1</text></g><!--link RequestRepository to Request--><g id="link_RequestRepository_Request"><path codeLine="164" d="M722.71,1399.06 C717.15,1480.54 708.64,1605.15 704.48,1666.22 " fill="none" id="RequestRepository-to-Request" style="stroke:#181818;stroke-width:1.0;"/><polygon fill="#181818" points="704.13,1671.21,708.738,1662.5056,704.473,1666.2218,700.7569,1661.9568,704.13,1671.21" style="stroke:#181818;stroke-width:1.0;"/><text fill="#000000" font-family="sans-serif" font-size="13" lengthAdjust="spacing" textLength="5" x="699.0537" y="1660.966">*</text></g><!--link StoreRepository to Store--><g id="link_StoreRepository_Store"><path codeLine="176" d="M1096.17,1212.23 C1094.86,1261.93 1092.27,1359.89 1090.59,1423.48 " fill="none" id="StoreRepository-to-Store" style="stroke:#181818;stroke-width:1.0;"/><polygon fill="#181818" points="1090.45,1428.76,1094.68,1419.8658,1090.5785,1423.7617,1086.6827,1419.6602,1090.45,1428.76" style="stroke:#181818;stroke-width:1.0;"/><text fill="#000000" font-family="sans-serif" font-size="13" lengthAdjust="spacing" textLength="5" x="1085.3089" y="1418.1624">*</text></g><!--link BusinessTypeRepository to BusinessType--><g id="link_BusinessTypeRepository_BusinessType"><path codeLine="188" d="M1747.37,1352.68 C1752.7,1422.62 1765.57,1591.73 1771.24,1666.23 " fill="none" id="BusinessTypeRepository-to-BusinessType" style="stroke:#181818;stroke-width:1.0;"/><polygon fill="#181818" points="1771.63,1671.42,1774.9503,1662.1477,1771.2585,1666.4338,1766.9724,1662.742,1771.63,1671.42" style="stroke:#181818;stroke-width:1.0;"/><text fill="#000000" font-family="sans-serif" font-size="13" lengthAdjust="spacing" textLength="7" x="1763.3459" y="1660.7364">2</text></g><!--link BusinessType to BusinessTypeRent--><g id="link_BusinessType_BusinessTypeRent"><path codeLine="193" d="M1774.43,1735.88 C1775.63,1823.87 1779.02,2073.13 1780.4,2174.65 " fill="none" id="BusinessType-to-BusinessTypeRent" style="stroke:#181818;stroke-width:1.0;"/><polygon fill="#181818" points="1780.47,2179.67,1784.341,2170.6138,1780.3986,2174.6705,1776.3418,2170.7281,1780.47,2179.67" style="stroke:#181818;stroke-width:1.0;"/></g><!--link BusinessType to BusinessTypeSale--><g id="link_BusinessType_BusinessTypeSale"><path codeLine="194" d="M1787.14,1735.54 C1794.82,1753.67 1803,1773 1803,1773 C1803,1773 1913.89,2076.07 1952.74,2182.27 " fill="none" id="BusinessType-to-BusinessTypeSale" style="stroke:#181818;stroke-width:1.0;"/><polygon fill="#181818" points="1954.54,2187.17,1955.2043,2177.3436,1952.8221,2182.4744,1947.6913,2180.0922,1954.54,2187.17" style="stroke:#181818;stroke-width:1.0;"/></g><!--link SubmitPropertyUI to SubmitPropertyController--><g id="link_SubmitPropertyUI_SubmitPropertyController"><path codeLine="218" d="M463.15,547 C472.37,547 482.57,547 493.15,547 " fill="none" id="SubmitPropertyUI-to-SubmitPropertyController" style="stroke:#181818;stroke-width:1.0;stroke-dasharray:7.0,7.0;"/><polygon fill="#181818" points="498.38,547,489.38,543,493.38,547,489.38,551,498.38,547" style="stroke:#181818;stroke-width:1.0;"/></g><!--link SubmitPropertyController to Repositories--><g id="link_SubmitPropertyController_Repositories"><path codeLine="220" d="M1089.51,547 C1124.58,547 1158.47,547 1188.35,547 " fill="none" id="SubmitPropertyController-to-Repositories" style="stroke:#181818;stroke-width:1.0;stroke-dasharray:7.0,7.0;"/><polygon fill="#181818" points="1193.49,547,1184.49,543,1188.49,547,1184.49,551,1193.49,547" style="stroke:#181818;stroke-width:1.0;"/><text fill="#000000" font-family="sans-serif" font-size="13" lengthAdjust="spacing" textLength="67" x="1108" y="540.7686">repositories</text></g><!--link PersonRepository to Person--><g id="link_PersonRepository_Person"><path codeLine="222" d="M922,1204.23 C922,1258.89 922,1395.48 922,1455.01 " fill="none" id="PersonRepository-to-Person" style="stroke:#181818;stroke-width:1.0;"/><polygon fill="#181818" points="922,1460.19,926,1451.19,922,1455.19,918,1451.19,922,1460.19" style="stroke:#181818;stroke-width:1.0;"/><text fill="#000000" font-family="sans-serif" font-size="13" lengthAdjust="spacing" textLength="5" x="916.3281" y="1449.6143">*</text></g><!--link Owner to Property--><g id="link_Owner_Property"><path codeLine="224" d="M816.89,1727.57 C821.01,1834.3 838,2275 838,2275 C838,2275 941.56,2319.14 1020.64,2352.84 " fill="none" id="Owner-Property" style="stroke:#181818;stroke-width:1.0;"/><polygon fill="#000000" points="844.5491,2224.5157,844.541,2215.0051,838.9524,2216.8262,844.5491,2224.5157" style="stroke:#000000;stroke-width:1.0;"/><text fill="#000000" font-family="sans-serif" font-size="13" lengthAdjust="spacing" textLength="30" x="852" y="2224.2686">owns</text><text fill="#000000" font-family="sans-serif" font-size="13" lengthAdjust="spacing" textLength="7" x="809.2212" y="1747.3673">1</text><text fill="#000000" font-family="sans-serif" font-size="13" lengthAdjust="spacing" textLength="20" x="993.1093" y="2362.2214">1..*</text></g><!--reverse link Store to Employee--><g id="link_Store_Employee"><path codeLine="226" d="M1036,1556.59 C1030.01,1564.63 1026,1570 1026,1570 C1026,1570 976.92,1641.46 950.85,1679.42 " fill="none" id="Store-backto-Employee" style="stroke:#181818;stroke-width:1.0;"/><polygon fill="none" points="1030.47,1552.3,1048.03,1540.45,1041.69,1560.66,1030.47,1552.3" style="stroke:#181818;stroke-width:1.0;"/></g><!--reverse link Person to Owner--><g id="link_Person_Owner"><path codeLine="228" d="M901.75,1526.95 C879.63,1572.24 844.98,1643.17 827.26,1679.44 " fill="none" id="Person-backto-Owner" style="stroke:#181818;stroke-width:1.0;"/><polygon fill="none" points="895.59,1523.62,910.66,1508.72,908.17,1529.77,895.59,1523.62" style="stroke:#181818;stroke-width:1.0;"/></g><!--reverse link Person to Employee--><g id="link_Person_Employee"><path codeLine="230" d="M924.59,1528.79 C927.31,1574.14 931.47,1643.66 933.62,1679.44 " fill="none" id="Person-backto-Employee" style="stroke:#181818;stroke-width:1.0;"/><polygon fill="none" points="917.6,1529.11,923.39,1508.72,931.57,1528.27,917.6,1529.11" style="stroke:#181818;stroke-width:1.0;"/></g><!--link Store to Location--><g id="link_Store_Location"><path codeLine="235" d="M1104.58,1540.03 C1119.58,1592.52 1140,1664 1140,1664 C1140,1664 1140,1743 1140,1743 C1140,1743 1131,1828.72 1124.51,1890.49 " fill="none" id="Store-Location" style="stroke:#181818;stroke-width:1.0;"/><polygon fill="#000000" points="1136.2839,1607.2537,1138.7045,1598.0563,1132.8361,1598.39,1136.2839,1607.2537" style="stroke:#000000;stroke-width:1.0;"/><text fill="#000000" font-family="sans-serif" font-size="13" lengthAdjust="spacing" textLength="30" x="1145" y="1606.7686">owns</text></g><!--link Store to Agent--><g id="link_Store_Agent"><path codeLine="237" d="M1077.7,1540.03 C1066.82,1592.52 1052,1664 1052,1664 C1052,1664 961,2134 961,2134 C961,2134 949.8,2170.39 942.1,2195.41 " fill="none" id="Store-Agent" style="stroke:#181818;stroke-width:1.0;"/><polygon fill="#000000" points="1055.9869,1708.658,1060.6976,1700.396,1054.9416,1699.2051,1055.9869,1708.658" style="stroke:#000000;stroke-width:1.0;"/><text fill="#000000" font-family="sans-serif" font-size="13" lengthAdjust="spacing" textLength="65" x="1066" y="1708.2686">Employees</text></g><!--reverse link Employee to Agent--><g id="link_Employee_Agent"><path codeLine="239" d="M935,1747.6 C935,1852.05 935,2115.97 935,2195.48 " fill="none" id="Employee-backto-Agent" style="stroke:#181818;stroke-width:1.0;"/><polygon fill="none" points="928,1747.58,935,1727.58,942,1747.58,928,1747.58" style="stroke:#181818;stroke-width:1.0;"/></g><!--SRC=[tLdTRzis47_dNq7a9Sug1-iUdS20ym4iM945zOe1mrveYx65oA9AKilSDFzxZvGeVafDqxGRseT6l3iTUL-_Eyg7ugweQiB93kzOnTPRpdOKIzvGP3arMT-H3LtAVKanfsj9gatf2eWjoTbzKMtmBIc5oocBYifzJN7DohrQeCC4at79aFFMkYH2BAJanQgHz6hDgcNnWUAV4JeiwQt4ac5URBOIvuKwJi4gXFGxUDciTeMyuQocNExVNU47D3MhFzHMTvJMBk44JNFMhCgMi-2K6AxFkIW4cBscvuNSdzDAKWvy_0QefqiuPxMPjwgtJB8D9_LMA7xBqXnuf5G6nB-A-fpbD18bahvR1bIrSq1IX-B5McijAgbfryrkHVaPpJbZEn5pRWW7Fsy2JOj_I54ICFRoVLFKEp0mePF8RQzqnLX9IQNPPqHGyufBVyDkMuERwlBVcec6jxvqrefj78uhUhyeIyV_-AmHa2D2zA5p2Kh0YT2IbFG6l17ItyB9UhgnwABXH2VEEQkaUbJCorrTiZtjKc7JMUHuwVVxYlBB7RZg1Bt2QqWMIOEKq_fOML8-EGAP4YAqgFBpBME2kdcdkHigKxJVWamqz3W7UoqsxGofpJUpwXBDCdM6cQLIw6wYSigi_NpogLqk1Q8cJGmvpYt3CObZrYfX0hS9wcHBxwJMzTVq_bVMMBzEN6V-NKMrdk61Kiz0UBJMiz5ALw-doozB5ryiRtoMZHUbsYbLULbKTqfofEwo69hq6n4qPGbW2YILcx8KB7cHMW2qovsknIvQKNYwa7cH6Gn88WOf_qU-pv9kDrl77dSzv3icy8XrnQ0FNiPqazcEyOE7x6JDCKSEwI6L2xDz6Ij0L6KmEJfnAEsgD_4jVTzG8HKOJtmypo80xwtUM4SR44zgLL3-7Arz2yZIu7-4q6DwWh1mhYO9_9P2-HIIyO8Ac8JimkrZwX2zu1xNINBG5nrvuUET_uhP8w4_q0qFdbP_7JPNHtAL99zewxiezB8yfBI9SLMrIPjgSbOsnMtpwsa8ZrDLD8Jmdy5tU7CKuOVmFKBo7cM60Dx7pXJW904-07uDyQC0x-zZi241yA5WXnGXmFjYJuJuyN3zNzfnzbNz-7jx-R-lXQyP7Rx0OZKW9h5eak3smE5tgg7MD73dKASPlNDaYKj2u6hRmeOws3VStEbqWrUT8zlil7uMDZZZJelcUEO9V0cunvnazviyAV11SpFag3zDjAcUaTFfVA1H3ykDoIIjYCNIziHoaGc97NtZ4yUcNB3AaUY2RSnviFTZ0kbfLtc71Uh31biJbJEux1x2Znsr1GJbOvGOJDHP3duwwFSDps557z2hWNx_JGRbk8U_p2t1RTQsIKStBnytdtMbU7RB_J4cfEzpT_r1EkwJ3Nv4VTKVl3w0yjL_-cOrm-o-4lZKrde4fYWiyU1g0NMUdlSVhTBWbH14z3Rn9gfvTKRbL1IRgWMjlj6TDKMP0nV48ErckFAIr2Ds-UaBckGqkymmYV8ITZFRmB4_pYFWqz069-W6-HbUTO3XaBPaLKYbLe47QDJljEgCSkIE_Se_MiRUNotpmHxtcd6vXS2pHlsv90BAw4_eDB15-Xfg7EzmunsYs0OVwuIDhnauT7zJBUX2VJpDuJ_WTcIz8LORG-AvBTCAlBO2lNjJR-lXACdH7t4HYY-pnkAEuvyutQnUPAG4WSHSDpHIlkn4-VczxKJf8FdOJAdd4mXmHNOmIL3rjNoHvnnsH5EO6YhQuhrE5tTIXqGClbdqAQZehdOl694QSn1DVN0n83M3jHeILmbLpSaF9FfOlmG9cjW3VE1ZaHUAU2g4V1sLK5cGD4LPsVrMDUEm8gKEM8jWEOJAZLJQ7qgtLI9ClbdXlZKy80p_XEv2-l53stiwikuv-daDdKO_v5s7iSfCoZd1qLM9DI7w3UzuFlXLBfHsljSTpxtBoipxNWVz9fYIRQVH38JQ4_MTyFZOwK9TBvoZDcVnwSUf_Vd8w6wf7Tou92k8Z8Af7Rb3tS3IcJphtzFClcorIYtn2G00]--></g></svg>