<?xml version="1.0" encoding="us-ascii" standalone="no"?><svg xmlns="http://www.w3.org/2000/svg" xmlns:xlink="http://www.w3.org/1999/xlink" contentStyleType="text/css" height="963.5px" preserveAspectRatio="none" style="width:877px;height:963px;background:#FFFFFF;" version="1.1" viewBox="0 0 877 963" width="877.5px" zoomAndPan="magnify"><defs/><g><!--class Store--><g id="elem_Store"><rect codeLine="11" fill="#F1F1F1" height="72.8906" id="Store" rx="1.25" ry="1.25" style="stroke:#181818;stroke-width:0.25;" width="414" x="191" y="272.5"/><ellipse cx="386.375" cy="280.5" fill="#ADD1B2" rx="5.5" ry="5.5" style="stroke:#181818;stroke-width:0.5;"/><path d="M387.8594,283.3203 Q387.5703,283.4688 387.25,283.5391 Q386.9297,283.6172 386.5781,283.6172 Q385.3281,283.6172 384.6641,282.7969 Q384.0078,281.9688 384.0078,280.4063 Q384.0078,278.8438 384.6641,278.0156 Q385.3281,277.1875 386.5781,277.1875 Q386.9297,277.1875 387.25,277.2656 Q387.5781,277.3438 387.8594,277.4922 L387.8594,278.8516 Q387.5469,278.5625 387.25,278.4297 Q386.9531,278.2891 386.6406,278.2891 Q385.9688,278.2891 385.625,278.8281 Q385.2813,279.3594 385.2813,280.4063 Q385.2813,281.4531 385.625,281.9922 Q385.9688,282.5234 386.6406,282.5234 Q386.9531,282.5234 387.25,282.3906 Q387.5469,282.25 387.8594,281.9609 L387.8594,283.3203 Z " fill="#000000"/><text fill="#000000" font-family="sans-serif" font-size="7" lengthAdjust="spacing" textLength="19" x="396.625" y="282.9233">Store</text><line style="stroke:#181818;stroke-width:0.25;" x1="191.5" x2="604.5" y1="288.5" y2="288.5"/><text fill="#000000" font-family="sans-serif" font-size="7" lengthAdjust="spacing" textLength="32" x="194" y="296.9976">-String id</text><text fill="#000000" font-family="sans-serif" font-size="7" lengthAdjust="spacing" textLength="46" x="194" y="305.146">-String name</text><text fill="#000000" font-family="sans-serif" font-size="7" lengthAdjust="spacing" textLength="74" x="194" y="313.2944">-String emailAddress</text><text fill="#000000" font-family="sans-serif" font-size="7" lengthAdjust="spacing" textLength="64.5" x="194" y="321.4429">-int phoneNumber</text><line style="stroke:#181818;stroke-width:0.25;" x1="191.5" x2="604.5" y1="325.0938" y2="325.0938"/><text fill="#000000" font-family="sans-serif" font-size="7" lengthAdjust="spacing" textLength="242.5" x="194" y="333.5913">+Store(String id,String name,String emailAddress,int phoneNumber)</text><text fill="#000000" font-family="sans-serif" font-size="7" lengthAdjust="spacing" textLength="408" x="194" y="341.7397">+getListedProperties(BusinessType keepBusinessType,PropertyType keepPropertyType,int keepNumberBedrooms)</text></g><!--class PropertyType--><g id="elem_PropertyType"><rect codeLine="22" fill="#F1F1F1" height="48.4453" id="PropertyType" rx="1.25" ry="1.25" style="stroke:#181818;stroke-width:0.25;" width="127" x="700" y="714.5"/><ellipse cx="737.625" cy="722.5" fill="#ADD1B2" rx="5.5" ry="5.5" style="stroke:#181818;stroke-width:0.5;"/><path d="M739.1094,725.3203 Q738.8203,725.4688 738.5,725.5391 Q738.1797,725.6172 737.8281,725.6172 Q736.5781,725.6172 735.9141,724.7969 Q735.2578,723.9688 735.2578,722.4063 Q735.2578,720.8438 735.9141,720.0156 Q736.5781,719.1875 737.8281,719.1875 Q738.1797,719.1875 738.5,719.2656 Q738.8281,719.3438 739.1094,719.4922 L739.1094,720.8516 Q738.7969,720.5625 738.5,720.4297 Q738.2031,720.2891 737.8906,720.2891 Q737.2188,720.2891 736.875,720.8281 Q736.5313,721.3594 736.5313,722.4063 Q736.5313,723.4531 736.875,723.9922 Q737.2188,724.5234 737.8906,724.5234 Q738.2031,724.5234 738.5,724.3906 Q738.7969,724.25 739.1094,723.9609 L739.1094,725.3203 Z " fill="#000000"/><text fill="#000000" font-family="sans-serif" font-size="7" lengthAdjust="spacing" textLength="47.5" x="747.875" y="724.9233">PropertyType</text><line style="stroke:#181818;stroke-width:0.25;" x1="700.5" x2="826.5" y1="730.5" y2="730.5"/><text fill="#000000" font-family="sans-serif" font-size="7" lengthAdjust="spacing" textLength="65" x="703" y="738.9976">-String description</text><line style="stroke:#181818;stroke-width:0.25;" x1="700.5" x2="826.5" y1="742.6484" y2="742.6484"/><text fill="#000000" font-family="sans-serif" font-size="7" lengthAdjust="spacing" textLength="121" x="703" y="751.146">+PropertyType(String description)</text><text fill="#000000" font-family="sans-serif" font-size="7" lengthAdjust="spacing" textLength="93" x="703" y="759.2944">+String getPropertyType()</text></g><!--class BusinessType--><g id="elem_BusinessType"><rect codeLine="29" fill="#F1F1F1" height="40.2969" id="BusinessType" rx="1.25" ry="1.25" style="stroke:#181818;stroke-width:0.25;" width="107.5" x="576.75" y="570.25"/><ellipse cx="604.125" cy="578.25" fill="#ADD1B2" rx="5.5" ry="5.5" style="stroke:#181818;stroke-width:0.5;"/><path d="M605.6094,581.0703 Q605.3203,581.2188 605,581.2891 Q604.6797,581.3672 604.3281,581.3672 Q603.0781,581.3672 602.4141,580.5469 Q601.7578,579.7188 601.7578,578.1563 Q601.7578,576.5938 602.4141,575.7656 Q603.0781,574.9375 604.3281,574.9375 Q604.6797,574.9375 605,575.0156 Q605.3281,575.0938 605.6094,575.2422 L605.6094,576.6016 Q605.2969,576.3125 605,576.1797 Q604.7031,576.0391 604.3906,576.0391 Q603.7188,576.0391 603.375,576.5781 Q603.0313,577.1094 603.0313,578.1563 Q603.0313,579.2031 603.375,579.7422 Q603.7188,580.2734 604.3906,580.2734 Q604.7031,580.2734 605,580.1406 Q605.2969,580 605.6094,579.7109 L605.6094,581.0703 Z " fill="#000000"/><text fill="#000000" font-family="sans-serif" font-size="7" lengthAdjust="spacing" textLength="48.5" x="614.375" y="580.6733">BusinessType</text><line style="stroke:#181818;stroke-width:0.25;" x1="577.25" x2="683.75" y1="586.25" y2="586.25"/><text fill="#000000" font-family="sans-serif" font-size="7" lengthAdjust="spacing" textLength="65" x="579.75" y="594.7476">-String description</text><line style="stroke:#181818;stroke-width:0.25;" x1="577.25" x2="683.75" y1="598.3984" y2="598.3984"/><text fill="#000000" font-family="sans-serif" font-size="7" lengthAdjust="spacing" textLength="101.5" x="579.75" y="606.896">+BusinessType(description))</text></g><!--class PropertyTypeRepository--><g id="elem_PropertyTypeRepository"><rect codeLine="35" fill="#F1F1F1" height="32.1484" id="PropertyTypeRepository" rx="1.25" ry="1.25" style="stroke:#181818;stroke-width:0.25;" width="101.5" x="712.75" y="210"/><ellipse cx="720.25" cy="218" fill="#ADD1B2" rx="5.5" ry="5.5" style="stroke:#181818;stroke-width:0.5;"/><path d="M721.7344,220.8203 Q721.4453,220.9688 721.125,221.0391 Q720.8047,221.1172 720.4531,221.1172 Q719.2031,221.1172 718.5391,220.2969 Q717.8828,219.4688 717.8828,217.9063 Q717.8828,216.3438 718.5391,215.5156 Q719.2031,214.6875 720.4531,214.6875 Q720.8047,214.6875 721.125,214.7656 Q721.4531,214.8438 721.7344,214.9922 L721.7344,216.3516 Q721.4219,216.0625 721.125,215.9297 Q720.8281,215.7891 720.5156,215.7891 Q719.8438,215.7891 719.5,216.3281 Q719.1563,216.8594 719.1563,217.9063 Q719.1563,218.9531 719.5,219.4922 Q719.8438,220.0234 720.5156,220.0234 Q720.8281,220.0234 721.125,219.8906 Q721.4219,219.75 721.7344,219.4609 L721.7344,220.8203 Z " fill="#000000"/><text fill="#000000" font-family="sans-serif" font-size="7" lengthAdjust="spacing" textLength="85.5" x="727.25" y="220.4233">PropertyTypeRepository</text><line style="stroke:#181818;stroke-width:0.25;" x1="713.25" x2="813.75" y1="226" y2="226"/><line style="stroke:#181818;stroke-width:0.25;" x1="713.25" x2="813.75" y1="230" y2="230"/><text fill="#000000" font-family="sans-serif" font-size="7" lengthAdjust="spacing" textLength="82" x="715.75" y="238.4976">+getPropertyTypeList()</text></g><!--class BusinessTypeRepository--><g id="elem_BusinessTypeRepository"><rect codeLine="39" fill="#F1F1F1" height="32.1484" id="BusinessTypeRepository" rx="1.25" ry="1.25" style="stroke:#181818;stroke-width:0.25;" width="102.5" x="580.25" y="210"/><ellipse cx="587.75" cy="218" fill="#ADD1B2" rx="5.5" ry="5.5" style="stroke:#181818;stroke-width:0.5;"/><path d="M589.2344,220.8203 Q588.9453,220.9688 588.625,221.0391 Q588.3047,221.1172 587.9531,221.1172 Q586.7031,221.1172 586.0391,220.2969 Q585.3828,219.4688 585.3828,217.9063 Q585.3828,216.3438 586.0391,215.5156 Q586.7031,214.6875 587.9531,214.6875 Q588.3047,214.6875 588.625,214.7656 Q588.9531,214.8438 589.2344,214.9922 L589.2344,216.3516 Q588.9219,216.0625 588.625,215.9297 Q588.3281,215.7891 588.0156,215.7891 Q587.3438,215.7891 587,216.3281 Q586.6563,216.8594 586.6563,217.9063 Q586.6563,218.9531 587,219.4922 Q587.3438,220.0234 588.0156,220.0234 Q588.3281,220.0234 588.625,219.8906 Q588.9219,219.75 589.2344,219.4609 L589.2344,220.8203 Z " fill="#000000"/><text fill="#000000" font-family="sans-serif" font-size="7" lengthAdjust="spacing" textLength="86.5" x="594.75" y="220.4233">BusinessTypeRepository</text><line style="stroke:#181818;stroke-width:0.25;" x1="580.75" x2="682.25" y1="226" y2="226"/><line style="stroke:#181818;stroke-width:0.25;" x1="580.75" x2="682.25" y1="230" y2="230"/><text fill="#000000" font-family="sans-serif" font-size="7" lengthAdjust="spacing" textLength="83" x="583.25" y="238.4976">+getBusinessTypeList()</text></g><!--class Repositories--><g id="elem_Repositories"><rect codeLine="43" fill="#F1F1F1" height="72.8906" id="Repositories" rx="1.25" ry="1.25" style="stroke:#181818;stroke-width:0.25;" width="203.5" x="417.25" y="106.5"/><ellipse cx="494.875" cy="114.5" fill="#ADD1B2" rx="5.5" ry="5.5" style="stroke:#181818;stroke-width:0.5;"/><path d="M496.3594,117.3203 Q496.0703,117.4688 495.75,117.5391 Q495.4297,117.6172 495.0781,117.6172 Q493.8281,117.6172 493.1641,116.7969 Q492.5078,115.9688 492.5078,114.4063 Q492.5078,112.8438 493.1641,112.0156 Q493.8281,111.1875 495.0781,111.1875 Q495.4297,111.1875 495.75,111.2656 Q496.0781,111.3438 496.3594,111.4922 L496.3594,112.8516 Q496.0469,112.5625 495.75,112.4297 Q495.4531,112.2891 495.1406,112.2891 Q494.4688,112.2891 494.125,112.8281 Q493.7813,113.3594 493.7813,114.4063 Q493.7813,115.4531 494.125,115.9922 Q494.4688,116.5234 495.1406,116.5234 Q495.4531,116.5234 495.75,116.3906 Q496.0469,116.25 496.3594,115.9609 L496.3594,117.3203 Z " fill="#000000"/><text fill="#000000" font-family="sans-serif" font-size="7" lengthAdjust="spacing" textLength="44" x="505.125" y="116.9233">Repositories</text><line style="stroke:#181818;stroke-width:0.25;" x1="417.75" x2="620.25" y1="122.5" y2="122.5"/><text fill="#000000" font-family="sans-serif" font-size="7" lengthAdjust="spacing" textLength="78.5" x="420.25" y="130.9976">-Repositories instance</text><line style="stroke:#181818;stroke-width:0.25;" x1="417.75" x2="620.25" y1="134.6484" y2="134.6484"/><text fill="#000000" font-family="sans-serif" font-size="7" lengthAdjust="spacing" textLength="51.5" x="420.25" y="143.146">-Repositories()</text><text fill="#000000" font-family="sans-serif" font-size="7" lengthAdjust="spacing" textLength="98.5" x="420.25" y="151.2944">+Repositories getInstance()</text><text fill="#000000" font-family="sans-serif" font-size="7" lengthAdjust="spacing" textLength="195.5" x="420.25" y="159.4429">+PropertyTypeRepository getPropertyTypeRepository()</text><text fill="#000000" font-family="sans-serif" font-size="7" lengthAdjust="spacing" textLength="197.5" x="420.25" y="167.5913">+BusinessTypeRepository getBusinessTypeRepository()</text><text fill="#000000" font-family="sans-serif" font-size="7" lengthAdjust="spacing" textLength="138.5" x="420.25" y="175.7397">+StoreRepository getStoreRepository()</text></g><!--class ListPropertiesController--><g id="elem_ListPropertiesController"><rect codeLine="52" fill="#F1F1F1" height="64.7422" id="ListPropertiesController" rx="1.25" ry="1.25" style="stroke:#181818;stroke-width:0.25;" width="441.5" x="432.75" y="3.5"/><ellipse cx="609.625" cy="11.5" fill="#ADD1B2" rx="5.5" ry="5.5" style="stroke:#181818;stroke-width:0.5;"/><path d="M611.1094,14.3203 Q610.8203,14.4688 610.5,14.5391 Q610.1797,14.6172 609.8281,14.6172 Q608.5781,14.6172 607.9141,13.7969 Q607.2578,12.9688 607.2578,11.4063 Q607.2578,9.8438 607.9141,9.0156 Q608.5781,8.1875 609.8281,8.1875 Q610.1797,8.1875 610.5,8.2656 Q610.8281,8.3438 611.1094,8.4922 L611.1094,9.8516 Q610.7969,9.5625 610.5,9.4297 Q610.2031,9.2891 609.8906,9.2891 Q609.2188,9.2891 608.875,9.8281 Q608.5313,10.3594 608.5313,11.4063 Q608.5313,12.4531 608.875,12.9922 Q609.2188,13.5234 609.8906,13.5234 Q610.2031,13.5234 610.5,13.3906 Q610.7969,13.25 611.1094,12.9609 L611.1094,14.3203 Z " fill="#000000"/><text fill="#000000" font-family="sans-serif" font-size="7" lengthAdjust="spacing" textLength="83.5" x="619.875" y="13.9233">ListPropertiesController</text><line style="stroke:#181818;stroke-width:0.25;" x1="433.25" x2="873.75" y1="19.5" y2="19.5"/><line style="stroke:#181818;stroke-width:0.25;" x1="433.25" x2="873.75" y1="23.5" y2="23.5"/><text fill="#000000" font-family="sans-serif" font-size="7" lengthAdjust="spacing" textLength="94.5" x="435.75" y="31.9976">+ListPropertiesController()</text><text fill="#000000" font-family="sans-serif" font-size="7" lengthAdjust="spacing" textLength="157.5" x="435.75" y="40.146">+List&lt;BusinessType&gt; getBusinessTypeList()</text><text fill="#000000" font-family="sans-serif" font-size="7" lengthAdjust="spacing" textLength="155.5" x="435.75" y="48.2944">+List&lt;PropertyType&gt; getPropertyTypeList()</text><text fill="#000000" font-family="sans-serif" font-size="7" lengthAdjust="spacing" textLength="435.5" x="435.75" y="56.4429">+List&lt;Advertisement&gt; getListedProperties(keepSortMethod,keepBusinessType,keepPropertyType,keepNumberBedrooms)</text><text fill="#000000" font-family="sans-serif" font-size="7" lengthAdjust="spacing" textLength="367" x="435.75" y="64.5913">+List&lt;Advertisement&gt; sortPropertiesList(List&lt;Advertisement&gt; listedProperties,String keepSortMethod)</text></g><!--class StoreRepository--><g id="elem_StoreRepository"><rect codeLine="60" fill="#F1F1F1" height="32.1484" id="StoreRepository" rx="1.25" ry="1.25" style="stroke:#181818;stroke-width:0.25;" width="73" x="361.5" y="210"/><ellipse cx="369" cy="218" fill="#ADD1B2" rx="5.5" ry="5.5" style="stroke:#181818;stroke-width:0.5;"/><path d="M370.4844,220.8203 Q370.1953,220.9688 369.875,221.0391 Q369.5547,221.1172 369.2031,221.1172 Q367.9531,221.1172 367.2891,220.2969 Q366.6328,219.4688 366.6328,217.9063 Q366.6328,216.3438 367.2891,215.5156 Q367.9531,214.6875 369.2031,214.6875 Q369.5547,214.6875 369.875,214.7656 Q370.2031,214.8438 370.4844,214.9922 L370.4844,216.3516 Q370.1719,216.0625 369.875,215.9297 Q369.5781,215.7891 369.2656,215.7891 Q368.5938,215.7891 368.25,216.3281 Q367.9063,216.8594 367.9063,217.9063 Q367.9063,218.9531 368.25,219.4922 Q368.5938,220.0234 369.2656,220.0234 Q369.5781,220.0234 369.875,219.8906 Q370.1719,219.75 370.4844,219.4609 L370.4844,220.8203 Z " fill="#000000"/><text fill="#000000" font-family="sans-serif" font-size="7" lengthAdjust="spacing" textLength="57" x="376" y="220.4233">StoreRepository</text><line style="stroke:#181818;stroke-width:0.25;" x1="362" x2="434" y1="226" y2="226"/><line style="stroke:#181818;stroke-width:0.25;" x1="362" x2="434" y1="230" y2="230"/><text fill="#000000" font-family="sans-serif" font-size="7" lengthAdjust="spacing" textLength="53.5" x="364.5" y="238.4976">+getStoreList()</text></g><!--class ListPropertiesUI--><g id="elem_ListPropertiesUI"><rect codeLine="65" fill="#F1F1F1" height="64.7422" id="ListPropertiesUI" rx="1.25" ry="1.25" style="stroke:#181818;stroke-width:0.25;" width="125" x="258.5" y="3.5"/><ellipse cx="291.375" cy="11.5" fill="#ADD1B2" rx="5.5" ry="5.5" style="stroke:#181818;stroke-width:0.5;"/><path d="M292.8594,14.3203 Q292.5703,14.4688 292.25,14.5391 Q291.9297,14.6172 291.5781,14.6172 Q290.3281,14.6172 289.6641,13.7969 Q289.0078,12.9688 289.0078,11.4063 Q289.0078,9.8438 289.6641,9.0156 Q290.3281,8.1875 291.5781,8.1875 Q291.9297,8.1875 292.25,8.2656 Q292.5781,8.3438 292.8594,8.4922 L292.8594,9.8516 Q292.5469,9.5625 292.25,9.4297 Q291.9531,9.2891 291.6406,9.2891 Q290.9688,9.2891 290.625,9.8281 Q290.2813,10.3594 290.2813,11.4063 Q290.2813,12.4531 290.625,12.9922 Q290.9688,13.5234 291.6406,13.5234 Q291.9531,13.5234 292.25,13.3906 Q292.5469,13.25 292.8594,12.9609 L292.8594,14.3203 Z " fill="#000000"/><text fill="#000000" font-family="sans-serif" font-size="7" lengthAdjust="spacing" textLength="55" x="301.625" y="13.9233">ListPropertiesUI</text><line style="stroke:#181818;stroke-width:0.25;" x1="259" x2="383" y1="19.5" y2="19.5"/><text fill="#000000" font-family="sans-serif" font-size="7" lengthAdjust="spacing" textLength="84" x="261.5" y="27.9976">-String keepSortMethod</text><text fill="#000000" font-family="sans-serif" font-size="7" lengthAdjust="spacing" textLength="119" x="261.5" y="36.146">-BusinessType keepBusinessType</text><text fill="#000000" font-family="sans-serif" font-size="7" lengthAdjust="spacing" textLength="117" x="261.5" y="44.2944">-PropertyType keepPropertyType</text><text fill="#000000" font-family="sans-serif" font-size="7" lengthAdjust="spacing" textLength="96" x="261.5" y="52.4429">-int keepNumberBedrooms</text><line style="stroke:#181818;stroke-width:0.25;" x1="259" x2="383" y1="56.0938" y2="56.0938"/><text fill="#000000" font-family="sans-serif" font-size="7" lengthAdjust="spacing" textLength="66" x="261.5" y="64.5913">+ListPropertiesUI()</text></g><!--class Advertisement--><g id="elem_Advertisement"><rect codeLine="73" fill="#F1F1F1" height="56.5938" id="Advertisement" rx="1.25" ry="1.25" style="stroke:#181818;stroke-width:0.25;" width="281.5" x="272.25" y="376"/><ellipse cx="384.875" cy="384" fill="#ADD1B2" rx="5.5" ry="5.5" style="stroke:#181818;stroke-width:0.5;"/><path d="M386.3594,386.8203 Q386.0703,386.9688 385.75,387.0391 Q385.4297,387.1172 385.0781,387.1172 Q383.8281,387.1172 383.1641,386.2969 Q382.5078,385.4688 382.5078,383.9063 Q382.5078,382.3438 383.1641,381.5156 Q383.8281,380.6875 385.0781,380.6875 Q385.4297,380.6875 385.75,380.7656 Q386.0781,380.8438 386.3594,380.9922 L386.3594,382.3516 Q386.0469,382.0625 385.75,381.9297 Q385.4531,381.7891 385.1406,381.7891 Q384.4688,381.7891 384.125,382.3281 Q383.7813,382.8594 383.7813,383.9063 Q383.7813,384.9531 384.125,385.4922 Q384.4688,386.0234 385.1406,386.0234 Q385.4531,386.0234 385.75,385.8906 Q386.0469,385.75 386.3594,385.4609 L386.3594,386.8203 Z " fill="#000000"/><text fill="#000000" font-family="sans-serif" font-size="7" lengthAdjust="spacing" textLength="52" x="395.125" y="386.4233">Advertisement</text><line style="stroke:#181818;stroke-width:0.25;" x1="272.75" x2="553.25" y1="392" y2="392"/><text fill="#000000" font-family="sans-serif" font-size="7" lengthAdjust="spacing" textLength="37.5" x="275.25" y="400.4976">-Date date</text><text fill="#000000" font-family="sans-serif" font-size="7" lengthAdjust="spacing" textLength="85.5" x="275.25" y="408.646">-String commissionType</text><text fill="#000000" font-family="sans-serif" font-size="7" lengthAdjust="spacing" textLength="93" x="275.25" y="416.7944">-Double commissionValue</text><line style="stroke:#181818;stroke-width:0.25;" x1="272.75" x2="553.25" y1="420.4453" y2="420.4453"/><text fill="#000000" font-family="sans-serif" font-size="7" lengthAdjust="spacing" textLength="275.5" x="275.25" y="428.9429">+Advertisement(String commissionType,Double commissionValue,Date date)</text></g><!--class Property--><g id="elem_Property"><rect codeLine="80" fill="#F1F1F1" height="81.0391" id="Property" rx="1.25" ry="1.25" style="stroke:#181818;stroke-width:0.25;" width="283" x="275.5" y="550"/><ellipse cx="399.875" cy="558" fill="#ADD1B2" rx="5.5" ry="5.5" style="stroke:#181818;stroke-width:0.5;"/><path d="M401.3594,560.8203 Q401.0703,560.9688 400.75,561.0391 Q400.4297,561.1172 400.0781,561.1172 Q398.8281,561.1172 398.1641,560.2969 Q397.5078,559.4688 397.5078,557.9063 Q397.5078,556.3438 398.1641,555.5156 Q398.8281,554.6875 400.0781,554.6875 Q400.4297,554.6875 400.75,554.7656 Q401.0781,554.8438 401.3594,554.9922 L401.3594,556.3516 Q401.0469,556.0625 400.75,555.9297 Q400.4531,555.7891 400.1406,555.7891 Q399.4688,555.7891 399.125,556.3281 Q398.7813,556.8594 398.7813,557.9063 Q398.7813,558.9531 399.125,559.4922 Q399.4688,560.0234 400.1406,560.0234 Q400.4531,560.0234 400.75,559.8906 Q401.0469,559.75 401.3594,559.4609 L401.3594,560.8203 Z " fill="#000000"/><text fill="#000000" font-family="sans-serif" font-size="7" lengthAdjust="spacing" textLength="30" x="410.125" y="560.4233">Property</text><line style="stroke:#181818;stroke-width:0.25;" x1="276" x2="558" y1="566" y2="566"/><text fill="#000000" font-family="sans-serif" font-size="7" lengthAdjust="spacing" textLength="75.5" x="278.5" y="574.4976">-double areaProperty</text><text fill="#000000" font-family="sans-serif" font-size="7" lengthAdjust="spacing" textLength="96.5" x="278.5" y="582.646">-double distanceCityCenter</text><line style="stroke:#181818;stroke-width:0.25;" x1="276" x2="558" y1="586.2969" y2="586.2969"/><text fill="#000000" font-family="sans-serif" font-size="7" lengthAdjust="spacing" textLength="277" x="278.5" y="594.7944">+Property(PropertyType type,double areaProperty,double distanceCityCenter)</text><text fill="#000000" font-family="sans-serif" font-size="7" lengthAdjust="spacing" textLength="96" x="278.5" y="602.9429">+double getAreaProperty()</text><text fill="#000000" font-family="sans-serif" font-size="7" lengthAdjust="spacing" textLength="117.5" x="278.5" y="611.0913">+double getDistanceCityCenter()</text><text fill="#000000" font-family="sans-serif" font-size="7" lengthAdjust="spacing" textLength="158.5" x="278.5" y="619.2397">+void setAreaProperty(double areaProperty)</text><text fill="#000000" font-family="sans-serif" font-size="7" lengthAdjust="spacing" textLength="201" x="278.5" y="627.3882">+void setDistanceCityCenter(double distanceCityCenter)</text></g><!--class Building--><g id="elem_Building"><rect codeLine="91" fill="#F1F1F1" height="154.375" id="Building" rx="1.25" ry="1.25" style="stroke:#181818;stroke-width:0.25;" width="607" x="75.5" y="661.5"/><ellipse cx="362.375" cy="669.5" fill="#ADD1B2" rx="5.5" ry="5.5" style="stroke:#181818;stroke-width:0.5;"/><path d="M363.8594,672.3203 Q363.5703,672.4688 363.25,672.5391 Q362.9297,672.6172 362.5781,672.6172 Q361.3281,672.6172 360.6641,671.7969 Q360.0078,670.9688 360.0078,669.4063 Q360.0078,667.8438 360.6641,667.0156 Q361.3281,666.1875 362.5781,666.1875 Q362.9297,666.1875 363.25,666.2656 Q363.5781,666.3438 363.8594,666.4922 L363.8594,667.8516 Q363.5469,667.5625 363.25,667.4297 Q362.9531,667.2891 362.6406,667.2891 Q361.9688,667.2891 361.625,667.8281 Q361.2813,668.3594 361.2813,669.4063 Q361.2813,670.4531 361.625,670.9922 Q361.9688,671.5234 362.6406,671.5234 Q362.9531,671.5234 363.25,671.3906 Q363.5469,671.25 363.8594,670.9609 L363.8594,672.3203 Z " fill="#000000"/><text fill="#000000" font-family="sans-serif" font-size="7" lengthAdjust="spacing" textLength="29" x="372.625" y="671.9233">Building</text><line style="stroke:#181818;stroke-width:0.25;" x1="76" x2="682" y1="677.5" y2="677.5"/><text fill="#000000" font-family="sans-serif" font-size="7" lengthAdjust="spacing" textLength="80.5" x="78.5" y="685.9976">-int numberBedrooms;</text><text fill="#000000" font-family="sans-serif" font-size="7" lengthAdjust="spacing" textLength="70.5" x="78.5" y="694.146">-int numberParking;</text><text fill="#000000" font-family="sans-serif" font-size="7" lengthAdjust="spacing" textLength="83" x="78.5" y="702.2944">-int numberBathrooms;</text><text fill="#000000" font-family="sans-serif" font-size="7" lengthAdjust="spacing" textLength="99" x="78.5" y="710.4429">-String availableEquipment;</text><line style="stroke:#181818;stroke-width:0.25;" x1="76" x2="682" y1="714.0938" y2="714.0938"/><text fill="#000000" font-family="sans-serif" font-size="7" lengthAdjust="spacing" textLength="425" x="78.5" y="722.5913">+Building (PropertyType type,double areaProperty, double distanceCityCenter,int numberBedrooms,int numberParking)</text><text fill="#000000" font-family="sans-serif" font-size="7" lengthAdjust="spacing" textLength="505" x="78.5" y="730.7397">+Building (PropertyType type,double areaProperty, double distanceCityCenter,int numberBedrooms,int numberParking,int numberBathrooms)</text><text fill="#000000" font-family="sans-serif" font-size="7" lengthAdjust="spacing" textLength="521" x="78.5" y="738.8882">+Building (PropertyType type,double areaProperty, double distanceCityCenter,int numberBedrooms,int numberParking,String availableEquipment)</text><text fill="#000000" font-family="sans-serif" font-size="7" lengthAdjust="spacing" textLength="601" x="78.5" y="747.0366">+Building (PropertyType type,double areaProperty, double distanceCityCenter,int numberBedrooms,int numberParking,int numberBathrooms,String availableEquipment)</text><text fill="#000000" font-family="sans-serif" font-size="7" lengthAdjust="spacing" textLength="98.5" x="78.5" y="755.1851">+int getNumberBedrooms()</text><text fill="#000000" font-family="sans-serif" font-size="7" lengthAdjust="spacing" textLength="88.5" x="78.5" y="763.3335">+int getNumberParking()</text><text fill="#000000" font-family="sans-serif" font-size="7" lengthAdjust="spacing" textLength="101" x="78.5" y="771.4819">+int getNumberBathrooms()</text><text fill="#000000" font-family="sans-serif" font-size="7" lengthAdjust="spacing" textLength="117" x="78.5" y="779.6304">+String getAvailableEquipment()</text><text fill="#000000" font-family="sans-serif" font-size="7" lengthAdjust="spacing" textLength="179" x="78.5" y="787.7788">+void setNumberBedrooms(int numberBedrooms)</text><text fill="#000000" font-family="sans-serif" font-size="7" lengthAdjust="spacing" textLength="159" x="78.5" y="795.9272">+void setNumberParking(int numberParking)</text><text fill="#000000" font-family="sans-serif" font-size="7" lengthAdjust="spacing" textLength="184" x="78.5" y="804.0757">+void setNumberBathrooms(int numberBathrooms)</text><text fill="#000000" font-family="sans-serif" font-size="7" lengthAdjust="spacing" textLength="204" x="78.5" y="812.2241">+void setAvailableEquipment(String availableEquipment)</text></g><!--class House--><g id="elem_House"><rect codeLine="111" fill="#F1F1F1" height="113.6328" id="House" rx="1.25" ry="1.25" style="stroke:#181818;stroke-width:0.25;" width="751" x="3.5" y="846.5"/><ellipse cx="365.625" cy="854.5" fill="#ADD1B2" rx="5.5" ry="5.5" style="stroke:#181818;stroke-width:0.5;"/><path d="M367.1094,857.3203 Q366.8203,857.4688 366.5,857.5391 Q366.1797,857.6172 365.8281,857.6172 Q364.5781,857.6172 363.9141,856.7969 Q363.2578,855.9688 363.2578,854.4063 Q363.2578,852.8438 363.9141,852.0156 Q364.5781,851.1875 365.8281,851.1875 Q366.1797,851.1875 366.5,851.2656 Q366.8281,851.3438 367.1094,851.4922 L367.1094,852.8516 Q366.7969,852.5625 366.5,852.4297 Q366.2031,852.2891 365.8906,852.2891 Q365.2188,852.2891 364.875,852.8281 Q364.5313,853.3594 364.5313,854.4063 Q364.5313,855.4531 364.875,855.9922 Q365.2188,856.5234 365.8906,856.5234 Q366.2031,856.5234 366.5,856.3906 Q366.7969,856.25 367.1094,855.9609 L367.1094,857.3203 Z " fill="#000000"/><text fill="#000000" font-family="sans-serif" font-size="7" lengthAdjust="spacing" textLength="22.5" x="375.875" y="856.9233">House</text><line style="stroke:#181818;stroke-width:0.25;" x1="4" x2="754" y1="862.5" y2="862.5"/><text fill="#000000" font-family="sans-serif" font-size="7" lengthAdjust="spacing" textLength="71.5" x="6.5" y="870.9976">-boolean basement;</text><text fill="#000000" font-family="sans-serif" font-size="7" lengthAdjust="spacing" textLength="83" x="6.5" y="879.146">-boolean habitableLoft;</text><text fill="#000000" font-family="sans-serif" font-size="7" lengthAdjust="spacing" textLength="99" x="6.5" y="887.2944">-String availableEquipment;</text><line style="stroke:#181818;stroke-width:0.25;" x1="4" x2="754" y1="890.9453" y2="890.9453"/><text fill="#000000" font-family="sans-serif" font-size="7" lengthAdjust="spacing" textLength="569" x="6.5" y="899.4429">+House (PropertyType type,double areaProperty, double distanceCityCenter,int numberBedrooms,int numberParking,boolean basement, boolean habitableLoft)</text><text fill="#000000" font-family="sans-serif" font-size="7" lengthAdjust="spacing" textLength="649" x="6.5" y="907.5913">+House (PropertyType type,double areaProperty, double distanceCityCenter,int numberBedrooms,int numberParking,int numberBathrooms,boolean basement, boolean habitableLoft)</text><text fill="#000000" font-family="sans-serif" font-size="7" lengthAdjust="spacing" textLength="665" x="6.5" y="915.7397">+House (PropertyType type,double areaProperty, double distanceCityCenter,int numberBedrooms,int numberParking,String availableEquipment,boolean basement, boolean habitableLoft)</text><text fill="#000000" font-family="sans-serif" font-size="7" lengthAdjust="spacing" textLength="745" x="6.5" y="923.8882">+House (PropertyType type,double areaProperty, double distanceCityCenter,int numberBedrooms,int numberParking,int numberBathrooms,String availableEquipment,boolean basement, boolean habitableLoft)</text><text fill="#000000" font-family="sans-serif" font-size="7" lengthAdjust="spacing" textLength="90" x="6.5" y="932.0366">+Boolean getBasement()</text><text fill="#000000" font-family="sans-serif" font-size="7" lengthAdjust="spacing" textLength="102" x="6.5" y="940.1851">+Boolean getHabitableLoft()</text><text fill="#000000" font-family="sans-serif" font-size="7" lengthAdjust="spacing" textLength="141" x="6.5" y="948.3335">+void setBasement(boolean basement)</text><text fill="#000000" font-family="sans-serif" font-size="7" lengthAdjust="spacing" textLength="164.5" x="6.5" y="956.4819">+void setHabitableLoft(boolean habitableLoft)</text></g><!--class Request--><g id="elem_Request"><rect codeLine="125" fill="#F1F1F1" height="56.5938" id="Request" rx="1.25" ry="1.25" style="stroke:#181818;stroke-width:0.25;" width="85.5" x="374.25" y="463"/><ellipse cx="400.375" cy="471" fill="#ADD1B2" rx="5.5" ry="5.5" style="stroke:#181818;stroke-width:0.5;"/><path d="M401.8594,473.8203 Q401.5703,473.9688 401.25,474.0391 Q400.9297,474.1172 400.5781,474.1172 Q399.3281,474.1172 398.6641,473.2969 Q398.0078,472.4688 398.0078,470.9063 Q398.0078,469.3438 398.6641,468.5156 Q399.3281,467.6875 400.5781,467.6875 Q400.9297,467.6875 401.25,467.7656 Q401.5781,467.8438 401.8594,467.9922 L401.8594,469.3516 Q401.5469,469.0625 401.25,468.9297 Q400.9531,468.7891 400.6406,468.7891 Q399.9688,468.7891 399.625,469.3281 Q399.2813,469.8594 399.2813,470.9063 Q399.2813,471.9531 399.625,472.4922 Q399.9688,473.0234 400.6406,473.0234 Q400.9531,473.0234 401.25,472.8906 Q401.5469,472.75 401.8594,472.4609 L401.8594,473.8203 Z " fill="#000000"/><text fill="#000000" font-family="sans-serif" font-size="7" lengthAdjust="spacing" textLength="29" x="410.625" y="473.4233">Request</text><line style="stroke:#181818;stroke-width:0.25;" x1="374.75" x2="459.25" y1="479" y2="479"/><text fill="#000000" font-family="sans-serif" font-size="7" lengthAdjust="spacing" textLength="35" x="377.25" y="487.4976">Date date</text><text fill="#000000" font-family="sans-serif" font-size="7" lengthAdjust="spacing" textLength="79.5" x="377.25" y="495.646">int durationOfContract</text><text fill="#000000" font-family="sans-serif" font-size="7" lengthAdjust="spacing" textLength="58.5" x="377.25" y="503.7944">double salePrice</text><text fill="#000000" font-family="sans-serif" font-size="7" lengthAdjust="spacing" textLength="58.5" x="377.25" y="511.9429">double rentPrice</text><line style="stroke:#181818;stroke-width:0.25;" x1="374.75" x2="459.25" y1="515.5938" y2="515.5938"/></g><!--link Repositories to Repositories--><g id="link_Repositories_Repositories"><path codeLine="133" d="M620.78,135.075 C631.425,136.625 638.25,139.265 638.25,143 C638.25,146.415 632.55,148.915 623.435,150.5 " fill="none" id="Repositories-to-Repositories" style="stroke:#181818;stroke-width:0.5;"/><polygon fill="#181818" points="620.78,150.925,625.5382,152.1938,623.249,150.5325,624.9102,148.2434,620.78,150.925" style="stroke:#181818;stroke-width:0.5;"/><text fill="#000000" font-family="sans-serif" font-size="6.5" lengthAdjust="spacing" textLength="27.5" x="641.25" y="145.2834">instance</text></g><!--link ListPropertiesUI to ListPropertiesController--><g id="link_ListPropertiesUI_ListPropertiesController"><path codeLine="134" d="M383.54,35.75 C397.645,35.75 413.415,35.75 430.05,35.75 " fill="none" id="ListPropertiesUI-to-ListPropertiesController" style="stroke:#181818;stroke-width:0.5;stroke-dasharray:7.0,7.0;"/><polygon fill="#181818" points="432.725,35.75,428.225,33.75,430.225,35.75,428.225,37.75,432.725,35.75" style="stroke:#181818;stroke-width:0.5;"/><text fill="#000000" font-family="sans-serif" font-size="6.5" lengthAdjust="spacing" textLength="31" x="392.625" y="32.2834">controller</text></g><!--link ListPropertiesController to Repositories--><g id="link_ListPropertiesController_Repositories"><path codeLine="136" d="M613.145,68.13 C598.555,79.655 581.945,92.775 566.78,104.755 " fill="none" id="ListPropertiesController-to-Repositories" style="stroke:#181818;stroke-width:0.5;stroke-dasharray:7.0,7.0;"/><polygon fill="#181818" points="564.75,106.36,569.5243,105.1532,566.716,104.8158,567.0535,102.0075,564.75,106.36" style="stroke:#181818;stroke-width:0.5;"/><text fill="#000000" font-family="sans-serif" font-size="6.5" lengthAdjust="spacing" textLength="38.5" x="595" y="89.5334">repositories</text></g><!--link Repositories to PropertyTypeRepository--><g id="link_Repositories_PropertyTypeRepository"><path codeLine="138" d="M620.92,177.68 C653.415,188.58 687.885,200.14 714.795,209.165 " fill="none" id="Repositories-to-PropertyTypeRepository" style="stroke:#181818;stroke-width:0.5;"/><polygon fill="#181818" points="717.21,209.975,713.5764,206.6513,714.839,209.1823,712.308,210.4449,717.21,209.975" style="stroke:#181818;stroke-width:0.5;"/><text fill="#000000" font-family="sans-serif" font-size="6.5" lengthAdjust="spacing" textLength="4" x="704.6083" y="204.9787">1</text></g><!--link Repositories to BusinessTypeRepository--><g id="link_Repositories_BusinessTypeRepository"><path codeLine="139" d="M568.51,179.585 C582.27,189.615 596.58,200.045 608.075,208.425 " fill="none" id="Repositories-to-BusinessTypeRepository" style="stroke:#181818;stroke-width:0.5;"/><polygon fill="#181818" points="610.19,209.965,607.7288,205.6997,608.1688,208.4937,605.3748,208.9337,610.19,209.965" style="stroke:#181818;stroke-width:0.5;"/><text fill="#000000" font-family="sans-serif" font-size="6.5" lengthAdjust="spacing" textLength="4" x="601.3823" y="204.4093">1</text></g><!--link Repositories to StoreRepository--><g id="link_Repositories_StoreRepository"><path codeLine="140" d="M465.75,179.585 C450.885,189.66 435.43,200.135 423.04,208.53 " fill="none" id="Repositories-to-StoreRepository" style="stroke:#181818;stroke-width:0.5;"/><polygon fill="#181818" points="420.92,209.965,425.7683,209.1022,422.9913,208.5651,423.5284,205.7881,420.92,209.965" style="stroke:#181818;stroke-width:0.5;"/><text fill="#000000" font-family="sans-serif" font-size="6.5" lengthAdjust="spacing" textLength="4" x="421.2348" y="204.4093">1</text></g><!--link ListPropertiesController to StoreRepository--><g id="link_ListPropertiesController_StoreRepository"><path codeLine="142" d="M518.895,68.035 C440.115,86.635 356,106.5 356,106.5 C356,106.5 356,179.5 356,179.5 C356,179.5 370.17,195.02 382.045,208.025 " fill="none" id="ListPropertiesController-to-StoreRepository" style="stroke:#181818;stroke-width:0.5;stroke-dasharray:7.0,7.0;"/><polygon fill="#181818" points="383.78,209.925,382.2185,205.2547,382.0926,208.0803,379.267,207.9545,383.78,209.925" style="stroke:#181818;stroke-width:0.5;"/><text fill="#000000" font-family="sans-serif" font-size="6.5" lengthAdjust="spacing" textLength="51.5" x="356.5" y="145.2834">storeRepository</text></g><!--link ListPropertiesController to BusinessTypeRepository--><g id="link_ListPropertiesController_BusinessTypeRepository"><path codeLine="143" d="M661.885,68.085 C666.78,86.675 672,106.5 672,106.5 C672,106.5 672,179.5 672,179.5 C672,179.5 658.34,195.02 646.885,208.025 " fill="none" id="ListPropertiesController-to-BusinessTypeRepository" style="stroke:#181818;stroke-width:0.5;stroke-dasharray:7.0,7.0;"/><polygon fill="#181818" points="645.21,209.925,649.6867,207.8734,646.8638,208.0502,646.687,205.2273,645.21,209.925" style="stroke:#181818;stroke-width:0.5;"/><text fill="#000000" font-family="sans-serif" font-size="6.5" lengthAdjust="spacing" textLength="79.5" x="672.5" y="145.2834">businessTypeRepository</text></g><!--link ListPropertiesController to PropertyTypeRepository--><g id="link_ListPropertiesController_PropertyTypeRepository"><path codeLine="144" d="M700.18,68.085 C727.43,86.675 756.5,106.5 756.5,106.5 C756.5,106.5 760.475,174.115 762.435,207.41 " fill="none" id="ListPropertiesController-to-PropertyTypeRepository" style="stroke:#181818;stroke-width:0.5;stroke-dasharray:7.0,7.0;"/><polygon fill="#181818" points="762.585,209.945,764.3111,205.333,762.4348,207.4495,760.3183,205.5733,762.585,209.945" style="stroke:#181818;stroke-width:0.5;"/><text fill="#000000" font-family="sans-serif" font-size="6.5" lengthAdjust="spacing" textLength="78.5" x="761.5" y="145.2834">propertyTypeRepository</text></g><!--link BusinessTypeRepository to BusinessType--><g id="link_BusinessTypeRepository_BusinessType"><path codeLine="146" d="M631.5,242.115 C631.5,265.91 631.5,308.5 631.5,308.5 C631.5,308.5 631.5,308.5 631.5,491.75 C631.5,491.75 631.025,538.54 630.73,567.54 " fill="none" id="BusinessTypeRepository-to-BusinessType" style="stroke:#181818;stroke-width:0.5;"/><polygon fill="#181818" points="630.7,570.12,632.7385,565.6373,630.7214,567.6201,628.7386,565.603,630.7,570.12" style="stroke:#181818;stroke-width:0.5;"/><text fill="#000000" font-family="sans-serif" font-size="6.5" lengthAdjust="spacing" textLength="3.5" x="626.9433" y="564.6792">*</text></g><!--link PropertyTypeRepository to PropertyType--><g id="link_PropertyTypeRepository_PropertyType"><path codeLine="147" d="M763.5,242.115 C763.5,265.91 763.5,308.5 763.5,308.5 C763.5,308.5 763.5,308.5 763.5,591 C763.5,591 763.5,669.435 763.5,711.815 " fill="none" id="PropertyTypeRepository-to-PropertyType" style="stroke:#181818;stroke-width:0.5;"/><polygon fill="#181818" points="763.5,714.43,765.5,709.93,763.5,711.93,761.5,709.93,763.5,714.43" style="stroke:#181818;stroke-width:0.5;"/><text fill="#000000" font-family="sans-serif" font-size="6.5" lengthAdjust="spacing" textLength="3.5" x="759.7539" y="709.0246">*</text></g><!--link StoreRepository to Store--><g id="link_StoreRepository_Store"><path codeLine="148" d="M398,242.115 C398,249.975 398,259.885 398,269.63 " fill="none" id="StoreRepository-to-Store" style="stroke:#181818;stroke-width:0.5;"/><polygon fill="#181818" points="398,272.375,400,267.875,398,269.875,396,267.875,398,272.375" style="stroke:#181818;stroke-width:0.5;"/><text fill="#000000" font-family="sans-serif" font-size="6.5" lengthAdjust="spacing" textLength="3.5" x="394.3277" y="266.9427">*</text></g><!--link Store to Advertisement--><g id="link_Store_Advertisement"><path codeLine="150" d="M403.735,345.535 C405.2,354.75 406.765,364.565 408.18,373.46 " fill="none" id="Store-to-Advertisement" style="stroke:#181818;stroke-width:0.5;"/><polygon fill="#181818" points="408.575,375.94,409.8438,371.1818,408.1825,373.471,405.8934,371.8098,408.575,375.94" style="stroke:#181818;stroke-width:0.5;"/><text fill="#000000" font-family="sans-serif" font-size="6.5" lengthAdjust="spacing" textLength="3.5" x="404.3224" y="370.5645">*</text></g><!--link Advertisement to Request--><g id="link_Advertisement_Request"><path codeLine="152" d="M414.3,432.67 C414.71,441.55 415.17,451.405 415.59,460.445 " fill="none" id="Advertisement-to-Request" style="stroke:#181818;stroke-width:0.5;"/><polygon fill="#181818" points="415.71,462.97,417.5018,458.3831,415.5955,460.4726,413.506,458.5663,415.71,462.97" style="stroke:#181818;stroke-width:0.5;"/><text fill="#000000" font-family="sans-serif" font-size="6.5" lengthAdjust="spacing" textLength="4" x="411.2885" y="457.3979">1</text></g><!--link Request to Property--><g id="link_Request_Property"><path codeLine="154" d="M417,519.51 C417,528.12 417,537.82 417,547.205 " fill="none" id="Request-to-Property" style="stroke:#181818;stroke-width:0.5;"/><polygon fill="#181818" points="417,549.84,419,545.34,417,547.34,415,545.34,417,549.84" style="stroke:#181818;stroke-width:0.5;"/><text fill="#000000" font-family="sans-serif" font-size="6.5" lengthAdjust="spacing" textLength="4" x="412.8219" y="544.4194">1</text></g><!--link Request to BusinessType--><g id="link_Request_BusinessType"><path codeLine="156" d="M459.785,508.365 C504.12,525.58 567,550 567,550 C567,550 581.65,559.225 596.875,568.82 " fill="none" id="Request-to-BusinessType" style="stroke:#181818;stroke-width:0.5;"/><polygon fill="#181818" points="599.12,570.235,596.3838,566.1407,597.0064,568.8997,594.2474,569.5224,599.12,570.235" style="stroke:#181818;stroke-width:0.5;"/><text fill="#000000" font-family="sans-serif" font-size="6.5" lengthAdjust="spacing" textLength="4" x="589.3828" y="564.664">1</text></g><!--reverse link Property to Building--><g id="link_Property_Building"><path codeLine="158" d="M404.135,640.855 C402.42,647.49 400.635,654.41 398.84,661.37 " fill="none" id="Property-backto-Building" style="stroke:#181818;stroke-width:0.5;"/><polygon fill="none" points="400.78,639.85,406.665,631.04,407.555,641.6,400.78,639.85" style="stroke:#181818;stroke-width:0.5;"/></g><!--link Property to PropertyType--><g id="link_Property_PropertyType"><path codeLine="160" d="M558.555,628.5 C564.495,630.07 568,631 568,631 C568,631 691,661.5 691,661.5 C691,661.5 718.13,690.22 739.195,712.52 " fill="none" id="Property-to-PropertyType" style="stroke:#181818;stroke-width:0.5;"/><polygon fill="#181818" points="740.96,714.385,739.3231,709.7406,739.243,712.5679,736.4157,712.4877,740.96,714.385" style="stroke:#181818;stroke-width:0.5;"/><text fill="#000000" font-family="sans-serif" font-size="6.5" lengthAdjust="spacing" textLength="4" x="733.5091" y="708.9733">1</text></g><!--reverse link Building to House--><g id="link_Building_House"><path codeLine="162" d="M379,826.25 C379,833.095 379,839.885 379,846.44 " fill="none" id="Building-backto-House" style="stroke:#181818;stroke-width:0.5;"/><polygon fill="none" points="375.5,826.21,379,816.21,382.5,826.21,375.5,826.21" style="stroke:#181818;stroke-width:0.5;"/></g><!--SRC=[rLVTRzis47_dNq7q9Sei1zkhKnXmaW4Dq6t1qkwTbYus4KbKIIg3r-r_7obH53_T3XZIBG-1TP-_EzuTUHVYcNOzuQJ5BUjOTUIi1Ipv06ZXzAHw9WTubAS6C8TAakxGk0BYI6hsE-qE-8aqmkKqj0DvwW7th3df3tIHO38k6NAqgeO8iPEIq_qWuRvYtIFz0_3t25qqy2InP9ZJmr7Ycceub7K8ZJhuKJ8E-3F2vc-jA5m3etLCwqWBCHLQGfjTNNCGmk7IJkB-o3huUMZtm2rdDReih9lICLucJ9Q1eSl54Zw0V4-5XFg1inwuf22Acq6eD0dnGIVg6Q1t2QKHF5ckInXTQUBawGPgpbWhBj5V2Cq9ymnCUREPg45KdFPJVYU4hdWHYqt1h0n3XUF9ZuudjrvKNtJhIXUkEyUYw-bNw9cWwbnEnlOgnABJdCEJrdObGcsheGxCHkCHQITKrrIGu1KcQRw2ydXlTAn09iGWj8LZ5JFH1L4b5CVQzZK2afi6dPQbSczP9pbh6k0sZJa1wqyBl7KnRJEfdyGdUJVuRUQW7VEx-aNx5z129xV9djCzywY6qayWZwmkewwB6YtLP7cNGfbUl8q8Ks9D06kU9Zuw9__XQJdLExAMiaqUsCVxi1DzJuPtTY0PcRDZ2Iq3DSvRib8-thjbvgLfHdn79E1Q_VCZg5ZRKY7Kh70ytx5XhswoXVSRQOQ9kVAC5qahPLg_j10IK-dpDCdMzQHAE92PvJ5gElNyBPMdMuN0N3IhMRZmCgilpp9XiinQcylI2AZAs3bwHSo-YqnOeHT6Qom22maqeNp2v1cypeYcJQrEmvouBf_EAvthaF50k7fI72Bw3P57LyESCdbHjpHHE7xyDD1Ud__rVFrCdl5NPXzdmobZr6M4z_ARU2qJ-LdkZzU5aZsG_qvgleXHwwZ-yQURxHsFQzoacTQZSodFhwjTv3ngpi1_76vQOOQKAyxGlWLvfehil8XHdqdcCW3UiK60wVuzOmsG3k_9DAclVVAHxAdKXjwp9_cLNJwQVwsA2l6NE0dzyXj0InNxFuEBNnLlzbp_Rqd-jmB1DuQfdyv6eqZmthcwqU2mcg7pKD0tam7ch4gV1X3csUO_sdHEwe4JlTdzyZHk1wII8yjaMv067ZWrQvGXSeLf8kg7hRT4hTTRVwlQB8jOzFQzscRtaurwwys_4SgkELUHD-vy9h2z-U5DPgbBowQtjRHii0oSWtsbW0VY6n6edzVEB9WRl4yZFcyji-TkS9_E5Sgu7rFndPysb34-otgBIhXGpK8Z7KriI_Gs1uIyJtigflnrBOm_PePT1aA63zwYns__NA_jkyoX1_OcBVjU6hN6GOVGtm00]--></g></svg>