<?xml version="1.0" encoding="us-ascii" standalone="no"?><svg xmlns="http://www.w3.org/2000/svg" xmlns:xlink="http://www.w3.org/1999/xlink" contentStyleType="text/css" height="576px" preserveAspectRatio="none" style="width:757px;height:576px;background:#FFFFFF;" version="1.1" viewBox="0 0 757 576" width="757.5px" zoomAndPan="magnify"><defs/><g><rect fill="#FFFFFF" height="481.3477" style="stroke:#181818;stroke-width:0.5;" width="5" x="46" y="45.6484"/><rect fill="#FFFFFF" height="470.7813" style="stroke:#181818;stroke-width:0.5;" width="5" x="352.5" y="56.2148"/><rect fill="none" height="291.0664" style="stroke:#000000;stroke-width:0.75;" width="749.5" x="5" y="113.4961"/><rect fill="none" height="58.7656" style="stroke:#000000;stroke-width:0.75;" width="443" x="10" y="342.2969"/><line style="stroke:#181818;stroke-width:0.25;stroke-dasharray:5.0,5.0;" x1="48.5" x2="48.5" y1="40.6484" y2="535.9961"/><line style="stroke:#181818;stroke-width:0.25;stroke-dasharray:5.0,5.0;" x1="354.75" x2="354.75" y1="40.6484" y2="535.9961"/><line style="stroke:#181818;stroke-width:0.25;stroke-dasharray:5.0,5.0;" x1="703" x2="703" y1="75.5391" y2="535.9961"/><text fill="#000000" font-family="sans-serif" font-size="7" lengthAdjust="spacing" textLength="64" x="15" y="38.9976">Unregistered User</text><ellipse cx="48.5" cy="6.75" fill="#E3E3E3" rx="4" ry="4" style="stroke:#181818;stroke-width:0.25;"/><path d="M48.5,10.75 L48.5,24.25 M42,14.75 L55,14.75 M48.5,24.25 L42,31.75 M48.5,24.25 L55,31.75 " fill="none" style="stroke:#181818;stroke-width:0.25;"/><text fill="#000000" font-family="sans-serif" font-size="7" lengthAdjust="spacing" textLength="64" x="15" y="541.9937">Unregistered User</text><ellipse cx="48.5" cy="547.8945" fill="#E3E3E3" rx="4" ry="4" style="stroke:#181818;stroke-width:0.25;"/><path d="M48.5,551.8945 L48.5,565.3945 M42,555.8945 L55,555.8945 M48.5,565.3945 L42,572.8945 M48.5,565.3945 L55,572.8945 " fill="none" style="stroke:#181818;stroke-width:0.25;"/><rect fill="#E3E3E3" height="15.1484" rx="1.25" ry="1.25" style="stroke:#181818;stroke-width:0.25;" width="64.5" x="322.75" y="25"/><text fill="#000000" font-family="sans-serif" font-size="7" lengthAdjust="spacing" textLength="57.5" x="326.25" y="34.9976">:ListPropertiesUI</text><rect fill="#E3E3E3" height="15.1484" rx="1.25" ry="1.25" style="stroke:#181818;stroke-width:0.25;" width="64.5" x="322.75" y="535.4961"/><text fill="#000000" font-family="sans-serif" font-size="7" lengthAdjust="spacing" textLength="57.5" x="326.25" y="545.4937">:ListPropertiesUI</text><rect fill="#E3E3E3" height="15.1484" rx="1.25" ry="1.25" style="stroke:#181818;stroke-width:0.25;" width="93" x="656.5" y="535.4961"/><text fill="#000000" font-family="sans-serif" font-size="7" lengthAdjust="spacing" textLength="86" x="660" y="545.4937">:ListPropertiesController</text><rect fill="#FFFFFF" height="481.3477" style="stroke:#181818;stroke-width:0.5;" width="5" x="46" y="45.6484"/><rect fill="#FFFFFF" height="470.7813" style="stroke:#181818;stroke-width:0.5;" width="5" x="352.5" y="56.2148"/><polygon fill="#181818" points="346.5,54.2148,351.5,56.2148,346.5,58.2148,348.5,56.2148" style="stroke:#181818;stroke-width:0.5;"/><line style="stroke:#181818;stroke-width:0.5;" x1="51" x2="349.5" y1="56.2148" y2="56.2148"/><text fill="#000000" font-family="sans-serif" font-size="6.5" font-weight="bold" lengthAdjust="spacing" textLength="4.5" x="54.5" y="53.6819">1</text><text fill="#000000" font-family="sans-serif" font-size="6.5" lengthAdjust="spacing" textLength="90.5" x="61" y="53.6819">asks to list listed properties</text><polygon fill="#181818" points="650.5,68.7813,655.5,70.7813,650.5,72.7813,652.5,70.7813" style="stroke:#181818;stroke-width:0.5;"/><line style="stroke:#181818;stroke-width:0.5;" x1="357.5" x2="653.5" y1="70.7813" y2="70.7813"/><text fill="#000000" font-family="sans-serif" font-size="6.5" font-weight="bold" lengthAdjust="spacing" textLength="4.5" x="361" y="68.2483">2</text><text fill="#000000" font-family="sans-serif" font-size="6.5" lengthAdjust="spacing" textLength="20.5" x="367.5" y="68.2483">create</text><rect fill="#E3E3E3" height="15.1484" rx="1.25" ry="1.25" style="stroke:#181818;stroke-width:0.25;" width="93" x="656.5" y="60.2148"/><text fill="#000000" font-family="sans-serif" font-size="7" lengthAdjust="spacing" textLength="86" x="660" y="70.2124">:ListPropertiesController</text><polygon fill="#181818" points="56.5,89.4297,51.5,91.4297,56.5,93.4297,54.5,91.4297" style="stroke:#181818;stroke-width:0.5;"/><line style="stroke:#181818;stroke-width:0.5;stroke-dasharray:2.0,2.0;" x1="53.5" x2="352" y1="91.4297" y2="91.4297"/><text fill="#000000" font-family="sans-serif" font-size="6.5" font-weight="bold" lengthAdjust="spacing" textLength="4.5" x="59.5" y="88.8967">3</text><text fill="#000000" font-family="sans-serif" font-size="6.5" lengthAdjust="spacing" textLength="283" x="66" y="88.8967">asks if the user want to use filters (business type, number of bedrooms, property type)</text><polygon fill="#181818" points="346.5,103.9961,351.5,105.9961,346.5,107.9961,348.5,105.9961" style="stroke:#181818;stroke-width:0.5;"/><line style="stroke:#181818;stroke-width:0.5;" x1="51" x2="349.5" y1="105.9961" y2="105.9961"/><text fill="#000000" font-family="sans-serif" font-size="6.5" font-weight="bold" lengthAdjust="spacing" textLength="4.5" x="54.5" y="103.4631">4</text><text fill="#000000" font-family="sans-serif" font-size="6.5" lengthAdjust="spacing" textLength="41" x="61" y="103.4631">send answer</text><path d="M5,113.4961 L42,113.4961 L42,117.0625 L37,122.0625 L5,122.0625 L5,113.4961 " fill="#EEEEEE" style="stroke:#000000;stroke-width:0.75;"/><rect fill="none" height="291.0664" style="stroke:#000000;stroke-width:0.75;" width="749.5" x="5" y="113.4961"/><text fill="#000000" font-family="sans-serif" font-size="6.5" font-weight="bold" lengthAdjust="spacing" textLength="12" x="12.5" y="120.0295">opt</text><text fill="#000000" font-family="sans-serif" font-size="5.5" font-weight="bold" lengthAdjust="spacing" textLength="48" x="49.5" y="119.6013">[answer = true]</text><polygon fill="#181818" points="697,130.6289,702,132.6289,697,134.6289,699,132.6289" style="stroke:#181818;stroke-width:0.5;"/><line style="stroke:#181818;stroke-width:0.5;" x1="357.5" x2="700" y1="132.6289" y2="132.6289"/><text fill="#000000" font-family="sans-serif" font-size="6.5" font-weight="bold" lengthAdjust="spacing" textLength="4.5" x="361" y="130.0959">5</text><text fill="#000000" font-family="sans-serif" font-size="6.5" lengthAdjust="spacing" textLength="67" x="367.5" y="130.0959">getBusinessTypeList</text><rect fill="none" height="26.5352" style="stroke:#000000;stroke-width:0.75;" width="96" x="655" y="136.6289"/><path d="M655,136.6289 L688,136.6289 L688,140.1289 L683,145.1289 L655,145.1289 L655,136.6289 " fill="#EEEEEE" style="stroke:#000000;stroke-width:1.0;"/><text fill="#000000" font-family="sans-serif" font-size="6.5" font-weight="bold" lengthAdjust="spacing" textLength="10.5" x="661.5" y="143.6624">ref</text><text fill="#000000" font-family="sans-serif" font-size="6" lengthAdjust="spacing" textLength="67.5" x="669.25" y="152.6982">Get Business Type List</text><text fill="#000000" font-family="sans-serif" font-size="6" lengthAdjust="spacing" textLength="2" x="702" y="159.6826">&#160;</text><polygon fill="#181818" points="363,174.2305,358,176.2305,363,178.2305,361,176.2305" style="stroke:#181818;stroke-width:0.5;"/><line style="stroke:#181818;stroke-width:0.5;stroke-dasharray:2.0,2.0;" x1="360" x2="702.5" y1="176.2305" y2="176.2305"/><text fill="#000000" font-family="sans-serif" font-size="6.5" font-weight="bold" lengthAdjust="spacing" textLength="9" x="366" y="173.6975">12</text><text fill="#000000" font-family="sans-serif" font-size="6.5" lengthAdjust="spacing" textLength="56" x="377" y="173.6975">businessTypeList</text><polygon fill="#181818" points="56.5,188.7969,51.5,190.7969,56.5,192.7969,54.5,190.7969" style="stroke:#181818;stroke-width:0.5;"/><line style="stroke:#181818;stroke-width:0.5;stroke-dasharray:2.0,2.0;" x1="53.5" x2="352" y1="190.7969" y2="190.7969"/><text fill="#000000" font-family="sans-serif" font-size="6.5" font-weight="bold" lengthAdjust="spacing" textLength="9" x="59.5" y="188.2639">13</text><text fill="#000000" font-family="sans-serif" font-size="6.5" lengthAdjust="spacing" textLength="77.5" x="70.5" y="188.2639">displays business types</text><polygon fill="#181818" points="346.5,203.3633,351.5,205.3633,346.5,207.3633,348.5,205.3633" style="stroke:#181818;stroke-width:0.5;"/><line style="stroke:#181818;stroke-width:0.5;" x1="51" x2="349.5" y1="205.3633" y2="205.3633"/><text fill="#000000" font-family="sans-serif" font-size="6.5" font-weight="bold" lengthAdjust="spacing" textLength="9" x="54.5" y="202.8303">14</text><text fill="#000000" font-family="sans-serif" font-size="6.5" lengthAdjust="spacing" textLength="70" x="65.5" y="202.8303">selects business type</text><line style="stroke:#181818;stroke-width:0.5;" x1="357.5" x2="378.5" y1="219.9297" y2="219.9297"/><line style="stroke:#181818;stroke-width:0.5;" x1="378.5" x2="378.5" y1="219.9297" y2="226.4297"/><line style="stroke:#181818;stroke-width:0.5;" x1="358" x2="378.5" y1="226.4297" y2="226.4297"/><polygon fill="#181818" points="363,224.4297,358,226.4297,363,228.4297,361,226.4297" style="stroke:#181818;stroke-width:0.5;"/><text fill="#000000" font-family="sans-serif" font-size="6.5" font-weight="bold" lengthAdjust="spacing" textLength="9" x="361" y="217.3967">15</text><text fill="#000000" font-family="sans-serif" font-size="6.5" lengthAdjust="spacing" textLength="61" x="372" y="217.3967">keepBusinessType</text><polygon fill="#181818" points="697,238.9961,702,240.9961,697,242.9961,699,240.9961" style="stroke:#181818;stroke-width:0.5;"/><line style="stroke:#181818;stroke-width:0.5;" x1="357.5" x2="700" y1="240.9961" y2="240.9961"/><text fill="#000000" font-family="sans-serif" font-size="6.5" font-weight="bold" lengthAdjust="spacing" textLength="9" x="361" y="238.4631">16</text><text fill="#000000" font-family="sans-serif" font-size="6.5" lengthAdjust="spacing" textLength="65.5" x="372" y="238.4631">getPropertyTypeList</text><rect fill="none" height="26.5352" style="stroke:#000000;stroke-width:0.75;" width="96" x="655" y="244.9961"/><path d="M655,244.9961 L688,244.9961 L688,248.4961 L683,253.4961 L655,253.4961 L655,244.9961 " fill="#EEEEEE" style="stroke:#000000;stroke-width:1.0;"/><text fill="#000000" font-family="sans-serif" font-size="6.5" font-weight="bold" lengthAdjust="spacing" textLength="10.5" x="661.5" y="252.0295">ref</text><text fill="#000000" font-family="sans-serif" font-size="6" lengthAdjust="spacing" textLength="67" x="669.5" y="261.0654">Get Property Type List</text><text fill="#000000" font-family="sans-serif" font-size="6" lengthAdjust="spacing" textLength="2" x="702" y="268.0498">&#160;</text><polygon fill="#181818" points="363,282.5977,358,284.5977,363,286.5977,361,284.5977" style="stroke:#181818;stroke-width:0.5;"/><line style="stroke:#181818;stroke-width:0.5;stroke-dasharray:2.0,2.0;" x1="360" x2="702.5" y1="284.5977" y2="284.5977"/><text fill="#000000" font-family="sans-serif" font-size="6.5" font-weight="bold" lengthAdjust="spacing" textLength="9" x="366" y="282.0647">21</text><text fill="#000000" font-family="sans-serif" font-size="6.5" lengthAdjust="spacing" textLength="55" x="377" y="282.0647">propertyTypeList</text><polygon fill="#181818" points="56.5,297.1641,51.5,299.1641,56.5,301.1641,54.5,299.1641" style="stroke:#181818;stroke-width:0.5;"/><line style="stroke:#181818;stroke-width:0.5;stroke-dasharray:2.0,2.0;" x1="53.5" x2="352" y1="299.1641" y2="299.1641"/><text fill="#000000" font-family="sans-serif" font-size="6.5" font-weight="bold" lengthAdjust="spacing" textLength="9" x="59.5" y="296.6311">22</text><text fill="#000000" font-family="sans-serif" font-size="6.5" lengthAdjust="spacing" textLength="76.5" x="70.5" y="296.6311">displays property types</text><polygon fill="#181818" points="346.5,311.7305,351.5,313.7305,346.5,315.7305,348.5,313.7305" style="stroke:#181818;stroke-width:0.5;"/><line style="stroke:#181818;stroke-width:0.5;" x1="51" x2="349.5" y1="313.7305" y2="313.7305"/><text fill="#000000" font-family="sans-serif" font-size="6.5" font-weight="bold" lengthAdjust="spacing" textLength="9" x="54.5" y="311.1975">23</text><text fill="#000000" font-family="sans-serif" font-size="6.5" lengthAdjust="spacing" textLength="69" x="65.5" y="311.1975">selects property type</text><line style="stroke:#181818;stroke-width:0.5;" x1="357.5" x2="378.5" y1="328.2969" y2="328.2969"/><line style="stroke:#181818;stroke-width:0.5;" x1="378.5" x2="378.5" y1="328.2969" y2="334.7969"/><line style="stroke:#181818;stroke-width:0.5;" x1="358" x2="378.5" y1="334.7969" y2="334.7969"/><polygon fill="#181818" points="363,332.7969,358,334.7969,363,336.7969,361,334.7969" style="stroke:#181818;stroke-width:0.5;"/><text fill="#000000" font-family="sans-serif" font-size="6.5" font-weight="bold" lengthAdjust="spacing" textLength="9" x="361" y="325.7639">24</text><text fill="#000000" font-family="sans-serif" font-size="6.5" lengthAdjust="spacing" textLength="59.5" x="372" y="325.7639">keepPropertyType</text><path d="M10,342.2969 L44.5,342.2969 L44.5,345.8633 L39.5,350.8633 L10,350.8633 L10,342.2969 " fill="#EEEEEE" style="stroke:#000000;stroke-width:0.75;"/><rect fill="none" height="58.7656" style="stroke:#000000;stroke-width:0.75;" width="443" x="10" y="342.2969"/><text fill="#000000" font-family="sans-serif" font-size="6.5" font-weight="bold" lengthAdjust="spacing" textLength="12" x="17.5" y="348.8303">opt</text><text fill="#000000" font-family="sans-serif" font-size="5.5" font-weight="bold" lengthAdjust="spacing" textLength="87" x="52" y="348.4021">[keepPropertyType != Land]</text><polygon fill="#181818" points="56.5,359.4297,51.5,361.4297,56.5,363.4297,54.5,361.4297" style="stroke:#181818;stroke-width:0.5;"/><line style="stroke:#181818;stroke-width:0.5;stroke-dasharray:2.0,2.0;" x1="53.5" x2="352" y1="361.4297" y2="361.4297"/><text fill="#000000" font-family="sans-serif" font-size="6.5" font-weight="bold" lengthAdjust="spacing" textLength="9" x="59.5" y="358.8967">25</text><text fill="#000000" font-family="sans-serif" font-size="6.5" lengthAdjust="spacing" textLength="85" x="70.5" y="358.8967">asks number of bedrooms</text><polygon fill="#181818" points="346.5,373.9961,351.5,375.9961,346.5,377.9961,348.5,375.9961" style="stroke:#181818;stroke-width:0.5;"/><line style="stroke:#181818;stroke-width:0.5;" x1="51" x2="349.5" y1="375.9961" y2="375.9961"/><text fill="#000000" font-family="sans-serif" font-size="6.5" font-weight="bold" lengthAdjust="spacing" textLength="9" x="54.5" y="373.4631">26</text><text fill="#000000" font-family="sans-serif" font-size="6.5" lengthAdjust="spacing" textLength="84.5" x="65.5" y="373.4631">type number of bedrooms</text><line style="stroke:#181818;stroke-width:0.5;" x1="357.5" x2="378.5" y1="390.5625" y2="390.5625"/><line style="stroke:#181818;stroke-width:0.5;" x1="378.5" x2="378.5" y1="390.5625" y2="397.0625"/><line style="stroke:#181818;stroke-width:0.5;" x1="358" x2="378.5" y1="397.0625" y2="397.0625"/><polygon fill="#181818" points="363,395.0625,358,397.0625,363,399.0625,361,397.0625" style="stroke:#181818;stroke-width:0.5;"/><text fill="#000000" font-family="sans-serif" font-size="6.5" font-weight="bold" lengthAdjust="spacing" textLength="9" x="361" y="388.0295">27</text><text fill="#000000" font-family="sans-serif" font-size="6.5" lengthAdjust="spacing" textLength="75" x="372" y="388.0295">keepNumberBedrooms</text><polygon fill="#181818" points="56.5,416.6289,51.5,418.6289,56.5,420.6289,54.5,418.6289" style="stroke:#181818;stroke-width:0.5;"/><line style="stroke:#181818;stroke-width:0.5;stroke-dasharray:2.0,2.0;" x1="53.5" x2="352" y1="418.6289" y2="418.6289"/><text fill="#000000" font-family="sans-serif" font-size="6.5" font-weight="bold" lengthAdjust="spacing" textLength="9" x="59.5" y="416.0959">28</text><text fill="#000000" font-family="sans-serif" font-size="6.5" lengthAdjust="spacing" textLength="72" x="70.5" y="416.0959">displays sort methods</text><polygon fill="#181818" points="346.5,431.1953,351.5,433.1953,346.5,435.1953,348.5,433.1953" style="stroke:#181818;stroke-width:0.5;"/><line style="stroke:#181818;stroke-width:0.5;" x1="51" x2="349.5" y1="433.1953" y2="433.1953"/><text fill="#000000" font-family="sans-serif" font-size="6.5" font-weight="bold" lengthAdjust="spacing" textLength="9" x="54.5" y="430.6624">29</text><text fill="#000000" font-family="sans-serif" font-size="6.5" lengthAdjust="spacing" textLength="64.5" x="65.5" y="430.6624">selects sort method</text><line style="stroke:#181818;stroke-width:0.5;" x1="357.5" x2="378.5" y1="447.7617" y2="447.7617"/><line style="stroke:#181818;stroke-width:0.5;" x1="378.5" x2="378.5" y1="447.7617" y2="454.2617"/><line style="stroke:#181818;stroke-width:0.5;" x1="358" x2="378.5" y1="454.2617" y2="454.2617"/><polygon fill="#181818" points="363,452.2617,358,454.2617,363,456.2617,361,454.2617" style="stroke:#181818;stroke-width:0.5;"/><text fill="#000000" font-family="sans-serif" font-size="6.5" font-weight="bold" lengthAdjust="spacing" textLength="9" x="361" y="445.2288">30</text><text fill="#000000" font-family="sans-serif" font-size="6.5" lengthAdjust="spacing" textLength="53" x="372" y="445.2288">keepSortMethod</text><polygon fill="#181818" points="697,466.8281,702,468.8281,697,470.8281,699,468.8281" style="stroke:#181818;stroke-width:0.5;"/><line style="stroke:#181818;stroke-width:0.5;" x1="357.5" x2="700" y1="468.8281" y2="468.8281"/><text fill="#000000" font-family="sans-serif" font-size="6.5" font-weight="bold" lengthAdjust="spacing" textLength="9" x="361" y="466.2952">31</text><text fill="#000000" font-family="sans-serif" font-size="6.5" lengthAdjust="spacing" textLength="322.5" x="372" y="466.2952">getListedProperties(keepSortMethod,keepBusinessType,keepPropertyType,keepNumberBedrooms)</text><rect fill="none" height="26.5352" style="stroke:#000000;stroke-width:0.75;" width="96" x="655" y="472.8281"/><path d="M655,472.8281 L688,472.8281 L688,476.3281 L683,481.3281 L655,481.3281 L655,472.8281 " fill="#EEEEEE" style="stroke:#000000;stroke-width:1.0;"/><text fill="#000000" font-family="sans-serif" font-size="6.5" font-weight="bold" lengthAdjust="spacing" textLength="10.5" x="661.5" y="479.8616">ref</text><text fill="#000000" font-family="sans-serif" font-size="6" lengthAdjust="spacing" textLength="75" x="665.5" y="488.8975">Get Listed Properties List</text><text fill="#000000" font-family="sans-serif" font-size="6" lengthAdjust="spacing" textLength="2" x="702" y="495.8818">&#160;</text><polygon fill="#181818" points="363,510.4297,358,512.4297,363,514.4297,361,512.4297" style="stroke:#181818;stroke-width:0.5;"/><line style="stroke:#181818;stroke-width:0.5;stroke-dasharray:2.0,2.0;" x1="360" x2="702.5" y1="512.4297" y2="512.4297"/><text fill="#000000" font-family="sans-serif" font-size="6.5" font-weight="bold" lengthAdjust="spacing" textLength="9" x="366" y="509.8967">47</text><text fill="#000000" font-family="sans-serif" font-size="6.5" lengthAdjust="spacing" textLength="44.5" x="377" y="509.8967">propertiesList</text><polygon fill="#181818" points="54,524.9961,49,526.9961,54,528.9961,52,526.9961" style="stroke:#181818;stroke-width:0.5;"/><line style="stroke:#181818;stroke-width:0.5;stroke-dasharray:2.0,2.0;" x1="51" x2="354.5" y1="526.9961" y2="526.9961"/><text fill="#000000" font-family="sans-serif" font-size="6.5" font-weight="bold" lengthAdjust="spacing" textLength="9" x="57" y="524.4631">48</text><text fill="#000000" font-family="sans-serif" font-size="6.5" lengthAdjust="spacing" textLength="78.5" x="68" y="524.4631">display listed properties</text><!--SRC=[dLLHQzim47xNhxZbPMr97be6Wx0ErWv68HrZRPxA7XJxR8lOaf3aPldtEybnR3bsHgk74Ea-VVVTfvDijq9gRdW5bP8gAOog49ofaTbZHFDaotDySliImM3YkCpBFi0MF5Kx8NF8U6cHCLux9UjgWuQnZuL84JAbt4RzPJnnoi1iBGtcmZeqcCBQefa1j_3j-oCZHYSIeRbqC5kk2FFBA8sqY7Rz463hXxEeUoMTKMLv8Br__hrYOL1kySeTXZmCQD0VM7mbGbWIT6l1AIY9BFoGCdqaPSs68mLf20j-q7OYyNckhfQG62G0OrtSP_coMFJIY0nSWL1JuR3pDL1Uca0cIhB4miMcjaAY9K5xZNDel0ILmGPJerHbvwssVO1Snjb2JKkmA5FWqkxyERJntAXQWz8ENfeGt8O3_yF6AYB5ERgxWvndIkNDxf06Cr2lH19iXf7n0nsq-y4JGCpWDH9Bjz0r3rpVTCj1pQ8zhSsa8g-TKDw69QJ2wfBlBKI6sZ6tB9RKsWFaq1AVUuke-uPCstReoVrxRElRr_AyrRwRwmdtzAImSVUYNZlhNeISSg_lIuVnBJcCmeTRM76PHXPr6W_NwVHwi6X3xqfuMV_5KmAF3nkyefy1VzTYUzQpyKbquuykMcKSLEWAbOvv2Fx2DYxsa7qFcngyeYS2F9x4u-vRXJUiUnSluetpOH_FX-RFJsk_V6yBDsAWK_E6Dlxq-NmR4rjCbkBndMvU_z7kRWzcvB4VaFZ7lZVrduz_]--></g></svg>