<?xml version="1.0" encoding="us-ascii" standalone="no"?><svg xmlns="http://www.w3.org/2000/svg" xmlns:xlink="http://www.w3.org/1999/xlink" contentStyleType="text/css" height="942px" preserveAspectRatio="none" style="width:1407px;height:942px;background:#FFFFFF;" version="1.1" viewBox="0 0 1407 942" width="1407px" zoomAndPan="magnify"><defs/><g><text fill="#000000" font-family="sans-serif" font-size="14" font-weight="bold" lengthAdjust="spacing" textLength="195" x="605" y="27.6738">Sequence Diagram Full (SD)</text><rect fill="#FFFFFF" height="716.6797" style="stroke:#181818;stroke-width:1.0;" width="10" x="50" y="127.2813"/><rect fill="#FFFFFF" height="696.1563" style="stroke:#181818;stroke-width:1.0;" width="10" x="262" y="147.8047"/><rect fill="#FFFFFF" height="59.1641" style="stroke:#181818;stroke-width:1.0;" width="10" x="485" y="186.3281"/><rect fill="#FFFFFF" height="85.5703" style="stroke:#181818;stroke-width:1.0;" width="10" x="485" y="372.5859"/><rect fill="#FFFFFF" height="287.2344" style="stroke:#181818;stroke-width:1.0;" width="10" x="485" y="528.2031"/><rect fill="#FFFFFF" height="28.5234" style="stroke:#181818;stroke-width:1.0;" width="10" x="626.5" y="216.9688"/><rect fill="#FFFFFF" height="28.5234" style="stroke:#181818;stroke-width:1.0;" width="10" x="733.5" y="556.7266"/><rect fill="#FFFFFF" height="28.5234" style="stroke:#181818;stroke-width:1.0;" width="10" x="840.5" y="401.1094"/><rect fill="#FFFFFF" height="28.5234" style="stroke:#181818;stroke-width:1.0;" width="10" x="964.5" y="613.7734"/><rect fill="#FFFFFF" height="52.0469" style="stroke:#181818;stroke-width:1.0;" width="10" x="1128" y="670.8203"/><rect fill="#FFFFFF" height="28.5234" style="stroke:#181818;stroke-width:1.0;" width="10" x="1311" y="758.3906"/><rect fill="none" height="45.0469" style="stroke:#000000;stroke-width:1.5;" width="834" x="397" y="685.8203"/><line style="stroke:#181818;stroke-width:0.5;stroke-dasharray:5.0,5.0;" x1="55" x2="55" y1="117.2813" y2="861.9609"/><line style="stroke:#181818;stroke-width:0.5;stroke-dasharray:5.0,5.0;" x1="267" x2="267" y1="117.2813" y2="861.9609"/><line style="stroke:#181818;stroke-width:0.5;stroke-dasharray:5.0,5.0;" x1="490" x2="490" y1="186.125" y2="861.9609"/><line style="stroke:#181818;stroke-width:0.5;stroke-dasharray:5.0,5.0;" x1="631" x2="631" y1="117.2813" y2="861.9609"/><line style="stroke:#181818;stroke-width:0.5;stroke-dasharray:5.0,5.0;" x1="738" x2="738" y1="117.2813" y2="861.9609"/><line style="stroke:#181818;stroke-width:0.5;stroke-dasharray:5.0,5.0;" x1="845" x2="845" y1="117.2813" y2="861.9609"/><line style="stroke:#181818;stroke-width:0.5;stroke-dasharray:5.0,5.0;" x1="969" x2="969" y1="117.2813" y2="861.9609"/><line style="stroke:#181818;stroke-width:0.5;stroke-dasharray:5.0,5.0;" x1="1133" x2="1133" y1="117.2813" y2="861.9609"/><line style="stroke:#181818;stroke-width:0.5;stroke-dasharray:5.0,5.0;" x1="1316" x2="1316" y1="117.2813" y2="861.9609"/><text fill="#000000" font-family="sans-serif" font-size="14" lengthAdjust="spacing" textLength="94" x="5" y="114.3145">Store Manager</text><ellipse cx="55" cy="50.1406" fill="#E3E3E3" rx="8" ry="8" style="stroke:#181818;stroke-width:0.5;"/><path d="M55,58.1406 L55,85.1406 M42,66.1406 L68,66.1406 M55,85.1406 L42,100.1406 M55,85.1406 L68,100.1406 " fill="none" style="stroke:#181818;stroke-width:0.5;"/><text fill="#000000" font-family="sans-serif" font-size="14" lengthAdjust="spacing" textLength="94" x="5" y="873.6348">Store Manager</text><ellipse cx="55" cy="885.1016" fill="#E3E3E3" rx="8" ry="8" style="stroke:#181818;stroke-width:0.5;"/><path d="M55,893.1016 L55,920.1016 M42,901.1016 L68,901.1016 M55,920.1016 L42,935.1016 M55,920.1016 L68,935.1016 " fill="none" style="stroke:#181818;stroke-width:0.5;"/><rect fill="#E3E3E3" height="29.6406" rx="2.5" ry="2.5" style="stroke:#181818;stroke-width:0.5;" width="116" x="209" y="86.6406"/><text fill="#000000" font-family="sans-serif" font-size="14" lengthAdjust="spacing" textLength="102" x="216" y="106.3145">:AnalyseDealsUI</text><rect fill="#E3E3E3" height="29.6406" rx="2.5" ry="2.5" style="stroke:#181818;stroke-width:0.5;" width="116" x="209" y="860.9609"/><text fill="#000000" font-family="sans-serif" font-size="14" lengthAdjust="spacing" textLength="102" x="216" y="880.6348">:AnalyseDealsUI</text><rect fill="#E3E3E3" height="29.6406" rx="2.5" ry="2.5" style="stroke:#181818;stroke-width:0.5;" width="166" x="407" y="860.9609"/><text fill="#000000" font-family="sans-serif" font-size="14" lengthAdjust="spacing" textLength="152" x="414" y="880.6348">:AnalyseDealsController</text><rect fill="#E3E3E3" height="29.6406" rx="2.5" ry="2.5" style="stroke:#181818;stroke-width:0.5;" width="97" x="583" y="86.6406"/><text fill="#000000" font-family="sans-serif" font-size="14" lengthAdjust="spacing" textLength="83" x="590" y="106.3145">:Repositories</text><rect fill="#E3E3E3" height="29.6406" rx="2.5" ry="2.5" style="stroke:#181818;stroke-width:0.5;" width="97" x="583" y="860.9609"/><text fill="#000000" font-family="sans-serif" font-size="14" lengthAdjust="spacing" textLength="83" x="590" y="880.6348">:Repositories</text><rect fill="#E3E3E3" height="45.2813" rx="2.5" ry="2.5" style="stroke:#181818;stroke-width:0.5;" width="97" x="690" y="71"/><text fill="#000000" font-family="sans-serif" font-size="14" lengthAdjust="spacing" textLength="74" x="701.5" y="90.6738">repositories</text><text fill="#000000" font-family="sans-serif" font-size="14" lengthAdjust="spacing" textLength="83" x="697" y="106.3145">:Repositories</text><rect fill="#E3E3E3" height="45.2813" rx="2.5" ry="2.5" style="stroke:#181818;stroke-width:0.5;" width="97" x="690" y="860.9609"/><text fill="#000000" font-family="sans-serif" font-size="14" lengthAdjust="spacing" textLength="74" x="701.5" y="880.6348">repositories</text><text fill="#000000" font-family="sans-serif" font-size="14" lengthAdjust="spacing" textLength="83" x="697" y="896.2754">:Repositories</text><rect fill="#E3E3E3" height="45.2813" rx="2.5" ry="2.5" style="stroke:#181818;stroke-width:0.5;" width="97" x="797" y="71"/><text fill="#000000" font-family="sans-serif" font-size="14" lengthAdjust="spacing" textLength="78" x="806.5" y="90.6738">userSession</text><text fill="#000000" font-family="sans-serif" font-size="14" lengthAdjust="spacing" textLength="83" x="804" y="106.3145">:UserSession</text><rect fill="#E3E3E3" height="45.2813" rx="2.5" ry="2.5" style="stroke:#181818;stroke-width:0.5;" width="97" x="797" y="860.9609"/><text fill="#000000" font-family="sans-serif" font-size="14" lengthAdjust="spacing" textLength="78" x="806.5" y="880.6348">userSession</text><text fill="#000000" font-family="sans-serif" font-size="14" lengthAdjust="spacing" textLength="83" x="804" y="896.2754">:UserSession</text><rect fill="#E3E3E3" height="45.2813" rx="2.5" ry="2.5" style="stroke:#181818;stroke-width:0.5;" width="131" x="904" y="71"/><text fill="#000000" font-family="sans-serif" font-size="14" lengthAdjust="spacing" textLength="112" x="913.5" y="90.6738">personRepository</text><text fill="#000000" font-family="sans-serif" font-size="14" lengthAdjust="spacing" textLength="117" x="911" y="106.3145">:PersonRepository</text><rect fill="#E3E3E3" height="45.2813" rx="2.5" ry="2.5" style="stroke:#181818;stroke-width:0.5;" width="131" x="904" y="860.9609"/><text fill="#000000" font-family="sans-serif" font-size="14" lengthAdjust="spacing" textLength="112" x="913.5" y="880.6348">personRepository</text><text fill="#000000" font-family="sans-serif" font-size="14" lengthAdjust="spacing" textLength="117" x="911" y="896.2754">:PersonRepository</text><rect fill="#E3E3E3" height="45.2813" rx="2.5" ry="2.5" style="stroke:#181818;stroke-width:0.5;" width="176" x="1045" y="71"/><text fill="#000000" font-family="sans-serif" font-size="14" lengthAdjust="spacing" textLength="157" x="1054.5" y="90.6738">advertisementRepository</text><text fill="#000000" font-family="sans-serif" font-size="14" lengthAdjust="spacing" textLength="162" x="1052" y="106.3145">:AdvertisementRepository</text><rect fill="#E3E3E3" height="45.2813" rx="2.5" ry="2.5" style="stroke:#181818;stroke-width:0.5;" width="176" x="1045" y="860.9609"/><text fill="#000000" font-family="sans-serif" font-size="14" lengthAdjust="spacing" textLength="157" x="1054.5" y="880.6348">advertisementRepository</text><text fill="#000000" font-family="sans-serif" font-size="14" lengthAdjust="spacing" textLength="162" x="1052" y="896.2754">:AdvertisementRepository</text><rect fill="#E3E3E3" height="45.2813" rx="2.5" ry="2.5" style="stroke:#181818;stroke-width:0.5;" width="170" x="1231" y="71"/><text fill="#000000" font-family="sans-serif" font-size="14" lengthAdjust="spacing" textLength="151" x="1240.5" y="90.6738">advertisementCollection</text><text fill="#000000" font-family="sans-serif" font-size="14" lengthAdjust="spacing" textLength="156" x="1238" y="106.3145">:AdvertisementCollection</text><rect fill="#E3E3E3" height="45.2813" rx="2.5" ry="2.5" style="stroke:#181818;stroke-width:0.5;" width="170" x="1231" y="860.9609"/><text fill="#000000" font-family="sans-serif" font-size="14" lengthAdjust="spacing" textLength="151" x="1240.5" y="880.6348">advertisementCollection</text><text fill="#000000" font-family="sans-serif" font-size="14" lengthAdjust="spacing" textLength="156" x="1238" y="896.2754">:AdvertisementCollection</text><rect fill="#FFFFFF" height="716.6797" style="stroke:#181818;stroke-width:1.0;" width="10" x="50" y="127.2813"/><rect fill="#FFFFFF" height="696.1563" style="stroke:#181818;stroke-width:1.0;" width="10" x="262" y="147.8047"/><rect fill="#FFFFFF" height="59.1641" style="stroke:#181818;stroke-width:1.0;" width="10" x="485" y="186.3281"/><rect fill="#FFFFFF" height="85.5703" style="stroke:#181818;stroke-width:1.0;" width="10" x="485" y="372.5859"/><rect fill="#FFFFFF" height="287.2344" style="stroke:#181818;stroke-width:1.0;" width="10" x="485" y="528.2031"/><rect fill="#FFFFFF" height="28.5234" style="stroke:#181818;stroke-width:1.0;" width="10" x="626.5" y="216.9688"/><rect fill="#FFFFFF" height="28.5234" style="stroke:#181818;stroke-width:1.0;" width="10" x="733.5" y="556.7266"/><rect fill="#FFFFFF" height="28.5234" style="stroke:#181818;stroke-width:1.0;" width="10" x="840.5" y="401.1094"/><rect fill="#FFFFFF" height="28.5234" style="stroke:#181818;stroke-width:1.0;" width="10" x="964.5" y="613.7734"/><rect fill="#FFFFFF" height="52.0469" style="stroke:#181818;stroke-width:1.0;" width="10" x="1128" y="670.8203"/><rect fill="#FFFFFF" height="28.5234" style="stroke:#181818;stroke-width:1.0;" width="10" x="1311" y="758.3906"/><polygon fill="#181818" points="250,143.8047,260,147.8047,250,151.8047,254,147.8047" style="stroke:#181818;stroke-width:1.0;"/><line style="stroke:#181818;stroke-width:1.0;" x1="60" x2="256" y1="147.8047" y2="147.8047"/><text fill="#000000" font-family="sans-serif" font-size="13" font-weight="bold" lengthAdjust="spacing" textLength="7" x="67" y="143.0498">1</text><text fill="#000000" font-family="sans-serif" font-size="13" lengthAdjust="spacing" textLength="162" x="78" y="143.0498">Ask to Analyse Deals Made</text><polygon fill="#181818" points="395,172.3281,405,176.3281,395,180.3281,399,176.3281" style="stroke:#181818;stroke-width:1.0;"/><line style="stroke:#181818;stroke-width:1.0;" x1="272" x2="401" y1="176.3281" y2="176.3281"/><text fill="#000000" font-family="sans-serif" font-size="13" font-weight="bold" lengthAdjust="spacing" textLength="7" x="279" y="171.5732">2</text><text fill="#000000" font-family="sans-serif" font-size="13" lengthAdjust="spacing" textLength="36" x="290" y="171.5732">create</text><rect fill="#E3E3E3" height="29.6406" rx="2.5" ry="2.5" style="stroke:#181818;stroke-width:0.5;" width="166" x="407" y="155.8047"/><text fill="#000000" font-family="sans-serif" font-size="14" lengthAdjust="spacing" textLength="152" x="414" y="175.4785">:AnalyseDealsController</text><polygon fill="#181818" points="614.5,212.9688,624.5,216.9688,614.5,220.9688,618.5,216.9688" style="stroke:#181818;stroke-width:1.0;"/><line style="stroke:#181818;stroke-width:1.0;" x1="495" x2="620.5" y1="216.9688" y2="216.9688"/><text fill="#000000" font-family="sans-serif" font-size="13" font-weight="bold" lengthAdjust="spacing" textLength="7" x="502" y="212.2139">3</text><text fill="#000000" font-family="sans-serif" font-size="13" lengthAdjust="spacing" textLength="75" x="513" y="212.2139">getInstance()</text><polygon fill="#181818" points="501,241.4922,491,245.4922,501,249.4922,497,245.4922" style="stroke:#181818;stroke-width:1.0;"/><line style="stroke:#181818;stroke-width:1.0;stroke-dasharray:2.0,2.0;" x1="495" x2="630.5" y1="245.4922" y2="245.4922"/><text fill="#000000" font-family="sans-serif" font-size="13" font-weight="bold" lengthAdjust="spacing" textLength="7" x="507" y="240.7373">4</text><text fill="#000000" font-family="sans-serif" font-size="13" lengthAdjust="spacing" textLength="67" x="518" y="240.7373">repositories</text><polygon fill="#181818" points="71,270.0156,61,274.0156,71,278.0156,67,274.0156" style="stroke:#181818;stroke-width:1.0;"/><line style="stroke:#181818;stroke-width:1.0;" x1="65" x2="261" y1="274.0156" y2="274.0156"/><text fill="#000000" font-family="sans-serif" font-size="13" font-weight="bold" lengthAdjust="spacing" textLength="7" x="77" y="269.2607">5</text><text fill="#000000" font-family="sans-serif" font-size="13" lengthAdjust="spacing" textLength="159" x="88" y="269.2607">displayAndChooseMethod()</text><polygon fill="#181818" points="250,298.5391,260,302.5391,250,306.5391,254,302.5391" style="stroke:#181818;stroke-width:1.0;"/><line style="stroke:#181818;stroke-width:1.0;" x1="60" x2="256" y1="302.5391" y2="302.5391"/><text fill="#000000" font-family="sans-serif" font-size="13" font-weight="bold" lengthAdjust="spacing" textLength="7" x="67" y="297.7842">6</text><text fill="#000000" font-family="sans-serif" font-size="13" lengthAdjust="spacing" textLength="118" x="78" y="297.7842">keepAnalyseMethod</text><line style="stroke:#181818;stroke-width:1.0;" x1="272" x2="314" y1="331.0625" y2="331.0625"/><line style="stroke:#181818;stroke-width:1.0;" x1="314" x2="314" y1="331.0625" y2="344.0625"/><line style="stroke:#181818;stroke-width:1.0;" x1="273" x2="314" y1="344.0625" y2="344.0625"/><polygon fill="#181818" points="283,340.0625,273,344.0625,283,348.0625,279,344.0625" style="stroke:#181818;stroke-width:1.0;"/><text fill="#000000" font-family="sans-serif" font-size="13" font-weight="bold" lengthAdjust="spacing" textLength="7" x="279" y="326.3076">7</text><text fill="#000000" font-family="sans-serif" font-size="13" lengthAdjust="spacing" textLength="118" x="290" y="326.3076">keepAnalyseMethod</text><polygon fill="#181818" points="473,368.5859,483,372.5859,473,376.5859,477,372.5859" style="stroke:#181818;stroke-width:1.0;"/><line style="stroke:#181818;stroke-width:1.0;" x1="272" x2="479" y1="372.5859" y2="372.5859"/><text fill="#000000" font-family="sans-serif" font-size="13" font-weight="bold" lengthAdjust="spacing" textLength="7" x="279" y="367.8311">8</text><text fill="#000000" font-family="sans-serif" font-size="13" lengthAdjust="spacing" textLength="140" x="290" y="367.8311">getStoreManagerEmail()</text><polygon fill="#181818" points="828.5,397.1094,838.5,401.1094,828.5,405.1094,832.5,401.1094" style="stroke:#181818;stroke-width:1.0;"/><line style="stroke:#181818;stroke-width:1.0;" x1="495" x2="834.5" y1="401.1094" y2="401.1094"/><text fill="#000000" font-family="sans-serif" font-size="13" font-weight="bold" lengthAdjust="spacing" textLength="7" x="502" y="396.3545">9</text><text fill="#000000" font-family="sans-serif" font-size="13" lengthAdjust="spacing" textLength="140" x="513" y="396.3545">getStoreManagerEmail()</text><polygon fill="#181818" points="506,425.6328,496,429.6328,506,433.6328,502,429.6328" style="stroke:#181818;stroke-width:1.0;"/><line style="stroke:#181818;stroke-width:1.0;" x1="500" x2="844.5" y1="429.6328" y2="429.6328"/><text fill="#000000" font-family="sans-serif" font-size="13" font-weight="bold" lengthAdjust="spacing" textLength="14" x="512" y="424.8779">10</text><text fill="#000000" font-family="sans-serif" font-size="13" lengthAdjust="spacing" textLength="112" x="530" y="424.8779">storeManagerEmail</text><polygon fill="#181818" points="283,454.1563,273,458.1563,283,462.1563,279,458.1563" style="stroke:#181818;stroke-width:1.0;"/><line style="stroke:#181818;stroke-width:1.0;" x1="277" x2="489" y1="458.1563" y2="458.1563"/><text fill="#000000" font-family="sans-serif" font-size="13" font-weight="bold" lengthAdjust="spacing" textLength="14" x="289" y="453.4014">11</text><text fill="#000000" font-family="sans-serif" font-size="13" lengthAdjust="spacing" textLength="112" x="307" y="453.4014">storeManagerEmail</text><line style="stroke:#181818;stroke-width:1.0;" x1="272" x2="314" y1="486.6797" y2="486.6797"/><line style="stroke:#181818;stroke-width:1.0;" x1="314" x2="314" y1="486.6797" y2="499.6797"/><line style="stroke:#181818;stroke-width:1.0;" x1="273" x2="314" y1="499.6797" y2="499.6797"/><polygon fill="#181818" points="283,495.6797,273,499.6797,283,503.6797,279,499.6797" style="stroke:#181818;stroke-width:1.0;"/><text fill="#000000" font-family="sans-serif" font-size="13" font-weight="bold" lengthAdjust="spacing" textLength="14" x="279" y="481.9248">12</text><text fill="#000000" font-family="sans-serif" font-size="13" lengthAdjust="spacing" textLength="112" x="297" y="481.9248">storeManagerEmail</text><polygon fill="#181818" points="473,524.2031,483,528.2031,473,532.2031,477,528.2031" style="stroke:#181818;stroke-width:1.0;"/><line style="stroke:#181818;stroke-width:1.0;" x1="272" x2="479" y1="528.2031" y2="528.2031"/><text fill="#000000" font-family="sans-serif" font-size="13" font-weight="bold" lengthAdjust="spacing" textLength="14" x="279" y="523.4482">13</text><text fill="#000000" font-family="sans-serif" font-size="13" lengthAdjust="spacing" textLength="176" x="297" y="523.4482">getStores(storeManagerEmail)</text><polygon fill="#181818" points="721.5,552.7266,731.5,556.7266,721.5,560.7266,725.5,556.7266" style="stroke:#181818;stroke-width:1.0;"/><line style="stroke:#181818;stroke-width:1.0;" x1="495" x2="727.5" y1="556.7266" y2="556.7266"/><text fill="#000000" font-family="sans-serif" font-size="13" font-weight="bold" lengthAdjust="spacing" textLength="14" x="502" y="551.9717">14</text><text fill="#000000" font-family="sans-serif" font-size="13" lengthAdjust="spacing" textLength="129" x="520" y="551.9717">getPersonRepository()</text><polygon fill="#181818" points="506,581.25,496,585.25,506,589.25,502,585.25" style="stroke:#181818;stroke-width:1.0;"/><line style="stroke:#181818;stroke-width:1.0;" x1="500" x2="737.5" y1="585.25" y2="585.25"/><text fill="#000000" font-family="sans-serif" font-size="13" font-weight="bold" lengthAdjust="spacing" textLength="14" x="512" y="580.4951">15</text><text fill="#000000" font-family="sans-serif" font-size="13" lengthAdjust="spacing" textLength="101" x="530" y="580.4951">personRepository</text><polygon fill="#181818" points="952.5,609.7734,962.5,613.7734,952.5,617.7734,956.5,613.7734" style="stroke:#181818;stroke-width:1.0;"/><line style="stroke:#181818;stroke-width:1.0;" x1="495" x2="958.5" y1="613.7734" y2="613.7734"/><text fill="#000000" font-family="sans-serif" font-size="13" font-weight="bold" lengthAdjust="spacing" textLength="14" x="502" y="609.0186">16</text><text fill="#000000" font-family="sans-serif" font-size="13" lengthAdjust="spacing" textLength="176" x="520" y="609.0186">getStores(storeManagerEmail)</text><polygon fill="#181818" points="506,638.2969,496,642.2969,506,646.2969,502,642.2969" style="stroke:#181818;stroke-width:1.0;"/><line style="stroke:#181818;stroke-width:1.0;" x1="500" x2="968.5" y1="642.2969" y2="642.2969"/><text fill="#000000" font-family="sans-serif" font-size="13" font-weight="bold" lengthAdjust="spacing" textLength="14" x="512" y="637.542">17</text><text fill="#000000" font-family="sans-serif" font-size="13" lengthAdjust="spacing" textLength="138" x="530" y="637.542">storeManagerStoresList</text><polygon fill="#181818" points="1116,666.8203,1126,670.8203,1116,674.8203,1120,670.8203" style="stroke:#181818;stroke-width:1.0;"/><line style="stroke:#181818;stroke-width:1.0;" x1="495" x2="1122" y1="670.8203" y2="670.8203"/><text fill="#000000" font-family="sans-serif" font-size="13" font-weight="bold" lengthAdjust="spacing" textLength="14" x="502" y="666.0654">18</text><text fill="#000000" font-family="sans-serif" font-size="13" lengthAdjust="spacing" textLength="337" x="520" y="666.0654">getStoreManagerStoresDealsList(storeManagerStoresList)</text><path d="M397,685.8203 L462,685.8203 L462,692.3438 L452,702.3438 L397,702.3438 L397,685.8203 " fill="#EEEEEE" style="stroke:#000000;stroke-width:1.5;"/><rect fill="none" height="45.0469" style="stroke:#000000;stroke-width:1.5;" width="834" x="397" y="685.8203"/><text fill="#000000" font-family="sans-serif" font-size="13" font-weight="bold" lengthAdjust="spacing" textLength="20" x="412" y="698.5889">opt</text><text fill="#000000" font-family="sans-serif" font-size="11" font-weight="bold" lengthAdjust="spacing" textLength="480" x="477" y="697.7783">[(Business Type == SALE &amp;&amp; (Property Type == HOUSE || Property Type == APARTMENT))]</text><polygon fill="#181818" points="506,718.8672,496,722.8672,506,726.8672,502,722.8672" style="stroke:#181818;stroke-width:1.0;"/><line style="stroke:#181818;stroke-width:1.0;" x1="500" x2="1132" y1="722.8672" y2="722.8672"/><text fill="#000000" font-family="sans-serif" font-size="13" font-weight="bold" lengthAdjust="spacing" textLength="14" x="512" y="718.1123">19</text><text fill="#000000" font-family="sans-serif" font-size="13" lengthAdjust="spacing" textLength="171" x="530" y="718.1123">storeManagerStoresDealsList</text><polygon fill="#181818" points="1299,754.3906,1309,758.3906,1299,762.3906,1303,758.3906" style="stroke:#181818;stroke-width:1.0;"/><line style="stroke:#181818;stroke-width:1.0;" x1="495" x2="1305" y1="758.3906" y2="758.3906"/><text fill="#000000" font-family="sans-serif" font-size="13" font-weight="bold" lengthAdjust="spacing" textLength="14" x="502" y="753.6357">20</text><text fill="#000000" font-family="sans-serif" font-size="13" lengthAdjust="spacing" textLength="379" x="520" y="753.6357">analyseDeals(keepAnalyseMethod,storeManagerStoresDealsList)</text><polygon fill="#181818" points="506,782.9141,496,786.9141,506,790.9141,502,786.9141" style="stroke:#181818;stroke-width:1.0;"/><line style="stroke:#181818;stroke-width:1.0;" x1="500" x2="1315" y1="786.9141" y2="786.9141"/><text fill="#000000" font-family="sans-serif" font-size="13" font-weight="bold" lengthAdjust="spacing" textLength="14" x="512" y="782.1592">21</text><text fill="#000000" font-family="sans-serif" font-size="13" lengthAdjust="spacing" textLength="112" x="530" y="782.1592">resultAnalyseDeals</text><polygon fill="#181818" points="283,811.4375,273,815.4375,283,819.4375,279,815.4375" style="stroke:#181818;stroke-width:1.0;"/><line style="stroke:#181818;stroke-width:1.0;" x1="277" x2="489" y1="815.4375" y2="815.4375"/><text fill="#000000" font-family="sans-serif" font-size="13" font-weight="bold" lengthAdjust="spacing" textLength="14" x="289" y="810.6826">22</text><text fill="#000000" font-family="sans-serif" font-size="13" lengthAdjust="spacing" textLength="112" x="307" y="810.6826">resultAnalyseDeals</text><polygon fill="#181818" points="66,839.9609,56,843.9609,66,847.9609,62,843.9609" style="stroke:#181818;stroke-width:1.0;"/><line style="stroke:#181818;stroke-width:1.0;" x1="60" x2="266" y1="843.9609" y2="843.9609"/><text fill="#000000" font-family="sans-serif" font-size="13" font-weight="bold" lengthAdjust="spacing" textLength="14" x="72" y="839.2061">23</text><text fill="#000000" font-family="sans-serif" font-size="13" lengthAdjust="spacing" textLength="160" x="90" y="839.2061">DisplayResultAnalyseDeals</text><!--SRC=[dLR1Rjim3BtxAuWUEhTOX-soGu0Ey98C2z1kHPpSTb5jDX7YI9uaTmlGZnzb9uuiMqQx78fQV7ma7sdAUiT5oHJRmruAcMsLt2COLM6aMql9iXtRO6eE1OB2p32nALo0th9S_k5Y0q-iq1X5XXk2flYxGf4Xp3ZRMDotgYWWJcTN4QkC5DN-4LKKlVluwJFSGB91OOXUbrBaO2GmU9HoPrcL9T86dgIYqsUkkVb0VbkU8vr9yoZ_HYmpPBr8wI_2FHEKiBe0fc6jAGZbQNZ6IqOXBYQ9OCL1ummfs_MYGIr6C5CfZ995SMIShfPtaGTVOYafBQauwXhK7XnIRkMYUhikol7u9Ve4hhthML55AMhDfI37zVcfzdEiNf8bAYt5EJ5oVl2EQWOVrsLX-JFIeyOzzQj3bWnRQiw0rmZrr0gUcQR8PDZIfpxR8ZiI_9aPR4OW0lhP_-3c2xKR9f3edPspOwUXRZMDJeurrFxE38keFGJhJHns3AwlYITJI1Z7xZaty-ARxQcb6HWKujoWMGXDRrg6yLMOUcZAUkYX23V70YRTEVDTStnRA0VVhRgHpCe_WPphic27HEJJhPGQxz5iPKvbUYsQm0wnFBQd0Rc4fpQEWg2janIjbyDnDyptZ1UUj2CTEtNBURlWRPoTzz95k9HjjjgdZG8o1sbF6LiTNyqssBH1Wb6DTTnpUBFIxbmsKllBAgHqPw8xa0vdctLltmN42VEUSlQPu7yawQNJWVL27Ck0RfEQc7TScr0rus5E5OKMTt_ucuZr4hLXu-5i0ZM7hWTP6eY_LfeB6d5O7Kg4srj8axivN5v2_A0abM4EhUNxptKwXvSNw5cIXsIvkf__M5rvAGJgixK7TMsh38aRgWT5FYXpu0wZuCpv3ebxg-xzI6wlaTgzBeEgEFaujuQk2kD-9BrAYg5uvqK5exo3Q-fyhv3phBbObiCSZh-zpjr7-ttm3m00]--></g></svg>