<?xml version="1.0" encoding="us-ascii" standalone="no"?><svg xmlns="http://www.w3.org/2000/svg" xmlns:xlink="http://www.w3.org/1999/xlink" contentStyleType="text/css" height="1017px" preserveAspectRatio="none" style="width:1407px;height:1017px;background:#FFFFFF;" version="1.1" viewBox="0 0 1407 1017" width="1407px" zoomAndPan="magnify"><defs/><g><text fill="#000000" font-family="sans-serif" font-size="14" font-weight="bold" lengthAdjust="spacing" textLength="195" x="605" y="30.1074">Sequence Diagram Full (SD)</text><rect fill="#FFFFFF" height="783.3145" style="stroke:#181818;stroke-width:1.0;" width="10" x="50" y="133.2422"/><rect fill="#FFFFFF" height="760.0234" style="stroke:#181818;stroke-width:1.0;" width="10" x="262" y="156.5332"/><rect fill="#FFFFFF" height="64.9121" style="stroke:#181818;stroke-width:1.0;" width="10" x="485" y="197.8242"/><rect fill="#FFFFFF" height="93.873" style="stroke:#181818;stroke-width:1.0;" width="10" x="485" y="400.9004"/><rect fill="#FFFFFF" height="314.9102" style="stroke:#181818;stroke-width:1.0;" width="10" x="485" y="570.3555"/><rect fill="#FFFFFF" height="31.291" style="stroke:#181818;stroke-width:1.0;" width="10" x="626.5" y="231.4453"/><rect fill="#FFFFFF" height="31.291" style="stroke:#181818;stroke-width:1.0;" width="10" x="733.5" y="601.6465"/><rect fill="#FFFFFF" height="31.291" style="stroke:#181818;stroke-width:1.0;" width="10" x="840.5" y="432.1914"/><rect fill="#FFFFFF" height="31.291" style="stroke:#181818;stroke-width:1.0;" width="10" x="964.5" y="664.2285"/><rect fill="#FFFFFF" height="57.582" style="stroke:#181818;stroke-width:1.0;" width="10" x="1128" y="726.8105"/><rect fill="#FFFFFF" height="31.291" style="stroke:#181818;stroke-width:1.0;" width="10" x="1311" y="822.6836"/><rect fill="none" height="50.582" style="stroke:#000000;stroke-width:1.5;" width="834" x="397" y="741.8105"/><line style="stroke:#181818;stroke-width:0.5;stroke-dasharray:5.0,5.0;" x1="55" x2="55" y1="123.2422" y2="934.5566"/><line style="stroke:#181818;stroke-width:0.5;stroke-dasharray:5.0,5.0;" x1="267" x2="267" y1="123.2422" y2="934.5566"/><line style="stroke:#181818;stroke-width:0.5;stroke-dasharray:5.0,5.0;" x1="490" x2="490" y1="196.3438" y2="934.5566"/><line style="stroke:#181818;stroke-width:0.5;stroke-dasharray:5.0,5.0;" x1="631" x2="631" y1="123.2422" y2="934.5566"/><line style="stroke:#181818;stroke-width:0.5;stroke-dasharray:5.0,5.0;" x1="738" x2="738" y1="123.2422" y2="934.5566"/><line style="stroke:#181818;stroke-width:0.5;stroke-dasharray:5.0,5.0;" x1="845" x2="845" y1="123.2422" y2="934.5566"/><line style="stroke:#181818;stroke-width:0.5;stroke-dasharray:5.0,5.0;" x1="969" x2="969" y1="123.2422" y2="934.5566"/><line style="stroke:#181818;stroke-width:0.5;stroke-dasharray:5.0,5.0;" x1="1133" x2="1133" y1="123.2422" y2="934.5566"/><line style="stroke:#181818;stroke-width:0.5;stroke-dasharray:5.0,5.0;" x1="1316" x2="1316" y1="123.2422" y2="934.5566"/><text fill="#000000" font-family="sans-serif" font-size="14" lengthAdjust="spacing" textLength="94" x="5" y="119.7285">Store Manager</text><ellipse cx="55" cy="53.1211" fill="#E3E3E3" rx="8" ry="8" style="stroke:#181818;stroke-width:0.5;"/><path d="M55,61.1211 L55,88.1211 M42,69.1211 L68,69.1211 M55,88.1211 L42,103.1211 M55,88.1211 L68,103.1211 " fill="none" style="stroke:#181818;stroke-width:0.5;"/><text fill="#000000" font-family="sans-serif" font-size="14" lengthAdjust="spacing" textLength="94" x="5" y="948.6641">Store Manager</text><ellipse cx="55" cy="960.6777" fill="#E3E3E3" rx="8" ry="8" style="stroke:#181818;stroke-width:0.5;"/><path d="M55,968.6777 L55,995.6777 M42,976.6777 L68,976.6777 M55,995.6777 L42,1010.6777 M55,995.6777 L68,1010.6777 " fill="none" style="stroke:#181818;stroke-width:0.5;"/><rect fill="#E3E3E3" height="32.6211" rx="2.5" ry="2.5" style="stroke:#181818;stroke-width:0.5;" width="116" x="209" y="89.6211"/><text fill="#000000" font-family="sans-serif" font-size="14" lengthAdjust="spacing" textLength="102" x="216" y="111.7285">:AnalyseDealsUI</text><rect fill="#E3E3E3" height="32.6211" rx="2.5" ry="2.5" style="stroke:#181818;stroke-width:0.5;" width="116" x="209" y="933.5566"/><text fill="#000000" font-family="sans-serif" font-size="14" lengthAdjust="spacing" textLength="102" x="216" y="955.6641">:AnalyseDealsUI</text><rect fill="#E3E3E3" height="32.6211" rx="2.5" ry="2.5" style="stroke:#181818;stroke-width:0.5;" width="166" x="407" y="933.5566"/><text fill="#000000" font-family="sans-serif" font-size="14" lengthAdjust="spacing" textLength="152" x="414" y="955.6641">:AnalyseDealsController</text><rect fill="#E3E3E3" height="32.6211" rx="2.5" ry="2.5" style="stroke:#181818;stroke-width:0.5;" width="97" x="583" y="89.6211"/><text fill="#000000" font-family="sans-serif" font-size="14" lengthAdjust="spacing" textLength="83" x="590" y="111.7285">:Repositories</text><rect fill="#E3E3E3" height="32.6211" rx="2.5" ry="2.5" style="stroke:#181818;stroke-width:0.5;" width="97" x="583" y="933.5566"/><text fill="#000000" font-family="sans-serif" font-size="14" lengthAdjust="spacing" textLength="83" x="590" y="955.6641">:Repositories</text><rect fill="#E3E3E3" height="51.2422" rx="2.5" ry="2.5" style="stroke:#181818;stroke-width:0.5;" width="97" x="690" y="71"/><text fill="#000000" font-family="sans-serif" font-size="14" lengthAdjust="spacing" textLength="74" x="701.5" y="93.1074">repositories</text><text fill="#000000" font-family="sans-serif" font-size="14" lengthAdjust="spacing" textLength="83" x="697" y="111.7285">:Repositories</text><rect fill="#E3E3E3" height="51.2422" rx="2.5" ry="2.5" style="stroke:#181818;stroke-width:0.5;" width="97" x="690" y="933.5566"/><text fill="#000000" font-family="sans-serif" font-size="14" lengthAdjust="spacing" textLength="74" x="701.5" y="955.6641">repositories</text><text fill="#000000" font-family="sans-serif" font-size="14" lengthAdjust="spacing" textLength="83" x="697" y="974.2852">:Repositories</text><rect fill="#E3E3E3" height="51.2422" rx="2.5" ry="2.5" style="stroke:#181818;stroke-width:0.5;" width="97" x="797" y="71"/><text fill="#000000" font-family="sans-serif" font-size="14" lengthAdjust="spacing" textLength="78" x="806.5" y="93.1074">userSession</text><text fill="#000000" font-family="sans-serif" font-size="14" lengthAdjust="spacing" textLength="83" x="804" y="111.7285">:UserSession</text><rect fill="#E3E3E3" height="51.2422" rx="2.5" ry="2.5" style="stroke:#181818;stroke-width:0.5;" width="97" x="797" y="933.5566"/><text fill="#000000" font-family="sans-serif" font-size="14" lengthAdjust="spacing" textLength="78" x="806.5" y="955.6641">userSession</text><text fill="#000000" font-family="sans-serif" font-size="14" lengthAdjust="spacing" textLength="83" x="804" y="974.2852">:UserSession</text><rect fill="#E3E3E3" height="51.2422" rx="2.5" ry="2.5" style="stroke:#181818;stroke-width:0.5;" width="131" x="904" y="71"/><text fill="#000000" font-family="sans-serif" font-size="14" lengthAdjust="spacing" textLength="112" x="913.5" y="93.1074">personRepository</text><text fill="#000000" font-family="sans-serif" font-size="14" lengthAdjust="spacing" textLength="117" x="911" y="111.7285">:PersonRepository</text><rect fill="#E3E3E3" height="51.2422" rx="2.5" ry="2.5" style="stroke:#181818;stroke-width:0.5;" width="131" x="904" y="933.5566"/><text fill="#000000" font-family="sans-serif" font-size="14" lengthAdjust="spacing" textLength="112" x="913.5" y="955.6641">personRepository</text><text fill="#000000" font-family="sans-serif" font-size="14" lengthAdjust="spacing" textLength="117" x="911" y="974.2852">:PersonRepository</text><rect fill="#E3E3E3" height="51.2422" rx="2.5" ry="2.5" style="stroke:#181818;stroke-width:0.5;" width="176" x="1045" y="71"/><text fill="#000000" font-family="sans-serif" font-size="14" lengthAdjust="spacing" textLength="157" x="1054.5" y="93.1074">advertisementRepository</text><text fill="#000000" font-family="sans-serif" font-size="14" lengthAdjust="spacing" textLength="162" x="1052" y="111.7285">:AdvertisementRepository</text><rect fill="#E3E3E3" height="51.2422" rx="2.5" ry="2.5" style="stroke:#181818;stroke-width:0.5;" width="176" x="1045" y="933.5566"/><text fill="#000000" font-family="sans-serif" font-size="14" lengthAdjust="spacing" textLength="157" x="1054.5" y="955.6641">advertisementRepository</text><text fill="#000000" font-family="sans-serif" font-size="14" lengthAdjust="spacing" textLength="162" x="1052" y="974.2852">:AdvertisementRepository</text><rect fill="#E3E3E3" height="51.2422" rx="2.5" ry="2.5" style="stroke:#181818;stroke-width:0.5;" width="170" x="1231" y="71"/><text fill="#000000" font-family="sans-serif" font-size="14" lengthAdjust="spacing" textLength="151" x="1240.5" y="93.1074">advertisementCollection</text><text fill="#000000" font-family="sans-serif" font-size="14" lengthAdjust="spacing" textLength="156" x="1238" y="111.7285">:AdvertisementCollection</text><rect fill="#E3E3E3" height="51.2422" rx="2.5" ry="2.5" style="stroke:#181818;stroke-width:0.5;" width="170" x="1231" y="933.5566"/><text fill="#000000" font-family="sans-serif" font-size="14" lengthAdjust="spacing" textLength="151" x="1240.5" y="955.6641">advertisementCollection</text><text fill="#000000" font-family="sans-serif" font-size="14" lengthAdjust="spacing" textLength="156" x="1238" y="974.2852">:AdvertisementCollection</text><rect fill="#FFFFFF" height="783.3145" style="stroke:#181818;stroke-width:1.0;" width="10" x="50" y="133.2422"/><rect fill="#FFFFFF" height="760.0234" style="stroke:#181818;stroke-width:1.0;" width="10" x="262" y="156.5332"/><rect fill="#FFFFFF" height="64.9121" style="stroke:#181818;stroke-width:1.0;" width="10" x="485" y="197.8242"/><rect fill="#FFFFFF" height="93.873" style="stroke:#181818;stroke-width:1.0;" width="10" x="485" y="400.9004"/><rect fill="#FFFFFF" height="314.9102" style="stroke:#181818;stroke-width:1.0;" width="10" x="485" y="570.3555"/><rect fill="#FFFFFF" height="31.291" style="stroke:#181818;stroke-width:1.0;" width="10" x="626.5" y="231.4453"/><rect fill="#FFFFFF" height="31.291" style="stroke:#181818;stroke-width:1.0;" width="10" x="733.5" y="601.6465"/><rect fill="#FFFFFF" height="31.291" style="stroke:#181818;stroke-width:1.0;" width="10" x="840.5" y="432.1914"/><rect fill="#FFFFFF" height="31.291" style="stroke:#181818;stroke-width:1.0;" width="10" x="964.5" y="664.2285"/><rect fill="#FFFFFF" height="57.582" style="stroke:#181818;stroke-width:1.0;" width="10" x="1128" y="726.8105"/><rect fill="#FFFFFF" height="31.291" style="stroke:#181818;stroke-width:1.0;" width="10" x="1311" y="822.6836"/><polygon fill="#181818" points="250,152.5332,260,156.5332,250,160.5332,254,156.5332" style="stroke:#181818;stroke-width:1.0;"/><line style="stroke:#181818;stroke-width:1.0;" x1="60" x2="256" y1="156.5332" y2="156.5332"/><text fill="#000000" font-family="sans-serif" font-size="13" font-weight="bold" lengthAdjust="spacing" textLength="7" x="67" y="151.2705">1</text><text fill="#000000" font-family="sans-serif" font-size="13" lengthAdjust="spacing" textLength="162" x="78" y="151.2705">Ask to Analyse Deals Made</text><polygon fill="#181818" points="395,183.8242,405,187.8242,395,191.8242,399,187.8242" style="stroke:#181818;stroke-width:1.0;"/><line style="stroke:#181818;stroke-width:1.0;" x1="272" x2="401" y1="187.8242" y2="187.8242"/><text fill="#000000" font-family="sans-serif" font-size="13" font-weight="bold" lengthAdjust="spacing" textLength="7" x="279" y="182.5615">2</text><text fill="#000000" font-family="sans-serif" font-size="13" lengthAdjust="spacing" textLength="36" x="290" y="182.5615">create</text><rect fill="#E3E3E3" height="32.6211" rx="2.5" ry="2.5" style="stroke:#181818;stroke-width:0.5;" width="166" x="407" y="164.5332"/><text fill="#000000" font-family="sans-serif" font-size="14" lengthAdjust="spacing" textLength="152" x="414" y="186.6406">:AnalyseDealsController</text><polygon fill="#181818" points="614.5,227.4453,624.5,231.4453,614.5,235.4453,618.5,231.4453" style="stroke:#181818;stroke-width:1.0;"/><line style="stroke:#181818;stroke-width:1.0;" x1="495" x2="620.5" y1="231.4453" y2="231.4453"/><text fill="#000000" font-family="sans-serif" font-size="13" font-weight="bold" lengthAdjust="spacing" textLength="7" x="502" y="226.1826">3</text><text fill="#000000" font-family="sans-serif" font-size="13" lengthAdjust="spacing" textLength="75" x="513" y="226.1826">getInstance()</text><polygon fill="#181818" points="501,258.7363,491,262.7363,501,266.7363,497,262.7363" style="stroke:#181818;stroke-width:1.0;"/><line style="stroke:#181818;stroke-width:1.0;stroke-dasharray:2.0,2.0;" x1="495" x2="630.5" y1="262.7363" y2="262.7363"/><text fill="#000000" font-family="sans-serif" font-size="13" font-weight="bold" lengthAdjust="spacing" textLength="7" x="507" y="257.4736">4</text><text fill="#000000" font-family="sans-serif" font-size="13" lengthAdjust="spacing" textLength="67" x="518" y="257.4736">repositories</text><polygon fill="#181818" points="71,290.0273,61,294.0273,71,298.0273,67,294.0273" style="stroke:#181818;stroke-width:1.0;"/><line style="stroke:#181818;stroke-width:1.0;" x1="65" x2="261" y1="294.0273" y2="294.0273"/><text fill="#000000" font-family="sans-serif" font-size="13" font-weight="bold" lengthAdjust="spacing" textLength="7" x="77" y="288.7646">5</text><text fill="#000000" font-family="sans-serif" font-size="13" lengthAdjust="spacing" textLength="159" x="88" y="288.7646">displayAndChooseMethod()</text><polygon fill="#181818" points="250,321.3184,260,325.3184,250,329.3184,254,325.3184" style="stroke:#181818;stroke-width:1.0;"/><line style="stroke:#181818;stroke-width:1.0;" x1="60" x2="256" y1="325.3184" y2="325.3184"/><text fill="#000000" font-family="sans-serif" font-size="13" font-weight="bold" lengthAdjust="spacing" textLength="7" x="67" y="320.0557">6</text><text fill="#000000" font-family="sans-serif" font-size="13" lengthAdjust="spacing" textLength="118" x="78" y="320.0557">keepAnalyseMethod</text><line style="stroke:#181818;stroke-width:1.0;" x1="272" x2="314" y1="356.6094" y2="356.6094"/><line style="stroke:#181818;stroke-width:1.0;" x1="314" x2="314" y1="356.6094" y2="369.6094"/><line style="stroke:#181818;stroke-width:1.0;" x1="273" x2="314" y1="369.6094" y2="369.6094"/><polygon fill="#181818" points="283,365.6094,273,369.6094,283,373.6094,279,369.6094" style="stroke:#181818;stroke-width:1.0;"/><text fill="#000000" font-family="sans-serif" font-size="13" font-weight="bold" lengthAdjust="spacing" textLength="7" x="279" y="351.3467">7</text><text fill="#000000" font-family="sans-serif" font-size="13" lengthAdjust="spacing" textLength="118" x="290" y="351.3467">keepAnalyseMethod</text><polygon fill="#181818" points="473,396.9004,483,400.9004,473,404.9004,477,400.9004" style="stroke:#181818;stroke-width:1.0;"/><line style="stroke:#181818;stroke-width:1.0;" x1="272" x2="479" y1="400.9004" y2="400.9004"/><text fill="#000000" font-family="sans-serif" font-size="13" font-weight="bold" lengthAdjust="spacing" textLength="7" x="279" y="395.6377">8</text><text fill="#000000" font-family="sans-serif" font-size="13" lengthAdjust="spacing" textLength="140" x="290" y="395.6377">getStoreManagerEmail()</text><polygon fill="#181818" points="828.5,428.1914,838.5,432.1914,828.5,436.1914,832.5,432.1914" style="stroke:#181818;stroke-width:1.0;"/><line style="stroke:#181818;stroke-width:1.0;" x1="495" x2="834.5" y1="432.1914" y2="432.1914"/><text fill="#000000" font-family="sans-serif" font-size="13" font-weight="bold" lengthAdjust="spacing" textLength="7" x="502" y="426.9287">9</text><text fill="#000000" font-family="sans-serif" font-size="13" lengthAdjust="spacing" textLength="140" x="513" y="426.9287">getStoreManagerEmail()</text><polygon fill="#181818" points="506,459.4824,496,463.4824,506,467.4824,502,463.4824" style="stroke:#181818;stroke-width:1.0;"/><line style="stroke:#181818;stroke-width:1.0;" x1="500" x2="844.5" y1="463.4824" y2="463.4824"/><text fill="#000000" font-family="sans-serif" font-size="13" font-weight="bold" lengthAdjust="spacing" textLength="14" x="512" y="458.2197">10</text><text fill="#000000" font-family="sans-serif" font-size="13" lengthAdjust="spacing" textLength="112" x="530" y="458.2197">storeManagerEmail</text><polygon fill="#181818" points="283,490.7734,273,494.7734,283,498.7734,279,494.7734" style="stroke:#181818;stroke-width:1.0;"/><line style="stroke:#181818;stroke-width:1.0;" x1="277" x2="489" y1="494.7734" y2="494.7734"/><text fill="#000000" font-family="sans-serif" font-size="13" font-weight="bold" lengthAdjust="spacing" textLength="14" x="289" y="489.5107">11</text><text fill="#000000" font-family="sans-serif" font-size="13" lengthAdjust="spacing" textLength="112" x="307" y="489.5107">storeManagerEmail</text><line style="stroke:#181818;stroke-width:1.0;" x1="272" x2="314" y1="526.0645" y2="526.0645"/><line style="stroke:#181818;stroke-width:1.0;" x1="314" x2="314" y1="526.0645" y2="539.0645"/><line style="stroke:#181818;stroke-width:1.0;" x1="273" x2="314" y1="539.0645" y2="539.0645"/><polygon fill="#181818" points="283,535.0645,273,539.0645,283,543.0645,279,539.0645" style="stroke:#181818;stroke-width:1.0;"/><text fill="#000000" font-family="sans-serif" font-size="13" font-weight="bold" lengthAdjust="spacing" textLength="14" x="279" y="520.8018">12</text><text fill="#000000" font-family="sans-serif" font-size="13" lengthAdjust="spacing" textLength="112" x="297" y="520.8018">storeManagerEmail</text><polygon fill="#181818" points="473,566.3555,483,570.3555,473,574.3555,477,570.3555" style="stroke:#181818;stroke-width:1.0;"/><line style="stroke:#181818;stroke-width:1.0;" x1="272" x2="479" y1="570.3555" y2="570.3555"/><text fill="#000000" font-family="sans-serif" font-size="13" font-weight="bold" lengthAdjust="spacing" textLength="14" x="279" y="565.0928">13</text><text fill="#000000" font-family="sans-serif" font-size="13" lengthAdjust="spacing" textLength="176" x="297" y="565.0928">getStores(storeManagerEmail)</text><polygon fill="#181818" points="721.5,597.6465,731.5,601.6465,721.5,605.6465,725.5,601.6465" style="stroke:#181818;stroke-width:1.0;"/><line style="stroke:#181818;stroke-width:1.0;" x1="495" x2="727.5" y1="601.6465" y2="601.6465"/><text fill="#000000" font-family="sans-serif" font-size="13" font-weight="bold" lengthAdjust="spacing" textLength="14" x="502" y="596.3838">14</text><text fill="#000000" font-family="sans-serif" font-size="13" lengthAdjust="spacing" textLength="129" x="520" y="596.3838">getPersonRepository()</text><polygon fill="#181818" points="506,628.9375,496,632.9375,506,636.9375,502,632.9375" style="stroke:#181818;stroke-width:1.0;"/><line style="stroke:#181818;stroke-width:1.0;" x1="500" x2="737.5" y1="632.9375" y2="632.9375"/><text fill="#000000" font-family="sans-serif" font-size="13" font-weight="bold" lengthAdjust="spacing" textLength="14" x="512" y="627.6748">15</text><text fill="#000000" font-family="sans-serif" font-size="13" lengthAdjust="spacing" textLength="101" x="530" y="627.6748">personRepository</text><polygon fill="#181818" points="952.5,660.2285,962.5,664.2285,952.5,668.2285,956.5,664.2285" style="stroke:#181818;stroke-width:1.0;"/><line style="stroke:#181818;stroke-width:1.0;" x1="495" x2="958.5" y1="664.2285" y2="664.2285"/><text fill="#000000" font-family="sans-serif" font-size="13" font-weight="bold" lengthAdjust="spacing" textLength="14" x="502" y="658.9658">16</text><text fill="#000000" font-family="sans-serif" font-size="13" lengthAdjust="spacing" textLength="176" x="520" y="658.9658">getStores(storeManagerEmail)</text><polygon fill="#181818" points="506,691.5195,496,695.5195,506,699.5195,502,695.5195" style="stroke:#181818;stroke-width:1.0;"/><line style="stroke:#181818;stroke-width:1.0;" x1="500" x2="968.5" y1="695.5195" y2="695.5195"/><text fill="#000000" font-family="sans-serif" font-size="13" font-weight="bold" lengthAdjust="spacing" textLength="14" x="512" y="690.2568">17</text><text fill="#000000" font-family="sans-serif" font-size="13" lengthAdjust="spacing" textLength="138" x="530" y="690.2568">storeManagerStoresList</text><polygon fill="#181818" points="1116,722.8105,1126,726.8105,1116,730.8105,1120,726.8105" style="stroke:#181818;stroke-width:1.0;"/><line style="stroke:#181818;stroke-width:1.0;" x1="495" x2="1122" y1="726.8105" y2="726.8105"/><text fill="#000000" font-family="sans-serif" font-size="13" font-weight="bold" lengthAdjust="spacing" textLength="14" x="502" y="721.5479">18</text><text fill="#000000" font-family="sans-serif" font-size="13" lengthAdjust="spacing" textLength="337" x="520" y="721.5479">getStoreManagerStoresDealsList(storeManagerStoresList)</text><path d="M397,741.8105 L462,741.8105 L462,751.1016 L452,761.1016 L397,761.1016 L397,741.8105 " fill="#EEEEEE" style="stroke:#000000;stroke-width:1.5;"/><rect fill="none" height="50.582" style="stroke:#000000;stroke-width:1.5;" width="834" x="397" y="741.8105"/><text fill="#000000" font-family="sans-serif" font-size="13" font-weight="bold" lengthAdjust="spacing" textLength="20" x="412" y="756.8389">opt</text><text fill="#000000" font-family="sans-serif" font-size="11" font-weight="bold" lengthAdjust="spacing" textLength="480" x="477" y="755.6807">[(Business Type == SALE &amp;&amp; (Property Type == HOUSE || Property Type == APARTMENT))]</text><polygon fill="#181818" points="506,780.3926,496,784.3926,506,788.3926,502,784.3926" style="stroke:#181818;stroke-width:1.0;"/><line style="stroke:#181818;stroke-width:1.0;" x1="500" x2="1132" y1="784.3926" y2="784.3926"/><text fill="#000000" font-family="sans-serif" font-size="13" font-weight="bold" lengthAdjust="spacing" textLength="14" x="512" y="779.1299">19</text><text fill="#000000" font-family="sans-serif" font-size="13" lengthAdjust="spacing" textLength="171" x="530" y="779.1299">storeManagerStoresDealsList</text><polygon fill="#181818" points="1299,818.6836,1309,822.6836,1299,826.6836,1303,822.6836" style="stroke:#181818;stroke-width:1.0;"/><line style="stroke:#181818;stroke-width:1.0;" x1="495" x2="1305" y1="822.6836" y2="822.6836"/><text fill="#000000" font-family="sans-serif" font-size="13" font-weight="bold" lengthAdjust="spacing" textLength="14" x="502" y="817.4209">20</text><text fill="#000000" font-family="sans-serif" font-size="13" lengthAdjust="spacing" textLength="379" x="520" y="817.4209">analyseDeals(keepAnalyseMethod,storeManagerStoresDealsList)</text><polygon fill="#181818" points="506,849.9746,496,853.9746,506,857.9746,502,853.9746" style="stroke:#181818;stroke-width:1.0;"/><line style="stroke:#181818;stroke-width:1.0;" x1="500" x2="1315" y1="853.9746" y2="853.9746"/><text fill="#000000" font-family="sans-serif" font-size="13" font-weight="bold" lengthAdjust="spacing" textLength="14" x="512" y="848.7119">21</text><text fill="#000000" font-family="sans-serif" font-size="13" lengthAdjust="spacing" textLength="112" x="530" y="848.7119">resultAnalyseDeals</text><polygon fill="#181818" points="283,881.2656,273,885.2656,283,889.2656,279,885.2656" style="stroke:#181818;stroke-width:1.0;"/><line style="stroke:#181818;stroke-width:1.0;" x1="277" x2="489" y1="885.2656" y2="885.2656"/><text fill="#000000" font-family="sans-serif" font-size="13" font-weight="bold" lengthAdjust="spacing" textLength="14" x="289" y="880.0029">22</text><text fill="#000000" font-family="sans-serif" font-size="13" lengthAdjust="spacing" textLength="112" x="307" y="880.0029">resultAnalyseDeals</text><polygon fill="#181818" points="66,912.5566,56,916.5566,66,920.5566,62,916.5566" style="stroke:#181818;stroke-width:1.0;"/><line style="stroke:#181818;stroke-width:1.0;" x1="60" x2="266" y1="916.5566" y2="916.5566"/><text fill="#000000" font-family="sans-serif" font-size="13" font-weight="bold" lengthAdjust="spacing" textLength="14" x="72" y="911.2939">23</text><text fill="#000000" font-family="sans-serif" font-size="13" lengthAdjust="spacing" textLength="160" x="90" y="911.2939">DisplayResultAnalyseDeals</text><!--SRC=[dLR1Rjim3BtxAuWUEhTOX-soGu0Ey98C2z1kHPpSTb5jDX7YI9uaTmlGZnzb9uuiMqQx78fQV7ma7sdAUiT5oHJRmruAcMsLt2COLM6aMql9iXtRO6eE1OB2p32nALo0th9S_k5Y0q-iq1X5XXk2flYxGf4Xp3ZRMDotgYWWJcTN4QkC5DN-4LKKlVluwJFSGB91OOXUbrBaO2GmU9HoPrcL9T86dgIYqsUkkVb0VbkU8vr9yoZ_HYmpPBr8wI_2FHEKiBe0fc6jAGZbQNZ6IqOXBYQ9OCL1ummfs_MYGIr6C5CfZ995SMIShfPtaGTVOYafBQauwXhK7XnIRkMYUhikol7u9Ve4hhthML55AMhDfI37zVcfzdEiNf8bAYt5EJ5oVl2EQWOVrsLX-JFIeyOzzQj3bWnRQiw0rmZrr0gUcQR8PDZIfpxR8ZiI_9aPR4OW0lhP_-3c2xKR9f3edPspOwUXRZMDJeurrFxE38keFGJhJHns3AwlYITJI1Z7xZaty-ARxQcb6HWKujoWMGXDRrg6yLMOUcZAUkYX23V70YRTEVDTStnRA0VVhRgHpCe_WPphic27HEJJhPGQxz5iPKvbUYsQm0wnFBQd0Rc4fpQEWg2janIjbyDnDyptZ1UUj2CTEtNBURlWRPoTzz95k9HjjjgdZG8o1sbF6LiTNyqssBH1Wb6DTTnpUBFIxbmsKllBAgHqPw8xa0vdctLltmN42VEUSlQPu7yawQNJWVL27Ck0RfEQc7TScr0rus5E5OKMTt_ucuZr4hLXu-5i0ZM7hWTP6eY_LfeB6d5O7Kg4srj8axivN5v2_A0abM4EhUNxptKwXvSNw5cIXsIvkf__M5rvAGJgixK7TMsh38aRgWT5FYXpu0wZuCpv3ebxg-xzI6wlaTgzBeEgEFaujuQk2kD-9BrAYg5uvqK5exo3Q-fyhv3phBbObiCSZh-zpjr7-ttm3m00]--></g></svg>