<?xml version="1.0" encoding="us-ascii" standalone="no"?><svg xmlns="http://www.w3.org/2000/svg" xmlns:xlink="http://www.w3.org/1999/xlink" contentStyleType="text/css" height="2114px" preserveAspectRatio="none" style="width:1327px;height:2114px;background:#FFFFFF;" version="1.1" viewBox="0 0 1327 2114" width="1327px" zoomAndPan="magnify"><defs/><g><!--class AnalyseDealsUI--><g id="elem_AnalyseDealsUI"><rect codeLine="11" fill="#F1F1F1" height="141.1055" id="AnalyseDealsUI" rx="2.5" ry="2.5" style="stroke:#181818;stroke-width:0.5;" width="203" x="188" y="7"/><ellipse cx="236.25" cy="23" fill="#ADD1B2" rx="11" ry="11" style="stroke:#181818;stroke-width:1.0;"/><path d="M239.0156,18.875 Q239.1719,18.6563 239.3594,18.5469 Q239.5469,18.4375 239.7656,18.4375 Q240.1406,18.4375 240.375,18.7031 Q240.6094,18.9531 240.6094,19.5625 L240.6094,21.0156 Q240.6094,21.625 240.375,21.8906 Q240.1406,22.1563 239.7656,22.1563 Q239.4219,22.1563 239.2188,21.9531 Q239.0156,21.7656 238.9063,21.25 Q238.8594,20.8906 238.6719,20.7031 Q238.3438,20.3281 237.7344,20.1094 Q237.125,19.8906 236.5,19.8906 Q235.7344,19.8906 235.0938,20.2188 Q234.4688,20.5469 233.9688,21.2969 Q233.4844,22.0469 233.4844,23.0781 L233.4844,24.1719 Q233.4844,25.4063 234.375,26.2344 Q235.2656,27.0469 236.8594,27.0469 Q237.7969,27.0469 238.4531,26.7969 Q238.8438,26.6406 239.2656,26.2031 Q239.5313,25.9375 239.6719,25.8594 Q239.8281,25.7813 240.0313,25.7813 Q240.3594,25.7813 240.6094,26.0469 Q240.875,26.2969 240.875,26.6406 Q240.875,26.9844 240.5313,27.3906 Q240.0313,27.9688 239.2344,28.2969 Q238.1563,28.75 236.8594,28.75 Q235.3438,28.75 234.1406,28.125 Q233.1563,27.625 232.4688,26.5625 Q231.7813,25.4844 231.7813,24.2031 L231.7813,23.0469 Q231.7813,21.7188 232.3906,20.5781 Q233.0156,19.4219 234.1094,18.8125 Q235.2031,18.1875 236.4375,18.1875 Q237.1719,18.1875 237.8125,18.3594 Q238.4688,18.5156 239.0156,18.875 Z " fill="#000000"/><text fill="#000000" font-family="sans-serif" font-size="14" lengthAdjust="spacing" textLength="98" x="256.75" y="28.7969">AnalyseDealsUI</text><line style="stroke:#181818;stroke-width:0.5;" x1="189" x2="390" y1="39" y2="39"/><text fill="#000000" font-family="sans-serif" font-size="14" lengthAdjust="spacing" textLength="121" x="194" y="58.1074">-int AnalyseMethod</text><line style="stroke:#181818;stroke-width:0.5;" x1="189" x2="390" y1="65.6211" y2="65.6211"/><text fill="#000000" font-family="sans-serif" font-size="14" lengthAdjust="spacing" textLength="162" x="194" y="84.7285">+getStoreManagerEmail()</text><text fill="#000000" font-family="sans-serif" font-size="14" lengthAdjust="spacing" textLength="191" x="194" y="103.3496">+getStoreManagerStoresList()</text><text fill="#000000" font-family="sans-serif" font-size="14" lengthAdjust="spacing" textLength="183" x="194" y="121.9707">+displayAndChooseMethod()</text><text fill="#000000" font-family="sans-serif" font-size="14" lengthAdjust="spacing" textLength="103" x="194" y="140.5918">+analyseDeals()</text></g><!--class AnalyseDealsController--><g id="elem_AnalyseDealsController"><rect codeLine="21" fill="#F1F1F1" height="271.4531" id="AnalyseDealsController" rx="2.5" ry="2.5" style="stroke:#181818;stroke-width:0.5;" width="340" x="119.5" y="209"/><ellipse cx="211.25" cy="225" fill="#ADD1B2" rx="11" ry="11" style="stroke:#181818;stroke-width:1.0;"/><path d="M214.0156,220.875 Q214.1719,220.6563 214.3594,220.5469 Q214.5469,220.4375 214.7656,220.4375 Q215.1406,220.4375 215.375,220.7031 Q215.6094,220.9531 215.6094,221.5625 L215.6094,223.0156 Q215.6094,223.625 215.375,223.8906 Q215.1406,224.1563 214.7656,224.1563 Q214.4219,224.1563 214.2188,223.9531 Q214.0156,223.7656 213.9063,223.25 Q213.8594,222.8906 213.6719,222.7031 Q213.3438,222.3281 212.7344,222.1094 Q212.125,221.8906 211.5,221.8906 Q210.7344,221.8906 210.0938,222.2188 Q209.4688,222.5469 208.9688,223.2969 Q208.4844,224.0469 208.4844,225.0781 L208.4844,226.1719 Q208.4844,227.4063 209.375,228.2344 Q210.2656,229.0469 211.8594,229.0469 Q212.7969,229.0469 213.4531,228.7969 Q213.8438,228.6406 214.2656,228.2031 Q214.5313,227.9375 214.6719,227.8594 Q214.8281,227.7813 215.0313,227.7813 Q215.3594,227.7813 215.6094,228.0469 Q215.875,228.2969 215.875,228.6406 Q215.875,228.9844 215.5313,229.3906 Q215.0313,229.9688 214.2344,230.2969 Q213.1563,230.75 211.8594,230.75 Q210.3438,230.75 209.1406,230.125 Q208.1563,229.625 207.4688,228.5625 Q206.7813,227.4844 206.7813,226.2031 L206.7813,225.0469 Q206.7813,223.7188 207.3906,222.5781 Q208.0156,221.4219 209.1094,220.8125 Q210.2031,220.1875 211.4375,220.1875 Q212.1719,220.1875 212.8125,220.3594 Q213.4688,220.5156 214.0156,220.875 Z " fill="#000000"/><text fill="#000000" font-family="sans-serif" font-size="14" lengthAdjust="spacing" textLength="148" x="231.75" y="230.7969">AnalyseDealsController</text><line style="stroke:#181818;stroke-width:0.5;" x1="120.5" x2="458.5" y1="241" y2="241"/><text fill="#000000" font-family="sans-serif" font-size="14" lengthAdjust="spacing" textLength="166" x="125.5" y="260.1074">-Repositories repositories;</text><text fill="#000000" font-family="sans-serif" font-size="14" lengthAdjust="spacing" textLength="256" x="125.5" y="278.7285">-PropertyRepository propertyRepository;</text><text fill="#000000" font-family="sans-serif" font-size="14" lengthAdjust="spacing" textLength="250" x="125.5" y="297.3496">-RequestRepository requestRepository;</text><text fill="#000000" font-family="sans-serif" font-size="14" lengthAdjust="spacing" textLength="328" x="125.5" y="315.9707">-AdvertisementRepository advertisementRepository;</text><line style="stroke:#181818;stroke-width:0.5;" x1="120.5" x2="458.5" y1="323.4844" y2="323.4844"/><text fill="#000000" font-family="sans-serif" font-size="14" lengthAdjust="spacing" textLength="91" x="125.5" y="342.5918">+getInstance()</text><text fill="#000000" font-family="sans-serif" font-size="14" lengthAdjust="spacing" textLength="146" x="125.5" y="361.2129">+getPropertyTypeList()</text><text fill="#000000" font-family="sans-serif" font-size="14" lengthAdjust="spacing" textLength="149" x="125.5" y="379.834">+getBusinessTypeList()</text><text fill="#000000" font-family="sans-serif" font-size="14" lengthAdjust="spacing" textLength="188" x="125.5" y="398.4551">+getAdvertismentRepository()</text><text fill="#000000" font-family="sans-serif" font-size="14" lengthAdjust="spacing" textLength="162" x="125.5" y="417.0762">+getStoreManagerEmail()</text><text fill="#000000" font-family="sans-serif" font-size="14" lengthAdjust="spacing" textLength="151" x="125.5" y="435.6973">+getPersonRepository()</text><text fill="#000000" font-family="sans-serif" font-size="14" lengthAdjust="spacing" textLength="79" x="125.5" y="454.3184">+getStores()</text><text fill="#000000" font-family="sans-serif" font-size="14" lengthAdjust="spacing" textLength="227" x="125.5" y="472.9395">+getStoreManagerStoresDealsList()</text></g><!--class Repositories--><g id="elem_Repositories"><rect codeLine="39" fill="#F1F1F1" height="159.7266" id="Repositories" rx="2.5" ry="2.5" style="stroke:#181818;stroke-width:0.5;" width="207" x="410" y="559"/><ellipse cx="469.75" cy="575" fill="#ADD1B2" rx="11" ry="11" style="stroke:#181818;stroke-width:1.0;"/><path d="M472.5156,570.875 Q472.6719,570.6563 472.8594,570.5469 Q473.0469,570.4375 473.2656,570.4375 Q473.6406,570.4375 473.875,570.7031 Q474.1094,570.9531 474.1094,571.5625 L474.1094,573.0156 Q474.1094,573.625 473.875,573.8906 Q473.6406,574.1563 473.2656,574.1563 Q472.9219,574.1563 472.7188,573.9531 Q472.5156,573.7656 472.4063,573.25 Q472.3594,572.8906 472.1719,572.7031 Q471.8438,572.3281 471.2344,572.1094 Q470.625,571.8906 470,571.8906 Q469.2344,571.8906 468.5938,572.2188 Q467.9688,572.5469 467.4688,573.2969 Q466.9844,574.0469 466.9844,575.0781 L466.9844,576.1719 Q466.9844,577.4063 467.875,578.2344 Q468.7656,579.0469 470.3594,579.0469 Q471.2969,579.0469 471.9531,578.7969 Q472.3438,578.6406 472.7656,578.2031 Q473.0313,577.9375 473.1719,577.8594 Q473.3281,577.7813 473.5313,577.7813 Q473.8594,577.7813 474.1094,578.0469 Q474.375,578.2969 474.375,578.6406 Q474.375,578.9844 474.0313,579.3906 Q473.5313,579.9688 472.7344,580.2969 Q471.6563,580.75 470.3594,580.75 Q468.8438,580.75 467.6406,580.125 Q466.6563,579.625 465.9688,578.5625 Q465.2813,577.4844 465.2813,576.2031 L465.2813,575.0469 Q465.2813,573.7188 465.8906,572.5781 Q466.5156,571.4219 467.6094,570.8125 Q468.7031,570.1875 469.9375,570.1875 Q470.6719,570.1875 471.3125,570.3594 Q471.9688,570.5156 472.5156,570.875 Z " fill="#000000"/><text fill="#000000" font-family="sans-serif" font-size="14" lengthAdjust="spacing" textLength="79" x="490.25" y="580.7969">Repositories</text><line style="stroke:#181818;stroke-width:0.5;" x1="411" x2="616" y1="591" y2="591"/><line style="stroke:#181818;stroke-width:0.5;" x1="411" x2="616" y1="599" y2="599"/><text fill="#000000" font-family="sans-serif" font-size="14" lengthAdjust="spacing" textLength="94" x="416" y="618.1074">-Repositories()</text><text fill="#000000" font-family="sans-serif" font-size="14" lengthAdjust="spacing" textLength="182" x="416" y="636.7285">+getInstance() : Repositories</text><text fill="#000000" font-family="sans-serif" font-size="14" lengthAdjust="spacing" textLength="160" x="416" y="655.3496">+getPropertyRepository()</text><text fill="#000000" font-family="sans-serif" font-size="14" lengthAdjust="spacing" textLength="195" x="416" y="673.9707">+getBusinessTypeRepository()</text><text fill="#000000" font-family="sans-serif" font-size="14" lengthAdjust="spacing" textLength="159" x="416" y="692.5918">+getRequestRepository()</text><text fill="#000000" font-family="sans-serif" font-size="14" lengthAdjust="spacing" textLength="188" x="416" y="711.2129">+getAdvertismentRepository()</text></g><!--class PropertyRepository--><g id="elem_PropertyRepository"><rect codeLine="49" fill="#F1F1F1" height="66.6211" id="PropertyRepository" rx="2.5" ry="2.5" style="stroke:#181818;stroke-width:0.5;" width="154" x="793.5" y="877"/><ellipse cx="808.5" cy="893" fill="#ADD1B2" rx="11" ry="11" style="stroke:#181818;stroke-width:1.0;"/><path d="M811.2656,888.875 Q811.4219,888.6563 811.6094,888.5469 Q811.7969,888.4375 812.0156,888.4375 Q812.3906,888.4375 812.625,888.7031 Q812.8594,888.9531 812.8594,889.5625 L812.8594,891.0156 Q812.8594,891.625 812.625,891.8906 Q812.3906,892.1563 812.0156,892.1563 Q811.6719,892.1563 811.4688,891.9531 Q811.2656,891.7656 811.1563,891.25 Q811.1094,890.8906 810.9219,890.7031 Q810.5938,890.3281 809.9844,890.1094 Q809.375,889.8906 808.75,889.8906 Q807.9844,889.8906 807.3438,890.2188 Q806.7188,890.5469 806.2188,891.2969 Q805.7344,892.0469 805.7344,893.0781 L805.7344,894.1719 Q805.7344,895.4063 806.625,896.2344 Q807.5156,897.0469 809.1094,897.0469 Q810.0469,897.0469 810.7031,896.7969 Q811.0938,896.6406 811.5156,896.2031 Q811.7813,895.9375 811.9219,895.8594 Q812.0781,895.7813 812.2813,895.7813 Q812.6094,895.7813 812.8594,896.0469 Q813.125,896.2969 813.125,896.6406 Q813.125,896.9844 812.7813,897.3906 Q812.2813,897.9688 811.4844,898.2969 Q810.4063,898.75 809.1094,898.75 Q807.5938,898.75 806.3906,898.125 Q805.4063,897.625 804.7188,896.5625 Q804.0313,895.4844 804.0313,894.2031 L804.0313,893.0469 Q804.0313,891.7188 804.6406,890.5781 Q805.2656,889.4219 806.3594,888.8125 Q807.4531,888.1875 808.6875,888.1875 Q809.4219,888.1875 810.0625,888.3594 Q810.7188,888.5156 811.2656,888.875 Z " fill="#000000"/><text fill="#000000" font-family="sans-serif" font-size="14" lengthAdjust="spacing" textLength="122" x="822.5" y="898.7969">PropertyRepository</text><line style="stroke:#181818;stroke-width:0.5;" x1="794.5" x2="946.5" y1="909" y2="909"/><line style="stroke:#181818;stroke-width:0.5;" x1="794.5" x2="946.5" y1="917" y2="917"/><text fill="#000000" font-family="sans-serif" font-size="14" lengthAdjust="spacing" textLength="114" x="799.5" y="936.1074">+getPropertyList()</text></g><!--class Property--><g id="elem_Property"><rect codeLine="52" fill="#F1F1F1" height="122.4844" id="Property" rx="2.5" ry="2.5" style="stroke:#181818;stroke-width:0.5;" width="180" x="770.5" y="1473"/><ellipse cx="829.25" cy="1489" fill="#B4A7E5" rx="11" ry="11" style="stroke:#181818;stroke-width:1.0;"/><path d="M830.2031,1485.6406 L830.2031,1492.2969 L831.9219,1492.2969 Q832.5313,1492.2969 832.7969,1492.5313 Q833.0625,1492.7656 833.0625,1493.1563 Q833.0625,1493.5313 832.7969,1493.7656 Q832.5313,1494 831.9219,1494 L826.7813,1494 Q826.1719,1494 825.9063,1493.7656 Q825.6406,1493.5313 825.6406,1493.1406 Q825.6406,1492.7656 825.9063,1492.5313 Q826.1719,1492.2969 826.7813,1492.2969 L828.5,1492.2969 L828.5,1485.6406 L826.7813,1485.6406 Q826.1719,1485.6406 825.9063,1485.4063 Q825.6406,1485.1719 825.6406,1484.7813 Q825.6406,1484.4063 825.9063,1484.1719 Q826.1719,1483.9375 826.7813,1483.9375 L831.9219,1483.9375 Q832.5313,1483.9375 832.7969,1484.1719 Q833.0625,1484.4063 833.0625,1484.7813 Q833.0625,1485.1719 832.7969,1485.4063 Q832.5313,1485.6406 831.9219,1485.6406 L830.2031,1485.6406 Z " fill="#000000"/><text fill="#000000" font-family="sans-serif" font-size="14" font-style="italic" lengthAdjust="spacing" textLength="54" x="849.75" y="1494.7969">Property</text><line style="stroke:#181818;stroke-width:0.5;" x1="771.5" x2="949.5" y1="1505" y2="1505"/><text fill="#000000" font-family="sans-serif" font-size="14" lengthAdjust="spacing" textLength="85" x="776.5" y="1524.1074">-double area;</text><text fill="#000000" font-family="sans-serif" font-size="14" lengthAdjust="spacing" textLength="109" x="776.5" y="1542.7285">-double distance;</text><text fill="#000000" font-family="sans-serif" font-size="14" lengthAdjust="spacing" textLength="116" x="776.5" y="1561.3496">-Location location;</text><text fill="#000000" font-family="sans-serif" font-size="14" lengthAdjust="spacing" textLength="168" x="776.5" y="1579.9707">-List&lt;String&gt; photographs;</text><line style="stroke:#181818;stroke-width:0.5;" x1="771.5" x2="949.5" y1="1587.4844" y2="1587.4844"/></g><!--class Apartment--><g id="elem_Apartment"><rect codeLine="59" fill="#F1F1F1" height="122.4844" id="Apartment" rx="2.5" ry="2.5" style="stroke:#181818;stroke-width:0.5;" width="185" x="531" y="1693"/><ellipse cx="586.75" cy="1709" fill="#ADD1B2" rx="11" ry="11" style="stroke:#181818;stroke-width:1.0;"/><path d="M589.5156,1704.875 Q589.6719,1704.6563 589.8594,1704.5469 Q590.0469,1704.4375 590.2656,1704.4375 Q590.6406,1704.4375 590.875,1704.7031 Q591.1094,1704.9531 591.1094,1705.5625 L591.1094,1707.0156 Q591.1094,1707.625 590.875,1707.8906 Q590.6406,1708.1563 590.2656,1708.1563 Q589.9219,1708.1563 589.7188,1707.9531 Q589.5156,1707.7656 589.4063,1707.25 Q589.3594,1706.8906 589.1719,1706.7031 Q588.8438,1706.3281 588.2344,1706.1094 Q587.625,1705.8906 587,1705.8906 Q586.2344,1705.8906 585.5938,1706.2188 Q584.9688,1706.5469 584.4688,1707.2969 Q583.9844,1708.0469 583.9844,1709.0781 L583.9844,1710.1719 Q583.9844,1711.4063 584.875,1712.2344 Q585.7656,1713.0469 587.3594,1713.0469 Q588.2969,1713.0469 588.9531,1712.7969 Q589.3438,1712.6406 589.7656,1712.2031 Q590.0313,1711.9375 590.1719,1711.8594 Q590.3281,1711.7813 590.5313,1711.7813 Q590.8594,1711.7813 591.1094,1712.0469 Q591.375,1712.2969 591.375,1712.6406 Q591.375,1712.9844 591.0313,1713.3906 Q590.5313,1713.9688 589.7344,1714.2969 Q588.6563,1714.75 587.3594,1714.75 Q585.8438,1714.75 584.6406,1714.125 Q583.6563,1713.625 582.9688,1712.5625 Q582.2813,1711.4844 582.2813,1710.2031 L582.2813,1709.0469 Q582.2813,1707.7188 582.8906,1706.5781 Q583.5156,1705.4219 584.6094,1704.8125 Q585.7031,1704.1875 586.9375,1704.1875 Q587.6719,1704.1875 588.3125,1704.3594 Q588.9688,1704.5156 589.5156,1704.875 Z " fill="#000000"/><text fill="#000000" font-family="sans-serif" font-size="14" lengthAdjust="spacing" textLength="65" x="607.25" y="1714.7969">Apartment</text><line style="stroke:#181818;stroke-width:0.5;" x1="532" x2="715" y1="1725" y2="1725"/><text fill="#000000" font-family="sans-serif" font-size="14" lengthAdjust="spacing" textLength="140" x="537" y="1744.1074">-int: numberBedrooms</text><text fill="#000000" font-family="sans-serif" font-size="14" lengthAdjust="spacing" textLength="124" x="537" y="1762.7285">-int: numberParking</text><text fill="#000000" font-family="sans-serif" font-size="14" lengthAdjust="spacing" textLength="144" x="537" y="1781.3496">-int: numberBathrooms</text><text fill="#000000" font-family="sans-serif" font-size="14" lengthAdjust="spacing" textLength="173" x="537" y="1799.9707">-String: availableEquipment</text><line style="stroke:#181818;stroke-width:0.5;" x1="532" x2="715" y1="1807.4844" y2="1807.4844"/></g><!--class House--><g id="elem_House"><rect codeLine="66" fill="#F1F1F1" height="159.7266" id="House" rx="2.5" ry="2.5" style="stroke:#181818;stroke-width:0.5;" width="185" x="1119" y="1674"/><ellipse cx="1187.25" cy="1690" fill="#ADD1B2" rx="11" ry="11" style="stroke:#181818;stroke-width:1.0;"/><path d="M1190.0156,1685.875 Q1190.1719,1685.6563 1190.3594,1685.5469 Q1190.5469,1685.4375 1190.7656,1685.4375 Q1191.1406,1685.4375 1191.375,1685.7031 Q1191.6094,1685.9531 1191.6094,1686.5625 L1191.6094,1688.0156 Q1191.6094,1688.625 1191.375,1688.8906 Q1191.1406,1689.1563 1190.7656,1689.1563 Q1190.4219,1689.1563 1190.2188,1688.9531 Q1190.0156,1688.7656 1189.9063,1688.25 Q1189.8594,1687.8906 1189.6719,1687.7031 Q1189.3438,1687.3281 1188.7344,1687.1094 Q1188.125,1686.8906 1187.5,1686.8906 Q1186.7344,1686.8906 1186.0938,1687.2188 Q1185.4688,1687.5469 1184.9688,1688.2969 Q1184.4844,1689.0469 1184.4844,1690.0781 L1184.4844,1691.1719 Q1184.4844,1692.4063 1185.375,1693.2344 Q1186.2656,1694.0469 1187.8594,1694.0469 Q1188.7969,1694.0469 1189.4531,1693.7969 Q1189.8438,1693.6406 1190.2656,1693.2031 Q1190.5313,1692.9375 1190.6719,1692.8594 Q1190.8281,1692.7813 1191.0313,1692.7813 Q1191.3594,1692.7813 1191.6094,1693.0469 Q1191.875,1693.2969 1191.875,1693.6406 Q1191.875,1693.9844 1191.5313,1694.3906 Q1191.0313,1694.9688 1190.2344,1695.2969 Q1189.1563,1695.75 1187.8594,1695.75 Q1186.3438,1695.75 1185.1406,1695.125 Q1184.1563,1694.625 1183.4688,1693.5625 Q1182.7813,1692.4844 1182.7813,1691.2031 L1182.7813,1690.0469 Q1182.7813,1688.7188 1183.3906,1687.5781 Q1184.0156,1686.4219 1185.1094,1685.8125 Q1186.2031,1685.1875 1187.4375,1685.1875 Q1188.1719,1685.1875 1188.8125,1685.3594 Q1189.4688,1685.5156 1190.0156,1685.875 Z " fill="#000000"/><text fill="#000000" font-family="sans-serif" font-size="14" lengthAdjust="spacing" textLength="40" x="1207.75" y="1695.7969">House</text><line style="stroke:#181818;stroke-width:0.5;" x1="1120" x2="1303" y1="1706" y2="1706"/><text fill="#000000" font-family="sans-serif" font-size="14" lengthAdjust="spacing" textLength="140" x="1125" y="1725.1074">-int: numberBedrooms</text><text fill="#000000" font-family="sans-serif" font-size="14" lengthAdjust="spacing" textLength="124" x="1125" y="1743.7285">-int: numberParking</text><text fill="#000000" font-family="sans-serif" font-size="14" lengthAdjust="spacing" textLength="144" x="1125" y="1762.3496">-int: numberBathrooms</text><text fill="#000000" font-family="sans-serif" font-size="14" lengthAdjust="spacing" textLength="173" x="1125" y="1780.9707">-String: availableEquipment</text><text fill="#000000" font-family="sans-serif" font-size="14" lengthAdjust="spacing" textLength="126" x="1125" y="1799.5918">-boolean: basement</text><text fill="#000000" font-family="sans-serif" font-size="14" lengthAdjust="spacing" textLength="146" x="1125" y="1818.2129">-boolean: habitableLoft</text><line style="stroke:#181818;stroke-width:0.5;" x1="1120" x2="1303" y1="1825.7266" y2="1825.7266"/></g><!--class SunExposureType--><g id="elem_SunExposureType"><rect codeLine="75" fill="#F1F1F1" height="66.6211" id="SunExposureType" rx="2.5" ry="2.5" style="stroke:#181818;stroke-width:0.5;" width="217" x="1103" y="2041"/><ellipse cx="1149.25" cy="2057" fill="#EB937F" rx="11" ry="11" style="stroke:#181818;stroke-width:1.0;"/><path d="M1148.1094,2057.7969 L1148.1094,2060.2969 L1152.4375,2060.2969 L1152.4375,2059.375 Q1152.4375,2058.7656 1152.6719,2058.5 Q1152.9219,2058.2344 1153.2969,2058.2344 Q1153.6719,2058.2344 1153.9063,2058.5 Q1154.1406,2058.7656 1154.1406,2059.375 L1154.1406,2062 L1146.1406,2062 Q1145.5156,2062 1145.25,2061.7656 Q1145,2061.5313 1145,2061.1406 Q1145,2060.7656 1145.2656,2060.5313 Q1145.5313,2060.2969 1146.1406,2060.2969 L1146.4063,2060.2969 L1146.4063,2053.6406 L1146.1406,2053.6406 Q1145.5156,2053.6406 1145.25,2053.4063 Q1145,2053.1719 1145,2052.7813 Q1145,2052.4063 1145.25,2052.1719 Q1145.5156,2051.9375 1146.1406,2051.9375 L1153.7656,2051.9375 L1153.7656,2054.5313 Q1153.7656,2055.1406 1153.5313,2055.4063 Q1153.3125,2055.6563 1152.9219,2055.6563 Q1152.5469,2055.6563 1152.3125,2055.4063 Q1152.0781,2055.1406 1152.0781,2054.5313 L1152.0781,2053.6406 L1148.1094,2053.6406 L1148.1094,2056.0938 L1149.5938,2056.0938 Q1149.5938,2055.4375 1149.7188,2055.25 Q1149.9844,2054.8438 1150.4531,2054.8438 Q1150.8281,2054.8438 1151.0625,2055.1094 Q1151.2969,2055.3594 1151.2969,2055.9688 L1151.2969,2057.9375 Q1151.2969,2058.4844 1151.1719,2058.6719 Q1150.9063,2059.0625 1150.4531,2059.0625 Q1149.9844,2059.0625 1149.7188,2058.6563 Q1149.5938,2058.4688 1149.5938,2057.7969 L1148.1094,2057.7969 Z " fill="#000000"/><text fill="#000000" font-family="sans-serif" font-size="14" lengthAdjust="spacing" textLength="116" x="1169.75" y="2062.7969">SunExposureType</text><line style="stroke:#181818;stroke-width:0.5;" x1="1104" x2="1319" y1="2073" y2="2073"/><text fill="#000000" font-family="sans-serif" font-size="14" lengthAdjust="spacing" textLength="205" x="1109" y="2092.1074">-String: North, South, East, West</text><line style="stroke:#181818;stroke-width:0.5;" x1="1104" x2="1319" y1="2099.6211" y2="2099.6211"/></g><!--class SunExposure--><g id="elem_SunExposure"><rect codeLine="78" fill="#F1F1F1" height="66.6211" id="SunExposure" rx="2.5" ry="2.5" style="stroke:#181818;stroke-width:0.5;" width="166" x="1128.5" y="1913"/><ellipse cx="1166" cy="1929" fill="#ADD1B2" rx="11" ry="11" style="stroke:#181818;stroke-width:1.0;"/><path d="M1168.7656,1924.875 Q1168.9219,1924.6563 1169.1094,1924.5469 Q1169.2969,1924.4375 1169.5156,1924.4375 Q1169.8906,1924.4375 1170.125,1924.7031 Q1170.3594,1924.9531 1170.3594,1925.5625 L1170.3594,1927.0156 Q1170.3594,1927.625 1170.125,1927.8906 Q1169.8906,1928.1563 1169.5156,1928.1563 Q1169.1719,1928.1563 1168.9688,1927.9531 Q1168.7656,1927.7656 1168.6563,1927.25 Q1168.6094,1926.8906 1168.4219,1926.7031 Q1168.0938,1926.3281 1167.4844,1926.1094 Q1166.875,1925.8906 1166.25,1925.8906 Q1165.4844,1925.8906 1164.8438,1926.2188 Q1164.2188,1926.5469 1163.7188,1927.2969 Q1163.2344,1928.0469 1163.2344,1929.0781 L1163.2344,1930.1719 Q1163.2344,1931.4063 1164.125,1932.2344 Q1165.0156,1933.0469 1166.6094,1933.0469 Q1167.5469,1933.0469 1168.2031,1932.7969 Q1168.5938,1932.6406 1169.0156,1932.2031 Q1169.2813,1931.9375 1169.4219,1931.8594 Q1169.5781,1931.7813 1169.7813,1931.7813 Q1170.1094,1931.7813 1170.3594,1932.0469 Q1170.625,1932.2969 1170.625,1932.6406 Q1170.625,1932.9844 1170.2813,1933.3906 Q1169.7813,1933.9688 1168.9844,1934.2969 Q1167.9063,1934.75 1166.6094,1934.75 Q1165.0938,1934.75 1163.8906,1934.125 Q1162.9063,1933.625 1162.2188,1932.5625 Q1161.5313,1931.4844 1161.5313,1930.2031 L1161.5313,1929.0469 Q1161.5313,1927.7188 1162.1406,1926.5781 Q1162.7656,1925.4219 1163.8594,1924.8125 Q1164.9531,1924.1875 1166.1875,1924.1875 Q1166.9219,1924.1875 1167.5625,1924.3594 Q1168.2188,1924.5156 1168.7656,1924.875 Z " fill="#000000"/><text fill="#000000" font-family="sans-serif" font-size="14" lengthAdjust="spacing" textLength="84" x="1185" y="1934.7969">SunExposure</text><line style="stroke:#181818;stroke-width:0.5;" x1="1129.5" x2="1293.5" y1="1945" y2="1945"/><line style="stroke:#181818;stroke-width:0.5;" x1="1129.5" x2="1293.5" y1="1953" y2="1953"/><text fill="#000000" font-family="sans-serif" font-size="14" lengthAdjust="spacing" textLength="154" x="1134.5" y="1972.1074">+getSunExposureType()</text></g><!--class PropertyType--><g id="elem_PropertyType"><rect codeLine="81" fill="#F1F1F1" height="85.2422" id="PropertyType" rx="2.5" ry="2.5" style="stroke:#181818;stroke-width:0.5;" width="211" x="751" y="1711.5"/><ellipse cx="809.25" cy="1727.5" fill="#EB937F" rx="11" ry="11" style="stroke:#181818;stroke-width:1.0;"/><path d="M808.1094,1728.2969 L808.1094,1730.7969 L812.4375,1730.7969 L812.4375,1729.875 Q812.4375,1729.2656 812.6719,1729 Q812.9219,1728.7344 813.2969,1728.7344 Q813.6719,1728.7344 813.9063,1729 Q814.1406,1729.2656 814.1406,1729.875 L814.1406,1732.5 L806.1406,1732.5 Q805.5156,1732.5 805.25,1732.2656 Q805,1732.0313 805,1731.6406 Q805,1731.2656 805.2656,1731.0313 Q805.5313,1730.7969 806.1406,1730.7969 L806.4063,1730.7969 L806.4063,1724.1406 L806.1406,1724.1406 Q805.5156,1724.1406 805.25,1723.9063 Q805,1723.6719 805,1723.2813 Q805,1722.9063 805.25,1722.6719 Q805.5156,1722.4375 806.1406,1722.4375 L813.7656,1722.4375 L813.7656,1725.0313 Q813.7656,1725.6406 813.5313,1725.9063 Q813.3125,1726.1563 812.9219,1726.1563 Q812.5469,1726.1563 812.3125,1725.9063 Q812.0781,1725.6406 812.0781,1725.0313 L812.0781,1724.1406 L808.1094,1724.1406 L808.1094,1726.5938 L809.5938,1726.5938 Q809.5938,1725.9375 809.7188,1725.75 Q809.9844,1725.3438 810.4531,1725.3438 Q810.8281,1725.3438 811.0625,1725.6094 Q811.2969,1725.8594 811.2969,1726.4688 L811.2969,1728.4375 Q811.2969,1728.9844 811.1719,1729.1719 Q810.9063,1729.5625 810.4531,1729.5625 Q809.9844,1729.5625 809.7188,1729.1563 Q809.5938,1728.9688 809.5938,1728.2969 L808.1094,1728.2969 Z " fill="#000000"/><text fill="#000000" font-family="sans-serif" font-size="14" lengthAdjust="spacing" textLength="86" x="829.75" y="1733.2969">PropertyType</text><line style="stroke:#181818;stroke-width:0.5;" x1="752" x2="961" y1="1743.5" y2="1743.5"/><text fill="#000000" font-family="sans-serif" font-size="14" lengthAdjust="spacing" textLength="199" x="757" y="1762.6074">LAND + APARTMENT + HOUSE</text><text fill="#000000" font-family="sans-serif" font-size="14" lengthAdjust="spacing" textLength="69" x="757" y="1781.2285">description</text><line style="stroke:#181818;stroke-width:0.5;" x1="752" x2="961" y1="1788.7422" y2="1788.7422"/></g><!--class Location--><g id="elem_Location"><rect codeLine="85" fill="#F1F1F1" height="141.1055" id="Location" rx="2.5" ry="2.5" style="stroke:#181818;stroke-width:0.5;" width="86" x="997.5" y="1683.5"/><ellipse cx="1012.5" cy="1699.5" fill="#B4A7E5" rx="11" ry="11" style="stroke:#181818;stroke-width:1.0;"/><path d="M1013.4531,1696.1406 L1013.4531,1702.7969 L1015.1719,1702.7969 Q1015.7813,1702.7969 1016.0469,1703.0313 Q1016.3125,1703.2656 1016.3125,1703.6563 Q1016.3125,1704.0313 1016.0469,1704.2656 Q1015.7813,1704.5 1015.1719,1704.5 L1010.0313,1704.5 Q1009.4219,1704.5 1009.1563,1704.2656 Q1008.8906,1704.0313 1008.8906,1703.6406 Q1008.8906,1703.2656 1009.1563,1703.0313 Q1009.4219,1702.7969 1010.0313,1702.7969 L1011.75,1702.7969 L1011.75,1696.1406 L1010.0313,1696.1406 Q1009.4219,1696.1406 1009.1563,1695.9063 Q1008.8906,1695.6719 1008.8906,1695.2813 Q1008.8906,1694.9063 1009.1563,1694.6719 Q1009.4219,1694.4375 1010.0313,1694.4375 L1015.1719,1694.4375 Q1015.7813,1694.4375 1016.0469,1694.6719 Q1016.3125,1694.9063 1016.3125,1695.2813 Q1016.3125,1695.6719 1016.0469,1695.9063 Q1015.7813,1696.1406 1015.1719,1696.1406 L1013.4531,1696.1406 Z " fill="#000000"/><text fill="#000000" font-family="sans-serif" font-size="14" font-style="italic" lengthAdjust="spacing" textLength="54" x="1026.5" y="1705.2969">Location</text><line style="stroke:#181818;stroke-width:0.5;" x1="998.5" x2="1082.5" y1="1715.5" y2="1715.5"/><text fill="#000000" font-family="sans-serif" font-size="14" lengthAdjust="spacing" textLength="41" x="1003.5" y="1734.6074">-street</text><text fill="#000000" font-family="sans-serif" font-size="14" lengthAdjust="spacing" textLength="56" x="1003.5" y="1753.2285">-zipCode</text><text fill="#000000" font-family="sans-serif" font-size="14" lengthAdjust="spacing" textLength="54" x="1003.5" y="1771.8496">-stateUS</text><text fill="#000000" font-family="sans-serif" font-size="14" lengthAdjust="spacing" textLength="26" x="1003.5" y="1790.4707">-city</text><text fill="#000000" font-family="sans-serif" font-size="14" lengthAdjust="spacing" textLength="46" x="1003.5" y="1809.0918">-district</text><line style="stroke:#181818;stroke-width:0.5;" x1="998.5" x2="1082.5" y1="1816.6055" y2="1816.6055"/></g><!--class RequestRepository--><g id="elem_RequestRepository"><rect codeLine="93" fill="#F1F1F1" height="66.6211" id="RequestRepository" rx="2.5" ry="2.5" style="stroke:#181818;stroke-width:0.5;" width="153" x="301" y="877"/><ellipse cx="316" cy="893" fill="#ADD1B2" rx="11" ry="11" style="stroke:#181818;stroke-width:1.0;"/><path d="M318.7656,888.875 Q318.9219,888.6563 319.1094,888.5469 Q319.2969,888.4375 319.5156,888.4375 Q319.8906,888.4375 320.125,888.7031 Q320.3594,888.9531 320.3594,889.5625 L320.3594,891.0156 Q320.3594,891.625 320.125,891.8906 Q319.8906,892.1563 319.5156,892.1563 Q319.1719,892.1563 318.9688,891.9531 Q318.7656,891.7656 318.6563,891.25 Q318.6094,890.8906 318.4219,890.7031 Q318.0938,890.3281 317.4844,890.1094 Q316.875,889.8906 316.25,889.8906 Q315.4844,889.8906 314.8438,890.2188 Q314.2188,890.5469 313.7188,891.2969 Q313.2344,892.0469 313.2344,893.0781 L313.2344,894.1719 Q313.2344,895.4063 314.125,896.2344 Q315.0156,897.0469 316.6094,897.0469 Q317.5469,897.0469 318.2031,896.7969 Q318.5938,896.6406 319.0156,896.2031 Q319.2813,895.9375 319.4219,895.8594 Q319.5781,895.7813 319.7813,895.7813 Q320.1094,895.7813 320.3594,896.0469 Q320.625,896.2969 320.625,896.6406 Q320.625,896.9844 320.2813,897.3906 Q319.7813,897.9688 318.9844,898.2969 Q317.9063,898.75 316.6094,898.75 Q315.0938,898.75 313.8906,898.125 Q312.9063,897.625 312.2188,896.5625 Q311.5313,895.4844 311.5313,894.2031 L311.5313,893.0469 Q311.5313,891.7188 312.1406,890.5781 Q312.7656,889.4219 313.8594,888.8125 Q314.9531,888.1875 316.1875,888.1875 Q316.9219,888.1875 317.5625,888.3594 Q318.2188,888.5156 318.7656,888.875 Z " fill="#000000"/><text fill="#000000" font-family="sans-serif" font-size="14" lengthAdjust="spacing" textLength="121" x="330" y="898.7969">RequestRepository</text><line style="stroke:#181818;stroke-width:0.5;" x1="302" x2="453" y1="909" y2="909"/><line style="stroke:#181818;stroke-width:0.5;" x1="302" x2="453" y1="917" y2="917"/><text fill="#000000" font-family="sans-serif" font-size="14" lengthAdjust="spacing" textLength="113" x="307" y="936.1074">+getRequestList()</text></g><!--class Request--><g id="elem_Request"><rect codeLine="96" fill="#F1F1F1" height="66.6211" id="Request" rx="2.5" ry="2.5" style="stroke:#181818;stroke-width:0.5;" width="85" x="345" y="1500.5"/><ellipse cx="360" cy="1516.5" fill="#ADD1B2" rx="11" ry="11" style="stroke:#181818;stroke-width:1.0;"/><path d="M362.7656,1512.375 Q362.9219,1512.1563 363.1094,1512.0469 Q363.2969,1511.9375 363.5156,1511.9375 Q363.8906,1511.9375 364.125,1512.2031 Q364.3594,1512.4531 364.3594,1513.0625 L364.3594,1514.5156 Q364.3594,1515.125 364.125,1515.3906 Q363.8906,1515.6563 363.5156,1515.6563 Q363.1719,1515.6563 362.9688,1515.4531 Q362.7656,1515.2656 362.6563,1514.75 Q362.6094,1514.3906 362.4219,1514.2031 Q362.0938,1513.8281 361.4844,1513.6094 Q360.875,1513.3906 360.25,1513.3906 Q359.4844,1513.3906 358.8438,1513.7188 Q358.2188,1514.0469 357.7188,1514.7969 Q357.2344,1515.5469 357.2344,1516.5781 L357.2344,1517.6719 Q357.2344,1518.9063 358.125,1519.7344 Q359.0156,1520.5469 360.6094,1520.5469 Q361.5469,1520.5469 362.2031,1520.2969 Q362.5938,1520.1406 363.0156,1519.7031 Q363.2813,1519.4375 363.4219,1519.3594 Q363.5781,1519.2813 363.7813,1519.2813 Q364.1094,1519.2813 364.3594,1519.5469 Q364.625,1519.7969 364.625,1520.1406 Q364.625,1520.4844 364.2813,1520.8906 Q363.7813,1521.4688 362.9844,1521.7969 Q361.9063,1522.25 360.6094,1522.25 Q359.0938,1522.25 357.8906,1521.625 Q356.9063,1521.125 356.2188,1520.0625 Q355.5313,1518.9844 355.5313,1517.7031 L355.5313,1516.5469 Q355.5313,1515.2188 356.1406,1514.0781 Q356.7656,1512.9219 357.8594,1512.3125 Q358.9531,1511.6875 360.1875,1511.6875 Q360.9219,1511.6875 361.5625,1511.8594 Q362.2188,1512.0156 362.7656,1512.375 Z " fill="#000000"/><text fill="#000000" font-family="sans-serif" font-size="14" lengthAdjust="spacing" textLength="53" x="374" y="1522.2969">Request</text><line style="stroke:#181818;stroke-width:0.5;" x1="346" x2="429" y1="1532.5" y2="1532.5"/><text fill="#000000" font-family="sans-serif" font-size="14" lengthAdjust="spacing" textLength="71" x="351" y="1551.6074">-Date date;</text><line style="stroke:#181818;stroke-width:0.5;" x1="346" x2="429" y1="1559.1211" y2="1559.1211"/></g><!--class BusinessType--><g id="elem_BusinessType"><rect codeLine="102" fill="#F1F1F1" height="85.2422" id="BusinessType" rx="2.5" ry="2.5" style="stroke:#181818;stroke-width:0.5;" width="161" x="307" y="1711.5"/><ellipse cx="340" cy="1727.5" fill="#ADD1B2" rx="11" ry="11" style="stroke:#181818;stroke-width:1.0;"/><path d="M342.7656,1723.375 Q342.9219,1723.1563 343.1094,1723.0469 Q343.2969,1722.9375 343.5156,1722.9375 Q343.8906,1722.9375 344.125,1723.2031 Q344.3594,1723.4531 344.3594,1724.0625 L344.3594,1725.5156 Q344.3594,1726.125 344.125,1726.3906 Q343.8906,1726.6563 343.5156,1726.6563 Q343.1719,1726.6563 342.9688,1726.4531 Q342.7656,1726.2656 342.6563,1725.75 Q342.6094,1725.3906 342.4219,1725.2031 Q342.0938,1724.8281 341.4844,1724.6094 Q340.875,1724.3906 340.25,1724.3906 Q339.4844,1724.3906 338.8438,1724.7188 Q338.2188,1725.0469 337.7188,1725.7969 Q337.2344,1726.5469 337.2344,1727.5781 L337.2344,1728.6719 Q337.2344,1729.9063 338.125,1730.7344 Q339.0156,1731.5469 340.6094,1731.5469 Q341.5469,1731.5469 342.2031,1731.2969 Q342.5938,1731.1406 343.0156,1730.7031 Q343.2813,1730.4375 343.4219,1730.3594 Q343.5781,1730.2813 343.7813,1730.2813 Q344.1094,1730.2813 344.3594,1730.5469 Q344.625,1730.7969 344.625,1731.1406 Q344.625,1731.4844 344.2813,1731.8906 Q343.7813,1732.4688 342.9844,1732.7969 Q341.9063,1733.25 340.6094,1733.25 Q339.0938,1733.25 337.8906,1732.625 Q336.9063,1732.125 336.2188,1731.0625 Q335.5313,1729.9844 335.5313,1728.7031 L335.5313,1727.5469 Q335.5313,1726.2188 336.1406,1725.0781 Q336.7656,1723.9219 337.8594,1723.3125 Q338.9531,1722.6875 340.1875,1722.6875 Q340.9219,1722.6875 341.5625,1722.8594 Q342.2188,1723.0156 342.7656,1723.375 Z " fill="#000000"/><text fill="#000000" font-family="sans-serif" font-size="14" lengthAdjust="spacing" textLength="89" x="358" y="1733.2969">BusinessType</text><line style="stroke:#181818;stroke-width:0.5;" x1="308" x2="467" y1="1743.5" y2="1743.5"/><text fill="#000000" font-family="sans-serif" font-size="14" lengthAdjust="spacing" textLength="69" x="313" y="1762.6074">description</text><line style="stroke:#181818;stroke-width:0.5;" x1="308" x2="467" y1="1770.1211" y2="1770.1211"/><text fill="#000000" font-family="sans-serif" font-size="14" lengthAdjust="spacing" textLength="149" x="313" y="1789.2285">+getBusinessTypeList()</text></g><!--class BusinessTypeSale--><g id="elem_BusinessTypeSale"><rect codeLine="106" fill="#F1F1F1" height="66.6211" id="BusinessTypeSale" rx="2.5" ry="2.5" style="stroke:#181818;stroke-width:0.5;" width="149" x="313" y="1913"/><ellipse cx="328" cy="1929" fill="#ADD1B2" rx="11" ry="11" style="stroke:#181818;stroke-width:1.0;"/><path d="M330.7656,1924.875 Q330.9219,1924.6563 331.1094,1924.5469 Q331.2969,1924.4375 331.5156,1924.4375 Q331.8906,1924.4375 332.125,1924.7031 Q332.3594,1924.9531 332.3594,1925.5625 L332.3594,1927.0156 Q332.3594,1927.625 332.125,1927.8906 Q331.8906,1928.1563 331.5156,1928.1563 Q331.1719,1928.1563 330.9688,1927.9531 Q330.7656,1927.7656 330.6563,1927.25 Q330.6094,1926.8906 330.4219,1926.7031 Q330.0938,1926.3281 329.4844,1926.1094 Q328.875,1925.8906 328.25,1925.8906 Q327.4844,1925.8906 326.8438,1926.2188 Q326.2188,1926.5469 325.7188,1927.2969 Q325.2344,1928.0469 325.2344,1929.0781 L325.2344,1930.1719 Q325.2344,1931.4063 326.125,1932.2344 Q327.0156,1933.0469 328.6094,1933.0469 Q329.5469,1933.0469 330.2031,1932.7969 Q330.5938,1932.6406 331.0156,1932.2031 Q331.2813,1931.9375 331.4219,1931.8594 Q331.5781,1931.7813 331.7813,1931.7813 Q332.1094,1931.7813 332.3594,1932.0469 Q332.625,1932.2969 332.625,1932.6406 Q332.625,1932.9844 332.2813,1933.3906 Q331.7813,1933.9688 330.9844,1934.2969 Q329.9063,1934.75 328.6094,1934.75 Q327.0938,1934.75 325.8906,1934.125 Q324.9063,1933.625 324.2188,1932.5625 Q323.5313,1931.4844 323.5313,1930.2031 L323.5313,1929.0469 Q323.5313,1927.7188 324.1406,1926.5781 Q324.7656,1925.4219 325.8594,1924.8125 Q326.9531,1924.1875 328.1875,1924.1875 Q328.9219,1924.1875 329.5625,1924.3594 Q330.2188,1924.5156 330.7656,1924.875 Z " fill="#000000"/><text fill="#000000" font-family="sans-serif" font-size="14" lengthAdjust="spacing" textLength="117" x="342" y="1934.7969">BusinessTypeSale</text><line style="stroke:#181818;stroke-width:0.5;" x1="314" x2="461" y1="1945" y2="1945"/><text fill="#000000" font-family="sans-serif" font-size="14" lengthAdjust="spacing" textLength="110" x="319" y="1964.1074">-double:salePrice</text><line style="stroke:#181818;stroke-width:0.5;" x1="314" x2="461" y1="1971.6211" y2="1971.6211"/></g><!--class AdvertisementRepository--><g id="elem_AdvertisementRepository"><rect codeLine="110" fill="#F1F1F1" height="66.6211" id="AdvertisementRepository" rx="2.5" ry="2.5" style="stroke:#181818;stroke-width:0.5;" width="190" x="125.5" y="780"/><ellipse cx="140.5" cy="796" fill="#ADD1B2" rx="11" ry="11" style="stroke:#181818;stroke-width:1.0;"/><path d="M143.2656,791.875 Q143.4219,791.6563 143.6094,791.5469 Q143.7969,791.4375 144.0156,791.4375 Q144.3906,791.4375 144.625,791.7031 Q144.8594,791.9531 144.8594,792.5625 L144.8594,794.0156 Q144.8594,794.625 144.625,794.8906 Q144.3906,795.1563 144.0156,795.1563 Q143.6719,795.1563 143.4688,794.9531 Q143.2656,794.7656 143.1563,794.25 Q143.1094,793.8906 142.9219,793.7031 Q142.5938,793.3281 141.9844,793.1094 Q141.375,792.8906 140.75,792.8906 Q139.9844,792.8906 139.3438,793.2188 Q138.7188,793.5469 138.2188,794.2969 Q137.7344,795.0469 137.7344,796.0781 L137.7344,797.1719 Q137.7344,798.4063 138.625,799.2344 Q139.5156,800.0469 141.1094,800.0469 Q142.0469,800.0469 142.7031,799.7969 Q143.0938,799.6406 143.5156,799.2031 Q143.7813,798.9375 143.9219,798.8594 Q144.0781,798.7813 144.2813,798.7813 Q144.6094,798.7813 144.8594,799.0469 Q145.125,799.2969 145.125,799.6406 Q145.125,799.9844 144.7813,800.3906 Q144.2813,800.9688 143.4844,801.2969 Q142.4063,801.75 141.1094,801.75 Q139.5938,801.75 138.3906,801.125 Q137.4063,800.625 136.7188,799.5625 Q136.0313,798.4844 136.0313,797.2031 L136.0313,796.0469 Q136.0313,794.7188 136.6406,793.5781 Q137.2656,792.4219 138.3594,791.8125 Q139.4531,791.1875 140.6875,791.1875 Q141.4219,791.1875 142.0625,791.3594 Q142.7188,791.5156 143.2656,791.875 Z " fill="#000000"/><text fill="#000000" font-family="sans-serif" font-size="14" lengthAdjust="spacing" textLength="158" x="154.5" y="801.7969">AdvertisementRepository</text><line style="stroke:#181818;stroke-width:0.5;" x1="126.5" x2="314.5" y1="812" y2="812"/><line style="stroke:#181818;stroke-width:0.5;" x1="126.5" x2="314.5" y1="820" y2="820"/><text fill="#000000" font-family="sans-serif" font-size="14" lengthAdjust="spacing" textLength="150" x="131.5" y="839.1074">+getAdvertisementList()</text></g><!--class Advertisement--><g id="elem_Advertisement"><rect codeLine="113" fill="#F1F1F1" height="420.4219" id="Advertisement" rx="2.5" ry="2.5" style="stroke:#181818;stroke-width:0.5;" width="234" x="100.5" y="974"/><ellipse cx="168.25" cy="990" fill="#ADD1B2" rx="11" ry="11" style="stroke:#181818;stroke-width:1.0;"/><path d="M171.0156,985.875 Q171.1719,985.6563 171.3594,985.5469 Q171.5469,985.4375 171.7656,985.4375 Q172.1406,985.4375 172.375,985.7031 Q172.6094,985.9531 172.6094,986.5625 L172.6094,988.0156 Q172.6094,988.625 172.375,988.8906 Q172.1406,989.1563 171.7656,989.1563 Q171.4219,989.1563 171.2188,988.9531 Q171.0156,988.7656 170.9063,988.25 Q170.8594,987.8906 170.6719,987.7031 Q170.3438,987.3281 169.7344,987.1094 Q169.125,986.8906 168.5,986.8906 Q167.7344,986.8906 167.0938,987.2188 Q166.4688,987.5469 165.9688,988.2969 Q165.4844,989.0469 165.4844,990.0781 L165.4844,991.1719 Q165.4844,992.4063 166.375,993.2344 Q167.2656,994.0469 168.8594,994.0469 Q169.7969,994.0469 170.4531,993.7969 Q170.8438,993.6406 171.2656,993.2031 Q171.5313,992.9375 171.6719,992.8594 Q171.8281,992.7813 172.0313,992.7813 Q172.3594,992.7813 172.6094,993.0469 Q172.875,993.2969 172.875,993.6406 Q172.875,993.9844 172.5313,994.3906 Q172.0313,994.9688 171.2344,995.2969 Q170.1563,995.75 168.8594,995.75 Q167.3438,995.75 166.1406,995.125 Q165.1563,994.625 164.4688,993.5625 Q163.7813,992.4844 163.7813,991.2031 L163.7813,990.0469 Q163.7813,988.7188 164.3906,987.5781 Q165.0156,986.4219 166.1094,985.8125 Q167.2031,985.1875 168.4375,985.1875 Q169.1719,985.1875 169.8125,985.3594 Q170.4688,985.5156 171.0156,985.875 Z " fill="#000000"/><text fill="#000000" font-family="sans-serif" font-size="14" lengthAdjust="spacing" textLength="90" x="188.75" y="995.7969">Advertisement</text><line style="stroke:#181818;stroke-width:0.5;" x1="101.5" x2="333.5" y1="1006" y2="1006"/><text fill="#000000" font-family="sans-serif" font-size="14" lengthAdjust="spacing" textLength="150" x="106.5" y="1025.1074">-Request keepRequest;</text><text fill="#000000" font-family="sans-serif" font-size="14" lengthAdjust="spacing" textLength="216" x="106.5" y="1043.7285">-PropertyType keepPropertyType;</text><text fill="#000000" font-family="sans-serif" font-size="14" lengthAdjust="spacing" textLength="222" x="106.5" y="1062.3496">-BusinessType keepBusinessType;</text><text fill="#000000" font-family="sans-serif" font-size="14" lengthAdjust="spacing" textLength="152" x="106.5" y="1080.9707">-Property keepProperty;</text><text fill="#000000" font-family="sans-serif" font-size="14" lengthAdjust="spacing" textLength="85" x="106.5" y="1099.5918">-double area;</text><text fill="#000000" font-family="sans-serif" font-size="14" lengthAdjust="spacing" textLength="109" x="106.5" y="1118.2129">-double distance;</text><text fill="#000000" font-family="sans-serif" font-size="14" lengthAdjust="spacing" textLength="136" x="106.5" y="1136.834">-int numberBedrooms</text><text fill="#000000" font-family="sans-serif" font-size="14" lengthAdjust="spacing" textLength="120" x="106.5" y="1155.4551">-int numberParking</text><text fill="#000000" font-family="sans-serif" font-size="14" lengthAdjust="spacing" textLength="140" x="106.5" y="1174.0762">-int numberBathrooms</text><text fill="#000000" font-family="sans-serif" font-size="14" lengthAdjust="spacing" textLength="169" x="106.5" y="1192.6973">-String availableEquipment</text><text fill="#000000" font-family="sans-serif" font-size="14" lengthAdjust="spacing" textLength="122" x="106.5" y="1211.3184">-boolean basement</text><text fill="#000000" font-family="sans-serif" font-size="14" lengthAdjust="spacing" textLength="79" x="106.5" y="1229.9395">-boolean loft</text><text fill="#000000" font-family="sans-serif" font-size="14" lengthAdjust="spacing" textLength="116" x="106.5" y="1248.5605">-SunExposure sun</text><text fill="#000000" font-family="sans-serif" font-size="14" lengthAdjust="spacing" textLength="82" x="106.5" y="1267.1816">-String street</text><text fill="#000000" font-family="sans-serif" font-size="14" lengthAdjust="spacing" textLength="63" x="106.5" y="1285.8027">-String zip</text><text fill="#000000" font-family="sans-serif" font-size="14" lengthAdjust="spacing" textLength="77" x="106.5" y="1304.4238">-String state</text><text fill="#000000" font-family="sans-serif" font-size="14" lengthAdjust="spacing" textLength="67" x="106.5" y="1323.0449">-String city</text><text fill="#000000" font-family="sans-serif" font-size="14" lengthAdjust="spacing" textLength="87" x="106.5" y="1341.666">-String district</text><text fill="#000000" font-family="sans-serif" font-size="14" lengthAdjust="spacing" textLength="164" x="106.5" y="1360.2871">-List&lt;String&gt; photographs</text><text fill="#000000" font-family="sans-serif" font-size="14" lengthAdjust="spacing" textLength="110" x="106.5" y="1378.9082">-double salePrice</text><line style="stroke:#181818;stroke-width:0.5;" x1="101.5" x2="333.5" y1="1386.4219" y2="1386.4219"/></g><!--class Offer--><g id="elem_Offer"><rect codeLine="136" fill="#F1F1F1" height="85.2422" id="Offer" rx="2.5" ry="2.5" style="stroke:#181818;stroke-width:0.5;" width="64" x="56.5" y="1491.5"/><ellipse cx="71.5" cy="1507.5" fill="#ADD1B2" rx="11" ry="11" style="stroke:#181818;stroke-width:1.0;"/><path d="M74.2656,1503.375 Q74.4219,1503.1563 74.6094,1503.0469 Q74.7969,1502.9375 75.0156,1502.9375 Q75.3906,1502.9375 75.625,1503.2031 Q75.8594,1503.4531 75.8594,1504.0625 L75.8594,1505.5156 Q75.8594,1506.125 75.625,1506.3906 Q75.3906,1506.6563 75.0156,1506.6563 Q74.6719,1506.6563 74.4688,1506.4531 Q74.2656,1506.2656 74.1563,1505.75 Q74.1094,1505.3906 73.9219,1505.2031 Q73.5938,1504.8281 72.9844,1504.6094 Q72.375,1504.3906 71.75,1504.3906 Q70.9844,1504.3906 70.3438,1504.7188 Q69.7188,1505.0469 69.2188,1505.7969 Q68.7344,1506.5469 68.7344,1507.5781 L68.7344,1508.6719 Q68.7344,1509.9063 69.625,1510.7344 Q70.5156,1511.5469 72.1094,1511.5469 Q73.0469,1511.5469 73.7031,1511.2969 Q74.0938,1511.1406 74.5156,1510.7031 Q74.7813,1510.4375 74.9219,1510.3594 Q75.0781,1510.2813 75.2813,1510.2813 Q75.6094,1510.2813 75.8594,1510.5469 Q76.125,1510.7969 76.125,1511.1406 Q76.125,1511.4844 75.7813,1511.8906 Q75.2813,1512.4688 74.4844,1512.7969 Q73.4063,1513.25 72.1094,1513.25 Q70.5938,1513.25 69.3906,1512.625 Q68.4063,1512.125 67.7188,1511.0625 Q67.0313,1509.9844 67.0313,1508.7031 L67.0313,1507.5469 Q67.0313,1506.2188 67.6406,1505.0781 Q68.2656,1503.9219 69.3594,1503.3125 Q70.4531,1502.6875 71.6875,1502.6875 Q72.4219,1502.6875 73.0625,1502.8594 Q73.7188,1503.0156 74.2656,1503.375 Z " fill="#000000"/><text fill="#000000" font-family="sans-serif" font-size="14" lengthAdjust="spacing" textLength="32" x="85.5" y="1513.2969">Offer</text><line style="stroke:#181818;stroke-width:0.5;" x1="57.5" x2="119.5" y1="1523.5" y2="1523.5"/><text fill="#000000" font-family="sans-serif" font-size="14" lengthAdjust="spacing" textLength="38" x="62.5" y="1542.6074">status</text><text fill="#000000" font-family="sans-serif" font-size="14" lengthAdjust="spacing" textLength="34" x="62.5" y="1561.2285">value</text><line style="stroke:#181818;stroke-width:0.5;" x1="57.5" x2="119.5" y1="1568.7422" y2="1568.7422"/></g><!--class SunExposureRepository--><g id="elem_SunExposureRepository"><rect fill="#F1F1F1" height="48" id="SunExposureRepository" rx="2.5" ry="2.5" style="stroke:#181818;stroke-width:0.5;" width="184" x="421.5" y="789.5"/><ellipse cx="436.5" cy="805.5" fill="#ADD1B2" rx="11" ry="11" style="stroke:#181818;stroke-width:1.0;"/><path d="M439.2656,801.375 Q439.4219,801.1563 439.6094,801.0469 Q439.7969,800.9375 440.0156,800.9375 Q440.3906,800.9375 440.625,801.2031 Q440.8594,801.4531 440.8594,802.0625 L440.8594,803.5156 Q440.8594,804.125 440.625,804.3906 Q440.3906,804.6563 440.0156,804.6563 Q439.6719,804.6563 439.4688,804.4531 Q439.2656,804.2656 439.1563,803.75 Q439.1094,803.3906 438.9219,803.2031 Q438.5938,802.8281 437.9844,802.6094 Q437.375,802.3906 436.75,802.3906 Q435.9844,802.3906 435.3438,802.7188 Q434.7188,803.0469 434.2188,803.7969 Q433.7344,804.5469 433.7344,805.5781 L433.7344,806.6719 Q433.7344,807.9063 434.625,808.7344 Q435.5156,809.5469 437.1094,809.5469 Q438.0469,809.5469 438.7031,809.2969 Q439.0938,809.1406 439.5156,808.7031 Q439.7813,808.4375 439.9219,808.3594 Q440.0781,808.2813 440.2813,808.2813 Q440.6094,808.2813 440.8594,808.5469 Q441.125,808.7969 441.125,809.1406 Q441.125,809.4844 440.7813,809.8906 Q440.2813,810.4688 439.4844,810.7969 Q438.4063,811.25 437.1094,811.25 Q435.5938,811.25 434.3906,810.625 Q433.4063,810.125 432.7188,809.0625 Q432.0313,807.9844 432.0313,806.7031 L432.0313,805.5469 Q432.0313,804.2188 432.6406,803.0781 Q433.2656,801.9219 434.3594,801.3125 Q435.4531,800.6875 436.6875,800.6875 Q437.4219,800.6875 438.0625,800.8594 Q438.7188,801.0156 439.2656,801.375 Z " fill="#000000"/><text fill="#000000" font-family="sans-serif" font-size="14" lengthAdjust="spacing" textLength="152" x="450.5" y="811.2969">SunExposureRepository</text><line style="stroke:#181818;stroke-width:0.5;" x1="422.5" x2="604.5" y1="821.5" y2="821.5"/><line style="stroke:#181818;stroke-width:0.5;" x1="422.5" x2="604.5" y1="829.5" y2="829.5"/></g><!--class BusinessTypeRepository--><g id="elem_BusinessTypeRepository"><rect fill="#F1F1F1" height="48" id="BusinessTypeRepository" rx="2.5" ry="2.5" style="stroke:#181818;stroke-width:0.5;" width="189" x="641" y="789.5"/><ellipse cx="656" cy="805.5" fill="#ADD1B2" rx="11" ry="11" style="stroke:#181818;stroke-width:1.0;"/><path d="M658.7656,801.375 Q658.9219,801.1563 659.1094,801.0469 Q659.2969,800.9375 659.5156,800.9375 Q659.8906,800.9375 660.125,801.2031 Q660.3594,801.4531 660.3594,802.0625 L660.3594,803.5156 Q660.3594,804.125 660.125,804.3906 Q659.8906,804.6563 659.5156,804.6563 Q659.1719,804.6563 658.9688,804.4531 Q658.7656,804.2656 658.6563,803.75 Q658.6094,803.3906 658.4219,803.2031 Q658.0938,802.8281 657.4844,802.6094 Q656.875,802.3906 656.25,802.3906 Q655.4844,802.3906 654.8438,802.7188 Q654.2188,803.0469 653.7188,803.7969 Q653.2344,804.5469 653.2344,805.5781 L653.2344,806.6719 Q653.2344,807.9063 654.125,808.7344 Q655.0156,809.5469 656.6094,809.5469 Q657.5469,809.5469 658.2031,809.2969 Q658.5938,809.1406 659.0156,808.7031 Q659.2813,808.4375 659.4219,808.3594 Q659.5781,808.2813 659.7813,808.2813 Q660.1094,808.2813 660.3594,808.5469 Q660.625,808.7969 660.625,809.1406 Q660.625,809.4844 660.2813,809.8906 Q659.7813,810.4688 658.9844,810.7969 Q657.9063,811.25 656.6094,811.25 Q655.0938,811.25 653.8906,810.625 Q652.9063,810.125 652.2188,809.0625 Q651.5313,807.9844 651.5313,806.7031 L651.5313,805.5469 Q651.5313,804.2188 652.1406,803.0781 Q652.7656,801.9219 653.8594,801.3125 Q654.9531,800.6875 656.1875,800.6875 Q656.9219,800.6875 657.5625,800.8594 Q658.2188,801.0156 658.7656,801.375 Z " fill="#000000"/><text fill="#000000" font-family="sans-serif" font-size="14" lengthAdjust="spacing" textLength="157" x="670" y="811.2969">BusinessTypeRepository</text><line style="stroke:#181818;stroke-width:0.5;" x1="642" x2="829" y1="821.5" y2="821.5"/><line style="stroke:#181818;stroke-width:0.5;" x1="642" x2="829" y1="829.5" y2="829.5"/></g><!--class PersonRepository--><g id="elem_PersonRepository"><rect fill="#F1F1F1" height="48" id="PersonRepository" rx="2.5" ry="2.5" style="stroke:#181818;stroke-width:0.5;" width="145" x="495" y="320.5"/><ellipse cx="510" cy="336.5" fill="#ADD1B2" rx="11" ry="11" style="stroke:#181818;stroke-width:1.0;"/><path d="M512.7656,332.375 Q512.9219,332.1563 513.1094,332.0469 Q513.2969,331.9375 513.5156,331.9375 Q513.8906,331.9375 514.125,332.2031 Q514.3594,332.4531 514.3594,333.0625 L514.3594,334.5156 Q514.3594,335.125 514.125,335.3906 Q513.8906,335.6563 513.5156,335.6563 Q513.1719,335.6563 512.9688,335.4531 Q512.7656,335.2656 512.6563,334.75 Q512.6094,334.3906 512.4219,334.2031 Q512.0938,333.8281 511.4844,333.6094 Q510.875,333.3906 510.25,333.3906 Q509.4844,333.3906 508.8438,333.7188 Q508.2188,334.0469 507.7188,334.7969 Q507.2344,335.5469 507.2344,336.5781 L507.2344,337.6719 Q507.2344,338.9063 508.125,339.7344 Q509.0156,340.5469 510.6094,340.5469 Q511.5469,340.5469 512.2031,340.2969 Q512.5938,340.1406 513.0156,339.7031 Q513.2813,339.4375 513.4219,339.3594 Q513.5781,339.2813 513.7813,339.2813 Q514.1094,339.2813 514.3594,339.5469 Q514.625,339.7969 514.625,340.1406 Q514.625,340.4844 514.2813,340.8906 Q513.7813,341.4688 512.9844,341.7969 Q511.9063,342.25 510.6094,342.25 Q509.0938,342.25 507.8906,341.625 Q506.9063,341.125 506.2188,340.0625 Q505.5313,338.9844 505.5313,337.7031 L505.5313,336.5469 Q505.5313,335.2188 506.1406,334.0781 Q506.7656,332.9219 507.8594,332.3125 Q508.9531,331.6875 510.1875,331.6875 Q510.9219,331.6875 511.5625,331.8594 Q512.2188,332.0156 512.7656,332.375 Z " fill="#000000"/><text fill="#000000" font-family="sans-serif" font-size="14" lengthAdjust="spacing" textLength="113" x="524" y="342.2969">PersonRepository</text><line style="stroke:#181818;stroke-width:0.5;" x1="496" x2="639" y1="352.5" y2="352.5"/><line style="stroke:#181818;stroke-width:0.5;" x1="496" x2="639" y1="360.5" y2="360.5"/></g><!--class Person--><g id="elem_Person"><rect fill="#F1F1F1" height="48" id="Person" rx="2.5" ry="2.5" style="stroke:#181818;stroke-width:0.5;" width="77" x="7" y="320.5"/><ellipse cx="22" cy="336.5" fill="#ADD1B2" rx="11" ry="11" style="stroke:#181818;stroke-width:1.0;"/><path d="M24.7656,332.375 Q24.9219,332.1563 25.1094,332.0469 Q25.2969,331.9375 25.5156,331.9375 Q25.8906,331.9375 26.125,332.2031 Q26.3594,332.4531 26.3594,333.0625 L26.3594,334.5156 Q26.3594,335.125 26.125,335.3906 Q25.8906,335.6563 25.5156,335.6563 Q25.1719,335.6563 24.9688,335.4531 Q24.7656,335.2656 24.6563,334.75 Q24.6094,334.3906 24.4219,334.2031 Q24.0938,333.8281 23.4844,333.6094 Q22.875,333.3906 22.25,333.3906 Q21.4844,333.3906 20.8438,333.7188 Q20.2188,334.0469 19.7188,334.7969 Q19.2344,335.5469 19.2344,336.5781 L19.2344,337.6719 Q19.2344,338.9063 20.125,339.7344 Q21.0156,340.5469 22.6094,340.5469 Q23.5469,340.5469 24.2031,340.2969 Q24.5938,340.1406 25.0156,339.7031 Q25.2813,339.4375 25.4219,339.3594 Q25.5781,339.2813 25.7813,339.2813 Q26.1094,339.2813 26.3594,339.5469 Q26.625,339.7969 26.625,340.1406 Q26.625,340.4844 26.2813,340.8906 Q25.7813,341.4688 24.9844,341.7969 Q23.9063,342.25 22.6094,342.25 Q21.0938,342.25 19.8906,341.625 Q18.9063,341.125 18.2188,340.0625 Q17.5313,338.9844 17.5313,337.7031 L17.5313,336.5469 Q17.5313,335.2188 18.1406,334.0781 Q18.7656,332.9219 19.8594,332.3125 Q20.9531,331.6875 22.1875,331.6875 Q22.9219,331.6875 23.5625,331.8594 Q24.2188,332.0156 24.7656,332.375 Z " fill="#000000"/><text fill="#000000" font-family="sans-serif" font-size="14" lengthAdjust="spacing" textLength="45" x="36" y="342.2969">Person</text><line style="stroke:#181818;stroke-width:0.5;" x1="8" x2="83" y1="352.5" y2="352.5"/><line style="stroke:#181818;stroke-width:0.5;" x1="8" x2="83" y1="360.5" y2="360.5"/></g><!--link AnalyseDealsUI to AnalyseDealsController--><g id="link_AnalyseDealsUI_AnalyseDealsController"><path codeLine="141" d="M289.5,148.13 C289.5,165.3 289.5,184.3 289.5,203.52 " fill="none" id="AnalyseDealsUI-to-AnalyseDealsController" style="stroke:#181818;stroke-width:1.0;stroke-dasharray:7.0,7.0;"/><polygon fill="#181818" points="289.5,208.94,293.5,199.94,289.5,203.94,285.5,199.94,289.5,208.94" style="stroke:#181818;stroke-width:1.0;"/></g><!--link AnalyseDealsController to Repositories--><g id="link_AnalyseDealsController_Repositories"><path codeLine="143" d="M392.65,480.19 C412.08,505.56 431.86,531.4 449.65,554.63 " fill="none" id="AnalyseDealsController-to-Repositories" style="stroke:#181818;stroke-width:1.0;stroke-dasharray:7.0,7.0;"/><polygon fill="#181818" points="452.72,558.63,450.4432,549.0479,449.6881,554.6542,444.0818,553.899,452.72,558.63" style="stroke:#181818;stroke-width:1.0;"/><text fill="#000000" font-family="sans-serif" font-size="13" lengthAdjust="spacing" textLength="67" x="428.5" y="525.0283">repositories</text></g><!--link Repositories to PropertyRepository--><g id="link_Repositories_PropertyRepository"><path codeLine="145" d="M617.35,683.53 C715.4,724.63 847.5,780 847.5,780 C847.5,780 857.01,833.54 863.8,871.77 " fill="none" id="Repositories-to-PropertyRepository" style="stroke:#181818;stroke-width:1.0;"/><polygon fill="#181818" points="864.7,876.82,867.0671,867.2598,863.827,871.8968,859.19,868.6567,864.7,876.82" style="stroke:#181818;stroke-width:1.0;"/></g><!--link Repositories to SunExposureRepository--><g id="link_Repositories_SunExposureRepository"><path codeLine="146" d="M513.5,719.18 C513.5,742.3 513.5,766.1 513.5,783.87 " fill="none" id="Repositories-to-SunExposureRepository" style="stroke:#181818;stroke-width:1.0;"/><polygon fill="#181818" points="513.5,789.19,517.5,780.19,513.5,784.19,509.5,780.19,513.5,789.19" style="stroke:#181818;stroke-width:1.0;"/></g><!--link Repositories to BusinessTypeRepository--><g id="link_Repositories_BusinessTypeRepository"><path codeLine="147" d="M615.4,719.18 C646.31,743.2 678.16,767.94 701.29,785.92 " fill="none" id="Repositories-to-BusinessTypeRepository" style="stroke:#181818;stroke-width:1.0;"/><polygon fill="#181818" points="705.5,789.19,700.8429,780.5118,701.5502,786.1242,695.9377,786.8315,705.5,789.19" style="stroke:#181818;stroke-width:1.0;"/></g><!--link Repositories to RequestRepository--><g id="link_Repositories_RequestRepository"><path codeLine="148" d="M451.99,719 C427.27,750.76 404.5,780 404.5,780 C404.5,780 393.34,833.54 385.37,871.77 " fill="none" id="Repositories-to-RequestRepository" style="stroke:#181818;stroke-width:1.0;"/><polygon fill="#181818" points="384.31,876.82,390.0513,868.8176,385.3235,871.9238,382.2173,867.196,384.31,876.82" style="stroke:#181818;stroke-width:1.0;"/></g><!--reverse link PersonRepository to Repositories--><g id="link_PersonRepository_Repositories"><path codeLine="149" d="M562.26,373.91 C554.44,416.25 539.44,497.48 528.13,558.73 " fill="none" id="PersonRepository-backto-Repositories" style="stroke:#181818;stroke-width:1.0;"/><polygon fill="#181818" points="563.17,368.94,557.5955,377.0594,562.258,373.8561,565.4613,378.5186,563.17,368.94" style="stroke:#181818;stroke-width:1.0;"/></g><!--link Repositories to AdvertisementRepository--><g id="link_Repositories_AdvertisementRepository"><path codeLine="150" d="M409.79,701.06 C366.44,726.58 317.62,755.32 280.42,777.23 " fill="none" id="Repositories-to-AdvertisementRepository" style="stroke:#181818;stroke-width:1.0;"/><polygon fill="#181818" points="275.94,779.86,285.7257,778.746,280.25,777.3255,281.6705,771.8499,275.94,779.86" style="stroke:#181818;stroke-width:1.0;"/></g><!--link PropertyRepository to Property--><g id="link_PropertyRepository_Property"><path codeLine="152" d="M869.98,944.04 C868.4,1042.06 863.67,1335.85 861.55,1467.7 " fill="none" id="PropertyRepository-to-Property" style="stroke:#181818;stroke-width:1.0;"/><polygon fill="#181818" points="861.47,1472.71,865.5982,1463.7681,861.5414,1467.7105,857.599,1463.6538,861.47,1472.71" style="stroke:#181818;stroke-width:1.0;"/><text fill="#000000" font-family="sans-serif" font-size="13" lengthAdjust="spacing" textLength="5" x="856.2931" y="1461.6577">*</text></g><!--link Property to PropertyType--><g id="link_Property_PropertyType"><path codeLine="153" d="M859.4,1595.15 C858.75,1630.2 857.95,1673.75 857.36,1706.22 " fill="none" id="Property-to-PropertyType" style="stroke:#181818;stroke-width:1.0;"/><polygon fill="#181818" points="857.26,1711.33,861.4392,1702.4118,857.36,1706.331,853.4408,1702.2518,857.26,1711.33" style="stroke:#181818;stroke-width:1.0;"/><text fill="#000000" font-family="sans-serif" font-size="13" lengthAdjust="spacing" textLength="30" x="859.5" y="1640.0283">owns</text><text fill="#000000" font-family="sans-serif" font-size="13" lengthAdjust="spacing" textLength="7" x="851.8394" y="1617.6551">1</text><text fill="#000000" font-family="sans-serif" font-size="13" lengthAdjust="spacing" textLength="7" x="849.8233" y="1700.207">1</text></g><!--link Property to Location--><g id="link_Property_Location"><path codeLine="154" d="M912,1595.16 C944.16,1632.73 979.5,1674 979.5,1674 C979.5,1674 985.75,1682.09 994.25,1693.1 " fill="none" id="Property-to-Location" style="stroke:#181818;stroke-width:1.0;"/><polygon fill="#181818" points="997.47,1697.28,995.1331,1687.7124,994.4132,1693.3233,988.8023,1692.6033,997.47,1697.28" style="stroke:#181818;stroke-width:1.0;"/><text fill="#000000" font-family="sans-serif" font-size="13" lengthAdjust="spacing" textLength="30" x="954.5" y="1640.0283">owns</text><text fill="#000000" font-family="sans-serif" font-size="13" lengthAdjust="spacing" textLength="7" x="910.85" y="1617.6663">1</text><text fill="#000000" font-family="sans-serif" font-size="13" lengthAdjust="spacing" textLength="7" x="982.4727" y="1683.1146">1</text></g><!--reverse link Property to Apartment--><g id="link_Property_Apartment"><path codeLine="155" d="M779.99,1609.05 C750.38,1636.29 717.23,1666.79 689.09,1692.67 " fill="none" id="Property-backto-Apartment" style="stroke:#181818;stroke-width:1.0;"/><polygon fill="none" points="775.65,1603.53,795.11,1595.15,785.13,1613.84,775.65,1603.53" style="stroke:#181818;stroke-width:1.0;"/></g><!--reverse link Property to House--><g id="link_Property_House"><path codeLine="156" d="M968.07,1597.04 C1032.3,1634.09 1101.5,1674 1101.5,1674 C1101.5,1674 1108.38,1678.94 1118.69,1686.34 " fill="none" id="Property-backto-House" style="stroke:#181818;stroke-width:1.0;"/><polygon fill="none" points="964.41,1603.01,950.58,1586.96,971.4,1590.88,964.41,1603.01" style="stroke:#181818;stroke-width:1.0;"/></g><!--reverse link House to SunExposure--><g id="link_House_SunExposure"><path codeLine="157" d="M1211.5,1839.33 C1211.5,1865.39 1211.5,1892.55 1211.5,1912.88 " fill="none" id="House-backto-SunExposure" style="stroke:#181818;stroke-width:1.0;"/><polygon fill="#181818" points="1211.5,1834.13,1207.5,1843.13,1211.5,1839.13,1215.5,1843.13,1211.5,1834.13" style="stroke:#181818;stroke-width:1.0;"/></g><!--link SunExposure to SunExposureType--><g id="link_SunExposure_SunExposureType"><path codeLine="158" d="M1211.5,1980.28 C1211.5,1997.19 1211.5,2017.92 1211.5,2035.53 " fill="none" id="SunExposure-to-SunExposureType" style="stroke:#181818;stroke-width:1.0;"/><polygon fill="#181818" points="1211.5,2040.89,1215.5,2031.89,1211.5,2035.89,1207.5,2031.89,1211.5,2040.89" style="stroke:#181818;stroke-width:1.0;"/><text fill="#000000" font-family="sans-serif" font-size="13" lengthAdjust="spacing" textLength="5" x="1206.0078" y="2029.6939">*</text></g><!--link RequestRepository to Request--><g id="link_RequestRepository_Request"><path codeLine="160" d="M378.02,944.04 C379.72,1049.64 385.08,1382.44 386.89,1495.21 " fill="none" id="RequestRepository-to-Request" style="stroke:#181818;stroke-width:1.0;"/><polygon fill="#181818" points="386.98,1500.41,390.8247,1491.3426,386.8941,1495.4107,382.8259,1491.4801,386.98,1500.41" style="stroke:#181818;stroke-width:1.0;"/><text fill="#000000" font-family="sans-serif" font-size="13" lengthAdjust="spacing" textLength="5" x="381.3854" y="1489.2178">*</text></g><!--link Request to BusinessType--><g id="link_Request_BusinessType"><path codeLine="161" d="M387.5,1567.64 C387.5,1604.31 387.5,1664.18 387.5,1705.91 " fill="none" id="Request-to-BusinessType" style="stroke:#181818;stroke-width:1.0;"/><polygon fill="#181818" points="387.5,1711.17,391.5,1702.17,387.5,1706.17,383.5,1702.17,387.5,1711.17" style="stroke:#181818;stroke-width:1.0;"/><text fill="#000000" font-family="sans-serif" font-size="13" lengthAdjust="spacing" textLength="72" x="388.5" y="1640.0283">is classified:</text><text fill="#000000" font-family="sans-serif" font-size="13" lengthAdjust="spacing" textLength="5" x="382.0547" y="1589.2342">*</text><text fill="#000000" font-family="sans-serif" font-size="13" lengthAdjust="spacing" textLength="7" x="379.9641" y="1700.3422">1</text></g><!--link Request to Property--><g id="link_Request_Property"><path codeLine="162" d="M430.31,1534 C505.56,1534 663.24,1534 765.37,1534 " fill="none" id="Request-to-Property" style="stroke:#181818;stroke-width:1.0;"/><polygon fill="#181818" points="770.49,1534,761.49,1530,765.49,1534,761.49,1538,770.49,1534" style="stroke:#181818;stroke-width:1.0;"/><text fill="#000000" font-family="sans-serif" font-size="13" lengthAdjust="spacing" textLength="45" x="577.75" y="1527.0283">include:</text><text fill="#000000" font-family="sans-serif" font-size="13" lengthAdjust="spacing" textLength="7" x="437.9801" y="1529.676">1</text><text fill="#000000" font-family="sans-serif" font-size="13" lengthAdjust="spacing" textLength="7" x="755.454" y="1530.2895">1</text></g><!--link BusinessType to BusinessTypeSale--><g id="link_BusinessType_BusinessTypeSale"><path codeLine="163" d="M387.5,1796.81 C387.5,1829.97 387.5,1875.92 387.5,1907.92 " fill="none" id="BusinessType-to-BusinessTypeSale" style="stroke:#181818;stroke-width:1.0;"/><polygon fill="#181818" points="387.5,1912.94,391.5,1903.94,387.5,1907.94,383.5,1903.94,387.5,1912.94" style="stroke:#181818;stroke-width:1.0;"/><text fill="#000000" font-family="sans-serif" font-size="13" lengthAdjust="spacing" textLength="43" x="388.5" y="1879.0283">can be:</text></g><!--link AdvertisementRepository to Advertisement--><g id="link_AdvertisementRepository_Advertisement"><path codeLine="165" d="M220.23,847.2 C220,876.09 219.63,920.94 219.25,968.55 " fill="none" id="AdvertisementRepository-to-Advertisement" style="stroke:#181818;stroke-width:1.0;"/><polygon fill="#181818" points="219.2,973.76,223.2514,964.783,219.2286,968.7601,215.2515,964.7373,219.2,973.76" style="stroke:#181818;stroke-width:1.0;"/><text fill="#000000" font-family="sans-serif" font-size="13" lengthAdjust="spacing" textLength="5" x="214.1713" y="962.925">*</text></g><!--link Advertisement to Request--><g id="link_Advertisement_Request"><path codeLine="167" d="M296.14,1394.17 C306.99,1423.01 314.5,1443 314.5,1443 C314.5,1443 337.54,1471.4 357.73,1496.29 " fill="none" id="Advertisement-to-Request" style="stroke:#181818;stroke-width:1.0;"/><polygon fill="#181818" points="360.94,1500.25,358.3902,1490.7369,357.7957,1496.3624,352.1701,1495.7679,360.94,1500.25" style="stroke:#181818;stroke-width:1.0;"/><text fill="#000000" font-family="sans-serif" font-size="13" lengthAdjust="spacing" textLength="45" x="315.5" y="1439.0283">include:</text><text fill="#000000" font-family="sans-serif" font-size="13" lengthAdjust="spacing" textLength="7" x="292.0752" y="1416.7376">1</text><text fill="#000000" font-family="sans-serif" font-size="13" lengthAdjust="spacing" textLength="7" x="348.2098" y="1489.2883">1</text></g><!--reverse link Person to PersonRepository--><g id="link_Person_PersonRepository"><path codeLine="169" d="M57.46,315.56 C73.91,275.76 101.5,209 101.5,209 C101.5,209 119,178.5 119,178.5 C119,178.5 460,178.5 460,178.5 C460,178.5 522.05,274.32 551.87,320.36 " fill="none" id="Person-backto-PersonRepository" style="stroke:#181818;stroke-width:1.0;"/><polygon fill="#181818" points="55.51,320.28,62.6281,313.4732,57.4087,315.6545,55.2273,310.4352,55.51,320.28" style="stroke:#181818;stroke-width:1.0;"/><text fill="#000000" font-family="sans-serif" font-size="13" lengthAdjust="spacing" textLength="5" x="52.3406" y="309.3683">*</text></g><!--link Advertisement to Offer--><g id="link_Advertisement_Offer"><path codeLine="171" d="M139.95,1394.21 C127.12,1428.81 115.02,1461.47 105.77,1486.4 " fill="none" id="Advertisement-to-Offer" style="stroke:#181818;stroke-width:1.0;"/><polygon fill="#181818" points="103.96,1491.28,110.8277,1484.2206,105.6905,1486.589,103.3221,1481.4518,103.96,1491.28" style="stroke:#181818;stroke-width:1.0;"/><text fill="#000000" font-family="sans-serif" font-size="13" lengthAdjust="spacing" textLength="51" x="127.5" y="1439.0283">receives:</text><text fill="#000000" font-family="sans-serif" font-size="13" lengthAdjust="spacing" textLength="7" x="129.784" y="1416.7791">1</text><text fill="#000000" font-family="sans-serif" font-size="13" lengthAdjust="spacing" textLength="5" x="101.0255" y="1480.149">*</text></g><!--link Person to Offer--><g id="link_Person_Offer"><path codeLine="173" d="M45.5,368.94 C45.5,438.35 45.5,638 45.5,638 C45.5,638 45.5,638 45.5,1185 C45.5,1185 71.02,1391.54 82.74,1486.39 " fill="none" id="Person-to-Offer" style="stroke:#181818;stroke-width:1.0;"/><polygon fill="#181818" points="83.36,1491.37,86.2228,1481.9464,82.7451,1486.408,78.2836,1482.9302,83.36,1491.37" style="stroke:#181818;stroke-width:1.0;"/><text fill="#000000" font-family="sans-serif" font-size="13" lengthAdjust="spacing" textLength="43" x="46.5" y="819.0283">makes:</text><text fill="#000000" font-family="sans-serif" font-size="13" lengthAdjust="spacing" textLength="5" x="39.9219" y="390.6193">*</text><text fill="#000000" font-family="sans-serif" font-size="13" lengthAdjust="spacing" textLength="7" x="74.983" y="1480.2534">1</text></g><!--SRC=[lLTBRziu4BxpLn2-PBkjY-OgBmAuYO46I5AZIh371IsDBI8ogP9KMjUR_xv3cf98FTfUl3aauimtvCmt3p8N-fcBYYcsftifP5OekGTgL0saqrGiUsOxICsX1AeWCqpioX2W2vRBRrpiw9QLEjIKN80vL40hMHxiWboCAAKoaWHMMScqNXgZ-AOsS9j9aV8VG3yGSb72rb0ZgUAxmj2SMtUu58Gu6xeKh3nek07qu-cM7icSSc4QyJsOGkRaBTs1IOrKSCy41gPMUyRBFzuC5UvRtt5jd3RdkYhPOIdowqBAPZ-dOi71A7X5L_yvqyzOhDTI62NB4fIB-GjKKdDqdeF6Z7MB1IhNIbQWpA457MWr42tSBbzhq2R0gRx4mfRv2zfo3NiG8PYDonSdcc-5nZhAeA6zyUeH2w8b7EKVQurbedLVtfmQRpwMn2YxQr1QYWa3FLq3ZcL__dcJwxCRfR2VqyRFZaIQH82Oqs6u8Qj3xI3nloJzzVpbFWpc64VPPWSx7jIMPT3QE09pMMzmW345RD4jiQSTXLPq9pDcfmaj_OSJ8k2l56UHs5tHgf16xXIh2cobrxOJSMmPoucVDmaLzNu3wYFaIigzZgLhfd3IxNfGPee6UpeieUm52vUXawklDQ_i_jsHdsIjuUp7pUb6oXAOIEY6dHevb1Limusrk9DRvnlWxZIjnUexvgXMOClBST-SyO2ZldX7KrdRFokcpJlwDvOQ6f_Y2eofpszlFvTYTr0uCX1yjtoueM_fShtyydY_UdZ4xq-Vdz8LeVYJWyuKhznT4LP8ctBhfJOAm4RuWrVNCWSdOWQUKlpAk3dOii5oK3mpPotvPWJqsl0OjMTRxn7Qnd63FjCSVorQRTZmnyd9EeP6PeO4Zk1ILaBNPed6vHg9Wl-1gAaRw1XFBQVkHHhf_9nrFD9dWCf_XxUceyJgGe45H9nPG2W8TuYi5xyrcEmRPgp7nrfyiiD_sk0Z_OrJS6kNOKlgMdJxjUtYrzWreHBhhrlwxl6hjeccnsj7H5X9FckVjrjGfxgqvzJQVRwmidQWtYlmFJvEnVkhYGTJ30yUKerPUAycqMkAaEYMdbk3-TN8JJME2uZz5NJylXx73iP63rPNriVUEsXygud68cJa3TdOpFwSjGoqE3gxd7M8ordKJWb5kPx6DZFQuzhRreNoRyStSPVYG1hMxobuXulbtl7UNMCJt7y3Xt5wRODoiiZrC6y9vVhqhmtVSiYJpkhIMiMy85XaPPr3GgB1CbOGTl8cDBDDZ70oDGr3noDCpyJwWNnORxo7WJEaNpXqRlybQ_BkbEFxMO3hMzj36V0NxAPcEsSyznHuq9uz8-8_]--></g></svg>