<?xml version="1.0" encoding="us-ascii" standalone="no"?><svg xmlns="http://www.w3.org/2000/svg" xmlns:xlink="http://www.w3.org/1999/xlink" contentStyleType="text/css" height="452px" preserveAspectRatio="none" style="width:531px;height:452px;background:#FFFFFF;" version="1.1" viewBox="0 0 531 452" width="531px" zoomAndPan="magnify"><defs/><g><text fill="#000000" font-family="sans-serif" font-size="14" font-weight="bold" lengthAdjust="spacing" textLength="263" x="133.25" y="27.9951">System Sequence Diagram (SSD)</text><rect fill="#FFFFFF" height="225.208" style="stroke:#181818;stroke-width:1.0;" width="10" x="24" y="128.5938"/><rect fill="#FFFFFF" height="204.057" style="stroke:#181818;stroke-width:1.0;" width="10" x="485" y="149.7448"/><line style="stroke:#181818;stroke-width:0.5;stroke-dasharray:5.0,5.0;" x1="29" x2="29" y1="118.5938" y2="371.8018"/><line style="stroke:#181818;stroke-width:0.5;stroke-dasharray:5.0,5.0;" x1="489.5" x2="489.5" y1="118.5938" y2="371.8018"/><text fill="#000000" font-family="sans-serif" font-size="14" lengthAdjust="spacing" textLength="42" x="5" y="115.292">Agent</text><ellipse cx="29" cy="50.7969" fill="#E3E3E3" rx="8" ry="8" style="stroke:#181818;stroke-width:0.5;"/><path d="M29,58.7969 L29,85.7969 M16,66.7969 L42,66.7969 M29,85.7969 L16,100.7969 M29,85.7969 L42,100.7969 " fill="none" style="stroke:#181818;stroke-width:0.5;"/><text fill="#000000" font-family="sans-serif" font-size="14" lengthAdjust="spacing" textLength="42" x="5" y="383.7969">Agent</text><ellipse cx="29" cy="395.5986" fill="#E3E3E3" rx="8" ry="8" style="stroke:#181818;stroke-width:0.5;"/><path d="M29,403.5986 L29,430.5986 M16,411.5986 L42,411.5986 M29,430.5986 L16,445.5986 M29,430.5986 L42,445.5986 " fill="none" style="stroke:#181818;stroke-width:0.5;"/><rect fill="#E3E3E3" height="30.2969" rx="2.5" ry="2.5" style="stroke:#181818;stroke-width:0.5;" width="71" x="454.5" y="87.2969"/><text fill="#000000" font-family="sans-serif" font-size="14" lengthAdjust="spacing" textLength="57" x="461.5" y="107.292">:System</text><rect fill="#E3E3E3" height="30.2969" rx="2.5" ry="2.5" style="stroke:#181818;stroke-width:0.5;" width="71" x="454.5" y="370.8018"/><text fill="#000000" font-family="sans-serif" font-size="14" lengthAdjust="spacing" textLength="57" x="461.5" y="390.7969">:System</text><rect fill="#FFFFFF" height="225.208" style="stroke:#181818;stroke-width:1.0;" width="10" x="24" y="128.5938"/><rect fill="#FFFFFF" height="204.057" style="stroke:#181818;stroke-width:1.0;" width="10" x="485" y="149.7448"/><polygon fill="#181818" points="473,145.7448,483,149.7448,473,153.7448,477,149.7448" style="stroke:#181818;stroke-width:1.0;"/><line style="stroke:#181818;stroke-width:1.0;" x1="34" x2="479" y1="149.7448" y2="149.7448"/><text fill="#000000" font-family="sans-serif" font-size="13" font-weight="bold" lengthAdjust="spacing" textLength="9" x="41" y="144.6751">1</text><text fill="#000000" font-family="sans-serif" font-size="13" lengthAdjust="spacing" textLength="176" x="54" y="144.6751">asks to list purchase offers</text><polygon fill="#181818" points="45,174.8958,35,178.8958,45,182.8958,41,178.8958" style="stroke:#181818;stroke-width:1.0;"/><line style="stroke:#181818;stroke-width:1.0;stroke-dasharray:2.0,2.0;" x1="39" x2="484" y1="178.8958" y2="178.8958"/><text fill="#000000" font-family="sans-serif" font-size="13" font-weight="bold" lengthAdjust="spacing" textLength="9" x="51" y="173.8261">2</text><text fill="#000000" font-family="sans-serif" font-size="13" lengthAdjust="spacing" textLength="214" x="64" y="173.8261">shows advertisements to choose</text><polygon fill="#181818" points="473,204.0468,483,208.0468,473,212.0468,477,208.0468" style="stroke:#181818;stroke-width:1.0;"/><line style="stroke:#181818;stroke-width:1.0;" x1="34" x2="479" y1="208.0468" y2="208.0468"/><text fill="#000000" font-family="sans-serif" font-size="13" font-weight="bold" lengthAdjust="spacing" textLength="9" x="41" y="202.9771">3</text><text fill="#000000" font-family="sans-serif" font-size="13" lengthAdjust="spacing" textLength="74" x="54" y="202.9771">choose one</text><polygon fill="#181818" points="45,233.1978,35,237.1978,45,241.1978,41,237.1978" style="stroke:#181818;stroke-width:1.0;"/><line style="stroke:#181818;stroke-width:1.0;stroke-dasharray:2.0,2.0;" x1="39" x2="484" y1="237.1978" y2="237.1978"/><text fill="#000000" font-family="sans-serif" font-size="13" font-weight="bold" lengthAdjust="spacing" textLength="9" x="51" y="232.1282">4</text><text fill="#000000" font-family="sans-serif" font-size="13" lengthAdjust="spacing" textLength="414" x="64" y="232.1282">display purchase order sorted by the highest offer to the lowest</text><polygon fill="#181818" points="473,262.3488,483,266.3488,473,270.3488,477,266.3488" style="stroke:#181818;stroke-width:1.0;"/><line style="stroke:#181818;stroke-width:1.0;" x1="34" x2="479" y1="266.3488" y2="266.3488"/><text fill="#000000" font-family="sans-serif" font-size="13" font-weight="bold" lengthAdjust="spacing" textLength="9" x="41" y="261.2792">5</text><text fill="#000000" font-family="sans-serif" font-size="13" lengthAdjust="spacing" textLength="109" x="54" y="261.2792">selects one offer</text><polygon fill="#181818" points="45,291.4998,35,295.4998,45,299.4998,41,295.4998" style="stroke:#181818;stroke-width:1.0;"/><line style="stroke:#181818;stroke-width:1.0;" x1="39" x2="484" y1="295.4998" y2="295.4998"/><text fill="#000000" font-family="sans-serif" font-size="13" font-weight="bold" lengthAdjust="spacing" textLength="9" x="51" y="290.4302">6</text><text fill="#000000" font-family="sans-serif" font-size="13" lengthAdjust="spacing" textLength="257" x="64" y="290.4302">aks if he wants to accept it or decline it</text><polygon fill="#181818" points="473,320.6508,483,324.6508,473,328.6508,477,324.6508" style="stroke:#181818;stroke-width:1.0;"/><line style="stroke:#181818;stroke-width:1.0;" x1="34" x2="479" y1="324.6508" y2="324.6508"/><text fill="#000000" font-family="sans-serif" font-size="13" font-weight="bold" lengthAdjust="spacing" textLength="9" x="41" y="319.5812">7</text><text fill="#000000" font-family="sans-serif" font-size="13" lengthAdjust="spacing" textLength="94" x="54" y="319.5812">accept/decline</text><polygon fill="#181818" points="40,349.8018,30,353.8018,40,357.8018,36,353.8018" style="stroke:#181818;stroke-width:1.0;"/><line style="stroke:#181818;stroke-width:1.0;stroke-dasharray:2.0,2.0;" x1="34" x2="489" y1="353.8018" y2="353.8018"/><text fill="#000000" font-family="sans-serif" font-size="13" font-weight="bold" lengthAdjust="spacing" textLength="9" x="46" y="348.7322">8</text><text fill="#000000" font-family="sans-serif" font-size="13" lengthAdjust="spacing" textLength="157" x="59" y="348.7322">display listed properties</text><!--SRC=[TP4nRiCm34LtdOB8r0v1zw0e421BXqv63y38j2L4bbIHZk7RbxA3n05Q3uOjFlx_IV75num51nXIJDQLD1186SdmlPBHNh2dHkP0KCWAnZvi0NROfid77ZeCJCQ85qMRcOK6QEXdf6W9JXxxYhyqpUdL61mbnN4uKz5lAwd0xjXJb1qWm_7qPLHSlFKPey3kiAejnU_FfSDVKMWXZRvW_w45E2XmOP04mRD07ejro0IfwwYmCQ3FlRSAmUsf4k_x_Qh1BaqCs5v98p0D6clHj2wbEk2sQV4zt4gG8lsZsNhE0UTDfD9I0Kv5g8Np3E88dEyTQUubRdMiXo5DUlQ7QqrAGM-4g-_QzC2qhfJ2kXDTYUz0jIQyZOBMKXRmwbMW9HkyAlY7osQq5NsxGSy6guC6kSzNzwu3vP9otHxnmhVqjFNDRxt0Nm00]--></g></svg>