<?xml version="1.0" encoding="us-ascii" standalone="no"?><svg xmlns="http://www.w3.org/2000/svg" xmlns:xlink="http://www.w3.org/1999/xlink" contentStyleType="text/css" height="1376px" preserveAspectRatio="none" style="width:1011px;height:1376px;background:#FFFFFF;" version="1.1" viewBox="0 0 1011 1376" width="1011px" zoomAndPan="magnify"><defs/><g><text fill="#000000" font-family="sans-serif" font-size="14" font-weight="bold" lengthAdjust="spacing" textLength="568" x="223.75" y="27.6738">System Sequence Diagram Parcial Get AdvertismentDTOList Sorted By Date (SSD)</text><rect fill="#FFFFFF" height="1210.4375" style="stroke:#181818;stroke-width:1.0;" width="10" x="73" y="97.9219"/><rect fill="#FFFFFF" height="28.5234" style="stroke:#181818;stroke-width:1.0;" width="10" x="290" y="118.4453"/><rect fill="#FFFFFF" height="1062.8203" style="stroke:#181818;stroke-width:1.0;" width="10" x="433.5" y="245.5391"/><rect fill="#FFFFFF" height="70.0469" style="stroke:#181818;stroke-width:1.0;" width="10" x="840.5" y="175.4922"/><rect fill="none" height="881.2031" style="stroke:#000000;stroke-width:1.5;" width="552" x="313.5" y="302.0625"/><rect fill="none" height="767.6328" style="stroke:#000000;stroke-width:1.5;" width="532" x="323.5" y="408.6328"/><rect fill="none" height="727.5313" style="stroke:#000000;stroke-width:1.5;" width="512" x="333.5" y="441.7344"/><rect fill="none" height="113.8594" style="stroke:#000000;stroke-width:1.5;" width="459" x="343.5" y="593.9219"/><rect fill="none" height="113.8594" style="stroke:#000000;stroke-width:1.5;" width="459" x="343.5" y="835.6875"/><rect fill="none" height="113.8594" style="stroke:#000000;stroke-width:1.5;" width="459" x="343.5" y="1048.4063"/><line style="stroke:#181818;stroke-width:0.5;stroke-dasharray:5.0,5.0;" x1="78" x2="78" y1="87.9219" y2="1326.3594"/><line style="stroke:#181818;stroke-width:0.5;stroke-dasharray:5.0,5.0;" x1="294.5" x2="294.5" y1="87.9219" y2="1326.3594"/><line style="stroke:#181818;stroke-width:0.5;stroke-dasharray:5.0,5.0;" x1="438.5" x2="438.5" y1="87.9219" y2="1326.3594"/><line style="stroke:#181818;stroke-width:0.5;stroke-dasharray:5.0,5.0;" x1="845.5" x2="845.5" y1="87.9219" y2="1326.3594"/><rect fill="#E3E3E3" height="29.6406" rx="2.5" ry="2.5" style="stroke:#181818;stroke-width:0.5;" width="146" x="5" y="57.2813"/><text fill="#000000" font-family="sans-serif" font-size="14" lengthAdjust="spacing" textLength="132" x="12" y="76.9551">:MakeOfferController</text><rect fill="#E3E3E3" height="29.6406" rx="2.5" ry="2.5" style="stroke:#181818;stroke-width:0.5;" width="146" x="5" y="1325.3594"/><text fill="#000000" font-family="sans-serif" font-size="14" lengthAdjust="spacing" textLength="132" x="12" y="1345.0332">:MakeOfferController</text><rect fill="#E3E3E3" height="45.2813" rx="2.5" ry="2.5" style="stroke:#181818;stroke-width:0.5;" width="97" x="246.5" y="41.6406"/><text fill="#000000" font-family="sans-serif" font-size="14" lengthAdjust="spacing" textLength="74" x="258" y="61.3145">repositories</text><text fill="#000000" font-family="sans-serif" font-size="14" lengthAdjust="spacing" textLength="83" x="253.5" y="76.9551">:Repositories</text><rect fill="#E3E3E3" height="45.2813" rx="2.5" ry="2.5" style="stroke:#181818;stroke-width:0.5;" width="97" x="246.5" y="1325.3594"/><text fill="#000000" font-family="sans-serif" font-size="14" lengthAdjust="spacing" textLength="74" x="258" y="1345.0332">repositories</text><text fill="#000000" font-family="sans-serif" font-size="14" lengthAdjust="spacing" textLength="83" x="253.5" y="1360.6738">:Repositories</text><rect fill="#E3E3E3" height="45.2813" rx="2.5" ry="2.5" style="stroke:#181818;stroke-width:0.5;" width="170" x="353.5" y="41.6406"/><text fill="#000000" font-family="sans-serif" font-size="14" lengthAdjust="spacing" textLength="151" x="363" y="61.3145">advertisementCollection</text><text fill="#000000" font-family="sans-serif" font-size="14" lengthAdjust="spacing" textLength="156" x="360.5" y="76.9551">:AdvertisementCollection</text><rect fill="#E3E3E3" height="45.2813" rx="2.5" ry="2.5" style="stroke:#181818;stroke-width:0.5;" width="170" x="353.5" y="1325.3594"/><text fill="#000000" font-family="sans-serif" font-size="14" lengthAdjust="spacing" textLength="151" x="363" y="1345.0332">advertisementCollection</text><text fill="#000000" font-family="sans-serif" font-size="14" lengthAdjust="spacing" textLength="156" x="360.5" y="1360.6738">:AdvertisementCollection</text><rect fill="#E3E3E3" height="45.2813" rx="2.5" ry="2.5" style="stroke:#181818;stroke-width:0.5;" width="176" x="757.5" y="41.6406"/><text fill="#000000" font-family="sans-serif" font-size="14" lengthAdjust="spacing" textLength="157" x="767" y="61.3145">advertisementRepository</text><text fill="#000000" font-family="sans-serif" font-size="14" lengthAdjust="spacing" textLength="162" x="764.5" y="76.9551">:AdvertisementRepository</text><rect fill="#E3E3E3" height="45.2813" rx="2.5" ry="2.5" style="stroke:#181818;stroke-width:0.5;" width="176" x="757.5" y="1325.3594"/><text fill="#000000" font-family="sans-serif" font-size="14" lengthAdjust="spacing" textLength="157" x="767" y="1345.0332">advertisementRepository</text><text fill="#000000" font-family="sans-serif" font-size="14" lengthAdjust="spacing" textLength="162" x="764.5" y="1360.6738">:AdvertisementRepository</text><rect fill="#FFFFFF" height="1210.4375" style="stroke:#181818;stroke-width:1.0;" width="10" x="73" y="97.9219"/><rect fill="#FFFFFF" height="28.5234" style="stroke:#181818;stroke-width:1.0;" width="10" x="290" y="118.4453"/><rect fill="#FFFFFF" height="1062.8203" style="stroke:#181818;stroke-width:1.0;" width="10" x="433.5" y="245.5391"/><rect fill="#FFFFFF" height="70.0469" style="stroke:#181818;stroke-width:1.0;" width="10" x="840.5" y="175.4922"/><polygon fill="#181818" points="278,114.4453,288,118.4453,278,122.4453,282,118.4453" style="stroke:#181818;stroke-width:1.0;"/><line style="stroke:#181818;stroke-width:1.0;" x1="83" x2="284" y1="118.4453" y2="118.4453"/><text fill="#000000" font-family="sans-serif" font-size="13" font-weight="bold" lengthAdjust="spacing" textLength="14" x="90" y="113.6904">24</text><text fill="#000000" font-family="sans-serif" font-size="13" lengthAdjust="spacing" textLength="170" x="108" y="113.6904">getAdvertisementRepository()</text><polygon fill="#181818" points="94,142.9688,84,146.9688,94,150.9688,90,146.9688" style="stroke:#181818;stroke-width:1.0;"/><line style="stroke:#181818;stroke-width:1.0;" x1="88" x2="294" y1="146.9688" y2="146.9688"/><text fill="#000000" font-family="sans-serif" font-size="13" font-weight="bold" lengthAdjust="spacing" textLength="14" x="100" y="142.2139">25</text><text fill="#000000" font-family="sans-serif" font-size="13" lengthAdjust="spacing" textLength="142" x="118" y="142.2139">advertisementRepository</text><polygon fill="#181818" points="828.5,171.4922,838.5,175.4922,828.5,179.4922,832.5,175.4922" style="stroke:#181818;stroke-width:1.0;"/><line style="stroke:#181818;stroke-width:1.0;" x1="83" x2="834.5" y1="175.4922" y2="175.4922"/><text fill="#000000" font-family="sans-serif" font-size="13" font-weight="bold" lengthAdjust="spacing" textLength="14" x="90" y="170.7373">26</text><text fill="#000000" font-family="sans-serif" font-size="13" lengthAdjust="spacing" textLength="489" x="108" y="170.7373">getAdvertismentDTOListSorted(keepPropertyTypeChoice, keepBusinessTypeChoice)</text><line style="stroke:#181818;stroke-width:1.0;" x1="850.5" x2="892.5" y1="204.0156" y2="204.0156"/><line style="stroke:#181818;stroke-width:1.0;" x1="892.5" x2="892.5" y1="204.0156" y2="217.0156"/><line style="stroke:#181818;stroke-width:1.0;" x1="851.5" x2="892.5" y1="217.0156" y2="217.0156"/><polygon fill="#181818" points="861.5,213.0156,851.5,217.0156,861.5,221.0156,857.5,217.0156" style="stroke:#181818;stroke-width:1.0;"/><text fill="#000000" font-family="sans-serif" font-size="13" font-weight="bold" lengthAdjust="spacing" textLength="14" x="857.5" y="199.2607">27</text><text fill="#000000" font-family="sans-serif" font-size="13" lengthAdjust="spacing" textLength="129" x="875.5" y="199.2607">getAdvertisementList()</text><polygon fill="#181818" points="454.5,241.5391,444.5,245.5391,454.5,249.5391,450.5,245.5391" style="stroke:#181818;stroke-width:1.0;"/><line style="stroke:#181818;stroke-width:1.0;" x1="448.5" x2="844.5" y1="245.5391" y2="245.5391"/><text fill="#000000" font-family="sans-serif" font-size="13" font-weight="bold" lengthAdjust="spacing" textLength="14" x="460.5" y="240.7842">28</text><text fill="#000000" font-family="sans-serif" font-size="13" lengthAdjust="spacing" textLength="274" x="478.5" y="240.7842">createAdvertisementDTOList(advertisementList)</text><line style="stroke:#181818;stroke-width:1.0;" x1="443.5" x2="485.5" y1="274.0625" y2="274.0625"/><line style="stroke:#181818;stroke-width:1.0;" x1="485.5" x2="485.5" y1="274.0625" y2="287.0625"/><line style="stroke:#181818;stroke-width:1.0;" x1="444.5" x2="485.5" y1="287.0625" y2="287.0625"/><polygon fill="#181818" points="454.5,283.0625,444.5,287.0625,454.5,291.0625,450.5,287.0625" style="stroke:#181818;stroke-width:1.0;"/><text fill="#000000" font-family="sans-serif" font-size="13" font-weight="bold" lengthAdjust="spacing" textLength="14" x="450.5" y="269.3076">29</text><text fill="#000000" font-family="sans-serif" font-size="13" lengthAdjust="spacing" textLength="173" x="468.5" y="269.3076">createAdvertisementDTOList()</text><path d="M313.5,302.0625 L386.5,302.0625 L386.5,308.5859 L376.5,318.5859 L313.5,318.5859 L313.5,302.0625 " fill="#EEEEEE" style="stroke:#000000;stroke-width:1.5;"/><rect fill="none" height="881.2031" style="stroke:#000000;stroke-width:1.5;" width="552" x="313.5" y="302.0625"/><text fill="#000000" font-family="sans-serif" font-size="13" font-weight="bold" lengthAdjust="spacing" textLength="28" x="328.5" y="314.8311">loop</text><text fill="#000000" font-family="sans-serif" font-size="11" font-weight="bold" lengthAdjust="spacing" textLength="216" x="401.5" y="314.0205">[(for each object in advertisementList)]</text><line style="stroke:#181818;stroke-width:1.0;" x1="443.5" x2="485.5" y1="339.1094" y2="339.1094"/><line style="stroke:#181818;stroke-width:1.0;" x1="485.5" x2="485.5" y1="339.1094" y2="352.1094"/><line style="stroke:#181818;stroke-width:1.0;" x1="444.5" x2="485.5" y1="352.1094" y2="352.1094"/><polygon fill="#181818" points="454.5,348.1094,444.5,352.1094,454.5,356.1094,450.5,352.1094" style="stroke:#181818;stroke-width:1.0;"/><text fill="#000000" font-family="sans-serif" font-size="13" font-weight="bold" lengthAdjust="spacing" textLength="14" x="450.5" y="334.3545">30</text><text fill="#000000" font-family="sans-serif" font-size="13" lengthAdjust="spacing" textLength="127" x="468.5" y="334.3545">Advertisement = get(i)</text><line style="stroke:#181818;stroke-width:1.0;" x1="443.5" x2="485.5" y1="380.6328" y2="380.6328"/><line style="stroke:#181818;stroke-width:1.0;" x1="485.5" x2="485.5" y1="380.6328" y2="393.6328"/><line style="stroke:#181818;stroke-width:1.0;" x1="444.5" x2="485.5" y1="393.6328" y2="393.6328"/><polygon fill="#181818" points="454.5,389.6328,444.5,393.6328,454.5,397.6328,450.5,393.6328" style="stroke:#181818;stroke-width:1.0;"/><text fill="#000000" font-family="sans-serif" font-size="13" font-weight="bold" lengthAdjust="spacing" textLength="14" x="450.5" y="375.8779">31</text><text fill="#000000" font-family="sans-serif" font-size="13" lengthAdjust="spacing" textLength="324" x="468.5" y="375.8779">getDataFromAdvertisement(propertyType,businessType)</text><path d="M323.5,408.6328 L384.5,408.6328 L384.5,415.1563 L374.5,425.1563 L323.5,425.1563 L323.5,408.6328 " fill="#EEEEEE" style="stroke:#000000;stroke-width:1.5;"/><rect fill="none" height="767.6328" style="stroke:#000000;stroke-width:1.5;" width="532" x="323.5" y="408.6328"/><text fill="#000000" font-family="sans-serif" font-size="13" font-weight="bold" lengthAdjust="spacing" textLength="16" x="338.5" y="421.4014">alt</text><text fill="#000000" font-family="sans-serif" font-size="11" font-weight="bold" lengthAdjust="spacing" textLength="236" x="399.5" y="420.5908">[(propertyType = keepPropertyTypeChoice</text><text fill="#000000" font-family="sans-serif" font-size="11" font-weight="bold" lengthAdjust="spacing" textLength="255" x="399.5" y="432.8799">&amp;&amp; propertyType = keepPropertyTypeChoice)]</text><path d="M333.5,441.7344 L394.5,441.7344 L394.5,448.2578 L384.5,458.2578 L333.5,458.2578 L333.5,441.7344 " fill="#EEEEEE" style="stroke:#000000;stroke-width:1.5;"/><rect fill="none" height="727.5313" style="stroke:#000000;stroke-width:1.5;" width="512" x="333.5" y="441.7344"/><text fill="#000000" font-family="sans-serif" font-size="13" font-weight="bold" lengthAdjust="spacing" textLength="16" x="348.5" y="454.5029">alt</text><text fill="#000000" font-family="sans-serif" font-size="11" font-weight="bold" lengthAdjust="spacing" textLength="127" x="409.5" y="453.6924">[propertyType= HOUSE]</text><line style="stroke:#181818;stroke-width:1.0;" x1="443.5" x2="485.5" y1="565.9219" y2="565.9219"/><line style="stroke:#181818;stroke-width:1.0;" x1="485.5" x2="485.5" y1="565.9219" y2="578.9219"/><line style="stroke:#181818;stroke-width:1.0;" x1="444.5" x2="485.5" y1="578.9219" y2="578.9219"/><polygon fill="#181818" points="454.5,574.9219,444.5,578.9219,454.5,582.9219,450.5,578.9219" style="stroke:#181818;stroke-width:1.0;"/><text fill="#000000" font-family="sans-serif" font-size="13" font-weight="bold" lengthAdjust="spacing" textLength="14" x="450.5" y="517.5967">32</text><text fill="#000000" font-family="sans-serif" font-size="13" lengthAdjust="spacing" textLength="240" x="468.5" y="474.0264">getDataFromAdvertisement(propertyType,</text><text fill="#000000" font-family="sans-serif" font-size="13" lengthAdjust="spacing" textLength="148" x="468.5" y="488.5498">area cms. Distance Kms,</text><text fill="#000000" font-family="sans-serif" font-size="13" lengthAdjust="spacing" textLength="274" x="472.5" y="503.0732">location(street, zipcode, stateUS, city, district),</text><text fill="#000000" font-family="sans-serif" font-size="13" lengthAdjust="spacing" textLength="201" x="468.5" y="517.5967">numberBedrooms, numberParking,</text><text fill="#000000" font-family="sans-serif" font-size="13" lengthAdjust="spacing" textLength="114" x="468.5" y="532.1201">,numberBathrooms,</text><text fill="#000000" font-family="sans-serif" font-size="13" lengthAdjust="spacing" textLength="242" x="468.5" y="546.6436">availableEquipment, basement (YES/NO),</text><text fill="#000000" font-family="sans-serif" font-size="13" lengthAdjust="spacing" textLength="350" x="472.5" y="561.167">habitable loft (YES/NO), Sun Exposure Type choice, photos)</text><path d="M343.5,593.9219 L404.5,593.9219 L404.5,600.4453 L394.5,610.4453 L343.5,610.4453 L343.5,593.9219 " fill="#EEEEEE" style="stroke:#000000;stroke-width:1.5;"/><rect fill="none" height="113.8594" style="stroke:#000000;stroke-width:1.5;" width="459" x="343.5" y="593.9219"/><text fill="#000000" font-family="sans-serif" font-size="13" font-weight="bold" lengthAdjust="spacing" textLength="16" x="358.5" y="606.6904">alt</text><text fill="#000000" font-family="sans-serif" font-size="11" font-weight="bold" lengthAdjust="spacing" textLength="124" x="419.5" y="605.8799">[businessType= SALE]</text><line style="stroke:#181818;stroke-width:1.0;" x1="443.5" x2="485.5" y1="630.9688" y2="630.9688"/><line style="stroke:#181818;stroke-width:1.0;" x1="485.5" x2="485.5" y1="630.9688" y2="643.9688"/><line style="stroke:#181818;stroke-width:1.0;" x1="444.5" x2="485.5" y1="643.9688" y2="643.9688"/><polygon fill="#181818" points="454.5,639.9688,444.5,643.9688,454.5,647.9688,450.5,643.9688" style="stroke:#181818;stroke-width:1.0;"/><text fill="#000000" font-family="sans-serif" font-size="13" font-weight="bold" lengthAdjust="spacing" textLength="14" x="450.5" y="626.2139">33</text><text fill="#000000" font-family="sans-serif" font-size="13" lengthAdjust="spacing" textLength="219" x="468.5" y="626.2139">getDataFromAdvertisement(salePrice)</text><line style="stroke:#000000;stroke-width:1.0;stroke-dasharray:2.0,2.0;" x1="343.5" x2="802.5" y1="652.9688" y2="652.9688"/><text fill="#000000" font-family="sans-serif" font-size="11" font-weight="bold" lengthAdjust="spacing" textLength="130" x="348.5" y="662.9268">[businessType= LEASE]</text><line style="stroke:#181818;stroke-width:1.0;" x1="443.5" x2="485.5" y1="686.7813" y2="686.7813"/><line style="stroke:#181818;stroke-width:1.0;" x1="485.5" x2="485.5" y1="686.7813" y2="699.7813"/><line style="stroke:#181818;stroke-width:1.0;" x1="444.5" x2="485.5" y1="699.7813" y2="699.7813"/><polygon fill="#181818" points="454.5,695.7813,444.5,699.7813,454.5,703.7813,450.5,699.7813" style="stroke:#181818;stroke-width:1.0;"/><text fill="#000000" font-family="sans-serif" font-size="13" font-weight="bold" lengthAdjust="spacing" textLength="14" x="450.5" y="682.0264">34</text><text fill="#000000" font-family="sans-serif" font-size="13" lengthAdjust="spacing" textLength="322" x="468.5" y="682.0264">getDataFromAdvertisement(rentPrice, ContractDuration)</text><line style="stroke:#000000;stroke-width:1.0;stroke-dasharray:2.0,2.0;" x1="333.5" x2="845.5" y1="715.7813" y2="715.7813"/><text fill="#000000" font-family="sans-serif" font-size="11" font-weight="bold" lengthAdjust="spacing" textLength="159" x="338.5" y="725.7393">[propertyType= APARTMENT]</text><line style="stroke:#181818;stroke-width:1.0;" x1="443.5" x2="485.5" y1="807.6875" y2="807.6875"/><line style="stroke:#181818;stroke-width:1.0;" x1="485.5" x2="485.5" y1="807.6875" y2="820.6875"/><line style="stroke:#181818;stroke-width:1.0;" x1="444.5" x2="485.5" y1="820.6875" y2="820.6875"/><polygon fill="#181818" points="454.5,816.6875,444.5,820.6875,454.5,824.6875,450.5,820.6875" style="stroke:#181818;stroke-width:1.0;"/><text fill="#000000" font-family="sans-serif" font-size="13" font-weight="bold" lengthAdjust="spacing" textLength="14" x="450.5" y="773.8857">35</text><text fill="#000000" font-family="sans-serif" font-size="13" lengthAdjust="spacing" textLength="240" x="468.5" y="744.8389">getDataFromAdvertisement(propertyType,</text><text fill="#000000" font-family="sans-serif" font-size="13" lengthAdjust="spacing" textLength="148" x="468.5" y="759.3623">area cms. Distance Kms,</text><text fill="#000000" font-family="sans-serif" font-size="13" lengthAdjust="spacing" textLength="274" x="472.5" y="773.8857">location(street, zipcode, stateUS, city, district),</text><text fill="#000000" font-family="sans-serif" font-size="13" lengthAdjust="spacing" textLength="351" x="468.5" y="788.4092">numberBedrooms, numberParking, photo,numberBathrooms,</text><text fill="#000000" font-family="sans-serif" font-size="13" lengthAdjust="spacing" textLength="162" x="468.5" y="802.9326">availableEquipment, photos)</text><path d="M343.5,835.6875 L404.5,835.6875 L404.5,842.2109 L394.5,852.2109 L343.5,852.2109 L343.5,835.6875 " fill="#EEEEEE" style="stroke:#000000;stroke-width:1.5;"/><rect fill="none" height="113.8594" style="stroke:#000000;stroke-width:1.5;" width="459" x="343.5" y="835.6875"/><text fill="#000000" font-family="sans-serif" font-size="13" font-weight="bold" lengthAdjust="spacing" textLength="16" x="358.5" y="848.4561">alt</text><text fill="#000000" font-family="sans-serif" font-size="11" font-weight="bold" lengthAdjust="spacing" textLength="124" x="419.5" y="847.6455">[businessType= SALE]</text><line style="stroke:#181818;stroke-width:1.0;" x1="443.5" x2="485.5" y1="872.7344" y2="872.7344"/><line style="stroke:#181818;stroke-width:1.0;" x1="485.5" x2="485.5" y1="872.7344" y2="885.7344"/><line style="stroke:#181818;stroke-width:1.0;" x1="444.5" x2="485.5" y1="885.7344" y2="885.7344"/><polygon fill="#181818" points="454.5,881.7344,444.5,885.7344,454.5,889.7344,450.5,885.7344" style="stroke:#181818;stroke-width:1.0;"/><text fill="#000000" font-family="sans-serif" font-size="13" font-weight="bold" lengthAdjust="spacing" textLength="14" x="450.5" y="867.9795">36</text><text fill="#000000" font-family="sans-serif" font-size="13" lengthAdjust="spacing" textLength="219" x="468.5" y="867.9795">getDataFromAdvertisement(salePrice)</text><line style="stroke:#000000;stroke-width:1.0;stroke-dasharray:2.0,2.0;" x1="343.5" x2="802.5" y1="894.7344" y2="894.7344"/><text fill="#000000" font-family="sans-serif" font-size="11" font-weight="bold" lengthAdjust="spacing" textLength="130" x="348.5" y="904.6924">[businessType= LEASE]</text><line style="stroke:#181818;stroke-width:1.0;" x1="443.5" x2="485.5" y1="928.5469" y2="928.5469"/><line style="stroke:#181818;stroke-width:1.0;" x1="485.5" x2="485.5" y1="928.5469" y2="941.5469"/><line style="stroke:#181818;stroke-width:1.0;" x1="444.5" x2="485.5" y1="941.5469" y2="941.5469"/><polygon fill="#181818" points="454.5,937.5469,444.5,941.5469,454.5,945.5469,450.5,941.5469" style="stroke:#181818;stroke-width:1.0;"/><text fill="#000000" font-family="sans-serif" font-size="13" font-weight="bold" lengthAdjust="spacing" textLength="14" x="450.5" y="923.792">37</text><text fill="#000000" font-family="sans-serif" font-size="13" lengthAdjust="spacing" textLength="322" x="468.5" y="923.792">getDataFromAdvertisement(rentPrice, ContractDuration)</text><line style="stroke:#000000;stroke-width:1.0;stroke-dasharray:2.0,2.0;" x1="333.5" x2="845.5" y1="957.5469" y2="957.5469"/><text fill="#000000" font-family="sans-serif" font-size="11" font-weight="bold" lengthAdjust="spacing" textLength="124" x="338.5" y="967.5049">[propertyType = LAND]</text><line style="stroke:#181818;stroke-width:1.0;" x1="443.5" x2="485.5" y1="1020.4063" y2="1020.4063"/><line style="stroke:#181818;stroke-width:1.0;" x1="485.5" x2="485.5" y1="1020.4063" y2="1033.4063"/><line style="stroke:#181818;stroke-width:1.0;" x1="444.5" x2="485.5" y1="1033.4063" y2="1033.4063"/><polygon fill="#181818" points="454.5,1029.4063,444.5,1033.4063,454.5,1037.4063,450.5,1033.4063" style="stroke:#181818;stroke-width:1.0;"/><text fill="#000000" font-family="sans-serif" font-size="13" font-weight="bold" lengthAdjust="spacing" textLength="14" x="450.5" y="1001.1279">38</text><text fill="#000000" font-family="sans-serif" font-size="13" lengthAdjust="spacing" textLength="240" x="468.5" y="986.6045">getDataFromAdvertisement(propertyType,</text><text fill="#000000" font-family="sans-serif" font-size="13" lengthAdjust="spacing" textLength="148" x="468.5" y="1001.1279">area cms. Distance Kms,</text><text fill="#000000" font-family="sans-serif" font-size="13" lengthAdjust="spacing" textLength="361" x="472.5" y="1015.6514">location(street, zipcode, stateUS, city, district), photo, photos)</text><path d="M343.5,1048.4063 L404.5,1048.4063 L404.5,1054.9297 L394.5,1064.9297 L343.5,1064.9297 L343.5,1048.4063 " fill="#EEEEEE" style="stroke:#000000;stroke-width:1.5;"/><rect fill="none" height="113.8594" style="stroke:#000000;stroke-width:1.5;" width="459" x="343.5" y="1048.4063"/><text fill="#000000" font-family="sans-serif" font-size="13" font-weight="bold" lengthAdjust="spacing" textLength="16" x="358.5" y="1061.1748">alt</text><text fill="#000000" font-family="sans-serif" font-size="11" font-weight="bold" lengthAdjust="spacing" textLength="124" x="419.5" y="1060.3643">[businessType= SALE]</text><line style="stroke:#181818;stroke-width:1.0;" x1="443.5" x2="485.5" y1="1085.4531" y2="1085.4531"/><line style="stroke:#181818;stroke-width:1.0;" x1="485.5" x2="485.5" y1="1085.4531" y2="1098.4531"/><line style="stroke:#181818;stroke-width:1.0;" x1="444.5" x2="485.5" y1="1098.4531" y2="1098.4531"/><polygon fill="#181818" points="454.5,1094.4531,444.5,1098.4531,454.5,1102.4531,450.5,1098.4531" style="stroke:#181818;stroke-width:1.0;"/><text fill="#000000" font-family="sans-serif" font-size="13" font-weight="bold" lengthAdjust="spacing" textLength="14" x="450.5" y="1080.6982">39</text><text fill="#000000" font-family="sans-serif" font-size="13" lengthAdjust="spacing" textLength="219" x="468.5" y="1080.6982">getDataFromAdvertisement(salePrice)</text><line style="stroke:#000000;stroke-width:1.0;stroke-dasharray:2.0,2.0;" x1="343.5" x2="802.5" y1="1107.4531" y2="1107.4531"/><text fill="#000000" font-family="sans-serif" font-size="11" font-weight="bold" lengthAdjust="spacing" textLength="130" x="348.5" y="1117.4111">[businessType= LEASE]</text><line style="stroke:#181818;stroke-width:1.0;" x1="443.5" x2="485.5" y1="1141.2656" y2="1141.2656"/><line style="stroke:#181818;stroke-width:1.0;" x1="485.5" x2="485.5" y1="1141.2656" y2="1154.2656"/><line style="stroke:#181818;stroke-width:1.0;" x1="444.5" x2="485.5" y1="1154.2656" y2="1154.2656"/><polygon fill="#181818" points="454.5,1150.2656,444.5,1154.2656,454.5,1158.2656,450.5,1154.2656" style="stroke:#181818;stroke-width:1.0;"/><text fill="#000000" font-family="sans-serif" font-size="13" font-weight="bold" lengthAdjust="spacing" textLength="14" x="450.5" y="1136.5107">40</text><text fill="#000000" font-family="sans-serif" font-size="13" lengthAdjust="spacing" textLength="322" x="468.5" y="1136.5107">getDataFromAdvertisement(rentPrice, ContractDuration)</text><line style="stroke:#181818;stroke-width:1.0;" x1="443.5" x2="485.5" y1="1225.3125" y2="1225.3125"/><line style="stroke:#181818;stroke-width:1.0;" x1="485.5" x2="485.5" y1="1225.3125" y2="1238.3125"/><line style="stroke:#181818;stroke-width:1.0;" x1="444.5" x2="485.5" y1="1238.3125" y2="1238.3125"/><polygon fill="#181818" points="454.5,1234.3125,444.5,1238.3125,454.5,1242.3125,450.5,1238.3125" style="stroke:#181818;stroke-width:1.0;"/><text fill="#000000" font-family="sans-serif" font-size="13" font-weight="bold" lengthAdjust="spacing" textLength="14" x="450.5" y="1213.2959">41</text><text fill="#000000" font-family="sans-serif" font-size="13" lengthAdjust="spacing" textLength="256" x="468.5" y="1206.0342">Advertisement to AdvertisementDTO (Data)),</text><text fill="#000000" font-family="sans-serif" font-size="13" lengthAdjust="spacing" textLength="169" x="472.5" y="1220.5576">add to AdvertisementDTOList</text><line style="stroke:#181818;stroke-width:1.0;" x1="443.5" x2="485.5" y1="1266.8359" y2="1266.8359"/><line style="stroke:#181818;stroke-width:1.0;" x1="485.5" x2="485.5" y1="1266.8359" y2="1279.8359"/><line style="stroke:#181818;stroke-width:1.0;" x1="444.5" x2="485.5" y1="1279.8359" y2="1279.8359"/><polygon fill="#181818" points="454.5,1275.8359,444.5,1279.8359,454.5,1283.8359,450.5,1279.8359" style="stroke:#181818;stroke-width:1.0;"/><text fill="#000000" font-family="sans-serif" font-size="13" font-weight="bold" lengthAdjust="spacing" textLength="14" x="450.5" y="1262.0811">42</text><text fill="#000000" font-family="sans-serif" font-size="13" lengthAdjust="spacing" textLength="204" x="468.5" y="1262.0811">sort AdvertisementDTOList by Date</text><polygon fill="#181818" points="89,1304.3594,79,1308.3594,89,1312.3594,85,1308.3594" style="stroke:#181818;stroke-width:1.0;"/><line style="stroke:#181818;stroke-width:1.0;" x1="83" x2="437.5" y1="1308.3594" y2="1308.3594"/><text fill="#000000" font-family="sans-serif" font-size="13" font-weight="bold" lengthAdjust="spacing" textLength="14" x="95" y="1303.6045">43</text><text fill="#000000" font-family="sans-serif" font-size="13" lengthAdjust="spacing" textLength="210" x="113" y="1303.6045">AdvertisementDTOListSortedByDate</text><!--SRC=[xLVVRvim47xdhpZjeICIswHfJv4wAR-sIKkRggGFa_fYu1AyW4rjqvNzzJi3Qu12bLNff4r5QXNik- - -Et_OPxtZ8cEAfP1A8SDOoHJ1g1mTVJ-JiN37jkYR8a5G61ecjadJGCSiaZ-usCA69HeTnt13fdwX3QRWuqsE8aIOSxQrvXTCXPmby1aDJA9RL8Rh58MPhrTBhWtuKXcCO5h0d1a4r_Vd8yTv7VC8OIEb2UITur1amqEUCM7WrVYCxN2rsQ2QIM6KJ19Khu1fcAqlbnrRXPdKt4Z5KL-ByMNZjNHfphSzMSqLBTcP3H8QBWM1JFfdIhm1hqUWxoaLNUZzp4Fe_PpZiDn8aQS1AdZ_mN6WVXX5lhKbhSe2ZSUEm9kFhUnX35iq0mJSKSl_7hfLlfP92vf2sP3ZmHoQdX4EmFUcC83OpgQXjqfkxWunkr0oe-bYNMGuYoKFqGCxFiqr5wZrVdmW-y4LWSupHF9G_kMaPK_hy6JmlHe9F5H86RJmwmAvh1jqz21aOuaEMT7XeZM-aCVpQf1_QbvKEYUHCWDt8nLG1Z78u3jv0XVGa_GH28sXnGHExQAwV7GKQ8AY7PDzeasy5SND6hhsWeQOwvnOOg1bHBpwlmUu5YSdS93fFYSBttGvXI-hAt_X_CMaYJSZ8K2OwhTq46awmoYPhwdshWKaCcGMpDL68HeFVl8ib15vaPt1Az-3a9l2WuWS5G_DoE9L6-mK8oKbuK3rJeSRdOjRQ-3L5ip4jGcHk6KyOK62YvkSPvQd1m6hnU1-M_ZlpbSZoobc0JVMaDXj6bFWvm8MT_HLvGgXN82mtgcoM1gfEpArjM-k-2dua-Lpbrwp12zKgO5M8AJkeCDckPWykn8K_IlfU53s1xJpp7DLBdcNe8Zs0oNRjcud5vFBzTdYVFr_QxTKqg7oVP7TCykETjZbv7p-JqkkKjIBLewjbTylzeVzEqhBr6vHZ8HkzmIkpM9K7bGiYlfCRCTqf0vEKuFUYmz1TKNyepZbDM7SYrVT1AP5YNbeXzlNi3PigwlMBm00]--></g></svg>