<?xml version="1.0" encoding="us-ascii" standalone="no"?><svg xmlns="http://www.w3.org/2000/svg" xmlns:xlink="http://www.w3.org/1999/xlink" contentStyleType="text/css" height="2528px" preserveAspectRatio="none" style="width:1450px;height:2528px;background:#FFFFFF;" version="1.1" viewBox="0 0 1450 2528" width="1450px" zoomAndPan="magnify"><defs/><g><!--class MakeOfferUI--><g id="elem_MakeOfferUI"><rect codeLine="11" fill="#F1F1F1" height="220.0469" id="MakeOfferUI" rx="2.5" ry="2.5" style="stroke:#181818;stroke-width:0.5;" width="644" x="417" y="7"/><ellipse cx="695.75" cy="23" fill="#ADD1B2" rx="11" ry="11" style="stroke:#181818;stroke-width:1.0;"/><path d="M698.5156,18.875 Q698.6719,18.6563 698.8594,18.5469 Q699.0469,18.4375 699.2656,18.4375 Q699.6406,18.4375 699.875,18.7031 Q700.1094,18.9531 700.1094,19.5625 L700.1094,21.0156 Q700.1094,21.625 699.875,21.8906 Q699.6406,22.1563 699.2656,22.1563 Q698.9219,22.1563 698.7188,21.9531 Q698.5156,21.7656 698.4063,21.25 Q698.3594,20.8906 698.1719,20.7031 Q697.8438,20.3281 697.2344,20.1094 Q696.625,19.8906 696,19.8906 Q695.2344,19.8906 694.5938,20.2188 Q693.9688,20.5469 693.4688,21.2969 Q692.9844,22.0469 692.9844,23.0781 L692.9844,24.1719 Q692.9844,25.4063 693.875,26.2344 Q694.7656,27.0469 696.3594,27.0469 Q697.2969,27.0469 697.9531,26.7969 Q698.3438,26.6406 698.7656,26.2031 Q699.0313,25.9375 699.1719,25.8594 Q699.3281,25.7813 699.5313,25.7813 Q699.8594,25.7813 700.1094,26.0469 Q700.375,26.2969 700.375,26.6406 Q700.375,26.9844 700.0313,27.3906 Q699.5313,27.9688 698.7344,28.2969 Q697.6563,28.75 696.3594,28.75 Q694.8438,28.75 693.6406,28.125 Q692.6563,27.625 691.9688,26.5625 Q691.2813,25.4844 691.2813,24.2031 L691.2813,23.0469 Q691.2813,21.7188 691.8906,20.5781 Q692.5156,19.4219 693.6094,18.8125 Q694.7031,18.1875 695.9375,18.1875 Q696.6719,18.1875 697.3125,18.3594 Q697.9688,18.5156 698.5156,18.875 Z " fill="#000000"/><text fill="#000000" font-family="sans-serif" font-size="14" lengthAdjust="spacing" textLength="78" x="716.25" y="27.8535">MakeOfferUI</text><line style="stroke:#181818;stroke-width:0.5;" x1="418" x2="1060" y1="39" y2="39"/><text fill="#000000" font-family="sans-serif" font-size="14" lengthAdjust="spacing" textLength="260" x="423" y="55.6738">-PropertyType keepPropertyTypeChoice;</text><text fill="#000000" font-family="sans-serif" font-size="14" lengthAdjust="spacing" textLength="266" x="423" y="71.3145">-BusinessType keepBusinessTypeChoice;</text><text fill="#000000" font-family="sans-serif" font-size="14" lengthAdjust="spacing" textLength="159" x="423" y="86.9551">-double  keepClientOffer;</text><line style="stroke:#181818;stroke-width:0.5;" x1="418" x2="1060" y1="93.9219" y2="93.9219"/><text fill="#000000" font-family="sans-serif" font-size="14" lengthAdjust="spacing" textLength="190" x="423" y="110.5957">+create MakeOfferController()</text><text fill="#000000" font-family="sans-serif" font-size="14" lengthAdjust="spacing" textLength="195" x="423" y="126.2363">+listAndChoosePropertyType()</text><text fill="#000000" font-family="sans-serif" font-size="14" lengthAdjust="spacing" textLength="198" x="423" y="141.877">+listAndChooseBusinessType()</text><text fill="#000000" font-family="sans-serif" font-size="14" lengthAdjust="spacing" textLength="632" x="423" y="157.5176">+listAndDisplayandChooseAdvertisementDTO(keepPropertyTypeChoice, keepBusinessTypeChoice)</text><text fill="#000000" font-family="sans-serif" font-size="14" lengthAdjust="spacing" textLength="525" x="423" y="173.1582">+registerNewOffer(AdvertisementDTO adChoiceDTO,Advertisement adchoiceOffer)</text><text fill="#000000" font-family="sans-serif" font-size="14" lengthAdjust="spacing" textLength="617" x="423" y="188.7988">+addNewOfferToAd(Advertisement adchoiceOffer, double keepClientOffer,String keepClientEmail)</text><text fill="#000000" font-family="sans-serif" font-size="14" lengthAdjust="spacing" textLength="517" x="423" y="204.4395">+displayConditionsAskToConfirm(AdvertisementDTO adchoiceVisitDTO, Visit visit)</text><text fill="#000000" font-family="sans-serif" font-size="14" lengthAdjust="spacing" textLength="171" x="423" y="220.0801">+displayOperationSucess()</text></g><!--class MakeOfferController--><g id="elem_MakeOfferController"><rect codeLine="27" fill="#F1F1F1" height="407.7344" id="MakeOfferController" rx="2.5" ry="2.5" style="stroke:#181818;stroke-width:0.5;" width="340" x="569" y="288"/><ellipse cx="670.75" cy="304" fill="#ADD1B2" rx="11" ry="11" style="stroke:#181818;stroke-width:1.0;"/><path d="M673.5156,299.875 Q673.6719,299.6563 673.8594,299.5469 Q674.0469,299.4375 674.2656,299.4375 Q674.6406,299.4375 674.875,299.7031 Q675.1094,299.9531 675.1094,300.5625 L675.1094,302.0156 Q675.1094,302.625 674.875,302.8906 Q674.6406,303.1563 674.2656,303.1563 Q673.9219,303.1563 673.7188,302.9531 Q673.5156,302.7656 673.4063,302.25 Q673.3594,301.8906 673.1719,301.7031 Q672.8438,301.3281 672.2344,301.1094 Q671.625,300.8906 671,300.8906 Q670.2344,300.8906 669.5938,301.2188 Q668.9688,301.5469 668.4688,302.2969 Q667.9844,303.0469 667.9844,304.0781 L667.9844,305.1719 Q667.9844,306.4063 668.875,307.2344 Q669.7656,308.0469 671.3594,308.0469 Q672.2969,308.0469 672.9531,307.7969 Q673.3438,307.6406 673.7656,307.2031 Q674.0313,306.9375 674.1719,306.8594 Q674.3281,306.7813 674.5313,306.7813 Q674.8594,306.7813 675.1094,307.0469 Q675.375,307.2969 675.375,307.6406 Q675.375,307.9844 675.0313,308.3906 Q674.5313,308.9688 673.7344,309.2969 Q672.6563,309.75 671.3594,309.75 Q669.8438,309.75 668.6406,309.125 Q667.6563,308.625 666.9688,307.5625 Q666.2813,306.4844 666.2813,305.2031 L666.2813,304.0469 Q666.2813,302.7188 666.8906,301.5781 Q667.5156,300.4219 668.6094,299.8125 Q669.7031,299.1875 670.9375,299.1875 Q671.6719,299.1875 672.3125,299.3594 Q672.9688,299.5156 673.5156,299.875 Z " fill="#000000"/><text fill="#000000" font-family="sans-serif" font-size="14" lengthAdjust="spacing" textLength="128" x="691.25" y="308.8535">MakeOfferController</text><line style="stroke:#181818;stroke-width:0.5;" x1="570" x2="908" y1="320" y2="320"/><text fill="#000000" font-family="sans-serif" font-size="14" lengthAdjust="spacing" textLength="166" x="575" y="336.6738">-Repositories repositories;</text><text fill="#000000" font-family="sans-serif" font-size="14" lengthAdjust="spacing" textLength="256" x="575" y="352.3145">-PropertyRepository propertyRepository;</text><text fill="#000000" font-family="sans-serif" font-size="14" lengthAdjust="spacing" textLength="250" x="575" y="367.9551">-RequestRepository requestRepository;</text><text fill="#000000" font-family="sans-serif" font-size="14" lengthAdjust="spacing" textLength="328" x="575" y="383.5957">-AdvertisementRepository advertisementRepository;</text><text fill="#000000" font-family="sans-serif" font-size="14" lengthAdjust="spacing" textLength="4" x="575" y="399.2363">&#160;</text><text fill="#000000" font-family="sans-serif" font-size="14" lengthAdjust="spacing" textLength="4" x="575" y="414.877">&#160;</text><text fill="#000000" font-family="sans-serif" font-size="14" lengthAdjust="spacing" textLength="4" x="575" y="430.5176">&#160;</text><text fill="#000000" font-family="sans-serif" font-size="14" lengthAdjust="spacing" textLength="124" x="575" y="446.1582">class Repositories {</text><line style="stroke:#181818;stroke-width:0.5;" x1="570" x2="908" y1="453.125" y2="453.125"/><text fill="#000000" font-family="sans-serif" font-size="14" lengthAdjust="spacing" textLength="91" x="575" y="469.7988">+getInstance()</text><text fill="#000000" font-family="sans-serif" font-size="14" lengthAdjust="spacing" textLength="146" x="575" y="485.4395">+getPropertyTypeList()</text><text fill="#000000" font-family="sans-serif" font-size="14" lengthAdjust="spacing" textLength="149" x="575" y="501.0801">+getBusinessTypeList()</text><text fill="#000000" font-family="sans-serif" font-size="14" lengthAdjust="spacing" textLength="188" x="575" y="516.7207">+getAdvertismentRepository()</text><text fill="#000000" font-family="sans-serif" font-size="14" lengthAdjust="spacing" textLength="137" x="575" y="532.3613">+getClientUserEmail()</text><text fill="#000000" font-family="sans-serif" font-size="14" lengthAdjust="spacing" textLength="222" x="575" y="548.002">+verifyOfferValueLowerSalePrice ()</text><text fill="#000000" font-family="sans-serif" font-size="14" lengthAdjust="spacing" textLength="127" x="575" y="563.6426">+verifyOtherOffers()</text><text fill="#000000" font-family="sans-serif" font-size="14" lengthAdjust="spacing" textLength="163" x="575" y="579.2832">+verifyOtherClientOffers()</text><text fill="#000000" font-family="sans-serif" font-size="14" lengthAdjust="spacing" textLength="134" x="575" y="594.9238">+addNewOfferToAd()</text><text fill="#000000" font-family="sans-serif" font-size="14" lengthAdjust="spacing" textLength="94" x="575" y="610.5645">-Repositories()</text><text fill="#000000" font-family="sans-serif" font-size="14" lengthAdjust="spacing" textLength="182" x="575" y="626.2051">+getInstance() : Repositories</text><text fill="#000000" font-family="sans-serif" font-size="14" lengthAdjust="spacing" textLength="160" x="575" y="641.8457">+getPropertyRepository()</text><text fill="#000000" font-family="sans-serif" font-size="14" lengthAdjust="spacing" textLength="195" x="575" y="657.4863">+getBusinessTypeRepository()</text><text fill="#000000" font-family="sans-serif" font-size="14" lengthAdjust="spacing" textLength="159" x="575" y="673.127">+getRequestRepository()</text><text fill="#000000" font-family="sans-serif" font-size="14" lengthAdjust="spacing" textLength="188" x="575" y="688.7676">+getAdvertismentRepository()</text></g><!--class PropertyRepository--><g id="elem_PropertyRepository"><rect codeLine="55" fill="#F1F1F1" height="63.6406" id="PropertyRepository" rx="2.5" ry="2.5" style="stroke:#181818;stroke-width:0.5;" width="154" x="725" y="1101"/><ellipse cx="740" cy="1117" fill="#ADD1B2" rx="11" ry="11" style="stroke:#181818;stroke-width:1.0;"/><path d="M742.7656,1112.875 Q742.9219,1112.6563 743.1094,1112.5469 Q743.2969,1112.4375 743.5156,1112.4375 Q743.8906,1112.4375 744.125,1112.7031 Q744.3594,1112.9531 744.3594,1113.5625 L744.3594,1115.0156 Q744.3594,1115.625 744.125,1115.8906 Q743.8906,1116.1563 743.5156,1116.1563 Q743.1719,1116.1563 742.9688,1115.9531 Q742.7656,1115.7656 742.6563,1115.25 Q742.6094,1114.8906 742.4219,1114.7031 Q742.0938,1114.3281 741.4844,1114.1094 Q740.875,1113.8906 740.25,1113.8906 Q739.4844,1113.8906 738.8438,1114.2188 Q738.2188,1114.5469 737.7188,1115.2969 Q737.2344,1116.0469 737.2344,1117.0781 L737.2344,1118.1719 Q737.2344,1119.4063 738.125,1120.2344 Q739.0156,1121.0469 740.6094,1121.0469 Q741.5469,1121.0469 742.2031,1120.7969 Q742.5938,1120.6406 743.0156,1120.2031 Q743.2813,1119.9375 743.4219,1119.8594 Q743.5781,1119.7813 743.7813,1119.7813 Q744.1094,1119.7813 744.3594,1120.0469 Q744.625,1120.2969 744.625,1120.6406 Q744.625,1120.9844 744.2813,1121.3906 Q743.7813,1121.9688 742.9844,1122.2969 Q741.9063,1122.75 740.6094,1122.75 Q739.0938,1122.75 737.8906,1122.125 Q736.9063,1121.625 736.2188,1120.5625 Q735.5313,1119.4844 735.5313,1118.2031 L735.5313,1117.0469 Q735.5313,1115.7188 736.1406,1114.5781 Q736.7656,1113.4219 737.8594,1112.8125 Q738.9531,1112.1875 740.1875,1112.1875 Q740.9219,1112.1875 741.5625,1112.3594 Q742.2188,1112.5156 742.7656,1112.875 Z " fill="#000000"/><text fill="#000000" font-family="sans-serif" font-size="14" lengthAdjust="spacing" textLength="122" x="754" y="1121.8535">PropertyRepository</text><line style="stroke:#181818;stroke-width:0.5;" x1="726" x2="878" y1="1133" y2="1133"/><line style="stroke:#181818;stroke-width:0.5;" x1="726" x2="878" y1="1141" y2="1141"/><text fill="#000000" font-family="sans-serif" font-size="14" lengthAdjust="spacing" textLength="114" x="731" y="1157.6738">+getPropertyList()</text></g><!--class Property--><g id="elem_Property"><rect codeLine="58" fill="#F1F1F1" height="110.5625" id="Property" rx="2.5" ry="2.5" style="stroke:#181818;stroke-width:0.5;" width="180" x="947" y="1913"/><ellipse cx="1005.75" cy="1929" fill="#B4A7E5" rx="11" ry="11" style="stroke:#181818;stroke-width:1.0;"/><path d="M1006.7031,1925.6406 L1006.7031,1932.2969 L1008.4219,1932.2969 Q1009.0313,1932.2969 1009.2969,1932.5313 Q1009.5625,1932.7656 1009.5625,1933.1563 Q1009.5625,1933.5313 1009.2969,1933.7656 Q1009.0313,1934 1008.4219,1934 L1003.2813,1934 Q1002.6719,1934 1002.4063,1933.7656 Q1002.1406,1933.5313 1002.1406,1933.1406 Q1002.1406,1932.7656 1002.4063,1932.5313 Q1002.6719,1932.2969 1003.2813,1932.2969 L1005,1932.2969 L1005,1925.6406 L1003.2813,1925.6406 Q1002.6719,1925.6406 1002.4063,1925.4063 Q1002.1406,1925.1719 1002.1406,1924.7813 Q1002.1406,1924.4063 1002.4063,1924.1719 Q1002.6719,1923.9375 1003.2813,1923.9375 L1008.4219,1923.9375 Q1009.0313,1923.9375 1009.2969,1924.1719 Q1009.5625,1924.4063 1009.5625,1924.7813 Q1009.5625,1925.1719 1009.2969,1925.4063 Q1009.0313,1925.6406 1008.4219,1925.6406 L1006.7031,1925.6406 Z " fill="#000000"/><text fill="#000000" font-family="sans-serif" font-size="14" font-style="italic" lengthAdjust="spacing" textLength="54" x="1026.25" y="1933.8535">Property</text><line style="stroke:#181818;stroke-width:0.5;" x1="948" x2="1126" y1="1945" y2="1945"/><text fill="#000000" font-family="sans-serif" font-size="14" lengthAdjust="spacing" textLength="85" x="953" y="1961.6738">-double area;</text><text fill="#000000" font-family="sans-serif" font-size="14" lengthAdjust="spacing" textLength="109" x="953" y="1977.3145">-double distance;</text><text fill="#000000" font-family="sans-serif" font-size="14" lengthAdjust="spacing" textLength="116" x="953" y="1992.9551">-Location location;</text><text fill="#000000" font-family="sans-serif" font-size="14" lengthAdjust="spacing" textLength="168" x="953" y="2008.5957">-List&lt;String&gt; photographs;</text><line style="stroke:#181818;stroke-width:0.5;" x1="948" x2="1126" y1="2015.5625" y2="2015.5625"/></g><!--class Land--><g id="elem_Land"><rect codeLine="64" fill="#F1F1F1" height="48" id="Land" rx="2.5" ry="2.5" style="stroke:#181818;stroke-width:0.5;" width="64" x="1379" y="2147"/><ellipse cx="1394" cy="2163" fill="#ADD1B2" rx="11" ry="11" style="stroke:#181818;stroke-width:1.0;"/><path d="M1396.7656,2158.875 Q1396.9219,2158.6563 1397.1094,2158.5469 Q1397.2969,2158.4375 1397.5156,2158.4375 Q1397.8906,2158.4375 1398.125,2158.7031 Q1398.3594,2158.9531 1398.3594,2159.5625 L1398.3594,2161.0156 Q1398.3594,2161.625 1398.125,2161.8906 Q1397.8906,2162.1563 1397.5156,2162.1563 Q1397.1719,2162.1563 1396.9688,2161.9531 Q1396.7656,2161.7656 1396.6563,2161.25 Q1396.6094,2160.8906 1396.4219,2160.7031 Q1396.0938,2160.3281 1395.4844,2160.1094 Q1394.875,2159.8906 1394.25,2159.8906 Q1393.4844,2159.8906 1392.8438,2160.2188 Q1392.2188,2160.5469 1391.7188,2161.2969 Q1391.2344,2162.0469 1391.2344,2163.0781 L1391.2344,2164.1719 Q1391.2344,2165.4063 1392.125,2166.2344 Q1393.0156,2167.0469 1394.6094,2167.0469 Q1395.5469,2167.0469 1396.2031,2166.7969 Q1396.5938,2166.6406 1397.0156,2166.2031 Q1397.2813,2165.9375 1397.4219,2165.8594 Q1397.5781,2165.7813 1397.7813,2165.7813 Q1398.1094,2165.7813 1398.3594,2166.0469 Q1398.625,2166.2969 1398.625,2166.6406 Q1398.625,2166.9844 1398.2813,2167.3906 Q1397.7813,2167.9688 1396.9844,2168.2969 Q1395.9063,2168.75 1394.6094,2168.75 Q1393.0938,2168.75 1391.8906,2168.125 Q1390.9063,2167.625 1390.2188,2166.5625 Q1389.5313,2165.4844 1389.5313,2164.2031 L1389.5313,2163.0469 Q1389.5313,2161.7188 1390.1406,2160.5781 Q1390.7656,2159.4219 1391.8594,2158.8125 Q1392.9531,2158.1875 1394.1875,2158.1875 Q1394.9219,2158.1875 1395.5625,2158.3594 Q1396.2188,2158.5156 1396.7656,2158.875 Z " fill="#000000"/><text fill="#000000" font-family="sans-serif" font-size="14" lengthAdjust="spacing" textLength="32" x="1408" y="2167.8535">Land</text><line style="stroke:#181818;stroke-width:0.5;" x1="1380" x2="1442" y1="2179" y2="2179"/><line style="stroke:#181818;stroke-width:0.5;" x1="1380" x2="1442" y1="2187" y2="2187"/></g><!--class Apartment--><g id="elem_Apartment"><rect codeLine="66" fill="#F1F1F1" height="110.5625" id="Apartment" rx="2.5" ry="2.5" style="stroke:#181818;stroke-width:0.5;" width="185" x="570.5" y="2115.5"/><ellipse cx="626.25" cy="2131.5" fill="#ADD1B2" rx="11" ry="11" style="stroke:#181818;stroke-width:1.0;"/><path d="M629.0156,2127.375 Q629.1719,2127.1563 629.3594,2127.0469 Q629.5469,2126.9375 629.7656,2126.9375 Q630.1406,2126.9375 630.375,2127.2031 Q630.6094,2127.4531 630.6094,2128.0625 L630.6094,2129.5156 Q630.6094,2130.125 630.375,2130.3906 Q630.1406,2130.6563 629.7656,2130.6563 Q629.4219,2130.6563 629.2188,2130.4531 Q629.0156,2130.2656 628.9063,2129.75 Q628.8594,2129.3906 628.6719,2129.2031 Q628.3438,2128.8281 627.7344,2128.6094 Q627.125,2128.3906 626.5,2128.3906 Q625.7344,2128.3906 625.0938,2128.7188 Q624.4688,2129.0469 623.9688,2129.7969 Q623.4844,2130.5469 623.4844,2131.5781 L623.4844,2132.6719 Q623.4844,2133.9063 624.375,2134.7344 Q625.2656,2135.5469 626.8594,2135.5469 Q627.7969,2135.5469 628.4531,2135.2969 Q628.8438,2135.1406 629.2656,2134.7031 Q629.5313,2134.4375 629.6719,2134.3594 Q629.8281,2134.2813 630.0313,2134.2813 Q630.3594,2134.2813 630.6094,2134.5469 Q630.875,2134.7969 630.875,2135.1406 Q630.875,2135.4844 630.5313,2135.8906 Q630.0313,2136.4688 629.2344,2136.7969 Q628.1563,2137.25 626.8594,2137.25 Q625.3438,2137.25 624.1406,2136.625 Q623.1563,2136.125 622.4688,2135.0625 Q621.7813,2133.9844 621.7813,2132.7031 L621.7813,2131.5469 Q621.7813,2130.2188 622.3906,2129.0781 Q623.0156,2127.9219 624.1094,2127.3125 Q625.2031,2126.6875 626.4375,2126.6875 Q627.1719,2126.6875 627.8125,2126.8594 Q628.4688,2127.0156 629.0156,2127.375 Z " fill="#000000"/><text fill="#000000" font-family="sans-serif" font-size="14" lengthAdjust="spacing" textLength="65" x="646.75" y="2136.3535">Apartment</text><line style="stroke:#181818;stroke-width:0.5;" x1="571.5" x2="754.5" y1="2147.5" y2="2147.5"/><text fill="#000000" font-family="sans-serif" font-size="14" lengthAdjust="spacing" textLength="140" x="576.5" y="2164.1738">-int: numberBedrooms</text><text fill="#000000" font-family="sans-serif" font-size="14" lengthAdjust="spacing" textLength="124" x="576.5" y="2179.8145">-int: numberParking</text><text fill="#000000" font-family="sans-serif" font-size="14" lengthAdjust="spacing" textLength="144" x="576.5" y="2195.4551">-int: numberBathrooms</text><text fill="#000000" font-family="sans-serif" font-size="14" lengthAdjust="spacing" textLength="173" x="576.5" y="2211.0957">-String: availableEquipment</text><line style="stroke:#181818;stroke-width:0.5;" x1="571.5" x2="754.5" y1="2218.0625" y2="2218.0625"/></g><!--class House--><g id="elem_House"><rect codeLine="72" fill="#F1F1F1" height="141.8438" id="House" rx="2.5" ry="2.5" style="stroke:#181818;stroke-width:0.5;" width="185" x="1158.5" y="2100"/><ellipse cx="1226.75" cy="2116" fill="#ADD1B2" rx="11" ry="11" style="stroke:#181818;stroke-width:1.0;"/><path d="M1229.5156,2111.875 Q1229.6719,2111.6563 1229.8594,2111.5469 Q1230.0469,2111.4375 1230.2656,2111.4375 Q1230.6406,2111.4375 1230.875,2111.7031 Q1231.1094,2111.9531 1231.1094,2112.5625 L1231.1094,2114.0156 Q1231.1094,2114.625 1230.875,2114.8906 Q1230.6406,2115.1563 1230.2656,2115.1563 Q1229.9219,2115.1563 1229.7188,2114.9531 Q1229.5156,2114.7656 1229.4063,2114.25 Q1229.3594,2113.8906 1229.1719,2113.7031 Q1228.8438,2113.3281 1228.2344,2113.1094 Q1227.625,2112.8906 1227,2112.8906 Q1226.2344,2112.8906 1225.5938,2113.2188 Q1224.9688,2113.5469 1224.4688,2114.2969 Q1223.9844,2115.0469 1223.9844,2116.0781 L1223.9844,2117.1719 Q1223.9844,2118.4063 1224.875,2119.2344 Q1225.7656,2120.0469 1227.3594,2120.0469 Q1228.2969,2120.0469 1228.9531,2119.7969 Q1229.3438,2119.6406 1229.7656,2119.2031 Q1230.0313,2118.9375 1230.1719,2118.8594 Q1230.3281,2118.7813 1230.5313,2118.7813 Q1230.8594,2118.7813 1231.1094,2119.0469 Q1231.375,2119.2969 1231.375,2119.6406 Q1231.375,2119.9844 1231.0313,2120.3906 Q1230.5313,2120.9688 1229.7344,2121.2969 Q1228.6563,2121.75 1227.3594,2121.75 Q1225.8438,2121.75 1224.6406,2121.125 Q1223.6563,2120.625 1222.9688,2119.5625 Q1222.2813,2118.4844 1222.2813,2117.2031 L1222.2813,2116.0469 Q1222.2813,2114.7188 1222.8906,2113.5781 Q1223.5156,2112.4219 1224.6094,2111.8125 Q1225.7031,2111.1875 1226.9375,2111.1875 Q1227.6719,2111.1875 1228.3125,2111.3594 Q1228.9688,2111.5156 1229.5156,2111.875 Z " fill="#000000"/><text fill="#000000" font-family="sans-serif" font-size="14" lengthAdjust="spacing" textLength="40" x="1247.25" y="2120.8535">House</text><line style="stroke:#181818;stroke-width:0.5;" x1="1159.5" x2="1342.5" y1="2132" y2="2132"/><text fill="#000000" font-family="sans-serif" font-size="14" lengthAdjust="spacing" textLength="140" x="1164.5" y="2148.6738">-int: numberBedrooms</text><text fill="#000000" font-family="sans-serif" font-size="14" lengthAdjust="spacing" textLength="124" x="1164.5" y="2164.3145">-int: numberParking</text><text fill="#000000" font-family="sans-serif" font-size="14" lengthAdjust="spacing" textLength="144" x="1164.5" y="2179.9551">-int: numberBathrooms</text><text fill="#000000" font-family="sans-serif" font-size="14" lengthAdjust="spacing" textLength="173" x="1164.5" y="2195.5957">-String: availableEquipment</text><text fill="#000000" font-family="sans-serif" font-size="14" lengthAdjust="spacing" textLength="126" x="1164.5" y="2211.2363">-boolean: basement</text><text fill="#000000" font-family="sans-serif" font-size="14" lengthAdjust="spacing" textLength="146" x="1164.5" y="2226.877">-boolean: habitableLoft</text><line style="stroke:#181818;stroke-width:0.5;" x1="1159.5" x2="1342.5" y1="2233.8438" y2="2233.8438"/></g><!--class SunExposureType--><g id="elem_SunExposureType"><rect codeLine="80" fill="#F1F1F1" height="63.6406" id="SunExposureType" rx="2.5" ry="2.5" style="stroke:#181818;stroke-width:0.5;" width="217" x="1142.5" y="2458"/><ellipse cx="1188.75" cy="2474" fill="#EB937F" rx="11" ry="11" style="stroke:#181818;stroke-width:1.0;"/><path d="M1187.6094,2474.7969 L1187.6094,2477.2969 L1191.9375,2477.2969 L1191.9375,2476.375 Q1191.9375,2475.7656 1192.1719,2475.5 Q1192.4219,2475.2344 1192.7969,2475.2344 Q1193.1719,2475.2344 1193.4063,2475.5 Q1193.6406,2475.7656 1193.6406,2476.375 L1193.6406,2479 L1185.6406,2479 Q1185.0156,2479 1184.75,2478.7656 Q1184.5,2478.5313 1184.5,2478.1406 Q1184.5,2477.7656 1184.7656,2477.5313 Q1185.0313,2477.2969 1185.6406,2477.2969 L1185.9063,2477.2969 L1185.9063,2470.6406 L1185.6406,2470.6406 Q1185.0156,2470.6406 1184.75,2470.4063 Q1184.5,2470.1719 1184.5,2469.7813 Q1184.5,2469.4063 1184.75,2469.1719 Q1185.0156,2468.9375 1185.6406,2468.9375 L1193.2656,2468.9375 L1193.2656,2471.5313 Q1193.2656,2472.1406 1193.0313,2472.4063 Q1192.8125,2472.6563 1192.4219,2472.6563 Q1192.0469,2472.6563 1191.8125,2472.4063 Q1191.5781,2472.1406 1191.5781,2471.5313 L1191.5781,2470.6406 L1187.6094,2470.6406 L1187.6094,2473.0938 L1189.0938,2473.0938 Q1189.0938,2472.4375 1189.2188,2472.25 Q1189.4844,2471.8438 1189.9531,2471.8438 Q1190.3281,2471.8438 1190.5625,2472.1094 Q1190.7969,2472.3594 1190.7969,2472.9688 L1190.7969,2474.9375 Q1190.7969,2475.4844 1190.6719,2475.6719 Q1190.4063,2476.0625 1189.9531,2476.0625 Q1189.4844,2476.0625 1189.2188,2475.6563 Q1189.0938,2475.4688 1189.0938,2474.7969 L1187.6094,2474.7969 Z " fill="#000000"/><text fill="#000000" font-family="sans-serif" font-size="14" lengthAdjust="spacing" textLength="116" x="1209.25" y="2478.8535">SunExposureType</text><line style="stroke:#181818;stroke-width:0.5;" x1="1143.5" x2="1358.5" y1="2490" y2="2490"/><text fill="#000000" font-family="sans-serif" font-size="14" lengthAdjust="spacing" textLength="205" x="1148.5" y="2506.6738">-String: North, South, East, West</text><line style="stroke:#181818;stroke-width:0.5;" x1="1143.5" x2="1358.5" y1="2513.6406" y2="2513.6406"/></g><!--class SunExposure--><g id="elem_SunExposure"><rect codeLine="83" fill="#F1F1F1" height="63.6406" id="SunExposure" rx="2.5" ry="2.5" style="stroke:#181818;stroke-width:0.5;" width="166" x="1168" y="2325.5"/><ellipse cx="1205.5" cy="2341.5" fill="#ADD1B2" rx="11" ry="11" style="stroke:#181818;stroke-width:1.0;"/><path d="M1208.2656,2337.375 Q1208.4219,2337.1563 1208.6094,2337.0469 Q1208.7969,2336.9375 1209.0156,2336.9375 Q1209.3906,2336.9375 1209.625,2337.2031 Q1209.8594,2337.4531 1209.8594,2338.0625 L1209.8594,2339.5156 Q1209.8594,2340.125 1209.625,2340.3906 Q1209.3906,2340.6563 1209.0156,2340.6563 Q1208.6719,2340.6563 1208.4688,2340.4531 Q1208.2656,2340.2656 1208.1563,2339.75 Q1208.1094,2339.3906 1207.9219,2339.2031 Q1207.5938,2338.8281 1206.9844,2338.6094 Q1206.375,2338.3906 1205.75,2338.3906 Q1204.9844,2338.3906 1204.3438,2338.7188 Q1203.7188,2339.0469 1203.2188,2339.7969 Q1202.7344,2340.5469 1202.7344,2341.5781 L1202.7344,2342.6719 Q1202.7344,2343.9063 1203.625,2344.7344 Q1204.5156,2345.5469 1206.1094,2345.5469 Q1207.0469,2345.5469 1207.7031,2345.2969 Q1208.0938,2345.1406 1208.5156,2344.7031 Q1208.7813,2344.4375 1208.9219,2344.3594 Q1209.0781,2344.2813 1209.2813,2344.2813 Q1209.6094,2344.2813 1209.8594,2344.5469 Q1210.125,2344.7969 1210.125,2345.1406 Q1210.125,2345.4844 1209.7813,2345.8906 Q1209.2813,2346.4688 1208.4844,2346.7969 Q1207.4063,2347.25 1206.1094,2347.25 Q1204.5938,2347.25 1203.3906,2346.625 Q1202.4063,2346.125 1201.7188,2345.0625 Q1201.0313,2343.9844 1201.0313,2342.7031 L1201.0313,2341.5469 Q1201.0313,2340.2188 1201.6406,2339.0781 Q1202.2656,2337.9219 1203.3594,2337.3125 Q1204.4531,2336.6875 1205.6875,2336.6875 Q1206.4219,2336.6875 1207.0625,2336.8594 Q1207.7188,2337.0156 1208.2656,2337.375 Z " fill="#000000"/><text fill="#000000" font-family="sans-serif" font-size="14" lengthAdjust="spacing" textLength="84" x="1224.5" y="2346.3535">SunExposure</text><line style="stroke:#181818;stroke-width:0.5;" x1="1169" x2="1333" y1="2357.5" y2="2357.5"/><line style="stroke:#181818;stroke-width:0.5;" x1="1169" x2="1333" y1="2365.5" y2="2365.5"/><text fill="#000000" font-family="sans-serif" font-size="14" lengthAdjust="spacing" textLength="154" x="1174" y="2382.1738">+getSunExposureType()</text></g><!--class PropertyType--><g id="elem_PropertyType"><rect codeLine="86" fill="#F1F1F1" height="79.2813" id="PropertyType" rx="2.5" ry="2.5" style="stroke:#181818;stroke-width:0.5;" width="211" x="790.5" y="2131.5"/><ellipse cx="848.75" cy="2147.5" fill="#EB937F" rx="11" ry="11" style="stroke:#181818;stroke-width:1.0;"/><path d="M847.6094,2148.2969 L847.6094,2150.7969 L851.9375,2150.7969 L851.9375,2149.875 Q851.9375,2149.2656 852.1719,2149 Q852.4219,2148.7344 852.7969,2148.7344 Q853.1719,2148.7344 853.4063,2149 Q853.6406,2149.2656 853.6406,2149.875 L853.6406,2152.5 L845.6406,2152.5 Q845.0156,2152.5 844.75,2152.2656 Q844.5,2152.0313 844.5,2151.6406 Q844.5,2151.2656 844.7656,2151.0313 Q845.0313,2150.7969 845.6406,2150.7969 L845.9063,2150.7969 L845.9063,2144.1406 L845.6406,2144.1406 Q845.0156,2144.1406 844.75,2143.9063 Q844.5,2143.6719 844.5,2143.2813 Q844.5,2142.9063 844.75,2142.6719 Q845.0156,2142.4375 845.6406,2142.4375 L853.2656,2142.4375 L853.2656,2145.0313 Q853.2656,2145.6406 853.0313,2145.9063 Q852.8125,2146.1563 852.4219,2146.1563 Q852.0469,2146.1563 851.8125,2145.9063 Q851.5781,2145.6406 851.5781,2145.0313 L851.5781,2144.1406 L847.6094,2144.1406 L847.6094,2146.5938 L849.0938,2146.5938 Q849.0938,2145.9375 849.2188,2145.75 Q849.4844,2145.3438 849.9531,2145.3438 Q850.3281,2145.3438 850.5625,2145.6094 Q850.7969,2145.8594 850.7969,2146.4688 L850.7969,2148.4375 Q850.7969,2148.9844 850.6719,2149.1719 Q850.4063,2149.5625 849.9531,2149.5625 Q849.4844,2149.5625 849.2188,2149.1563 Q849.0938,2148.9688 849.0938,2148.2969 L847.6094,2148.2969 Z " fill="#000000"/><text fill="#000000" font-family="sans-serif" font-size="14" lengthAdjust="spacing" textLength="86" x="869.25" y="2152.3535">PropertyType</text><line style="stroke:#181818;stroke-width:0.5;" x1="791.5" x2="1000.5" y1="2163.5" y2="2163.5"/><text fill="#000000" font-family="sans-serif" font-size="14" lengthAdjust="spacing" textLength="199" x="796.5" y="2180.1738">LAND + APARTMENT + HOUSE</text><text fill="#000000" font-family="sans-serif" font-size="14" lengthAdjust="spacing" textLength="69" x="796.5" y="2195.8145">description</text><line style="stroke:#181818;stroke-width:0.5;" x1="791.5" x2="1000.5" y1="2202.7813" y2="2202.7813"/></g><!--class Location--><g id="elem_Location"><rect codeLine="90" fill="#F1F1F1" height="126.2031" id="Location" rx="2.5" ry="2.5" style="stroke:#181818;stroke-width:0.5;" width="86" x="1037" y="2108"/><ellipse cx="1052" cy="2124" fill="#B4A7E5" rx="11" ry="11" style="stroke:#181818;stroke-width:1.0;"/><path d="M1052.9531,2120.6406 L1052.9531,2127.2969 L1054.6719,2127.2969 Q1055.2813,2127.2969 1055.5469,2127.5313 Q1055.8125,2127.7656 1055.8125,2128.1563 Q1055.8125,2128.5313 1055.5469,2128.7656 Q1055.2813,2129 1054.6719,2129 L1049.5313,2129 Q1048.9219,2129 1048.6563,2128.7656 Q1048.3906,2128.5313 1048.3906,2128.1406 Q1048.3906,2127.7656 1048.6563,2127.5313 Q1048.9219,2127.2969 1049.5313,2127.2969 L1051.25,2127.2969 L1051.25,2120.6406 L1049.5313,2120.6406 Q1048.9219,2120.6406 1048.6563,2120.4063 Q1048.3906,2120.1719 1048.3906,2119.7813 Q1048.3906,2119.4063 1048.6563,2119.1719 Q1048.9219,2118.9375 1049.5313,2118.9375 L1054.6719,2118.9375 Q1055.2813,2118.9375 1055.5469,2119.1719 Q1055.8125,2119.4063 1055.8125,2119.7813 Q1055.8125,2120.1719 1055.5469,2120.4063 Q1055.2813,2120.6406 1054.6719,2120.6406 L1052.9531,2120.6406 Z " fill="#000000"/><text fill="#000000" font-family="sans-serif" font-size="14" font-style="italic" lengthAdjust="spacing" textLength="54" x="1066" y="2128.8535">Location</text><line style="stroke:#181818;stroke-width:0.5;" x1="1038" x2="1122" y1="2140" y2="2140"/><text fill="#000000" font-family="sans-serif" font-size="14" lengthAdjust="spacing" textLength="41" x="1043" y="2156.6738">-street</text><text fill="#000000" font-family="sans-serif" font-size="14" lengthAdjust="spacing" textLength="56" x="1043" y="2172.3145">-zipCode</text><text fill="#000000" font-family="sans-serif" font-size="14" lengthAdjust="spacing" textLength="54" x="1043" y="2187.9551">-stateUS</text><text fill="#000000" font-family="sans-serif" font-size="14" lengthAdjust="spacing" textLength="26" x="1043" y="2203.5957">-city</text><text fill="#000000" font-family="sans-serif" font-size="14" lengthAdjust="spacing" textLength="46" x="1043" y="2219.2363">-district</text><line style="stroke:#181818;stroke-width:0.5;" x1="1038" x2="1122" y1="2226.2031" y2="2226.2031"/></g><!--class RequestRepository--><g id="elem_RequestRepository"><rect codeLine="98" fill="#F1F1F1" height="63.6406" id="RequestRepository" rx="2.5" ry="2.5" style="stroke:#181818;stroke-width:0.5;" width="153" x="388.5" y="1304"/><ellipse cx="403.5" cy="1320" fill="#ADD1B2" rx="11" ry="11" style="stroke:#181818;stroke-width:1.0;"/><path d="M406.2656,1315.875 Q406.4219,1315.6563 406.6094,1315.5469 Q406.7969,1315.4375 407.0156,1315.4375 Q407.3906,1315.4375 407.625,1315.7031 Q407.8594,1315.9531 407.8594,1316.5625 L407.8594,1318.0156 Q407.8594,1318.625 407.625,1318.8906 Q407.3906,1319.1563 407.0156,1319.1563 Q406.6719,1319.1563 406.4688,1318.9531 Q406.2656,1318.7656 406.1563,1318.25 Q406.1094,1317.8906 405.9219,1317.7031 Q405.5938,1317.3281 404.9844,1317.1094 Q404.375,1316.8906 403.75,1316.8906 Q402.9844,1316.8906 402.3438,1317.2188 Q401.7188,1317.5469 401.2188,1318.2969 Q400.7344,1319.0469 400.7344,1320.0781 L400.7344,1321.1719 Q400.7344,1322.4063 401.625,1323.2344 Q402.5156,1324.0469 404.1094,1324.0469 Q405.0469,1324.0469 405.7031,1323.7969 Q406.0938,1323.6406 406.5156,1323.2031 Q406.7813,1322.9375 406.9219,1322.8594 Q407.0781,1322.7813 407.2813,1322.7813 Q407.6094,1322.7813 407.8594,1323.0469 Q408.125,1323.2969 408.125,1323.6406 Q408.125,1323.9844 407.7813,1324.3906 Q407.2813,1324.9688 406.4844,1325.2969 Q405.4063,1325.75 404.1094,1325.75 Q402.5938,1325.75 401.3906,1325.125 Q400.4063,1324.625 399.7188,1323.5625 Q399.0313,1322.4844 399.0313,1321.2031 L399.0313,1320.0469 Q399.0313,1318.7188 399.6406,1317.5781 Q400.2656,1316.4219 401.3594,1315.8125 Q402.4531,1315.1875 403.6875,1315.1875 Q404.4219,1315.1875 405.0625,1315.3594 Q405.7188,1315.5156 406.2656,1315.875 Z " fill="#000000"/><text fill="#000000" font-family="sans-serif" font-size="14" lengthAdjust="spacing" textLength="121" x="417.5" y="1324.8535">RequestRepository</text><line style="stroke:#181818;stroke-width:0.5;" x1="389.5" x2="540.5" y1="1336" y2="1336"/><line style="stroke:#181818;stroke-width:0.5;" x1="389.5" x2="540.5" y1="1344" y2="1344"/><text fill="#000000" font-family="sans-serif" font-size="14" lengthAdjust="spacing" textLength="113" x="394.5" y="1360.6738">+getRequestList()</text></g><!--class Request--><g id="elem_Request"><rect codeLine="101" fill="#F1F1F1" height="63.6406" id="Request" rx="2.5" ry="2.5" style="stroke:#181818;stroke-width:0.5;" width="85" x="461.5" y="1936.5"/><ellipse cx="476.5" cy="1952.5" fill="#ADD1B2" rx="11" ry="11" style="stroke:#181818;stroke-width:1.0;"/><path d="M479.2656,1948.375 Q479.4219,1948.1563 479.6094,1948.0469 Q479.7969,1947.9375 480.0156,1947.9375 Q480.3906,1947.9375 480.625,1948.2031 Q480.8594,1948.4531 480.8594,1949.0625 L480.8594,1950.5156 Q480.8594,1951.125 480.625,1951.3906 Q480.3906,1951.6563 480.0156,1951.6563 Q479.6719,1951.6563 479.4688,1951.4531 Q479.2656,1951.2656 479.1563,1950.75 Q479.1094,1950.3906 478.9219,1950.2031 Q478.5938,1949.8281 477.9844,1949.6094 Q477.375,1949.3906 476.75,1949.3906 Q475.9844,1949.3906 475.3438,1949.7188 Q474.7188,1950.0469 474.2188,1950.7969 Q473.7344,1951.5469 473.7344,1952.5781 L473.7344,1953.6719 Q473.7344,1954.9063 474.625,1955.7344 Q475.5156,1956.5469 477.1094,1956.5469 Q478.0469,1956.5469 478.7031,1956.2969 Q479.0938,1956.1406 479.5156,1955.7031 Q479.7813,1955.4375 479.9219,1955.3594 Q480.0781,1955.2813 480.2813,1955.2813 Q480.6094,1955.2813 480.8594,1955.5469 Q481.125,1955.7969 481.125,1956.1406 Q481.125,1956.4844 480.7813,1956.8906 Q480.2813,1957.4688 479.4844,1957.7969 Q478.4063,1958.25 477.1094,1958.25 Q475.5938,1958.25 474.3906,1957.625 Q473.4063,1957.125 472.7188,1956.0625 Q472.0313,1954.9844 472.0313,1953.7031 L472.0313,1952.5469 Q472.0313,1951.2188 472.6406,1950.0781 Q473.2656,1948.9219 474.3594,1948.3125 Q475.4531,1947.6875 476.6875,1947.6875 Q477.4219,1947.6875 478.0625,1947.8594 Q478.7188,1948.0156 479.2656,1948.375 Z " fill="#000000"/><text fill="#000000" font-family="sans-serif" font-size="14" lengthAdjust="spacing" textLength="53" x="490.5" y="1957.3535">Request</text><line style="stroke:#181818;stroke-width:0.5;" x1="462.5" x2="545.5" y1="1968.5" y2="1968.5"/><text fill="#000000" font-family="sans-serif" font-size="14" lengthAdjust="spacing" textLength="71" x="467.5" y="1985.1738">-Date date;</text><line style="stroke:#181818;stroke-width:0.5;" x1="462.5" x2="545.5" y1="1992.1406" y2="1992.1406"/></g><!--class BusinessType--><g id="elem_BusinessType"><rect codeLine="107" fill="#F1F1F1" height="79.2813" id="BusinessType" rx="2.5" ry="2.5" style="stroke:#181818;stroke-width:0.5;" width="161" x="374.5" y="2131.5"/><ellipse cx="407.5" cy="2147.5" fill="#EB937F" rx="11" ry="11" style="stroke:#181818;stroke-width:1.0;"/><path d="M406.3594,2148.2969 L406.3594,2150.7969 L410.6875,2150.7969 L410.6875,2149.875 Q410.6875,2149.2656 410.9219,2149 Q411.1719,2148.7344 411.5469,2148.7344 Q411.9219,2148.7344 412.1563,2149 Q412.3906,2149.2656 412.3906,2149.875 L412.3906,2152.5 L404.3906,2152.5 Q403.7656,2152.5 403.5,2152.2656 Q403.25,2152.0313 403.25,2151.6406 Q403.25,2151.2656 403.5156,2151.0313 Q403.7813,2150.7969 404.3906,2150.7969 L404.6563,2150.7969 L404.6563,2144.1406 L404.3906,2144.1406 Q403.7656,2144.1406 403.5,2143.9063 Q403.25,2143.6719 403.25,2143.2813 Q403.25,2142.9063 403.5,2142.6719 Q403.7656,2142.4375 404.3906,2142.4375 L412.0156,2142.4375 L412.0156,2145.0313 Q412.0156,2145.6406 411.7813,2145.9063 Q411.5625,2146.1563 411.1719,2146.1563 Q410.7969,2146.1563 410.5625,2145.9063 Q410.3281,2145.6406 410.3281,2145.0313 L410.3281,2144.1406 L406.3594,2144.1406 L406.3594,2146.5938 L407.8438,2146.5938 Q407.8438,2145.9375 407.9688,2145.75 Q408.2344,2145.3438 408.7031,2145.3438 Q409.0781,2145.3438 409.3125,2145.6094 Q409.5469,2145.8594 409.5469,2146.4688 L409.5469,2148.4375 Q409.5469,2148.9844 409.4219,2149.1719 Q409.1563,2149.5625 408.7031,2149.5625 Q408.2344,2149.5625 407.9688,2149.1563 Q407.8438,2148.9688 407.8438,2148.2969 L406.3594,2148.2969 Z " fill="#000000"/><text fill="#000000" font-family="sans-serif" font-size="14" lengthAdjust="spacing" textLength="89" x="425.5" y="2152.3535">BusinessType</text><line style="stroke:#181818;stroke-width:0.5;" x1="375.5" x2="534.5" y1="2163.5" y2="2163.5"/><text fill="#000000" font-family="sans-serif" font-size="14" lengthAdjust="spacing" textLength="69" x="380.5" y="2180.1738">description</text><line style="stroke:#181818;stroke-width:0.5;" x1="375.5" x2="534.5" y1="2187.1406" y2="2187.1406"/><text fill="#000000" font-family="sans-serif" font-size="14" lengthAdjust="spacing" textLength="149" x="380.5" y="2203.8145">+getBusinessTypeList()</text></g><!--class BusinessTypeRent--><g id="elem_BusinessTypeRent"><rect codeLine="110" fill="#F1F1F1" height="79.2813" id="BusinessTypeRent" rx="2.5" ry="2.5" style="stroke:#181818;stroke-width:0.5;" width="151" x="287.5" y="2318"/><ellipse cx="302.5" cy="2334" fill="#ADD1B2" rx="11" ry="11" style="stroke:#181818;stroke-width:1.0;"/><path d="M305.2656,2329.875 Q305.4219,2329.6563 305.6094,2329.5469 Q305.7969,2329.4375 306.0156,2329.4375 Q306.3906,2329.4375 306.625,2329.7031 Q306.8594,2329.9531 306.8594,2330.5625 L306.8594,2332.0156 Q306.8594,2332.625 306.625,2332.8906 Q306.3906,2333.1563 306.0156,2333.1563 Q305.6719,2333.1563 305.4688,2332.9531 Q305.2656,2332.7656 305.1563,2332.25 Q305.1094,2331.8906 304.9219,2331.7031 Q304.5938,2331.3281 303.9844,2331.1094 Q303.375,2330.8906 302.75,2330.8906 Q301.9844,2330.8906 301.3438,2331.2188 Q300.7188,2331.5469 300.2188,2332.2969 Q299.7344,2333.0469 299.7344,2334.0781 L299.7344,2335.1719 Q299.7344,2336.4063 300.625,2337.2344 Q301.5156,2338.0469 303.1094,2338.0469 Q304.0469,2338.0469 304.7031,2337.7969 Q305.0938,2337.6406 305.5156,2337.2031 Q305.7813,2336.9375 305.9219,2336.8594 Q306.0781,2336.7813 306.2813,2336.7813 Q306.6094,2336.7813 306.8594,2337.0469 Q307.125,2337.2969 307.125,2337.6406 Q307.125,2337.9844 306.7813,2338.3906 Q306.2813,2338.9688 305.4844,2339.2969 Q304.4063,2339.75 303.1094,2339.75 Q301.5938,2339.75 300.3906,2339.125 Q299.4063,2338.625 298.7188,2337.5625 Q298.0313,2336.4844 298.0313,2335.2031 L298.0313,2334.0469 Q298.0313,2332.7188 298.6406,2331.5781 Q299.2656,2330.4219 300.3594,2329.8125 Q301.4531,2329.1875 302.6875,2329.1875 Q303.4219,2329.1875 304.0625,2329.3594 Q304.7188,2329.5156 305.2656,2329.875 Z " fill="#000000"/><text fill="#000000" font-family="sans-serif" font-size="14" lengthAdjust="spacing" textLength="119" x="316.5" y="2338.8535">BusinessTypeRent</text><line style="stroke:#181818;stroke-width:0.5;" x1="288.5" x2="437.5" y1="2350" y2="2350"/><text fill="#000000" font-family="sans-serif" font-size="14" lengthAdjust="spacing" textLength="120" x="293.5" y="2366.6738">-double:rentalPrice</text><text fill="#000000" font-family="sans-serif" font-size="14" lengthAdjust="spacing" textLength="130" x="293.5" y="2382.3145">-int:durationContract</text><line style="stroke:#181818;stroke-width:0.5;" x1="288.5" x2="437.5" y1="2389.2813" y2="2389.2813"/></g><!--class BusinessTypeSale--><g id="elem_BusinessTypeSale"><rect codeLine="114" fill="#F1F1F1" height="63.6406" id="BusinessTypeSale" rx="2.5" ry="2.5" style="stroke:#181818;stroke-width:0.5;" width="149" x="473.5" y="2325.5"/><ellipse cx="488.5" cy="2341.5" fill="#ADD1B2" rx="11" ry="11" style="stroke:#181818;stroke-width:1.0;"/><path d="M491.2656,2337.375 Q491.4219,2337.1563 491.6094,2337.0469 Q491.7969,2336.9375 492.0156,2336.9375 Q492.3906,2336.9375 492.625,2337.2031 Q492.8594,2337.4531 492.8594,2338.0625 L492.8594,2339.5156 Q492.8594,2340.125 492.625,2340.3906 Q492.3906,2340.6563 492.0156,2340.6563 Q491.6719,2340.6563 491.4688,2340.4531 Q491.2656,2340.2656 491.1563,2339.75 Q491.1094,2339.3906 490.9219,2339.2031 Q490.5938,2338.8281 489.9844,2338.6094 Q489.375,2338.3906 488.75,2338.3906 Q487.9844,2338.3906 487.3438,2338.7188 Q486.7188,2339.0469 486.2188,2339.7969 Q485.7344,2340.5469 485.7344,2341.5781 L485.7344,2342.6719 Q485.7344,2343.9063 486.625,2344.7344 Q487.5156,2345.5469 489.1094,2345.5469 Q490.0469,2345.5469 490.7031,2345.2969 Q491.0938,2345.1406 491.5156,2344.7031 Q491.7813,2344.4375 491.9219,2344.3594 Q492.0781,2344.2813 492.2813,2344.2813 Q492.6094,2344.2813 492.8594,2344.5469 Q493.125,2344.7969 493.125,2345.1406 Q493.125,2345.4844 492.7813,2345.8906 Q492.2813,2346.4688 491.4844,2346.7969 Q490.4063,2347.25 489.1094,2347.25 Q487.5938,2347.25 486.3906,2346.625 Q485.4063,2346.125 484.7188,2345.0625 Q484.0313,2343.9844 484.0313,2342.7031 L484.0313,2341.5469 Q484.0313,2340.2188 484.6406,2339.0781 Q485.2656,2337.9219 486.3594,2337.3125 Q487.4531,2336.6875 488.6875,2336.6875 Q489.4219,2336.6875 490.0625,2336.8594 Q490.7188,2337.0156 491.2656,2337.375 Z " fill="#000000"/><text fill="#000000" font-family="sans-serif" font-size="14" lengthAdjust="spacing" textLength="117" x="502.5" y="2346.3535">BusinessTypeSale</text><line style="stroke:#181818;stroke-width:0.5;" x1="474.5" x2="621.5" y1="2357.5" y2="2357.5"/><text fill="#000000" font-family="sans-serif" font-size="14" lengthAdjust="spacing" textLength="110" x="479.5" y="2374.1738">-double:salePrice</text><line style="stroke:#181818;stroke-width:0.5;" x1="474.5" x2="621.5" y1="2381.1406" y2="2381.1406"/></g><!--class AdvertisementRepository--><g id="elem_AdvertisementRepository"><rect codeLine="118" fill="#F1F1F1" height="63.6406" id="AdvertisementRepository" rx="2.5" ry="2.5" style="stroke:#181818;stroke-width:0.5;" width="190" x="574" y="1007"/><ellipse cx="589" cy="1023" fill="#ADD1B2" rx="11" ry="11" style="stroke:#181818;stroke-width:1.0;"/><path d="M591.7656,1018.875 Q591.9219,1018.6563 592.1094,1018.5469 Q592.2969,1018.4375 592.5156,1018.4375 Q592.8906,1018.4375 593.125,1018.7031 Q593.3594,1018.9531 593.3594,1019.5625 L593.3594,1021.0156 Q593.3594,1021.625 593.125,1021.8906 Q592.8906,1022.1563 592.5156,1022.1563 Q592.1719,1022.1563 591.9688,1021.9531 Q591.7656,1021.7656 591.6563,1021.25 Q591.6094,1020.8906 591.4219,1020.7031 Q591.0938,1020.3281 590.4844,1020.1094 Q589.875,1019.8906 589.25,1019.8906 Q588.4844,1019.8906 587.8438,1020.2188 Q587.2188,1020.5469 586.7188,1021.2969 Q586.2344,1022.0469 586.2344,1023.0781 L586.2344,1024.1719 Q586.2344,1025.4063 587.125,1026.2344 Q588.0156,1027.0469 589.6094,1027.0469 Q590.5469,1027.0469 591.2031,1026.7969 Q591.5938,1026.6406 592.0156,1026.2031 Q592.2813,1025.9375 592.4219,1025.8594 Q592.5781,1025.7813 592.7813,1025.7813 Q593.1094,1025.7813 593.3594,1026.0469 Q593.625,1026.2969 593.625,1026.6406 Q593.625,1026.9844 593.2813,1027.3906 Q592.7813,1027.9688 591.9844,1028.2969 Q590.9063,1028.75 589.6094,1028.75 Q588.0938,1028.75 586.8906,1028.125 Q585.9063,1027.625 585.2188,1026.5625 Q584.5313,1025.4844 584.5313,1024.2031 L584.5313,1023.0469 Q584.5313,1021.7188 585.1406,1020.5781 Q585.7656,1019.4219 586.8594,1018.8125 Q587.9531,1018.1875 589.1875,1018.1875 Q589.9219,1018.1875 590.5625,1018.3594 Q591.2188,1018.5156 591.7656,1018.875 Z " fill="#000000"/><text fill="#000000" font-family="sans-serif" font-size="14" lengthAdjust="spacing" textLength="158" x="603" y="1027.8535">AdvertisementRepository</text><line style="stroke:#181818;stroke-width:0.5;" x1="575" x2="763" y1="1039" y2="1039"/><line style="stroke:#181818;stroke-width:0.5;" x1="575" x2="763" y1="1047" y2="1047"/><text fill="#000000" font-family="sans-serif" font-size="14" lengthAdjust="spacing" textLength="150" x="580" y="1063.6738">+getAdvertisementList()</text></g><!--class Advertisement--><g id="elem_Advertisement"><rect codeLine="121" fill="#F1F1F1" height="439.0156" id="Advertisement" rx="2.5" ry="2.5" style="stroke:#181818;stroke-width:0.5;" width="234" x="477" y="1398"/><ellipse cx="544.75" cy="1414" fill="#ADD1B2" rx="11" ry="11" style="stroke:#181818;stroke-width:1.0;"/><path d="M547.5156,1409.875 Q547.6719,1409.6563 547.8594,1409.5469 Q548.0469,1409.4375 548.2656,1409.4375 Q548.6406,1409.4375 548.875,1409.7031 Q549.1094,1409.9531 549.1094,1410.5625 L549.1094,1412.0156 Q549.1094,1412.625 548.875,1412.8906 Q548.6406,1413.1563 548.2656,1413.1563 Q547.9219,1413.1563 547.7188,1412.9531 Q547.5156,1412.7656 547.4063,1412.25 Q547.3594,1411.8906 547.1719,1411.7031 Q546.8438,1411.3281 546.2344,1411.1094 Q545.625,1410.8906 545,1410.8906 Q544.2344,1410.8906 543.5938,1411.2188 Q542.9688,1411.5469 542.4688,1412.2969 Q541.9844,1413.0469 541.9844,1414.0781 L541.9844,1415.1719 Q541.9844,1416.4063 542.875,1417.2344 Q543.7656,1418.0469 545.3594,1418.0469 Q546.2969,1418.0469 546.9531,1417.7969 Q547.3438,1417.6406 547.7656,1417.2031 Q548.0313,1416.9375 548.1719,1416.8594 Q548.3281,1416.7813 548.5313,1416.7813 Q548.8594,1416.7813 549.1094,1417.0469 Q549.375,1417.2969 549.375,1417.6406 Q549.375,1417.9844 549.0313,1418.3906 Q548.5313,1418.9688 547.7344,1419.2969 Q546.6563,1419.75 545.3594,1419.75 Q543.8438,1419.75 542.6406,1419.125 Q541.6563,1418.625 540.9688,1417.5625 Q540.2813,1416.4844 540.2813,1415.2031 L540.2813,1414.0469 Q540.2813,1412.7188 540.8906,1411.5781 Q541.5156,1410.4219 542.6094,1409.8125 Q543.7031,1409.1875 544.9375,1409.1875 Q545.6719,1409.1875 546.3125,1409.3594 Q546.9688,1409.5156 547.5156,1409.875 Z " fill="#000000"/><text fill="#000000" font-family="sans-serif" font-size="14" lengthAdjust="spacing" textLength="90" x="565.25" y="1418.8535">Advertisement</text><line style="stroke:#181818;stroke-width:0.5;" x1="478" x2="710" y1="1430" y2="1430"/><text fill="#000000" font-family="sans-serif" font-size="14" lengthAdjust="spacing" textLength="150" x="483" y="1446.6738">-Request keepRequest;</text><text fill="#000000" font-family="sans-serif" font-size="14" lengthAdjust="spacing" textLength="216" x="483" y="1462.3145">-PropertyType keepPropertyType;</text><text fill="#000000" font-family="sans-serif" font-size="14" lengthAdjust="spacing" textLength="222" x="483" y="1477.9551">-BusinessType keepBusinessType;</text><text fill="#000000" font-family="sans-serif" font-size="14" lengthAdjust="spacing" textLength="152" x="483" y="1493.5957">-Property keepProperty;</text><text fill="#000000" font-family="sans-serif" font-size="14" lengthAdjust="spacing" textLength="85" x="483" y="1509.2363">-double area;</text><text fill="#000000" font-family="sans-serif" font-size="14" lengthAdjust="spacing" textLength="109" x="483" y="1524.877">-double distance;</text><text fill="#000000" font-family="sans-serif" font-size="14" lengthAdjust="spacing" textLength="136" x="483" y="1540.5176">-int numberBedrooms</text><text fill="#000000" font-family="sans-serif" font-size="14" lengthAdjust="spacing" textLength="120" x="483" y="1556.1582">-int numberParking</text><text fill="#000000" font-family="sans-serif" font-size="14" lengthAdjust="spacing" textLength="140" x="483" y="1571.7988">-int numberBathrooms</text><text fill="#000000" font-family="sans-serif" font-size="14" lengthAdjust="spacing" textLength="169" x="483" y="1587.4395">-String availableEquipment</text><text fill="#000000" font-family="sans-serif" font-size="14" lengthAdjust="spacing" textLength="122" x="483" y="1603.0801">-boolean basement</text><text fill="#000000" font-family="sans-serif" font-size="14" lengthAdjust="spacing" textLength="79" x="483" y="1618.7207">-boolean loft</text><text fill="#000000" font-family="sans-serif" font-size="14" lengthAdjust="spacing" textLength="116" x="483" y="1634.3613">-SunExposure sun</text><text fill="#000000" font-family="sans-serif" font-size="14" lengthAdjust="spacing" textLength="82" x="483" y="1650.002">-String street</text><text fill="#000000" font-family="sans-serif" font-size="14" lengthAdjust="spacing" textLength="63" x="483" y="1665.6426">-String zip</text><text fill="#000000" font-family="sans-serif" font-size="14" lengthAdjust="spacing" textLength="77" x="483" y="1681.2832">-String state</text><text fill="#000000" font-family="sans-serif" font-size="14" lengthAdjust="spacing" textLength="67" x="483" y="1696.9238">-String city</text><text fill="#000000" font-family="sans-serif" font-size="14" lengthAdjust="spacing" textLength="87" x="483" y="1712.5645">-String district</text><text fill="#000000" font-family="sans-serif" font-size="14" lengthAdjust="spacing" textLength="164" x="483" y="1728.2051">-List&lt;String&gt; photographs</text><text fill="#000000" font-family="sans-serif" font-size="14" lengthAdjust="spacing" textLength="110" x="483" y="1743.8457">-double salePrice</text><text fill="#000000" font-family="sans-serif" font-size="14" lengthAdjust="spacing" textLength="109" x="483" y="1759.4863">-double rentPrice</text><text fill="#000000" font-family="sans-serif" font-size="14" lengthAdjust="spacing" textLength="152" x="483" y="1775.127">-int duractionOfContract</text><text fill="#000000" font-family="sans-serif" font-size="14" lengthAdjust="spacing" textLength="71" x="483" y="1790.7676">-Date date;</text><text fill="#000000" font-family="sans-serif" font-size="14" lengthAdjust="spacing" textLength="57" x="483" y="1806.4082">-List Visit</text><text fill="#000000" font-family="sans-serif" font-size="14" lengthAdjust="spacing" textLength="63" x="483" y="1822.0488">-List Offer</text><line style="stroke:#181818;stroke-width:0.5;" x1="478" x2="710" y1="1829.0156" y2="1829.0156"/></g><!--class AdvertisementMapper--><g id="elem_AdvertisementMapper"><rect codeLine="148" fill="#F1F1F1" height="79.2813" id="AdvertisementMapper" rx="2.5" ry="2.5" style="stroke:#181818;stroke-width:0.5;" width="289" x="682.5" y="1195"/><ellipse cx="753.75" cy="1211" fill="#ADD1B2" rx="11" ry="11" style="stroke:#181818;stroke-width:1.0;"/><path d="M756.5156,1206.875 Q756.6719,1206.6563 756.8594,1206.5469 Q757.0469,1206.4375 757.2656,1206.4375 Q757.6406,1206.4375 757.875,1206.7031 Q758.1094,1206.9531 758.1094,1207.5625 L758.1094,1209.0156 Q758.1094,1209.625 757.875,1209.8906 Q757.6406,1210.1563 757.2656,1210.1563 Q756.9219,1210.1563 756.7188,1209.9531 Q756.5156,1209.7656 756.4063,1209.25 Q756.3594,1208.8906 756.1719,1208.7031 Q755.8438,1208.3281 755.2344,1208.1094 Q754.625,1207.8906 754,1207.8906 Q753.2344,1207.8906 752.5938,1208.2188 Q751.9688,1208.5469 751.4688,1209.2969 Q750.9844,1210.0469 750.9844,1211.0781 L750.9844,1212.1719 Q750.9844,1213.4063 751.875,1214.2344 Q752.7656,1215.0469 754.3594,1215.0469 Q755.2969,1215.0469 755.9531,1214.7969 Q756.3438,1214.6406 756.7656,1214.2031 Q757.0313,1213.9375 757.1719,1213.8594 Q757.3281,1213.7813 757.5313,1213.7813 Q757.8594,1213.7813 758.1094,1214.0469 Q758.375,1214.2969 758.375,1214.6406 Q758.375,1214.9844 758.0313,1215.3906 Q757.5313,1215.9688 756.7344,1216.2969 Q755.6563,1216.75 754.3594,1216.75 Q752.8438,1216.75 751.6406,1216.125 Q750.6563,1215.625 749.9688,1214.5625 Q749.2813,1213.4844 749.2813,1212.2031 L749.2813,1211.0469 Q749.2813,1209.7188 749.8906,1208.5781 Q750.5156,1207.4219 751.6094,1206.8125 Q752.7031,1206.1875 753.9375,1206.1875 Q754.6719,1206.1875 755.3125,1206.3594 Q755.9688,1206.5156 756.5156,1206.875 Z " fill="#000000"/><text fill="#000000" font-family="sans-serif" font-size="14" lengthAdjust="spacing" textLength="138" x="774.25" y="1215.8535">AdvertisementMapper</text><line style="stroke:#181818;stroke-width:0.5;" x1="683.5" x2="970.5" y1="1227" y2="1227"/><line style="stroke:#181818;stroke-width:0.5;" x1="683.5" x2="970.5" y1="1235" y2="1235"/><text fill="#000000" font-family="sans-serif" font-size="14" lengthAdjust="spacing" textLength="170" x="688.5" y="1251.6738">+toDTO(Advertisement ad)</text><text fill="#000000" font-family="sans-serif" font-size="14" lengthAdjust="spacing" textLength="277" x="688.5" y="1267.3145">+fromDTOtoAD(AdvertisementDTO adDTO)</text></g><!--class AdvertisementDTO--><g id="elem_AdvertisementDTO"><rect codeLine="152" fill="#F1F1F1" height="376.4531" id="AdvertisementDTO" rx="2.5" ry="2.5" style="stroke:#181818;stroke-width:0.5;" width="237" x="746.5" y="1429.5"/><ellipse cx="800.75" cy="1445.5" fill="#ADD1B2" rx="11" ry="11" style="stroke:#181818;stroke-width:1.0;"/><path d="M803.5156,1441.375 Q803.6719,1441.1563 803.8594,1441.0469 Q804.0469,1440.9375 804.2656,1440.9375 Q804.6406,1440.9375 804.875,1441.2031 Q805.1094,1441.4531 805.1094,1442.0625 L805.1094,1443.5156 Q805.1094,1444.125 804.875,1444.3906 Q804.6406,1444.6563 804.2656,1444.6563 Q803.9219,1444.6563 803.7188,1444.4531 Q803.5156,1444.2656 803.4063,1443.75 Q803.3594,1443.3906 803.1719,1443.2031 Q802.8438,1442.8281 802.2344,1442.6094 Q801.625,1442.3906 801,1442.3906 Q800.2344,1442.3906 799.5938,1442.7188 Q798.9688,1443.0469 798.4688,1443.7969 Q797.9844,1444.5469 797.9844,1445.5781 L797.9844,1446.6719 Q797.9844,1447.9063 798.875,1448.7344 Q799.7656,1449.5469 801.3594,1449.5469 Q802.2969,1449.5469 802.9531,1449.2969 Q803.3438,1449.1406 803.7656,1448.7031 Q804.0313,1448.4375 804.1719,1448.3594 Q804.3281,1448.2813 804.5313,1448.2813 Q804.8594,1448.2813 805.1094,1448.5469 Q805.375,1448.7969 805.375,1449.1406 Q805.375,1449.4844 805.0313,1449.8906 Q804.5313,1450.4688 803.7344,1450.7969 Q802.6563,1451.25 801.3594,1451.25 Q799.8438,1451.25 798.6406,1450.625 Q797.6563,1450.125 796.9688,1449.0625 Q796.2813,1447.9844 796.2813,1446.7031 L796.2813,1445.5469 Q796.2813,1444.2188 796.8906,1443.0781 Q797.5156,1441.9219 798.6094,1441.3125 Q799.7031,1440.6875 800.9375,1440.6875 Q801.6719,1440.6875 802.3125,1440.8594 Q802.9688,1441.0156 803.5156,1441.375 Z " fill="#000000"/><text fill="#000000" font-family="sans-serif" font-size="14" lengthAdjust="spacing" textLength="120" x="821.25" y="1450.3535">AdvertisementDTO</text><line style="stroke:#181818;stroke-width:0.5;" x1="747.5" x2="982.5" y1="1461.5" y2="1461.5"/><text fill="#000000" font-family="sans-serif" font-size="14" lengthAdjust="spacing" textLength="120" x="752.5" y="1478.1738">+double keepArea;</text><text fill="#000000" font-family="sans-serif" font-size="14" lengthAdjust="spacing" textLength="143" x="752.5" y="1493.8145">+double keepdistance;</text><text fill="#000000" font-family="sans-serif" font-size="14" lengthAdjust="spacing" textLength="219" x="752.5" y="1509.4551">+PropertyType keepPropertyType;</text><text fill="#000000" font-family="sans-serif" font-size="14" lengthAdjust="spacing" textLength="225" x="752.5" y="1525.0957">+BusinessType keepBusinessType;</text><text fill="#000000" font-family="sans-serif" font-size="14" lengthAdjust="spacing" textLength="175" x="752.5" y="1540.7363">+int keepNumberBedrooms;</text><text fill="#000000" font-family="sans-serif" font-size="14" lengthAdjust="spacing" textLength="131" x="752.5" y="1556.377">+int numberParking ;</text><text fill="#000000" font-family="sans-serif" font-size="14" lengthAdjust="spacing" textLength="151" x="752.5" y="1572.0176">+int numberBathrooms ;</text><text fill="#000000" font-family="sans-serif" font-size="14" lengthAdjust="spacing" textLength="180" x="752.5" y="1587.6582">+String availableEquipment ;</text><text fill="#000000" font-family="sans-serif" font-size="14" lengthAdjust="spacing" textLength="134" x="752.5" y="1603.2988">+Boolean basement ;</text><text fill="#000000" font-family="sans-serif" font-size="14" lengthAdjust="spacing" textLength="91" x="752.5" y="1618.9395">+Boolean loft ;</text><text fill="#000000" font-family="sans-serif" font-size="14" lengthAdjust="spacing" textLength="127" x="752.5" y="1634.5801">+SunExposure sun ;</text><text fill="#000000" font-family="sans-serif" font-size="14" lengthAdjust="spacing" textLength="122" x="752.5" y="1650.2207">+String keepStreet;</text><text fill="#000000" font-family="sans-serif" font-size="14" lengthAdjust="spacing" textLength="103" x="752.5" y="1665.8613">+String keepZip;</text><text fill="#000000" font-family="sans-serif" font-size="14" lengthAdjust="spacing" textLength="117" x="752.5" y="1681.502">+String keepState;</text><text fill="#000000" font-family="sans-serif" font-size="14" lengthAdjust="spacing" textLength="108" x="752.5" y="1697.1426">+String keepCity;</text><text fill="#000000" font-family="sans-serif" font-size="14" lengthAdjust="spacing" textLength="127" x="752.5" y="1712.7832">+String keepDistrict;</text><text fill="#000000" font-family="sans-serif" font-size="14" lengthAdjust="spacing" textLength="203" x="752.5" y="1728.4238">+List&lt;String&gt; keepPhotographs;</text><text fill="#000000" font-family="sans-serif" font-size="14" lengthAdjust="spacing" textLength="150" x="752.5" y="1744.0645">+double keepSalePrice;</text><text fill="#000000" font-family="sans-serif" font-size="14" lengthAdjust="spacing" textLength="152" x="752.5" y="1759.7051">+double keepRentPrice;</text><text fill="#000000" font-family="sans-serif" font-size="14" lengthAdjust="spacing" textLength="185" x="752.5" y="1775.3457">+int keepDurationOfContract;</text><text fill="#000000" font-family="sans-serif" font-size="14" lengthAdjust="spacing" textLength="107" x="752.5" y="1790.9863">+Date keepDate;</text><line style="stroke:#181818;stroke-width:0.5;" x1="747.5" x2="982.5" y1="1797.9531" y2="1797.9531"/></g><!--class AdvertisementCollections--><g id="elem_AdvertisementCollections"><rect codeLine="176" fill="#F1F1F1" height="141.8438" id="AdvertisementCollections" rx="2.5" ry="2.5" style="stroke:#181818;stroke-width:0.5;" width="421" x="643.5" y="726"/><ellipse cx="770.25" cy="742" fill="#ADD1B2" rx="11" ry="11" style="stroke:#181818;stroke-width:1.0;"/><path d="M773.0156,737.875 Q773.1719,737.6563 773.3594,737.5469 Q773.5469,737.4375 773.7656,737.4375 Q774.1406,737.4375 774.375,737.7031 Q774.6094,737.9531 774.6094,738.5625 L774.6094,740.0156 Q774.6094,740.625 774.375,740.8906 Q774.1406,741.1563 773.7656,741.1563 Q773.4219,741.1563 773.2188,740.9531 Q773.0156,740.7656 772.9063,740.25 Q772.8594,739.8906 772.6719,739.7031 Q772.3438,739.3281 771.7344,739.1094 Q771.125,738.8906 770.5,738.8906 Q769.7344,738.8906 769.0938,739.2188 Q768.4688,739.5469 767.9688,740.2969 Q767.4844,741.0469 767.4844,742.0781 L767.4844,743.1719 Q767.4844,744.4063 768.375,745.2344 Q769.2656,746.0469 770.8594,746.0469 Q771.7969,746.0469 772.4531,745.7969 Q772.8438,745.6406 773.2656,745.2031 Q773.5313,744.9375 773.6719,744.8594 Q773.8281,744.7813 774.0313,744.7813 Q774.3594,744.7813 774.6094,745.0469 Q774.875,745.2969 774.875,745.6406 Q774.875,745.9844 774.5313,746.3906 Q774.0313,746.9688 773.2344,747.2969 Q772.1563,747.75 770.8594,747.75 Q769.3438,747.75 768.1406,747.125 Q767.1563,746.625 766.4688,745.5625 Q765.7813,744.4844 765.7813,743.2031 L765.7813,742.0469 Q765.7813,740.7188 766.3906,739.5781 Q767.0156,738.4219 768.1094,737.8125 Q769.2031,737.1875 770.4375,737.1875 Q771.1719,737.1875 771.8125,737.3594 Q772.4688,737.5156 773.0156,737.875 Z " fill="#000000"/><text fill="#000000" font-family="sans-serif" font-size="14" lengthAdjust="spacing" textLength="159" x="790.75" y="746.8535">AdvertisementCollections</text><line style="stroke:#181818;stroke-width:0.5;" x1="644.5" x2="1063.5" y1="758" y2="758"/><line style="stroke:#181818;stroke-width:0.5;" x1="644.5" x2="1063.5" y1="766" y2="766"/><text fill="#000000" font-family="sans-serif" font-size="14" lengthAdjust="spacing" textLength="204" x="649.5" y="782.6738">+getAdvertismentDTOListSorted</text><text fill="#000000" font-family="sans-serif" font-size="14" lengthAdjust="spacing" textLength="275" x="649.5" y="798.3145">(propertyTypeChoice,businessTypeChoice)</text><text fill="#000000" font-family="sans-serif" font-size="14" lengthAdjust="spacing" textLength="409" x="649.5" y="813.9551">+createNewAdvertAllInformationList(adsList, propertyTypeChoice</text><text fill="#000000" font-family="sans-serif" font-size="14" lengthAdjust="spacing" textLength="145" x="649.5" y="829.5957">, businessTypeChoice)</text><text fill="#000000" font-family="sans-serif" font-size="14" lengthAdjust="spacing" textLength="224" x="649.5" y="845.2363">+sortAdVisitListByDate(adsVisitList)</text><text fill="#000000" font-family="sans-serif" font-size="14" lengthAdjust="spacing" textLength="276" x="649.5" y="860.877">+getVerifyVisitTimeFree(adchoiceVisit, visit)</text></g><!--class Offer--><g id="elem_Offer"><rect codeLine="183" fill="#F1F1F1" height="79.2813" id="Offer" rx="2.5" ry="2.5" style="stroke:#181818;stroke-width:0.5;" width="64" x="208" y="1929"/><ellipse cx="223" cy="1945" fill="#ADD1B2" rx="11" ry="11" style="stroke:#181818;stroke-width:1.0;"/><path d="M225.7656,1940.875 Q225.9219,1940.6563 226.1094,1940.5469 Q226.2969,1940.4375 226.5156,1940.4375 Q226.8906,1940.4375 227.125,1940.7031 Q227.3594,1940.9531 227.3594,1941.5625 L227.3594,1943.0156 Q227.3594,1943.625 227.125,1943.8906 Q226.8906,1944.1563 226.5156,1944.1563 Q226.1719,1944.1563 225.9688,1943.9531 Q225.7656,1943.7656 225.6563,1943.25 Q225.6094,1942.8906 225.4219,1942.7031 Q225.0938,1942.3281 224.4844,1942.1094 Q223.875,1941.8906 223.25,1941.8906 Q222.4844,1941.8906 221.8438,1942.2188 Q221.2188,1942.5469 220.7188,1943.2969 Q220.2344,1944.0469 220.2344,1945.0781 L220.2344,1946.1719 Q220.2344,1947.4063 221.125,1948.2344 Q222.0156,1949.0469 223.6094,1949.0469 Q224.5469,1949.0469 225.2031,1948.7969 Q225.5938,1948.6406 226.0156,1948.2031 Q226.2813,1947.9375 226.4219,1947.8594 Q226.5781,1947.7813 226.7813,1947.7813 Q227.1094,1947.7813 227.3594,1948.0469 Q227.625,1948.2969 227.625,1948.6406 Q227.625,1948.9844 227.2813,1949.3906 Q226.7813,1949.9688 225.9844,1950.2969 Q224.9063,1950.75 223.6094,1950.75 Q222.0938,1950.75 220.8906,1950.125 Q219.9063,1949.625 219.2188,1948.5625 Q218.5313,1947.4844 218.5313,1946.2031 L218.5313,1945.0469 Q218.5313,1943.7188 219.1406,1942.5781 Q219.7656,1941.4219 220.8594,1940.8125 Q221.9531,1940.1875 223.1875,1940.1875 Q223.9219,1940.1875 224.5625,1940.3594 Q225.2188,1940.5156 225.7656,1940.875 Z " fill="#000000"/><text fill="#000000" font-family="sans-serif" font-size="14" lengthAdjust="spacing" textLength="32" x="237" y="1949.8535">Offer</text><line style="stroke:#181818;stroke-width:0.5;" x1="209" x2="271" y1="1961" y2="1961"/><text fill="#000000" font-family="sans-serif" font-size="14" lengthAdjust="spacing" textLength="38" x="214" y="1977.6738">status</text><text fill="#000000" font-family="sans-serif" font-size="14" lengthAdjust="spacing" textLength="34" x="214" y="1993.3145">value</text><line style="stroke:#181818;stroke-width:0.5;" x1="209" x2="271" y1="2000.2813" y2="2000.2813"/></g><!--class Repositories--><g id="elem_Repositories"><rect fill="#F1F1F1" height="48" id="Repositories" rx="2.5" ry="2.5" style="stroke:#181818;stroke-width:0.5;" width="111" x="465.5" y="898"/><ellipse cx="480.5" cy="914" fill="#ADD1B2" rx="11" ry="11" style="stroke:#181818;stroke-width:1.0;"/><path d="M483.2656,909.875 Q483.4219,909.6563 483.6094,909.5469 Q483.7969,909.4375 484.0156,909.4375 Q484.3906,909.4375 484.625,909.7031 Q484.8594,909.9531 484.8594,910.5625 L484.8594,912.0156 Q484.8594,912.625 484.625,912.8906 Q484.3906,913.1563 484.0156,913.1563 Q483.6719,913.1563 483.4688,912.9531 Q483.2656,912.7656 483.1563,912.25 Q483.1094,911.8906 482.9219,911.7031 Q482.5938,911.3281 481.9844,911.1094 Q481.375,910.8906 480.75,910.8906 Q479.9844,910.8906 479.3438,911.2188 Q478.7188,911.5469 478.2188,912.2969 Q477.7344,913.0469 477.7344,914.0781 L477.7344,915.1719 Q477.7344,916.4063 478.625,917.2344 Q479.5156,918.0469 481.1094,918.0469 Q482.0469,918.0469 482.7031,917.7969 Q483.0938,917.6406 483.5156,917.2031 Q483.7813,916.9375 483.9219,916.8594 Q484.0781,916.7813 484.2813,916.7813 Q484.6094,916.7813 484.8594,917.0469 Q485.125,917.2969 485.125,917.6406 Q485.125,917.9844 484.7813,918.3906 Q484.2813,918.9688 483.4844,919.2969 Q482.4063,919.75 481.1094,919.75 Q479.5938,919.75 478.3906,919.125 Q477.4063,918.625 476.7188,917.5625 Q476.0313,916.4844 476.0313,915.2031 L476.0313,914.0469 Q476.0313,912.7188 476.6406,911.5781 Q477.2656,910.4219 478.3594,909.8125 Q479.4531,909.1875 480.6875,909.1875 Q481.4219,909.1875 482.0625,909.3594 Q482.7188,909.5156 483.2656,909.875 Z " fill="#000000"/><text fill="#000000" font-family="sans-serif" font-size="14" lengthAdjust="spacing" textLength="79" x="494.5" y="918.8535">Repositories</text><line style="stroke:#181818;stroke-width:0.5;" x1="466.5" x2="575.5" y1="930" y2="930"/><line style="stroke:#181818;stroke-width:0.5;" x1="466.5" x2="575.5" y1="938" y2="938"/></g><!--class SunExposureRepository--><g id="elem_SunExposureRepository"><rect fill="#F1F1F1" height="48" id="SunExposureRepository" rx="2.5" ry="2.5" style="stroke:#181818;stroke-width:0.5;" width="184" x="59" y="1015"/><ellipse cx="74" cy="1031" fill="#ADD1B2" rx="11" ry="11" style="stroke:#181818;stroke-width:1.0;"/><path d="M76.7656,1026.875 Q76.9219,1026.6563 77.1094,1026.5469 Q77.2969,1026.4375 77.5156,1026.4375 Q77.8906,1026.4375 78.125,1026.7031 Q78.3594,1026.9531 78.3594,1027.5625 L78.3594,1029.0156 Q78.3594,1029.625 78.125,1029.8906 Q77.8906,1030.1563 77.5156,1030.1563 Q77.1719,1030.1563 76.9688,1029.9531 Q76.7656,1029.7656 76.6563,1029.25 Q76.6094,1028.8906 76.4219,1028.7031 Q76.0938,1028.3281 75.4844,1028.1094 Q74.875,1027.8906 74.25,1027.8906 Q73.4844,1027.8906 72.8438,1028.2188 Q72.2188,1028.5469 71.7188,1029.2969 Q71.2344,1030.0469 71.2344,1031.0781 L71.2344,1032.1719 Q71.2344,1033.4063 72.125,1034.2344 Q73.0156,1035.0469 74.6094,1035.0469 Q75.5469,1035.0469 76.2031,1034.7969 Q76.5938,1034.6406 77.0156,1034.2031 Q77.2813,1033.9375 77.4219,1033.8594 Q77.5781,1033.7813 77.7813,1033.7813 Q78.1094,1033.7813 78.3594,1034.0469 Q78.625,1034.2969 78.625,1034.6406 Q78.625,1034.9844 78.2813,1035.3906 Q77.7813,1035.9688 76.9844,1036.2969 Q75.9063,1036.75 74.6094,1036.75 Q73.0938,1036.75 71.8906,1036.125 Q70.9063,1035.625 70.2188,1034.5625 Q69.5313,1033.4844 69.5313,1032.2031 L69.5313,1031.0469 Q69.5313,1029.7188 70.1406,1028.5781 Q70.7656,1027.4219 71.8594,1026.8125 Q72.9531,1026.1875 74.1875,1026.1875 Q74.9219,1026.1875 75.5625,1026.3594 Q76.2188,1026.5156 76.7656,1026.875 Z " fill="#000000"/><text fill="#000000" font-family="sans-serif" font-size="14" lengthAdjust="spacing" textLength="152" x="88" y="1035.8535">SunExposureRepository</text><line style="stroke:#181818;stroke-width:0.5;" x1="60" x2="242" y1="1047" y2="1047"/><line style="stroke:#181818;stroke-width:0.5;" x1="60" x2="242" y1="1055" y2="1055"/></g><!--class BusinessTypeRepository--><g id="elem_BusinessTypeRepository"><rect fill="#F1F1F1" height="48" id="BusinessTypeRepository" rx="2.5" ry="2.5" style="stroke:#181818;stroke-width:0.5;" width="189" x="278.5" y="1015"/><ellipse cx="293.5" cy="1031" fill="#ADD1B2" rx="11" ry="11" style="stroke:#181818;stroke-width:1.0;"/><path d="M296.2656,1026.875 Q296.4219,1026.6563 296.6094,1026.5469 Q296.7969,1026.4375 297.0156,1026.4375 Q297.3906,1026.4375 297.625,1026.7031 Q297.8594,1026.9531 297.8594,1027.5625 L297.8594,1029.0156 Q297.8594,1029.625 297.625,1029.8906 Q297.3906,1030.1563 297.0156,1030.1563 Q296.6719,1030.1563 296.4688,1029.9531 Q296.2656,1029.7656 296.1563,1029.25 Q296.1094,1028.8906 295.9219,1028.7031 Q295.5938,1028.3281 294.9844,1028.1094 Q294.375,1027.8906 293.75,1027.8906 Q292.9844,1027.8906 292.3438,1028.2188 Q291.7188,1028.5469 291.2188,1029.2969 Q290.7344,1030.0469 290.7344,1031.0781 L290.7344,1032.1719 Q290.7344,1033.4063 291.625,1034.2344 Q292.5156,1035.0469 294.1094,1035.0469 Q295.0469,1035.0469 295.7031,1034.7969 Q296.0938,1034.6406 296.5156,1034.2031 Q296.7813,1033.9375 296.9219,1033.8594 Q297.0781,1033.7813 297.2813,1033.7813 Q297.6094,1033.7813 297.8594,1034.0469 Q298.125,1034.2969 298.125,1034.6406 Q298.125,1034.9844 297.7813,1035.3906 Q297.2813,1035.9688 296.4844,1036.2969 Q295.4063,1036.75 294.1094,1036.75 Q292.5938,1036.75 291.3906,1036.125 Q290.4063,1035.625 289.7188,1034.5625 Q289.0313,1033.4844 289.0313,1032.2031 L289.0313,1031.0469 Q289.0313,1029.7188 289.6406,1028.5781 Q290.2656,1027.4219 291.3594,1026.8125 Q292.4531,1026.1875 293.6875,1026.1875 Q294.4219,1026.1875 295.0625,1026.3594 Q295.7188,1026.5156 296.2656,1026.875 Z " fill="#000000"/><text fill="#000000" font-family="sans-serif" font-size="14" lengthAdjust="spacing" textLength="157" x="307.5" y="1035.8535">BusinessTypeRepository</text><line style="stroke:#181818;stroke-width:0.5;" x1="279.5" x2="466.5" y1="1047" y2="1047"/><line style="stroke:#181818;stroke-width:0.5;" x1="279.5" x2="466.5" y1="1055" y2="1055"/></g><!--class PersonRepository--><g id="elem_PersonRepository"><rect fill="#F1F1F1" height="48" id="PersonRepository" rx="2.5" ry="2.5" style="stroke:#181818;stroke-width:0.5;" width="145" x="297.5" y="468"/><ellipse cx="312.5" cy="484" fill="#ADD1B2" rx="11" ry="11" style="stroke:#181818;stroke-width:1.0;"/><path d="M315.2656,479.875 Q315.4219,479.6563 315.6094,479.5469 Q315.7969,479.4375 316.0156,479.4375 Q316.3906,479.4375 316.625,479.7031 Q316.8594,479.9531 316.8594,480.5625 L316.8594,482.0156 Q316.8594,482.625 316.625,482.8906 Q316.3906,483.1563 316.0156,483.1563 Q315.6719,483.1563 315.4688,482.9531 Q315.2656,482.7656 315.1563,482.25 Q315.1094,481.8906 314.9219,481.7031 Q314.5938,481.3281 313.9844,481.1094 Q313.375,480.8906 312.75,480.8906 Q311.9844,480.8906 311.3438,481.2188 Q310.7188,481.5469 310.2188,482.2969 Q309.7344,483.0469 309.7344,484.0781 L309.7344,485.1719 Q309.7344,486.4063 310.625,487.2344 Q311.5156,488.0469 313.1094,488.0469 Q314.0469,488.0469 314.7031,487.7969 Q315.0938,487.6406 315.5156,487.2031 Q315.7813,486.9375 315.9219,486.8594 Q316.0781,486.7813 316.2813,486.7813 Q316.6094,486.7813 316.8594,487.0469 Q317.125,487.2969 317.125,487.6406 Q317.125,487.9844 316.7813,488.3906 Q316.2813,488.9688 315.4844,489.2969 Q314.4063,489.75 313.1094,489.75 Q311.5938,489.75 310.3906,489.125 Q309.4063,488.625 308.7188,487.5625 Q308.0313,486.4844 308.0313,485.2031 L308.0313,484.0469 Q308.0313,482.7188 308.6406,481.5781 Q309.2656,480.4219 310.3594,479.8125 Q311.4531,479.1875 312.6875,479.1875 Q313.4219,479.1875 314.0625,479.3594 Q314.7188,479.5156 315.2656,479.875 Z " fill="#000000"/><text fill="#000000" font-family="sans-serif" font-size="14" lengthAdjust="spacing" textLength="113" x="326.5" y="488.8535">PersonRepository</text><line style="stroke:#181818;stroke-width:0.5;" x1="298.5" x2="441.5" y1="500" y2="500"/><line style="stroke:#181818;stroke-width:0.5;" x1="298.5" x2="441.5" y1="508" y2="508"/></g><!--class Person--><g id="elem_Person"><rect fill="#F1F1F1" height="48" id="Person" rx="2.5" ry="2.5" style="stroke:#181818;stroke-width:0.5;" width="77" x="30.5" y="468"/><ellipse cx="45.5" cy="484" fill="#ADD1B2" rx="11" ry="11" style="stroke:#181818;stroke-width:1.0;"/><path d="M48.2656,479.875 Q48.4219,479.6563 48.6094,479.5469 Q48.7969,479.4375 49.0156,479.4375 Q49.3906,479.4375 49.625,479.7031 Q49.8594,479.9531 49.8594,480.5625 L49.8594,482.0156 Q49.8594,482.625 49.625,482.8906 Q49.3906,483.1563 49.0156,483.1563 Q48.6719,483.1563 48.4688,482.9531 Q48.2656,482.7656 48.1563,482.25 Q48.1094,481.8906 47.9219,481.7031 Q47.5938,481.3281 46.9844,481.1094 Q46.375,480.8906 45.75,480.8906 Q44.9844,480.8906 44.3438,481.2188 Q43.7188,481.5469 43.2188,482.2969 Q42.7344,483.0469 42.7344,484.0781 L42.7344,485.1719 Q42.7344,486.4063 43.625,487.2344 Q44.5156,488.0469 46.1094,488.0469 Q47.0469,488.0469 47.7031,487.7969 Q48.0938,487.6406 48.5156,487.2031 Q48.7813,486.9375 48.9219,486.8594 Q49.0781,486.7813 49.2813,486.7813 Q49.6094,486.7813 49.8594,487.0469 Q50.125,487.2969 50.125,487.6406 Q50.125,487.9844 49.7813,488.3906 Q49.2813,488.9688 48.4844,489.2969 Q47.4063,489.75 46.1094,489.75 Q44.5938,489.75 43.3906,489.125 Q42.4063,488.625 41.7188,487.5625 Q41.0313,486.4844 41.0313,485.2031 L41.0313,484.0469 Q41.0313,482.7188 41.6406,481.5781 Q42.2656,480.4219 43.3594,479.8125 Q44.4531,479.1875 45.6875,479.1875 Q46.4219,479.1875 47.0625,479.3594 Q47.7188,479.5156 48.2656,479.875 Z " fill="#000000"/><text fill="#000000" font-family="sans-serif" font-size="14" lengthAdjust="spacing" textLength="45" x="59.5" y="488.8535">Person</text><line style="stroke:#181818;stroke-width:0.5;" x1="31.5" x2="106.5" y1="500" y2="500"/><line style="stroke:#181818;stroke-width:0.5;" x1="31.5" x2="106.5" y1="508" y2="508"/></g><!--link MakeOfferUI to MakeOfferController--><g id="link_MakeOfferUI_MakeOfferController"><path codeLine="188" d="M739,227.14 C739,244.73 739,263.43 739,282.45 " fill="none" id="MakeOfferUI-to-MakeOfferController" style="stroke:#181818;stroke-width:1.0;stroke-dasharray:7.0,7.0;"/><polygon fill="#181818" points="739,287.82,743,278.82,739,282.82,735,278.82,739,287.82" style="stroke:#181818;stroke-width:1.0;"/></g><!--link MakeOfferController to Repositories--><g id="link_MakeOfferController_Repositories"><path codeLine="190" d="M580.42,696.02 C566.18,714.25 557,726 557,726 C557,726 536.17,838.82 526.2,892.83 " fill="none" id="MakeOfferController-to-Repositories" style="stroke:#181818;stroke-width:1.0;stroke-dasharray:7.0,7.0;"/><polygon fill="#181818" points="525.27,897.87,530.8487,889.7535,526.1845,892.9543,522.9837,888.2902,525.27,897.87" style="stroke:#181818;stroke-width:1.0;"/><text fill="#000000" font-family="sans-serif" font-size="13" lengthAdjust="spacing" textLength="67" x="558" y="801.7686">repositories</text></g><!--link Repositories to PropertyRepository--><g id="link_Repositories_PropertyRepository"><path codeLine="192" d="M576.67,940.92 C653.32,965.59 782,1007 782,1007 C782,1007 790.25,1058.56 796.15,1095.45 " fill="none" id="Repositories-to-PropertyRepository" style="stroke:#181818;stroke-width:1.0;"/><polygon fill="#181818" points="797,1100.78,799.5332,1091.2625,796.2128,1095.8424,791.633,1092.522,797,1100.78" style="stroke:#181818;stroke-width:1.0;"/></g><!--link Repositories to SunExposureRepository--><g id="link_Repositories_SunExposureRepository"><path codeLine="193" d="M465.21,940.34 C402.71,959.77 300.92,991.4 230.2,1013.38 " fill="none" id="Repositories-to-SunExposureRepository" style="stroke:#181818;stroke-width:1.0;"/><polygon fill="#181818" points="225.17,1014.95,234.9513,1016.1017,229.9452,1013.4676,232.5794,1008.4615,225.17,1014.95" style="stroke:#181818;stroke-width:1.0;"/></g><!--link Repositories to BusinessTypeRepository--><g id="link_Repositories_BusinessTypeRepository"><path codeLine="194" d="M491.05,946.27 C466.6,965.27 432.05,992.11 406.65,1011.85 " fill="none" id="Repositories-to-BusinessTypeRepository" style="stroke:#181818;stroke-width:1.0;"/><polygon fill="#181818" points="402.65,1014.96,412.2135,1012.6064,406.6014,1011.8962,407.3115,1006.2841,402.65,1014.96" style="stroke:#181818;stroke-width:1.0;"/></g><!--link Repositories to RequestRepository--><g id="link_Repositories_RequestRepository"><path codeLine="195" d="M517.87,946.03 C508.59,1014.27 481.21,1215.75 469.93,1298.69 " fill="none" id="Repositories-to-RequestRepository" style="stroke:#181818;stroke-width:1.0;"/><polygon fill="#181818" points="469.22,1303.98,474.4188,1295.615,469.9071,1299.0274,466.4947,1294.5157,469.22,1303.98" style="stroke:#181818;stroke-width:1.0;"/></g><!--reverse link PersonRepository to Repositories--><g id="link_PersonRepository_Repositories"><path codeLine="196" d="M379.83,520.92 C410.43,607.86 502,868 502,868 C502,868 507.6,883.63 512.72,897.91 " fill="none" id="PersonRepository-backto-Repositories" style="stroke:#181818;stroke-width:1.0;"/><polygon fill="#181818" points="378.16,516.17,377.371,525.9872,379.8181,520.8871,384.9183,523.3342,378.16,516.17" style="stroke:#181818;stroke-width:1.0;"/></g><!--link Repositories to AdvertisementRepository--><g id="link_Repositories_AdvertisementRepository"><path codeLine="197" d="M550.95,946.27 C572.19,962.78 601.04,985.19 624.9,1003.74 " fill="none" id="Repositories-to-AdvertisementRepository" style="stroke:#181818;stroke-width:1.0;"/><polygon fill="#181818" points="628.99,1006.91,624.3329,998.2318,625.0402,1003.8442,619.4277,1004.5515,628.99,1006.91" style="stroke:#181818;stroke-width:1.0;"/></g><!--link PropertyRepository to Property--><g id="link_PropertyRepository_Property"><path codeLine="199" d="M879.14,1159.16 C930.65,1175.97 989,1195 989,1195 C989,1195 1022.04,1726.71 1033.3,1907.87 " fill="none" id="PropertyRepository-to-Property" style="stroke:#181818;stroke-width:1.0;"/><polygon fill="#181818" points="1033.61,1912.87,1037.0359,1903.6362,1033.2954,1907.8799,1029.0517,1904.1395,1033.61,1912.87" style="stroke:#181818;stroke-width:1.0;"/><text fill="#000000" font-family="sans-serif" font-size="13" lengthAdjust="spacing" textLength="5" x="1027.8185" y="1902.2872">*</text></g><!--link Property to PropertyType--><g id="link_Property_PropertyType"><path codeLine="200" d="M998.66,2024.02 C975.88,2056.41 947.41,2096.89 926.23,2127.01 " fill="none" id="Property-to-PropertyType" style="stroke:#181818;stroke-width:1.0;"/><polygon fill="#181818" points="923.16,2131.37,931.6076,2126.3066,926.035,2127.2792,925.0624,2121.7066,923.16,2131.37" style="stroke:#181818;stroke-width:1.0;"/><text fill="#000000" font-family="sans-serif" font-size="13" lengthAdjust="spacing" textLength="30" x="975" y="2066.7686">owns</text><text fill="#000000" font-family="sans-serif" font-size="13" lengthAdjust="spacing" textLength="7" x="986.5608" y="2043.4667">1</text><text fill="#000000" font-family="sans-serif" font-size="13" lengthAdjust="spacing" textLength="7" x="920.3744" y="2120.8542">1</text></g><!--link Property to Location--><g id="link_Property_Location"><path codeLine="201" d="M1048.69,2024.02 C1053.89,2048.27 1060.07,2077.05 1065.55,2102.62 " fill="none" id="Property-to-Location" style="stroke:#181818;stroke-width:1.0;"/><polygon fill="#181818" points="1066.64,2107.69,1068.6731,2098.0533,1065.5963,2102.8002,1060.8494,2099.7233,1066.64,2107.69" style="stroke:#181818;stroke-width:1.0;"/><text fill="#000000" font-family="sans-serif" font-size="13" lengthAdjust="spacing" textLength="30" x="1059" y="2066.7686">owns</text><text fill="#000000" font-family="sans-serif" font-size="13" lengthAdjust="spacing" textLength="7" x="1042.6882" y="2043.4667">1</text><text fill="#000000" font-family="sans-serif" font-size="13" lengthAdjust="spacing" textLength="7" x="1057.6906" y="2097.3475">1</text></g><!--reverse link Property to Land--><g id="link_Property_Land"><path codeLine="202" d="M1145.97,2013.39 C1240.07,2051.29 1361,2100 1361,2100 C1361,2100 1379.81,2126.33 1394.35,2146.69 " fill="none" id="Property-backto-Land" style="stroke:#181818;stroke-width:1.0;"/><polygon fill="none" points="1143.19,2019.82,1127.25,2005.85,1148.42,2006.83,1143.19,2019.82" style="stroke:#181818;stroke-width:1.0;"/></g><!--reverse link Property to Apartment--><g id="link_Property_Apartment"><path codeLine="203" d="M928.63,2023.07 C855.78,2059.08 773,2100 773,2100 C773,2100 762.92,2106.42 748.86,2115.36 " fill="none" id="Property-backto-Apartment" style="stroke:#181818;stroke-width:1.0;"/><polygon fill="none" points="925.85,2016.63,946.88,2014.05,932.06,2029.18,925.85,2016.63" style="stroke:#181818;stroke-width:1.0;"/></g><!--reverse link Property to House--><g id="link_Property_House"><path codeLine="204" d="M1109.92,2037.82 C1131.2,2057.76 1154.5,2079.59 1175.91,2099.65 " fill="none" id="Property-backto-House" style="stroke:#181818;stroke-width:1.0;"/><polygon fill="none" points="1105,2042.81,1095.19,2024.02,1114.57,2032.59,1105,2042.81" style="stroke:#181818;stroke-width:1.0;"/></g><!--reverse link House to SunExposure--><g id="link_House_SunExposure"><path codeLine="205" d="M1251,2247.1 C1251,2274.46 1251,2303.91 1251,2325.35 " fill="none" id="House-backto-SunExposure" style="stroke:#181818;stroke-width:1.0;"/><polygon fill="#181818" points="1251,2242.01,1247,2251.01,1251,2247.01,1255,2251.01,1251,2242.01" style="stroke:#181818;stroke-width:1.0;"/></g><!--link SunExposure to SunExposureType--><g id="link_SunExposure_SunExposureType"><path codeLine="206" d="M1251,2389.76 C1251,2408.72 1251,2433.01 1251,2452.8 " fill="none" id="SunExposure-to-SunExposureType" style="stroke:#181818;stroke-width:1.0;"/><polygon fill="#181818" points="1251,2458,1255,2449,1251,2453,1247,2449,1251,2458" style="stroke:#181818;stroke-width:1.0;"/><text fill="#000000" font-family="sans-serif" font-size="13" lengthAdjust="spacing" textLength="5" x="1245.4531" y="2447.3339">*</text></g><!--link RequestRepository to Request--><g id="link_RequestRepository_Request"><path codeLine="208" d="M462.44,1368.21 C461.21,1383.22 460,1398 460,1398 C460,1398 446,1867 446,1867 C446,1867 446,1883 446,1883 C446,1883 463.65,1908.71 479.47,1931.77 " fill="none" id="RequestRepository-to-Request" style="stroke:#181818;stroke-width:1.0;"/><polygon fill="#181818" points="482.4,1936.04,480.6131,1926.3546,479.574,1931.9152,474.0134,1930.8762,482.4,1936.04" style="stroke:#181818;stroke-width:1.0;"/><text fill="#000000" font-family="sans-serif" font-size="13" lengthAdjust="spacing" textLength="5" x="472.4294" y="1925.761">*</text></g><!--link Request to BusinessType--><g id="link_Request_BusinessType"><path codeLine="209" d="M496.34,2000.83 C488.1,2034.56 474.93,2088.46 465.67,2126.34 " fill="none" id="Request-to-BusinessType" style="stroke:#181818;stroke-width:1.0;"/><polygon fill="#181818" points="464.45,2131.34,470.4703,2123.5454,465.6358,2126.4826,462.6985,2121.6481,464.45,2131.34" style="stroke:#181818;stroke-width:1.0;"/><text fill="#000000" font-family="sans-serif" font-size="13" lengthAdjust="spacing" textLength="72" x="483" y="2066.7686">is classified:</text><text fill="#000000" font-family="sans-serif" font-size="13" lengthAdjust="spacing" textLength="5" x="489.4668" y="2019.9314">*</text><text fill="#000000" font-family="sans-serif" font-size="13" lengthAdjust="spacing" textLength="7" x="458.5098" y="2120.8188">1</text></g><!--link Request to Property--><g id="link_Request_Property"><path codeLine="210" d="M546.72,1968.5 C631.91,1968.5 824.78,1968.5 941.62,1968.5 " fill="none" id="Request-to-Property" style="stroke:#181818;stroke-width:1.0;"/><polygon fill="#181818" points="946.78,1968.5,937.78,1964.5,941.78,1968.5,937.78,1972.5,946.78,1968.5" style="stroke:#181818;stroke-width:1.0;"/><text fill="#000000" font-family="sans-serif" font-size="13" lengthAdjust="spacing" textLength="45" x="724.25" y="1962.2686">include:</text><text fill="#000000" font-family="sans-serif" font-size="13" lengthAdjust="spacing" textLength="7" x="554.3752" y="1965.1823">1</text><text fill="#000000" font-family="sans-serif" font-size="13" lengthAdjust="spacing" textLength="7" x="932.0188" y="1965.7287">1</text></g><!--link BusinessType to BusinessTypeRent--><g id="link_BusinessType_BusinessTypeRent"><path codeLine="211" d="M435.71,2210.68 C420.75,2240.69 400.01,2282.28 384.51,2313.37 " fill="none" id="BusinessType-to-BusinessTypeRent" style="stroke:#181818;stroke-width:1.0;"/><polygon fill="#181818" points="382.26,2317.87,389.8546,2311.5993,384.4903,2313.395,382.6946,2308.0307,382.26,2317.87" style="stroke:#181818;stroke-width:1.0;"/><text fill="#000000" font-family="sans-serif" font-size="13" lengthAdjust="spacing" textLength="43" x="404" y="2284.7686">can be:</text></g><!--link BusinessType to BusinessTypeSale--><g id="link_BusinessType_BusinessTypeSale"><path codeLine="212" d="M474.5,2210.68 C490.84,2243.11 514,2289.05 529.93,2320.66 " fill="none" id="BusinessType-to-BusinessTypeSale" style="stroke:#181818;stroke-width:1.0;"/><polygon fill="#181818" points="532.23,2325.22,531.7325,2315.3837,529.9711,2320.7594,524.5954,2318.998,532.23,2325.22" style="stroke:#181818;stroke-width:1.0;"/><text fill="#000000" font-family="sans-serif" font-size="13" lengthAdjust="spacing" textLength="43" x="513" y="2284.7686">can be:</text></g><!--link AdvertisementRepository to Advertisement--><g id="link_AdvertisementRepository_Advertisement"><path codeLine="214" d="M664.91,1071.4 C657.01,1132.18 638.99,1270.67 623.1,1392.85 " fill="none" id="AdvertisementRepository-to-Advertisement" style="stroke:#181818;stroke-width:1.0;"/><polygon fill="#181818" points="622.44,1397.92,627.5642,1389.5092,623.083,1392.9615,619.6307,1388.4803,622.44,1397.92" style="stroke:#181818;stroke-width:1.0;"/><text fill="#000000" font-family="sans-serif" font-size="13" lengthAdjust="spacing" textLength="5" x="618.3722" y="1387.555">*</text></g><!--link AdvertisementRepository to AdvertisementMapper--><g id="link_AdvertisementRepository_AdvertisementMapper"><path codeLine="215" d="M678.74,1071.22 C690.29,1108.24 708,1165 708,1165 C708,1165 730.21,1177.79 755.44,1192.31 " fill="none" id="AdvertisementRepository-to-AdvertisementMapper" style="stroke:#181818;stroke-width:1.0;stroke-dasharray:7.0,7.0;"/><polygon fill="#181818" points="759.85,1194.85,754.0457,1186.8933,755.5167,1192.3555,750.0545,1193.8265,759.85,1194.85" style="stroke:#181818;stroke-width:1.0;"/><text fill="#000000" font-family="sans-serif" font-size="13" lengthAdjust="spacing" textLength="5" x="742.4436" y="1184.3306">*</text></g><!--link AdvertisementMapper to AdvertisementDTO--><g id="link_AdvertisementMapper_AdvertisementDTO"><path codeLine="216" d="M830.85,1274.13 C834.45,1310.21 840.11,1366.93 845.79,1423.9 " fill="none" id="AdvertisementMapper-to-AdvertisementDTO" style="stroke:#181818;stroke-width:1.0;stroke-dasharray:7.0,7.0;"/><polygon fill="#181818" points="846.3,1429.06,849.4059,1419.7137,845.8138,1424.0837,841.4438,1420.4916,846.3,1429.06" style="stroke:#181818;stroke-width:1.0;"/></g><!--link AdvertisementMapper to Advertisement--><g id="link_AdvertisementMapper_Advertisement"><path codeLine="217" d="M803.38,1274.13 C781.73,1309.53 747.94,1364.79 713.77,1420.66 " fill="none" id="AdvertisementMapper-to-Advertisement" style="stroke:#181818;stroke-width:1.0;stroke-dasharray:7.0,7.0;"/><polygon fill="#181818" points="711.1,1425.02,719.21,1419.4317,713.7101,1420.7554,712.3865,1415.2555,711.1,1425.02" style="stroke:#181818;stroke-width:1.0;"/></g><!--link MakeOfferController to AdvertisementCollections--><g id="link_MakeOfferController_AdvertisementCollections"><path codeLine="219" d="M816.19,696.37 C819.43,704.91 822.57,713.2 825.58,721.11 " fill="none" id="MakeOfferController-to-AdvertisementCollections" style="stroke:#181818;stroke-width:1.0;stroke-dasharray:7.0,7.0;"/><polygon fill="#181818" points="827.43,725.99,827.979,716.1565,825.6572,721.3148,820.4988,718.993,827.43,725.99" style="stroke:#181818;stroke-width:1.0;"/></g><!--link AdvertisementCollections to AdvertisementMapper--><g id="link_AdvertisementCollections_AdvertisementMapper"><path codeLine="220" d="M860.03,868.28 C867.71,957.79 880,1101 880,1101 C880,1101 880,1165 880,1165 C880,1165 870.75,1176.95 859.98,1190.88 " fill="none" id="AdvertisementCollections-to-AdvertisementMapper" style="stroke:#181818;stroke-width:1.0;stroke-dasharray:7.0,7.0;"/><polygon fill="#181818" points="856.91,1194.85,865.5777,1190.1733,859.9668,1190.8933,859.2469,1185.2824,856.91,1194.85" style="stroke:#181818;stroke-width:1.0;"/></g><!--link Advertisement to Request--><g id="link_Advertisement_Request"><path codeLine="222" d="M554.31,1837.23 C549.36,1864.47 546,1883 546,1883 C546,1883 533.33,1908.5 521.9,1931.48 " fill="none" id="Advertisement-to-Request" style="stroke:#181818;stroke-width:1.0;"/><polygon fill="#181818" points="519.64,1936.04,527.2346,1929.7693,521.8703,1931.565,520.0746,1926.2007,519.64,1936.04" style="stroke:#181818;stroke-width:1.0;"/><text fill="#000000" font-family="sans-serif" font-size="13" lengthAdjust="spacing" textLength="45" x="549" y="1879.7686">include:</text><text fill="#000000" font-family="sans-serif" font-size="13" lengthAdjust="spacing" textLength="7" x="545.8928" y="1856.4465">1</text><text fill="#000000" font-family="sans-serif" font-size="13" lengthAdjust="spacing" textLength="7" x="515.1439" y="1925.761">1</text></g><!--reverse link Person to PersonRepository--><g id="link_Person_PersonRepository"><path codeLine="224" d="M112.52,492 C139.61,492 169.33,492 169.33,492 C169.33,492 269.67,492 269.67,492 C269.67,492 281.66,492 297.35,492 " fill="none" id="Person-backto-PersonRepository" style="stroke:#181818;stroke-width:1.0;"/><polygon fill="#181818" points="107.5,492,116.5,496,112.5,492,116.5,488,107.5,492" style="stroke:#181818;stroke-width:1.0;"/><text fill="#000000" font-family="sans-serif" font-size="13" lengthAdjust="spacing" textLength="5" x="115.5719" y="488.442">*</text></g><!--link Advertisement to Offer--><g id="link_Advertisement_Offer"><path codeLine="226" d="M476.61,1734.23 C406.59,1803.26 322.47,1886.2 275.75,1932.26 " fill="none" id="Advertisement-to-Offer" style="stroke:#181818;stroke-width:1.0;"/><polygon fill="#181818" points="272.17,1935.78,281.3836,1932.3002,275.7269,1932.266,275.7612,1926.6092,272.17,1935.78" style="stroke:#181818;stroke-width:1.0;"/><text fill="#000000" font-family="sans-serif" font-size="13" lengthAdjust="spacing" textLength="51" x="336" y="1879.7686">receives:</text><text fill="#000000" font-family="sans-serif" font-size="13" lengthAdjust="spacing" textLength="7" x="461.8655" y="1739.0444">1</text><text fill="#000000" font-family="sans-serif" font-size="13" lengthAdjust="spacing" textLength="5" x="280.1874" y="1924.3913">*</text></g><!--link Person to Offer--><g id="link_Person_Offer"><path codeLine="228" d="M65.61,516.01 C52.53,604.91 6,921 6,921 C6,921 6,921 6,1618.5 C6,1618.5 148.58,1831.15 211.15,1924.47 " fill="none" id="Person-to-Offer" style="stroke:#181818;stroke-width:1.0;"/><polygon fill="#181818" points="214.06,1928.82,212.3574,1919.1194,211.27,1924.6708,205.7187,1923.5834,214.06,1928.82" style="stroke:#181818;stroke-width:1.0;"/><text fill="#000000" font-family="sans-serif" font-size="13" lengthAdjust="spacing" textLength="43" x="7" y="1137.7686">makes:</text><text fill="#000000" font-family="sans-serif" font-size="13" lengthAdjust="spacing" textLength="5" x="59.1007" y="535.7919">*</text><text fill="#000000" font-family="sans-serif" font-size="13" lengthAdjust="spacing" textLength="7" x="201.816" y="1918.2952">1</text></g><!--SRC=[lLXBRziu4BxhLn2vDDtOnURgB08eSHODa4SHErbWKM11IvHDH1PLaahMTVFVTsRq8lMeUydca8Wp7uVap3V3OJwOPvdbNFCjswfCHHkjje9PNOYWrUGyUkPhiR2xL30j8ikpTUe2p8R7wbLcQvRmrBYQL6R2xdB1SfNkS11y650gRLNWp8fIRanehPQhmehhI6KB-LsmtuFWGoeIownYMgutbiKIjoDL5WGqXztoPt6V948_NhDzC6LVjCg5jhibBlCiHEuABZTAHk8CO1U5WRqOqy1SGGkBLR425n3YCfKYixJMMN328Ysu5UtwbogpMgMfqCSVGPrAOyCi1bFA27SFVQsxjAkTIvEdVCThN1Y_W15fn1RsCL_U7myVRp9o7hIinHfi2tqdNcdJnrsRZCSb6huddX8q4Mbe8XhZSLpRMQemFlu9V59xikF8oG923YngnLTRBbEq7fUd1xV64WDkGlEyL31CfDuExRjSxaaQYO89eo_sWhyTU_VWBOxs5aK4xW5_lm79_dcddnvBMvOGMnz4hc1_IajX83ZjuCoXSWFQiRmdEYChtmfXh8FJNGd2F9yvO3uiHvAlXRtE3AH_L38JnYxXRe1CjTmbd2klL_MDrzeow8z6Q0eyYG4lansvwucdXRXHhq8lU0ff105cBiPkX2QWwKeTafMwBbi_lclOgxXxyUq6lFP1ws4sym2-m_lESrtUr_POSJ0YR- -V2Ft3xFrJLjHv2sG6TIhX4F1QHGwiwWY7wkiKQ4XkSY6ARbH42SxIweE40FYZB3RdBDyegzQQvnl8ixTgPpTGP_VDA8HxoQA3S4tOoenbnNObz8M8jL9Ruqk_S0rNsRe3vNPJOykLPuo_0CavxFZgMo5pjD-i-5aLHhpxQbEsKYeLF9kn5IyptfLj-4fQd76Z4joQ0EDiKMHN_qAu2YtekjmxIzp1JRwPi8KgyCyLDtR2_WBMDSTo9hCgr1rx56rQoBkxzy5DU3Td9opy4ZuiRw_kbl3z-VvnSHKm-8c5YRJCgHLmoT947tTfh1O23_XTvfSg5YI2M_jn0L-Hj3ja4303wefzL_RNrQ2JaNilKnlgUsWynnmxZHX-jNHrSty_Me4hnthTpdx0VtsR3oNto_oQQHZnbEflC4NMnKLvYz9znYCxQ0DhTfkpCrENyF_1rMDttTulWQJk-DrlO_Rj_KfTIlLzTgZLFDXakXQysMU_LEKW28D5OgX6Z9Q8drQ8WG819JN1ePlKfiXQUqt2LMF8ErS936w7LVvLeoODnsjrwuYMIOq86LgByCX8K7eet2SDHxr4AjSfkyHwGDt1C15kUGxHGVfOXRrtjzd5kpM1jnJeh0hdGmqg_1vX6MZGijCZXnHvJzH6_-GGzKuEKU-4V8JoEuz3jSOZ4VEb3Or8FaeaqbvqgEG9aKob3PzEhbtSue98rH7-BVCUZEBgoIwbtNL4yufeAFQOHcvqEmFF-qt_sP4_rBnpdJglgcFBFTGI-KXTLV8XAbpYuu28Q_RzTWs8WdjUmAqhug_PSTv__Qq67txbQnKQuD9QcARNMQBqbhP91P371lzEMD_crsp2XiqQs4WOKmxXv8iT7WrDDQAgvtoYpfoaIxaLVq94ZxqdswH-gJLkeMGiBoki78MXpnTy4I38VVX_YjLhzkbyw9db09stLpt1xRPdtWCi2BpUVOeJfkS3_Uimpg7q8UXm5p-CxNKG7LYHunxXoQEoGwP6RiWW67XsrdEEVZjgFD3WsD7fKOiuFVAAquo1t8nZwtQjmc4JJgVuqRewQ7hndePwvfxKBIUbHmZdowlJT7fHZ7htBUqUljBMA99vvt63EMFIbF_PaeaKyQoTTOgpV6S1E8lI8XQpmAlTmop1lZ_2klehS2nTBJmOQutSStgOqHbr5lLcb9TbC21hvdJllry7ZsJq-MWT3SOKlKdLllq962QW2mQh2g0Jgw2RR6oA_x2iSuMKm_OGG8V0kXC9-G8Lg3P7awSLGohG5WuDYFy0]--></g></svg>