<?xml version="1.0" encoding="us-ascii" standalone="no"?><svg xmlns="http://www.w3.org/2000/svg" xmlns:xlink="http://www.w3.org/1999/xlink" contentStyleType="text/css" height="690px" preserveAspectRatio="none" style="width:770px;height:690px;background:#FFFFFF;" version="1.1" viewBox="0 0 770 690" width="770px" zoomAndPan="magnify"><defs/><g><!--class Person--><g id="elem_Person"><rect codeLine="64" fill="#F1F1F1" height="129.7266" id="Person" rx="2.5" ry="2.5" style="stroke:#181818;stroke-width:0.5;" width="101" x="470" y="7"/><text fill="#000000" font-family="sans-serif" font-size="14" lengthAdjust="spacing" textLength="45" x="498" y="27.1074">Person</text><line style="stroke:#181818;stroke-width:0.5;" x1="471" x2="570" y1="35.6211" y2="35.6211"/><text fill="#000000" font-family="sans-serif" font-size="14" lengthAdjust="spacing" textLength="85" x="476" y="54.7285">emailAddress</text><text fill="#000000" font-family="sans-serif" font-size="14" lengthAdjust="spacing" textLength="55" x="476" y="73.3496">passport</text><text fill="#000000" font-family="sans-serif" font-size="14" lengthAdjust="spacing" textLength="15" x="476" y="91.9707">tin</text><text fill="#000000" font-family="sans-serif" font-size="14" lengthAdjust="spacing" textLength="89" x="476" y="110.5918">phoneNumber</text><text fill="#000000" font-family="sans-serif" font-size="14" lengthAdjust="spacing" textLength="35" x="476" y="129.2129">name</text></g><!--class Offer--><g id="elem_Offer"><rect codeLine="15" fill="#F1F1F1" height="55.2422" id="Offer" rx="2.5" ry="2.5" style="stroke:#181818;stroke-width:0.5;" width="41" x="7" y="573"/><text fill="#000000" font-family="sans-serif" font-size="14" lengthAdjust="spacing" textLength="32" x="11.5" y="593.1074">Offer</text><line style="stroke:#181818;stroke-width:0.5;" x1="8" x2="47" y1="601.6211" y2="601.6211"/><text fill="#000000" font-family="sans-serif" font-size="14" lengthAdjust="spacing" textLength="29" x="13" y="620.7285">offer</text></g><!--class Advertisement--><g id="elem_Advertisement"><rect codeLine="19" fill="#F1F1F1" height="92.4844" id="Advertisement" rx="2.5" ry="2.5" style="stroke:#181818;stroke-width:0.5;" width="121" x="81" y="356"/><text fill="#000000" font-family="sans-serif" font-size="14" lengthAdjust="spacing" textLength="90" x="96.5" y="376.1074">Advertisement</text><line style="stroke:#181818;stroke-width:0.5;" x1="82" x2="201" y1="384.6211" y2="384.6211"/><text fill="#000000" font-family="sans-serif" font-size="14" lengthAdjust="spacing" textLength="28" x="87" y="403.7285">date</text><text fill="#000000" font-family="sans-serif" font-size="14" lengthAdjust="spacing" textLength="105" x="87" y="422.3496">commissionType</text><text fill="#000000" font-family="sans-serif" font-size="14" lengthAdjust="spacing" textLength="109" x="87" y="440.9707">commissionValue</text></g><!--class Property--><g id="elem_Property"><rect codeLine="27" fill="#F1F1F1" height="108.4453" id="Property" rx="2.5" ry="2.5" style="stroke:#181818;stroke-width:0.5;" width="132" x="237.5" y="348"/><text fill="#000000" font-family="sans-serif" font-size="12" font-style="italic" lengthAdjust="spacing" textLength="62" x="272.5" y="365.9492">&#171;Interface&#187;</text><text fill="#000000" font-family="sans-serif" font-size="14" lengthAdjust="spacing" textLength="54" x="276.5" y="384.0684">Property</text><line style="stroke:#181818;stroke-width:0.5;" x1="238.5" x2="368.5" y1="392.582" y2="392.582"/><text fill="#000000" font-family="sans-serif" font-size="14" lengthAdjust="spacing" textLength="43" x="243.5" y="411.6895">photos</text><text fill="#000000" font-family="sans-serif" font-size="14" lengthAdjust="spacing" textLength="83" x="243.5" y="430.3105">areaProperty</text><text fill="#000000" font-family="sans-serif" font-size="14" lengthAdjust="spacing" textLength="120" x="243.5" y="448.9316">distanceCityCenter</text></g><!--class House--><g id="elem_House"><rect codeLine="33" fill="#F1F1F1" height="166.9688" id="House" rx="2.5" ry="2.5" style="stroke:#181818;stroke-width:0.5;" width="135" x="83" y="517"/><text fill="#000000" font-family="sans-serif" font-size="14" lengthAdjust="spacing" textLength="40" x="130.5" y="537.1074">House</text><line style="stroke:#181818;stroke-width:0.5;" x1="84" x2="217" y1="545.6211" y2="545.6211"/><text fill="#000000" font-family="sans-serif" font-size="14" lengthAdjust="spacing" textLength="112" x="89" y="564.7285">numberBedrooms</text><text fill="#000000" font-family="sans-serif" font-size="14" lengthAdjust="spacing" textLength="116" x="89" y="583.3496">numberBathrooms</text><text fill="#000000" font-family="sans-serif" font-size="14" lengthAdjust="spacing" textLength="96" x="89" y="601.9707">numberParking</text><text fill="#000000" font-family="sans-serif" font-size="14" lengthAdjust="spacing" textLength="123" x="89" y="620.5918">availableEquipment</text><text fill="#000000" font-family="sans-serif" font-size="14" lengthAdjust="spacing" textLength="62" x="89" y="639.2129">basement</text><text fill="#000000" font-family="sans-serif" font-size="14" lengthAdjust="spacing" textLength="19" x="89" y="657.834">loft</text><text fill="#000000" font-family="sans-serif" font-size="14" lengthAdjust="spacing" textLength="82" x="89" y="676.4551">sunExposure</text></g><!--class Apartment--><g id="elem_Apartment"><rect codeLine="43" fill="#F1F1F1" height="111.1055" id="Apartment" rx="2.5" ry="2.5" style="stroke:#181818;stroke-width:0.5;" width="135" x="253" y="545"/><text fill="#000000" font-family="sans-serif" font-size="14" lengthAdjust="spacing" textLength="65" x="288" y="565.1074">Apartment</text><line style="stroke:#181818;stroke-width:0.5;" x1="254" x2="387" y1="573.6211" y2="573.6211"/><text fill="#000000" font-family="sans-serif" font-size="14" lengthAdjust="spacing" textLength="112" x="259" y="592.7285">numberBedrooms</text><text fill="#000000" font-family="sans-serif" font-size="14" lengthAdjust="spacing" textLength="116" x="259" y="611.3496">numberBathrooms</text><text fill="#000000" font-family="sans-serif" font-size="14" lengthAdjust="spacing" textLength="96" x="259" y="629.9707">numberParking</text><text fill="#000000" font-family="sans-serif" font-size="14" lengthAdjust="spacing" textLength="123" x="259" y="648.5918">availableEquipment</text></g><!--class Land--><g id="elem_Land"><rect codeLine="49" fill="#F1F1F1" height="36.6211" id="Land" rx="2.5" ry="2.5" style="stroke:#181818;stroke-width:0.5;" width="38" x="423.5" y="582"/><text fill="#000000" font-family="sans-serif" font-size="14" lengthAdjust="spacing" textLength="32" x="426.5" y="602.1074">Land</text><line style="stroke:#181818;stroke-width:0.5;" x1="424.5" x2="460.5" y1="610.6211" y2="610.6211"/></g><!--class Request--><g id="elem_Request"><rect codeLine="51" fill="#F1F1F1" height="71.2031" id="Request" rx="2.5" ry="2.5" style="stroke:#181818;stroke-width:0.5;" width="64" x="488.5" y="198"/><text fill="#000000" font-family="sans-serif" font-size="12" font-style="italic" lengthAdjust="spacing" textLength="62" x="489.5" y="215.9492">&#171;Interface&#187;</text><text fill="#000000" font-family="sans-serif" font-size="14" lengthAdjust="spacing" textLength="53" x="494" y="234.0684">Request</text><line style="stroke:#181818;stroke-width:0.5;" x1="489.5" x2="551.5" y1="242.582" y2="242.582"/><text fill="#000000" font-family="sans-serif" font-size="14" lengthAdjust="spacing" textLength="28" x="494.5" y="261.6895">date</text></g><!--class RequestSale--><g id="elem_RequestSale"><rect codeLine="55" fill="#F1F1F1" height="55.2422" id="RequestSale" rx="2.5" ry="2.5" style="stroke:#181818;stroke-width:0.5;" width="87" x="405" y="374.5"/><text fill="#000000" font-family="sans-serif" font-size="14" lengthAdjust="spacing" textLength="81" x="408" y="394.6074">RequestSale</text><line style="stroke:#181818;stroke-width:0.5;" x1="406" x2="491" y1="403.1211" y2="403.1211"/><text fill="#000000" font-family="sans-serif" font-size="14" lengthAdjust="spacing" textLength="58" x="411" y="422.2285">salePrice</text></g><!--class RequestLease--><g id="elem_RequestLease"><rect codeLine="58" fill="#F1F1F1" height="73.8633" id="RequestLease" rx="2.5" ry="2.5" style="stroke:#181818;stroke-width:0.5;" width="133" x="527" y="365"/><text fill="#000000" font-family="sans-serif" font-size="14" lengthAdjust="spacing" textLength="92" x="547.5" y="385.1074">RequestLease</text><line style="stroke:#181818;stroke-width:0.5;" x1="528" x2="659" y1="393.6211" y2="393.6211"/><text fill="#000000" font-family="sans-serif" font-size="14" lengthAdjust="spacing" textLength="68" x="533" y="412.7285">rentalPrice</text><text fill="#000000" font-family="sans-serif" font-size="14" lengthAdjust="spacing" textLength="121" x="533" y="431.3496">durationOfContract</text></g><!--class Employee--><g id="elem_Employee"><rect codeLine="71" fill="#F1F1F1" height="36.6211" id="Employee" rx="2.5" ry="2.5" style="stroke:#181818;stroke-width:0.5;" width="68" x="695.5" y="383.5"/><text fill="#000000" font-family="sans-serif" font-size="14" lengthAdjust="spacing" textLength="62" x="698.5" y="403.6074">Employee</text><line style="stroke:#181818;stroke-width:0.5;" x1="696.5" x2="762.5" y1="412.1211" y2="412.1211"/></g><!--reverse link Request to RequestSale--><g id="link_Request_RequestSale"><path codeLine="75" d="M497.43,287.85 C484.95,316.72 470.07,351.12 460.03,374.35 " fill="none" id="Request-backto-RequestSale" style="stroke:#181818;stroke-width:1.0;stroke-dasharray:7.0,7.0;"/><polygon fill="none" points="491.04,284.98,505.41,269.4,503.89,290.54,491.04,284.98" style="stroke:#181818;stroke-width:1.0;"/></g><!--reverse link Request to RequestLease--><g id="link_Request_RequestLease"><path codeLine="76" d="M543.98,288.06 C555.01,313.21 567.87,342.53 577.71,364.99 " fill="none" id="Request-backto-RequestLease" style="stroke:#181818;stroke-width:1.0;stroke-dasharray:7.0,7.0;"/><polygon fill="none" points="537.42,290.53,535.8,269.4,550.24,284.91,537.42,290.53" style="stroke:#181818;stroke-width:1.0;"/></g><!--reverse link Person to Employee--><g id="link_Person_Employee"><path codeLine="78" d="M577.34,154 C606.63,196.6 642.42,250.02 672.5,299 C690.34,328.04 709.31,362.89 720.25,383.42 " fill="none" id="Person-backto-Employee" style="stroke:#181818;stroke-width:1.0;"/><polygon fill="none" points="571.44,157.78,565.84,137.35,582.97,149.83,571.44,157.78" style="stroke:#181818;stroke-width:1.0;"/></g><!--link Person to Offer--><g id="link_Person_Offer"><path codeLine="80" d="M469.79,87.47 C372.95,117.98 162.54,198.68 63.5,348 C16.93,418.21 19.81,523.65 24.28,572.67 " fill="none" id="Person-Offer" style="stroke:#181818;stroke-width:1.0;"/><polygon fill="#000000" points="104.1183,312.3285,112.4006,307.6536,108.0711,303.6782,104.1183,312.3285" style="stroke:#000000;stroke-width:1.0;"/><text fill="#000000" font-family="sans-serif" font-size="13" lengthAdjust="spacing" textLength="39" x="116.5" y="314.0283">makes</text><text fill="#000000" font-family="sans-serif" font-size="13" lengthAdjust="spacing" textLength="7" x="455.1667" y="85.5182">1</text><text fill="#000000" font-family="sans-serif" font-size="13" lengthAdjust="spacing" textLength="5" x="18.0288" y="561.7565">*</text></g><!--link Request to Advertisement--><g id="link_Request_Advertisement"><path codeLine="82" d="M488.25,243.9 C431.97,260.89 312.94,299.51 219.5,348 C213.83,350.94 208.08,354.22 202.4,357.66 " fill="none" id="Request-Advertisement" style="stroke:#181818;stroke-width:1.0;"/><text fill="#000000" font-family="sans-serif" font-size="13" lengthAdjust="spacing" textLength="7" x="473.4297" y="241.3536">1</text><text fill="#000000" font-family="sans-serif" font-size="13" lengthAdjust="spacing" textLength="7" x="209.8463" y="348.5675">1</text></g><!--link Advertisement to Offer--><g id="link_Advertisement_Offer"><path codeLine="84" d="M109.13,448.01 C94.96,468.58 78.62,493.54 65.5,517 C55.34,535.17 45.56,556.53 38.46,572.97 " fill="none" id="Advertisement-Offer" style="stroke:#181818;stroke-width:1.0;"/><text fill="#000000" font-family="sans-serif" font-size="13" lengthAdjust="spacing" textLength="7" x="96.6374" y="470.3704">1</text><text fill="#000000" font-family="sans-serif" font-size="13" lengthAdjust="spacing" textLength="5" x="35.4164" y="561.672">*</text></g><!--link Request to Property--><g id="link_Request_Property"><path codeLine="86" d="M488.48,259.07 C457.36,282.95 409.15,319.94 369.75,350.17 " fill="none" id="Request-Property" style="stroke:#181818;stroke-width:1.0;"/><text fill="#000000" font-family="sans-serif" font-size="13" lengthAdjust="spacing" textLength="7" x="473.71" y="280.5607">1</text><text fill="#000000" font-family="sans-serif" font-size="13" lengthAdjust="spacing" textLength="7" x="377.3789" y="340.5913">1</text></g><!--link Request to Employee--><g id="link_Request_Employee"><path codeLine="87" d="M552.74,265.08 C582.13,286.89 625.19,317.62 660.5,348 C673.3,359.01 686.62,372.63 698.85,383.31 " fill="none" id="Request-Employee" style="stroke:#181818;stroke-width:1.0;"/><text fill="#000000" font-family="sans-serif" font-size="13" lengthAdjust="spacing" textLength="5" x="560.3394" y="267.1667">*</text><text fill="#000000" font-family="sans-serif" font-size="13" lengthAdjust="spacing" textLength="7" x="681.3916" y="372.114">1</text></g><!--link Employee to Request--><g id="link_Employee_Request"><path codeLine="92" d="M728.98,383.06 C721.41,372.43 708.2,358.93 695.5,348 C649.35,308.3 589.98,268 552.79,247.79 " fill="none" id="Employee-Request" style="stroke:#181818;stroke-width:1.0;"/><text fill="#000000" font-family="sans-serif" font-size="13" lengthAdjust="spacing" textLength="7" x="720.7991" y="372.1262">1</text><text fill="#000000" font-family="sans-serif" font-size="13" lengthAdjust="spacing" textLength="5" x="560.4003" y="246.0945">*</text></g><!--link Person to Request--><g id="link_Person_Request"><path codeLine="90" d="M520.5,137.42 C520.5,157.99 520.5,179.99 520.5,197.63 " fill="none" id="Person-Request" style="stroke:#181818;stroke-width:1.0;"/><text fill="#000000" font-family="sans-serif" font-size="13" lengthAdjust="spacing" textLength="7" x="513.1555" y="158.7526">1</text><text fill="#000000" font-family="sans-serif" font-size="13" lengthAdjust="spacing" textLength="5" x="515.0547" y="186.7627">*</text></g><!--reverse link Property to Land--><g id="link_Property_Land"><path codeLine="94" d="M370.69,471.31 C383.12,485.76 395.36,501.38 405.5,517 C419.09,537.94 430.07,564.69 436.44,581.96 " fill="none" id="Property-backto-Land" style="stroke:#181818;stroke-width:1.0;stroke-dasharray:7.0,7.0;"/><polygon fill="none" points="365.28,475.76,357.22,456.16,375.74,466.46,365.28,475.76" style="stroke:#181818;stroke-width:1.0;"/></g><!--reverse link Property to Apartment--><g id="link_Property_Apartment"><path codeLine="95" d="M309.85,476.36 C311.81,499.08 313.94,523.7 315.78,544.91 " fill="none" id="Property-backto-Apartment" style="stroke:#181818;stroke-width:1.0;stroke-dasharray:7.0,7.0;"/><polygon fill="none" points="302.85,476.7,308.1,456.18,316.8,475.5,302.85,476.7" style="stroke:#181818;stroke-width:1.0;"/></g><!--reverse link Property to House--><g id="link_Property_House"><path codeLine="96" d="M249.77,472.01 C238.52,486.45 226.56,501.82 214.97,516.7 " fill="none" id="Property-backto-House" style="stroke:#181818;stroke-width:1.0;stroke-dasharray:7.0,7.0;"/><polygon fill="none" points="244.29,467.66,262.1,456.18,255.33,476.26,244.29,467.66" style="stroke:#181818;stroke-width:1.0;"/></g><!--SRC=[hLF1Rjim3BthAuHS1XHeiLs7841M15Y1OWsMONT6fcCXakXITBSiwxzFbX8xCNAS3pRz-4W-KbJSsz02WzUU0fc6oQCMxb35mTE2sSCEDt9mg1cDGDYvIq9ieA9VDknq3IwYKXySrgA5DDjT8xgoVPIbe2w2Z8CObo9ijvtWaw6miNzGVrIgiHLgOzca8jdsA0rLKQaSezV8aS9HlP-1bxf6FYgT7khDqREitf35HlGOH1TA1OBPCEIzZJ7f-d5efz1FS6a8AT5GbQbDkGvwFdyAWbo3mSMYf6mR4ehP14OuKqiv6zF033vQEJnY7pdA-qfTn9EiqFajyXUicCZ7ImYacM9hu3J8NQdu1jR1rk7gjRDjtsY6jr2wpZ-EwcB4Bgn-jnGxneiffHEHdll_bRoVIZn3g8v3mU_usc6K6vFCXpFbRS3XKSNqNhCrE2GzkPynjLh2ETK4LrWvNSVGBzvB_KX168pa8xtUevw8FabVLXLZBDsrYT4Ibwc93UTp3lWjzrr607vKi_AjemCc9NsDapOz__lmSDd7JKVkGAaYA7dkxuTi0phxDDC9dztDohv_zh37g1TZgJCZVQxsNgdhQp3DT3F3iCE3xsxmZTfkY3lnbJgpRZh7szIFeT-E2JJiv0JFLqQfVm00]--></g></svg>