<?xml version="1.0" encoding="us-ascii" standalone="no"?><svg xmlns="http://www.w3.org/2000/svg" xmlns:xlink="http://www.w3.org/1999/xlink" contentStyleType="text/css" height="620px" preserveAspectRatio="none" style="width:691px;height:620px;background:#FFFFFF;" version="1.1" viewBox="0 0 691 620" width="691px" zoomAndPan="magnify"><defs/><g><text fill="#000000" font-family="sans-serif" font-size="14" font-weight="bold" lengthAdjust="spacing" textLength="228" x="233" y="27.6738">System Sequence Diagram (SSD)</text><rect fill="#FFFFFF" height="395.3281" style="stroke:#181818;stroke-width:1.0;" width="10" x="85" y="127.2813"/><rect fill="#FFFFFF" height="374.8047" style="stroke:#181818;stroke-width:1.0;" width="10" x="628" y="147.8047"/><rect fill="none" height="218.1875" style="stroke:#000000;stroke-width:1.5;" width="675" x="10" y="219.8516"/><rect fill="none" height="73.5703" style="stroke:#000000;stroke-width:1.5;" width="655" x="20" y="357.4688"/><line style="stroke:#181818;stroke-width:0.5;stroke-dasharray:5.0,5.0;" x1="90" x2="90" y1="117.2813" y2="540.6094"/><line style="stroke:#181818;stroke-width:0.5;stroke-dasharray:5.0,5.0;" x1="633" x2="633" y1="117.2813" y2="540.6094"/><text fill="#000000" font-family="sans-serif" font-size="14" lengthAdjust="spacing" textLength="114" x="30" y="114.3145">Unregistered User</text><ellipse cx="90" cy="50.1406" fill="#E3E3E3" rx="8" ry="8" style="stroke:#181818;stroke-width:0.5;"/><path d="M90,58.1406 L90,85.1406 M77,66.1406 L103,66.1406 M90,85.1406 L77,100.1406 M90,85.1406 L103,100.1406 " fill="none" style="stroke:#181818;stroke-width:0.5;"/><text fill="#000000" font-family="sans-serif" font-size="14" lengthAdjust="spacing" textLength="114" x="30" y="552.2832">Unregistered User</text><ellipse cx="90" cy="563.75" fill="#E3E3E3" rx="8" ry="8" style="stroke:#181818;stroke-width:0.5;"/><path d="M90,571.75 L90,598.75 M77,579.75 L103,579.75 M90,598.75 L77,613.75 M90,598.75 L103,613.75 " fill="none" style="stroke:#181818;stroke-width:0.5;"/><rect fill="#E3E3E3" height="29.6406" rx="2.5" ry="2.5" style="stroke:#181818;stroke-width:0.5;" width="64" x="601" y="86.6406"/><text fill="#000000" font-family="sans-serif" font-size="14" lengthAdjust="spacing" textLength="50" x="608" y="106.3145">:System</text><rect fill="#E3E3E3" height="29.6406" rx="2.5" ry="2.5" style="stroke:#181818;stroke-width:0.5;" width="64" x="601" y="539.6094"/><text fill="#000000" font-family="sans-serif" font-size="14" lengthAdjust="spacing" textLength="50" x="608" y="559.2832">:System</text><rect fill="#FFFFFF" height="395.3281" style="stroke:#181818;stroke-width:1.0;" width="10" x="85" y="127.2813"/><rect fill="#FFFFFF" height="374.8047" style="stroke:#181818;stroke-width:1.0;" width="10" x="628" y="147.8047"/><polygon fill="#181818" points="616,143.8047,626,147.8047,616,151.8047,620,147.8047" style="stroke:#181818;stroke-width:1.0;"/><line style="stroke:#181818;stroke-width:1.0;" x1="95" x2="622" y1="147.8047" y2="147.8047"/><text fill="#000000" font-family="sans-serif" font-size="13" font-weight="bold" lengthAdjust="spacing" textLength="7" x="102" y="143.0498">1</text><text fill="#000000" font-family="sans-serif" font-size="13" lengthAdjust="spacing" textLength="125" x="113" y="143.0498">asks to list properties</text><polygon fill="#181818" points="106,172.3281,96,176.3281,106,180.3281,102,176.3281" style="stroke:#181818;stroke-width:1.0;"/><line style="stroke:#181818;stroke-width:1.0;stroke-dasharray:2.0,2.0;" x1="100" x2="627" y1="176.3281" y2="176.3281"/><text fill="#000000" font-family="sans-serif" font-size="13" font-weight="bold" lengthAdjust="spacing" textLength="7" x="112" y="171.5732">2</text><text fill="#000000" font-family="sans-serif" font-size="13" lengthAdjust="spacing" textLength="498" x="123" y="171.5732">asks if the user want to use filters (business type, number of bedrooms, property type)</text><polygon fill="#181818" points="616,200.8516,626,204.8516,616,208.8516,620,204.8516" style="stroke:#181818;stroke-width:1.0;"/><line style="stroke:#181818;stroke-width:1.0;" x1="95" x2="622" y1="204.8516" y2="204.8516"/><text fill="#000000" font-family="sans-serif" font-size="13" font-weight="bold" lengthAdjust="spacing" textLength="7" x="102" y="200.0967">3</text><text fill="#000000" font-family="sans-serif" font-size="13" lengthAdjust="spacing" textLength="73" x="113" y="200.0967">send answer</text><path d="M10,219.8516 L79,219.8516 L79,226.375 L69,236.375 L10,236.375 L10,219.8516 " fill="#EEEEEE" style="stroke:#000000;stroke-width:1.5;"/><rect fill="none" height="218.1875" style="stroke:#000000;stroke-width:1.5;" width="675" x="10" y="219.8516"/><text fill="#000000" font-family="sans-serif" font-size="13" font-weight="bold" lengthAdjust="spacing" textLength="20" x="25" y="232.6201">opt</text><text fill="#000000" font-family="sans-serif" font-size="11" font-weight="bold" lengthAdjust="spacing" textLength="85" x="94" y="231.8096">[answer = true]</text><polygon fill="#181818" points="106,252.8984,96,256.8984,106,260.8984,102,256.8984" style="stroke:#181818;stroke-width:1.0;"/><line style="stroke:#181818;stroke-width:1.0;stroke-dasharray:2.0,2.0;" x1="100" x2="627" y1="256.8984" y2="256.8984"/><text fill="#000000" font-family="sans-serif" font-size="13" font-weight="bold" lengthAdjust="spacing" textLength="7" x="112" y="252.1436">4</text><text fill="#000000" font-family="sans-serif" font-size="13" lengthAdjust="spacing" textLength="140" x="123" y="252.1436">displays business types</text><polygon fill="#181818" points="616,281.4219,626,285.4219,616,289.4219,620,285.4219" style="stroke:#181818;stroke-width:1.0;"/><line style="stroke:#181818;stroke-width:1.0;" x1="95" x2="622" y1="285.4219" y2="285.4219"/><text fill="#000000" font-family="sans-serif" font-size="13" font-weight="bold" lengthAdjust="spacing" textLength="7" x="102" y="280.667">5</text><text fill="#000000" font-family="sans-serif" font-size="13" lengthAdjust="spacing" textLength="127" x="113" y="280.667">selects business type</text><polygon fill="#181818" points="106,309.9453,96,313.9453,106,317.9453,102,313.9453" style="stroke:#181818;stroke-width:1.0;"/><line style="stroke:#181818;stroke-width:1.0;stroke-dasharray:2.0,2.0;" x1="100" x2="627" y1="313.9453" y2="313.9453"/><text fill="#000000" font-family="sans-serif" font-size="13" font-weight="bold" lengthAdjust="spacing" textLength="7" x="112" y="309.1904">6</text><text fill="#000000" font-family="sans-serif" font-size="13" lengthAdjust="spacing" textLength="135" x="123" y="309.1904">displays property types</text><polygon fill="#181818" points="616,338.4688,626,342.4688,616,346.4688,620,342.4688" style="stroke:#181818;stroke-width:1.0;"/><line style="stroke:#181818;stroke-width:1.0;" x1="95" x2="622" y1="342.4688" y2="342.4688"/><text fill="#000000" font-family="sans-serif" font-size="13" font-weight="bold" lengthAdjust="spacing" textLength="7" x="102" y="337.7139">7</text><text fill="#000000" font-family="sans-serif" font-size="13" lengthAdjust="spacing" textLength="122" x="113" y="337.7139">selects property type</text><path d="M20,357.4688 L85,357.4688 L85,363.9922 L75,373.9922 L20,373.9922 L20,357.4688 " fill="#EEEEEE" style="stroke:#000000;stroke-width:1.5;"/><rect fill="none" height="73.5703" style="stroke:#000000;stroke-width:1.5;" width="655" x="20" y="357.4688"/><text fill="#000000" font-family="sans-serif" font-size="13" font-weight="bold" lengthAdjust="spacing" textLength="20" x="35" y="370.2373">opt</text><text fill="#000000" font-family="sans-serif" font-size="11" font-weight="bold" lengthAdjust="spacing" textLength="153" x="100" y="369.4268">[keepPropertyType != Land]</text><polygon fill="#181818" points="106,390.5156,96,394.5156,106,398.5156,102,394.5156" style="stroke:#181818;stroke-width:1.0;"/><line style="stroke:#181818;stroke-width:1.0;stroke-dasharray:2.0,2.0;" x1="100" x2="627" y1="394.5156" y2="394.5156"/><text fill="#000000" font-family="sans-serif" font-size="13" font-weight="bold" lengthAdjust="spacing" textLength="7" x="112" y="389.7607">8</text><text fill="#000000" font-family="sans-serif" font-size="13" lengthAdjust="spacing" textLength="150" x="123" y="389.7607">asks number of bedrooms</text><polygon fill="#181818" points="616,419.0391,626,423.0391,616,427.0391,620,423.0391" style="stroke:#181818;stroke-width:1.0;"/><line style="stroke:#181818;stroke-width:1.0;" x1="95" x2="622" y1="423.0391" y2="423.0391"/><text fill="#000000" font-family="sans-serif" font-size="13" font-weight="bold" lengthAdjust="spacing" textLength="7" x="102" y="418.2842">9</text><text fill="#000000" font-family="sans-serif" font-size="13" lengthAdjust="spacing" textLength="147" x="113" y="418.2842">type number of bedrooms</text><polygon fill="#181818" points="106,461.5625,96,465.5625,106,469.5625,102,465.5625" style="stroke:#181818;stroke-width:1.0;"/><line style="stroke:#181818;stroke-width:1.0;stroke-dasharray:2.0,2.0;" x1="100" x2="627" y1="465.5625" y2="465.5625"/><text fill="#000000" font-family="sans-serif" font-size="13" font-weight="bold" lengthAdjust="spacing" textLength="14" x="112" y="460.8076">10</text><text fill="#000000" font-family="sans-serif" font-size="13" lengthAdjust="spacing" textLength="128" x="130" y="460.8076">displays sort methods</text><polygon fill="#181818" points="616,490.0859,626,494.0859,616,498.0859,620,494.0859" style="stroke:#181818;stroke-width:1.0;"/><line style="stroke:#181818;stroke-width:1.0;" x1="95" x2="622" y1="494.0859" y2="494.0859"/><text fill="#000000" font-family="sans-serif" font-size="13" font-weight="bold" lengthAdjust="spacing" textLength="14" x="102" y="489.3311">11</text><text fill="#000000" font-family="sans-serif" font-size="13" lengthAdjust="spacing" textLength="115" x="120" y="489.3311">selects sort method</text><polygon fill="#181818" points="101,518.6094,91,522.6094,101,526.6094,97,522.6094" style="stroke:#181818;stroke-width:1.0;"/><line style="stroke:#181818;stroke-width:1.0;stroke-dasharray:2.0,2.0;" x1="95" x2="632" y1="522.6094" y2="522.6094"/><text fill="#000000" font-family="sans-serif" font-size="13" font-weight="bold" lengthAdjust="spacing" textLength="14" x="107" y="517.8545">12</text><text fill="#000000" font-family="sans-serif" font-size="13" lengthAdjust="spacing" textLength="137" x="125" y="517.8545">display listed properties</text><!--SRC=[ZLFBJiCm4BpxAuQUYaH_eA98IBqWWOGKUa8St6IRMariutMeylUiqrSC2F0XocfdPiUxQzuPwtNGBLfdNRaDhYN4q97YSyRhSgThAcBV40ALKTkw6GDugoktDxR6HZTCIaKJ1Lhq7Ab5GUyTsPAmDBfEy6bHBA-LqbrqjclN5EI_Z2vWihA1QYEiG1LMJ642pRXVFYaf54rflBOHa_b1UKYk7WQs-T2H1gII3sPtai1S03j6T6X453uuJo93h9I2d3ClYU1u4lrsDXlnpGPnI-Z43_R9W0XAW8rfn2bZkkxOM6Afr7kwmU5IS1kigGhEjNnpgjqFaEkysc1s3YPRGLlUfuQSydLmdOVp4Q-751R3UDuka7J4x4naajeSbM7Vw9wH-UASSIdCrCXClw3LV_IpI_sfdw6_wASBxeZyyn7p8X1SBV2eRPKZSpV72Ntl-7VIgDF9m9yS6bVEWcn3pirW5o9QYbjNyG_pHHhmeH4Zv2zTFYaFkolFORoz2LnHjhwZCBs2Jm00]--></g></svg>