<?xml version="1.0" encoding="us-ascii" standalone="no"?><svg xmlns="http://www.w3.org/2000/svg" xmlns:xlink="http://www.w3.org/1999/xlink" contentStyleType="text/css" height="1599px" preserveAspectRatio="none" style="width:2270px;height:1599px;background:#FFFFFF;" version="1.1" viewBox="0 0 2270 1599" width="2270px" zoomAndPan="magnify"><defs/><g><rect fill="#FFFFFF" height="1405.0566" style="stroke:#181818;stroke-width:1.0;" width="10" x="84" y="93.6211"/><rect fill="#FFFFFF" height="137.4941" style="stroke:#181818;stroke-width:1.0;" width="10" x="484" y="116.9121"/><rect fill="#FFFFFF" height="31.291" style="stroke:#181818;stroke-width:1.0;" width="10" x="484" y="302.9883"/><rect fill="#FFFFFF" height="219.0371" style="stroke:#181818;stroke-width:1.0;" width="10" x="484" y="365.5703"/><rect fill="#FFFFFF" height="262.6191" style="stroke:#181818;stroke-width:1.0;" width="10" x="484" y="615.8984"/><rect fill="#FFFFFF" height="47.9219" style="stroke:#181818;stroke-width:1.0;" width="10" x="484" y="909.8086"/><rect fill="#FFFFFF" height="38.291" style="stroke:#181818;stroke-width:1.0;" width="10" x="484" y="989.0215"/><rect fill="#FFFFFF" height="440.0742" style="stroke:#181818;stroke-width:1.0;" width="10" x="484" y="1058.6035"/><rect fill="#FFFFFF" height="64.9121" style="stroke:#181818;stroke-width:1.0;" width="10" x="1267" y="158.2031"/><rect fill="#FFFFFF" height="156.4551" style="stroke:#181818;stroke-width:1.0;" width="10" x="1267" y="396.8613"/><rect fill="#FFFFFF" height="156.4551" style="stroke:#181818;stroke-width:1.0;" width="10" x="1267" y="647.1895"/><rect fill="#FFFFFF" height="377.4922" style="stroke:#181818;stroke-width:1.0;" width="10" x="1267" y="1089.8945"/><rect fill="#FFFFFF" height="31.291" style="stroke:#181818;stroke-width:1.0;" width="10" x="1423" y="191.8242"/><rect fill="#FFFFFF" height="31.291" style="stroke:#181818;stroke-width:1.0;" width="10" x="1530" y="428.1523"/><rect fill="#FFFFFF" height="31.291" style="stroke:#181818;stroke-width:1.0;" width="10" x="1530" y="678.4805"/><rect fill="#FFFFFF" height="31.291" style="stroke:#181818;stroke-width:1.0;" width="10" x="1530" y="1272.6406"/><rect fill="#FFFFFF" height="31.291" style="stroke:#181818;stroke-width:1.0;" width="10" x="1647.5" y="741.0625"/><rect fill="#FFFFFF" height="31.291" style="stroke:#181818;stroke-width:1.0;" width="10" x="1647.5" y="1397.8047"/><rect fill="#FFFFFF" height="31.291" style="stroke:#181818;stroke-width:1.0;" width="10" x="1999" y="1335.2227"/><rect fill="#FFFFFF" height="31.291" style="stroke:#181818;stroke-width:1.0;" width="10" x="2161.5" y="490.7344"/><rect fill="#FFFFFF" height="31.291" style="stroke:#181818;stroke-width:1.0;" width="10" x="2161.5" y="1121.1855"/><rect fill="#FFFFFF" height="31.291" style="stroke:#181818;stroke-width:1.0;" width="10" x="2161.5" y="1210.0586"/><rect fill="none" height="178.377" style="stroke:#000000;stroke-width:1.5;" width="561.5" x="10" y="818.6445"/><rect fill="none" height="269.6191" style="stroke:#000000;stroke-width:1.5;" width="1099.5" x="1164.5" y="1167.4766"/><line style="stroke:#181818;stroke-width:0.5;stroke-dasharray:5.0,5.0;" x1="89" x2="89" y1="83.6211" y2="1516.6777"/><line style="stroke:#181818;stroke-width:0.5;stroke-dasharray:5.0,5.0;" x1="488.5" x2="488.5" y1="83.6211" y2="1516.6777"/><line style="stroke:#181818;stroke-width:0.5;stroke-dasharray:5.0,5.0;" x1="1271.5" x2="1271.5" y1="156.7227" y2="1516.6777"/><line style="stroke:#181818;stroke-width:0.5;stroke-dasharray:5.0,5.0;" x1="1427.5" x2="1427.5" y1="83.6211" y2="1516.6777"/><line style="stroke:#181818;stroke-width:0.5;stroke-dasharray:5.0,5.0;" x1="1534.5" x2="1534.5" y1="83.6211" y2="1516.6777"/><line style="stroke:#181818;stroke-width:0.5;stroke-dasharray:5.0,5.0;" x1="1652.5" x2="1652.5" y1="83.6211" y2="1516.6777"/><line style="stroke:#181818;stroke-width:0.5;stroke-dasharray:5.0,5.0;" x1="2004" x2="2004" y1="83.6211" y2="1516.6777"/><line style="stroke:#181818;stroke-width:0.5;stroke-dasharray:5.0,5.0;" x1="2166" x2="2166" y1="83.6211" y2="1516.6777"/><text fill="#000000" font-family="sans-serif" font-size="14" lengthAdjust="spacing" textLength="132" x="20" y="80.1074">System administrator</text><ellipse cx="89" cy="13.5" fill="#E3E3E3" rx="8" ry="8" style="stroke:#181818;stroke-width:0.5;"/><path d="M89,21.5 L89,48.5 M76,29.5 L102,29.5 M89,48.5 L76,63.5 M89,48.5 L102,63.5 " fill="none" style="stroke:#181818;stroke-width:0.5;"/><text fill="#000000" font-family="sans-serif" font-size="14" lengthAdjust="spacing" textLength="132" x="20" y="1530.7852">System administrator</text><ellipse cx="89" cy="1542.7988" fill="#E3E3E3" rx="8" ry="8" style="stroke:#181818;stroke-width:0.5;"/><path d="M89,1550.7988 L89,1577.7988 M76,1558.7988 L102,1558.7988 M89,1577.7988 L76,1592.7988 M89,1577.7988 L102,1592.7988 " fill="none" style="stroke:#181818;stroke-width:0.5;"/><rect fill="#E3E3E3" height="32.6211" rx="2.5" ry="2.5" style="stroke:#181818;stroke-width:0.5;" width="145" x="416.5" y="50"/><text fill="#000000" font-family="sans-serif" font-size="14" lengthAdjust="spacing" textLength="131" x="423.5" y="72.1074">:RegisterEmployeeUI</text><rect fill="#E3E3E3" height="32.6211" rx="2.5" ry="2.5" style="stroke:#181818;stroke-width:0.5;" width="145" x="416.5" y="1515.6777"/><text fill="#000000" font-family="sans-serif" font-size="14" lengthAdjust="spacing" textLength="131" x="423.5" y="1537.7852">:RegisterEmployeeUI</text><rect fill="#E3E3E3" height="32.6211" rx="2.5" ry="2.5" style="stroke:#181818;stroke-width:0.5;" width="195" x="1174.5" y="1515.6777"/><text fill="#000000" font-family="sans-serif" font-size="14" lengthAdjust="spacing" textLength="181" x="1181.5" y="1537.7852">:RegisterEmployeeController</text><rect fill="#E3E3E3" height="32.6211" rx="2.5" ry="2.5" style="stroke:#181818;stroke-width:0.5;" width="97" x="1379.5" y="50"/><text fill="#000000" font-family="sans-serif" font-size="14" lengthAdjust="spacing" textLength="83" x="1386.5" y="72.1074">:Repositories</text><rect fill="#E3E3E3" height="32.6211" rx="2.5" ry="2.5" style="stroke:#181818;stroke-width:0.5;" width="97" x="1379.5" y="1515.6777"/><text fill="#000000" font-family="sans-serif" font-size="14" lengthAdjust="spacing" textLength="83" x="1386.5" y="1537.7852">:Repositories</text><rect fill="#E3E3E3" height="51.2422" rx="2.5" ry="2.5" style="stroke:#181818;stroke-width:0.5;" width="97" x="1486.5" y="31.3789"/><text fill="#000000" font-family="sans-serif" font-size="14" lengthAdjust="spacing" textLength="74" x="1498" y="53.4863">repositories</text><text fill="#000000" font-family="sans-serif" font-size="14" lengthAdjust="spacing" textLength="83" x="1493.5" y="72.1074">:Repositories</text><rect fill="#E3E3E3" height="51.2422" rx="2.5" ry="2.5" style="stroke:#181818;stroke-width:0.5;" width="97" x="1486.5" y="1515.6777"/><text fill="#000000" font-family="sans-serif" font-size="14" lengthAdjust="spacing" textLength="74" x="1498" y="1537.7852">repositories</text><text fill="#000000" font-family="sans-serif" font-size="14" lengthAdjust="spacing" textLength="83" x="1493.5" y="1556.4063">:Repositories</text><rect fill="#E3E3E3" height="51.2422" rx="2.5" ry="2.5" style="stroke:#181818;stroke-width:0.5;" width="118" x="1593.5" y="31.3789"/><text fill="#000000" font-family="sans-serif" font-size="14" lengthAdjust="spacing" textLength="104" x="1600.5" y="53.4863">storeRepository:</text><text fill="#000000" font-family="sans-serif" font-size="14" lengthAdjust="spacing" textLength="102" x="1601.5" y="72.1074">StoreRepository</text><rect fill="#E3E3E3" height="51.2422" rx="2.5" ry="2.5" style="stroke:#181818;stroke-width:0.5;" width="118" x="1593.5" y="1515.6777"/><text fill="#000000" font-family="sans-serif" font-size="14" lengthAdjust="spacing" textLength="104" x="1600.5" y="1537.7852">storeRepository:</text><text fill="#000000" font-family="sans-serif" font-size="14" lengthAdjust="spacing" textLength="102" x="1601.5" y="1556.4063">StoreRepository</text><rect fill="#E3E3E3" height="51.2422" rx="2.5" ry="2.5" style="stroke:#181818;stroke-width:0.5;" width="130" x="1939" y="31.3789"/><text fill="#000000" font-family="sans-serif" font-size="14" lengthAdjust="spacing" textLength="116" x="1946" y="53.4863">personRepository:</text><text fill="#000000" font-family="sans-serif" font-size="14" lengthAdjust="spacing" textLength="113" x="1947.5" y="72.1074">PersonRepository</text><rect fill="#E3E3E3" height="51.2422" rx="2.5" ry="2.5" style="stroke:#181818;stroke-width:0.5;" width="130" x="1939" y="1515.6777"/><text fill="#000000" font-family="sans-serif" font-size="14" lengthAdjust="spacing" textLength="116" x="1946" y="1537.7852">personRepository:</text><text fill="#000000" font-family="sans-serif" font-size="14" lengthAdjust="spacing" textLength="113" x="1947.5" y="1556.4063">PersonRepository</text><rect fill="#E3E3E3" height="51.2422" rx="2.5" ry="2.5" style="stroke:#181818;stroke-width:0.5;" width="175" x="2079" y="31.3789"/><text fill="#000000" font-family="sans-serif" font-size="14" lengthAdjust="spacing" textLength="161" x="2086" y="53.4863">authenticationRepository:</text><text fill="#000000" font-family="sans-serif" font-size="14" lengthAdjust="spacing" textLength="158" x="2087.5" y="72.1074">AuthenticationRepository</text><rect fill="#E3E3E3" height="51.2422" rx="2.5" ry="2.5" style="stroke:#181818;stroke-width:0.5;" width="175" x="2079" y="1515.6777"/><text fill="#000000" font-family="sans-serif" font-size="14" lengthAdjust="spacing" textLength="161" x="2086" y="1537.7852">authenticationRepository:</text><text fill="#000000" font-family="sans-serif" font-size="14" lengthAdjust="spacing" textLength="158" x="2087.5" y="1556.4063">AuthenticationRepository</text><rect fill="#FFFFFF" height="1405.0566" style="stroke:#181818;stroke-width:1.0;" width="10" x="84" y="93.6211"/><rect fill="#FFFFFF" height="137.4941" style="stroke:#181818;stroke-width:1.0;" width="10" x="484" y="116.9121"/><rect fill="#FFFFFF" height="31.291" style="stroke:#181818;stroke-width:1.0;" width="10" x="484" y="302.9883"/><rect fill="#FFFFFF" height="219.0371" style="stroke:#181818;stroke-width:1.0;" width="10" x="484" y="365.5703"/><rect fill="#FFFFFF" height="262.6191" style="stroke:#181818;stroke-width:1.0;" width="10" x="484" y="615.8984"/><rect fill="#FFFFFF" height="47.9219" style="stroke:#181818;stroke-width:1.0;" width="10" x="484" y="909.8086"/><rect fill="#FFFFFF" height="38.291" style="stroke:#181818;stroke-width:1.0;" width="10" x="484" y="989.0215"/><rect fill="#FFFFFF" height="440.0742" style="stroke:#181818;stroke-width:1.0;" width="10" x="484" y="1058.6035"/><rect fill="#FFFFFF" height="64.9121" style="stroke:#181818;stroke-width:1.0;" width="10" x="1267" y="158.2031"/><rect fill="#FFFFFF" height="156.4551" style="stroke:#181818;stroke-width:1.0;" width="10" x="1267" y="396.8613"/><rect fill="#FFFFFF" height="156.4551" style="stroke:#181818;stroke-width:1.0;" width="10" x="1267" y="647.1895"/><rect fill="#FFFFFF" height="377.4922" style="stroke:#181818;stroke-width:1.0;" width="10" x="1267" y="1089.8945"/><rect fill="#FFFFFF" height="31.291" style="stroke:#181818;stroke-width:1.0;" width="10" x="1423" y="191.8242"/><rect fill="#FFFFFF" height="31.291" style="stroke:#181818;stroke-width:1.0;" width="10" x="1530" y="428.1523"/><rect fill="#FFFFFF" height="31.291" style="stroke:#181818;stroke-width:1.0;" width="10" x="1530" y="678.4805"/><rect fill="#FFFFFF" height="31.291" style="stroke:#181818;stroke-width:1.0;" width="10" x="1530" y="1272.6406"/><rect fill="#FFFFFF" height="31.291" style="stroke:#181818;stroke-width:1.0;" width="10" x="1647.5" y="741.0625"/><rect fill="#FFFFFF" height="31.291" style="stroke:#181818;stroke-width:1.0;" width="10" x="1647.5" y="1397.8047"/><rect fill="#FFFFFF" height="31.291" style="stroke:#181818;stroke-width:1.0;" width="10" x="1999" y="1335.2227"/><rect fill="#FFFFFF" height="31.291" style="stroke:#181818;stroke-width:1.0;" width="10" x="2161.5" y="490.7344"/><rect fill="#FFFFFF" height="31.291" style="stroke:#181818;stroke-width:1.0;" width="10" x="2161.5" y="1121.1855"/><rect fill="#FFFFFF" height="31.291" style="stroke:#181818;stroke-width:1.0;" width="10" x="2161.5" y="1210.0586"/><polygon fill="#181818" points="472,112.9121,482,116.9121,472,120.9121,476,116.9121" style="stroke:#181818;stroke-width:1.0;"/><line style="stroke:#181818;stroke-width:1.0;" x1="94" x2="478" y1="116.9121" y2="116.9121"/><text fill="#000000" font-family="sans-serif" font-size="13" font-weight="bold" lengthAdjust="spacing" textLength="7" x="101" y="111.6494">1</text><text fill="#000000" font-family="sans-serif" font-size="13" lengthAdjust="spacing" textLength="188" x="112" y="111.6494">asks to register a new employee</text><polygon fill="#181818" points="1162.5,144.2031,1172.5,148.2031,1162.5,152.2031,1166.5,148.2031" style="stroke:#181818;stroke-width:1.0;"/><line style="stroke:#181818;stroke-width:1.0;" x1="494" x2="1168.5" y1="148.2031" y2="148.2031"/><text fill="#000000" font-family="sans-serif" font-size="13" font-weight="bold" lengthAdjust="spacing" textLength="7" x="501" y="142.9404">2</text><text fill="#000000" font-family="sans-serif" font-size="13" lengthAdjust="spacing" textLength="36" x="512" y="142.9404">create</text><rect fill="#E3E3E3" height="32.6211" rx="2.5" ry="2.5" style="stroke:#181818;stroke-width:0.5;" width="195" x="1174.5" y="124.9121"/><text fill="#000000" font-family="sans-serif" font-size="14" lengthAdjust="spacing" textLength="181" x="1181.5" y="147.0195">:RegisterEmployeeController</text><polygon fill="#181818" points="1411,187.8242,1421,191.8242,1411,195.8242,1415,191.8242" style="stroke:#181818;stroke-width:1.0;"/><line style="stroke:#181818;stroke-width:1.0;" x1="1277" x2="1417" y1="191.8242" y2="191.8242"/><text fill="#000000" font-family="sans-serif" font-size="13" font-weight="bold" lengthAdjust="spacing" textLength="7" x="1284" y="186.5615">3</text><text fill="#000000" font-family="sans-serif" font-size="13" lengthAdjust="spacing" textLength="75" x="1295" y="186.5615">getInstance()</text><polygon fill="#181818" points="1283,219.1152,1273,223.1152,1283,227.1152,1279,223.1152" style="stroke:#181818;stroke-width:1.0;"/><line style="stroke:#181818;stroke-width:1.0;stroke-dasharray:2.0,2.0;" x1="1277" x2="1427" y1="223.1152" y2="223.1152"/><text fill="#000000" font-family="sans-serif" font-size="13" font-weight="bold" lengthAdjust="spacing" textLength="7" x="1289" y="217.8525">4</text><text fill="#000000" font-family="sans-serif" font-size="13" lengthAdjust="spacing" textLength="67" x="1300" y="217.8525">repositories</text><polygon fill="#181818" points="105,250.4063,95,254.4063,105,258.4063,101,254.4063" style="stroke:#181818;stroke-width:1.0;"/><line style="stroke:#181818;stroke-width:1.0;stroke-dasharray:2.0,2.0;" x1="99" x2="488" y1="254.4063" y2="254.4063"/><text fill="#000000" font-family="sans-serif" font-size="13" font-weight="bold" lengthAdjust="spacing" textLength="7" x="111" y="249.1436">5</text><text fill="#000000" font-family="sans-serif" font-size="13" lengthAdjust="spacing" textLength="179" x="122" y="249.1436">requests data for the employee</text><polygon fill="#181818" points="472,298.9883,482,302.9883,472,306.9883,476,302.9883" style="stroke:#181818;stroke-width:1.0;"/><line style="stroke:#181818;stroke-width:1.0;" x1="94" x2="478" y1="302.9883" y2="302.9883"/><text fill="#000000" font-family="sans-serif" font-size="13" font-weight="bold" lengthAdjust="spacing" textLength="7" x="101" y="289.0801">6</text><text fill="#000000" font-family="sans-serif" font-size="13" lengthAdjust="spacing" textLength="360" x="112" y="280.4346">types requested data (name, password, citizen's card number,</text><text fill="#000000" font-family="sans-serif" font-size="13" lengthAdjust="spacing" textLength="223" x="116" y="297.7256">tax number, e-mail, telephone number)</text><polygon fill="#181818" points="105,330.2793,95,334.2793,105,338.2793,101,334.2793" style="stroke:#181818;stroke-width:1.0;"/><line style="stroke:#181818;stroke-width:1.0;stroke-dasharray:2.0,2.0;" x1="99" x2="488" y1="334.2793" y2="334.2793"/><text fill="#000000" font-family="sans-serif" font-size="13" font-weight="bold" lengthAdjust="spacing" textLength="7" x="111" y="329.0166">7</text><text fill="#000000" font-family="sans-serif" font-size="13" lengthAdjust="spacing" textLength="238" x="122" y="329.0166">requests data for the employee's address</text><polygon fill="#181818" points="472,361.5703,482,365.5703,472,369.5703,476,365.5703" style="stroke:#181818;stroke-width:1.0;"/><line style="stroke:#181818;stroke-width:1.0;" x1="94" x2="478" y1="365.5703" y2="365.5703"/><text fill="#000000" font-family="sans-serif" font-size="13" font-weight="bold" lengthAdjust="spacing" textLength="7" x="101" y="360.3076">8</text><text fill="#000000" font-family="sans-serif" font-size="13" lengthAdjust="spacing" textLength="275" x="112" y="360.3076">sends data (street, zipcode, state, city, district)</text><polygon fill="#181818" points="1255,392.8613,1265,396.8613,1255,400.8613,1259,396.8613" style="stroke:#181818;stroke-width:1.0;"/><line style="stroke:#181818;stroke-width:1.0;" x1="494" x2="1261" y1="396.8613" y2="396.8613"/><text fill="#000000" font-family="sans-serif" font-size="13" font-weight="bold" lengthAdjust="spacing" textLength="7" x="501" y="391.5986">9</text><text fill="#000000" font-family="sans-serif" font-size="13" lengthAdjust="spacing" textLength="100" x="512" y="391.5986">getUserRoleList()</text><polygon fill="#181818" points="1518,424.1523,1528,428.1523,1518,432.1523,1522,428.1523" style="stroke:#181818;stroke-width:1.0;"/><line style="stroke:#181818;stroke-width:1.0;" x1="1277" x2="1524" y1="428.1523" y2="428.1523"/><text fill="#000000" font-family="sans-serif" font-size="13" font-weight="bold" lengthAdjust="spacing" textLength="14" x="1284" y="422.8896">10</text><text fill="#000000" font-family="sans-serif" font-size="13" lengthAdjust="spacing" textLength="171" x="1302" y="422.8896">getAuthenticationRepository()</text><polygon fill="#181818" points="1288,455.4434,1278,459.4434,1288,463.4434,1284,459.4434" style="stroke:#181818;stroke-width:1.0;"/><line style="stroke:#181818;stroke-width:1.0;stroke-dasharray:2.0,2.0;" x1="1282" x2="1534" y1="459.4434" y2="459.4434"/><text fill="#000000" font-family="sans-serif" font-size="13" font-weight="bold" lengthAdjust="spacing" textLength="14" x="1294" y="454.1807">11</text><text fill="#000000" font-family="sans-serif" font-size="13" lengthAdjust="spacing" textLength="143" x="1312" y="454.1807">authenticationRepository</text><polygon fill="#181818" points="2149.5,486.7344,2159.5,490.7344,2149.5,494.7344,2153.5,490.7344" style="stroke:#181818;stroke-width:1.0;"/><line style="stroke:#181818;stroke-width:1.0;" x1="1277" x2="2155.5" y1="490.7344" y2="490.7344"/><text fill="#000000" font-family="sans-serif" font-size="13" font-weight="bold" lengthAdjust="spacing" textLength="14" x="1284" y="485.4717">12</text><text fill="#000000" font-family="sans-serif" font-size="13" lengthAdjust="spacing" textLength="100" x="1302" y="485.4717">getUserRoleList()</text><polygon fill="#181818" points="1288,518.0254,1278,522.0254,1288,526.0254,1284,522.0254" style="stroke:#181818;stroke-width:1.0;"/><line style="stroke:#181818;stroke-width:1.0;stroke-dasharray:2.0,2.0;" x1="1282" x2="2165.5" y1="522.0254" y2="522.0254"/><text fill="#000000" font-family="sans-serif" font-size="13" font-weight="bold" lengthAdjust="spacing" textLength="14" x="1294" y="516.7627">13</text><text fill="#000000" font-family="sans-serif" font-size="13" lengthAdjust="spacing" textLength="72" x="1312" y="516.7627">userRoleList</text><polygon fill="#181818" points="505,549.3164,495,553.3164,505,557.3164,501,553.3164" style="stroke:#181818;stroke-width:1.0;"/><line style="stroke:#181818;stroke-width:1.0;stroke-dasharray:2.0,2.0;" x1="499" x2="1271" y1="553.3164" y2="553.3164"/><text fill="#000000" font-family="sans-serif" font-size="13" font-weight="bold" lengthAdjust="spacing" textLength="14" x="511" y="548.0537">14</text><text fill="#000000" font-family="sans-serif" font-size="13" lengthAdjust="spacing" textLength="72" x="529" y="548.0537">userRoleList</text><polygon fill="#181818" points="105,580.6074,95,584.6074,105,588.6074,101,584.6074" style="stroke:#181818;stroke-width:1.0;"/><line style="stroke:#181818;stroke-width:1.0;stroke-dasharray:2.0,2.0;" x1="99" x2="488" y1="584.6074" y2="584.6074"/><text fill="#000000" font-family="sans-serif" font-size="13" font-weight="bold" lengthAdjust="spacing" textLength="14" x="111" y="579.3447">15</text><text fill="#000000" font-family="sans-serif" font-size="13" lengthAdjust="spacing" textLength="234" x="129" y="579.3447">shows user roles and asks to select one</text><polygon fill="#181818" points="472,611.8984,482,615.8984,472,619.8984,476,615.8984" style="stroke:#181818;stroke-width:1.0;"/><line style="stroke:#181818;stroke-width:1.0;" x1="94" x2="478" y1="615.8984" y2="615.8984"/><text fill="#000000" font-family="sans-serif" font-size="13" font-weight="bold" lengthAdjust="spacing" textLength="14" x="101" y="610.6357">16</text><text fill="#000000" font-family="sans-serif" font-size="13" lengthAdjust="spacing" textLength="114" x="119" y="610.6357">selects an user role</text><polygon fill="#181818" points="1255,643.1895,1265,647.1895,1255,651.1895,1259,647.1895" style="stroke:#181818;stroke-width:1.0;"/><line style="stroke:#181818;stroke-width:1.0;" x1="494" x2="1261" y1="647.1895" y2="647.1895"/><text fill="#000000" font-family="sans-serif" font-size="13" font-weight="bold" lengthAdjust="spacing" textLength="14" x="501" y="641.9268">17</text><text fill="#000000" font-family="sans-serif" font-size="13" lengthAdjust="spacing" textLength="78" x="519" y="641.9268">getStoreList()</text><polygon fill="#181818" points="1518,674.4805,1528,678.4805,1518,682.4805,1522,678.4805" style="stroke:#181818;stroke-width:1.0;"/><line style="stroke:#181818;stroke-width:1.0;" x1="1277" x2="1524" y1="678.4805" y2="678.4805"/><text fill="#000000" font-family="sans-serif" font-size="13" font-weight="bold" lengthAdjust="spacing" textLength="14" x="1284" y="673.2178">18</text><text fill="#000000" font-family="sans-serif" font-size="13" lengthAdjust="spacing" textLength="119" x="1302" y="673.2178">getStoreRepository()</text><polygon fill="#181818" points="1288,705.7715,1278,709.7715,1288,713.7715,1284,709.7715" style="stroke:#181818;stroke-width:1.0;"/><line style="stroke:#181818;stroke-width:1.0;stroke-dasharray:2.0,2.0;" x1="1282" x2="1534" y1="709.7715" y2="709.7715"/><text fill="#000000" font-family="sans-serif" font-size="13" font-weight="bold" lengthAdjust="spacing" textLength="14" x="1294" y="704.5088">19</text><text fill="#000000" font-family="sans-serif" font-size="13" lengthAdjust="spacing" textLength="91" x="1312" y="704.5088">storeRepository</text><polygon fill="#181818" points="1635.5,737.0625,1645.5,741.0625,1635.5,745.0625,1639.5,741.0625" style="stroke:#181818;stroke-width:1.0;"/><line style="stroke:#181818;stroke-width:1.0;" x1="1277" x2="1641.5" y1="741.0625" y2="741.0625"/><text fill="#000000" font-family="sans-serif" font-size="13" font-weight="bold" lengthAdjust="spacing" textLength="14" x="1284" y="735.7998">20</text><text fill="#000000" font-family="sans-serif" font-size="13" lengthAdjust="spacing" textLength="78" x="1302" y="735.7998">getStoreList()</text><polygon fill="#181818" points="1288,768.3535,1278,772.3535,1288,776.3535,1284,772.3535" style="stroke:#181818;stroke-width:1.0;"/><line style="stroke:#181818;stroke-width:1.0;stroke-dasharray:2.0,2.0;" x1="1282" x2="1651.5" y1="772.3535" y2="772.3535"/><text fill="#000000" font-family="sans-serif" font-size="13" font-weight="bold" lengthAdjust="spacing" textLength="14" x="1294" y="767.0908">21</text><text fill="#000000" font-family="sans-serif" font-size="13" lengthAdjust="spacing" textLength="50" x="1312" y="767.0908">storeList</text><polygon fill="#181818" points="505,799.6445,495,803.6445,505,807.6445,501,803.6445" style="stroke:#181818;stroke-width:1.0;"/><line style="stroke:#181818;stroke-width:1.0;stroke-dasharray:2.0,2.0;" x1="499" x2="1271" y1="803.6445" y2="803.6445"/><text fill="#000000" font-family="sans-serif" font-size="13" font-weight="bold" lengthAdjust="spacing" textLength="14" x="511" y="798.3818">22</text><text fill="#000000" font-family="sans-serif" font-size="13" lengthAdjust="spacing" textLength="50" x="529" y="798.3818">storeList</text><path d="M10,818.6445 L71,818.6445 L71,827.9355 L61,837.9355 L10,837.9355 L10,818.6445 " fill="#EEEEEE" style="stroke:#000000;stroke-width:1.5;"/><rect fill="none" height="178.377" style="stroke:#000000;stroke-width:1.5;" width="561.5" x="10" y="818.6445"/><text fill="#000000" font-family="sans-serif" font-size="13" font-weight="bold" lengthAdjust="spacing" textLength="16" x="25" y="833.6729">alt</text><text fill="#000000" font-family="sans-serif" font-size="11" font-weight="bold" lengthAdjust="spacing" textLength="174" x="86" y="832.5146">[role = store network manager]</text><polygon fill="#181818" points="105,874.5176,95,878.5176,105,882.5176,101,878.5176" style="stroke:#181818;stroke-width:1.0;"/><line style="stroke:#181818;stroke-width:1.0;stroke-dasharray:2.0,2.0;" x1="99" x2="488" y1="878.5176" y2="878.5176"/><text fill="#000000" font-family="sans-serif" font-size="13" font-weight="bold" lengthAdjust="spacing" textLength="14" x="111" y="864.6094">23</text><text fill="#000000" font-family="sans-serif" font-size="13" lengthAdjust="spacing" textLength="224" x="129" y="855.9639">shows store list and asks to select the</text><text fill="#000000" font-family="sans-serif" font-size="13" lengthAdjust="spacing" textLength="195" x="129" y="873.2549">stores that are part of the network</text><polygon fill="#181818" points="472,905.8086,482,909.8086,472,913.8086,476,909.8086" style="stroke:#181818;stroke-width:1.0;"/><line style="stroke:#181818;stroke-width:1.0;" x1="94" x2="478" y1="909.8086" y2="909.8086"/><text fill="#000000" font-family="sans-serif" font-size="13" font-weight="bold" lengthAdjust="spacing" textLength="14" x="101" y="904.5459">24</text><text fill="#000000" font-family="sans-serif" font-size="13" lengthAdjust="spacing" textLength="104" x="119" y="904.5459">selects the stores</text><line style="stroke:#000000;stroke-width:1.0;stroke-dasharray:2.0,2.0;" x1="10" x2="571.5" y1="918.8086" y2="918.8086"/><text fill="#000000" font-family="sans-serif" font-size="11" font-weight="bold" lengthAdjust="spacing" textLength="177" x="15" y="930.6787">[role != store network manager]</text><polygon fill="#181818" points="105,953.7305,95,957.7305,105,961.7305,101,957.7305" style="stroke:#181818;stroke-width:1.0;"/><line style="stroke:#181818;stroke-width:1.0;stroke-dasharray:2.0,2.0;" x1="99" x2="488" y1="957.7305" y2="957.7305"/><text fill="#000000" font-family="sans-serif" font-size="13" font-weight="bold" lengthAdjust="spacing" textLength="14" x="111" y="952.4678">25</text><text fill="#000000" font-family="sans-serif" font-size="13" lengthAdjust="spacing" textLength="227" x="129" y="952.4678">shows store list and asks to select one</text><polygon fill="#181818" points="472,985.0215,482,989.0215,472,993.0215,476,989.0215" style="stroke:#181818;stroke-width:1.0;"/><line style="stroke:#181818;stroke-width:1.0;" x1="94" x2="478" y1="989.0215" y2="989.0215"/><text fill="#000000" font-family="sans-serif" font-size="13" font-weight="bold" lengthAdjust="spacing" textLength="14" x="101" y="983.7588">26</text><text fill="#000000" font-family="sans-serif" font-size="13" lengthAdjust="spacing" textLength="86" x="119" y="983.7588">selects a store</text><polygon fill="#181818" points="105,1023.3125,95,1027.3125,105,1031.3125,101,1027.3125" style="stroke:#181818;stroke-width:1.0;"/><line style="stroke:#181818;stroke-width:1.0;stroke-dasharray:2.0,2.0;" x1="99" x2="488" y1="1027.3125" y2="1027.3125"/><text fill="#000000" font-family="sans-serif" font-size="13" font-weight="bold" lengthAdjust="spacing" textLength="14" x="111" y="1022.0498">27</text><text fill="#000000" font-family="sans-serif" font-size="13" lengthAdjust="spacing" textLength="336" x="129" y="1022.0498">shows selected user role, store/stores and requested data</text><polygon fill="#181818" points="472,1054.6035,482,1058.6035,472,1062.6035,476,1058.6035" style="stroke:#181818;stroke-width:1.0;"/><line style="stroke:#181818;stroke-width:1.0;" x1="94" x2="478" y1="1058.6035" y2="1058.6035"/><text fill="#000000" font-family="sans-serif" font-size="13" font-weight="bold" lengthAdjust="spacing" textLength="14" x="101" y="1053.3408">28</text><text fill="#000000" font-family="sans-serif" font-size="13" lengthAdjust="spacing" textLength="75" x="119" y="1053.3408">submits data</text><polygon fill="#181818" points="1255,1085.8945,1265,1089.8945,1255,1093.8945,1259,1089.8945" style="stroke:#181818;stroke-width:1.0;"/><line style="stroke:#181818;stroke-width:1.0;" x1="494" x2="1261" y1="1089.8945" y2="1089.8945"/><text fill="#000000" font-family="sans-serif" font-size="13" font-weight="bold" lengthAdjust="spacing" textLength="14" x="501" y="1084.6318">29</text><text fill="#000000" font-family="sans-serif" font-size="13" lengthAdjust="spacing" textLength="736" x="519" y="1084.6318">createEmployee(name, password, citizenNum, tin, email, phoneNum, storeID, street, zipCode, stateUS, city, district, userRole)</text><polygon fill="#181818" points="2149.5,1117.1855,2159.5,1121.1855,2149.5,1125.1855,2153.5,1121.1855" style="stroke:#181818;stroke-width:1.0;"/><line style="stroke:#181818;stroke-width:1.0;" x1="1277" x2="2155.5" y1="1121.1855" y2="1121.1855"/><text fill="#000000" font-family="sans-serif" font-size="13" font-weight="bold" lengthAdjust="spacing" textLength="14" x="1284" y="1115.9229">30</text><text fill="#000000" font-family="sans-serif" font-size="13" lengthAdjust="spacing" textLength="101" x="1302" y="1115.9229">existsUser(email)</text><polygon fill="#181818" points="1288,1148.4766,1278,1152.4766,1288,1156.4766,1284,1152.4766" style="stroke:#181818;stroke-width:1.0;"/><line style="stroke:#181818;stroke-width:1.0;stroke-dasharray:2.0,2.0;" x1="1282" x2="2165.5" y1="1152.4766" y2="1152.4766"/><text fill="#000000" font-family="sans-serif" font-size="13" font-weight="bold" lengthAdjust="spacing" textLength="14" x="1294" y="1147.2139">31</text><text fill="#000000" font-family="sans-serif" font-size="13" lengthAdjust="spacing" textLength="53" x="1312" y="1147.2139">true/false</text><path d="M1164.5,1167.4766 L1225.5,1167.4766 L1225.5,1176.7676 L1215.5,1186.7676 L1164.5,1186.7676 L1164.5,1167.4766 " fill="#EEEEEE" style="stroke:#000000;stroke-width:1.5;"/><rect fill="none" height="269.6191" style="stroke:#000000;stroke-width:1.5;" width="1099.5" x="1164.5" y="1167.4766"/><text fill="#000000" font-family="sans-serif" font-size="13" font-weight="bold" lengthAdjust="spacing" textLength="16" x="1179.5" y="1182.5049">alt</text><text fill="#000000" font-family="sans-serif" font-size="11" font-weight="bold" lengthAdjust="spacing" textLength="31" x="1240.5" y="1181.3467">[true]</text><polygon fill="#181818" points="2149.5,1206.0586,2159.5,1210.0586,2149.5,1214.0586,2153.5,1210.0586" style="stroke:#181818;stroke-width:1.0;"/><line style="stroke:#181818;stroke-width:1.0;" x1="1277" x2="2155.5" y1="1210.0586" y2="1210.0586"/><text fill="#000000" font-family="sans-serif" font-size="13" font-weight="bold" lengthAdjust="spacing" textLength="14" x="1284" y="1204.7959">32</text><text fill="#000000" font-family="sans-serif" font-size="13" lengthAdjust="spacing" textLength="302" x="1302" y="1204.7959">addUserWithRole(name, email, password, userRole)</text><polygon fill="#181818" points="1288,1237.3496,1278,1241.3496,1288,1245.3496,1284,1241.3496" style="stroke:#181818;stroke-width:1.0;"/><line style="stroke:#181818;stroke-width:1.0;stroke-dasharray:2.0,2.0;" x1="1282" x2="2165.5" y1="1241.3496" y2="1241.3496"/><text fill="#000000" font-family="sans-serif" font-size="13" font-weight="bold" lengthAdjust="spacing" textLength="14" x="1294" y="1236.0869">33</text><text fill="#000000" font-family="sans-serif" font-size="13" lengthAdjust="spacing" textLength="53" x="1312" y="1236.0869">true/false</text><polygon fill="#181818" points="1518,1268.6406,1528,1272.6406,1518,1276.6406,1522,1272.6406" style="stroke:#181818;stroke-width:1.0;"/><line style="stroke:#181818;stroke-width:1.0;" x1="1277" x2="1524" y1="1272.6406" y2="1272.6406"/><text fill="#000000" font-family="sans-serif" font-size="13" font-weight="bold" lengthAdjust="spacing" textLength="14" x="1284" y="1267.3779">34</text><text fill="#000000" font-family="sans-serif" font-size="13" lengthAdjust="spacing" textLength="129" x="1302" y="1267.3779">getPersonRepository()</text><polygon fill="#181818" points="1288,1299.9316,1278,1303.9316,1288,1307.9316,1284,1303.9316" style="stroke:#181818;stroke-width:1.0;"/><line style="stroke:#181818;stroke-width:1.0;stroke-dasharray:2.0,2.0;" x1="1282" x2="1534" y1="1303.9316" y2="1303.9316"/><text fill="#000000" font-family="sans-serif" font-size="13" font-weight="bold" lengthAdjust="spacing" textLength="14" x="1294" y="1298.6689">35</text><text fill="#000000" font-family="sans-serif" font-size="13" lengthAdjust="spacing" textLength="109" x="1312" y="1298.6689">personRepository()</text><polygon fill="#181818" points="1987,1331.2227,1997,1335.2227,1987,1339.2227,1991,1335.2227" style="stroke:#181818;stroke-width:1.0;"/><line style="stroke:#181818;stroke-width:1.0;" x1="1277" x2="1993" y1="1335.2227" y2="1335.2227"/><text fill="#000000" font-family="sans-serif" font-size="13" font-weight="bold" lengthAdjust="spacing" textLength="14" x="1284" y="1329.96">36</text><text fill="#000000" font-family="sans-serif" font-size="13" lengthAdjust="spacing" textLength="685" x="1302" y="1329.96">addEmployeeWithLocation(email, name, citizenNum, tin, phoneNum, street, zipCode, stateUS, city, district, userRole)</text><polygon fill="#181818" points="1288,1362.5137,1278,1366.5137,1288,1370.5137,1284,1366.5137" style="stroke:#181818;stroke-width:1.0;"/><line style="stroke:#181818;stroke-width:1.0;stroke-dasharray:2.0,2.0;" x1="1282" x2="2003" y1="1366.5137" y2="1366.5137"/><text fill="#000000" font-family="sans-serif" font-size="13" font-weight="bold" lengthAdjust="spacing" textLength="14" x="1294" y="1361.251">37</text><text fill="#000000" font-family="sans-serif" font-size="13" lengthAdjust="spacing" textLength="56" x="1312" y="1361.251">employee</text><polygon fill="#181818" points="1635.5,1393.8047,1645.5,1397.8047,1635.5,1401.8047,1639.5,1397.8047" style="stroke:#181818;stroke-width:1.0;"/><line style="stroke:#181818;stroke-width:1.0;" x1="1277" x2="1641.5" y1="1397.8047" y2="1397.8047"/><text fill="#000000" font-family="sans-serif" font-size="13" font-weight="bold" lengthAdjust="spacing" textLength="14" x="1284" y="1392.542">38</text><text fill="#000000" font-family="sans-serif" font-size="13" lengthAdjust="spacing" textLength="237" x="1302" y="1392.542">addEmployeeToStore(employee, storeID)</text><polygon fill="#181818" points="1288,1425.0957,1278,1429.0957,1288,1433.0957,1284,1429.0957" style="stroke:#181818;stroke-width:1.0;"/><line style="stroke:#181818;stroke-width:1.0;stroke-dasharray:2.0,2.0;" x1="1282" x2="1651.5" y1="1429.0957" y2="1429.0957"/><text fill="#000000" font-family="sans-serif" font-size="13" font-weight="bold" lengthAdjust="spacing" textLength="14" x="1294" y="1423.833">39</text><text fill="#000000" font-family="sans-serif" font-size="13" lengthAdjust="spacing" textLength="53" x="1312" y="1423.833">true/false</text><polygon fill="#181818" points="505,1463.3867,495,1467.3867,505,1471.3867,501,1467.3867" style="stroke:#181818;stroke-width:1.0;"/><line style="stroke:#181818;stroke-width:1.0;stroke-dasharray:2.0,2.0;" x1="499" x2="1271" y1="1467.3867" y2="1467.3867"/><text fill="#000000" font-family="sans-serif" font-size="13" font-weight="bold" lengthAdjust="spacing" textLength="14" x="511" y="1462.124">40</text><text fill="#000000" font-family="sans-serif" font-size="13" lengthAdjust="spacing" textLength="53" x="529" y="1462.124">true/false</text><polygon fill="#181818" points="100,1494.6777,90,1498.6777,100,1502.6777,96,1498.6777" style="stroke:#181818;stroke-width:1.0;"/><line style="stroke:#181818;stroke-width:1.0;stroke-dasharray:2.0,2.0;" x1="94" x2="488" y1="1498.6777" y2="1498.6777"/><text fill="#000000" font-family="sans-serif" font-size="13" font-weight="bold" lengthAdjust="spacing" textLength="14" x="106" y="1493.415">41</text><text fill="#000000" font-family="sans-serif" font-size="13" lengthAdjust="spacing" textLength="158" x="124" y="1493.415">displays operation success</text><!--SRC=[jLXDR-Cs4BthLx2vs5ausBk15bXazn0WBHRn1htamb1ZYx14gYHTn_lhEoGbMQH4MTwaFbdKyCtty55wpqLD5Qr89OLaXP8L4ACEaEdkJKtPdkvWOqub40NCKB4h-mAweBaySh4ZMrfgo39wC58SgbTGMROeU0vaAwLvbMyPPKOgShCvQGCLeNd51TT6KLoz8LIJBr__p13KSCPhAWovMJ_13YL0VQlgKfu0dX-SuFF31RbxAOoIPGaU-Fx7q-DWHoqrHyqSj9F1XGstlg7reQpgYRw8aPtVlc_27HhVGYTtMh-8JRZYzaLI8KGDIaiHO7oFbXn8B1UYO2uA4FXC3O_GlYHUETJKlipcaFzB3RXaPQJvuGEv-mFpGjQuVQ-9aLWiFYU44W570argpfiwA4ndjsX_28DWDccVFY4WKu1IWKItrMLs4M_6tTQYDThmpm6qqIIdXfAbWYqe40nM90VD5A-jUoj2kDXALT6Il8ZmZG5M20n36Ixd1qNzFoQrkGriMtXxlMd16xjYFUkN6Xgv0_CWD3OMW-Njk9j1SGOY0TPT4pRh-Bb80_aSna4JCaCd9kABCIHOD-TK9q1jleDt_V8nfnfq2mnvapb1AqnQJRK-IfLZsBdXFq4iD65KvSJFcnLcpz2tzed0NKLvQPDOGbr80SsRH937oj1xUibHD8FckGAjfrmUzNXDD8YyBL2SXW1cHNxociaSFSQoCE3SFM7LsMd9cPbf_x2TVB4zQr1FieH7X8iARho_nc63YiOHwC5JOoMXAAnoEqYJOgxQhPvpbIV7L6f_l_edbRMEfJJCZcJWO7giJZcTjE7kdDP3pv8vtbzlYOz8swKNzKtEaC4SqOKyQWTAyDZ6_gSYxmuIZUtB3C7-dTjTyKpn21Rrh6F-3EZtZZl7Hz9zmTbXdqI4OAHwPbHgr0uneRYw-bip8w1frmDROnD6pOxXUtMiMoLJnbzK4jRgEEPaWTBIk28Xl_lTo60C7ZnxKb61R5ZDgMQ_iKIzOzMCxVSYd0Yk5XHbKDXoDoAtxcnfD4x5OMxPMpYlAfqunEgl0r9v7u7V_hSGn0tzgqtjrSntJUGUUCnWXucieniJAu_-kKcLTIFa9bd2xC3Kmsl56_AG9UTDC6iyYMplCod-yzUXGdh3aOU2fpgEvhXLP_33L_kdunJtPqxnl8bPnQeRwhVPbMCjUSqWy8ResfwJIsVXnEYuxaYQSoZQg-ndVolzqEFGJWTtJNu7Uq2-QAFoDpU53NcJu3QBNPw7AVb0Sl41CVmWMj4_6UDhxlkPOt1Cef9wleQh2MECxLFTzh5DzwFqqLasoVQP7pHqlvD_lO6J4HjyDqXk6NZKY-JeJIyHl_aQqpIa5yeVqX6IPMj2D_5cE3-BfLnWAjSrnYLg5XnCQIepeNIIpoowZp5jk0ZhFf6rawhdvvBcd66DKaNmh1ViTFi-E4QHJY2niGLwYtLQvzPEH_MZRoS5i7sZivFpZzTPCAZQvgkCNoT7RCIsvyIX2h6n_z9V0h3RwfAUD948vHePZtV6shj_n0HwZ_Q3sNy0]--></g></svg>