<?xml version="1.0" encoding="us-ascii" standalone="no"?><svg xmlns="http://www.w3.org/2000/svg" xmlns:xlink="http://www.w3.org/1999/xlink" contentStyleType="text/css" height="1229px" preserveAspectRatio="none" style="width:1567px;height:1229px;background:#FFFFFF;" version="1.1" viewBox="0 0 1567 1229" width="1567px" zoomAndPan="magnify"><defs/><g><rect fill="#FFFFFF" height="1034.8262" style="stroke:#181818;stroke-width:1.0;" width="10" x="91" y="93.6211"/><rect fill="#FFFFFF" height="123.1641" style="stroke:#181818;stroke-width:1.0;" width="10" x="491" y="116.9121"/><rect fill="#FFFFFF" height="31.291" style="stroke:#181818;stroke-width:1.0;" width="10" x="491" y="288.6582"/><rect fill="#FFFFFF" height="142.125" style="stroke:#181818;stroke-width:1.0;" width="10" x="491" y="351.2402"/><rect fill="#FFFFFF" height="185.707" style="stroke:#181818;stroke-width:1.0;" width="10" x="491" y="524.6563"/><rect fill="#FFFFFF" height="47.9219" style="stroke:#181818;stroke-width:1.0;" width="10" x="491" y="741.6543"/><rect fill="#FFFFFF" height="38.291" style="stroke:#181818;stroke-width:1.0;" width="10" x="491" y="820.8672"/><rect fill="#FFFFFF" height="237.998" style="stroke:#181818;stroke-width:1.0;" width="10" x="491" y="890.4492"/><rect fill="#FFFFFF" height="81.873" style="stroke:#181818;stroke-width:1.0;" width="10" x="1274" y="158.2031"/><rect fill="#FFFFFF" height="79.543" style="stroke:#181818;stroke-width:1.0;" width="10" x="1274" y="382.5313"/><rect fill="#FFFFFF" height="79.543" style="stroke:#181818;stroke-width:1.0;" width="10" x="1274" y="555.9473"/><rect fill="#FFFFFF" height="175.416" style="stroke:#181818;stroke-width:1.0;" width="10" x="1274" y="921.7402"/><rect fill="#FFFFFF" height="31.291" style="stroke:#181818;stroke-width:1.0;" width="10" x="1469" y="953.0313"/><rect fill="none" height="178.377" style="stroke:#000000;stroke-width:1.5;" width="568.5" x="10" y="650.4902"/><rect fill="none" height="67.543" style="stroke:#000000;stroke-width:1.5;" width="215" x="1171.5" y="999.3223"/><line style="stroke:#181818;stroke-width:0.5;stroke-dasharray:5.0,5.0;" x1="96" x2="96" y1="83.6211" y2="1146.4473"/><line style="stroke:#181818;stroke-width:0.5;stroke-dasharray:5.0,5.0;" x1="495.5" x2="495.5" y1="83.6211" y2="1146.4473"/><line style="stroke:#181818;stroke-width:0.5;stroke-dasharray:5.0,5.0;" x1="1278.5" x2="1278.5" y1="156.7227" y2="1146.4473"/><line style="stroke:#181818;stroke-width:0.5;stroke-dasharray:5.0,5.0;" x1="1473.5" x2="1473.5" y1="83.6211" y2="1146.4473"/><text fill="#000000" font-family="sans-serif" font-size="14" lengthAdjust="spacing" textLength="146" x="20" y="80.1074">Organization Employee</text><ellipse cx="96" cy="13.5" fill="#E3E3E3" rx="8" ry="8" style="stroke:#181818;stroke-width:0.5;"/><path d="M96,21.5 L96,48.5 M83,29.5 L109,29.5 M96,48.5 L83,63.5 M96,48.5 L109,63.5 " fill="none" style="stroke:#181818;stroke-width:0.5;"/><text fill="#000000" font-family="sans-serif" font-size="14" lengthAdjust="spacing" textLength="146" x="20" y="1160.5547">Organization Employee</text><ellipse cx="96" cy="1172.5684" fill="#E3E3E3" rx="8" ry="8" style="stroke:#181818;stroke-width:0.5;"/><path d="M96,1180.5684 L96,1207.5684 M83,1188.5684 L109,1188.5684 M96,1207.5684 L83,1222.5684 M96,1207.5684 L109,1222.5684 " fill="none" style="stroke:#181818;stroke-width:0.5;"/><rect fill="#E3E3E3" height="32.6211" rx="2.5" ry="2.5" style="stroke:#181818;stroke-width:0.5;" width="145" x="423.5" y="50"/><text fill="#000000" font-family="sans-serif" font-size="14" lengthAdjust="spacing" textLength="131" x="430.5" y="72.1074">:RegisterEmployeeUI</text><rect fill="#E3E3E3" height="32.6211" rx="2.5" ry="2.5" style="stroke:#181818;stroke-width:0.5;" width="145" x="423.5" y="1145.4473"/><text fill="#000000" font-family="sans-serif" font-size="14" lengthAdjust="spacing" textLength="131" x="430.5" y="1167.5547">:RegisterEmployeeUI</text><rect fill="#E3E3E3" height="32.6211" rx="2.5" ry="2.5" style="stroke:#181818;stroke-width:0.5;" width="195" x="1181.5" y="1145.4473"/><text fill="#000000" font-family="sans-serif" font-size="14" lengthAdjust="spacing" textLength="181" x="1188.5" y="1167.5547">:RegisterEmployeeController</text><rect fill="#E3E3E3" height="51.2422" rx="2.5" ry="2.5" style="stroke:#181818;stroke-width:0.5;" width="175" x="1386.5" y="31.3789"/><text fill="#000000" font-family="sans-serif" font-size="14" lengthAdjust="spacing" textLength="161" x="1393.5" y="53.4863">authenticationRepository:</text><text fill="#000000" font-family="sans-serif" font-size="14" lengthAdjust="spacing" textLength="158" x="1395" y="72.1074">AuthenticationRepository</text><rect fill="#E3E3E3" height="51.2422" rx="2.5" ry="2.5" style="stroke:#181818;stroke-width:0.5;" width="175" x="1386.5" y="1145.4473"/><text fill="#000000" font-family="sans-serif" font-size="14" lengthAdjust="spacing" textLength="161" x="1393.5" y="1167.5547">authenticationRepository:</text><text fill="#000000" font-family="sans-serif" font-size="14" lengthAdjust="spacing" textLength="158" x="1395" y="1186.1758">AuthenticationRepository</text><rect fill="#FFFFFF" height="1034.8262" style="stroke:#181818;stroke-width:1.0;" width="10" x="91" y="93.6211"/><rect fill="#FFFFFF" height="123.1641" style="stroke:#181818;stroke-width:1.0;" width="10" x="491" y="116.9121"/><rect fill="#FFFFFF" height="31.291" style="stroke:#181818;stroke-width:1.0;" width="10" x="491" y="288.6582"/><rect fill="#FFFFFF" height="142.125" style="stroke:#181818;stroke-width:1.0;" width="10" x="491" y="351.2402"/><rect fill="#FFFFFF" height="185.707" style="stroke:#181818;stroke-width:1.0;" width="10" x="491" y="524.6563"/><rect fill="#FFFFFF" height="47.9219" style="stroke:#181818;stroke-width:1.0;" width="10" x="491" y="741.6543"/><rect fill="#FFFFFF" height="38.291" style="stroke:#181818;stroke-width:1.0;" width="10" x="491" y="820.8672"/><rect fill="#FFFFFF" height="237.998" style="stroke:#181818;stroke-width:1.0;" width="10" x="491" y="890.4492"/><rect fill="#FFFFFF" height="81.873" style="stroke:#181818;stroke-width:1.0;" width="10" x="1274" y="158.2031"/><rect fill="#FFFFFF" height="79.543" style="stroke:#181818;stroke-width:1.0;" width="10" x="1274" y="382.5313"/><rect fill="#FFFFFF" height="79.543" style="stroke:#181818;stroke-width:1.0;" width="10" x="1274" y="555.9473"/><rect fill="#FFFFFF" height="175.416" style="stroke:#181818;stroke-width:1.0;" width="10" x="1274" y="921.7402"/><rect fill="#FFFFFF" height="31.291" style="stroke:#181818;stroke-width:1.0;" width="10" x="1469" y="953.0313"/><polygon fill="#181818" points="479,112.9121,489,116.9121,479,120.9121,483,116.9121" style="stroke:#181818;stroke-width:1.0;"/><line style="stroke:#181818;stroke-width:1.0;" x1="101" x2="485" y1="116.9121" y2="116.9121"/><text fill="#000000" font-family="sans-serif" font-size="13" font-weight="bold" lengthAdjust="spacing" textLength="7" x="108" y="111.6494">1</text><text fill="#000000" font-family="sans-serif" font-size="13" lengthAdjust="spacing" textLength="188" x="119" y="111.6494">asks to register a new employee</text><polygon fill="#181818" points="1169.5,144.2031,1179.5,148.2031,1169.5,152.2031,1173.5,148.2031" style="stroke:#181818;stroke-width:1.0;"/><line style="stroke:#181818;stroke-width:1.0;" x1="501" x2="1175.5" y1="148.2031" y2="148.2031"/><text fill="#000000" font-family="sans-serif" font-size="13" font-weight="bold" lengthAdjust="spacing" textLength="7" x="508" y="142.9404">2</text><text fill="#000000" font-family="sans-serif" font-size="13" lengthAdjust="spacing" textLength="36" x="519" y="142.9404">create</text><rect fill="#E3E3E3" height="32.6211" rx="2.5" ry="2.5" style="stroke:#181818;stroke-width:0.5;" width="195" x="1181.5" y="124.9121"/><text fill="#000000" font-family="sans-serif" font-size="14" lengthAdjust="spacing" textLength="181" x="1188.5" y="147.0195">:RegisterEmployeeController</text><rect fill="none" height="43.252" style="stroke:#000000;stroke-width:1.5;" width="201" x="1178.5" y="168.5332"/><path d="M1178.5,168.5332 L1240.5,168.5332 L1240.5,177.5332 L1230.5,187.5332 L1178.5,187.5332 L1178.5,168.5332 " fill="#EEEEEE" style="stroke:#000000;stroke-width:2.0;"/><text fill="#000000" font-family="sans-serif" font-size="13" font-weight="bold" lengthAdjust="spacing" textLength="17" x="1191.5" y="184.5615">ref</text><text fill="#000000" font-family="sans-serif" font-size="12" lengthAdjust="spacing" textLength="88" x="1235" y="204.4824">Get repositories</text><polygon fill="#181818" points="112,236.0762,102,240.0762,112,244.0762,108,240.0762" style="stroke:#181818;stroke-width:1.0;"/><line style="stroke:#181818;stroke-width:1.0;stroke-dasharray:2.0,2.0;" x1="106" x2="495" y1="240.0762" y2="240.0762"/><text fill="#000000" font-family="sans-serif" font-size="13" font-weight="bold" lengthAdjust="spacing" textLength="7" x="118" y="234.8135">3</text><text fill="#000000" font-family="sans-serif" font-size="13" lengthAdjust="spacing" textLength="179" x="129" y="234.8135">requests data for the employee</text><polygon fill="#181818" points="479,284.6582,489,288.6582,479,292.6582,483,288.6582" style="stroke:#181818;stroke-width:1.0;"/><line style="stroke:#181818;stroke-width:1.0;" x1="101" x2="485" y1="288.6582" y2="288.6582"/><text fill="#000000" font-family="sans-serif" font-size="13" font-weight="bold" lengthAdjust="spacing" textLength="7" x="108" y="274.75">4</text><text fill="#000000" font-family="sans-serif" font-size="13" lengthAdjust="spacing" textLength="360" x="119" y="266.1045">types requested data (name, password, citizen's card number,</text><text fill="#000000" font-family="sans-serif" font-size="13" lengthAdjust="spacing" textLength="223" x="123" y="283.3955">tax number, e-mail, telephone number)</text><polygon fill="#181818" points="112,315.9492,102,319.9492,112,323.9492,108,319.9492" style="stroke:#181818;stroke-width:1.0;"/><line style="stroke:#181818;stroke-width:1.0;stroke-dasharray:2.0,2.0;" x1="106" x2="495" y1="319.9492" y2="319.9492"/><text fill="#000000" font-family="sans-serif" font-size="13" font-weight="bold" lengthAdjust="spacing" textLength="7" x="118" y="314.6865">5</text><text fill="#000000" font-family="sans-serif" font-size="13" lengthAdjust="spacing" textLength="237" x="129" y="314.6865">requests data for the employee's location</text><polygon fill="#181818" points="479,347.2402,489,351.2402,479,355.2402,483,351.2402" style="stroke:#181818;stroke-width:1.0;"/><line style="stroke:#181818;stroke-width:1.0;" x1="101" x2="485" y1="351.2402" y2="351.2402"/><text fill="#000000" font-family="sans-serif" font-size="13" font-weight="bold" lengthAdjust="spacing" textLength="7" x="108" y="345.9775">6</text><text fill="#000000" font-family="sans-serif" font-size="13" lengthAdjust="spacing" textLength="275" x="119" y="345.9775">sends data (street, zipcode, state, city, district)</text><polygon fill="#181818" points="1262,378.5313,1272,382.5313,1262,386.5313,1266,382.5313" style="stroke:#181818;stroke-width:1.0;"/><line style="stroke:#181818;stroke-width:1.0;" x1="501" x2="1268" y1="382.5313" y2="382.5313"/><text fill="#000000" font-family="sans-serif" font-size="13" font-weight="bold" lengthAdjust="spacing" textLength="7" x="508" y="377.2686">7</text><text fill="#000000" font-family="sans-serif" font-size="13" lengthAdjust="spacing" textLength="100" x="519" y="377.2686">getUserRoleList()</text><rect fill="none" height="43.252" style="stroke:#000000;stroke-width:1.5;" width="201" x="1178.5" y="390.5313"/><path d="M1178.5,390.5313 L1240.5,390.5313 L1240.5,399.5313 L1230.5,409.5313 L1178.5,409.5313 L1178.5,390.5313 " fill="#EEEEEE" style="stroke:#000000;stroke-width:2.0;"/><text fill="#000000" font-family="sans-serif" font-size="13" font-weight="bold" lengthAdjust="spacing" textLength="17" x="1191.5" y="406.5596">ref</text><text fill="#000000" font-family="sans-serif" font-size="12" lengthAdjust="spacing" textLength="90" x="1234" y="426.4805">Get user role list</text><polygon fill="#181818" points="512,458.0742,502,462.0742,512,466.0742,508,462.0742" style="stroke:#181818;stroke-width:1.0;"/><line style="stroke:#181818;stroke-width:1.0;stroke-dasharray:2.0,2.0;" x1="506" x2="1278" y1="462.0742" y2="462.0742"/><text fill="#000000" font-family="sans-serif" font-size="13" font-weight="bold" lengthAdjust="spacing" textLength="7" x="518" y="456.8115">8</text><text fill="#000000" font-family="sans-serif" font-size="13" lengthAdjust="spacing" textLength="72" x="529" y="456.8115">userRoleList</text><polygon fill="#181818" points="112,489.3652,102,493.3652,112,497.3652,108,493.3652" style="stroke:#181818;stroke-width:1.0;"/><line style="stroke:#181818;stroke-width:1.0;stroke-dasharray:2.0,2.0;" x1="106" x2="495" y1="493.3652" y2="493.3652"/><text fill="#000000" font-family="sans-serif" font-size="13" font-weight="bold" lengthAdjust="spacing" textLength="7" x="118" y="488.1025">9</text><text fill="#000000" font-family="sans-serif" font-size="13" lengthAdjust="spacing" textLength="234" x="129" y="488.1025">shows user roles and asks to select one</text><polygon fill="#181818" points="479,520.6563,489,524.6563,479,528.6563,483,524.6563" style="stroke:#181818;stroke-width:1.0;"/><line style="stroke:#181818;stroke-width:1.0;" x1="101" x2="485" y1="524.6563" y2="524.6563"/><text fill="#000000" font-family="sans-serif" font-size="13" font-weight="bold" lengthAdjust="spacing" textLength="14" x="108" y="519.3936">10</text><text fill="#000000" font-family="sans-serif" font-size="13" lengthAdjust="spacing" textLength="114" x="126" y="519.3936">selects an user role</text><polygon fill="#181818" points="1262,551.9473,1272,555.9473,1262,559.9473,1266,555.9473" style="stroke:#181818;stroke-width:1.0;"/><line style="stroke:#181818;stroke-width:1.0;" x1="501" x2="1268" y1="555.9473" y2="555.9473"/><text fill="#000000" font-family="sans-serif" font-size="13" font-weight="bold" lengthAdjust="spacing" textLength="14" x="508" y="550.6846">11</text><text fill="#000000" font-family="sans-serif" font-size="13" lengthAdjust="spacing" textLength="78" x="526" y="550.6846">getStoreList()</text><rect fill="none" height="43.252" style="stroke:#000000;stroke-width:1.5;" width="201" x="1178.5" y="563.9473"/><path d="M1178.5,563.9473 L1240.5,563.9473 L1240.5,572.9473 L1230.5,582.9473 L1178.5,582.9473 L1178.5,563.9473 " fill="#EEEEEE" style="stroke:#000000;stroke-width:2.0;"/><text fill="#000000" font-family="sans-serif" font-size="13" font-weight="bold" lengthAdjust="spacing" textLength="17" x="1191.5" y="579.9756">ref</text><text fill="#000000" font-family="sans-serif" font-size="12" lengthAdjust="spacing" textLength="69" x="1244.5" y="599.8965">Get store list</text><polygon fill="#181818" points="512,631.4902,502,635.4902,512,639.4902,508,635.4902" style="stroke:#181818;stroke-width:1.0;"/><line style="stroke:#181818;stroke-width:1.0;stroke-dasharray:2.0,2.0;" x1="506" x2="1278" y1="635.4902" y2="635.4902"/><text fill="#000000" font-family="sans-serif" font-size="13" font-weight="bold" lengthAdjust="spacing" textLength="14" x="518" y="630.2275">12</text><text fill="#000000" font-family="sans-serif" font-size="13" lengthAdjust="spacing" textLength="50" x="536" y="630.2275">storeList</text><path d="M10,650.4902 L71,650.4902 L71,659.7813 L61,669.7813 L10,669.7813 L10,650.4902 " fill="#EEEEEE" style="stroke:#000000;stroke-width:1.5;"/><rect fill="none" height="178.377" style="stroke:#000000;stroke-width:1.5;" width="568.5" x="10" y="650.4902"/><text fill="#000000" font-family="sans-serif" font-size="13" font-weight="bold" lengthAdjust="spacing" textLength="16" x="25" y="665.5186">alt</text><text fill="#000000" font-family="sans-serif" font-size="11" font-weight="bold" lengthAdjust="spacing" textLength="174" x="86" y="664.3604">[role = store network manager]</text><polygon fill="#181818" points="112,706.3633,102,710.3633,112,714.3633,108,710.3633" style="stroke:#181818;stroke-width:1.0;"/><line style="stroke:#181818;stroke-width:1.0;stroke-dasharray:2.0,2.0;" x1="106" x2="495" y1="710.3633" y2="710.3633"/><text fill="#000000" font-family="sans-serif" font-size="13" font-weight="bold" lengthAdjust="spacing" textLength="14" x="118" y="696.4551">13</text><text fill="#000000" font-family="sans-serif" font-size="13" lengthAdjust="spacing" textLength="224" x="136" y="687.8096">shows store list and asks to select the</text><text fill="#000000" font-family="sans-serif" font-size="13" lengthAdjust="spacing" textLength="195" x="136" y="705.1006">stores that are part of the network</text><polygon fill="#181818" points="479,737.6543,489,741.6543,479,745.6543,483,741.6543" style="stroke:#181818;stroke-width:1.0;"/><line style="stroke:#181818;stroke-width:1.0;" x1="101" x2="485" y1="741.6543" y2="741.6543"/><text fill="#000000" font-family="sans-serif" font-size="13" font-weight="bold" lengthAdjust="spacing" textLength="14" x="108" y="736.3916">14</text><text fill="#000000" font-family="sans-serif" font-size="13" lengthAdjust="spacing" textLength="120" x="126" y="736.3916">selects the agencies</text><line style="stroke:#000000;stroke-width:1.0;stroke-dasharray:2.0,2.0;" x1="10" x2="578.5" y1="750.6543" y2="750.6543"/><text fill="#000000" font-family="sans-serif" font-size="11" font-weight="bold" lengthAdjust="spacing" textLength="177" x="15" y="762.5244">[role != store network manager]</text><polygon fill="#181818" points="112,785.5762,102,789.5762,112,793.5762,108,789.5762" style="stroke:#181818;stroke-width:1.0;"/><line style="stroke:#181818;stroke-width:1.0;stroke-dasharray:2.0,2.0;" x1="106" x2="495" y1="789.5762" y2="789.5762"/><text fill="#000000" font-family="sans-serif" font-size="13" font-weight="bold" lengthAdjust="spacing" textLength="14" x="118" y="784.3135">15</text><text fill="#000000" font-family="sans-serif" font-size="13" lengthAdjust="spacing" textLength="227" x="136" y="784.3135">shows store list and asks to select one</text><polygon fill="#181818" points="479,816.8672,489,820.8672,479,824.8672,483,820.8672" style="stroke:#181818;stroke-width:1.0;"/><line style="stroke:#181818;stroke-width:1.0;" x1="101" x2="485" y1="820.8672" y2="820.8672"/><text fill="#000000" font-family="sans-serif" font-size="13" font-weight="bold" lengthAdjust="spacing" textLength="14" x="108" y="815.6045">16</text><text fill="#000000" font-family="sans-serif" font-size="13" lengthAdjust="spacing" textLength="86" x="126" y="815.6045">selects a store</text><polygon fill="#181818" points="112,855.1582,102,859.1582,112,863.1582,108,859.1582" style="stroke:#181818;stroke-width:1.0;"/><line style="stroke:#181818;stroke-width:1.0;stroke-dasharray:2.0,2.0;" x1="106" x2="495" y1="859.1582" y2="859.1582"/><text fill="#000000" font-family="sans-serif" font-size="13" font-weight="bold" lengthAdjust="spacing" textLength="14" x="118" y="853.8955">17</text><text fill="#000000" font-family="sans-serif" font-size="13" lengthAdjust="spacing" textLength="336" x="136" y="853.8955">shows selected user role, store/stores and requested data</text><polygon fill="#181818" points="479,886.4492,489,890.4492,479,894.4492,483,890.4492" style="stroke:#181818;stroke-width:1.0;"/><line style="stroke:#181818;stroke-width:1.0;" x1="101" x2="485" y1="890.4492" y2="890.4492"/><text fill="#000000" font-family="sans-serif" font-size="13" font-weight="bold" lengthAdjust="spacing" textLength="14" x="108" y="885.1865">18</text><text fill="#000000" font-family="sans-serif" font-size="13" lengthAdjust="spacing" textLength="75" x="126" y="885.1865">submits data</text><polygon fill="#181818" points="1262,917.7402,1272,921.7402,1262,925.7402,1266,921.7402" style="stroke:#181818;stroke-width:1.0;"/><line style="stroke:#181818;stroke-width:1.0;" x1="501" x2="1268" y1="921.7402" y2="921.7402"/><text fill="#000000" font-family="sans-serif" font-size="13" font-weight="bold" lengthAdjust="spacing" textLength="14" x="508" y="916.4775">19</text><text fill="#000000" font-family="sans-serif" font-size="13" lengthAdjust="spacing" textLength="736" x="526" y="916.4775">createEmployee(name, password, citizenNum, tin, email, phoneNum, storeID, street, zipCode, stateUS, city, district, userRole)</text><polygon fill="#181818" points="1457,949.0313,1467,953.0313,1457,957.0313,1461,953.0313" style="stroke:#181818;stroke-width:1.0;"/><line style="stroke:#181818;stroke-width:1.0;" x1="1284" x2="1463" y1="953.0313" y2="953.0313"/><text fill="#000000" font-family="sans-serif" font-size="13" font-weight="bold" lengthAdjust="spacing" textLength="14" x="1291" y="947.7686">20</text><text fill="#000000" font-family="sans-serif" font-size="13" lengthAdjust="spacing" textLength="101" x="1309" y="947.7686">userExists(email)</text><polygon fill="#181818" points="1295,980.3223,1285,984.3223,1295,988.3223,1291,984.3223" style="stroke:#181818;stroke-width:1.0;"/><line style="stroke:#181818;stroke-width:1.0;stroke-dasharray:2.0,2.0;" x1="1289" x2="1473" y1="984.3223" y2="984.3223"/><text fill="#000000" font-family="sans-serif" font-size="13" font-weight="bold" lengthAdjust="spacing" textLength="14" x="1301" y="979.0596">21</text><text fill="#000000" font-family="sans-serif" font-size="13" lengthAdjust="spacing" textLength="107" x="1319" y="979.0596">returns information</text><path d="M1171.5,999.3223 L1236.5,999.3223 L1236.5,1008.6133 L1226.5,1018.6133 L1171.5,1018.6133 L1171.5,999.3223 " fill="#EEEEEE" style="stroke:#000000;stroke-width:1.5;"/><rect fill="none" height="67.543" style="stroke:#000000;stroke-width:1.5;" width="215" x="1171.5" y="999.3223"/><text fill="#000000" font-family="sans-serif" font-size="13" font-weight="bold" lengthAdjust="spacing" textLength="20" x="1186.5" y="1014.3506">opt</text><text fill="#000000" font-family="sans-serif" font-size="11" font-weight="bold" lengthAdjust="spacing" textLength="31" x="1251.5" y="1013.1924">[true]</text><rect fill="none" height="43.252" style="stroke:#000000;stroke-width:1.5;" width="201" x="1178.5" y="1018.6133"/><path d="M1178.5,1018.6133 L1240.5,1018.6133 L1240.5,1027.6133 L1230.5,1037.6133 L1178.5,1037.6133 L1178.5,1018.6133 " fill="#EEEEEE" style="stroke:#000000;stroke-width:2.0;"/><text fill="#000000" font-family="sans-serif" font-size="13" font-weight="bold" lengthAdjust="spacing" textLength="17" x="1191.5" y="1034.6416">ref</text><text fill="#000000" font-family="sans-serif" font-size="12" lengthAdjust="spacing" textLength="65" x="1246.5" y="1054.5625">Create user</text><polygon fill="#181818" points="512,1093.1563,502,1097.1563,512,1101.1563,508,1097.1563" style="stroke:#181818;stroke-width:1.0;"/><line style="stroke:#181818;stroke-width:1.0;stroke-dasharray:2.0,2.0;" x1="506" x2="1278" y1="1097.1563" y2="1097.1563"/><text fill="#000000" font-family="sans-serif" font-size="13" font-weight="bold" lengthAdjust="spacing" textLength="14" x="518" y="1091.8936">22</text><text fill="#000000" font-family="sans-serif" font-size="13" lengthAdjust="spacing" textLength="53" x="536" y="1091.8936">true/false</text><polygon fill="#181818" points="107,1124.4473,97,1128.4473,107,1132.4473,103,1128.4473" style="stroke:#181818;stroke-width:1.0;"/><line style="stroke:#181818;stroke-width:1.0;stroke-dasharray:2.0,2.0;" x1="101" x2="495" y1="1128.4473" y2="1128.4473"/><text fill="#000000" font-family="sans-serif" font-size="13" font-weight="bold" lengthAdjust="spacing" textLength="14" x="113" y="1123.1846">23</text><text fill="#000000" font-family="sans-serif" font-size="13" lengthAdjust="spacing" textLength="158" x="131" y="1123.1846">displays operation success</text><!--SRC=[jLPBRzim3BxxLt2zf2bIz1vW1OQq60fq6v0kjrvKcOc5s98doKtJNpzAiXq_Ks_3VB8jFZwI7qcPlP0vqoo3J4d54wqo1AiBZ4nzaZE-PpjyiiSKGIEtJExIfe19MAmEGkvWorA3KSGAgsIHlQ2EebaYOeIjKlP5lKMCMwNXueVUCIdUcHLAmdsMf-g8U07Cm9UxRn5PjOABd4aB5yirxeIng2knpOCNt3ny8BTIqcgLfgYz_Ehd-h6jGIWJbFJjOQmnLqOGkkFoMNuPEVAMUdgH2qkyCeiUVWJbGnzmVKj8OKbwUmDMKVu2Ic0WyG1OWZqfrQOemFgdUyWC6NDXN5sHGQwHf5eIjQgFTTPL9cs7Q4aOVXLeh86OMGQN6hUeKN9SG8o6Qv6xk1O0GcwLpbWApx9zOf4dak9Fsx_ZGhFmnfMnynQsMS0Re3KFo3keLqf8xyGzNz6IH9b-WQObW39swlqqZKHAqG2LxfJqfbwCpSoFd7YChSDcZUqnHrFvnBXChsGPPJPdnXoKZYatmeftb3C3dEaOGfyiACMMlLLVWDSP4wdBT8fveYIM9_FXWWznPM8I24Ug0fNFv6CuvYKOga758sCrebt0kyYvYYbcOqdR1tmaSX3jjU1sOWHzrbCaExGRWtgjKdmaSvVpGPKprPfEl2u92_8BD4uGKl8yAZv8oURZ8xck65CqeXbKESkzNgLDeWxc19L65S6f9eyXAd4BnAMfTUxoErXmLay-flEnMSKdwkQX4fu9zkCvOPpHVda6Iz8kWwdWJEzxbjf0Xy-bNucM-diF6PEqBFMKGfq03nMAclHPUX7wcp2I8M6tm41jVGUN7gCpd9bQKMUEK4lU7R7TghOIIxi-vE3JVqj2bwr_ozZWPdfeCZuP7WBjxTA8h_jW4JpSb0LZddJDHH2DG6_1BLuoKGxgQBIXMiqKrcfrvnbRDj-BZ7Q9eCsCOQ_udUB_Ui0FT-wb7j-hq_ZUF7K7-AAUMlDeuiWDtNRRlpc52NZ_HgRDfOSs7w_HmBrhSFntnNprodHfj8MMfhhQzBRU0CSckbMv3HVdVzytgt1LSgdvSD6Cd8tLeBwg4DARS5l_evLpweMb8qIUigEXq35S_8Z0dACnGrnlVBfBycy0]--></g></svg>