<?xml version="1.0" encoding="us-ascii" standalone="no"?><svg xmlns="http://www.w3.org/2000/svg" xmlns:xlink="http://www.w3.org/1999/xlink" contentStyleType="text/css" height="1934px" preserveAspectRatio="none" style="width:2583px;height:1934px;background:#FFFFFF;" version="1.1" viewBox="0 0 2583 1934" width="2583px" zoomAndPan="magnify"><defs/><g><rect fill="#FFFFFF" height="1753.4063" style="stroke:#181818;stroke-width:1.0;" width="10" x="39" y="91.2969"/><rect fill="#FFFFFF" height="1732.2734" style="stroke:#181818;stroke-width:1.0;" width="10" x="571" y="112.4297"/><rect fill="#FFFFFF" height="1606.7422" style="stroke:#181818;stroke-width:1.0;" width="10" x="913" y="228.9609"/><rect fill="#FFFFFF" height="29.1328" style="stroke:#181818;stroke-width:1.0;" width="10" x="1147" y="170.6953"/><rect fill="#FFFFFF" height="29.1328" style="stroke:#181818;stroke-width:1.0;" width="10" x="1264" y="258.0938"/><rect fill="#FFFFFF" height="29.1328" style="stroke:#181818;stroke-width:1.0;" width="10" x="1427" y="316.3594"/><rect fill="#FFFFFF" height="29.1328" style="stroke:#181818;stroke-width:1.0;" width="10" x="1427" y="1243.6406"/><rect fill="#FFFFFF" height="29.1328" style="stroke:#181818;stroke-width:1.0;" width="10" x="1427" y="1346.0391"/><rect fill="#FFFFFF" height="29.1328" style="stroke:#181818;stroke-width:1.0;" width="10" x="1427" y="1692.1719"/><rect fill="#FFFFFF" height="147.6641" style="stroke:#181818;stroke-width:1.0;" width="10" x="1835" y="469.1875"/><rect fill="#FFFFFF" height="29.1328" style="stroke:#181818;stroke-width:1.0;" width="10" x="1835" y="1036.7109"/><rect fill="#FFFFFF" height="29.1328" style="stroke:#181818;stroke-width:1.0;" width="10" x="1835" y="1533.5078"/><rect fill="#FFFFFF" height="29.1328" style="stroke:#181818;stroke-width:1.0;" width="10" x="1988" y="522.4531"/><rect fill="#FFFFFF" height="29.1328" style="stroke:#181818;stroke-width:1.0;" width="10" x="1988" y="1094.9766"/><rect fill="#FFFFFF" height="29.1328" style="stroke:#181818;stroke-width:1.0;" width="10" x="1988" y="1591.7734"/><rect fill="#FFFFFF" height="102.3984" style="stroke:#181818;stroke-width:1.0;" width="10" x="2313.5" y="682.1172"/><rect fill="none" height="223.0625" style="stroke:#000000;stroke-width:1.5;" width="1747" x="829.5" y="430.9219"/><rect fill="none" height="75.3984" style="stroke:#000000;stroke-width:1.5;" width="316" x="1741.5" y="484.1875"/><rect fill="none" height="59.2656" style="stroke:#000000;stroke-width:1.5;" width="366" x="2211.5" y="697.1172"/><rect fill="none" height="978.9219" style="stroke:#000000;stroke-width:1.5;" width="2057.5" x="10" y="828.6484"/><rect fill="none" height="831.2578" style="stroke:#000000;stroke-width:1.5;" width="1541.5" x="516" y="969.3125"/><rect fill="none" height="251.0625" style="stroke:#000000;stroke-width:1.5;" width="732" x="819.5" y="1139.1094"/><rect fill="none" height="219.9297" style="stroke:#000000;stroke-width:1.5;" width="712" x="829.5" y="1163.2422"/><line style="stroke:#181818;stroke-width:0.5;stroke-dasharray:5.0,5.0;" x1="44" x2="44" y1="81.2969" y2="1853.7031"/><line style="stroke:#181818;stroke-width:0.5;stroke-dasharray:5.0,5.0;" x1="576" x2="576" y1="81.2969" y2="1853.7031"/><line style="stroke:#181818;stroke-width:0.5;stroke-dasharray:5.0,5.0;" x1="917.5" x2="917.5" y1="81.2969" y2="1853.7031"/><line style="stroke:#181818;stroke-width:0.5;stroke-dasharray:5.0,5.0;" x1="1151.5" x2="1151.5" y1="81.2969" y2="1853.7031"/><line style="stroke:#181818;stroke-width:0.5;stroke-dasharray:5.0,5.0;" x1="1268.5" x2="1268.5" y1="81.2969" y2="1853.7031"/><line style="stroke:#181818;stroke-width:0.5;stroke-dasharray:5.0,5.0;" x1="1431.5" x2="1431.5" y1="81.2969" y2="1853.7031"/><line style="stroke:#181818;stroke-width:0.5;stroke-dasharray:5.0,5.0;" x1="1641.5" x2="1641.5" y1="81.2969" y2="1853.7031"/><line style="stroke:#181818;stroke-width:0.5;stroke-dasharray:5.0,5.0;" x1="1839.5" x2="1839.5" y1="81.2969" y2="1853.7031"/><line style="stroke:#181818;stroke-width:0.5;stroke-dasharray:5.0,5.0;" x1="1992.5" x2="1992.5" y1="81.2969" y2="1853.7031"/><line style="stroke:#181818;stroke-width:0.5;stroke-dasharray:5.0,5.0;" x1="2134.5" x2="2134.5" y1="81.2969" y2="1853.7031"/><line style="stroke:#181818;stroke-width:0.5;stroke-dasharray:5.0,5.0;" x1="2318.5" x2="2318.5" y1="81.2969" y2="1853.7031"/><line style="stroke:#181818;stroke-width:0.5;stroke-dasharray:5.0,5.0;" x1="2547.5" x2="2547.5" y1="413.2734" y2="1853.7031"/><text fill="#000000" font-family="sans-serif" font-size="14" lengthAdjust="spacing" textLength="42" x="20" y="77.9951">Agent</text><ellipse cx="44" cy="13.5" fill="#E3E3E3" rx="8" ry="8" style="stroke:#181818;stroke-width:0.5;"/><path d="M44,21.5 L44,48.5 M31,29.5 L57,29.5 M44,48.5 L31,63.5 M44,48.5 L57,63.5 " fill="none" style="stroke:#181818;stroke-width:0.5;"/><text fill="#000000" font-family="sans-serif" font-size="14" lengthAdjust="spacing" textLength="42" x="20" y="1865.6982">Agent</text><ellipse cx="44" cy="1877.5" fill="#E3E3E3" rx="8" ry="8" style="stroke:#181818;stroke-width:0.5;"/><path d="M44,1885.5 L44,1912.5 M31,1893.5 L57,1893.5 M44,1912.5 L31,1927.5 M44,1912.5 L57,1927.5 " fill="none" style="stroke:#181818;stroke-width:0.5;"/><rect fill="#E3E3E3" height="30.2969" rx="2.5" ry="2.5" style="stroke:#181818;stroke-width:0.5;" width="100" x="526" y="50"/><text fill="#000000" font-family="sans-serif" font-size="14" lengthAdjust="spacing" textLength="86" x="533" y="69.9951">:ListOffersUI</text><rect fill="#E3E3E3" height="30.2969" rx="2.5" ry="2.5" style="stroke:#181818;stroke-width:0.5;" width="100" x="526" y="1852.7031"/><text fill="#000000" font-family="sans-serif" font-size="14" lengthAdjust="spacing" textLength="86" x="533" y="1872.6982">:ListOffersUI</text><rect fill="#E3E3E3" height="30.2969" rx="2.5" ry="2.5" style="stroke:#181818;stroke-width:0.5;" width="157" x="839.5" y="50"/><text fill="#000000" font-family="sans-serif" font-size="14" lengthAdjust="spacing" textLength="143" x="846.5" y="69.9951">:ListOffersController</text><rect fill="#E3E3E3" height="30.2969" rx="2.5" ry="2.5" style="stroke:#181818;stroke-width:0.5;" width="157" x="839.5" y="1852.7031"/><text fill="#000000" font-family="sans-serif" font-size="14" lengthAdjust="spacing" textLength="143" x="846.5" y="1872.6982">:ListOffersController</text><rect fill="#E3E3E3" height="30.2969" rx="2.5" ry="2.5" style="stroke:#181818;stroke-width:0.5;" width="107" x="1098.5" y="50"/><text fill="#000000" font-family="sans-serif" font-size="14" lengthAdjust="spacing" textLength="93" x="1105.5" y="69.9951">:Repositories</text><rect fill="#E3E3E3" height="30.2969" rx="2.5" ry="2.5" style="stroke:#181818;stroke-width:0.5;" width="107" x="1098.5" y="1852.7031"/><text fill="#000000" font-family="sans-serif" font-size="14" lengthAdjust="spacing" textLength="93" x="1105.5" y="1872.6982">:Repositories</text><rect fill="#E3E3E3" height="46.5938" rx="2.5" ry="2.5" style="stroke:#181818;stroke-width:0.5;" width="107" x="1215.5" y="33.7031"/><text fill="#000000" font-family="sans-serif" font-size="14" lengthAdjust="spacing" textLength="84" x="1227" y="53.6982">repositories</text><text fill="#000000" font-family="sans-serif" font-size="14" lengthAdjust="spacing" textLength="93" x="1222.5" y="69.9951">:Repositories</text><rect fill="#E3E3E3" height="46.5938" rx="2.5" ry="2.5" style="stroke:#181818;stroke-width:0.5;" width="107" x="1215.5" y="1852.7031"/><text fill="#000000" font-family="sans-serif" font-size="14" lengthAdjust="spacing" textLength="84" x="1227" y="1872.6982">repositories</text><text fill="#000000" font-family="sans-serif" font-size="14" lengthAdjust="spacing" textLength="93" x="1222.5" y="1888.9951">:Repositories</text><rect fill="#E3E3E3" height="46.5938" rx="2.5" ry="2.5" style="stroke:#181818;stroke-width:0.5;" width="199" x="1332.5" y="33.7031"/><text fill="#000000" font-family="sans-serif" font-size="14" lengthAdjust="spacing" textLength="179" x="1342.5" y="53.6982">advertisementRepository</text><text fill="#000000" font-family="sans-serif" font-size="14" lengthAdjust="spacing" textLength="185" x="1339.5" y="69.9951">:AdvertisementRepository</text><rect fill="#E3E3E3" height="46.5938" rx="2.5" ry="2.5" style="stroke:#181818;stroke-width:0.5;" width="199" x="1332.5" y="1852.7031"/><text fill="#000000" font-family="sans-serif" font-size="14" lengthAdjust="spacing" textLength="179" x="1342.5" y="1872.6982">advertisementRepository</text><text fill="#000000" font-family="sans-serif" font-size="14" lengthAdjust="spacing" textLength="185" x="1339.5" y="1888.9951">:AdvertisementRepository</text><rect fill="#E3E3E3" height="46.5938" rx="2.5" ry="2.5" style="stroke:#181818;stroke-width:0.5;" width="200" x="1541.5" y="33.7031"/><text fill="#000000" font-family="sans-serif" font-size="14" lengthAdjust="spacing" textLength="179" x="1552" y="53.6982">offerFeedbackRepository</text><text fill="#000000" font-family="sans-serif" font-size="14" lengthAdjust="spacing" textLength="186" x="1548.5" y="69.9951">:OfferFeedbackRepository</text><rect fill="#E3E3E3" height="46.5938" rx="2.5" ry="2.5" style="stroke:#181818;stroke-width:0.5;" width="200" x="1541.5" y="1852.7031"/><text fill="#000000" font-family="sans-serif" font-size="14" lengthAdjust="spacing" textLength="179" x="1552" y="1872.6982">offerFeedbackRepository</text><text fill="#000000" font-family="sans-serif" font-size="14" lengthAdjust="spacing" textLength="186" x="1548.5" y="1888.9951">:OfferFeedbackRepository</text><rect fill="#E3E3E3" height="30.2969" rx="2.5" ry="2.5" style="stroke:#181818;stroke-width:0.5;" width="177" x="1751.5" y="50"/><text fill="#000000" font-family="sans-serif" font-size="14" lengthAdjust="spacing" textLength="163" x="1758.5" y="69.9951">:AdvertisementMapper</text><rect fill="#E3E3E3" height="30.2969" rx="2.5" ry="2.5" style="stroke:#181818;stroke-width:0.5;" width="177" x="1751.5" y="1852.7031"/><text fill="#000000" font-family="sans-serif" font-size="14" lengthAdjust="spacing" textLength="163" x="1758.5" y="1872.6982">:AdvertisementMapper</text><rect fill="#E3E3E3" height="30.2969" rx="2.5" ry="2.5" style="stroke:#181818;stroke-width:0.5;" width="109" x="1938.5" y="50"/><text fill="#000000" font-family="sans-serif" font-size="14" lengthAdjust="spacing" textLength="95" x="1945.5" y="69.9951">:OfferMapper</text><rect fill="#E3E3E3" height="30.2969" rx="2.5" ry="2.5" style="stroke:#181818;stroke-width:0.5;" width="109" x="1938.5" y="1852.7031"/><text fill="#000000" font-family="sans-serif" font-size="14" lengthAdjust="spacing" textLength="95" x="1945.5" y="1872.6982">:OfferMapper</text><rect fill="#E3E3E3" height="30.2969" rx="2.5" ry="2.5" style="stroke:#181818;stroke-width:0.5;" width="154" x="2057.5" y="50"/><text fill="#000000" font-family="sans-serif" font-size="14" lengthAdjust="spacing" textLength="140" x="2064.5" y="69.9951">:AdvertisementDTO</text><rect fill="#E3E3E3" height="30.2969" rx="2.5" ry="2.5" style="stroke:#181818;stroke-width:0.5;" width="154" x="2057.5" y="1852.7031"/><text fill="#000000" font-family="sans-serif" font-size="14" lengthAdjust="spacing" textLength="140" x="2064.5" y="1872.6982">:AdvertisementDTO</text><rect fill="#E3E3E3" height="30.2969" rx="2.5" ry="2.5" style="stroke:#181818;stroke-width:0.5;" width="194" x="2221.5" y="50"/><text fill="#000000" font-family="sans-serif" font-size="14" lengthAdjust="spacing" textLength="180" x="2228.5" y="69.9951">:AdvertisementCollection</text><rect fill="#E3E3E3" height="30.2969" rx="2.5" ry="2.5" style="stroke:#181818;stroke-width:0.5;" width="194" x="2221.5" y="1852.7031"/><text fill="#000000" font-family="sans-serif" font-size="14" lengthAdjust="spacing" textLength="180" x="2228.5" y="1872.6982">:AdvertisementCollection</text><rect fill="#E3E3E3" height="30.2969" rx="2.5" ry="2.5" style="stroke:#181818;stroke-width:0.5;" width="38" x="2528.5" y="1852.7031"/><text fill="#000000" font-family="sans-serif" font-size="14" lengthAdjust="spacing" textLength="24" x="2535.5" y="1872.6982">List</text><rect fill="#FFFFFF" height="1753.4063" style="stroke:#181818;stroke-width:1.0;" width="10" x="39" y="91.2969"/><rect fill="#FFFFFF" height="1732.2734" style="stroke:#181818;stroke-width:1.0;" width="10" x="571" y="112.4297"/><rect fill="#FFFFFF" height="1606.7422" style="stroke:#181818;stroke-width:1.0;" width="10" x="913" y="228.9609"/><rect fill="#FFFFFF" height="29.1328" style="stroke:#181818;stroke-width:1.0;" width="10" x="1147" y="170.6953"/><rect fill="#FFFFFF" height="29.1328" style="stroke:#181818;stroke-width:1.0;" width="10" x="1264" y="258.0938"/><rect fill="#FFFFFF" height="29.1328" style="stroke:#181818;stroke-width:1.0;" width="10" x="1427" y="316.3594"/><rect fill="#FFFFFF" height="29.1328" style="stroke:#181818;stroke-width:1.0;" width="10" x="1427" y="1243.6406"/><rect fill="#FFFFFF" height="29.1328" style="stroke:#181818;stroke-width:1.0;" width="10" x="1427" y="1346.0391"/><rect fill="#FFFFFF" height="29.1328" style="stroke:#181818;stroke-width:1.0;" width="10" x="1427" y="1692.1719"/><rect fill="#FFFFFF" height="147.6641" style="stroke:#181818;stroke-width:1.0;" width="10" x="1835" y="469.1875"/><rect fill="#FFFFFF" height="29.1328" style="stroke:#181818;stroke-width:1.0;" width="10" x="1835" y="1036.7109"/><rect fill="#FFFFFF" height="29.1328" style="stroke:#181818;stroke-width:1.0;" width="10" x="1835" y="1533.5078"/><rect fill="#FFFFFF" height="29.1328" style="stroke:#181818;stroke-width:1.0;" width="10" x="1988" y="522.4531"/><rect fill="#FFFFFF" height="29.1328" style="stroke:#181818;stroke-width:1.0;" width="10" x="1988" y="1094.9766"/><rect fill="#FFFFFF" height="29.1328" style="stroke:#181818;stroke-width:1.0;" width="10" x="1988" y="1591.7734"/><rect fill="#FFFFFF" height="102.3984" style="stroke:#181818;stroke-width:1.0;" width="10" x="2313.5" y="682.1172"/><polygon fill="#181818" points="559,108.4297,569,112.4297,559,116.4297,563,112.4297" style="stroke:#181818;stroke-width:1.0;"/><line style="stroke:#181818;stroke-width:1.0;" x1="49" x2="565" y1="112.4297" y2="112.4297"/><text fill="#000000" font-family="sans-serif" font-size="13" font-weight="bold" lengthAdjust="spacing" textLength="9" x="56" y="107.3638">1</text><text fill="#000000" font-family="sans-serif" font-size="13" lengthAdjust="spacing" textLength="113" x="69" y="107.3638">asks to list offers</text><polygon fill="#181818" points="906,137.5625,916,141.5625,906,145.5625,910,141.5625" style="stroke:#181818;stroke-width:1.0;"/><line style="stroke:#181818;stroke-width:1.0;" x1="581" x2="912" y1="141.5625" y2="141.5625"/><text fill="#000000" font-family="sans-serif" font-size="13" font-weight="bold" lengthAdjust="spacing" textLength="9" x="588" y="136.4966">2</text><text fill="#000000" font-family="sans-serif" font-size="13" lengthAdjust="spacing" textLength="51" x="601" y="136.4966">create()</text><polygon fill="#181818" points="1135,166.6953,1145,170.6953,1135,174.6953,1139,170.6953" style="stroke:#181818;stroke-width:1.0;"/><line style="stroke:#181818;stroke-width:1.0;" x1="918" x2="1141" y1="170.6953" y2="170.6953"/><text fill="#000000" font-family="sans-serif" font-size="13" font-weight="bold" lengthAdjust="spacing" textLength="9" x="925" y="165.6294">3</text><text fill="#000000" font-family="sans-serif" font-size="13" lengthAdjust="spacing" textLength="86" x="938" y="165.6294">getInstance()</text><polygon fill="#181818" points="929,195.8281,919,199.8281,929,203.8281,925,199.8281" style="stroke:#181818;stroke-width:1.0;"/><line style="stroke:#181818;stroke-width:1.0;stroke-dasharray:2.0,2.0;" x1="923" x2="1151" y1="199.8281" y2="199.8281"/><text fill="#000000" font-family="sans-serif" font-size="13" font-weight="bold" lengthAdjust="spacing" textLength="9" x="935" y="194.7622">4</text><text fill="#000000" font-family="sans-serif" font-size="13" lengthAdjust="spacing" textLength="77" x="948" y="194.7622">repositories</text><polygon fill="#181818" points="901,224.9609,911,228.9609,901,232.9609,905,228.9609" style="stroke:#181818;stroke-width:1.0;"/><line style="stroke:#181818;stroke-width:1.0;" x1="581" x2="907" y1="228.9609" y2="228.9609"/><text fill="#000000" font-family="sans-serif" font-size="13" font-weight="bold" lengthAdjust="spacing" textLength="9" x="588" y="223.895">5</text><text fill="#000000" font-family="sans-serif" font-size="13" lengthAdjust="spacing" textLength="182" x="601" y="223.895">listedPropertiesWithOffers()</text><polygon fill="#181818" points="1252,254.0938,1262,258.0938,1252,262.0938,1256,258.0938" style="stroke:#181818;stroke-width:1.0;"/><line style="stroke:#181818;stroke-width:1.0;" x1="923" x2="1258" y1="258.0938" y2="258.0938"/><text fill="#000000" font-family="sans-serif" font-size="13" font-weight="bold" lengthAdjust="spacing" textLength="9" x="930" y="253.0278">6</text><text fill="#000000" font-family="sans-serif" font-size="13" lengthAdjust="spacing" textLength="175" x="943" y="253.0278">advertisementRepository()</text><polygon fill="#181818" points="934,283.2266,924,287.2266,934,291.2266,930,287.2266" style="stroke:#181818;stroke-width:1.0;"/><line style="stroke:#181818;stroke-width:1.0;stroke-dasharray:2.0,2.0;" x1="928" x2="1268" y1="287.2266" y2="287.2266"/><text fill="#000000" font-family="sans-serif" font-size="13" font-weight="bold" lengthAdjust="spacing" textLength="9" x="940" y="282.1606">7</text><text fill="#000000" font-family="sans-serif" font-size="13" lengthAdjust="spacing" textLength="165" x="953" y="282.1606">advertisementRepository</text><polygon fill="#181818" points="1415,312.3594,1425,316.3594,1415,320.3594,1419,316.3594" style="stroke:#181818;stroke-width:1.0;"/><line style="stroke:#181818;stroke-width:1.0;" x1="923" x2="1421" y1="316.3594" y2="316.3594"/><text fill="#000000" font-family="sans-serif" font-size="13" font-weight="bold" lengthAdjust="spacing" textLength="9" x="930" y="311.2935">8</text><text fill="#000000" font-family="sans-serif" font-size="13" lengthAdjust="spacing" textLength="229" x="943" y="311.2935">getAdvertisementsForAgent(agent)</text><polygon fill="#181818" points="934,341.4922,924,345.4922,934,349.4922,930,345.4922" style="stroke:#181818;stroke-width:1.0;"/><line style="stroke:#181818;stroke-width:1.0;" x1="928" x2="1431" y1="345.4922" y2="345.4922"/><text fill="#000000" font-family="sans-serif" font-size="13" font-weight="bold" lengthAdjust="spacing" textLength="9" x="940" y="340.4263">9</text><text fill="#000000" font-family="sans-serif" font-size="13" lengthAdjust="spacing" textLength="118" x="953" y="340.4263">advertisementList</text><polygon fill="#181818" points="1828,370.625,1838,374.625,1828,378.625,1832,374.625" style="stroke:#181818;stroke-width:1.0;"/><line style="stroke:#181818;stroke-width:1.0;" x1="923" x2="1834" y1="374.625" y2="374.625"/><text fill="#000000" font-family="sans-serif" font-size="13" font-weight="bold" lengthAdjust="spacing" textLength="18" x="930" y="369.5591">10</text><text fill="#000000" font-family="sans-serif" font-size="13" lengthAdjust="spacing" textLength="51" x="952" y="369.5591">create()</text><polygon fill="#181818" points="2516.5,399.7578,2526.5,403.7578,2516.5,407.7578,2520.5,403.7578" style="stroke:#181818;stroke-width:1.0;"/><line style="stroke:#181818;stroke-width:1.0;" x1="923" x2="2522.5" y1="403.7578" y2="403.7578"/><text fill="#000000" font-family="sans-serif" font-size="13" font-weight="bold" lengthAdjust="spacing" textLength="18" x="930" y="398.6919">11</text><text fill="#000000" font-family="sans-serif" font-size="13" lengthAdjust="spacing" textLength="51" x="952" y="398.6919">create()</text><rect fill="#E3E3E3" height="30.2969" rx="2.5" ry="2.5" style="stroke:#181818;stroke-width:0.5;" width="38" x="2528.5" y="382.625"/><text fill="#000000" font-family="sans-serif" font-size="14" lengthAdjust="spacing" textLength="24" x="2535.5" y="402.6201">List</text><path d="M829.5,430.9219 L910.5,430.9219 L910.5,438.0547 L900.5,448.0547 L829.5,448.0547 L829.5,430.9219 " fill="#EEEEEE" style="stroke:#000000;stroke-width:1.5;"/><rect fill="none" height="223.0625" style="stroke:#000000;stroke-width:1.5;" width="1747" x="829.5" y="430.9219"/><text fill="#000000" font-family="sans-serif" font-size="13" font-weight="bold" lengthAdjust="spacing" textLength="31" x="844.5" y="443.9888">loop</text><text fill="#000000" font-family="sans-serif" font-size="11" font-weight="bold" lengthAdjust="spacing" textLength="213" x="925.5" y="443.1323">[advertisement:advertisementList]</text><polygon fill="#181818" points="1823,465.1875,1833,469.1875,1823,473.1875,1827,469.1875" style="stroke:#181818;stroke-width:1.0;"/><line style="stroke:#181818;stroke-width:1.0;" x1="923" x2="1829" y1="469.1875" y2="469.1875"/><text fill="#000000" font-family="sans-serif" font-size="13" font-weight="bold" lengthAdjust="spacing" textLength="18" x="930" y="464.1216">12</text><text fill="#000000" font-family="sans-serif" font-size="13" lengthAdjust="spacing" textLength="146" x="952" y="464.1216">toDTO(advertisement)</text><path d="M1741.5,484.1875 L1822.5,484.1875 L1822.5,491.3203 L1812.5,501.3203 L1741.5,501.3203 L1741.5,484.1875 " fill="#EEEEEE" style="stroke:#000000;stroke-width:1.5;"/><rect fill="none" height="75.3984" style="stroke:#000000;stroke-width:1.5;" width="316" x="1741.5" y="484.1875"/><text fill="#000000" font-family="sans-serif" font-size="13" font-weight="bold" lengthAdjust="spacing" textLength="31" x="1756.5" y="497.2544">loop</text><text fill="#000000" font-family="sans-serif" font-size="11" font-weight="bold" lengthAdjust="spacing" textLength="95" x="1837.5" y="496.3979">[for each offer]</text><polygon fill="#181818" points="1976,518.4531,1986,522.4531,1976,526.4531,1980,522.4531" style="stroke:#181818;stroke-width:1.0;"/><line style="stroke:#181818;stroke-width:1.0;" x1="1845" x2="1982" y1="522.4531" y2="522.4531"/><text fill="#000000" font-family="sans-serif" font-size="13" font-weight="bold" lengthAdjust="spacing" textLength="18" x="1852" y="517.3872">13</text><text fill="#000000" font-family="sans-serif" font-size="13" lengthAdjust="spacing" textLength="82" x="1874" y="517.3872">toDTO(offer)</text><polygon fill="#181818" points="1856,547.5859,1846,551.5859,1856,555.5859,1852,551.5859" style="stroke:#181818;stroke-width:1.0;"/><line style="stroke:#181818;stroke-width:1.0;stroke-dasharray:2.0,2.0;" x1="1850" x2="1992" y1="551.5859" y2="551.5859"/><text fill="#000000" font-family="sans-serif" font-size="13" font-weight="bold" lengthAdjust="spacing" textLength="18" x="1862" y="546.52">14</text><text fill="#000000" font-family="sans-serif" font-size="13" lengthAdjust="spacing" textLength="59" x="1884" y="546.52">offerDTO</text><polygon fill="#181818" points="2122.5,583.7188,2132.5,587.7188,2122.5,591.7188,2126.5,587.7188" style="stroke:#181818;stroke-width:1.0;"/><line style="stroke:#181818;stroke-width:1.0;" x1="1845" x2="2128.5" y1="587.7188" y2="587.7188"/><text fill="#000000" font-family="sans-serif" font-size="13" font-weight="bold" lengthAdjust="spacing" textLength="18" x="1852" y="582.6528">15</text><text fill="#000000" font-family="sans-serif" font-size="13" lengthAdjust="spacing" textLength="51" x="1874" y="582.6528">create()</text><polygon fill="#181818" points="934,612.8516,924,616.8516,934,620.8516,930,616.8516" style="stroke:#181818;stroke-width:1.0;"/><line style="stroke:#181818;stroke-width:1.0;stroke-dasharray:2.0,2.0;" x1="928" x2="1839" y1="616.8516" y2="616.8516"/><text fill="#000000" font-family="sans-serif" font-size="13" font-weight="bold" lengthAdjust="spacing" textLength="18" x="940" y="611.7856">16</text><text fill="#000000" font-family="sans-serif" font-size="13" lengthAdjust="spacing" textLength="123" x="962" y="611.7856">advertisementDTO</text><polygon fill="#181818" points="2535.5,641.9844,2545.5,645.9844,2535.5,649.9844,2539.5,645.9844" style="stroke:#181818;stroke-width:1.0;"/><line style="stroke:#181818;stroke-width:1.0;" x1="923" x2="2541.5" y1="645.9844" y2="645.9844"/><text fill="#000000" font-family="sans-serif" font-size="13" font-weight="bold" lengthAdjust="spacing" textLength="18" x="930" y="640.9185">17</text><text fill="#000000" font-family="sans-serif" font-size="13" lengthAdjust="spacing" textLength="157" x="952" y="640.9185">add(advertisementDTO)</text><polygon fill="#181818" points="2301.5,678.1172,2311.5,682.1172,2301.5,686.1172,2305.5,682.1172" style="stroke:#181818;stroke-width:1.0;"/><line style="stroke:#181818;stroke-width:1.0;" x1="923" x2="2307.5" y1="682.1172" y2="682.1172"/><text fill="#000000" font-family="sans-serif" font-size="13" font-weight="bold" lengthAdjust="spacing" textLength="18" x="930" y="677.0513">18</text><text fill="#000000" font-family="sans-serif" font-size="13" lengthAdjust="spacing" textLength="229" x="952" y="677.0513">sortByDate(advertisementDTOList)</text><path d="M2211.5,697.1172 L2292.5,697.1172 L2292.5,704.25 L2282.5,714.25 L2211.5,714.25 L2211.5,697.1172 " fill="#EEEEEE" style="stroke:#000000;stroke-width:1.5;"/><rect fill="none" height="59.2656" style="stroke:#000000;stroke-width:1.5;" width="366" x="2211.5" y="697.1172"/><text fill="#000000" font-family="sans-serif" font-size="13" font-weight="bold" lengthAdjust="spacing" textLength="31" x="2226.5" y="710.1841">loop</text><text fill="#000000" font-family="sans-serif" font-size="11" font-weight="bold" lengthAdjust="spacing" textLength="265" x="2307.5" y="709.3276">[advertisementDTO:advertisementDTOList]</text><line style="stroke:#181818;stroke-width:1.0;" x1="2323.5" x2="2365.5" y1="735.3828" y2="735.3828"/><line style="stroke:#181818;stroke-width:1.0;" x1="2365.5" x2="2365.5" y1="735.3828" y2="748.3828"/><line style="stroke:#181818;stroke-width:1.0;" x1="2324.5" x2="2365.5" y1="748.3828" y2="748.3828"/><polygon fill="#181818" points="2334.5,744.3828,2324.5,748.3828,2334.5,752.3828,2330.5,748.3828" style="stroke:#181818;stroke-width:1.0;"/><text fill="#000000" font-family="sans-serif" font-size="13" font-weight="bold" lengthAdjust="spacing" textLength="18" x="2330.5" y="730.3169">19</text><text fill="#000000" font-family="sans-serif" font-size="13" lengthAdjust="spacing" textLength="183" x="2352.5" y="730.3169">sortOffersByValue(offerList)</text><polygon fill="#181818" points="934,780.5156,924,784.5156,934,788.5156,930,784.5156" style="stroke:#181818;stroke-width:1.0;"/><line style="stroke:#181818;stroke-width:1.0;stroke-dasharray:2.0,2.0;" x1="928" x2="2317.5" y1="784.5156" y2="784.5156"/><text fill="#000000" font-family="sans-serif" font-size="13" font-weight="bold" lengthAdjust="spacing" textLength="18" x="940" y="779.4497">20</text><text fill="#000000" font-family="sans-serif" font-size="13" lengthAdjust="spacing" textLength="188" x="962" y="779.4497">advertisementDTOSortedList</text><polygon fill="#181818" points="592,809.6484,582,813.6484,592,817.6484,588,813.6484" style="stroke:#181818;stroke-width:1.0;"/><line style="stroke:#181818;stroke-width:1.0;stroke-dasharray:2.0,2.0;" x1="586" x2="912" y1="813.6484" y2="813.6484"/><text fill="#000000" font-family="sans-serif" font-size="13" font-weight="bold" lengthAdjust="spacing" textLength="18" x="598" y="808.5825">21</text><text fill="#000000" font-family="sans-serif" font-size="13" lengthAdjust="spacing" textLength="188" x="620" y="808.5825">advertisementDTOSortedList</text><path d="M10,828.6484 L91,828.6484 L91,835.7813 L81,845.7813 L10,845.7813 L10,828.6484 " fill="#EEEEEE" style="stroke:#000000;stroke-width:1.5;"/><rect fill="none" height="978.9219" style="stroke:#000000;stroke-width:1.5;" width="2057.5" x="10" y="828.6484"/><text fill="#000000" font-family="sans-serif" font-size="13" font-weight="bold" lengthAdjust="spacing" textLength="31" x="25" y="841.7153">loop</text><text fill="#000000" font-family="sans-serif" font-size="11" font-weight="bold" lengthAdjust="spacing" textLength="65" x="106" y="840.8589">[intended]</text><polygon fill="#181818" points="60,862.9141,50,866.9141,60,870.9141,56,866.9141" style="stroke:#181818;stroke-width:1.0;"/><line style="stroke:#181818;stroke-width:1.0;stroke-dasharray:2.0,2.0;" x1="54" x2="570" y1="866.9141" y2="866.9141"/><text fill="#000000" font-family="sans-serif" font-size="13" font-weight="bold" lengthAdjust="spacing" textLength="18" x="66" y="861.8481">22</text><text fill="#000000" font-family="sans-serif" font-size="13" lengthAdjust="spacing" textLength="476" x="88" y="861.8481">display sorted list of advertisements information and asks to choose one</text><polygon fill="#181818" points="559,892.0469,569,896.0469,559,900.0469,563,896.0469" style="stroke:#181818;stroke-width:1.0;"/><line style="stroke:#181818;stroke-width:1.0;" x1="49" x2="565" y1="896.0469" y2="896.0469"/><text fill="#000000" font-family="sans-serif" font-size="13" font-weight="bold" lengthAdjust="spacing" textLength="18" x="56" y="890.981">23</text><text fill="#000000" font-family="sans-serif" font-size="13" lengthAdjust="spacing" textLength="109" x="78" y="890.981">choose one offer</text><polygon fill="#181818" points="60,921.1797,50,925.1797,60,929.1797,56,925.1797" style="stroke:#181818;stroke-width:1.0;"/><line style="stroke:#181818;stroke-width:1.0;stroke-dasharray:2.0,2.0;" x1="54" x2="570" y1="925.1797" y2="925.1797"/><text fill="#000000" font-family="sans-serif" font-size="13" font-weight="bold" lengthAdjust="spacing" textLength="18" x="66" y="920.1138">24</text><text fill="#000000" font-family="sans-serif" font-size="13" lengthAdjust="spacing" textLength="111" x="88" y="920.1138">approve or reject</text><polygon fill="#181818" points="559,950.3125,569,954.3125,559,958.3125,563,954.3125" style="stroke:#181818;stroke-width:1.0;"/><line style="stroke:#181818;stroke-width:1.0;" x1="49" x2="565" y1="954.3125" y2="954.3125"/><text fill="#000000" font-family="sans-serif" font-size="13" font-weight="bold" lengthAdjust="spacing" textLength="18" x="56" y="949.2466">25</text><text fill="#000000" font-family="sans-serif" font-size="13" lengthAdjust="spacing" textLength="54" x="78" y="949.2466">decision</text><path d="M516,969.3125 L580,969.3125 L580,976.4453 L570,986.4453 L516,986.4453 L516,969.3125 " fill="#EEEEEE" style="stroke:#000000;stroke-width:1.5;"/><rect fill="none" height="831.2578" style="stroke:#000000;stroke-width:1.5;" width="1541.5" x="516" y="969.3125"/><text fill="#000000" font-family="sans-serif" font-size="13" font-weight="bold" lengthAdjust="spacing" textLength="19" x="531" y="982.3794">alt</text><text fill="#000000" font-family="sans-serif" font-size="11" font-weight="bold" lengthAdjust="spacing" textLength="60" x="595" y="981.5229">[approve]</text><polygon fill="#181818" points="901,1003.5781,911,1007.5781,901,1011.5781,905,1007.5781" style="stroke:#181818;stroke-width:1.0;"/><line style="stroke:#181818;stroke-width:1.0;" x1="581" x2="907" y1="1007.5781" y2="1007.5781"/><text fill="#000000" font-family="sans-serif" font-size="13" font-weight="bold" lengthAdjust="spacing" textLength="18" x="588" y="1002.5122">26</text><text fill="#000000" font-family="sans-serif" font-size="13" lengthAdjust="spacing" textLength="272" x="610" y="1002.5122">acceptOffer(advertisementDTO,offerDTO)</text><polygon fill="#181818" points="1823,1032.7109,1833,1036.7109,1823,1040.7109,1827,1036.7109" style="stroke:#181818;stroke-width:1.0;"/><line style="stroke:#181818;stroke-width:1.0;" x1="923" x2="1829" y1="1036.7109" y2="1036.7109"/><text fill="#000000" font-family="sans-serif" font-size="13" font-weight="bold" lengthAdjust="spacing" textLength="18" x="930" y="1031.645">27</text><text fill="#000000" font-family="sans-serif" font-size="13" lengthAdjust="spacing" textLength="224" x="952" y="1031.645">fromDTOtoAD(advertisementDTO)</text><polygon fill="#181818" points="934,1061.8438,924,1065.8438,934,1069.8438,930,1065.8438" style="stroke:#181818;stroke-width:1.0;"/><line style="stroke:#181818;stroke-width:1.0;stroke-dasharray:2.0,2.0;" x1="928" x2="1839" y1="1065.8438" y2="1065.8438"/><text fill="#000000" font-family="sans-serif" font-size="13" font-weight="bold" lengthAdjust="spacing" textLength="18" x="940" y="1060.7778">28</text><text fill="#000000" font-family="sans-serif" font-size="13" lengthAdjust="spacing" textLength="95" x="962" y="1060.7778">advertisement</text><polygon fill="#181818" points="1976,1090.9766,1986,1094.9766,1976,1098.9766,1980,1094.9766" style="stroke:#181818;stroke-width:1.0;"/><line style="stroke:#181818;stroke-width:1.0;" x1="923" x2="1982" y1="1094.9766" y2="1094.9766"/><text fill="#000000" font-family="sans-serif" font-size="13" font-weight="bold" lengthAdjust="spacing" textLength="18" x="930" y="1089.9106">29</text><text fill="#000000" font-family="sans-serif" font-size="13" lengthAdjust="spacing" textLength="160" x="952" y="1089.9106">fromDTOtoAD(offerDTO)</text><polygon fill="#181818" points="934,1120.1094,924,1124.1094,934,1128.1094,930,1124.1094" style="stroke:#181818;stroke-width:1.0;"/><line style="stroke:#181818;stroke-width:1.0;stroke-dasharray:2.0,2.0;" x1="928" x2="1992" y1="1124.1094" y2="1124.1094"/><text fill="#000000" font-family="sans-serif" font-size="13" font-weight="bold" lengthAdjust="spacing" textLength="18" x="940" y="1119.0435">30</text><text fill="#000000" font-family="sans-serif" font-size="13" lengthAdjust="spacing" textLength="64" x="962" y="1119.0435">offerCTRL</text><path d="M819.5,1139.1094 L900.5,1139.1094 L900.5,1146.2422 L890.5,1156.2422 L819.5,1156.2422 L819.5,1139.1094 " fill="#EEEEEE" style="stroke:#000000;stroke-width:1.5;"/><rect fill="none" height="251.0625" style="stroke:#000000;stroke-width:1.5;" width="732" x="819.5" y="1139.1094"/><text fill="#000000" font-family="sans-serif" font-size="13" font-weight="bold" lengthAdjust="spacing" textLength="31" x="834.5" y="1152.1763">loop</text><text fill="#000000" font-family="sans-serif" font-size="11" font-weight="bold" lengthAdjust="spacing" textLength="204" x="915.5" y="1151.3198">[for each offer of advertisement]</text><path d="M829.5,1163.2422 L898.5,1163.2422 L898.5,1170.375 L888.5,1180.375 L829.5,1180.375 L829.5,1163.2422 " fill="#EEEEEE" style="stroke:#000000;stroke-width:1.5;"/><rect fill="none" height="219.9297" style="stroke:#000000;stroke-width:1.5;" width="712" x="829.5" y="1163.2422"/><text fill="#000000" font-family="sans-serif" font-size="13" font-weight="bold" lengthAdjust="spacing" textLength="19" x="844.5" y="1176.3091">alt</text><text fill="#000000" font-family="sans-serif" font-size="11" font-weight="bold" lengthAdjust="spacing" textLength="110" x="913.5" y="1175.4526">[offer=offerCTRL]</text><line style="stroke:#181818;stroke-width:1.0;" x1="923" x2="965" y1="1201.5078" y2="1201.5078"/><line style="stroke:#181818;stroke-width:1.0;" x1="965" x2="965" y1="1201.5078" y2="1214.5078"/><line style="stroke:#181818;stroke-width:1.0;" x1="924" x2="965" y1="1214.5078" y2="1214.5078"/><polygon fill="#181818" points="934,1210.5078,924,1214.5078,934,1218.5078,930,1214.5078" style="stroke:#181818;stroke-width:1.0;"/><text fill="#000000" font-family="sans-serif" font-size="13" font-weight="bold" lengthAdjust="spacing" textLength="18" x="930" y="1196.4419">31</text><text fill="#000000" font-family="sans-serif" font-size="13" lengthAdjust="spacing" textLength="182" x="952" y="1196.4419">sendEmailToUser(user,true)</text><polygon fill="#181818" points="1415,1239.6406,1425,1243.6406,1415,1247.6406,1419,1243.6406" style="stroke:#181818;stroke-width:1.0;"/><line style="stroke:#181818;stroke-width:1.0;" x1="923" x2="1421" y1="1243.6406" y2="1243.6406"/><text fill="#000000" font-family="sans-serif" font-size="13" font-weight="bold" lengthAdjust="spacing" textLength="18" x="930" y="1238.5747">32</text><text fill="#000000" font-family="sans-serif" font-size="13" lengthAdjust="spacing" textLength="216" x="952" y="1238.5747">acceptOffer(advertisement,offer)</text><polygon fill="#181818" points="934,1268.7734,924,1272.7734,934,1276.7734,930,1272.7734" style="stroke:#181818;stroke-width:1.0;"/><line style="stroke:#181818;stroke-width:1.0;stroke-dasharray:2.0,2.0;" x1="928" x2="1431" y1="1272.7734" y2="1272.7734"/><text fill="#000000" font-family="sans-serif" font-size="13" font-weight="bold" lengthAdjust="spacing" textLength="18" x="940" y="1267.7075">33</text><text fill="#000000" font-family="sans-serif" font-size="13" lengthAdjust="spacing" textLength="95" x="962" y="1267.7075">advertisement</text><line style="stroke:#000000;stroke-width:1.0;stroke-dasharray:2.0,2.0;" x1="829.5" x2="1541.5" y1="1281.7734" y2="1281.7734"/><line style="stroke:#181818;stroke-width:1.0;" x1="923" x2="965" y1="1303.9063" y2="1303.9063"/><line style="stroke:#181818;stroke-width:1.0;" x1="965" x2="965" y1="1303.9063" y2="1316.9063"/><line style="stroke:#181818;stroke-width:1.0;" x1="924" x2="965" y1="1316.9063" y2="1316.9063"/><polygon fill="#181818" points="934,1312.9063,924,1316.9063,934,1320.9063,930,1316.9063" style="stroke:#181818;stroke-width:1.0;"/><text fill="#000000" font-family="sans-serif" font-size="13" font-weight="bold" lengthAdjust="spacing" textLength="18" x="930" y="1298.8403">34</text><text fill="#000000" font-family="sans-serif" font-size="13" lengthAdjust="spacing" textLength="185" x="952" y="1298.8403">sendEmailtoUser(user,false)</text><polygon fill="#181818" points="1415,1342.0391,1425,1346.0391,1415,1350.0391,1419,1346.0391" style="stroke:#181818;stroke-width:1.0;"/><line style="stroke:#181818;stroke-width:1.0;" x1="923" x2="1421" y1="1346.0391" y2="1346.0391"/><text fill="#000000" font-family="sans-serif" font-size="13" font-weight="bold" lengthAdjust="spacing" textLength="18" x="930" y="1340.9731">35</text><text fill="#000000" font-family="sans-serif" font-size="13" lengthAdjust="spacing" textLength="248" x="952" y="1340.9731">declineOffer(advertisement,offerDTO)</text><polygon fill="#181818" points="934,1371.1719,924,1375.1719,934,1379.1719,930,1375.1719" style="stroke:#181818;stroke-width:1.0;"/><line style="stroke:#181818;stroke-width:1.0;stroke-dasharray:2.0,2.0;" x1="928" x2="1431" y1="1375.1719" y2="1375.1719"/><text fill="#000000" font-family="sans-serif" font-size="13" font-weight="bold" lengthAdjust="spacing" textLength="18" x="940" y="1370.106">36</text><text fill="#000000" font-family="sans-serif" font-size="13" lengthAdjust="spacing" textLength="95" x="962" y="1370.106">advertisement</text><polygon fill="#181818" points="592,1414.3047,582,1418.3047,592,1422.3047,588,1418.3047" style="stroke:#181818;stroke-width:1.0;"/><line style="stroke:#181818;stroke-width:1.0;stroke-dasharray:2.0,2.0;" x1="586" x2="912" y1="1418.3047" y2="1418.3047"/><text fill="#000000" font-family="sans-serif" font-size="13" font-weight="bold" lengthAdjust="spacing" textLength="18" x="598" y="1413.2388">37</text><text fill="#000000" font-family="sans-serif" font-size="13" lengthAdjust="spacing" textLength="59" x="620" y="1413.2388">offerDTO</text><line style="stroke:#181818;stroke-width:1.0;" x1="581" x2="623" y1="1447.4375" y2="1447.4375"/><line style="stroke:#181818;stroke-width:1.0;" x1="623" x2="623" y1="1447.4375" y2="1460.4375"/><line style="stroke:#181818;stroke-width:1.0;" x1="582" x2="623" y1="1460.4375" y2="1460.4375"/><polygon fill="#181818" points="592,1456.4375,582,1460.4375,592,1464.4375,588,1460.4375" style="stroke:#181818;stroke-width:1.0;"/><text fill="#000000" font-family="sans-serif" font-size="13" font-weight="bold" lengthAdjust="spacing" textLength="18" x="588" y="1442.3716">38</text><text fill="#000000" font-family="sans-serif" font-size="13" lengthAdjust="spacing" textLength="231" x="610" y="1442.3716">deleteAllOffers(advertisementDTO)</text><line style="stroke:#000000;stroke-width:1.0;stroke-dasharray:2.0,2.0;" x1="516" x2="2057.5" y1="1469.4375" y2="1469.4375"/><text fill="#000000" font-family="sans-serif" font-size="11" font-weight="bold" lengthAdjust="spacing" textLength="45" x="521" y="1479.6479">[reject]</text><polygon fill="#181818" points="901,1500.375,911,1504.375,901,1508.375,905,1504.375" style="stroke:#181818;stroke-width:1.0;"/><line style="stroke:#181818;stroke-width:1.0;" x1="581" x2="907" y1="1504.375" y2="1504.375"/><text fill="#000000" font-family="sans-serif" font-size="13" font-weight="bold" lengthAdjust="spacing" textLength="18" x="588" y="1499.3091">39</text><text fill="#000000" font-family="sans-serif" font-size="13" lengthAdjust="spacing" textLength="276" x="610" y="1499.3091">declineOffer(advertisementDTO,offerDTO)</text><polygon fill="#181818" points="1823,1529.5078,1833,1533.5078,1823,1537.5078,1827,1533.5078" style="stroke:#181818;stroke-width:1.0;"/><line style="stroke:#181818;stroke-width:1.0;" x1="923" x2="1829" y1="1533.5078" y2="1533.5078"/><text fill="#000000" font-family="sans-serif" font-size="13" font-weight="bold" lengthAdjust="spacing" textLength="18" x="930" y="1528.4419">40</text><text fill="#000000" font-family="sans-serif" font-size="13" lengthAdjust="spacing" textLength="224" x="952" y="1528.4419">fromDTOtoAD(advertisementDTO)</text><polygon fill="#181818" points="934,1558.6406,924,1562.6406,934,1566.6406,930,1562.6406" style="stroke:#181818;stroke-width:1.0;"/><line style="stroke:#181818;stroke-width:1.0;stroke-dasharray:2.0,2.0;" x1="928" x2="1839" y1="1562.6406" y2="1562.6406"/><text fill="#000000" font-family="sans-serif" font-size="13" font-weight="bold" lengthAdjust="spacing" textLength="18" x="940" y="1557.5747">41</text><text fill="#000000" font-family="sans-serif" font-size="13" lengthAdjust="spacing" textLength="95" x="962" y="1557.5747">advertisement</text><polygon fill="#181818" points="1976,1587.7734,1986,1591.7734,1976,1595.7734,1980,1591.7734" style="stroke:#181818;stroke-width:1.0;"/><line style="stroke:#181818;stroke-width:1.0;" x1="923" x2="1982" y1="1591.7734" y2="1591.7734"/><text fill="#000000" font-family="sans-serif" font-size="13" font-weight="bold" lengthAdjust="spacing" textLength="18" x="930" y="1586.7075">42</text><text fill="#000000" font-family="sans-serif" font-size="13" lengthAdjust="spacing" textLength="160" x="952" y="1586.7075">fromDTOtoAD(offerDTO)</text><polygon fill="#181818" points="934,1616.9063,924,1620.9063,934,1624.9063,930,1620.9063" style="stroke:#181818;stroke-width:1.0;"/><line style="stroke:#181818;stroke-width:1.0;stroke-dasharray:2.0,2.0;" x1="928" x2="1992" y1="1620.9063" y2="1620.9063"/><text fill="#000000" font-family="sans-serif" font-size="13" font-weight="bold" lengthAdjust="spacing" textLength="18" x="940" y="1615.8403">43</text><text fill="#000000" font-family="sans-serif" font-size="13" lengthAdjust="spacing" textLength="31" x="962" y="1615.8403">offer</text><line style="stroke:#181818;stroke-width:1.0;" x1="923" x2="965" y1="1650.0391" y2="1650.0391"/><line style="stroke:#181818;stroke-width:1.0;" x1="965" x2="965" y1="1650.0391" y2="1663.0391"/><line style="stroke:#181818;stroke-width:1.0;" x1="924" x2="965" y1="1663.0391" y2="1663.0391"/><polygon fill="#181818" points="934,1659.0391,924,1663.0391,934,1667.0391,930,1663.0391" style="stroke:#181818;stroke-width:1.0;"/><text fill="#000000" font-family="sans-serif" font-size="13" font-weight="bold" lengthAdjust="spacing" textLength="18" x="930" y="1644.9731">44</text><text fill="#000000" font-family="sans-serif" font-size="13" lengthAdjust="spacing" textLength="188" x="952" y="1644.9731">sendEmailToUser(user,false)</text><polygon fill="#181818" points="1415,1688.1719,1425,1692.1719,1415,1696.1719,1419,1692.1719" style="stroke:#181818;stroke-width:1.0;"/><line style="stroke:#181818;stroke-width:1.0;" x1="923" x2="1421" y1="1692.1719" y2="1692.1719"/><text fill="#000000" font-family="sans-serif" font-size="13" font-weight="bold" lengthAdjust="spacing" textLength="18" x="930" y="1687.106">45</text><text fill="#000000" font-family="sans-serif" font-size="13" lengthAdjust="spacing" textLength="248" x="952" y="1687.106">declineOffer(advertisement,offerDTO)</text><polygon fill="#181818" points="934,1717.3047,924,1721.3047,934,1725.3047,930,1721.3047" style="stroke:#181818;stroke-width:1.0;"/><line style="stroke:#181818;stroke-width:1.0;stroke-dasharray:2.0,2.0;" x1="928" x2="1431" y1="1721.3047" y2="1721.3047"/><text fill="#000000" font-family="sans-serif" font-size="13" font-weight="bold" lengthAdjust="spacing" textLength="18" x="940" y="1716.2388">46</text><text fill="#000000" font-family="sans-serif" font-size="13" lengthAdjust="spacing" textLength="95" x="962" y="1716.2388">advertisement</text><polygon fill="#181818" points="592,1746.4375,582,1750.4375,592,1754.4375,588,1750.4375" style="stroke:#181818;stroke-width:1.0;"/><line style="stroke:#181818;stroke-width:1.0;stroke-dasharray:2.0,2.0;" x1="586" x2="912" y1="1750.4375" y2="1750.4375"/><text fill="#000000" font-family="sans-serif" font-size="13" font-weight="bold" lengthAdjust="spacing" textLength="18" x="598" y="1745.3716">47</text><text fill="#000000" font-family="sans-serif" font-size="13" lengthAdjust="spacing" textLength="59" x="620" y="1745.3716">offerDTO</text><line style="stroke:#181818;stroke-width:1.0;" x1="581" x2="623" y1="1779.5703" y2="1779.5703"/><line style="stroke:#181818;stroke-width:1.0;" x1="623" x2="623" y1="1779.5703" y2="1792.5703"/><line style="stroke:#181818;stroke-width:1.0;" x1="582" x2="623" y1="1792.5703" y2="1792.5703"/><polygon fill="#181818" points="592,1788.5703,582,1792.5703,592,1796.5703,588,1792.5703" style="stroke:#181818;stroke-width:1.0;"/><text fill="#000000" font-family="sans-serif" font-size="13" font-weight="bold" lengthAdjust="spacing" textLength="18" x="588" y="1774.5044">48</text><text fill="#000000" font-family="sans-serif" font-size="13" lengthAdjust="spacing" textLength="296" x="610" y="1774.5044">deleteOneOffer(advertisementDTO,offerDTO)</text><polygon fill="#181818" points="60,1831.7031,50,1835.7031,60,1839.7031,56,1835.7031" style="stroke:#181818;stroke-width:1.0;"/><line style="stroke:#181818;stroke-width:1.0;stroke-dasharray:2.0,2.0;" x1="54" x2="570" y1="1835.7031" y2="1835.7031"/><text fill="#000000" font-family="sans-serif" font-size="13" font-weight="bold" lengthAdjust="spacing" textLength="18" x="66" y="1830.6372">49</text><text fill="#000000" font-family="sans-serif" font-size="13" lengthAdjust="spacing" textLength="168" x="88" y="1830.6372">display operation success</text><!--SRC=[nLZRJkCm47tFLrYyB4Nq1o8jKg6mGW8LSTbzO7amoRJrajgHxRBRlz-nqoPsOZVXejqyb3O-Sp8pFZFZe5uOBwcaAx8IN6HBALP0j5n3ekgLacOlT05tUbC0aP1foXU52r1BcelVZ2_8d1OAaeIkjU3hrJF89FcoP3cGkH3wMVn9QAQ590UJ1N1zGAWYa-brWYoQPQoaN9E3z8efFPlFGQg7Imjvk8mYpWJNKXG5I8iykx-zQc5leHIAuKCPA8kPtNxp8T91_EHTWzlpcvblGVDNm9yALXX5ZT-WyIIyKaKQNlEfXGdh0Y1_ngHxrBFmIXLJUAsL2i-1QrgMswm5xhSiBRzZORrSXP0Ur_H-Pk6aVNUVqPdPpampmQrjLlzCZ7ZOAzLWHPCGlF0B6P-WGaYAu1T5j205ggFoK2KLghP39TaRva8Rj3IAIKac0PSFHqcID02pP20e66HVWBxa2gMV6TmEKpCRLTLtYRKPr_IkmcfG3X7ZXylnIMLd8e7yHehIf0VK3wQNbUwDgwJZX9K_SVqVdnZrfX71Ee4q95RkzMtpQxpr9yBIW9kGsbv4j9zYLhqbTI6axGs7r7o6_9lqUH41X88mZQJVVIE2G8sajMfQmHhMewDckLbVIB4kII54IHuzHxfkFJbg2cPnwuGMM4-7dld8CmqdRblcBj1rRevD6hEnhEh8zwMJuuhBPCdf2rl7x9rHnxvsokqaRP2pPeif5Bx5c8xIDWvj9bx0ywGda5QUaJomqn7JNSdJTiCRu5eZ7ZJF3ziKpiDD45s9DfqoLKBgqytK-DocCVoXidBxRBzUJL92pBvI6axVFsodniEgbPrkljDY3PLIMjvvk-MonV9yXxIGsx8ErdKdRUCJCpi6qRZ9O5oZRv0_UMqRbJEzJdEcoe9kR8YGxyOHyPwX2EDOOojgmw4yhwTNjXH2OLrmpzbwpgKEe2gGbWS6cg8OfNX5WCJPymkJ5gJA8MFAtt1QQFkdia-ytNG69iqoAAlzwmZiU5UItQeVqbJdU095Ooqcqtqb4EideIONjGfsiNfgUq-FShZYwelNROzkdFqP2_RBABhTEAjux5rxH1WKJ1GKdnCTcJz5IHeY8xb7Q_wrzd2_dPjI6vh2MZnVKLRSYmU5abpZnx5vYHdryjHzDtPiY6lzE3BRtd3r7ce-GXxXZ3JFZpmfCj125vZtGp9mLxeRh9qDjk-Qey5aUxOO6s71E4JtU6zf_lTz_eSRFNId_GDAQ75_ixHZENwsSz-Kx1mhGCEaABRlHjsnaNZwsyt4o72Bgo4-tJvdeWsVOk-TN7kEdXyRKEyVLWC7rp22dlZYqoBGJ3wxQRoj2NoWg6D7afxAygffDg00t2BsAzuxjpV7Kh8x6fj_Q5H7NxN6yQgKn-Nu_nS0]--></g></svg>