<?xml version="1.0" encoding="us-ascii" standalone="no"?><svg xmlns="http://www.w3.org/2000/svg" xmlns:xlink="http://www.w3.org/1999/xlink" contentStyleType="text/css" height="690px" preserveAspectRatio="none" style="width:770px;height:690px;background:#FFFFFF;" version="1.1" viewBox="0 0 770 690" width="770px" zoomAndPan="magnify"><defs/><g><!--class Person--><g id="elem_Person"><rect codeLine="64" fill="#F1F1F1" height="129.7266" id="Person" rx="2.5" ry="2.5" style="stroke:#181818;stroke-width:0.5;" width="101" x="398" y="7"/><text fill="#000000" font-family="sans-serif" font-size="14" lengthAdjust="spacing" textLength="45" x="426" y="27.1074">Person</text><line style="stroke:#181818;stroke-width:0.5;" x1="399" x2="498" y1="35.6211" y2="35.6211"/><text fill="#000000" font-family="sans-serif" font-size="14" lengthAdjust="spacing" textLength="85" x="404" y="54.7285">emailAddress</text><text fill="#000000" font-family="sans-serif" font-size="14" lengthAdjust="spacing" textLength="55" x="404" y="73.3496">passport</text><text fill="#000000" font-family="sans-serif" font-size="14" lengthAdjust="spacing" textLength="15" x="404" y="91.9707">tin</text><text fill="#000000" font-family="sans-serif" font-size="14" lengthAdjust="spacing" textLength="89" x="404" y="110.5918">phoneNumber</text><text fill="#000000" font-family="sans-serif" font-size="14" lengthAdjust="spacing" textLength="35" x="404" y="129.2129">name</text></g><!--class Offer--><g id="elem_Offer"><rect codeLine="15" fill="#F1F1F1" height="55.2422" id="Offer" rx="2.5" ry="2.5" style="stroke:#181818;stroke-width:0.5;" width="41" x="7" y="573"/><text fill="#000000" font-family="sans-serif" font-size="14" lengthAdjust="spacing" textLength="32" x="11.5" y="593.1074">Offer</text><line style="stroke:#181818;stroke-width:0.5;" x1="8" x2="47" y1="601.6211" y2="601.6211"/><text fill="#000000" font-family="sans-serif" font-size="14" lengthAdjust="spacing" textLength="29" x="13" y="620.7285">offer</text></g><!--class Advertisement--><g id="elem_Advertisement"><rect codeLine="19" fill="#F1F1F1" height="92.4844" id="Advertisement" rx="2.5" ry="2.5" style="stroke:#181818;stroke-width:0.5;" width="121" x="81" y="356"/><text fill="#000000" font-family="sans-serif" font-size="14" lengthAdjust="spacing" textLength="90" x="96.5" y="376.1074">Advertisement</text><line style="stroke:#181818;stroke-width:0.5;" x1="82" x2="201" y1="384.6211" y2="384.6211"/><text fill="#000000" font-family="sans-serif" font-size="14" lengthAdjust="spacing" textLength="28" x="87" y="403.7285">date</text><text fill="#000000" font-family="sans-serif" font-size="14" lengthAdjust="spacing" textLength="105" x="87" y="422.3496">commissionType</text><text fill="#000000" font-family="sans-serif" font-size="14" lengthAdjust="spacing" textLength="109" x="87" y="440.9707">commissionValue</text></g><!--class Property--><g id="elem_Property"><rect codeLine="27" fill="#F1F1F1" height="108.4453" id="Property" rx="2.5" ry="2.5" style="stroke:#181818;stroke-width:0.5;" width="132" x="237.5" y="348"/><text fill="#000000" font-family="sans-serif" font-size="12" font-style="italic" lengthAdjust="spacing" textLength="62" x="272.5" y="365.9492">&#171;Interface&#187;</text><text fill="#000000" font-family="sans-serif" font-size="14" lengthAdjust="spacing" textLength="54" x="276.5" y="384.0684">Property</text><line style="stroke:#181818;stroke-width:0.5;" x1="238.5" x2="368.5" y1="392.582" y2="392.582"/><text fill="#000000" font-family="sans-serif" font-size="14" lengthAdjust="spacing" textLength="43" x="243.5" y="411.6895">photos</text><text fill="#000000" font-family="sans-serif" font-size="14" lengthAdjust="spacing" textLength="83" x="243.5" y="430.3105">areaProperty</text><text fill="#000000" font-family="sans-serif" font-size="14" lengthAdjust="spacing" textLength="120" x="243.5" y="448.9316">distanceCityCenter</text></g><!--class House--><g id="elem_House"><rect codeLine="33" fill="#F1F1F1" height="166.9688" id="House" rx="2.5" ry="2.5" style="stroke:#181818;stroke-width:0.5;" width="135" x="83" y="517"/><text fill="#000000" font-family="sans-serif" font-size="14" lengthAdjust="spacing" textLength="40" x="130.5" y="537.1074">House</text><line style="stroke:#181818;stroke-width:0.5;" x1="84" x2="217" y1="545.6211" y2="545.6211"/><text fill="#000000" font-family="sans-serif" font-size="14" lengthAdjust="spacing" textLength="112" x="89" y="564.7285">numberBedrooms</text><text fill="#000000" font-family="sans-serif" font-size="14" lengthAdjust="spacing" textLength="116" x="89" y="583.3496">numberBathrooms</text><text fill="#000000" font-family="sans-serif" font-size="14" lengthAdjust="spacing" textLength="96" x="89" y="601.9707">numberParking</text><text fill="#000000" font-family="sans-serif" font-size="14" lengthAdjust="spacing" textLength="123" x="89" y="620.5918">availableEquipment</text><text fill="#000000" font-family="sans-serif" font-size="14" lengthAdjust="spacing" textLength="62" x="89" y="639.2129">basement</text><text fill="#000000" font-family="sans-serif" font-size="14" lengthAdjust="spacing" textLength="19" x="89" y="657.834">loft</text><text fill="#000000" font-family="sans-serif" font-size="14" lengthAdjust="spacing" textLength="82" x="89" y="676.4551">sunExposure</text></g><!--class Apartment--><g id="elem_Apartment"><rect codeLine="43" fill="#F1F1F1" height="111.1055" id="Apartment" rx="2.5" ry="2.5" style="stroke:#181818;stroke-width:0.5;" width="135" x="253" y="545"/><text fill="#000000" font-family="sans-serif" font-size="14" lengthAdjust="spacing" textLength="65" x="288" y="565.1074">Apartment</text><line style="stroke:#181818;stroke-width:0.5;" x1="254" x2="387" y1="573.6211" y2="573.6211"/><text fill="#000000" font-family="sans-serif" font-size="14" lengthAdjust="spacing" textLength="112" x="259" y="592.7285">numberBedrooms</text><text fill="#000000" font-family="sans-serif" font-size="14" lengthAdjust="spacing" textLength="116" x="259" y="611.3496">numberBathrooms</text><text fill="#000000" font-family="sans-serif" font-size="14" lengthAdjust="spacing" textLength="96" x="259" y="629.9707">numberParking</text><text fill="#000000" font-family="sans-serif" font-size="14" lengthAdjust="spacing" textLength="123" x="259" y="648.5918">availableEquipment</text></g><!--class Land--><g id="elem_Land"><rect codeLine="49" fill="#F1F1F1" height="36.6211" id="Land" rx="2.5" ry="2.5" style="stroke:#181818;stroke-width:0.5;" width="38" x="423.5" y="582"/><text fill="#000000" font-family="sans-serif" font-size="14" lengthAdjust="spacing" textLength="32" x="426.5" y="602.1074">Land</text><line style="stroke:#181818;stroke-width:0.5;" x1="424.5" x2="460.5" y1="610.6211" y2="610.6211"/></g><!--class Request--><g id="elem_Request"><rect codeLine="51" fill="#F1F1F1" height="71.2031" id="Request" rx="2.5" ry="2.5" style="stroke:#181818;stroke-width:0.5;" width="64" x="416.5" y="198"/><text fill="#000000" font-family="sans-serif" font-size="12" font-style="italic" lengthAdjust="spacing" textLength="62" x="417.5" y="215.9492">&#171;Interface&#187;</text><text fill="#000000" font-family="sans-serif" font-size="14" lengthAdjust="spacing" textLength="53" x="422" y="234.0684">Request</text><line style="stroke:#181818;stroke-width:0.5;" x1="417.5" x2="479.5" y1="242.582" y2="242.582"/><text fill="#000000" font-family="sans-serif" font-size="14" lengthAdjust="spacing" textLength="28" x="422.5" y="261.6895">date</text></g><!--class RequestSale--><g id="elem_RequestSale"><rect codeLine="55" fill="#F1F1F1" height="55.2422" id="RequestSale" rx="2.5" ry="2.5" style="stroke:#181818;stroke-width:0.5;" width="87" x="405" y="374.5"/><text fill="#000000" font-family="sans-serif" font-size="14" lengthAdjust="spacing" textLength="81" x="408" y="394.6074">RequestSale</text><line style="stroke:#181818;stroke-width:0.5;" x1="406" x2="491" y1="403.1211" y2="403.1211"/><text fill="#000000" font-family="sans-serif" font-size="14" lengthAdjust="spacing" textLength="58" x="411" y="422.2285">salePrice</text></g><!--class RequestLease--><g id="elem_RequestLease"><rect codeLine="58" fill="#F1F1F1" height="73.8633" id="RequestLease" rx="2.5" ry="2.5" style="stroke:#181818;stroke-width:0.5;" width="133" x="527" y="365"/><text fill="#000000" font-family="sans-serif" font-size="14" lengthAdjust="spacing" textLength="92" x="547.5" y="385.1074">RequestLease</text><line style="stroke:#181818;stroke-width:0.5;" x1="528" x2="659" y1="393.6211" y2="393.6211"/><text fill="#000000" font-family="sans-serif" font-size="14" lengthAdjust="spacing" textLength="68" x="533" y="412.7285">rentalPrice</text><text fill="#000000" font-family="sans-serif" font-size="14" lengthAdjust="spacing" textLength="121" x="533" y="431.3496">durationOfContract</text></g><!--class Employee--><g id="elem_Employee"><rect codeLine="71" fill="#F1F1F1" height="36.6211" id="Employee" rx="2.5" ry="2.5" style="stroke:#181818;stroke-width:0.5;" width="68" x="695.5" y="383.5"/><text fill="#000000" font-family="sans-serif" font-size="14" lengthAdjust="spacing" textLength="62" x="698.5" y="403.6074">Employee</text><line style="stroke:#181818;stroke-width:0.5;" x1="696.5" x2="762.5" y1="412.1211" y2="412.1211"/></g><!--reverse link Request to RequestSale--><g id="link_Request_RequestSale"><path codeLine="75" d="M448.5,289.51 C448.5,318.03 448.5,351.56 448.5,374.35 " fill="none" id="Request-backto-RequestSale" style="stroke:#181818;stroke-width:1.0;stroke-dasharray:7.0,7.0;"/><polygon fill="none" points="441.5,289.4,448.5,269.4,455.5,289.4,441.5,289.4" style="stroke:#181818;stroke-width:1.0;"/></g><!--reverse link Request to RequestLease--><g id="link_Request_RequestLease"><path codeLine="76" d="M492.25,284.74 C514.77,310.6 541.71,341.54 562.14,364.99 " fill="none" id="Request-backto-RequestLease" style="stroke:#181818;stroke-width:1.0;stroke-dasharray:7.0,7.0;"/><polygon fill="none" points="486.75,289.08,478.9,269.4,497.31,279.89,486.75,289.08" style="stroke:#181818;stroke-width:1.0;"/></g><!--reverse link Person to Employee--><g id="link_Person_Employee"><path codeLine="78" d="M512.21,147.36 C578.2,224.39 676.82,339.51 714.3,383.26 " fill="none" id="Person-backto-Employee" style="stroke:#181818;stroke-width:1.0;"/><polygon fill="none" points="506.76,151.76,499.06,132.02,517.39,142.65,506.76,151.76" style="stroke:#181818;stroke-width:1.0;"/></g><!--link Person to Offer--><g id="link_Person_Offer"><path codeLine="80" d="M397.74,93.27 C312.85,130.06 143.52,216.41 63.5,348 C19.84,419.79 21.22,524.01 24.79,572.63 " fill="none" id="Person-Offer" style="stroke:#181818;stroke-width:1.0;"/><polygon fill="#000000" points="100.4297,312.5918,108.3035,307.2576,103.6643,303.6482,100.4297,312.5918" style="stroke:#000000;stroke-width:1.0;"/><text fill="#000000" font-family="sans-serif" font-size="13" lengthAdjust="spacing" textLength="39" x="112.5" y="314.0283">makes</text><text fill="#000000" font-family="sans-serif" font-size="13" lengthAdjust="spacing" textLength="7" x="383.1097" y="92.1338">1</text><text fill="#000000" font-family="sans-serif" font-size="13" lengthAdjust="spacing" textLength="5" x="18.6503" y="561.7077">*</text></g><!--link Request to Advertisement--><g id="link_Request_Advertisement"><path codeLine="82" d="M416.29,248.77 C371.3,269.08 287.52,308.29 219.5,348 C213.84,351.3 208.05,354.87 202.3,358.53 " fill="none" id="Request-Advertisement" style="stroke:#181818;stroke-width:1.0;"/><text fill="#000000" font-family="sans-serif" font-size="13" lengthAdjust="spacing" textLength="7" x="401.4784" y="247.2889">1</text><text fill="#000000" font-family="sans-serif" font-size="13" lengthAdjust="spacing" textLength="7" x="210.1366" y="349.2127">1</text></g><!--link Advertisement to Offer--><g id="link_Advertisement_Offer"><path codeLine="84" d="M109.13,448.01 C94.96,468.58 78.62,493.54 65.5,517 C55.34,535.17 45.56,556.53 38.46,572.97 " fill="none" id="Advertisement-Offer" style="stroke:#181818;stroke-width:1.0;"/><text fill="#000000" font-family="sans-serif" font-size="13" lengthAdjust="spacing" textLength="7" x="96.6374" y="470.3704">1</text><text fill="#000000" font-family="sans-serif" font-size="13" lengthAdjust="spacing" textLength="5" x="35.4164" y="561.672">*</text></g><!--link Request to Property--><g id="link_Request_Property"><path codeLine="86" d="M418.1,269.4 C398.34,292.1 372.19,322.13 349.85,347.77 " fill="none" id="Request-Property" style="stroke:#181818;stroke-width:1.0;"/><text fill="#000000" font-family="sans-serif" font-size="13" lengthAdjust="spacing" textLength="7" x="405.0616" y="291.3449">1</text><text fill="#000000" font-family="sans-serif" font-size="13" lengthAdjust="spacing" textLength="7" x="348.3402" y="336.7512">1</text></g><!--link Request to Employee--><g id="link_Request_Employee"><path codeLine="87" d="M480.74,246.47 C526.86,264.46 613.21,301.36 677.5,348 C691.48,358.14 705.07,372.19 714.85,383.27 " fill="none" id="Request-Employee" style="stroke:#181818;stroke-width:1.0;"/><text fill="#000000" font-family="sans-serif" font-size="13" lengthAdjust="spacing" textLength="5" x="488.3394" y="244.4857">*</text><text fill="#000000" font-family="sans-serif" font-size="13" lengthAdjust="spacing" textLength="7" x="702.5184" y="372.3979">1</text></g><!--link Person to Request--><g id="link_Person_Request"><path codeLine="90" d="M448.5,137.42 C448.5,157.99 448.5,179.99 448.5,197.63 " fill="none" id="Person-Request" style="stroke:#181818;stroke-width:1.0;"/><text fill="#000000" font-family="sans-serif" font-size="13" lengthAdjust="spacing" textLength="7" x="441.1555" y="158.7526">1</text><text fill="#000000" font-family="sans-serif" font-size="13" lengthAdjust="spacing" textLength="5" x="443.0547" y="186.7627">*</text></g><!--reverse link Property to Land--><g id="link_Property_Land"><path codeLine="92" d="M370.69,471.31 C383.12,485.76 395.36,501.38 405.5,517 C419.09,537.94 430.07,564.69 436.44,581.96 " fill="none" id="Property-backto-Land" style="stroke:#181818;stroke-width:1.0;stroke-dasharray:7.0,7.0;"/><polygon fill="none" points="365.28,475.76,357.22,456.16,375.74,466.46,365.28,475.76" style="stroke:#181818;stroke-width:1.0;"/></g><!--reverse link Property to Apartment--><g id="link_Property_Apartment"><path codeLine="93" d="M309.85,476.36 C311.81,499.08 313.94,523.7 315.78,544.91 " fill="none" id="Property-backto-Apartment" style="stroke:#181818;stroke-width:1.0;stroke-dasharray:7.0,7.0;"/><polygon fill="none" points="302.85,476.7,308.1,456.18,316.8,475.5,302.85,476.7" style="stroke:#181818;stroke-width:1.0;"/></g><!--reverse link Property to House--><g id="link_Property_House"><path codeLine="94" d="M249.77,472.01 C238.52,486.45 226.56,501.82 214.97,516.7 " fill="none" id="Property-backto-House" style="stroke:#181818;stroke-width:1.0;stroke-dasharray:7.0,7.0;"/><polygon fill="none" points="244.29,467.66,262.1,456.18,255.33,476.26,244.29,467.66" style="stroke:#181818;stroke-width:1.0;"/></g><!--SRC=[hLF1Rjim3BthAuHS2XHeiLs7840M15Y1eWsMONT6fcCXakXITBSiwxzFbX8dCNAS3pRz-4W-KbJSsT02WzUU0fc6oQCMxb35mTE2sS4Mrx9tg1cDGDYwIq9ieA9VDcnr3IwYKdSEQz52ckss4LtPFifIK1T1na6CSn6scqxmoL1Osp-eFodLs0griMnIaMnxb8Qgg5IEqIlaIE6WFax0QrqZ7vHE3_NcsJEltf75HlGOH1TA1OBPCEIzZJ7f-h5lnz1FS6a8AT5GbQbDkVPwEdqAWbo3mTcif6mR4ehP14OuKKiv6zF032wix1VOHvxbVQCkub5MwFm6-IjMJEJZ9GJIZB4LS1hajbHy1-jWut3vrjcsRpJ36oXTvnz7TJ5Y5vQ_MueTuyMKqeb8p_t_IZwE9PuXL8UXu7Tywp3AZKdcmndprk3me69whzWQ798UtS-OMYtXd6g2AwoShcFe5- -rNb0G1YFvIA_tg2UYJzBdLSKOItTjOhJ4PMfYm-cS0xxalii8m9_LB7thQ8z9IL_Zg4rF_pu-NlPnqv4xKAe8Ifw7Xo7RW4u-JtJ29_UJikzVFEmmwjcvr8cHFbTxhzJrDHXdkfbXsE71Tp_upjfkY3loaskuC7sd_GACe67jHdY-5Khz0m00]--></g></svg>