<?xml version="1.0" encoding="us-ascii" standalone="no"?><svg xmlns="http://www.w3.org/2000/svg" xmlns:xlink="http://www.w3.org/1999/xlink" contentStyleType="text/css" height="1009px" preserveAspectRatio="none" style="width:740px;height:1009px;background:#FFFFFF;" version="1.1" viewBox="0 0 740 1009" width="740px" zoomAndPan="magnify"><defs/><g><text fill="#000000" font-family="sans-serif" font-size="14" font-weight="bold" lengthAdjust="spacing" textLength="100" x="313.405" y="25.1074">Domain Model</text><!--class Person--><g id="elem_Person"><rect codeLine="19" fill="#F1F1F1" height="129.7266" id="Person" rx="2.5" ry="2.5" style="stroke:#181818;stroke-width:0.5;" width="101" x="141.31" y="46.6211"/><text fill="#000000" font-family="sans-serif" font-size="14" lengthAdjust="spacing" textLength="45" x="169.31" y="66.7285">Person</text><line style="stroke:#181818;stroke-width:0.5;" x1="142.31" x2="241.31" y1="75.2422" y2="75.2422"/><text fill="#000000" font-family="sans-serif" font-size="14" lengthAdjust="spacing" textLength="85" x="147.31" y="94.3496">emailAddress</text><text fill="#000000" font-family="sans-serif" font-size="14" lengthAdjust="spacing" textLength="55" x="147.31" y="112.9707">passport</text><text fill="#000000" font-family="sans-serif" font-size="14" lengthAdjust="spacing" textLength="15" x="147.31" y="131.5918">tin</text><text fill="#000000" font-family="sans-serif" font-size="14" lengthAdjust="spacing" textLength="89" x="147.31" y="150.2129">phoneNumber</text><text fill="#000000" font-family="sans-serif" font-size="14" lengthAdjust="spacing" textLength="35" x="147.31" y="168.834">name</text></g><!--class Property--><g id="elem_Property"><rect codeLine="27" fill="#F1F1F1" height="108.4453" id="Property" rx="2.5" ry="2.5" style="stroke:#181818;stroke-width:0.5;" width="132" x="526.81" y="666.6211"/><text fill="#000000" font-family="sans-serif" font-size="12" font-style="italic" lengthAdjust="spacing" textLength="62" x="561.81" y="684.5703">&#171;Interface&#187;</text><text fill="#000000" font-family="sans-serif" font-size="14" lengthAdjust="spacing" textLength="54" x="565.81" y="702.6895">Property</text><line style="stroke:#181818;stroke-width:0.5;" x1="527.81" x2="657.81" y1="711.2031" y2="711.2031"/><text fill="#000000" font-family="sans-serif" font-size="14" lengthAdjust="spacing" textLength="43" x="532.81" y="730.3105">photos</text><text fill="#000000" font-family="sans-serif" font-size="14" lengthAdjust="spacing" textLength="83" x="532.81" y="748.9316">areaProperty</text><text fill="#000000" font-family="sans-serif" font-size="14" lengthAdjust="spacing" textLength="120" x="532.81" y="767.5527">distanceCityCenter</text></g><!--class House--><g id="elem_House"><rect codeLine="33" fill="#F1F1F1" height="166.9688" id="House" rx="2.5" ry="2.5" style="stroke:#181818;stroke-width:0.5;" width="135" x="355.31" y="835.6211"/><text fill="#000000" font-family="sans-serif" font-size="14" lengthAdjust="spacing" textLength="40" x="402.81" y="855.7285">House</text><line style="stroke:#181818;stroke-width:0.5;" x1="356.31" x2="489.31" y1="864.2422" y2="864.2422"/><text fill="#000000" font-family="sans-serif" font-size="14" lengthAdjust="spacing" textLength="112" x="361.31" y="883.3496">numberBedrooms</text><text fill="#000000" font-family="sans-serif" font-size="14" lengthAdjust="spacing" textLength="116" x="361.31" y="901.9707">numberBathrooms</text><text fill="#000000" font-family="sans-serif" font-size="14" lengthAdjust="spacing" textLength="96" x="361.31" y="920.5918">numberParking</text><text fill="#000000" font-family="sans-serif" font-size="14" lengthAdjust="spacing" textLength="123" x="361.31" y="939.2129">availableEquipment</text><text fill="#000000" font-family="sans-serif" font-size="14" lengthAdjust="spacing" textLength="62" x="361.31" y="957.834">basement</text><text fill="#000000" font-family="sans-serif" font-size="14" lengthAdjust="spacing" textLength="19" x="361.31" y="976.4551">loft</text><text fill="#000000" font-family="sans-serif" font-size="14" lengthAdjust="spacing" textLength="82" x="361.31" y="995.0762">sunExposure</text></g><!--class Apartment--><g id="elem_Apartment"><rect codeLine="43" fill="#F1F1F1" height="111.1055" id="Apartment" rx="2.5" ry="2.5" style="stroke:#181818;stroke-width:0.5;" width="135" x="525.31" y="863.6211"/><text fill="#000000" font-family="sans-serif" font-size="14" lengthAdjust="spacing" textLength="65" x="560.31" y="883.7285">Apartment</text><line style="stroke:#181818;stroke-width:0.5;" x1="526.31" x2="659.31" y1="892.2422" y2="892.2422"/><text fill="#000000" font-family="sans-serif" font-size="14" lengthAdjust="spacing" textLength="112" x="531.31" y="911.3496">numberBedrooms</text><text fill="#000000" font-family="sans-serif" font-size="14" lengthAdjust="spacing" textLength="116" x="531.31" y="929.9707">numberBathrooms</text><text fill="#000000" font-family="sans-serif" font-size="14" lengthAdjust="spacing" textLength="96" x="531.31" y="948.5918">numberParking</text><text fill="#000000" font-family="sans-serif" font-size="14" lengthAdjust="spacing" textLength="123" x="531.31" y="967.2129">availableEquipment</text></g><!--class Land--><g id="elem_Land"><rect codeLine="49" fill="#F1F1F1" height="36.6211" id="Land" rx="2.5" ry="2.5" style="stroke:#181818;stroke-width:0.5;" width="38" x="695.81" y="900.6211"/><text fill="#000000" font-family="sans-serif" font-size="14" lengthAdjust="spacing" textLength="32" x="698.81" y="920.7285">Land</text><line style="stroke:#181818;stroke-width:0.5;" x1="696.81" x2="732.81" y1="929.2422" y2="929.2422"/></g><!--class Advertisement--><g id="elem_Advertisement"><rect codeLine="51" fill="#F1F1F1" height="92.4844" id="Advertisement" rx="2.5" ry="2.5" style="stroke:#181818;stroke-width:0.5;" width="121" x="77.31" y="674.6211"/><text fill="#000000" font-family="sans-serif" font-size="14" lengthAdjust="spacing" textLength="90" x="92.81" y="694.7285">Advertisement</text><line style="stroke:#181818;stroke-width:0.5;" x1="78.31" x2="197.31" y1="703.2422" y2="703.2422"/><text fill="#000000" font-family="sans-serif" font-size="14" lengthAdjust="spacing" textLength="109" x="83.31" y="722.3496">commissionValue</text><text fill="#000000" font-family="sans-serif" font-size="14" lengthAdjust="spacing" textLength="105" x="83.31" y="740.9707">commissionType</text><text fill="#000000" font-family="sans-serif" font-size="14" lengthAdjust="spacing" textLength="28" x="83.31" y="759.5918">date</text></g><!--class PropertyType--><g id="elem_PropertyType"><rect codeLine="57" fill="#F1F1F1" height="55.2422" id="PropertyType" rx="2.5" ry="2.5" style="stroke:#181818;stroke-width:0.5;" width="92" x="533.81" y="488.6211"/><text fill="#000000" font-family="sans-serif" font-size="14" lengthAdjust="spacing" textLength="86" x="536.81" y="508.7285">PropertyType</text><line style="stroke:#181818;stroke-width:0.5;" x1="534.81" x2="624.81" y1="517.2422" y2="517.2422"/><text fill="#000000" font-family="sans-serif" font-size="14" lengthAdjust="spacing" textLength="73" x="539.81" y="536.3496">designation</text></g><!--class Location--><g id="elem_Location"><rect codeLine="61" fill="#F1F1F1" height="145.6875" id="Location" rx="2.5" ry="2.5" style="stroke:#181818;stroke-width:0.5;" width="64" x="487.81" y="304.6211"/><text fill="#000000" font-family="sans-serif" font-size="12" font-style="italic" lengthAdjust="spacing" textLength="62" x="488.81" y="322.5703">&#171;Interface&#187;</text><text fill="#000000" font-family="sans-serif" font-size="14" lengthAdjust="spacing" textLength="54" x="492.81" y="340.6895">Location</text><line style="stroke:#181818;stroke-width:0.5;" x1="488.81" x2="550.81" y1="349.2031" y2="349.2031"/><text fill="#000000" font-family="sans-serif" font-size="14" lengthAdjust="spacing" textLength="36" x="493.81" y="368.3105">street</text><text fill="#000000" font-family="sans-serif" font-size="14" lengthAdjust="spacing" textLength="51" x="493.81" y="386.9316">zipCode</text><text fill="#000000" font-family="sans-serif" font-size="14" lengthAdjust="spacing" textLength="49" x="493.81" y="405.5527">stateUS</text><text fill="#000000" font-family="sans-serif" font-size="14" lengthAdjust="spacing" textLength="21" x="493.81" y="424.1738">city</text><text fill="#000000" font-family="sans-serif" font-size="14" lengthAdjust="spacing" textLength="41" x="493.81" y="442.7949">district</text></g><!--class Request--><g id="elem_Request"><rect codeLine="69" fill="#F1F1F1" height="71.2031" id="Request" rx="2.5" ry="2.5" style="stroke:#181818;stroke-width:0.5;" width="64" x="240.81" y="480.6211"/><text fill="#000000" font-family="sans-serif" font-size="12" font-style="italic" lengthAdjust="spacing" textLength="62" x="241.81" y="498.5703">&#171;Interface&#187;</text><text fill="#000000" font-family="sans-serif" font-size="14" lengthAdjust="spacing" textLength="53" x="246.31" y="516.6895">Request</text><line style="stroke:#181818;stroke-width:0.5;" x1="241.81" x2="303.81" y1="525.2031" y2="525.2031"/><text fill="#000000" font-family="sans-serif" font-size="14" lengthAdjust="spacing" textLength="28" x="246.81" y="544.3105">date</text></g><!--class RequestSale--><g id="elem_RequestSale"><rect codeLine="73" fill="#F1F1F1" height="55.2422" id="RequestSale" rx="2.5" ry="2.5" style="stroke:#181818;stroke-width:0.5;" width="87" x="236.31" y="693.1211"/><text fill="#000000" font-family="sans-serif" font-size="14" lengthAdjust="spacing" textLength="81" x="239.31" y="713.2285">RequestSale</text><line style="stroke:#181818;stroke-width:0.5;" x1="237.31" x2="322.31" y1="721.7422" y2="721.7422"/><text fill="#000000" font-family="sans-serif" font-size="14" lengthAdjust="spacing" textLength="58" x="242.31" y="740.8496">salePrice</text></g><!--class RequestLease--><g id="elem_RequestLease"><rect codeLine="77" fill="#F1F1F1" height="73.8633" id="RequestLease" rx="2.5" ry="2.5" style="stroke:#181818;stroke-width:0.5;" width="133" x="358.31" y="683.6211"/><text fill="#000000" font-family="sans-serif" font-size="14" lengthAdjust="spacing" textLength="92" x="378.81" y="703.7285">RequestLease</text><line style="stroke:#181818;stroke-width:0.5;" x1="359.31" x2="490.31" y1="712.2422" y2="712.2422"/><text fill="#000000" font-family="sans-serif" font-size="14" lengthAdjust="spacing" textLength="68" x="364.31" y="731.3496">rentalPrice</text><text fill="#000000" font-family="sans-serif" font-size="14" lengthAdjust="spacing" textLength="121" x="364.31" y="749.9707">durationOfContract</text></g><!--class BusinessType--><g id="elem_BusinessType"><rect codeLine="82" fill="#F1F1F1" height="55.2422" id="BusinessType" rx="2.5" ry="2.5" style="stroke:#181818;stroke-width:0.5;" width="95" x="403.31" y="488.6211"/><text fill="#000000" font-family="sans-serif" font-size="14" lengthAdjust="spacing" textLength="89" x="406.31" y="508.7285">BusinessType</text><line style="stroke:#181818;stroke-width:0.5;" x1="404.31" x2="497.31" y1="517.2422" y2="517.2422"/><text fill="#000000" font-family="sans-serif" font-size="14" lengthAdjust="spacing" textLength="73" x="409.31" y="536.3496">designation</text></g><!--class Offer--><g id="elem_Offer"><rect codeLine="86" fill="#F1F1F1" height="55.2422" id="Offer" rx="2.5" ry="2.5" style="stroke:#181818;stroke-width:0.5;" width="41" x="41.31" y="581.6211"/><text fill="#000000" font-family="sans-serif" font-size="14" lengthAdjust="spacing" textLength="32" x="45.81" y="601.7285">Offer</text><line style="stroke:#181818;stroke-width:0.5;" x1="42.31" x2="81.31" y1="610.2422" y2="610.2422"/><text fill="#000000" font-family="sans-serif" font-size="14" lengthAdjust="spacing" textLength="29" x="47.31" y="629.3496">offer</text></g><!--class Employee--><g id="elem_Employee"><rect codeLine="90" fill="#F1F1F1" height="36.6211" id="Employee" rx="2.5" ry="2.5" style="stroke:#181818;stroke-width:0.5;" width="68" x="210.81" y="237.6211"/><text fill="#000000" font-family="sans-serif" font-size="14" lengthAdjust="spacing" textLength="62" x="213.81" y="257.7285">Employee</text><line style="stroke:#181818;stroke-width:0.5;" x1="211.81" x2="277.81" y1="266.2422" y2="266.2422"/></g><!--reverse link Person to Employee--><g id="link_Person_Employee"><path codeLine="93" d="M222.73,195.7711 C228.58,211.4811 234.12,226.4011 238.2,237.3511 " fill="none" id="Person-backto-Employee" style="stroke:#181818;stroke-width:1.0;"/><polygon fill="none" points="216.08,197.9711,215.67,176.7811,229.2,193.0911,216.08,197.9711" style="stroke:#181818;stroke-width:1.0;"/></g><!--link Person to Offer--><g id="link_Person_Offer"><path codeLine="94" d="M141.09,144.0911 C110.72,166.1111 74.8,198.5211 57.81,237.6211 C6,356.7911 38.44,518.5711 54.43,581.5311 " fill="none" id="Person-Offer" style="stroke:#181818;stroke-width:1.0;"/><polygon fill="#000000" points="61.8383,261.1713,66.479,252.8698,60.7132,251.7275,61.8383,261.1713" style="stroke:#000000;stroke-width:1.0;"/><text fill="#000000" font-family="sans-serif" font-size="13" lengthAdjust="spacing" textLength="39" x="71.81" y="261.6494">makes</text><text fill="#000000" font-family="sans-serif" font-size="13" lengthAdjust="spacing" textLength="7" x="126.4653" y="144.5299">1</text><text fill="#000000" font-family="sans-serif" font-size="13" lengthAdjust="spacing" textLength="5" x="47.1453" y="570.2192">*</text></g><!--link Person to Advertisement--><g id="link_Person_Advertisement"><path codeLine="95" d="M186.1,176.7211 C175.12,300.1411 151.29,568.0011 141.81,674.5711 " fill="none" id="Person-Advertisement" style="stroke:#181818;stroke-width:1.0;"/><polygon fill="#000000" points="179.3669,382.7469,183.0958,373.9979,177.2411,373.477,179.3669,382.7469" style="stroke:#000000;stroke-width:1.0;"/><text fill="#000000" font-family="sans-serif" font-size="13" lengthAdjust="spacing" textLength="53" x="188.81" y="383.1494">searches</text><text fill="#000000" font-family="sans-serif" font-size="13" lengthAdjust="spacing" textLength="5" x="180.2533" y="198.3685">*</text><text fill="#000000" font-family="sans-serif" font-size="13" lengthAdjust="spacing" textLength="5" x="137.0397" y="663.2316">*</text></g><!--link Employee to Request--><g id="link_Employee_Request"><path codeLine="97" d="M246.73,274.8511 C251.33,317.2011 263.01,424.8511 269.05,480.5511 " fill="none" id="Employee-Request" style="stroke:#181818;stroke-width:1.0;"/><polygon fill="#000000" points="271.3494,382.7374,273.2954,373.4281,267.4519,374.0622,271.3494,382.7374" style="stroke:#000000;stroke-width:1.0;"/><text fill="#000000" font-family="sans-serif" font-size="13" lengthAdjust="spacing" textLength="55" x="279.81" y="383.1494">publishes</text><text fill="#000000" font-family="sans-serif" font-size="13" lengthAdjust="spacing" textLength="7" x="239.3054" y="296.2875">1</text><text fill="#000000" font-family="sans-serif" font-size="13" lengthAdjust="spacing" textLength="5" x="262.8958" y="469.4621">*</text></g><!--reverse link Property to House--><g id="link_Property_House"><path codeLine="100" d="M533.37,790.3211 C519.54,806.3111 504.72,823.4411 490.56,839.8111 " fill="none" id="Property-backto-House" style="stroke:#181818;stroke-width:1.0;stroke-dasharray:7.0,7.0;"/><polygon fill="none" points="528.42,785.3411,546.8,774.8011,539.01,794.5011,528.42,785.3411" style="stroke:#181818;stroke-width:1.0;"/></g><!--reverse link Property to Land--><g id="link_Property_Land"><path codeLine="101" d="M648.32,791.0711 C658.71,805.4111 669.04,820.7011 677.81,835.6211 C690.37,857.0011 701.52,883.4211 708.21,900.5111 " fill="none" id="Property-backto-Land" style="stroke:#181818;stroke-width:1.0;stroke-dasharray:7.0,7.0;"/><polygon fill="none" points="642.5,794.9711,636.19,774.7411,653.74,786.6211,642.5,794.9711" style="stroke:#181818;stroke-width:1.0;"/></g><!--reverse link Property to Apartment--><g id="link_Property_Apartment"><path codeLine="102" d="M592.81,794.9811 C592.81,817.7011 592.81,842.3211 592.81,863.5311 " fill="none" id="Property-backto-Apartment" style="stroke:#181818;stroke-width:1.0;stroke-dasharray:7.0,7.0;"/><polygon fill="none" points="585.81,794.8011,592.81,774.8011,599.81,794.8011,585.81,794.8011" style="stroke:#181818;stroke-width:1.0;"/></g><!--reverse link Location to Property--><g id="link_Location_Property"><path codeLine="104" d="M569,406.3011 C595.65,423.9911 626.57,449.4511 643.81,480.6211 C677.48,541.5011 679.25,570.7711 656.81,636.6211 C653.28,646.9511 647.9,657.0011 641.71,666.3311 " fill="none" id="Location-backto-Property" style="stroke:#181818;stroke-width:1.0;stroke-dasharray:7.0,7.0;"/><polygon fill="none" points="565.1,412.1211,551.87,395.5711,572.54,400.2611,565.1,412.1211" style="stroke:#181818;stroke-width:1.0;"/></g><!--link Person to Location--><g id="link_Person_Location"><path codeLine="105" d="M242.34,153.2911 C304.89,203.6411 410.64,288.7511 471.93,338.0911 " fill="none" id="Person-to-Location" style="stroke:#181818;stroke-width:1.0;stroke-dasharray:7.0,7.0;"/><polygon fill="none" points="476.41,332.7111,487.6,350.7011,467.64,343.6111,476.41,332.7111" style="stroke:#181818;stroke-width:1.0;"/></g><!--link Offer to Advertisement--><g id="link_Offer_Advertisement"><path codeLine="107" d="M80.2,636.6311 C88.11,648.0211 97.58,661.6611 106.53,674.5611 " fill="none" id="Offer-Advertisement" style="stroke:#181818;stroke-width:1.0;"/><polygon fill="#000000" points="33.1288,660.5692,35.8724,669.6754,40.7009,666.3236,33.1288,660.5692" style="stroke:#000000;stroke-width:1.0;"/><text fill="#000000" font-family="sans-serif" font-size="13" lengthAdjust="spacing" textLength="47" x="44.98" y="670.0594">receives</text><text fill="#000000" font-family="sans-serif" font-size="13" lengthAdjust="spacing" textLength="5" x="78.8746" y="658.9924">*</text><text fill="#000000" font-family="sans-serif" font-size="13" lengthAdjust="spacing" textLength="7" x="94.2043" y="663.2201">1</text></g><!--link PropertyType to Property--><g id="link_PropertyType_Property"><path codeLine="110" d="M581.53,544.0111 C583.53,575.1011 586.86,627.0511 589.39,666.3911 " fill="none" id="PropertyType-Property" style="stroke:#181818;stroke-width:1.0;"/><polygon fill="#000000" points="591.4895,604.2769,589.1364,613.4917,595.0021,613.115,591.4895,604.2769" style="stroke:#000000;stroke-width:1.0;"/><text fill="#000000" font-family="sans-serif" font-size="13" lengthAdjust="spacing" textLength="49" x="600.81" y="614.6494">contains</text><text fill="#000000" font-family="sans-serif" font-size="13" lengthAdjust="spacing" textLength="7" x="574.1406" y="566.0051">1</text><text fill="#000000" font-family="sans-serif" font-size="13" lengthAdjust="spacing" textLength="5" x="583.6315" y="655.3722">*</text></g><!--link Request to BusinessType--><g id="link_Request_BusinessType"><path codeLine="112" d="M305.04,516.1211 C332.39,516.1211 372.02,516.1211 403.05,516.1211 " fill="none" id="Request-BusinessType" style="stroke:#181818;stroke-width:1.0;"/><polygon fill="#000000" points="332.06,503.7666,323.0149,500.8277,323.0149,506.7055,332.06,503.7666" style="stroke:#000000;stroke-width:1.0;"/><text fill="#000000" font-family="sans-serif" font-size="13" lengthAdjust="spacing" textLength="49" x="336.06" y="509.1494">contains</text><text fill="#000000" font-family="sans-serif" font-size="13" lengthAdjust="spacing" textLength="5" x="312.6372" y="511.2997">*</text><text fill="#000000" font-family="sans-serif" font-size="13" lengthAdjust="spacing" textLength="7" x="388.2008" y="511.8516">1</text></g><!--link Request to Property--><g id="link_Request_Property"><path codeLine="113" d="M304.95,537.4611 C356.54,570.1111 458.88,634.8711 526.59,677.7111 " fill="none" id="Request-Property" style="stroke:#181818;stroke-width:1.0;"/><text fill="#000000" font-family="sans-serif" font-size="13" lengthAdjust="spacing" textLength="7" x="312.7463" y="537.3078">1</text><text fill="#000000" font-family="sans-serif" font-size="13" lengthAdjust="spacing" textLength="7" x="511.9644" y="669.108">1</text></g><!--link Request to Advertisement--><g id="link_Request_Advertisement"><path codeLine="114" d="M240.79,542.5511 C228.19,553.6311 214.28,567.3411 203.81,581.6211 C182.92,610.1111 165.92,646.2411 154.41,674.3911 " fill="none" id="Request-Advertisement" style="stroke:#181818;stroke-width:1.0;"/><polygon fill="#000000" points="211.5502,605.0843,204.1349,611.0395,209.0514,614.2608,211.5502,605.0843" style="stroke:#000000;stroke-width:1.0;"/><text fill="#000000" font-family="sans-serif" font-size="13" lengthAdjust="spacing" textLength="49" x="217.81" y="614.6494">contains</text><text fill="#000000" font-family="sans-serif" font-size="13" lengthAdjust="spacing" textLength="7" x="226.02" y="543.5112">1</text><text fill="#000000" font-family="sans-serif" font-size="13" lengthAdjust="spacing" textLength="7" x="149.3341" y="663.3667">1</text></g><!--reverse link Request to RequestSale--><g id="link_Request_RequestSale"><path codeLine="115" d="M274.7,572.0411 C276.06,611.2911 277.83,662.3911 278.89,693.0111 " fill="none" id="Request-backto-RequestSale" style="stroke:#181818;stroke-width:1.0;stroke-dasharray:7.0,7.0;"/><polygon fill="none" points="267.7,572.1611,274.01,551.9311,281.7,571.6811,267.7,572.1611" style="stroke:#181818;stroke-width:1.0;"/></g><!--reverse link Request to RequestLease--><g id="link_Request_RequestLease"><path codeLine="116" d="M311.05,568.0711 C338.07,604.0711 373.62,651.4311 397.74,683.5611 " fill="none" id="Request-backto-RequestLease" style="stroke:#181818;stroke-width:1.0;stroke-dasharray:7.0,7.0;"/><polygon fill="none" points="305.34,572.1311,298.94,551.9311,316.54,563.7211,305.34,572.1311" style="stroke:#181818;stroke-width:1.0;"/></g><!--SRC=[hLHDRzim3BthLmYv32ZGOBq6GO0kAx02tLeis-wCHST2PKcbv6vfq_y-Mh8TPUsmotoI7yd7hoU5Usqz4BIoTTPL3RaMPQGEHPWi7gfxsE4cxWrAmYg2tPdI8JIWt4zjTx864r28TmRhAAEJf7TDb4htKTfPKGHL1aAuZ97qjejuNJcxqKyetmlHQ8MoqbHnadHkCJPE1UPT6uqsIc-WGWbMEb98VIBVKTL0uDeRb9wSHuhxkH1HHoxwesj1M_dPAJIY_r9oUOSKd7qMaZza3tEf56482V3iuHt5z1ErpM3ZB7xfsYrI-hVGedYP-8QyShcyjX6fvYfNg-SnChhC38GmkYP0wS0phN2jutwDVUIHyvFhkAlCOLFY3wZ8kJQK4CJcJ-mEY6UzonaVkJdO6hnwwBHlEKM2jpomwSUuEXz2Pwz-UHSwAbgxvAN5tlV_L_8ofBW1gvwF2TKZpqVd0eV-AzUsEWGMqWymBD5JxDlUPqX1V6CflJdJA0nwPo49SdAxSLL2JdSt90wH4FDqdhHVium6c3Dzt-GwTB5CqbKyKd_5Xmv3V9FvjDR1SmDcN7dWuntJlNQwGPY4GJmZCDaliNQKchcjryv6WhAQ3rtGbaN-ZtdSrZLIjhl-UBHSjTwuFN8mG_aAoUNX_7moZE3iOYOPdftDCjj2jd2FGQucXxF9uMJT2naG-3udNp7Ibdp331PyxxT6Xy5JvCiox_pyi9eMBtfXlG8dGR-oY4aAtDPyNl1C4ZdqCSFp8SIfL5EL_VkNAXqQv_SFzUDGPQd8igaHNx2eUP_Q1haKObHF6bPwJyzJKBd78c9r31YOBuxCRzbE9rzadcHxcFFhRkUbElzgJAeKlm40]--></g></svg>