<?xml version="1.0" encoding="us-ascii" standalone="no"?><svg xmlns="http://www.w3.org/2000/svg" xmlns:xlink="http://www.w3.org/1999/xlink" contentStyleType="text/css" height="1517px" preserveAspectRatio="none" style="width:958px;height:1517px;background:#FFFFFF;" version="1.1" viewBox="0 0 958 1517" width="958px" zoomAndPan="magnify"><defs/><g><rect fill="#FFFFFF" height="1336.4688" style="stroke:#181818;stroke-width:1.0;" width="10" x="67.5" y="90.6406"/><rect fill="#FFFFFF" height="226.5938" style="stroke:#181818;stroke-width:1.0;" width="10" x="306.5" y="111.1641"/><rect fill="#FFFFFF" height="184.5469" style="stroke:#181818;stroke-width:1.0;" width="10" x="306.5" y="366.2813"/><rect fill="#FFFFFF" height="199.0703" style="stroke:#181818;stroke-width:1.0;" width="10" x="306.5" y="579.3516"/><rect fill="#FFFFFF" height="70.0469" style="stroke:#181818;stroke-width:1.0;" width="10" x="306.5" y="806.9453"/><rect fill="#FFFFFF" height="326.0469" style="stroke:#181818;stroke-width:1.0;" width="10" x="306.5" y="905.5156"/><rect fill="#FFFFFF" height="152.0234" style="stroke:#181818;stroke-width:1.0;" width="10" x="306.5" y="1260.0859"/><rect fill="#FFFFFF" height="358.0938" style="stroke:#181818;stroke-width:1.0;" width="10" x="802.5" y="149.6875"/><rect fill="#FFFFFF" height="71.4531" style="stroke:#181818;stroke-width:1.0;" width="10" x="802.5" y="663.9219"/><rect fill="#FFFFFF" height="71.4531" style="stroke:#181818;stroke-width:1.0;" width="10" x="802.5" y="975.5625"/><rect fill="#FFFFFF" height="71.4531" style="stroke:#181818;stroke-width:1.0;" width="10" x="802.5" y="1117.0625"/><rect fill="#FFFFFF" height="71.4531" style="stroke:#181818;stroke-width:1.0;" width="10" x="802.5" y="1288.6094"/><rect fill="none" height="45.0469" style="stroke:#000000;stroke-width:1.5;" width="359.5" x="10" y="1375.0625"/><line style="stroke:#181818;stroke-width:0.5;stroke-dasharray:5.0,5.0;" x1="72" x2="72" y1="80.6406" y2="1437.1094"/><line style="stroke:#181818;stroke-width:0.5;stroke-dasharray:5.0,5.0;" x1="311.5" x2="311.5" y1="80.6406" y2="1437.1094"/><line style="stroke:#181818;stroke-width:0.5;stroke-dasharray:5.0,5.0;" x1="807.5" x2="807.5" y1="149.4844" y2="1437.1094"/><text fill="#000000" font-family="sans-serif" font-size="14" lengthAdjust="spacing" textLength="99" x="20" y="77.6738">Property Owner</text><ellipse cx="72.5" cy="13.5" fill="#E3E3E3" rx="8" ry="8" style="stroke:#181818;stroke-width:0.5;"/><path d="M72.5,21.5 L72.5,48.5 M59.5,29.5 L85.5,29.5 M72.5,48.5 L59.5,63.5 M72.5,48.5 L85.5,63.5 " fill="none" style="stroke:#181818;stroke-width:0.5;"/><text fill="#000000" font-family="sans-serif" font-size="14" lengthAdjust="spacing" textLength="99" x="20" y="1448.7832">Property Owner</text><ellipse cx="72.5" cy="1460.25" fill="#E3E3E3" rx="8" ry="8" style="stroke:#181818;stroke-width:0.5;"/><path d="M72.5,1468.25 L72.5,1495.25 M59.5,1476.25 L85.5,1476.25 M72.5,1495.25 L59.5,1510.25 M72.5,1495.25 L85.5,1510.25 " fill="none" style="stroke:#181818;stroke-width:0.5;"/><rect fill="#E3E3E3" height="29.6406" rx="2.5" ry="2.5" style="stroke:#181818;stroke-width:0.5;" width="96" x="263.5" y="50"/><text fill="#000000" font-family="sans-serif" font-size="14" lengthAdjust="spacing" textLength="82" x="270.5" y="69.6738">:MakeOfferUI</text><rect fill="#E3E3E3" height="29.6406" rx="2.5" ry="2.5" style="stroke:#181818;stroke-width:0.5;" width="96" x="263.5" y="1436.1094"/><text fill="#000000" font-family="sans-serif" font-size="14" lengthAdjust="spacing" textLength="82" x="270.5" y="1455.7832">:MakeOfferUI</text><rect fill="#E3E3E3" height="29.6406" rx="2.5" ry="2.5" style="stroke:#181818;stroke-width:0.5;" width="146" x="734.5" y="1436.1094"/><text fill="#000000" font-family="sans-serif" font-size="14" lengthAdjust="spacing" textLength="132" x="741.5" y="1455.7832">:MakeOfferController</text><rect fill="#FFFFFF" height="1336.4688" style="stroke:#181818;stroke-width:1.0;" width="10" x="67.5" y="90.6406"/><rect fill="#FFFFFF" height="226.5938" style="stroke:#181818;stroke-width:1.0;" width="10" x="306.5" y="111.1641"/><rect fill="#FFFFFF" height="184.5469" style="stroke:#181818;stroke-width:1.0;" width="10" x="306.5" y="366.2813"/><rect fill="#FFFFFF" height="199.0703" style="stroke:#181818;stroke-width:1.0;" width="10" x="306.5" y="579.3516"/><rect fill="#FFFFFF" height="70.0469" style="stroke:#181818;stroke-width:1.0;" width="10" x="306.5" y="806.9453"/><rect fill="#FFFFFF" height="326.0469" style="stroke:#181818;stroke-width:1.0;" width="10" x="306.5" y="905.5156"/><rect fill="#FFFFFF" height="152.0234" style="stroke:#181818;stroke-width:1.0;" width="10" x="306.5" y="1260.0859"/><rect fill="#FFFFFF" height="358.0938" style="stroke:#181818;stroke-width:1.0;" width="10" x="802.5" y="149.6875"/><rect fill="#FFFFFF" height="71.4531" style="stroke:#181818;stroke-width:1.0;" width="10" x="802.5" y="663.9219"/><rect fill="#FFFFFF" height="71.4531" style="stroke:#181818;stroke-width:1.0;" width="10" x="802.5" y="975.5625"/><rect fill="#FFFFFF" height="71.4531" style="stroke:#181818;stroke-width:1.0;" width="10" x="802.5" y="1117.0625"/><rect fill="#FFFFFF" height="71.4531" style="stroke:#181818;stroke-width:1.0;" width="10" x="802.5" y="1288.6094"/><polygon fill="#181818" points="294.5,107.1641,304.5,111.1641,294.5,115.1641,298.5,111.1641" style="stroke:#181818;stroke-width:1.0;"/><line style="stroke:#181818;stroke-width:1.0;" x1="77.5" x2="300.5" y1="111.1641" y2="111.1641"/><text fill="#000000" font-family="sans-serif" font-size="13" font-weight="bold" lengthAdjust="spacing" textLength="7" x="84.5" y="106.4092">1</text><text fill="#000000" font-family="sans-serif" font-size="13" lengthAdjust="spacing" textLength="193" x="95.5" y="106.4092">asks to Schedule a Visit property</text><polygon fill="#181818" points="722.5,135.6875,732.5,139.6875,722.5,143.6875,726.5,139.6875" style="stroke:#181818;stroke-width:1.0;"/><line style="stroke:#181818;stroke-width:1.0;" x1="316.5" x2="728.5" y1="139.6875" y2="139.6875"/><text fill="#000000" font-family="sans-serif" font-size="13" font-weight="bold" lengthAdjust="spacing" textLength="7" x="323.5" y="134.9326">2</text><text fill="#000000" font-family="sans-serif" font-size="13" lengthAdjust="spacing" textLength="36" x="334.5" y="134.9326">create</text><rect fill="#E3E3E3" height="29.6406" rx="2.5" ry="2.5" style="stroke:#181818;stroke-width:0.5;" width="146" x="734.5" y="119.1641"/><text fill="#000000" font-family="sans-serif" font-size="14" lengthAdjust="spacing" textLength="132" x="741.5" y="138.8379">:MakeOfferController</text><rect fill="none" height="37.9297" style="stroke:#000000;stroke-width:1.5;" width="152" x="731.5" y="159.8047"/><path d="M731.5,159.8047 L793.5,159.8047 L793.5,165.8047 L783.5,175.8047 L731.5,175.8047 L731.5,159.8047 " fill="#EEEEEE" style="stroke:#000000;stroke-width:2.0;"/><text fill="#000000" font-family="sans-serif" font-size="13" font-weight="bold" lengthAdjust="spacing" textLength="17" x="744.5" y="173.5732">ref</text><text fill="#000000" font-family="sans-serif" font-size="12" lengthAdjust="spacing" textLength="93" x="761" y="190.668">Get Repositories</text><polygon fill="#181818" points="790.5,219.2578,800.5,223.2578,790.5,227.2578,794.5,223.2578" style="stroke:#181818;stroke-width:1.0;"/><line style="stroke:#181818;stroke-width:1.0;" x1="316.5" x2="796.5" y1="223.2578" y2="223.2578"/><text fill="#000000" font-family="sans-serif" font-size="13" font-weight="bold" lengthAdjust="spacing" textLength="7" x="323.5" y="218.5029">3</text><text fill="#000000" font-family="sans-serif" font-size="13" lengthAdjust="spacing" textLength="169" x="334.5" y="218.5029">listAndChoosePropertyType()</text><rect fill="none" height="37.9297" style="stroke:#000000;stroke-width:1.5;" width="152" x="731.5" y="231.2578"/><path d="M731.5,231.2578 L793.5,231.2578 L793.5,237.2578 L783.5,247.2578 L731.5,247.2578 L731.5,231.2578 " fill="#EEEEEE" style="stroke:#000000;stroke-width:2.0;"/><text fill="#000000" font-family="sans-serif" font-size="13" font-weight="bold" lengthAdjust="spacing" textLength="17" x="744.5" y="245.0264">ref</text><text fill="#000000" font-family="sans-serif" font-size="12" lengthAdjust="spacing" textLength="113" x="751" y="262.1211">Get PropertyTypeList</text><polygon fill="#181818" points="327.5,290.7109,317.5,294.7109,327.5,298.7109,323.5,294.7109" style="stroke:#181818;stroke-width:1.0;"/><line style="stroke:#181818;stroke-width:1.0;stroke-dasharray:2.0,2.0;" x1="321.5" x2="801.5" y1="294.7109" y2="294.7109"/><text fill="#000000" font-family="sans-serif" font-size="13" font-weight="bold" lengthAdjust="spacing" textLength="7" x="333.5" y="289.9561">4</text><text fill="#000000" font-family="sans-serif" font-size="13" lengthAdjust="spacing" textLength="103" x="344.5" y="289.9561">propertyTypesList</text><polygon fill="#181818" points="88.5,333.7578,78.5,337.7578,88.5,341.7578,84.5,337.7578" style="stroke:#181818;stroke-width:1.0;"/><line style="stroke:#181818;stroke-width:1.0;stroke-dasharray:2.0,2.0;" x1="82.5" x2="310.5" y1="337.7578" y2="337.7578"/><text fill="#000000" font-family="sans-serif" font-size="13" font-weight="bold" lengthAdjust="spacing" textLength="7" x="94.5" y="325.7412">5</text><text fill="#000000" font-family="sans-serif" font-size="13" lengthAdjust="spacing" textLength="147" x="105.5" y="318.4795">shows Property Type List</text><text fill="#000000" font-family="sans-serif" font-size="13" lengthAdjust="spacing" textLength="132" x="109.5" y="333.0029">and asks to select one</text><polygon fill="#181818" points="294.5,362.2813,304.5,366.2813,294.5,370.2813,298.5,366.2813" style="stroke:#181818;stroke-width:1.0;"/><line style="stroke:#181818;stroke-width:1.0;" x1="77.5" x2="300.5" y1="366.2813" y2="366.2813"/><text fill="#000000" font-family="sans-serif" font-size="13" font-weight="bold" lengthAdjust="spacing" textLength="7" x="84.5" y="361.5264">6</text><text fill="#000000" font-family="sans-serif" font-size="13" lengthAdjust="spacing" textLength="138" x="95.5" y="361.5264">selects a Property Type</text><line style="stroke:#181818;stroke-width:1.0;" x1="316.5" x2="358.5" y1="394.8047" y2="394.8047"/><line style="stroke:#181818;stroke-width:1.0;" x1="358.5" x2="358.5" y1="394.8047" y2="407.8047"/><line style="stroke:#181818;stroke-width:1.0;" x1="317.5" x2="358.5" y1="407.8047" y2="407.8047"/><polygon fill="#181818" points="327.5,403.8047,317.5,407.8047,327.5,411.8047,323.5,407.8047" style="stroke:#181818;stroke-width:1.0;"/><text fill="#000000" font-family="sans-serif" font-size="13" font-weight="bold" lengthAdjust="spacing" textLength="7" x="323.5" y="390.0498">7</text><text fill="#000000" font-family="sans-serif" font-size="13" lengthAdjust="spacing" textLength="105" x="334.5" y="390.0498">keepPropertyType</text><polygon fill="#181818" points="790.5,432.3281,800.5,436.3281,790.5,440.3281,794.5,436.3281" style="stroke:#181818;stroke-width:1.0;"/><line style="stroke:#181818;stroke-width:1.0;" x1="316.5" x2="796.5" y1="436.3281" y2="436.3281"/><text fill="#000000" font-family="sans-serif" font-size="13" font-weight="bold" lengthAdjust="spacing" textLength="7" x="323.5" y="431.5732">8</text><text fill="#000000" font-family="sans-serif" font-size="13" lengthAdjust="spacing" textLength="174" x="334.5" y="431.5732">listAndChooseBusinessType()</text><rect fill="none" height="37.9297" style="stroke:#000000;stroke-width:1.5;" width="152" x="731.5" y="444.3281"/><path d="M731.5,444.3281 L793.5,444.3281 L793.5,450.3281 L783.5,460.3281 L731.5,460.3281 L731.5,444.3281 " fill="#EEEEEE" style="stroke:#000000;stroke-width:2.0;"/><text fill="#000000" font-family="sans-serif" font-size="13" font-weight="bold" lengthAdjust="spacing" textLength="17" x="744.5" y="458.0967">ref</text><text fill="#000000" font-family="sans-serif" font-size="12" lengthAdjust="spacing" textLength="121" x="747" y="475.1914">Get BusinessTypeList</text><polygon fill="#181818" points="327.5,503.7813,317.5,507.7813,327.5,511.7813,323.5,507.7813" style="stroke:#181818;stroke-width:1.0;"/><line style="stroke:#181818;stroke-width:1.0;stroke-dasharray:2.0,2.0;" x1="321.5" x2="806.5" y1="507.7813" y2="507.7813"/><text fill="#000000" font-family="sans-serif" font-size="13" font-weight="bold" lengthAdjust="spacing" textLength="7" x="333.5" y="503.0264">9</text><text fill="#000000" font-family="sans-serif" font-size="13" lengthAdjust="spacing" textLength="108" x="344.5" y="503.0264">businessTypesList</text><polygon fill="#181818" points="88.5,546.8281,78.5,550.8281,88.5,554.8281,84.5,550.8281" style="stroke:#181818;stroke-width:1.0;"/><line style="stroke:#181818;stroke-width:1.0;stroke-dasharray:2.0,2.0;" x1="82.5" x2="310.5" y1="550.8281" y2="550.8281"/><text fill="#000000" font-family="sans-serif" font-size="13" font-weight="bold" lengthAdjust="spacing" textLength="14" x="94.5" y="538.8115">10</text><text fill="#000000" font-family="sans-serif" font-size="13" lengthAdjust="spacing" textLength="152" x="112.5" y="531.5498">shows Business Type List</text><text fill="#000000" font-family="sans-serif" font-size="13" lengthAdjust="spacing" textLength="132" x="116.5" y="546.0732">and asks to select one</text><polygon fill="#181818" points="294.5,575.3516,304.5,579.3516,294.5,583.3516,298.5,579.3516" style="stroke:#181818;stroke-width:1.0;"/><line style="stroke:#181818;stroke-width:1.0;" x1="77.5" x2="300.5" y1="579.3516" y2="579.3516"/><text fill="#000000" font-family="sans-serif" font-size="13" font-weight="bold" lengthAdjust="spacing" textLength="14" x="84.5" y="574.5967">11</text><text fill="#000000" font-family="sans-serif" font-size="13" lengthAdjust="spacing" textLength="143" x="102.5" y="574.5967">selects a Business Type</text><line style="stroke:#181818;stroke-width:1.0;" x1="316.5" x2="358.5" y1="607.875" y2="607.875"/><line style="stroke:#181818;stroke-width:1.0;" x1="358.5" x2="358.5" y1="607.875" y2="620.875"/><line style="stroke:#181818;stroke-width:1.0;" x1="317.5" x2="358.5" y1="620.875" y2="620.875"/><polygon fill="#181818" points="327.5,616.875,317.5,620.875,327.5,624.875,323.5,620.875" style="stroke:#181818;stroke-width:1.0;"/><text fill="#000000" font-family="sans-serif" font-size="13" font-weight="bold" lengthAdjust="spacing" textLength="14" x="323.5" y="603.1201">12</text><text fill="#000000" font-family="sans-serif" font-size="13" lengthAdjust="spacing" textLength="110" x="341.5" y="603.1201">keepBusinessType</text><polygon fill="#181818" points="790.5,659.9219,800.5,663.9219,790.5,667.9219,794.5,663.9219" style="stroke:#181818;stroke-width:1.0;"/><line style="stroke:#181818;stroke-width:1.0;" x1="316.5" x2="796.5" y1="663.9219" y2="663.9219"/><text fill="#000000" font-family="sans-serif" font-size="13" font-weight="bold" lengthAdjust="spacing" textLength="14" x="323.5" y="651.9053">13</text><text fill="#000000" font-family="sans-serif" font-size="13" lengthAdjust="spacing" textLength="256" x="341.5" y="644.6436">listAndDisplayandChooseAdvertisementDTO</text><text fill="#000000" font-family="sans-serif" font-size="13" lengthAdjust="spacing" textLength="251" x="341.5" y="659.167">(propertyTypeChoice, businessTypeChoice)</text><rect fill="none" height="37.9297" style="stroke:#000000;stroke-width:1.5;" width="221" x="731.5" y="671.9219"/><path d="M731.5,671.9219 L793.5,671.9219 L793.5,677.9219 L783.5,687.9219 L731.5,687.9219 L731.5,671.9219 " fill="#EEEEEE" style="stroke:#000000;stroke-width:2.0;"/><text fill="#000000" font-family="sans-serif" font-size="13" font-weight="bold" lengthAdjust="spacing" textLength="17" x="744.5" y="685.6904">ref</text><text fill="#000000" font-family="sans-serif" font-size="12" lengthAdjust="spacing" textLength="213" x="735.5" y="702.7852">Get AdvertismentDTOListSortedByDate</text><polygon fill="#181818" points="327.5,731.375,317.5,735.375,327.5,739.375,323.5,735.375" style="stroke:#181818;stroke-width:1.0;"/><line style="stroke:#181818;stroke-width:1.0;" x1="321.5" x2="806.5" y1="735.375" y2="735.375"/><text fill="#000000" font-family="sans-serif" font-size="13" font-weight="bold" lengthAdjust="spacing" textLength="14" x="333.5" y="730.6201">14</text><text fill="#000000" font-family="sans-serif" font-size="13" lengthAdjust="spacing" textLength="210" x="351.5" y="730.6201">AdvertisementDTOListSortedByDate</text><polygon fill="#181818" points="88.5,774.4219,78.5,778.4219,88.5,782.4219,84.5,778.4219" style="stroke:#181818;stroke-width:1.0;"/><line style="stroke:#181818;stroke-width:1.0;stroke-dasharray:2.0,2.0;" x1="82.5" x2="310.5" y1="778.4219" y2="778.4219"/><text fill="#000000" font-family="sans-serif" font-size="13" font-weight="bold" lengthAdjust="spacing" textLength="14" x="94.5" y="766.4053">15</text><text fill="#000000" font-family="sans-serif" font-size="13" lengthAdjust="spacing" textLength="167" x="112.5" y="759.1436">shows AdvertismentDTO List</text><text fill="#000000" font-family="sans-serif" font-size="13" lengthAdjust="spacing" textLength="132" x="116.5" y="773.667">and asks to select one</text><polygon fill="#181818" points="294.5,802.9453,304.5,806.9453,294.5,810.9453,298.5,806.9453" style="stroke:#181818;stroke-width:1.0;"/><line style="stroke:#181818;stroke-width:1.0;" x1="77.5" x2="300.5" y1="806.9453" y2="806.9453"/><text fill="#000000" font-family="sans-serif" font-size="13" font-weight="bold" lengthAdjust="spacing" textLength="14" x="84.5" y="802.1904">16</text><text fill="#000000" font-family="sans-serif" font-size="13" lengthAdjust="spacing" textLength="158" x="102.5" y="802.1904">selects a AdvertismentDTO</text><line style="stroke:#181818;stroke-width:1.0;" x1="316.5" x2="358.5" y1="835.4688" y2="835.4688"/><line style="stroke:#181818;stroke-width:1.0;" x1="358.5" x2="358.5" y1="835.4688" y2="848.4688"/><line style="stroke:#181818;stroke-width:1.0;" x1="317.5" x2="358.5" y1="848.4688" y2="848.4688"/><polygon fill="#181818" points="327.5,844.4688,317.5,848.4688,327.5,852.4688,323.5,848.4688" style="stroke:#181818;stroke-width:1.0;"/><text fill="#000000" font-family="sans-serif" font-size="13" font-weight="bold" lengthAdjust="spacing" textLength="14" x="323.5" y="830.7139">17</text><text fill="#000000" font-family="sans-serif" font-size="13" lengthAdjust="spacing" textLength="129" x="341.5" y="830.7139">keepAdvertismentDTO</text><polygon fill="#181818" points="88.5,872.9922,78.5,876.9922,88.5,880.9922,84.5,876.9922" style="stroke:#181818;stroke-width:1.0;"/><line style="stroke:#181818;stroke-width:1.0;" x1="82.5" x2="310.5" y1="876.9922" y2="876.9922"/><text fill="#000000" font-family="sans-serif" font-size="13" font-weight="bold" lengthAdjust="spacing" textLength="14" x="94.5" y="872.2373">18</text><text fill="#000000" font-family="sans-serif" font-size="13" lengthAdjust="spacing" textLength="168" x="112.5" y="872.2373">ask value of Offer (offerValue)</text><polygon fill="#181818" points="294.5,901.5156,304.5,905.5156,294.5,909.5156,298.5,905.5156" style="stroke:#181818;stroke-width:1.0;"/><line style="stroke:#181818;stroke-width:1.0;" x1="77.5" x2="300.5" y1="905.5156" y2="905.5156"/><text fill="#000000" font-family="sans-serif" font-size="13" font-weight="bold" lengthAdjust="spacing" textLength="14" x="84.5" y="900.7607">19</text><text fill="#000000" font-family="sans-serif" font-size="13" lengthAdjust="spacing" textLength="172" x="102.5" y="900.7607">types asked data (OfferValue)</text><line style="stroke:#181818;stroke-width:1.0;" x1="316.5" x2="358.5" y1="934.0391" y2="934.0391"/><line style="stroke:#181818;stroke-width:1.0;" x1="358.5" x2="358.5" y1="934.0391" y2="947.0391"/><line style="stroke:#181818;stroke-width:1.0;" x1="317.5" x2="358.5" y1="947.0391" y2="947.0391"/><polygon fill="#181818" points="327.5,943.0391,317.5,947.0391,327.5,951.0391,323.5,947.0391" style="stroke:#181818;stroke-width:1.0;"/><text fill="#000000" font-family="sans-serif" font-size="13" font-weight="bold" lengthAdjust="spacing" textLength="14" x="323.5" y="929.2842">20</text><text fill="#000000" font-family="sans-serif" font-size="13" lengthAdjust="spacing" textLength="81" x="341.5" y="929.2842">keeOfferValue</text><polygon fill="#181818" points="790.5,971.5625,800.5,975.5625,790.5,979.5625,794.5,975.5625" style="stroke:#181818;stroke-width:1.0;"/><line style="stroke:#181818;stroke-width:1.0;" x1="316.5" x2="796.5" y1="975.5625" y2="975.5625"/><text fill="#000000" font-family="sans-serif" font-size="13" font-weight="bold" lengthAdjust="spacing" textLength="14" x="323.5" y="970.8076">21</text><text fill="#000000" font-family="sans-serif" font-size="13" lengthAdjust="spacing" textLength="92" x="341.5" y="970.8076">getClientEmail()</text><rect fill="none" height="37.9297" style="stroke:#000000;stroke-width:1.5;" width="152" x="731.5" y="983.5625"/><path d="M731.5,983.5625 L793.5,983.5625 L793.5,989.5625 L783.5,999.5625 L731.5,999.5625 L731.5,983.5625 " fill="#EEEEEE" style="stroke:#000000;stroke-width:2.0;"/><text fill="#000000" font-family="sans-serif" font-size="13" font-weight="bold" lengthAdjust="spacing" textLength="17" x="744.5" y="997.3311">ref</text><text fill="#000000" font-family="sans-serif" font-size="12" lengthAdjust="spacing" textLength="105" x="755" y="1014.4258">Get GetClientEmail</text><polygon fill="#181818" points="327.5,1043.0156,317.5,1047.0156,327.5,1051.0156,323.5,1047.0156" style="stroke:#181818;stroke-width:1.0;"/><line style="stroke:#181818;stroke-width:1.0;" x1="321.5" x2="806.5" y1="1047.0156" y2="1047.0156"/><text fill="#000000" font-family="sans-serif" font-size="13" font-weight="bold" lengthAdjust="spacing" textLength="14" x="333.5" y="1042.2607">22</text><text fill="#000000" font-family="sans-serif" font-size="13" lengthAdjust="spacing" textLength="64" x="351.5" y="1042.2607">clientEmail</text><line style="stroke:#181818;stroke-width:1.0;" x1="316.5" x2="358.5" y1="1075.5391" y2="1075.5391"/><line style="stroke:#181818;stroke-width:1.0;" x1="358.5" x2="358.5" y1="1075.5391" y2="1088.5391"/><line style="stroke:#181818;stroke-width:1.0;" x1="317.5" x2="358.5" y1="1088.5391" y2="1088.5391"/><polygon fill="#181818" points="327.5,1084.5391,317.5,1088.5391,327.5,1092.5391,323.5,1088.5391" style="stroke:#181818;stroke-width:1.0;"/><text fill="#000000" font-family="sans-serif" font-size="13" font-weight="bold" lengthAdjust="spacing" textLength="14" x="323.5" y="1070.7842">23</text><text fill="#000000" font-family="sans-serif" font-size="13" lengthAdjust="spacing" textLength="94" x="341.5" y="1070.7842">keepClientEmail</text><polygon fill="#181818" points="790.5,1113.0625,800.5,1117.0625,790.5,1121.0625,794.5,1117.0625" style="stroke:#181818;stroke-width:1.0;"/><line style="stroke:#181818;stroke-width:1.0;" x1="316.5" x2="796.5" y1="1117.0625" y2="1117.0625"/><text fill="#000000" font-family="sans-serif" font-size="13" font-weight="bold" lengthAdjust="spacing" textLength="14" x="323.5" y="1112.3076">24</text><text fill="#000000" font-family="sans-serif" font-size="13" lengthAdjust="spacing" textLength="449" x="341.5" y="1112.3076">VerifyOfferValidation (keepAdvertismentDTO, keeOfferValue, keepClientEmail)</text><rect fill="none" height="37.9297" style="stroke:#000000;stroke-width:1.5;" width="152" x="731.5" y="1125.0625"/><path d="M731.5,1125.0625 L793.5,1125.0625 L793.5,1131.0625 L783.5,1141.0625 L731.5,1141.0625 L731.5,1125.0625 " fill="#EEEEEE" style="stroke:#000000;stroke-width:2.0;"/><text fill="#000000" font-family="sans-serif" font-size="13" font-weight="bold" lengthAdjust="spacing" textLength="17" x="744.5" y="1138.8311">ref</text><text fill="#000000" font-family="sans-serif" font-size="12" lengthAdjust="spacing" textLength="131" x="742" y="1155.9258">Get VerifyOfferValidation</text><polygon fill="#181818" points="327.5,1184.5156,317.5,1188.5156,327.5,1192.5156,323.5,1188.5156" style="stroke:#181818;stroke-width:1.0;"/><line style="stroke:#181818;stroke-width:1.0;" x1="321.5" x2="806.5" y1="1188.5156" y2="1188.5156"/><text fill="#000000" font-family="sans-serif" font-size="13" font-weight="bold" lengthAdjust="spacing" textLength="14" x="333.5" y="1183.7607">25</text><text fill="#000000" font-family="sans-serif" font-size="13" lengthAdjust="spacing" textLength="133" x="351.5" y="1183.7607">verififyClientOffer()=true</text><polygon fill="#181818" points="88.5,1227.5625,78.5,1231.5625,88.5,1235.5625,84.5,1231.5625" style="stroke:#181818;stroke-width:1.0;"/><line style="stroke:#181818;stroke-width:1.0;" x1="82.5" x2="310.5" y1="1231.5625" y2="1231.5625"/><text fill="#000000" font-family="sans-serif" font-size="13" font-weight="bold" lengthAdjust="spacing" textLength="14" x="94.5" y="1219.5459">26</text><text fill="#000000" font-family="sans-serif" font-size="13" lengthAdjust="spacing" textLength="137" x="112.5" y="1212.2842">Display Offer conditions</text><text fill="#000000" font-family="sans-serif" font-size="13" lengthAdjust="spacing" textLength="183" x="116.5" y="1226.8076">and ask for validation (YES/NO)</text><polygon fill="#181818" points="294.5,1256.0859,304.5,1260.0859,294.5,1264.0859,298.5,1260.0859" style="stroke:#181818;stroke-width:1.0;"/><line style="stroke:#181818;stroke-width:1.0;" x1="77.5" x2="300.5" y1="1260.0859" y2="1260.0859"/><text fill="#000000" font-family="sans-serif" font-size="13" font-weight="bold" lengthAdjust="spacing" textLength="14" x="84.5" y="1255.3311">27</text><text fill="#000000" font-family="sans-serif" font-size="13" lengthAdjust="spacing" textLength="151" x="102.5" y="1255.3311">input: validation (YES/NO)</text><polygon fill="#181818" points="790.5,1284.6094,800.5,1288.6094,790.5,1292.6094,794.5,1288.6094" style="stroke:#181818;stroke-width:1.0;"/><line style="stroke:#181818;stroke-width:1.0;" x1="316.5" x2="796.5" y1="1288.6094" y2="1288.6094"/><text fill="#000000" font-family="sans-serif" font-size="13" font-weight="bold" lengthAdjust="spacing" textLength="14" x="323.5" y="1283.8545">28</text><text fill="#000000" font-family="sans-serif" font-size="13" lengthAdjust="spacing" textLength="371" x="341.5" y="1283.8545">adNewOffer(keepAdvertisement,keeOfferValue, keepClientEmail)</text><rect fill="none" height="37.9297" style="stroke:#000000;stroke-width:1.5;" width="173" x="731.5" y="1296.6094"/><path d="M731.5,1296.6094 L793.5,1296.6094 L793.5,1302.6094 L783.5,1312.6094 L731.5,1312.6094 L731.5,1296.6094 " fill="#EEEEEE" style="stroke:#000000;stroke-width:2.0;"/><text fill="#000000" font-family="sans-serif" font-size="13" font-weight="bold" lengthAdjust="spacing" textLength="17" x="744.5" y="1310.3779">ref</text><text fill="#000000" font-family="sans-serif" font-size="12" lengthAdjust="spacing" textLength="165" x="735.5" y="1327.4727">Ad New Offer to Advertisement</text><polygon fill="#181818" points="327.5,1356.0625,317.5,1360.0625,327.5,1364.0625,323.5,1360.0625" style="stroke:#181818;stroke-width:1.0;"/><line style="stroke:#181818;stroke-width:1.0;" x1="321.5" x2="806.5" y1="1360.0625" y2="1360.0625"/><text fill="#000000" font-family="sans-serif" font-size="13" font-weight="bold" lengthAdjust="spacing" textLength="14" x="333.5" y="1355.3076">29</text><text fill="#000000" font-family="sans-serif" font-size="13" lengthAdjust="spacing" textLength="96" x="351.5" y="1355.3076">adNewOffer=true</text><path d="M10,1375.0625 L71,1375.0625 L71,1381.5859 L61,1391.5859 L10,1391.5859 L10,1375.0625 " fill="#EEEEEE" style="stroke:#000000;stroke-width:1.5;"/><rect fill="none" height="45.0469" style="stroke:#000000;stroke-width:1.5;" width="359.5" x="10" y="1375.0625"/><text fill="#000000" font-family="sans-serif" font-size="13" font-weight="bold" lengthAdjust="spacing" textLength="16" x="25" y="1387.8311">alt</text><text fill="#000000" font-family="sans-serif" font-size="11" font-weight="bold" lengthAdjust="spacing" textLength="92" x="86" y="1387.0205">[validation = YES]</text><polygon fill="#181818" points="88.5,1408.1094,78.5,1412.1094,88.5,1416.1094,84.5,1412.1094" style="stroke:#181818;stroke-width:1.0;"/><line style="stroke:#181818;stroke-width:1.0;" x1="82.5" x2="310.5" y1="1412.1094" y2="1412.1094"/><text fill="#000000" font-family="sans-serif" font-size="13" font-weight="bold" lengthAdjust="spacing" textLength="14" x="94.5" y="1407.3545">30</text><text fill="#000000" font-family="sans-serif" font-size="13" lengthAdjust="spacing" textLength="158" x="112.5" y="1407.3545">displays operation success</text><!--SRC=[jLRBRjim4BphAnQvr0wSzYuW1H8d20AaSH4d0GhaGejhcx1C2YHbrt_VfLucLTcLW5GN2TJkx71c-J0R8JEcsHQsIgfahTKMmUeS8zFyoLYoOIkSsqEAe36nJAvIFy2i6LTx8LUmPAd1A6AvLJBVBb17qPUru0XBfUn2_OvOOfM6YvzQPQZj0MPxYVe2c84tGz64PqKYCYOjNCG_s0PdooNgjySovF5Km5H9grMQLbZJrvSdgZnD1L9Sbh84WKbGcgC6go3BTR9cXcQwHiWgBbyZnqxicCMIJ0Jqk2-u-awr8IReZN7vysIDF2Sr6BmB8so3KQIuvuZq63M3X458Zjpb9Q4b6YcY-Hka5JEeHpKkGUs8Hp3gdWUqy8AP8WvA2pJDJvJSfGN174Fu3buGfyBO6ycdQwKCrZQz7Z8SZQEUXFoi9u8xIQgeU5MBctbffiWB6ReuPqPC_QRsfYa3BW5S0dn8ifatDXbCgLj1oQF8dWQrCu73POeXOmFuRfDQtZeGUiUmGSny4NeeVPiR8T6OOKhxMGEKNdXf9iWxso9j0-hg_yc007wu0RusVbIbVmoL_dV2q0PnOBKJDvpajiBWblQEkzVPXnpvdKb18i59e64vDZwpadlwMTUkIZj9vqfRvBU7Et-hgEqD04gFAndRipW9DTZr5iVFzxrLOBZpRO3sygkcGsHXnz8SGIsXE4LWfDphtGsEUpEtRXKvDEJ0cMKmcdMWd3aGAjx7hAxz8eOLsl90kzyoaOu-eTqU0iI-tKK7LqTIZmEcziUlsJdJTzHYUQZr42IgK1967TvEGk4cRVnF4AcJJ6-jTYwRyajE1SfeV5rSi8OeH_qMGxLJLRsQACc5usAEYu-kMThrT2FPh_lvj-TPprwEWIvqkOtF8lpZOkFM5N_6VJbJtx5Y9vhqjMkmLJSSg6ob3Mr1GTdJTlbjVIGU6lINEIorlaRNG2ATs6HuwPa1TuAKuIPF4ZeuJdX23AF87t8tqJy0]--></g></svg>