<?xml version="1.0" encoding="us-ascii" standalone="no"?><svg xmlns="http://www.w3.org/2000/svg" xmlns:xlink="http://www.w3.org/1999/xlink" contentStyleType="text/css" height="2479px" preserveAspectRatio="none" style="width:1452px;height:2479px;background:#FFFFFF;" version="1.1" viewBox="0 0 1452 2479" width="1452px" zoomAndPan="magnify"><defs/><g><!--class ScheduleVisitUI--><g id="elem_ScheduleVisitUI"><rect codeLine="11" fill="#F1F1F1" height="298.25" id="ScheduleVisitUI" rx="2.5" ry="2.5" style="stroke:#181818;stroke-width:0.5;" width="644" x="417" y="7"/><ellipse cx="686.25" cy="23" fill="#ADD1B2" rx="11" ry="11" style="stroke:#181818;stroke-width:1.0;"/><path d="M689.0156,18.875 Q689.1719,18.6563 689.3594,18.5469 Q689.5469,18.4375 689.7656,18.4375 Q690.1406,18.4375 690.375,18.7031 Q690.6094,18.9531 690.6094,19.5625 L690.6094,21.0156 Q690.6094,21.625 690.375,21.8906 Q690.1406,22.1563 689.7656,22.1563 Q689.4219,22.1563 689.2188,21.9531 Q689.0156,21.7656 688.9063,21.25 Q688.8594,20.8906 688.6719,20.7031 Q688.3438,20.3281 687.7344,20.1094 Q687.125,19.8906 686.5,19.8906 Q685.7344,19.8906 685.0938,20.2188 Q684.4688,20.5469 683.9688,21.2969 Q683.4844,22.0469 683.4844,23.0781 L683.4844,24.1719 Q683.4844,25.4063 684.375,26.2344 Q685.2656,27.0469 686.8594,27.0469 Q687.7969,27.0469 688.4531,26.7969 Q688.8438,26.6406 689.2656,26.2031 Q689.5313,25.9375 689.6719,25.8594 Q689.8281,25.7813 690.0313,25.7813 Q690.3594,25.7813 690.6094,26.0469 Q690.875,26.2969 690.875,26.6406 Q690.875,26.9844 690.5313,27.3906 Q690.0313,27.9688 689.2344,28.2969 Q688.1563,28.75 686.8594,28.75 Q685.3438,28.75 684.1406,28.125 Q683.1563,27.625 682.4688,26.5625 Q681.7813,25.4844 681.7813,24.2031 L681.7813,23.0469 Q681.7813,21.7188 682.3906,20.5781 Q683.0156,19.4219 684.1094,18.8125 Q685.2031,18.1875 686.4375,18.1875 Q687.1719,18.1875 687.8125,18.3594 Q688.4688,18.5156 689.0156,18.875 Z " fill="#000000"/><text fill="#000000" font-family="sans-serif" font-size="14" lengthAdjust="spacing" textLength="97" x="706.75" y="27.8535">ScheduleVisitUI</text><line style="stroke:#181818;stroke-width:0.5;" x1="418" x2="1060" y1="39" y2="39"/><text fill="#000000" font-family="sans-serif" font-size="14" lengthAdjust="spacing" textLength="260" x="423" y="55.6738">-PropertyType keepPropertyTypeChoice;</text><text fill="#000000" font-family="sans-serif" font-size="14" lengthAdjust="spacing" textLength="266" x="423" y="71.3145">-BusinessType keepBusinessTypeChoice;</text><text fill="#000000" font-family="sans-serif" font-size="14" lengthAdjust="spacing" textLength="89" x="423" y="86.9551">-int keepYear;</text><text fill="#000000" font-family="sans-serif" font-size="14" lengthAdjust="spacing" textLength="98" x="423" y="102.5957">-int keepMonth;</text><text fill="#000000" font-family="sans-serif" font-size="14" lengthAdjust="spacing" textLength="84" x="423" y="118.2363">-int keepDay;</text><text fill="#000000" font-family="sans-serif" font-size="14" lengthAdjust="spacing" textLength="89" x="423" y="133.877">-int keepHour;</text><text fill="#000000" font-family="sans-serif" font-size="14" lengthAdjust="spacing" textLength="232" x="423" y="149.5176">-Advertisement advertisementChoice</text><text fill="#000000" font-family="sans-serif" font-size="14" lengthAdjust="spacing" textLength="292" x="423" y="165.1582">-AdvertisementDTO advertisementDTOChoice</text><text fill="#000000" font-family="sans-serif" font-size="14" lengthAdjust="spacing" textLength="103" x="423" y="180.7988">-Visit visitChoice</text><line style="stroke:#181818;stroke-width:0.5;" x1="418" x2="1060" y1="187.7656" y2="187.7656"/><text fill="#000000" font-family="sans-serif" font-size="14" lengthAdjust="spacing" textLength="209" x="423" y="204.4395">+create ScheduleVisitController()</text><text fill="#000000" font-family="sans-serif" font-size="14" lengthAdjust="spacing" textLength="195" x="423" y="220.0801">+listAndChoosePropertyType()</text><text fill="#000000" font-family="sans-serif" font-size="14" lengthAdjust="spacing" textLength="198" x="423" y="235.7207">+listAndChooseBusinessType()</text><text fill="#000000" font-family="sans-serif" font-size="14" lengthAdjust="spacing" textLength="632" x="423" y="251.3613">+listAndDisplayandChooseAdvertisementDTO(keepPropertyTypeChoice, keepBusinessTypeChoice)</text><text fill="#000000" font-family="sans-serif" font-size="14" lengthAdjust="spacing" textLength="547" x="423" y="267.002">+getAdvertismentDTOListSorted(keepPropertyTypeChoice, keepBusinessTypeChoice)</text><text fill="#000000" font-family="sans-serif" font-size="14" lengthAdjust="spacing" textLength="597" x="423" y="282.6426">+displayAdvertisments( adsVisitListDTO, keepPropertyTypeChoice, keepBusinessTypeChoice)</text><text fill="#000000" font-family="sans-serif" font-size="14" lengthAdjust="spacing" textLength="517" x="423" y="298.2832">+displayConditionsAskToConfirm(AdvertisementDTO adchoiceVisitDTO, Visit visit)</text></g><!--class ScheduleVisitController--><g id="elem_ScheduleVisitController"><rect codeLine="32" fill="#F1F1F1" height="173.125" id="ScheduleVisitController" rx="2.5" ry="2.5" style="stroke:#181818;stroke-width:0.5;" width="340" x="569" y="366"/><ellipse cx="661.25" cy="382" fill="#ADD1B2" rx="11" ry="11" style="stroke:#181818;stroke-width:1.0;"/><path d="M664.0156,377.875 Q664.1719,377.6563 664.3594,377.5469 Q664.5469,377.4375 664.7656,377.4375 Q665.1406,377.4375 665.375,377.7031 Q665.6094,377.9531 665.6094,378.5625 L665.6094,380.0156 Q665.6094,380.625 665.375,380.8906 Q665.1406,381.1563 664.7656,381.1563 Q664.4219,381.1563 664.2188,380.9531 Q664.0156,380.7656 663.9063,380.25 Q663.8594,379.8906 663.6719,379.7031 Q663.3438,379.3281 662.7344,379.1094 Q662.125,378.8906 661.5,378.8906 Q660.7344,378.8906 660.0938,379.2188 Q659.4688,379.5469 658.9688,380.2969 Q658.4844,381.0469 658.4844,382.0781 L658.4844,383.1719 Q658.4844,384.4063 659.375,385.2344 Q660.2656,386.0469 661.8594,386.0469 Q662.7969,386.0469 663.4531,385.7969 Q663.8438,385.6406 664.2656,385.2031 Q664.5313,384.9375 664.6719,384.8594 Q664.8281,384.7813 665.0313,384.7813 Q665.3594,384.7813 665.6094,385.0469 Q665.875,385.2969 665.875,385.6406 Q665.875,385.9844 665.5313,386.3906 Q665.0313,386.9688 664.2344,387.2969 Q663.1563,387.75 661.8594,387.75 Q660.3438,387.75 659.1406,387.125 Q658.1563,386.625 657.4688,385.5625 Q656.7813,384.4844 656.7813,383.2031 L656.7813,382.0469 Q656.7813,380.7188 657.3906,379.5781 Q658.0156,378.4219 659.1094,377.8125 Q660.2031,377.1875 661.4375,377.1875 Q662.1719,377.1875 662.8125,377.3594 Q663.4688,377.5156 664.0156,377.875 Z " fill="#000000"/><text fill="#000000" font-family="sans-serif" font-size="14" lengthAdjust="spacing" textLength="147" x="681.75" y="386.8535">ScheduleVisitController</text><line style="stroke:#181818;stroke-width:0.5;" x1="570" x2="908" y1="398" y2="398"/><text fill="#000000" font-family="sans-serif" font-size="14" lengthAdjust="spacing" textLength="166" x="575" y="414.6738">-Repositories repositories;</text><text fill="#000000" font-family="sans-serif" font-size="14" lengthAdjust="spacing" textLength="256" x="575" y="430.3145">-PropertyRepository propertyRepository;</text><text fill="#000000" font-family="sans-serif" font-size="14" lengthAdjust="spacing" textLength="250" x="575" y="445.9551">-RequestRepository requestRepository;</text><text fill="#000000" font-family="sans-serif" font-size="14" lengthAdjust="spacing" textLength="328" x="575" y="461.5957">-AdvertisementRepository advertisementRepository;</text><line style="stroke:#181818;stroke-width:0.5;" x1="570" x2="908" y1="468.5625" y2="468.5625"/><text fill="#000000" font-family="sans-serif" font-size="14" lengthAdjust="spacing" textLength="91" x="575" y="485.2363">+getInstance()</text><text fill="#000000" font-family="sans-serif" font-size="14" lengthAdjust="spacing" textLength="146" x="575" y="500.877">+getPropertyTypeList()</text><text fill="#000000" font-family="sans-serif" font-size="14" lengthAdjust="spacing" textLength="149" x="575" y="516.5176">+getBusinessTypeList()</text><text fill="#000000" font-family="sans-serif" font-size="14" lengthAdjust="spacing" textLength="188" x="575" y="532.1582">+getAdvertismentRepository()</text></g><!--class Repositories--><g id="elem_Repositories"><rect codeLine="46" fill="#F1F1F1" height="141.8438" id="Repositories" rx="2.5" ry="2.5" style="stroke:#181818;stroke-width:0.5;" width="207" x="417.5" y="741"/><ellipse cx="477.25" cy="757" fill="#ADD1B2" rx="11" ry="11" style="stroke:#181818;stroke-width:1.0;"/><path d="M480.0156,752.875 Q480.1719,752.6563 480.3594,752.5469 Q480.5469,752.4375 480.7656,752.4375 Q481.1406,752.4375 481.375,752.7031 Q481.6094,752.9531 481.6094,753.5625 L481.6094,755.0156 Q481.6094,755.625 481.375,755.8906 Q481.1406,756.1563 480.7656,756.1563 Q480.4219,756.1563 480.2188,755.9531 Q480.0156,755.7656 479.9063,755.25 Q479.8594,754.8906 479.6719,754.7031 Q479.3438,754.3281 478.7344,754.1094 Q478.125,753.8906 477.5,753.8906 Q476.7344,753.8906 476.0938,754.2188 Q475.4688,754.5469 474.9688,755.2969 Q474.4844,756.0469 474.4844,757.0781 L474.4844,758.1719 Q474.4844,759.4063 475.375,760.2344 Q476.2656,761.0469 477.8594,761.0469 Q478.7969,761.0469 479.4531,760.7969 Q479.8438,760.6406 480.2656,760.2031 Q480.5313,759.9375 480.6719,759.8594 Q480.8281,759.7813 481.0313,759.7813 Q481.3594,759.7813 481.6094,760.0469 Q481.875,760.2969 481.875,760.6406 Q481.875,760.9844 481.5313,761.3906 Q481.0313,761.9688 480.2344,762.2969 Q479.1563,762.75 477.8594,762.75 Q476.3438,762.75 475.1406,762.125 Q474.1563,761.625 473.4688,760.5625 Q472.7813,759.4844 472.7813,758.2031 L472.7813,757.0469 Q472.7813,755.7188 473.3906,754.5781 Q474.0156,753.4219 475.1094,752.8125 Q476.2031,752.1875 477.4375,752.1875 Q478.1719,752.1875 478.8125,752.3594 Q479.4688,752.5156 480.0156,752.875 Z " fill="#000000"/><text fill="#000000" font-family="sans-serif" font-size="14" lengthAdjust="spacing" textLength="79" x="497.75" y="761.8535">Repositories</text><line style="stroke:#181818;stroke-width:0.5;" x1="418.5" x2="623.5" y1="773" y2="773"/><line style="stroke:#181818;stroke-width:0.5;" x1="418.5" x2="623.5" y1="781" y2="781"/><text fill="#000000" font-family="sans-serif" font-size="14" lengthAdjust="spacing" textLength="94" x="423.5" y="797.6738">-Repositories()</text><text fill="#000000" font-family="sans-serif" font-size="14" lengthAdjust="spacing" textLength="182" x="423.5" y="813.3145">+getInstance() : Repositories</text><text fill="#000000" font-family="sans-serif" font-size="14" lengthAdjust="spacing" textLength="160" x="423.5" y="828.9551">+getPropertyRepository()</text><text fill="#000000" font-family="sans-serif" font-size="14" lengthAdjust="spacing" textLength="195" x="423.5" y="844.5957">+getBusinessTypeRepository()</text><text fill="#000000" font-family="sans-serif" font-size="14" lengthAdjust="spacing" textLength="159" x="423.5" y="860.2363">+getRequestRepository()</text><text fill="#000000" font-family="sans-serif" font-size="14" lengthAdjust="spacing" textLength="188" x="423.5" y="875.877">+getAdvertismentRepository()</text></g><!--class PropertyRepository--><g id="elem_PropertyRepository"><rect codeLine="56" fill="#F1F1F1" height="63.6406" id="PropertyRepository" rx="2.5" ry="2.5" style="stroke:#181818;stroke-width:0.5;" width="154" x="725" y="1038"/><ellipse cx="740" cy="1054" fill="#ADD1B2" rx="11" ry="11" style="stroke:#181818;stroke-width:1.0;"/><path d="M742.7656,1049.875 Q742.9219,1049.6563 743.1094,1049.5469 Q743.2969,1049.4375 743.5156,1049.4375 Q743.8906,1049.4375 744.125,1049.7031 Q744.3594,1049.9531 744.3594,1050.5625 L744.3594,1052.0156 Q744.3594,1052.625 744.125,1052.8906 Q743.8906,1053.1563 743.5156,1053.1563 Q743.1719,1053.1563 742.9688,1052.9531 Q742.7656,1052.7656 742.6563,1052.25 Q742.6094,1051.8906 742.4219,1051.7031 Q742.0938,1051.3281 741.4844,1051.1094 Q740.875,1050.8906 740.25,1050.8906 Q739.4844,1050.8906 738.8438,1051.2188 Q738.2188,1051.5469 737.7188,1052.2969 Q737.2344,1053.0469 737.2344,1054.0781 L737.2344,1055.1719 Q737.2344,1056.4063 738.125,1057.2344 Q739.0156,1058.0469 740.6094,1058.0469 Q741.5469,1058.0469 742.2031,1057.7969 Q742.5938,1057.6406 743.0156,1057.2031 Q743.2813,1056.9375 743.4219,1056.8594 Q743.5781,1056.7813 743.7813,1056.7813 Q744.1094,1056.7813 744.3594,1057.0469 Q744.625,1057.2969 744.625,1057.6406 Q744.625,1057.9844 744.2813,1058.3906 Q743.7813,1058.9688 742.9844,1059.2969 Q741.9063,1059.75 740.6094,1059.75 Q739.0938,1059.75 737.8906,1059.125 Q736.9063,1058.625 736.2188,1057.5625 Q735.5313,1056.4844 735.5313,1055.2031 L735.5313,1054.0469 Q735.5313,1052.7188 736.1406,1051.5781 Q736.7656,1050.4219 737.8594,1049.8125 Q738.9531,1049.1875 740.1875,1049.1875 Q740.9219,1049.1875 741.5625,1049.3594 Q742.2188,1049.5156 742.7656,1049.875 Z " fill="#000000"/><text fill="#000000" font-family="sans-serif" font-size="14" lengthAdjust="spacing" textLength="122" x="754" y="1058.8535">PropertyRepository</text><line style="stroke:#181818;stroke-width:0.5;" x1="726" x2="878" y1="1070" y2="1070"/><line style="stroke:#181818;stroke-width:0.5;" x1="726" x2="878" y1="1078" y2="1078"/><text fill="#000000" font-family="sans-serif" font-size="14" lengthAdjust="spacing" textLength="114" x="731" y="1094.6738">+getPropertyList()</text></g><!--class Property--><g id="elem_Property"><rect codeLine="59" fill="#F1F1F1" height="117.6094" id="Property" rx="2.5" ry="2.5" style="stroke:#181818;stroke-width:0.5;" width="180" x="947" y="1850"/><ellipse cx="1004.25" cy="1869.5234" fill="#ADD1B2" rx="11" ry="11" style="stroke:#181818;stroke-width:1.0;"/><path d="M1007.0156,1865.3984 Q1007.1719,1865.1797 1007.3594,1865.0703 Q1007.5469,1864.9609 1007.7656,1864.9609 Q1008.1406,1864.9609 1008.375,1865.2266 Q1008.6094,1865.4766 1008.6094,1866.0859 L1008.6094,1867.5391 Q1008.6094,1868.1484 1008.375,1868.4141 Q1008.1406,1868.6797 1007.7656,1868.6797 Q1007.4219,1868.6797 1007.2188,1868.4766 Q1007.0156,1868.2891 1006.9063,1867.7734 Q1006.8594,1867.4141 1006.6719,1867.2266 Q1006.3438,1866.8516 1005.7344,1866.6328 Q1005.125,1866.4141 1004.5,1866.4141 Q1003.7344,1866.4141 1003.0938,1866.7422 Q1002.4688,1867.0703 1001.9688,1867.8203 Q1001.4844,1868.5703 1001.4844,1869.6016 L1001.4844,1870.6953 Q1001.4844,1871.9297 1002.375,1872.7578 Q1003.2656,1873.5703 1004.8594,1873.5703 Q1005.7969,1873.5703 1006.4531,1873.3203 Q1006.8438,1873.1641 1007.2656,1872.7266 Q1007.5313,1872.4609 1007.6719,1872.3828 Q1007.8281,1872.3047 1008.0313,1872.3047 Q1008.3594,1872.3047 1008.6094,1872.5703 Q1008.875,1872.8203 1008.875,1873.1641 Q1008.875,1873.5078 1008.5313,1873.9141 Q1008.0313,1874.4922 1007.2344,1874.8203 Q1006.1563,1875.2734 1004.8594,1875.2734 Q1003.3438,1875.2734 1002.1406,1874.6484 Q1001.1563,1874.1484 1000.4688,1873.0859 Q999.7813,1872.0078 999.7813,1870.7266 L999.7813,1869.5703 Q999.7813,1868.2422 1000.3906,1867.1016 Q1001.0156,1865.9453 1002.1094,1865.3359 Q1003.2031,1864.7109 1004.4375,1864.7109 Q1005.1719,1864.7109 1005.8125,1864.8828 Q1006.4688,1865.0391 1007.0156,1865.3984 Z " fill="#000000"/><text fill="#000000" font-family="sans-serif" font-size="12" font-style="italic" lengthAdjust="spacing" textLength="61" x="1022.75" y="1865.8633">&#171;interface&#187;</text><text fill="#000000" font-family="sans-serif" font-size="14" lengthAdjust="spacing" textLength="54" x="1026.25" y="1881.0801">Property</text><line style="stroke:#181818;stroke-width:0.5;" x1="948" x2="1126" y1="1889.0469" y2="1889.0469"/><text fill="#000000" font-family="sans-serif" font-size="14" lengthAdjust="spacing" textLength="85" x="953" y="1905.7207">-double area;</text><text fill="#000000" font-family="sans-serif" font-size="14" lengthAdjust="spacing" textLength="109" x="953" y="1921.3613">-double distance;</text><text fill="#000000" font-family="sans-serif" font-size="14" lengthAdjust="spacing" textLength="116" x="953" y="1937.002">-Location location;</text><text fill="#000000" font-family="sans-serif" font-size="14" lengthAdjust="spacing" textLength="168" x="953" y="1952.6426">-List&lt;String&gt; photographs;</text><line style="stroke:#181818;stroke-width:0.5;" x1="948" x2="1126" y1="1959.6094" y2="1959.6094"/></g><!--class Land--><g id="elem_Land"><rect codeLine="65" fill="#F1F1F1" height="48" id="Land" rx="2.5" ry="2.5" style="stroke:#181818;stroke-width:0.5;" width="64" x="1381" y="2091"/><ellipse cx="1396" cy="2107" fill="#ADD1B2" rx="11" ry="11" style="stroke:#181818;stroke-width:1.0;"/><path d="M1398.7656,2102.875 Q1398.9219,2102.6563 1399.1094,2102.5469 Q1399.2969,2102.4375 1399.5156,2102.4375 Q1399.8906,2102.4375 1400.125,2102.7031 Q1400.3594,2102.9531 1400.3594,2103.5625 L1400.3594,2105.0156 Q1400.3594,2105.625 1400.125,2105.8906 Q1399.8906,2106.1563 1399.5156,2106.1563 Q1399.1719,2106.1563 1398.9688,2105.9531 Q1398.7656,2105.7656 1398.6563,2105.25 Q1398.6094,2104.8906 1398.4219,2104.7031 Q1398.0938,2104.3281 1397.4844,2104.1094 Q1396.875,2103.8906 1396.25,2103.8906 Q1395.4844,2103.8906 1394.8438,2104.2188 Q1394.2188,2104.5469 1393.7188,2105.2969 Q1393.2344,2106.0469 1393.2344,2107.0781 L1393.2344,2108.1719 Q1393.2344,2109.4063 1394.125,2110.2344 Q1395.0156,2111.0469 1396.6094,2111.0469 Q1397.5469,2111.0469 1398.2031,2110.7969 Q1398.5938,2110.6406 1399.0156,2110.2031 Q1399.2813,2109.9375 1399.4219,2109.8594 Q1399.5781,2109.7813 1399.7813,2109.7813 Q1400.1094,2109.7813 1400.3594,2110.0469 Q1400.625,2110.2969 1400.625,2110.6406 Q1400.625,2110.9844 1400.2813,2111.3906 Q1399.7813,2111.9688 1398.9844,2112.2969 Q1397.9063,2112.75 1396.6094,2112.75 Q1395.0938,2112.75 1393.8906,2112.125 Q1392.9063,2111.625 1392.2188,2110.5625 Q1391.5313,2109.4844 1391.5313,2108.2031 L1391.5313,2107.0469 Q1391.5313,2105.7188 1392.1406,2104.5781 Q1392.7656,2103.4219 1393.8594,2102.8125 Q1394.9531,2102.1875 1396.1875,2102.1875 Q1396.9219,2102.1875 1397.5625,2102.3594 Q1398.2188,2102.5156 1398.7656,2102.875 Z " fill="#000000"/><text fill="#000000" font-family="sans-serif" font-size="14" lengthAdjust="spacing" textLength="32" x="1410" y="2111.8535">Land</text><line style="stroke:#181818;stroke-width:0.5;" x1="1382" x2="1444" y1="2123" y2="2123"/><line style="stroke:#181818;stroke-width:0.5;" x1="1382" x2="1444" y1="2131" y2="2131"/></g><!--class Apartment--><g id="elem_Apartment"><rect codeLine="67" fill="#F1F1F1" height="110.5625" id="Apartment" rx="2.5" ry="2.5" style="stroke:#181818;stroke-width:0.5;" width="185" x="570.5" y="2059.5"/><ellipse cx="626.25" cy="2075.5" fill="#ADD1B2" rx="11" ry="11" style="stroke:#181818;stroke-width:1.0;"/><path d="M629.0156,2071.375 Q629.1719,2071.1563 629.3594,2071.0469 Q629.5469,2070.9375 629.7656,2070.9375 Q630.1406,2070.9375 630.375,2071.2031 Q630.6094,2071.4531 630.6094,2072.0625 L630.6094,2073.5156 Q630.6094,2074.125 630.375,2074.3906 Q630.1406,2074.6563 629.7656,2074.6563 Q629.4219,2074.6563 629.2188,2074.4531 Q629.0156,2074.2656 628.9063,2073.75 Q628.8594,2073.3906 628.6719,2073.2031 Q628.3438,2072.8281 627.7344,2072.6094 Q627.125,2072.3906 626.5,2072.3906 Q625.7344,2072.3906 625.0938,2072.7188 Q624.4688,2073.0469 623.9688,2073.7969 Q623.4844,2074.5469 623.4844,2075.5781 L623.4844,2076.6719 Q623.4844,2077.9063 624.375,2078.7344 Q625.2656,2079.5469 626.8594,2079.5469 Q627.7969,2079.5469 628.4531,2079.2969 Q628.8438,2079.1406 629.2656,2078.7031 Q629.5313,2078.4375 629.6719,2078.3594 Q629.8281,2078.2813 630.0313,2078.2813 Q630.3594,2078.2813 630.6094,2078.5469 Q630.875,2078.7969 630.875,2079.1406 Q630.875,2079.4844 630.5313,2079.8906 Q630.0313,2080.4688 629.2344,2080.7969 Q628.1563,2081.25 626.8594,2081.25 Q625.3438,2081.25 624.1406,2080.625 Q623.1563,2080.125 622.4688,2079.0625 Q621.7813,2077.9844 621.7813,2076.7031 L621.7813,2075.5469 Q621.7813,2074.2188 622.3906,2073.0781 Q623.0156,2071.9219 624.1094,2071.3125 Q625.2031,2070.6875 626.4375,2070.6875 Q627.1719,2070.6875 627.8125,2070.8594 Q628.4688,2071.0156 629.0156,2071.375 Z " fill="#000000"/><text fill="#000000" font-family="sans-serif" font-size="14" lengthAdjust="spacing" textLength="65" x="646.75" y="2080.3535">Apartment</text><line style="stroke:#181818;stroke-width:0.5;" x1="571.5" x2="754.5" y1="2091.5" y2="2091.5"/><text fill="#000000" font-family="sans-serif" font-size="14" lengthAdjust="spacing" textLength="140" x="576.5" y="2108.1738">-int: numberBedrooms</text><text fill="#000000" font-family="sans-serif" font-size="14" lengthAdjust="spacing" textLength="124" x="576.5" y="2123.8145">-int: numberParking</text><text fill="#000000" font-family="sans-serif" font-size="14" lengthAdjust="spacing" textLength="144" x="576.5" y="2139.4551">-int: numberBathrooms</text><text fill="#000000" font-family="sans-serif" font-size="14" lengthAdjust="spacing" textLength="173" x="576.5" y="2155.0957">-String: availableEquipment</text><line style="stroke:#181818;stroke-width:0.5;" x1="571.5" x2="754.5" y1="2162.0625" y2="2162.0625"/></g><!--class House--><g id="elem_House"><rect codeLine="73" fill="#F1F1F1" height="141.8438" id="House" rx="2.5" ry="2.5" style="stroke:#181818;stroke-width:0.5;" width="185" x="1160.5" y="2044"/><ellipse cx="1228.75" cy="2060" fill="#ADD1B2" rx="11" ry="11" style="stroke:#181818;stroke-width:1.0;"/><path d="M1231.5156,2055.875 Q1231.6719,2055.6563 1231.8594,2055.5469 Q1232.0469,2055.4375 1232.2656,2055.4375 Q1232.6406,2055.4375 1232.875,2055.7031 Q1233.1094,2055.9531 1233.1094,2056.5625 L1233.1094,2058.0156 Q1233.1094,2058.625 1232.875,2058.8906 Q1232.6406,2059.1563 1232.2656,2059.1563 Q1231.9219,2059.1563 1231.7188,2058.9531 Q1231.5156,2058.7656 1231.4063,2058.25 Q1231.3594,2057.8906 1231.1719,2057.7031 Q1230.8438,2057.3281 1230.2344,2057.1094 Q1229.625,2056.8906 1229,2056.8906 Q1228.2344,2056.8906 1227.5938,2057.2188 Q1226.9688,2057.5469 1226.4688,2058.2969 Q1225.9844,2059.0469 1225.9844,2060.0781 L1225.9844,2061.1719 Q1225.9844,2062.4063 1226.875,2063.2344 Q1227.7656,2064.0469 1229.3594,2064.0469 Q1230.2969,2064.0469 1230.9531,2063.7969 Q1231.3438,2063.6406 1231.7656,2063.2031 Q1232.0313,2062.9375 1232.1719,2062.8594 Q1232.3281,2062.7813 1232.5313,2062.7813 Q1232.8594,2062.7813 1233.1094,2063.0469 Q1233.375,2063.2969 1233.375,2063.6406 Q1233.375,2063.9844 1233.0313,2064.3906 Q1232.5313,2064.9688 1231.7344,2065.2969 Q1230.6563,2065.75 1229.3594,2065.75 Q1227.8438,2065.75 1226.6406,2065.125 Q1225.6563,2064.625 1224.9688,2063.5625 Q1224.2813,2062.4844 1224.2813,2061.2031 L1224.2813,2060.0469 Q1224.2813,2058.7188 1224.8906,2057.5781 Q1225.5156,2056.4219 1226.6094,2055.8125 Q1227.7031,2055.1875 1228.9375,2055.1875 Q1229.6719,2055.1875 1230.3125,2055.3594 Q1230.9688,2055.5156 1231.5156,2055.875 Z " fill="#000000"/><text fill="#000000" font-family="sans-serif" font-size="14" lengthAdjust="spacing" textLength="40" x="1249.25" y="2064.8535">House</text><line style="stroke:#181818;stroke-width:0.5;" x1="1161.5" x2="1344.5" y1="2076" y2="2076"/><text fill="#000000" font-family="sans-serif" font-size="14" lengthAdjust="spacing" textLength="140" x="1166.5" y="2092.6738">-int: numberBedrooms</text><text fill="#000000" font-family="sans-serif" font-size="14" lengthAdjust="spacing" textLength="124" x="1166.5" y="2108.3145">-int: numberParking</text><text fill="#000000" font-family="sans-serif" font-size="14" lengthAdjust="spacing" textLength="144" x="1166.5" y="2123.9551">-int: numberBathrooms</text><text fill="#000000" font-family="sans-serif" font-size="14" lengthAdjust="spacing" textLength="173" x="1166.5" y="2139.5957">-String: availableEquipment</text><text fill="#000000" font-family="sans-serif" font-size="14" lengthAdjust="spacing" textLength="126" x="1166.5" y="2155.2363">-boolean: basement</text><text fill="#000000" font-family="sans-serif" font-size="14" lengthAdjust="spacing" textLength="146" x="1166.5" y="2170.877">-boolean: habitableLoft</text><line style="stroke:#181818;stroke-width:0.5;" x1="1161.5" x2="1344.5" y1="2177.8438" y2="2177.8438"/></g><!--class SunExposureType--><g id="elem_SunExposureType"><rect codeLine="81" fill="#F1F1F1" height="70.6875" id="SunExposureType" rx="2.5" ry="2.5" style="stroke:#181818;stroke-width:0.5;" width="217" x="1144.5" y="2402"/><ellipse cx="1190.75" cy="2421.5234" fill="#ADD1B2" rx="11" ry="11" style="stroke:#181818;stroke-width:1.0;"/><path d="M1193.5156,2417.3984 Q1193.6719,2417.1797 1193.8594,2417.0703 Q1194.0469,2416.9609 1194.2656,2416.9609 Q1194.6406,2416.9609 1194.875,2417.2266 Q1195.1094,2417.4766 1195.1094,2418.0859 L1195.1094,2419.5391 Q1195.1094,2420.1484 1194.875,2420.4141 Q1194.6406,2420.6797 1194.2656,2420.6797 Q1193.9219,2420.6797 1193.7188,2420.4766 Q1193.5156,2420.2891 1193.4063,2419.7734 Q1193.3594,2419.4141 1193.1719,2419.2266 Q1192.8438,2418.8516 1192.2344,2418.6328 Q1191.625,2418.4141 1191,2418.4141 Q1190.2344,2418.4141 1189.5938,2418.7422 Q1188.9688,2419.0703 1188.4688,2419.8203 Q1187.9844,2420.5703 1187.9844,2421.6016 L1187.9844,2422.6953 Q1187.9844,2423.9297 1188.875,2424.7578 Q1189.7656,2425.5703 1191.3594,2425.5703 Q1192.2969,2425.5703 1192.9531,2425.3203 Q1193.3438,2425.1641 1193.7656,2424.7266 Q1194.0313,2424.4609 1194.1719,2424.3828 Q1194.3281,2424.3047 1194.5313,2424.3047 Q1194.8594,2424.3047 1195.1094,2424.5703 Q1195.375,2424.8203 1195.375,2425.1641 Q1195.375,2425.5078 1195.0313,2425.9141 Q1194.5313,2426.4922 1193.7344,2426.8203 Q1192.6563,2427.2734 1191.3594,2427.2734 Q1189.8438,2427.2734 1188.6406,2426.6484 Q1187.6563,2426.1484 1186.9688,2425.0859 Q1186.2813,2424.0078 1186.2813,2422.7266 L1186.2813,2421.5703 Q1186.2813,2420.2422 1186.8906,2419.1016 Q1187.5156,2417.9453 1188.6094,2417.3359 Q1189.7031,2416.7109 1190.9375,2416.7109 Q1191.6719,2416.7109 1192.3125,2416.8828 Q1192.9688,2417.0391 1193.5156,2417.3984 Z " fill="#000000"/><text fill="#000000" font-family="sans-serif" font-size="12" font-style="italic" lengthAdjust="spacing" textLength="46" x="1246.25" y="2417.8633">&#171;enum&#187;</text><text fill="#000000" font-family="sans-serif" font-size="14" lengthAdjust="spacing" textLength="116" x="1211.25" y="2433.0801">SunExposureType</text><line style="stroke:#181818;stroke-width:0.5;" x1="1145.5" x2="1360.5" y1="2441.0469" y2="2441.0469"/><text fill="#000000" font-family="sans-serif" font-size="14" lengthAdjust="spacing" textLength="205" x="1150.5" y="2457.7207">-String: North, South, East, West</text><line style="stroke:#181818;stroke-width:0.5;" x1="1145.5" x2="1360.5" y1="2464.6875" y2="2464.6875"/></g><!--class SunExposure--><g id="elem_SunExposure"><rect codeLine="84" fill="#F1F1F1" height="63.6406" id="SunExposure" rx="2.5" ry="2.5" style="stroke:#181818;stroke-width:0.5;" width="166" x="1170" y="2269.5"/><ellipse cx="1207.5" cy="2285.5" fill="#ADD1B2" rx="11" ry="11" style="stroke:#181818;stroke-width:1.0;"/><path d="M1210.2656,2281.375 Q1210.4219,2281.1563 1210.6094,2281.0469 Q1210.7969,2280.9375 1211.0156,2280.9375 Q1211.3906,2280.9375 1211.625,2281.2031 Q1211.8594,2281.4531 1211.8594,2282.0625 L1211.8594,2283.5156 Q1211.8594,2284.125 1211.625,2284.3906 Q1211.3906,2284.6563 1211.0156,2284.6563 Q1210.6719,2284.6563 1210.4688,2284.4531 Q1210.2656,2284.2656 1210.1563,2283.75 Q1210.1094,2283.3906 1209.9219,2283.2031 Q1209.5938,2282.8281 1208.9844,2282.6094 Q1208.375,2282.3906 1207.75,2282.3906 Q1206.9844,2282.3906 1206.3438,2282.7188 Q1205.7188,2283.0469 1205.2188,2283.7969 Q1204.7344,2284.5469 1204.7344,2285.5781 L1204.7344,2286.6719 Q1204.7344,2287.9063 1205.625,2288.7344 Q1206.5156,2289.5469 1208.1094,2289.5469 Q1209.0469,2289.5469 1209.7031,2289.2969 Q1210.0938,2289.1406 1210.5156,2288.7031 Q1210.7813,2288.4375 1210.9219,2288.3594 Q1211.0781,2288.2813 1211.2813,2288.2813 Q1211.6094,2288.2813 1211.8594,2288.5469 Q1212.125,2288.7969 1212.125,2289.1406 Q1212.125,2289.4844 1211.7813,2289.8906 Q1211.2813,2290.4688 1210.4844,2290.7969 Q1209.4063,2291.25 1208.1094,2291.25 Q1206.5938,2291.25 1205.3906,2290.625 Q1204.4063,2290.125 1203.7188,2289.0625 Q1203.0313,2287.9844 1203.0313,2286.7031 L1203.0313,2285.5469 Q1203.0313,2284.2188 1203.6406,2283.0781 Q1204.2656,2281.9219 1205.3594,2281.3125 Q1206.4531,2280.6875 1207.6875,2280.6875 Q1208.4219,2280.6875 1209.0625,2280.8594 Q1209.7188,2281.0156 1210.2656,2281.375 Z " fill="#000000"/><text fill="#000000" font-family="sans-serif" font-size="14" lengthAdjust="spacing" textLength="84" x="1226.5" y="2290.3535">SunExposure</text><line style="stroke:#181818;stroke-width:0.5;" x1="1171" x2="1335" y1="2301.5" y2="2301.5"/><line style="stroke:#181818;stroke-width:0.5;" x1="1171" x2="1335" y1="2309.5" y2="2309.5"/><text fill="#000000" font-family="sans-serif" font-size="14" lengthAdjust="spacing" textLength="154" x="1176" y="2326.1738">+getSunExposureType()</text></g><!--class PropertyType--><g id="elem_PropertyType"><rect codeLine="87" fill="#F1F1F1" height="86.3281" id="PropertyType" rx="2.5" ry="2.5" style="stroke:#181818;stroke-width:0.5;" width="211" x="790.5" y="2072"/><ellipse cx="848.75" cy="2091.5234" fill="#ADD1B2" rx="11" ry="11" style="stroke:#181818;stroke-width:1.0;"/><path d="M851.5156,2087.3984 Q851.6719,2087.1797 851.8594,2087.0703 Q852.0469,2086.9609 852.2656,2086.9609 Q852.6406,2086.9609 852.875,2087.2266 Q853.1094,2087.4766 853.1094,2088.0859 L853.1094,2089.5391 Q853.1094,2090.1484 852.875,2090.4141 Q852.6406,2090.6797 852.2656,2090.6797 Q851.9219,2090.6797 851.7188,2090.4766 Q851.5156,2090.2891 851.4063,2089.7734 Q851.3594,2089.4141 851.1719,2089.2266 Q850.8438,2088.8516 850.2344,2088.6328 Q849.625,2088.4141 849,2088.4141 Q848.2344,2088.4141 847.5938,2088.7422 Q846.9688,2089.0703 846.4688,2089.8203 Q845.9844,2090.5703 845.9844,2091.6016 L845.9844,2092.6953 Q845.9844,2093.9297 846.875,2094.7578 Q847.7656,2095.5703 849.3594,2095.5703 Q850.2969,2095.5703 850.9531,2095.3203 Q851.3438,2095.1641 851.7656,2094.7266 Q852.0313,2094.4609 852.1719,2094.3828 Q852.3281,2094.3047 852.5313,2094.3047 Q852.8594,2094.3047 853.1094,2094.5703 Q853.375,2094.8203 853.375,2095.1641 Q853.375,2095.5078 853.0313,2095.9141 Q852.5313,2096.4922 851.7344,2096.8203 Q850.6563,2097.2734 849.3594,2097.2734 Q847.8438,2097.2734 846.6406,2096.6484 Q845.6563,2096.1484 844.9688,2095.0859 Q844.2813,2094.0078 844.2813,2092.7266 L844.2813,2091.5703 Q844.2813,2090.2422 844.8906,2089.1016 Q845.5156,2087.9453 846.6094,2087.3359 Q847.7031,2086.7109 848.9375,2086.7109 Q849.6719,2086.7109 850.3125,2086.8828 Q850.9688,2087.0391 851.5156,2087.3984 Z " fill="#000000"/><text fill="#000000" font-family="sans-serif" font-size="12" font-style="italic" lengthAdjust="spacing" textLength="46" x="889.25" y="2087.8633">&#171;enum&#187;</text><text fill="#000000" font-family="sans-serif" font-size="14" lengthAdjust="spacing" textLength="86" x="869.25" y="2103.0801">PropertyType</text><line style="stroke:#181818;stroke-width:0.5;" x1="791.5" x2="1000.5" y1="2111.0469" y2="2111.0469"/><text fill="#000000" font-family="sans-serif" font-size="14" lengthAdjust="spacing" textLength="199" x="796.5" y="2127.7207">LAND + APARTMENT + HOUSE</text><text fill="#000000" font-family="sans-serif" font-size="14" lengthAdjust="spacing" textLength="69" x="796.5" y="2143.3613">description</text><line style="stroke:#181818;stroke-width:0.5;" x1="791.5" x2="1000.5" y1="2150.3281" y2="2150.3281"/></g><!--class Location--><g id="elem_Location"><rect codeLine="91" fill="#F1F1F1" height="133.25" id="Location" rx="2.5" ry="2.5" style="stroke:#181818;stroke-width:0.5;" width="89" x="1036.5" y="2048.5"/><ellipse cx="1051.5" cy="2068.0234" fill="#ADD1B2" rx="11" ry="11" style="stroke:#181818;stroke-width:1.0;"/><path d="M1054.2656,2063.8984 Q1054.4219,2063.6797 1054.6094,2063.5703 Q1054.7969,2063.4609 1055.0156,2063.4609 Q1055.3906,2063.4609 1055.625,2063.7266 Q1055.8594,2063.9766 1055.8594,2064.5859 L1055.8594,2066.0391 Q1055.8594,2066.6484 1055.625,2066.9141 Q1055.3906,2067.1797 1055.0156,2067.1797 Q1054.6719,2067.1797 1054.4688,2066.9766 Q1054.2656,2066.7891 1054.1563,2066.2734 Q1054.1094,2065.9141 1053.9219,2065.7266 Q1053.5938,2065.3516 1052.9844,2065.1328 Q1052.375,2064.9141 1051.75,2064.9141 Q1050.9844,2064.9141 1050.3438,2065.2422 Q1049.7188,2065.5703 1049.2188,2066.3203 Q1048.7344,2067.0703 1048.7344,2068.1016 L1048.7344,2069.1953 Q1048.7344,2070.4297 1049.625,2071.2578 Q1050.5156,2072.0703 1052.1094,2072.0703 Q1053.0469,2072.0703 1053.7031,2071.8203 Q1054.0938,2071.6641 1054.5156,2071.2266 Q1054.7813,2070.9609 1054.9219,2070.8828 Q1055.0781,2070.8047 1055.2813,2070.8047 Q1055.6094,2070.8047 1055.8594,2071.0703 Q1056.125,2071.3203 1056.125,2071.6641 Q1056.125,2072.0078 1055.7813,2072.4141 Q1055.2813,2072.9922 1054.4844,2073.3203 Q1053.4063,2073.7734 1052.1094,2073.7734 Q1050.5938,2073.7734 1049.3906,2073.1484 Q1048.4063,2072.6484 1047.7188,2071.5859 Q1047.0313,2070.5078 1047.0313,2069.2266 L1047.0313,2068.0703 Q1047.0313,2066.7422 1047.6406,2065.6016 Q1048.2656,2064.4453 1049.3594,2063.8359 Q1050.4531,2063.2109 1051.6875,2063.2109 Q1052.4219,2063.2109 1053.0625,2063.3828 Q1053.7188,2063.5391 1054.2656,2063.8984 Z " fill="#000000"/><text fill="#000000" font-family="sans-serif" font-size="12" font-style="italic" lengthAdjust="spacing" textLength="61" x="1063.5" y="2064.3633">&#171;interface&#187;</text><text fill="#000000" font-family="sans-serif" font-size="14" lengthAdjust="spacing" textLength="54" x="1067" y="2079.5801">Location</text><line style="stroke:#181818;stroke-width:0.5;" x1="1037.5" x2="1124.5" y1="2087.5469" y2="2087.5469"/><text fill="#000000" font-family="sans-serif" font-size="14" lengthAdjust="spacing" textLength="41" x="1042.5" y="2104.2207">-street</text><text fill="#000000" font-family="sans-serif" font-size="14" lengthAdjust="spacing" textLength="56" x="1042.5" y="2119.8613">-zipCode</text><text fill="#000000" font-family="sans-serif" font-size="14" lengthAdjust="spacing" textLength="54" x="1042.5" y="2135.502">-stateUS</text><text fill="#000000" font-family="sans-serif" font-size="14" lengthAdjust="spacing" textLength="26" x="1042.5" y="2151.1426">-city</text><text fill="#000000" font-family="sans-serif" font-size="14" lengthAdjust="spacing" textLength="46" x="1042.5" y="2166.7832">-district</text><line style="stroke:#181818;stroke-width:0.5;" x1="1037.5" x2="1124.5" y1="2173.75" y2="2173.75"/></g><!--class RequestRepository--><g id="elem_RequestRepository"><rect codeLine="99" fill="#F1F1F1" height="63.6406" id="RequestRepository" rx="2.5" ry="2.5" style="stroke:#181818;stroke-width:0.5;" width="153" x="388.5" y="1241"/><ellipse cx="403.5" cy="1257" fill="#ADD1B2" rx="11" ry="11" style="stroke:#181818;stroke-width:1.0;"/><path d="M406.2656,1252.875 Q406.4219,1252.6563 406.6094,1252.5469 Q406.7969,1252.4375 407.0156,1252.4375 Q407.3906,1252.4375 407.625,1252.7031 Q407.8594,1252.9531 407.8594,1253.5625 L407.8594,1255.0156 Q407.8594,1255.625 407.625,1255.8906 Q407.3906,1256.1563 407.0156,1256.1563 Q406.6719,1256.1563 406.4688,1255.9531 Q406.2656,1255.7656 406.1563,1255.25 Q406.1094,1254.8906 405.9219,1254.7031 Q405.5938,1254.3281 404.9844,1254.1094 Q404.375,1253.8906 403.75,1253.8906 Q402.9844,1253.8906 402.3438,1254.2188 Q401.7188,1254.5469 401.2188,1255.2969 Q400.7344,1256.0469 400.7344,1257.0781 L400.7344,1258.1719 Q400.7344,1259.4063 401.625,1260.2344 Q402.5156,1261.0469 404.1094,1261.0469 Q405.0469,1261.0469 405.7031,1260.7969 Q406.0938,1260.6406 406.5156,1260.2031 Q406.7813,1259.9375 406.9219,1259.8594 Q407.0781,1259.7813 407.2813,1259.7813 Q407.6094,1259.7813 407.8594,1260.0469 Q408.125,1260.2969 408.125,1260.6406 Q408.125,1260.9844 407.7813,1261.3906 Q407.2813,1261.9688 406.4844,1262.2969 Q405.4063,1262.75 404.1094,1262.75 Q402.5938,1262.75 401.3906,1262.125 Q400.4063,1261.625 399.7188,1260.5625 Q399.0313,1259.4844 399.0313,1258.2031 L399.0313,1257.0469 Q399.0313,1255.7188 399.6406,1254.5781 Q400.2656,1253.4219 401.3594,1252.8125 Q402.4531,1252.1875 403.6875,1252.1875 Q404.4219,1252.1875 405.0625,1252.3594 Q405.7188,1252.5156 406.2656,1252.875 Z " fill="#000000"/><text fill="#000000" font-family="sans-serif" font-size="14" lengthAdjust="spacing" textLength="121" x="417.5" y="1261.8535">RequestRepository</text><line style="stroke:#181818;stroke-width:0.5;" x1="389.5" x2="540.5" y1="1273" y2="1273"/><line style="stroke:#181818;stroke-width:0.5;" x1="389.5" x2="540.5" y1="1281" y2="1281"/><text fill="#000000" font-family="sans-serif" font-size="14" lengthAdjust="spacing" textLength="113" x="394.5" y="1297.6738">+getRequestList()</text></g><!--class Request--><g id="elem_Request"><rect codeLine="102" fill="#F1F1F1" height="63.6406" id="Request" rx="2.5" ry="2.5" style="stroke:#181818;stroke-width:0.5;" width="85" x="461.5" y="1877"/><ellipse cx="476.5" cy="1893" fill="#ADD1B2" rx="11" ry="11" style="stroke:#181818;stroke-width:1.0;"/><path d="M479.2656,1888.875 Q479.4219,1888.6563 479.6094,1888.5469 Q479.7969,1888.4375 480.0156,1888.4375 Q480.3906,1888.4375 480.625,1888.7031 Q480.8594,1888.9531 480.8594,1889.5625 L480.8594,1891.0156 Q480.8594,1891.625 480.625,1891.8906 Q480.3906,1892.1563 480.0156,1892.1563 Q479.6719,1892.1563 479.4688,1891.9531 Q479.2656,1891.7656 479.1563,1891.25 Q479.1094,1890.8906 478.9219,1890.7031 Q478.5938,1890.3281 477.9844,1890.1094 Q477.375,1889.8906 476.75,1889.8906 Q475.9844,1889.8906 475.3438,1890.2188 Q474.7188,1890.5469 474.2188,1891.2969 Q473.7344,1892.0469 473.7344,1893.0781 L473.7344,1894.1719 Q473.7344,1895.4063 474.625,1896.2344 Q475.5156,1897.0469 477.1094,1897.0469 Q478.0469,1897.0469 478.7031,1896.7969 Q479.0938,1896.6406 479.5156,1896.2031 Q479.7813,1895.9375 479.9219,1895.8594 Q480.0781,1895.7813 480.2813,1895.7813 Q480.6094,1895.7813 480.8594,1896.0469 Q481.125,1896.2969 481.125,1896.6406 Q481.125,1896.9844 480.7813,1897.3906 Q480.2813,1897.9688 479.4844,1898.2969 Q478.4063,1898.75 477.1094,1898.75 Q475.5938,1898.75 474.3906,1898.125 Q473.4063,1897.625 472.7188,1896.5625 Q472.0313,1895.4844 472.0313,1894.2031 L472.0313,1893.0469 Q472.0313,1891.7188 472.6406,1890.5781 Q473.2656,1889.4219 474.3594,1888.8125 Q475.4531,1888.1875 476.6875,1888.1875 Q477.4219,1888.1875 478.0625,1888.3594 Q478.7188,1888.5156 479.2656,1888.875 Z " fill="#000000"/><text fill="#000000" font-family="sans-serif" font-size="14" lengthAdjust="spacing" textLength="53" x="490.5" y="1897.8535">Request</text><line style="stroke:#181818;stroke-width:0.5;" x1="462.5" x2="545.5" y1="1909" y2="1909"/><text fill="#000000" font-family="sans-serif" font-size="14" lengthAdjust="spacing" textLength="71" x="467.5" y="1925.6738">-Date date;</text><line style="stroke:#181818;stroke-width:0.5;" x1="462.5" x2="545.5" y1="1932.6406" y2="1932.6406"/></g><!--class BusinessType--><g id="elem_BusinessType"><rect codeLine="108" fill="#F1F1F1" height="86.3281" id="BusinessType" rx="2.5" ry="2.5" style="stroke:#181818;stroke-width:0.5;" width="161" x="374.5" y="2072"/><ellipse cx="407.5" cy="2091.5234" fill="#ADD1B2" rx="11" ry="11" style="stroke:#181818;stroke-width:1.0;"/><path d="M410.2656,2087.3984 Q410.4219,2087.1797 410.6094,2087.0703 Q410.7969,2086.9609 411.0156,2086.9609 Q411.3906,2086.9609 411.625,2087.2266 Q411.8594,2087.4766 411.8594,2088.0859 L411.8594,2089.5391 Q411.8594,2090.1484 411.625,2090.4141 Q411.3906,2090.6797 411.0156,2090.6797 Q410.6719,2090.6797 410.4688,2090.4766 Q410.2656,2090.2891 410.1563,2089.7734 Q410.1094,2089.4141 409.9219,2089.2266 Q409.5938,2088.8516 408.9844,2088.6328 Q408.375,2088.4141 407.75,2088.4141 Q406.9844,2088.4141 406.3438,2088.7422 Q405.7188,2089.0703 405.2188,2089.8203 Q404.7344,2090.5703 404.7344,2091.6016 L404.7344,2092.6953 Q404.7344,2093.9297 405.625,2094.7578 Q406.5156,2095.5703 408.1094,2095.5703 Q409.0469,2095.5703 409.7031,2095.3203 Q410.0938,2095.1641 410.5156,2094.7266 Q410.7813,2094.4609 410.9219,2094.3828 Q411.0781,2094.3047 411.2813,2094.3047 Q411.6094,2094.3047 411.8594,2094.5703 Q412.125,2094.8203 412.125,2095.1641 Q412.125,2095.5078 411.7813,2095.9141 Q411.2813,2096.4922 410.4844,2096.8203 Q409.4063,2097.2734 408.1094,2097.2734 Q406.5938,2097.2734 405.3906,2096.6484 Q404.4063,2096.1484 403.7188,2095.0859 Q403.0313,2094.0078 403.0313,2092.7266 L403.0313,2091.5703 Q403.0313,2090.2422 403.6406,2089.1016 Q404.2656,2087.9453 405.3594,2087.3359 Q406.4531,2086.7109 407.6875,2086.7109 Q408.4219,2086.7109 409.0625,2086.8828 Q409.7188,2087.0391 410.2656,2087.3984 Z " fill="#000000"/><text fill="#000000" font-family="sans-serif" font-size="12" font-style="italic" lengthAdjust="spacing" textLength="46" x="447" y="2087.8633">&#171;enum&#187;</text><text fill="#000000" font-family="sans-serif" font-size="14" lengthAdjust="spacing" textLength="89" x="425.5" y="2103.0801">BusinessType</text><line style="stroke:#181818;stroke-width:0.5;" x1="375.5" x2="534.5" y1="2111.0469" y2="2111.0469"/><text fill="#000000" font-family="sans-serif" font-size="14" lengthAdjust="spacing" textLength="69" x="380.5" y="2127.7207">description</text><line style="stroke:#181818;stroke-width:0.5;" x1="375.5" x2="534.5" y1="2134.6875" y2="2134.6875"/><text fill="#000000" font-family="sans-serif" font-size="14" lengthAdjust="spacing" textLength="149" x="380.5" y="2151.3613">+getBusinessTypeList()</text></g><!--class BusinessTypeRent--><g id="elem_BusinessTypeRent"><rect codeLine="111" fill="#F1F1F1" height="79.2813" id="BusinessTypeRent" rx="2.5" ry="2.5" style="stroke:#181818;stroke-width:0.5;" width="151" x="287.5" y="2262"/><ellipse cx="302.5" cy="2278" fill="#ADD1B2" rx="11" ry="11" style="stroke:#181818;stroke-width:1.0;"/><path d="M305.2656,2273.875 Q305.4219,2273.6563 305.6094,2273.5469 Q305.7969,2273.4375 306.0156,2273.4375 Q306.3906,2273.4375 306.625,2273.7031 Q306.8594,2273.9531 306.8594,2274.5625 L306.8594,2276.0156 Q306.8594,2276.625 306.625,2276.8906 Q306.3906,2277.1563 306.0156,2277.1563 Q305.6719,2277.1563 305.4688,2276.9531 Q305.2656,2276.7656 305.1563,2276.25 Q305.1094,2275.8906 304.9219,2275.7031 Q304.5938,2275.3281 303.9844,2275.1094 Q303.375,2274.8906 302.75,2274.8906 Q301.9844,2274.8906 301.3438,2275.2188 Q300.7188,2275.5469 300.2188,2276.2969 Q299.7344,2277.0469 299.7344,2278.0781 L299.7344,2279.1719 Q299.7344,2280.4063 300.625,2281.2344 Q301.5156,2282.0469 303.1094,2282.0469 Q304.0469,2282.0469 304.7031,2281.7969 Q305.0938,2281.6406 305.5156,2281.2031 Q305.7813,2280.9375 305.9219,2280.8594 Q306.0781,2280.7813 306.2813,2280.7813 Q306.6094,2280.7813 306.8594,2281.0469 Q307.125,2281.2969 307.125,2281.6406 Q307.125,2281.9844 306.7813,2282.3906 Q306.2813,2282.9688 305.4844,2283.2969 Q304.4063,2283.75 303.1094,2283.75 Q301.5938,2283.75 300.3906,2283.125 Q299.4063,2282.625 298.7188,2281.5625 Q298.0313,2280.4844 298.0313,2279.2031 L298.0313,2278.0469 Q298.0313,2276.7188 298.6406,2275.5781 Q299.2656,2274.4219 300.3594,2273.8125 Q301.4531,2273.1875 302.6875,2273.1875 Q303.4219,2273.1875 304.0625,2273.3594 Q304.7188,2273.5156 305.2656,2273.875 Z " fill="#000000"/><text fill="#000000" font-family="sans-serif" font-size="14" lengthAdjust="spacing" textLength="119" x="316.5" y="2282.8535">BusinessTypeRent</text><line style="stroke:#181818;stroke-width:0.5;" x1="288.5" x2="437.5" y1="2294" y2="2294"/><text fill="#000000" font-family="sans-serif" font-size="14" lengthAdjust="spacing" textLength="120" x="293.5" y="2310.6738">-double:rentalPrice</text><text fill="#000000" font-family="sans-serif" font-size="14" lengthAdjust="spacing" textLength="130" x="293.5" y="2326.3145">-int:durationContract</text><line style="stroke:#181818;stroke-width:0.5;" x1="288.5" x2="437.5" y1="2333.2813" y2="2333.2813"/></g><!--class BusinessTypeSale--><g id="elem_BusinessTypeSale"><rect codeLine="115" fill="#F1F1F1" height="63.6406" id="BusinessTypeSale" rx="2.5" ry="2.5" style="stroke:#181818;stroke-width:0.5;" width="149" x="473.5" y="2269.5"/><ellipse cx="488.5" cy="2285.5" fill="#ADD1B2" rx="11" ry="11" style="stroke:#181818;stroke-width:1.0;"/><path d="M491.2656,2281.375 Q491.4219,2281.1563 491.6094,2281.0469 Q491.7969,2280.9375 492.0156,2280.9375 Q492.3906,2280.9375 492.625,2281.2031 Q492.8594,2281.4531 492.8594,2282.0625 L492.8594,2283.5156 Q492.8594,2284.125 492.625,2284.3906 Q492.3906,2284.6563 492.0156,2284.6563 Q491.6719,2284.6563 491.4688,2284.4531 Q491.2656,2284.2656 491.1563,2283.75 Q491.1094,2283.3906 490.9219,2283.2031 Q490.5938,2282.8281 489.9844,2282.6094 Q489.375,2282.3906 488.75,2282.3906 Q487.9844,2282.3906 487.3438,2282.7188 Q486.7188,2283.0469 486.2188,2283.7969 Q485.7344,2284.5469 485.7344,2285.5781 L485.7344,2286.6719 Q485.7344,2287.9063 486.625,2288.7344 Q487.5156,2289.5469 489.1094,2289.5469 Q490.0469,2289.5469 490.7031,2289.2969 Q491.0938,2289.1406 491.5156,2288.7031 Q491.7813,2288.4375 491.9219,2288.3594 Q492.0781,2288.2813 492.2813,2288.2813 Q492.6094,2288.2813 492.8594,2288.5469 Q493.125,2288.7969 493.125,2289.1406 Q493.125,2289.4844 492.7813,2289.8906 Q492.2813,2290.4688 491.4844,2290.7969 Q490.4063,2291.25 489.1094,2291.25 Q487.5938,2291.25 486.3906,2290.625 Q485.4063,2290.125 484.7188,2289.0625 Q484.0313,2287.9844 484.0313,2286.7031 L484.0313,2285.5469 Q484.0313,2284.2188 484.6406,2283.0781 Q485.2656,2281.9219 486.3594,2281.3125 Q487.4531,2280.6875 488.6875,2280.6875 Q489.4219,2280.6875 490.0625,2280.8594 Q490.7188,2281.0156 491.2656,2281.375 Z " fill="#000000"/><text fill="#000000" font-family="sans-serif" font-size="14" lengthAdjust="spacing" textLength="117" x="502.5" y="2290.3535">BusinessTypeSale</text><line style="stroke:#181818;stroke-width:0.5;" x1="474.5" x2="621.5" y1="2301.5" y2="2301.5"/><text fill="#000000" font-family="sans-serif" font-size="14" lengthAdjust="spacing" textLength="110" x="479.5" y="2318.1738">-double:salePrice</text><line style="stroke:#181818;stroke-width:0.5;" x1="474.5" x2="621.5" y1="2325.1406" y2="2325.1406"/></g><!--class AdvertisementRepository--><g id="elem_AdvertisementRepository"><rect codeLine="119" fill="#F1F1F1" height="63.6406" id="AdvertisementRepository" rx="2.5" ry="2.5" style="stroke:#181818;stroke-width:0.5;" width="190" x="574" y="944"/><ellipse cx="589" cy="960" fill="#ADD1B2" rx="11" ry="11" style="stroke:#181818;stroke-width:1.0;"/><path d="M591.7656,955.875 Q591.9219,955.6563 592.1094,955.5469 Q592.2969,955.4375 592.5156,955.4375 Q592.8906,955.4375 593.125,955.7031 Q593.3594,955.9531 593.3594,956.5625 L593.3594,958.0156 Q593.3594,958.625 593.125,958.8906 Q592.8906,959.1563 592.5156,959.1563 Q592.1719,959.1563 591.9688,958.9531 Q591.7656,958.7656 591.6563,958.25 Q591.6094,957.8906 591.4219,957.7031 Q591.0938,957.3281 590.4844,957.1094 Q589.875,956.8906 589.25,956.8906 Q588.4844,956.8906 587.8438,957.2188 Q587.2188,957.5469 586.7188,958.2969 Q586.2344,959.0469 586.2344,960.0781 L586.2344,961.1719 Q586.2344,962.4063 587.125,963.2344 Q588.0156,964.0469 589.6094,964.0469 Q590.5469,964.0469 591.2031,963.7969 Q591.5938,963.6406 592.0156,963.2031 Q592.2813,962.9375 592.4219,962.8594 Q592.5781,962.7813 592.7813,962.7813 Q593.1094,962.7813 593.3594,963.0469 Q593.625,963.2969 593.625,963.6406 Q593.625,963.9844 593.2813,964.3906 Q592.7813,964.9688 591.9844,965.2969 Q590.9063,965.75 589.6094,965.75 Q588.0938,965.75 586.8906,965.125 Q585.9063,964.625 585.2188,963.5625 Q584.5313,962.4844 584.5313,961.2031 L584.5313,960.0469 Q584.5313,958.7188 585.1406,957.5781 Q585.7656,956.4219 586.8594,955.8125 Q587.9531,955.1875 589.1875,955.1875 Q589.9219,955.1875 590.5625,955.3594 Q591.2188,955.5156 591.7656,955.875 Z " fill="#000000"/><text fill="#000000" font-family="sans-serif" font-size="14" lengthAdjust="spacing" textLength="158" x="603" y="964.8535">AdvertisementRepository</text><line style="stroke:#181818;stroke-width:0.5;" x1="575" x2="763" y1="976" y2="976"/><line style="stroke:#181818;stroke-width:0.5;" x1="575" x2="763" y1="984" y2="984"/><text fill="#000000" font-family="sans-serif" font-size="14" lengthAdjust="spacing" textLength="150" x="580" y="1000.6738">+getAdvertisementList()</text></g><!--class Advertisement--><g id="elem_Advertisement"><rect codeLine="122" fill="#F1F1F1" height="439.0156" id="Advertisement" rx="2.5" ry="2.5" style="stroke:#181818;stroke-width:0.5;" width="234" x="477" y="1335"/><ellipse cx="544.75" cy="1351" fill="#ADD1B2" rx="11" ry="11" style="stroke:#181818;stroke-width:1.0;"/><path d="M547.5156,1346.875 Q547.6719,1346.6563 547.8594,1346.5469 Q548.0469,1346.4375 548.2656,1346.4375 Q548.6406,1346.4375 548.875,1346.7031 Q549.1094,1346.9531 549.1094,1347.5625 L549.1094,1349.0156 Q549.1094,1349.625 548.875,1349.8906 Q548.6406,1350.1563 548.2656,1350.1563 Q547.9219,1350.1563 547.7188,1349.9531 Q547.5156,1349.7656 547.4063,1349.25 Q547.3594,1348.8906 547.1719,1348.7031 Q546.8438,1348.3281 546.2344,1348.1094 Q545.625,1347.8906 545,1347.8906 Q544.2344,1347.8906 543.5938,1348.2188 Q542.9688,1348.5469 542.4688,1349.2969 Q541.9844,1350.0469 541.9844,1351.0781 L541.9844,1352.1719 Q541.9844,1353.4063 542.875,1354.2344 Q543.7656,1355.0469 545.3594,1355.0469 Q546.2969,1355.0469 546.9531,1354.7969 Q547.3438,1354.6406 547.7656,1354.2031 Q548.0313,1353.9375 548.1719,1353.8594 Q548.3281,1353.7813 548.5313,1353.7813 Q548.8594,1353.7813 549.1094,1354.0469 Q549.375,1354.2969 549.375,1354.6406 Q549.375,1354.9844 549.0313,1355.3906 Q548.5313,1355.9688 547.7344,1356.2969 Q546.6563,1356.75 545.3594,1356.75 Q543.8438,1356.75 542.6406,1356.125 Q541.6563,1355.625 540.9688,1354.5625 Q540.2813,1353.4844 540.2813,1352.2031 L540.2813,1351.0469 Q540.2813,1349.7188 540.8906,1348.5781 Q541.5156,1347.4219 542.6094,1346.8125 Q543.7031,1346.1875 544.9375,1346.1875 Q545.6719,1346.1875 546.3125,1346.3594 Q546.9688,1346.5156 547.5156,1346.875 Z " fill="#000000"/><text fill="#000000" font-family="sans-serif" font-size="14" lengthAdjust="spacing" textLength="90" x="565.25" y="1355.8535">Advertisement</text><line style="stroke:#181818;stroke-width:0.5;" x1="478" x2="710" y1="1367" y2="1367"/><text fill="#000000" font-family="sans-serif" font-size="14" lengthAdjust="spacing" textLength="150" x="483" y="1383.6738">-Request keepRequest;</text><text fill="#000000" font-family="sans-serif" font-size="14" lengthAdjust="spacing" textLength="216" x="483" y="1399.3145">-PropertyType keepPropertyType;</text><text fill="#000000" font-family="sans-serif" font-size="14" lengthAdjust="spacing" textLength="222" x="483" y="1414.9551">-BusinessType keepBusinessType;</text><text fill="#000000" font-family="sans-serif" font-size="14" lengthAdjust="spacing" textLength="152" x="483" y="1430.5957">-Property keepProperty;</text><text fill="#000000" font-family="sans-serif" font-size="14" lengthAdjust="spacing" textLength="85" x="483" y="1446.2363">-double area;</text><text fill="#000000" font-family="sans-serif" font-size="14" lengthAdjust="spacing" textLength="109" x="483" y="1461.877">-double distance;</text><text fill="#000000" font-family="sans-serif" font-size="14" lengthAdjust="spacing" textLength="136" x="483" y="1477.5176">-int numberBedrooms</text><text fill="#000000" font-family="sans-serif" font-size="14" lengthAdjust="spacing" textLength="120" x="483" y="1493.1582">-int numberParking</text><text fill="#000000" font-family="sans-serif" font-size="14" lengthAdjust="spacing" textLength="140" x="483" y="1508.7988">-int numberBathrooms</text><text fill="#000000" font-family="sans-serif" font-size="14" lengthAdjust="spacing" textLength="169" x="483" y="1524.4395">-String availableEquipment</text><text fill="#000000" font-family="sans-serif" font-size="14" lengthAdjust="spacing" textLength="122" x="483" y="1540.0801">-boolean basement</text><text fill="#000000" font-family="sans-serif" font-size="14" lengthAdjust="spacing" textLength="79" x="483" y="1555.7207">-boolean loft</text><text fill="#000000" font-family="sans-serif" font-size="14" lengthAdjust="spacing" textLength="116" x="483" y="1571.3613">-SunExposure sun</text><text fill="#000000" font-family="sans-serif" font-size="14" lengthAdjust="spacing" textLength="82" x="483" y="1587.002">-String street</text><text fill="#000000" font-family="sans-serif" font-size="14" lengthAdjust="spacing" textLength="63" x="483" y="1602.6426">-String zip</text><text fill="#000000" font-family="sans-serif" font-size="14" lengthAdjust="spacing" textLength="77" x="483" y="1618.2832">-String state</text><text fill="#000000" font-family="sans-serif" font-size="14" lengthAdjust="spacing" textLength="67" x="483" y="1633.9238">-String city</text><text fill="#000000" font-family="sans-serif" font-size="14" lengthAdjust="spacing" textLength="87" x="483" y="1649.5645">-String district</text><text fill="#000000" font-family="sans-serif" font-size="14" lengthAdjust="spacing" textLength="164" x="483" y="1665.2051">-List&lt;String&gt; photographs</text><text fill="#000000" font-family="sans-serif" font-size="14" lengthAdjust="spacing" textLength="110" x="483" y="1680.8457">-double salePrice</text><text fill="#000000" font-family="sans-serif" font-size="14" lengthAdjust="spacing" textLength="109" x="483" y="1696.4863">-double rentPrice</text><text fill="#000000" font-family="sans-serif" font-size="14" lengthAdjust="spacing" textLength="152" x="483" y="1712.127">-int duractionOfContract</text><text fill="#000000" font-family="sans-serif" font-size="14" lengthAdjust="spacing" textLength="71" x="483" y="1727.7676">-Date date;</text><text fill="#000000" font-family="sans-serif" font-size="14" lengthAdjust="spacing" textLength="57" x="483" y="1743.4082">-List Visit</text><text fill="#000000" font-family="sans-serif" font-size="14" lengthAdjust="spacing" textLength="63" x="483" y="1759.0488">-List Offer</text><line style="stroke:#181818;stroke-width:0.5;" x1="478" x2="710" y1="1766.0156" y2="1766.0156"/></g><!--class AdvertisementMapper--><g id="elem_AdvertisementMapper"><rect codeLine="149" fill="#F1F1F1" height="79.2813" id="AdvertisementMapper" rx="2.5" ry="2.5" style="stroke:#181818;stroke-width:0.5;" width="289" x="682.5" y="1132"/><ellipse cx="753.75" cy="1148" fill="#ADD1B2" rx="11" ry="11" style="stroke:#181818;stroke-width:1.0;"/><path d="M756.5156,1143.875 Q756.6719,1143.6563 756.8594,1143.5469 Q757.0469,1143.4375 757.2656,1143.4375 Q757.6406,1143.4375 757.875,1143.7031 Q758.1094,1143.9531 758.1094,1144.5625 L758.1094,1146.0156 Q758.1094,1146.625 757.875,1146.8906 Q757.6406,1147.1563 757.2656,1147.1563 Q756.9219,1147.1563 756.7188,1146.9531 Q756.5156,1146.7656 756.4063,1146.25 Q756.3594,1145.8906 756.1719,1145.7031 Q755.8438,1145.3281 755.2344,1145.1094 Q754.625,1144.8906 754,1144.8906 Q753.2344,1144.8906 752.5938,1145.2188 Q751.9688,1145.5469 751.4688,1146.2969 Q750.9844,1147.0469 750.9844,1148.0781 L750.9844,1149.1719 Q750.9844,1150.4063 751.875,1151.2344 Q752.7656,1152.0469 754.3594,1152.0469 Q755.2969,1152.0469 755.9531,1151.7969 Q756.3438,1151.6406 756.7656,1151.2031 Q757.0313,1150.9375 757.1719,1150.8594 Q757.3281,1150.7813 757.5313,1150.7813 Q757.8594,1150.7813 758.1094,1151.0469 Q758.375,1151.2969 758.375,1151.6406 Q758.375,1151.9844 758.0313,1152.3906 Q757.5313,1152.9688 756.7344,1153.2969 Q755.6563,1153.75 754.3594,1153.75 Q752.8438,1153.75 751.6406,1153.125 Q750.6563,1152.625 749.9688,1151.5625 Q749.2813,1150.4844 749.2813,1149.2031 L749.2813,1148.0469 Q749.2813,1146.7188 749.8906,1145.5781 Q750.5156,1144.4219 751.6094,1143.8125 Q752.7031,1143.1875 753.9375,1143.1875 Q754.6719,1143.1875 755.3125,1143.3594 Q755.9688,1143.5156 756.5156,1143.875 Z " fill="#000000"/><text fill="#000000" font-family="sans-serif" font-size="14" lengthAdjust="spacing" textLength="138" x="774.25" y="1152.8535">AdvertisementMapper</text><line style="stroke:#181818;stroke-width:0.5;" x1="683.5" x2="970.5" y1="1164" y2="1164"/><line style="stroke:#181818;stroke-width:0.5;" x1="683.5" x2="970.5" y1="1172" y2="1172"/><text fill="#000000" font-family="sans-serif" font-size="14" lengthAdjust="spacing" textLength="170" x="688.5" y="1188.6738">+toDTO(Advertisement ad)</text><text fill="#000000" font-family="sans-serif" font-size="14" lengthAdjust="spacing" textLength="277" x="688.5" y="1204.3145">+fromDTOtoAD(AdvertisementDTO adDTO)</text></g><!--class AdvertisementDTO--><g id="elem_AdvertisementDTO"><rect codeLine="153" fill="#F1F1F1" height="376.4531" id="AdvertisementDTO" rx="2.5" ry="2.5" style="stroke:#181818;stroke-width:0.5;" width="237" x="746.5" y="1366.5"/><ellipse cx="800.75" cy="1382.5" fill="#ADD1B2" rx="11" ry="11" style="stroke:#181818;stroke-width:1.0;"/><path d="M803.5156,1378.375 Q803.6719,1378.1563 803.8594,1378.0469 Q804.0469,1377.9375 804.2656,1377.9375 Q804.6406,1377.9375 804.875,1378.2031 Q805.1094,1378.4531 805.1094,1379.0625 L805.1094,1380.5156 Q805.1094,1381.125 804.875,1381.3906 Q804.6406,1381.6563 804.2656,1381.6563 Q803.9219,1381.6563 803.7188,1381.4531 Q803.5156,1381.2656 803.4063,1380.75 Q803.3594,1380.3906 803.1719,1380.2031 Q802.8438,1379.8281 802.2344,1379.6094 Q801.625,1379.3906 801,1379.3906 Q800.2344,1379.3906 799.5938,1379.7188 Q798.9688,1380.0469 798.4688,1380.7969 Q797.9844,1381.5469 797.9844,1382.5781 L797.9844,1383.6719 Q797.9844,1384.9063 798.875,1385.7344 Q799.7656,1386.5469 801.3594,1386.5469 Q802.2969,1386.5469 802.9531,1386.2969 Q803.3438,1386.1406 803.7656,1385.7031 Q804.0313,1385.4375 804.1719,1385.3594 Q804.3281,1385.2813 804.5313,1385.2813 Q804.8594,1385.2813 805.1094,1385.5469 Q805.375,1385.7969 805.375,1386.1406 Q805.375,1386.4844 805.0313,1386.8906 Q804.5313,1387.4688 803.7344,1387.7969 Q802.6563,1388.25 801.3594,1388.25 Q799.8438,1388.25 798.6406,1387.625 Q797.6563,1387.125 796.9688,1386.0625 Q796.2813,1384.9844 796.2813,1383.7031 L796.2813,1382.5469 Q796.2813,1381.2188 796.8906,1380.0781 Q797.5156,1378.9219 798.6094,1378.3125 Q799.7031,1377.6875 800.9375,1377.6875 Q801.6719,1377.6875 802.3125,1377.8594 Q802.9688,1378.0156 803.5156,1378.375 Z " fill="#000000"/><text fill="#000000" font-family="sans-serif" font-size="14" lengthAdjust="spacing" textLength="120" x="821.25" y="1387.3535">AdvertisementDTO</text><line style="stroke:#181818;stroke-width:0.5;" x1="747.5" x2="982.5" y1="1398.5" y2="1398.5"/><text fill="#000000" font-family="sans-serif" font-size="14" lengthAdjust="spacing" textLength="120" x="752.5" y="1415.1738">+double keepArea;</text><text fill="#000000" font-family="sans-serif" font-size="14" lengthAdjust="spacing" textLength="143" x="752.5" y="1430.8145">+double keepdistance;</text><text fill="#000000" font-family="sans-serif" font-size="14" lengthAdjust="spacing" textLength="219" x="752.5" y="1446.4551">+PropertyType keepPropertyType;</text><text fill="#000000" font-family="sans-serif" font-size="14" lengthAdjust="spacing" textLength="225" x="752.5" y="1462.0957">+BusinessType keepBusinessType;</text><text fill="#000000" font-family="sans-serif" font-size="14" lengthAdjust="spacing" textLength="175" x="752.5" y="1477.7363">+int keepNumberBedrooms;</text><text fill="#000000" font-family="sans-serif" font-size="14" lengthAdjust="spacing" textLength="131" x="752.5" y="1493.377">+int numberParking ;</text><text fill="#000000" font-family="sans-serif" font-size="14" lengthAdjust="spacing" textLength="151" x="752.5" y="1509.0176">+int numberBathrooms ;</text><text fill="#000000" font-family="sans-serif" font-size="14" lengthAdjust="spacing" textLength="180" x="752.5" y="1524.6582">+String availableEquipment ;</text><text fill="#000000" font-family="sans-serif" font-size="14" lengthAdjust="spacing" textLength="134" x="752.5" y="1540.2988">+Boolean basement ;</text><text fill="#000000" font-family="sans-serif" font-size="14" lengthAdjust="spacing" textLength="91" x="752.5" y="1555.9395">+Boolean loft ;</text><text fill="#000000" font-family="sans-serif" font-size="14" lengthAdjust="spacing" textLength="127" x="752.5" y="1571.5801">+SunExposure sun ;</text><text fill="#000000" font-family="sans-serif" font-size="14" lengthAdjust="spacing" textLength="122" x="752.5" y="1587.2207">+String keepStreet;</text><text fill="#000000" font-family="sans-serif" font-size="14" lengthAdjust="spacing" textLength="103" x="752.5" y="1602.8613">+String keepZip;</text><text fill="#000000" font-family="sans-serif" font-size="14" lengthAdjust="spacing" textLength="117" x="752.5" y="1618.502">+String keepState;</text><text fill="#000000" font-family="sans-serif" font-size="14" lengthAdjust="spacing" textLength="108" x="752.5" y="1634.1426">+String keepCity;</text><text fill="#000000" font-family="sans-serif" font-size="14" lengthAdjust="spacing" textLength="127" x="752.5" y="1649.7832">+String keepDistrict;</text><text fill="#000000" font-family="sans-serif" font-size="14" lengthAdjust="spacing" textLength="203" x="752.5" y="1665.4238">+List&lt;String&gt; keepPhotographs;</text><text fill="#000000" font-family="sans-serif" font-size="14" lengthAdjust="spacing" textLength="150" x="752.5" y="1681.0645">+double keepSalePrice;</text><text fill="#000000" font-family="sans-serif" font-size="14" lengthAdjust="spacing" textLength="152" x="752.5" y="1696.7051">+double keepRentPrice;</text><text fill="#000000" font-family="sans-serif" font-size="14" lengthAdjust="spacing" textLength="185" x="752.5" y="1712.3457">+int keepDurationOfContract;</text><text fill="#000000" font-family="sans-serif" font-size="14" lengthAdjust="spacing" textLength="107" x="752.5" y="1727.9863">+Date keepDate;</text><line style="stroke:#181818;stroke-width:0.5;" x1="747.5" x2="982.5" y1="1734.9531" y2="1734.9531"/></g><!--class AdvertisementCollections--><g id="elem_AdvertisementCollections"><rect codeLine="177" fill="#F1F1F1" height="141.8438" id="AdvertisementCollections" rx="2.5" ry="2.5" style="stroke:#181818;stroke-width:0.5;" width="421" x="643.5" y="569"/><ellipse cx="770.25" cy="585" fill="#ADD1B2" rx="11" ry="11" style="stroke:#181818;stroke-width:1.0;"/><path d="M773.0156,580.875 Q773.1719,580.6563 773.3594,580.5469 Q773.5469,580.4375 773.7656,580.4375 Q774.1406,580.4375 774.375,580.7031 Q774.6094,580.9531 774.6094,581.5625 L774.6094,583.0156 Q774.6094,583.625 774.375,583.8906 Q774.1406,584.1563 773.7656,584.1563 Q773.4219,584.1563 773.2188,583.9531 Q773.0156,583.7656 772.9063,583.25 Q772.8594,582.8906 772.6719,582.7031 Q772.3438,582.3281 771.7344,582.1094 Q771.125,581.8906 770.5,581.8906 Q769.7344,581.8906 769.0938,582.2188 Q768.4688,582.5469 767.9688,583.2969 Q767.4844,584.0469 767.4844,585.0781 L767.4844,586.1719 Q767.4844,587.4063 768.375,588.2344 Q769.2656,589.0469 770.8594,589.0469 Q771.7969,589.0469 772.4531,588.7969 Q772.8438,588.6406 773.2656,588.2031 Q773.5313,587.9375 773.6719,587.8594 Q773.8281,587.7813 774.0313,587.7813 Q774.3594,587.7813 774.6094,588.0469 Q774.875,588.2969 774.875,588.6406 Q774.875,588.9844 774.5313,589.3906 Q774.0313,589.9688 773.2344,590.2969 Q772.1563,590.75 770.8594,590.75 Q769.3438,590.75 768.1406,590.125 Q767.1563,589.625 766.4688,588.5625 Q765.7813,587.4844 765.7813,586.2031 L765.7813,585.0469 Q765.7813,583.7188 766.3906,582.5781 Q767.0156,581.4219 768.1094,580.8125 Q769.2031,580.1875 770.4375,580.1875 Q771.1719,580.1875 771.8125,580.3594 Q772.4688,580.5156 773.0156,580.875 Z " fill="#000000"/><text fill="#000000" font-family="sans-serif" font-size="14" lengthAdjust="spacing" textLength="159" x="790.75" y="589.8535">AdvertisementCollections</text><line style="stroke:#181818;stroke-width:0.5;" x1="644.5" x2="1063.5" y1="601" y2="601"/><line style="stroke:#181818;stroke-width:0.5;" x1="644.5" x2="1063.5" y1="609" y2="609"/><text fill="#000000" font-family="sans-serif" font-size="14" lengthAdjust="spacing" textLength="204" x="649.5" y="625.6738">+getAdvertismentDTOListSorted</text><text fill="#000000" font-family="sans-serif" font-size="14" lengthAdjust="spacing" textLength="275" x="649.5" y="641.3145">(propertyTypeChoice,businessTypeChoice)</text><text fill="#000000" font-family="sans-serif" font-size="14" lengthAdjust="spacing" textLength="409" x="649.5" y="656.9551">+createNewAdvertAllInformationList(adsList, propertyTypeChoice</text><text fill="#000000" font-family="sans-serif" font-size="14" lengthAdjust="spacing" textLength="145" x="649.5" y="672.5957">, businessTypeChoice)</text><text fill="#000000" font-family="sans-serif" font-size="14" lengthAdjust="spacing" textLength="224" x="649.5" y="688.2363">+sortAdVisitListByDate(adsVisitList)</text><text fill="#000000" font-family="sans-serif" font-size="14" lengthAdjust="spacing" textLength="276" x="649.5" y="703.877">+getVerifyVisitTimeFree(adchoiceVisit, visit)</text></g><!--class Offer--><g id="elem_Offer"><rect codeLine="184" fill="#F1F1F1" height="79.2813" id="Offer" rx="2.5" ry="2.5" style="stroke:#181818;stroke-width:0.5;" width="64" x="208" y="1869.5"/><ellipse cx="223" cy="1885.5" fill="#ADD1B2" rx="11" ry="11" style="stroke:#181818;stroke-width:1.0;"/><path d="M225.7656,1881.375 Q225.9219,1881.1563 226.1094,1881.0469 Q226.2969,1880.9375 226.5156,1880.9375 Q226.8906,1880.9375 227.125,1881.2031 Q227.3594,1881.4531 227.3594,1882.0625 L227.3594,1883.5156 Q227.3594,1884.125 227.125,1884.3906 Q226.8906,1884.6563 226.5156,1884.6563 Q226.1719,1884.6563 225.9688,1884.4531 Q225.7656,1884.2656 225.6563,1883.75 Q225.6094,1883.3906 225.4219,1883.2031 Q225.0938,1882.8281 224.4844,1882.6094 Q223.875,1882.3906 223.25,1882.3906 Q222.4844,1882.3906 221.8438,1882.7188 Q221.2188,1883.0469 220.7188,1883.7969 Q220.2344,1884.5469 220.2344,1885.5781 L220.2344,1886.6719 Q220.2344,1887.9063 221.125,1888.7344 Q222.0156,1889.5469 223.6094,1889.5469 Q224.5469,1889.5469 225.2031,1889.2969 Q225.5938,1889.1406 226.0156,1888.7031 Q226.2813,1888.4375 226.4219,1888.3594 Q226.5781,1888.2813 226.7813,1888.2813 Q227.1094,1888.2813 227.3594,1888.5469 Q227.625,1888.7969 227.625,1889.1406 Q227.625,1889.4844 227.2813,1889.8906 Q226.7813,1890.4688 225.9844,1890.7969 Q224.9063,1891.25 223.6094,1891.25 Q222.0938,1891.25 220.8906,1890.625 Q219.9063,1890.125 219.2188,1889.0625 Q218.5313,1887.9844 218.5313,1886.7031 L218.5313,1885.5469 Q218.5313,1884.2188 219.1406,1883.0781 Q219.7656,1881.9219 220.8594,1881.3125 Q221.9531,1880.6875 223.1875,1880.6875 Q223.9219,1880.6875 224.5625,1880.8594 Q225.2188,1881.0156 225.7656,1881.375 Z " fill="#000000"/><text fill="#000000" font-family="sans-serif" font-size="14" lengthAdjust="spacing" textLength="32" x="237" y="1890.3535">Offer</text><line style="stroke:#181818;stroke-width:0.5;" x1="209" x2="271" y1="1901.5" y2="1901.5"/><text fill="#000000" font-family="sans-serif" font-size="14" lengthAdjust="spacing" textLength="38" x="214" y="1918.1738">status</text><text fill="#000000" font-family="sans-serif" font-size="14" lengthAdjust="spacing" textLength="34" x="214" y="1933.8145">value</text><line style="stroke:#181818;stroke-width:0.5;" x1="209" x2="271" y1="1940.7813" y2="1940.7813"/></g><!--class SunExposureRepository--><g id="elem_SunExposureRepository"><rect fill="#F1F1F1" height="48" id="SunExposureRepository" rx="2.5" ry="2.5" style="stroke:#181818;stroke-width:0.5;" width="184" x="59" y="952"/><ellipse cx="74" cy="968" fill="#ADD1B2" rx="11" ry="11" style="stroke:#181818;stroke-width:1.0;"/><path d="M76.7656,963.875 Q76.9219,963.6563 77.1094,963.5469 Q77.2969,963.4375 77.5156,963.4375 Q77.8906,963.4375 78.125,963.7031 Q78.3594,963.9531 78.3594,964.5625 L78.3594,966.0156 Q78.3594,966.625 78.125,966.8906 Q77.8906,967.1563 77.5156,967.1563 Q77.1719,967.1563 76.9688,966.9531 Q76.7656,966.7656 76.6563,966.25 Q76.6094,965.8906 76.4219,965.7031 Q76.0938,965.3281 75.4844,965.1094 Q74.875,964.8906 74.25,964.8906 Q73.4844,964.8906 72.8438,965.2188 Q72.2188,965.5469 71.7188,966.2969 Q71.2344,967.0469 71.2344,968.0781 L71.2344,969.1719 Q71.2344,970.4063 72.125,971.2344 Q73.0156,972.0469 74.6094,972.0469 Q75.5469,972.0469 76.2031,971.7969 Q76.5938,971.6406 77.0156,971.2031 Q77.2813,970.9375 77.4219,970.8594 Q77.5781,970.7813 77.7813,970.7813 Q78.1094,970.7813 78.3594,971.0469 Q78.625,971.2969 78.625,971.6406 Q78.625,971.9844 78.2813,972.3906 Q77.7813,972.9688 76.9844,973.2969 Q75.9063,973.75 74.6094,973.75 Q73.0938,973.75 71.8906,973.125 Q70.9063,972.625 70.2188,971.5625 Q69.5313,970.4844 69.5313,969.2031 L69.5313,968.0469 Q69.5313,966.7188 70.1406,965.5781 Q70.7656,964.4219 71.8594,963.8125 Q72.9531,963.1875 74.1875,963.1875 Q74.9219,963.1875 75.5625,963.3594 Q76.2188,963.5156 76.7656,963.875 Z " fill="#000000"/><text fill="#000000" font-family="sans-serif" font-size="14" lengthAdjust="spacing" textLength="152" x="88" y="972.8535">SunExposureRepository</text><line style="stroke:#181818;stroke-width:0.5;" x1="60" x2="242" y1="984" y2="984"/><line style="stroke:#181818;stroke-width:0.5;" x1="60" x2="242" y1="992" y2="992"/></g><!--class BusinessTypeRepository--><g id="elem_BusinessTypeRepository"><rect fill="#F1F1F1" height="48" id="BusinessTypeRepository" rx="2.5" ry="2.5" style="stroke:#181818;stroke-width:0.5;" width="189" x="278.5" y="952"/><ellipse cx="293.5" cy="968" fill="#ADD1B2" rx="11" ry="11" style="stroke:#181818;stroke-width:1.0;"/><path d="M296.2656,963.875 Q296.4219,963.6563 296.6094,963.5469 Q296.7969,963.4375 297.0156,963.4375 Q297.3906,963.4375 297.625,963.7031 Q297.8594,963.9531 297.8594,964.5625 L297.8594,966.0156 Q297.8594,966.625 297.625,966.8906 Q297.3906,967.1563 297.0156,967.1563 Q296.6719,967.1563 296.4688,966.9531 Q296.2656,966.7656 296.1563,966.25 Q296.1094,965.8906 295.9219,965.7031 Q295.5938,965.3281 294.9844,965.1094 Q294.375,964.8906 293.75,964.8906 Q292.9844,964.8906 292.3438,965.2188 Q291.7188,965.5469 291.2188,966.2969 Q290.7344,967.0469 290.7344,968.0781 L290.7344,969.1719 Q290.7344,970.4063 291.625,971.2344 Q292.5156,972.0469 294.1094,972.0469 Q295.0469,972.0469 295.7031,971.7969 Q296.0938,971.6406 296.5156,971.2031 Q296.7813,970.9375 296.9219,970.8594 Q297.0781,970.7813 297.2813,970.7813 Q297.6094,970.7813 297.8594,971.0469 Q298.125,971.2969 298.125,971.6406 Q298.125,971.9844 297.7813,972.3906 Q297.2813,972.9688 296.4844,973.2969 Q295.4063,973.75 294.1094,973.75 Q292.5938,973.75 291.3906,973.125 Q290.4063,972.625 289.7188,971.5625 Q289.0313,970.4844 289.0313,969.2031 L289.0313,968.0469 Q289.0313,966.7188 289.6406,965.5781 Q290.2656,964.4219 291.3594,963.8125 Q292.4531,963.1875 293.6875,963.1875 Q294.4219,963.1875 295.0625,963.3594 Q295.7188,963.5156 296.2656,963.875 Z " fill="#000000"/><text fill="#000000" font-family="sans-serif" font-size="14" lengthAdjust="spacing" textLength="157" x="307.5" y="972.8535">BusinessTypeRepository</text><line style="stroke:#181818;stroke-width:0.5;" x1="279.5" x2="466.5" y1="984" y2="984"/><line style="stroke:#181818;stroke-width:0.5;" x1="279.5" x2="466.5" y1="992" y2="992"/></g><!--class PersonRepository--><g id="elem_PersonRepository"><rect fill="#F1F1F1" height="48" id="PersonRepository" rx="2.5" ry="2.5" style="stroke:#181818;stroke-width:0.5;" width="145" x="297.5" y="428.5"/><ellipse cx="312.5" cy="444.5" fill="#ADD1B2" rx="11" ry="11" style="stroke:#181818;stroke-width:1.0;"/><path d="M315.2656,440.375 Q315.4219,440.1563 315.6094,440.0469 Q315.7969,439.9375 316.0156,439.9375 Q316.3906,439.9375 316.625,440.2031 Q316.8594,440.4531 316.8594,441.0625 L316.8594,442.5156 Q316.8594,443.125 316.625,443.3906 Q316.3906,443.6563 316.0156,443.6563 Q315.6719,443.6563 315.4688,443.4531 Q315.2656,443.2656 315.1563,442.75 Q315.1094,442.3906 314.9219,442.2031 Q314.5938,441.8281 313.9844,441.6094 Q313.375,441.3906 312.75,441.3906 Q311.9844,441.3906 311.3438,441.7188 Q310.7188,442.0469 310.2188,442.7969 Q309.7344,443.5469 309.7344,444.5781 L309.7344,445.6719 Q309.7344,446.9063 310.625,447.7344 Q311.5156,448.5469 313.1094,448.5469 Q314.0469,448.5469 314.7031,448.2969 Q315.0938,448.1406 315.5156,447.7031 Q315.7813,447.4375 315.9219,447.3594 Q316.0781,447.2813 316.2813,447.2813 Q316.6094,447.2813 316.8594,447.5469 Q317.125,447.7969 317.125,448.1406 Q317.125,448.4844 316.7813,448.8906 Q316.2813,449.4688 315.4844,449.7969 Q314.4063,450.25 313.1094,450.25 Q311.5938,450.25 310.3906,449.625 Q309.4063,449.125 308.7188,448.0625 Q308.0313,446.9844 308.0313,445.7031 L308.0313,444.5469 Q308.0313,443.2188 308.6406,442.0781 Q309.2656,440.9219 310.3594,440.3125 Q311.4531,439.6875 312.6875,439.6875 Q313.4219,439.6875 314.0625,439.8594 Q314.7188,440.0156 315.2656,440.375 Z " fill="#000000"/><text fill="#000000" font-family="sans-serif" font-size="14" lengthAdjust="spacing" textLength="113" x="326.5" y="449.3535">PersonRepository</text><line style="stroke:#181818;stroke-width:0.5;" x1="298.5" x2="441.5" y1="460.5" y2="460.5"/><line style="stroke:#181818;stroke-width:0.5;" x1="298.5" x2="441.5" y1="468.5" y2="468.5"/></g><!--class Person--><g id="elem_Person"><rect fill="#F1F1F1" height="48" id="Person" rx="2.5" ry="2.5" style="stroke:#181818;stroke-width:0.5;" width="77" x="30.5" y="428.5"/><ellipse cx="45.5" cy="444.5" fill="#ADD1B2" rx="11" ry="11" style="stroke:#181818;stroke-width:1.0;"/><path d="M48.2656,440.375 Q48.4219,440.1563 48.6094,440.0469 Q48.7969,439.9375 49.0156,439.9375 Q49.3906,439.9375 49.625,440.2031 Q49.8594,440.4531 49.8594,441.0625 L49.8594,442.5156 Q49.8594,443.125 49.625,443.3906 Q49.3906,443.6563 49.0156,443.6563 Q48.6719,443.6563 48.4688,443.4531 Q48.2656,443.2656 48.1563,442.75 Q48.1094,442.3906 47.9219,442.2031 Q47.5938,441.8281 46.9844,441.6094 Q46.375,441.3906 45.75,441.3906 Q44.9844,441.3906 44.3438,441.7188 Q43.7188,442.0469 43.2188,442.7969 Q42.7344,443.5469 42.7344,444.5781 L42.7344,445.6719 Q42.7344,446.9063 43.625,447.7344 Q44.5156,448.5469 46.1094,448.5469 Q47.0469,448.5469 47.7031,448.2969 Q48.0938,448.1406 48.5156,447.7031 Q48.7813,447.4375 48.9219,447.3594 Q49.0781,447.2813 49.2813,447.2813 Q49.6094,447.2813 49.8594,447.5469 Q50.125,447.7969 50.125,448.1406 Q50.125,448.4844 49.7813,448.8906 Q49.2813,449.4688 48.4844,449.7969 Q47.4063,450.25 46.1094,450.25 Q44.5938,450.25 43.3906,449.625 Q42.4063,449.125 41.7188,448.0625 Q41.0313,446.9844 41.0313,445.7031 L41.0313,444.5469 Q41.0313,443.2188 41.6406,442.0781 Q42.2656,440.9219 43.3594,440.3125 Q44.4531,439.6875 45.6875,439.6875 Q46.4219,439.6875 47.0625,439.8594 Q47.7188,440.0156 48.2656,440.375 Z " fill="#000000"/><text fill="#000000" font-family="sans-serif" font-size="14" lengthAdjust="spacing" textLength="45" x="59.5" y="449.3535">Person</text><line style="stroke:#181818;stroke-width:0.5;" x1="31.5" x2="106.5" y1="460.5" y2="460.5"/><line style="stroke:#181818;stroke-width:0.5;" x1="31.5" x2="106.5" y1="468.5" y2="468.5"/></g><!--link ScheduleVisitUI to ScheduleVisitController--><g id="link_ScheduleVisitUI_ScheduleVisitController"><path codeLine="189" d="M739,305.11 C739,323.93 739,342.74 739,360.29 " fill="none" id="ScheduleVisitUI-to-ScheduleVisitController" style="stroke:#181818;stroke-width:1.0;stroke-dasharray:7.0,7.0;"/><polygon fill="#181818" points="739,365.7,743,356.7,739,360.7,735,356.7,739,365.7" style="stroke:#181818;stroke-width:1.0;"/></g><!--link ScheduleVisitController to Repositories--><g id="link_ScheduleVisitController_Repositories"><path codeLine="191" d="M603.87,539.26 C577.06,556.27 557,569 557,569 C557,569 542.78,664.58 532.22,735.61 " fill="none" id="ScheduleVisitController-to-Repositories" style="stroke:#181818;stroke-width:1.0;stroke-dasharray:7.0,7.0;"/><polygon fill="#181818" points="531.46,740.68,536.7297,732.3595,532.1891,735.7334,528.8152,731.1929,531.46,740.68" style="stroke:#181818;stroke-width:1.0;"/><text fill="#000000" font-family="sans-serif" font-size="13" lengthAdjust="spacing" textLength="67" x="558" y="644.7686">repositories</text></g><!--link Repositories to PropertyRepository--><g id="link_Repositories_PropertyRepository"><path codeLine="193" d="M624.53,864.96 C697.4,901.54 782,944 782,944 C782,944 790.25,995.56 796.15,1032.45 " fill="none" id="Repositories-to-PropertyRepository" style="stroke:#181818;stroke-width:1.0;"/><polygon fill="#181818" points="797,1037.78,799.5332,1028.2625,796.2128,1032.8424,791.633,1029.522,797,1037.78" style="stroke:#181818;stroke-width:1.0;"/></g><!--link Repositories to SunExposureRepository--><g id="link_Repositories_SunExposureRepository"><path codeLine="194" d="M417.44,858.34 C349.76,887.98 263.9,925.57 208.23,949.94 " fill="none" id="Repositories-to-SunExposureRepository" style="stroke:#181818;stroke-width:1.0;"/><polygon fill="#181818" points="203.6,951.97,213.4488,952.0128,208.1778,949.9592,210.2314,944.6882,203.6,951.97" style="stroke:#181818;stroke-width:1.0;"/></g><!--link Repositories to BusinessTypeRepository--><g id="link_Repositories_BusinessTypeRepository"><path codeLine="195" d="M456.95,883.11 C436.03,906.01 414.03,930.09 397.8,947.85 " fill="none" id="Repositories-to-BusinessTypeRepository" style="stroke:#181818;stroke-width:1.0;"/><polygon fill="#181818" points="394.22,951.77,403.2384,947.8116,397.5876,948.0742,397.3251,942.4234,394.22,951.77" style="stroke:#181818;stroke-width:1.0;"/></g><!--link Repositories to RequestRepository--><g id="link_Repositories_RequestRepository"><path codeLine="196" d="M512.43,883.21 C500.35,982.29 478.72,1159.53 469.44,1235.64 " fill="none" id="Repositories-to-RequestRepository" style="stroke:#181818;stroke-width:1.0;"/><polygon fill="#181818" points="468.79,1240.94,473.8425,1232.4859,469.3908,1235.9762,465.9004,1231.5246,468.79,1240.94" style="stroke:#181818;stroke-width:1.0;"/></g><!--reverse link PersonRepository to Repositories--><g id="link_PersonRepository_Repositories"><path codeLine="197" d="M381.83,481.5 C405.22,536.87 458,661.84 491.42,740.97 " fill="none" id="PersonRepository-backto-Repositories" style="stroke:#181818;stroke-width:1.0;"/><polygon fill="#181818" points="379.79,476.68,379.596,486.5269,381.7303,481.2882,386.9691,483.4225,379.79,476.68" style="stroke:#181818;stroke-width:1.0;"/></g><!--link Repositories to AdvertisementRepository--><g id="link_Repositories_AdvertisementRepository"><path codeLine="198" d="M585.05,883.11 C603.07,902.83 621.88,923.42 637.12,940.1 " fill="none" id="Repositories-to-AdvertisementRepository" style="stroke:#181818;stroke-width:1.0;"/><polygon fill="#181818" points="640.51,943.82,637.3869,934.4794,637.1353,940.1307,631.484,939.879,640.51,943.82" style="stroke:#181818;stroke-width:1.0;"/></g><!--link PropertyRepository to Property--><g id="link_PropertyRepository_Property"><path codeLine="200" d="M879.14,1096.16 C930.65,1112.97 989,1132 989,1132 C989,1132 1021.65,1659.9 1033.1,1844.89 " fill="none" id="PropertyRepository-to-Property" style="stroke:#181818;stroke-width:1.0;"/><polygon fill="#181818" points="1033.41,1849.99,1036.8359,1840.7562,1033.0954,1844.9999,1028.8517,1841.2595,1033.41,1849.99" style="stroke:#181818;stroke-width:1.0;"/><text fill="#000000" font-family="sans-serif" font-size="13" lengthAdjust="spacing" textLength="5" x="1027.6297" y="1839.3596">*</text></g><!--link Property to PropertyType--><g id="link_Property_PropertyType"><path codeLine="201" d="M996.78,1968.19 C974.98,1999.73 948.41,2038.17 928.03,2067.66 " fill="none" id="Property-to-PropertyType" style="stroke:#181818;stroke-width:1.0;"/><polygon fill="#181818" points="925.07,2071.95,933.477,2066.8195,927.9123,2067.8365,926.8954,2062.2718,925.07,2071.95" style="stroke:#181818;stroke-width:1.0;"/><text fill="#000000" font-family="sans-serif" font-size="13" lengthAdjust="spacing" textLength="30" x="975" y="2010.7686">owns</text><text fill="#000000" font-family="sans-serif" font-size="13" lengthAdjust="spacing" textLength="7" x="984.9981" y="1987.2481">1</text><text fill="#000000" font-family="sans-serif" font-size="13" lengthAdjust="spacing" textLength="7" x="922.4648" y="2061.133">1</text></g><!--link Property to Location--><g id="link_Property_Location"><path codeLine="202" d="M1049.55,1968.19 C1054.58,1991.49 1060.42,2018.57 1065.69,2043.02 " fill="none" id="Property-to-Location" style="stroke:#181818;stroke-width:1.0;"/><polygon fill="#181818" points="1066.81,2048.2,1068.8162,2038.5576,1065.7526,2043.3131,1060.9971,2040.2495,1066.81,2048.2" style="stroke:#181818;stroke-width:1.0;"/><text fill="#000000" font-family="sans-serif" font-size="13" lengthAdjust="spacing" textLength="30" x="1060" y="2010.7686">owns</text><text fill="#000000" font-family="sans-serif" font-size="13" lengthAdjust="spacing" textLength="7" x="1043.5398" y="1987.2481">1</text><text fill="#000000" font-family="sans-serif" font-size="13" lengthAdjust="spacing" textLength="7" x="1057.8752" y="2037.9116">1</text></g><!--reverse link Property to Land--><g id="link_Property_Land"><path codeLine="203" d="M1145.92,1954.77 C1240.7,1993.73 1363,2044 1363,2044 C1363,2044 1381.81,2070.33 1396.35,2090.69 " fill="none" id="Property-backto-Land" style="stroke:#181818;stroke-width:1.0;"/><polygon fill="none" points="1143.21,1961.23,1127.38,1947.15,1148.54,1948.28,1143.21,1961.23" style="stroke:#181818;stroke-width:1.0;"/></g><!--reverse link Property to Apartment--><g id="link_Property_Apartment"><path codeLine="204" d="M928.63,1965 C855.78,2001.98 773,2044 773,2044 C773,2044 762.92,2050.42 748.86,2059.36 " fill="none" id="Property-backto-Apartment" style="stroke:#181818;stroke-width:1.0;"/><polygon fill="none" points="925.88,1958.55,946.88,1955.74,932.22,1971.03,925.88,1958.55" style="stroke:#181818;stroke-width:1.0;"/></g><!--reverse link Property to House--><g id="link_Property_House"><path codeLine="205" d="M1113.33,1982.09 C1134.55,2002.13 1157.56,2023.86 1178.66,2043.79 " fill="none" id="Property-backto-House" style="stroke:#181818;stroke-width:1.0;"/><polygon fill="none" points="1108.34,1987.01,1098.61,1968.19,1117.95,1976.83,1108.34,1987.01" style="stroke:#181818;stroke-width:1.0;"/></g><!--reverse link House to SunExposure--><g id="link_House_SunExposure"><path codeLine="206" d="M1253,2191.1 C1253,2218.46 1253,2247.91 1253,2269.35 " fill="none" id="House-backto-SunExposure" style="stroke:#181818;stroke-width:1.0;"/><polygon fill="#181818" points="1253,2186.01,1249,2195.01,1253,2191.01,1257,2195.01,1253,2186.01" style="stroke:#181818;stroke-width:1.0;"/></g><!--link SunExposure to SunExposureType--><g id="link_SunExposure_SunExposureType"><path codeLine="207" d="M1253,2333.58 C1253,2352.4 1253,2376.58 1253,2396.77 " fill="none" id="SunExposure-to-SunExposureType" style="stroke:#181818;stroke-width:1.0;"/><polygon fill="#181818" points="1253,2401.82,1257,2392.82,1253,2396.82,1249,2392.82,1253,2401.82" style="stroke:#181818;stroke-width:1.0;"/><text fill="#000000" font-family="sans-serif" font-size="13" lengthAdjust="spacing" textLength="5" x="1247.5078" y="2391.2682">*</text></g><!--link RequestRepository to Request--><g id="link_RequestRepository_Request"><path codeLine="209" d="M462.44,1305.21 C461.21,1320.22 460,1335 460,1335 C460,1335 446,1804 446,1804 C446,1804 446,1820 446,1820 C446,1820 464.51,1848.09 480.62,1872.53 " fill="none" id="RequestRepository-to-Request" style="stroke:#181818;stroke-width:1.0;"/><polygon fill="#181818" points="483.39,1876.73,481.7876,1867.0124,480.643,1872.5522,475.1031,1871.4076,483.39,1876.73" style="stroke:#181818;stroke-width:1.0;"/><text fill="#000000" font-family="sans-serif" font-size="13" lengthAdjust="spacing" textLength="5" x="473.3347" y="1866.0048">*</text></g><!--link Request to BusinessType--><g id="link_Request_BusinessType"><path codeLine="210" d="M496.45,1941.43 C488.41,1974.91 475.59,2028.28 466.33,2066.81 " fill="none" id="Request-to-BusinessType" style="stroke:#181818;stroke-width:1.0;"/><polygon fill="#181818" points="465.11,2071.91,471.1086,2064.0987,466.2823,2067.0494,463.3316,2062.223,465.11,2071.91" style="stroke:#181818;stroke-width:1.0;"/><text fill="#000000" font-family="sans-serif" font-size="13" lengthAdjust="spacing" textLength="72" x="483" y="2010.7686">is classified:</text><text fill="#000000" font-family="sans-serif" font-size="13" lengthAdjust="spacing" textLength="5" x="489.6598" y="1960.3006">*</text><text fill="#000000" font-family="sans-serif" font-size="13" lengthAdjust="spacing" textLength="7" x="459.2048" y="2061.3986">1</text></g><!--link Request to Property--><g id="link_Request_Property"><path codeLine="211" d="M546.72,1909 C631.91,1909 824.78,1909 941.62,1909 " fill="none" id="Request-to-Property" style="stroke:#181818;stroke-width:1.0;"/><polygon fill="#181818" points="946.78,1909,937.78,1905,941.78,1909,937.78,1913,946.78,1909" style="stroke:#181818;stroke-width:1.0;"/><text fill="#000000" font-family="sans-serif" font-size="13" lengthAdjust="spacing" textLength="45" x="724.25" y="1902.7686">include:</text><text fill="#000000" font-family="sans-serif" font-size="13" lengthAdjust="spacing" textLength="7" x="554.3752" y="1905.6823">1</text><text fill="#000000" font-family="sans-serif" font-size="13" lengthAdjust="spacing" textLength="7" x="932.0188" y="1906.2267">1</text></g><!--link BusinessType to BusinessTypeRent--><g id="link_BusinessType_BusinessTypeRent"><path codeLine="212" d="M433.89,2158.33 C419.14,2187.92 399.5,2227.31 384.63,2257.13 " fill="none" id="BusinessType-to-BusinessTypeRent" style="stroke:#181818;stroke-width:1.0;"/><polygon fill="#181818" points="382.28,2261.83,389.8746,2255.5593,384.5103,2257.355,382.7146,2251.9907,382.28,2261.83" style="stroke:#181818;stroke-width:1.0;"/><text fill="#000000" font-family="sans-serif" font-size="13" lengthAdjust="spacing" textLength="43" x="404" y="2228.7686">can be:</text></g><!--link BusinessType to BusinessTypeSale--><g id="link_BusinessType_BusinessTypeSale"><path codeLine="213" d="M476.34,2158.33 C492.52,2190.44 514.53,2234.1 529.87,2264.54 " fill="none" id="BusinessType-to-BusinessTypeSale" style="stroke:#181818;stroke-width:1.0;"/><polygon fill="#181818" points="532.28,2269.3,531.7951,2259.4631,530.0268,2264.8365,524.6535,2263.0681,532.28,2269.3" style="stroke:#181818;stroke-width:1.0;"/><text fill="#000000" font-family="sans-serif" font-size="13" lengthAdjust="spacing" textLength="43" x="513" y="2228.7686">can be:</text></g><!--link AdvertisementRepository to Advertisement--><g id="link_AdvertisementRepository_Advertisement"><path codeLine="215" d="M664.91,1008.4 C657.01,1069.18 638.99,1207.67 623.1,1329.85 " fill="none" id="AdvertisementRepository-to-Advertisement" style="stroke:#181818;stroke-width:1.0;"/><polygon fill="#181818" points="622.44,1334.92,627.5642,1326.5092,623.083,1329.9615,619.6307,1325.4803,622.44,1334.92" style="stroke:#181818;stroke-width:1.0;"/><text fill="#000000" font-family="sans-serif" font-size="13" lengthAdjust="spacing" textLength="5" x="618.3722" y="1324.555">*</text></g><!--link AdvertisementRepository to AdvertisementMapper--><g id="link_AdvertisementRepository_AdvertisementMapper"><path codeLine="216" d="M678.74,1008.22 C690.29,1045.24 708,1102 708,1102 C708,1102 730.21,1114.79 755.44,1129.31 " fill="none" id="AdvertisementRepository-to-AdvertisementMapper" style="stroke:#181818;stroke-width:1.0;stroke-dasharray:7.0,7.0;"/><polygon fill="#181818" points="759.85,1131.85,754.0457,1123.8933,755.5167,1129.3555,750.0545,1130.8265,759.85,1131.85" style="stroke:#181818;stroke-width:1.0;"/><text fill="#000000" font-family="sans-serif" font-size="13" lengthAdjust="spacing" textLength="5" x="742.4436" y="1121.3306">*</text></g><!--link AdvertisementMapper to AdvertisementDTO--><g id="link_AdvertisementMapper_AdvertisementDTO"><path codeLine="217" d="M830.85,1211.13 C834.45,1247.21 840.11,1303.93 845.79,1360.9 " fill="none" id="AdvertisementMapper-to-AdvertisementDTO" style="stroke:#181818;stroke-width:1.0;stroke-dasharray:7.0,7.0;"/><polygon fill="#181818" points="846.3,1366.06,849.4059,1356.7137,845.8138,1361.0837,841.4438,1357.4916,846.3,1366.06" style="stroke:#181818;stroke-width:1.0;"/></g><!--link AdvertisementMapper to Advertisement--><g id="link_AdvertisementMapper_Advertisement"><path codeLine="218" d="M803.38,1211.13 C781.73,1246.53 747.94,1301.79 713.77,1357.66 " fill="none" id="AdvertisementMapper-to-Advertisement" style="stroke:#181818;stroke-width:1.0;stroke-dasharray:7.0,7.0;"/><polygon fill="#181818" points="711.1,1362.02,719.21,1356.4317,713.7101,1357.7554,712.3865,1352.2555,711.1,1362.02" style="stroke:#181818;stroke-width:1.0;"/></g><!--link ScheduleVisitController to AdvertisementCollections--><g id="link_ScheduleVisitController_AdvertisementCollections"><path codeLine="220" d="M792.12,539.19 C797.34,547.6 802.6,556.09 807.74,564.38 " fill="none" id="ScheduleVisitController-to-AdvertisementCollections" style="stroke:#181818;stroke-width:1.0;stroke-dasharray:7.0,7.0;"/><polygon fill="#181818" points="810.58,568.96,809.2405,559.2027,807.9467,564.7096,802.4398,563.4159,810.58,568.96" style="stroke:#181818;stroke-width:1.0;"/></g><!--link AdvertisementCollections to AdvertisementMapper--><g id="link_AdvertisementCollections_AdvertisementMapper"><path codeLine="221" d="M858.59,711.06 C866.05,825.03 880,1038 880,1038 C880,1038 880,1102 880,1102 C880,1102 870.75,1113.95 859.98,1127.88 " fill="none" id="AdvertisementCollections-to-AdvertisementMapper" style="stroke:#181818;stroke-width:1.0;stroke-dasharray:7.0,7.0;"/><polygon fill="#181818" points="856.91,1131.85,865.5777,1127.1733,859.9668,1127.8933,859.2469,1122.2824,856.91,1131.85" style="stroke:#181818;stroke-width:1.0;"/></g><!--link Advertisement to Request--><g id="link_Advertisement_Request"><path codeLine="223" d="M554.31,1774.23 C549.36,1801.47 546,1820 546,1820 C546,1820 532.81,1847.63 521.22,1871.92 " fill="none" id="Advertisement-to-Request" style="stroke:#181818;stroke-width:1.0;"/><polygon fill="#181818" points="518.93,1876.73,526.4195,1870.3341,521.0858,1872.2186,519.2013,1866.8849,518.93,1876.73" style="stroke:#181818;stroke-width:1.0;"/><text fill="#000000" font-family="sans-serif" font-size="13" lengthAdjust="spacing" textLength="45" x="549" y="1816.7686">include:</text><text fill="#000000" font-family="sans-serif" font-size="13" lengthAdjust="spacing" textLength="7" x="545.8928" y="1793.4465">1</text><text fill="#000000" font-family="sans-serif" font-size="13" lengthAdjust="spacing" textLength="7" x="514.4303" y="1866.0048">1</text></g><!--reverse link Person to PersonRepository--><g id="link_Person_PersonRepository"><path codeLine="225" d="M112.52,452.5 C139.61,452.5 169.33,452.5 169.33,452.5 C169.33,452.5 269.67,452.5 269.67,452.5 C269.67,452.5 281.66,452.5 297.35,452.5 " fill="none" id="Person-backto-PersonRepository" style="stroke:#181818;stroke-width:1.0;"/><polygon fill="#181818" points="107.5,452.5,116.5,456.5,112.5,452.5,116.5,448.5,107.5,452.5" style="stroke:#181818;stroke-width:1.0;"/><text fill="#000000" font-family="sans-serif" font-size="13" lengthAdjust="spacing" textLength="5" x="115.5719" y="448.942">*</text></g><!--link Advertisement to Offer--><g id="link_Advertisement_Offer"><path codeLine="227" d="M476.61,1672.39 C406.59,1742.12 322.47,1825.88 275.75,1872.41 " fill="none" id="Advertisement-to-Offer" style="stroke:#181818;stroke-width:1.0;"/><polygon fill="#181818" points="272.17,1875.97,281.3695,1872.453,275.7127,1872.4416,275.7241,1866.7848,272.17,1875.97" style="stroke:#181818;stroke-width:1.0;"/><text fill="#000000" font-family="sans-serif" font-size="13" lengthAdjust="spacing" textLength="51" x="336" y="1816.7686">receives:</text><text fill="#000000" font-family="sans-serif" font-size="13" lengthAdjust="spacing" textLength="7" x="461.8655" y="1677.2787">1</text><text fill="#000000" font-family="sans-serif" font-size="13" lengthAdjust="spacing" textLength="5" x="280.1874" y="1864.5096">*</text></g><!--link Person to Offer--><g id="link_Person_Offer"><path codeLine="229" d="M64.91,476.68 C50.95,555.9 6,811 6,811 C6,811 6,811 6,1555.5 C6,1555.5 148.93,1770.81 211.38,1864.88 " fill="none" id="Person-to-Offer" style="stroke:#181818;stroke-width:1.0;"/><polygon fill="#181818" points="214.29,1869.27,212.6259,1859.5627,211.5165,1865.1097,205.9695,1864.0003,214.29,1869.27" style="stroke:#181818;stroke-width:1.0;"/><text fill="#000000" font-family="sans-serif" font-size="13" lengthAdjust="spacing" textLength="43" x="7" y="1074.7686">makes:</text><text fill="#000000" font-family="sans-serif" font-size="13" lengthAdjust="spacing" textLength="5" x="58.3037" y="496.1125">*</text><text fill="#000000" font-family="sans-serif" font-size="13" lengthAdjust="spacing" textLength="7" x="202.087" y="1858.7363">1</text></g><!--SRC=[jLZRRjiu47tNLn1vYRknYysh7HXGuYmQ83VKJXUxAB2W9Sec8eigIINhUlllEqFTI8cgWmB9WsCE3uVap9dXZ4_LCyzoAkcEx4GcegqKEqQqB5ZGpkGqUgORjjJxb1798aspJMe3r9R6ufLd6vBGLDapAS-OtkUCv2BTuo0uzKmAgKLWhOfIgbIejUJhGhERI6HB_fsHtuFWD6M99beGoJTRJMAEn-4Y2mApXYoZBOkBb7tXYkkd6t889kHHYfn9lL_XLi-CvRRWQYjun6O0komKd4Uf1cOBMXZFj9dzYr5fZ-z4fhUsO47tzl2JA0m-Z5zWRwxOZi4CjKVb9btCOlNWma3G8CqzoGj-Lh8p4ab6DNDDSGMdao9DcHnz04ZAbGwp69O8nMnpz6TjAzYp2wxobEvfZUkUUUItz7Z0jAXvmtIjfL9o2tijWHqi_WLrSNb2MwKQWIcLiGYgXXt6v9SLWqrZZkHJeNfU2HWcNEv67kT5PgdPrcnfUUr3y0DO_Syx_Nd3ekM22O_FB1SW5P8p1T7T3cPMx3IWFSbxefdHygrWIbiusPNqs6-1gLy-Arbnaod8EL79FnZRxa8_rdBRNRRSfa2hVFJUjg-CxnYuQ_7wYEqLoTG1k3TsJj-xSt-svvOtcEJTsTY_pC6zPUMx7nqykRY0RCfaGYCsdwCbOr6iuKsYaF5cxH3YqzWIHRSYeXYZ9As-6240BfRml6IRESctGekDfFaM65zlUGjvxT2CGdYMD5hgK2RqAScAtPh9InPB8NRAbJvI2I_PfWEbUbjZovsdXBvGdb8uyVMtWkUelzaHNWl5tdst2LaBaJAQJScQbh5doxPqpJMkk1L9UxHbaLt_2uuh93DFvSK5WqtdSqFjUhDxIDhRCLcA0lzTKwN7v4yWeayBgRpVKUmXG7U_s_1-GSv8-1X-NjrTtw_W-wU7f-LrGE0lPYgIF3VLGUFMcWqEayp9bPQCuVM_y_nAnCo8u1rzMiAtYEizyWju8tcatpL8wgJH2To34z2T2AcaU8y5llqnVBHajbF4OJ1J-j2siOTiwYOW4oDb74ubZ6ZwA4sfWkoC2sdCRruW6cclZYLDMHlRKmN3KiNx6tteTJguETDCTwpcbdM7zaKqTKJrVNQi6ZrQXzeQdDMpDsL3B4PzoSINImPJoKypYIUHGEfDS6Y7l2goLbyJUjKO8j2U12wtmoeIgr4JaCCvlJL4owH6X0ojHNXb9AZf9nwIXgDEI9Nxb0LSFNX84YRzHBYZENW7wQC5riJTuXyVumHQBfZJ8bpuQaVu760PpA3cwYf8Xj1utX6rtZyxHhspOzGxQvgPUuT3zOn38k9A6neP-I2HpEnbXqgE4CbKwd3fPEl58ouDgJh2ltdUWnc_Eh8hhlSTqQ8Y6eeTfXapsXM4O_rbJRcE_7FDEzkeYoexjjp3MKE-ifyiSxgF2bTOpXlYgiEHHkfhDihxtSxQs-YKdUGzUosrXMbwaoL2ximnJGA4RWh_ZqbVvzTiJFng5HmaZ9ikx7AFLnlPZLbLf7vXaYTx8rtn7Vi3F3fokgcnrKILPZ71M3vMc3aAPRw-qBJ01oJe_ZxmCHQlsSVvK8FKMM1rJlL2krIVEkrJ43Y5_mGNJEQUujUFi-Xz3Efl0VpONbtHWHKvdf599R9ZgWPUoo3mD8trcfFVJXeBD3XoSdxI8ivFd4Gr9I1NmzYwfAjmMBYRM_pNcZfewlVUZAcpUr8xjPGMCJXNNjscKxMYrxkTi7tvQhP66Pbp7zkPKy9L-MCOJpYBf-sgSrpb6Wl0MPGMCPi6JXxtimHxXGXpx5lWcCPQU31K9jdtT323A-eewgqe7yx08slMTD_2juD_4jNpmRmQ34tq5bLdTnUWgu0owB3AYPQ_Wcx0aGd-pbd7YvdqwqE0INcOUoB6No0BrUhCuad5aWgqey-8-1y0]--></g></svg>