<?xml version="1.0" encoding="us-ascii" standalone="no"?><svg xmlns="http://www.w3.org/2000/svg" xmlns:xlink="http://www.w3.org/1999/xlink" contentStyleType="text/css" height="971px" preserveAspectRatio="none" style="width:616px;height:971px;background:#FFFFFF;" version="1.1" viewBox="0 0 616 971" width="616px" zoomAndPan="magnify"><defs/><g><rect fill="#FFFFFF" height="781.077" style="stroke:#181818;stroke-width:1.0;" width="10" x="82" y="91.2969"/><rect fill="#FFFFFF" height="759.926" style="stroke:#181818;stroke-width:1.0;" width="10" x="560" y="112.4479"/><rect fill="none" height="308.661" style="stroke:#000000;stroke-width:1.5;" width="600.5" x="10" y="535.5619"/><line style="stroke:#181818;stroke-width:0.5;stroke-dasharray:5.0,5.0;" x1="87" x2="87" y1="81.2969" y2="890.3739"/><line style="stroke:#181818;stroke-width:0.5;stroke-dasharray:5.0,5.0;" x1="564.5" x2="564.5" y1="81.2969" y2="890.3739"/><text fill="#000000" font-family="sans-serif" font-size="14" lengthAdjust="spacing" textLength="128" x="20" y="77.9951">Unregistered User</text><ellipse cx="87" cy="13.5" fill="#E3E3E3" rx="8" ry="8" style="stroke:#181818;stroke-width:0.5;"/><path d="M87,21.5 L87,48.5 M74,29.5 L100,29.5 M87,48.5 L74,63.5 M87,48.5 L100,63.5 " fill="none" style="stroke:#181818;stroke-width:0.5;"/><text fill="#000000" font-family="sans-serif" font-size="14" lengthAdjust="spacing" textLength="128" x="20" y="902.369">Unregistered User</text><ellipse cx="87" cy="914.1708" fill="#E3E3E3" rx="8" ry="8" style="stroke:#181818;stroke-width:0.5;"/><path d="M87,922.1708 L87,949.1708 M74,930.1708 L100,930.1708 M87,949.1708 L74,964.1708 M87,949.1708 L100,964.1708 " fill="none" style="stroke:#181818;stroke-width:0.5;"/><rect fill="#E3E3E3" height="30.2969" rx="2.5" ry="2.5" style="stroke:#181818;stroke-width:0.5;" width="71" x="529.5" y="50"/><text fill="#000000" font-family="sans-serif" font-size="14" lengthAdjust="spacing" textLength="57" x="536.5" y="69.9951">:System</text><rect fill="#E3E3E3" height="30.2969" rx="2.5" ry="2.5" style="stroke:#181818;stroke-width:0.5;" width="71" x="529.5" y="889.3739"/><text fill="#000000" font-family="sans-serif" font-size="14" lengthAdjust="spacing" textLength="57" x="536.5" y="909.369">:System</text><rect fill="#FFFFFF" height="781.077" style="stroke:#181818;stroke-width:1.0;" width="10" x="82" y="91.2969"/><rect fill="#FFFFFF" height="759.926" style="stroke:#181818;stroke-width:1.0;" width="10" x="560" y="112.4479"/><polygon fill="#181818" points="548,108.4479,558,112.4479,548,116.4479,552,112.4479" style="stroke:#181818;stroke-width:1.0;"/><line style="stroke:#181818;stroke-width:1.0;" x1="92" x2="554" y1="112.4479" y2="112.4479"/><text fill="#000000" font-family="sans-serif" font-size="13" font-weight="bold" lengthAdjust="spacing" textLength="9" x="99" y="107.3783">1</text><text fill="#000000" font-family="sans-serif" font-size="13" lengthAdjust="spacing" textLength="218" x="112" y="107.3783">asks to register in the application</text><polygon fill="#181818" points="103,137.5989,93,141.5989,103,145.5989,99,141.5989" style="stroke:#181818;stroke-width:1.0;"/><line style="stroke:#181818;stroke-width:1.0;stroke-dasharray:2.0,2.0;" x1="97" x2="559" y1="141.5989" y2="141.5989"/><text fill="#000000" font-family="sans-serif" font-size="13" font-weight="bold" lengthAdjust="spacing" textLength="9" x="109" y="136.5293">2</text><text fill="#000000" font-family="sans-serif" font-size="13" lengthAdjust="spacing" textLength="93" x="122" y="136.5293">asks for name</text><polygon fill="#181818" points="548,166.7499,558,170.7499,548,174.7499,552,170.7499" style="stroke:#181818;stroke-width:1.0;"/><line style="stroke:#181818;stroke-width:1.0;" x1="92" x2="554" y1="170.7499" y2="170.7499"/><text fill="#000000" font-family="sans-serif" font-size="13" font-weight="bold" lengthAdjust="spacing" textLength="9" x="99" y="165.6803">3</text><text fill="#000000" font-family="sans-serif" font-size="13" lengthAdjust="spacing" textLength="71" x="112" y="165.6803">sends data</text><polygon fill="#181818" points="103,195.9009,93,199.9009,103,203.9009,99,199.9009" style="stroke:#181818;stroke-width:1.0;"/><line style="stroke:#181818;stroke-width:1.0;stroke-dasharray:2.0,2.0;" x1="97" x2="559" y1="199.9009" y2="199.9009"/><text fill="#000000" font-family="sans-serif" font-size="13" font-weight="bold" lengthAdjust="spacing" textLength="9" x="109" y="194.8313">4</text><text fill="#000000" font-family="sans-serif" font-size="13" lengthAdjust="spacing" textLength="98" x="122" y="194.8313">asks for e-mail</text><polygon fill="#181818" points="548,225.0519,558,229.0519,548,233.0519,552,229.0519" style="stroke:#181818;stroke-width:1.0;"/><line style="stroke:#181818;stroke-width:1.0;" x1="92" x2="554" y1="229.0519" y2="229.0519"/><text fill="#000000" font-family="sans-serif" font-size="13" font-weight="bold" lengthAdjust="spacing" textLength="9" x="99" y="223.9823">5</text><text fill="#000000" font-family="sans-serif" font-size="13" lengthAdjust="spacing" textLength="71" x="112" y="223.9823">sends data</text><polygon fill="#181818" points="103,254.2029,93,258.2029,103,262.2029,99,258.2029" style="stroke:#181818;stroke-width:1.0;"/><line style="stroke:#181818;stroke-width:1.0;stroke-dasharray:2.0,2.0;" x1="97" x2="559" y1="258.2029" y2="258.2029"/><text fill="#000000" font-family="sans-serif" font-size="13" font-weight="bold" lengthAdjust="spacing" textLength="9" x="109" y="253.1333">6</text><text fill="#000000" font-family="sans-serif" font-size="13" lengthAdjust="spacing" textLength="118" x="122" y="253.1333">asks for password</text><polygon fill="#181818" points="548,283.3539,558,287.3539,548,291.3539,552,287.3539" style="stroke:#181818;stroke-width:1.0;"/><line style="stroke:#181818;stroke-width:1.0;" x1="92" x2="554" y1="287.3539" y2="287.3539"/><text fill="#000000" font-family="sans-serif" font-size="13" font-weight="bold" lengthAdjust="spacing" textLength="9" x="99" y="282.2843">7</text><text fill="#000000" font-family="sans-serif" font-size="13" lengthAdjust="spacing" textLength="71" x="112" y="282.2843">sends data</text><polygon fill="#181818" points="103,312.5049,93,316.5049,103,320.5049,99,316.5049" style="stroke:#181818;stroke-width:1.0;"/><line style="stroke:#181818;stroke-width:1.0;stroke-dasharray:2.0,2.0;" x1="97" x2="559" y1="316.5049" y2="316.5049"/><text fill="#000000" font-family="sans-serif" font-size="13" font-weight="bold" lengthAdjust="spacing" textLength="9" x="109" y="311.4353">8</text><text fill="#000000" font-family="sans-serif" font-size="13" lengthAdjust="spacing" textLength="151" x="122" y="311.4353">asks for citizenNumber</text><polygon fill="#181818" points="548,341.6559,558,345.6559,548,349.6559,552,345.6559" style="stroke:#181818;stroke-width:1.0;"/><line style="stroke:#181818;stroke-width:1.0;" x1="92" x2="554" y1="345.6559" y2="345.6559"/><text fill="#000000" font-family="sans-serif" font-size="13" font-weight="bold" lengthAdjust="spacing" textLength="9" x="99" y="340.5863">9</text><text fill="#000000" font-family="sans-serif" font-size="13" lengthAdjust="spacing" textLength="71" x="112" y="340.5863">sends data</text><polygon fill="#181818" points="103,370.8069,93,374.8069,103,378.8069,99,374.8069" style="stroke:#181818;stroke-width:1.0;"/><line style="stroke:#181818;stroke-width:1.0;stroke-dasharray:2.0,2.0;" x1="97" x2="559" y1="374.8069" y2="374.8069"/><text fill="#000000" font-family="sans-serif" font-size="13" font-weight="bold" lengthAdjust="spacing" textLength="18" x="109" y="369.7373">10</text><text fill="#000000" font-family="sans-serif" font-size="13" lengthAdjust="spacing" textLength="73" x="131" y="369.7373">asks for tin</text><polygon fill="#181818" points="548,399.9579,558,403.9579,548,407.9579,552,403.9579" style="stroke:#181818;stroke-width:1.0;"/><line style="stroke:#181818;stroke-width:1.0;" x1="92" x2="554" y1="403.9579" y2="403.9579"/><text fill="#000000" font-family="sans-serif" font-size="13" font-weight="bold" lengthAdjust="spacing" textLength="18" x="99" y="398.8883">11</text><text fill="#000000" font-family="sans-serif" font-size="13" lengthAdjust="spacing" textLength="71" x="121" y="398.8883">sends data</text><polygon fill="#181818" points="103,429.1089,93,433.1089,103,437.1089,99,433.1089" style="stroke:#181818;stroke-width:1.0;"/><line style="stroke:#181818;stroke-width:1.0;stroke-dasharray:2.0,2.0;" x1="97" x2="559" y1="433.1089" y2="433.1089"/><text fill="#000000" font-family="sans-serif" font-size="13" font-weight="bold" lengthAdjust="spacing" textLength="18" x="109" y="428.0393">12</text><text fill="#000000" font-family="sans-serif" font-size="13" lengthAdjust="spacing" textLength="150" x="131" y="428.0393">asks for phone number</text><polygon fill="#181818" points="548,458.2599,558,462.2599,548,466.2599,552,462.2599" style="stroke:#181818;stroke-width:1.0;"/><line style="stroke:#181818;stroke-width:1.0;" x1="92" x2="554" y1="462.2599" y2="462.2599"/><text fill="#000000" font-family="sans-serif" font-size="13" font-weight="bold" lengthAdjust="spacing" textLength="18" x="99" y="457.1903">13</text><text fill="#000000" font-family="sans-serif" font-size="13" lengthAdjust="spacing" textLength="71" x="121" y="457.1903">sends data</text><polygon fill="#181818" points="103,487.4109,93,491.4109,103,495.4109,99,491.4109" style="stroke:#181818;stroke-width:1.0;"/><line style="stroke:#181818;stroke-width:1.0;" x1="97" x2="559" y1="491.4109" y2="491.4109"/><text fill="#000000" font-family="sans-serif" font-size="13" font-weight="bold" lengthAdjust="spacing" textLength="18" x="109" y="486.3413">14</text><text fill="#000000" font-family="sans-serif" font-size="13" lengthAdjust="spacing" textLength="422" x="131" y="486.3413">asks if the unregistered user wants to give the new user location</text><polygon fill="#181818" points="548,516.5619,558,520.5619,548,524.5619,552,520.5619" style="stroke:#181818;stroke-width:1.0;"/><line style="stroke:#181818;stroke-width:1.0;" x1="92" x2="554" y1="520.5619" y2="520.5619"/><text fill="#000000" font-family="sans-serif" font-size="13" font-weight="bold" lengthAdjust="spacing" textLength="18" x="99" y="515.4923">15</text><text fill="#000000" font-family="sans-serif" font-size="13" lengthAdjust="spacing" textLength="62" x="121" y="515.4923">true/false</text><path d="M10,535.5619 L84,535.5619 L84,542.7129 L74,552.7129 L10,552.7129 L10,535.5619 " fill="#EEEEEE" style="stroke:#000000;stroke-width:1.5;"/><rect fill="none" height="308.661" style="stroke:#000000;stroke-width:1.5;" width="600.5" x="10" y="535.5619"/><text fill="#000000" font-family="sans-serif" font-size="13" font-weight="bold" lengthAdjust="spacing" textLength="24" x="25" y="548.6433">opt</text><text fill="#000000" font-family="sans-serif" font-size="11" font-weight="bold" lengthAdjust="spacing" textLength="35" x="99" y="547.7868">[true]</text><polygon fill="#181818" points="103,569.8639,93,573.8639,103,577.8639,99,573.8639" style="stroke:#181818;stroke-width:1.0;"/><line style="stroke:#181818;stroke-width:1.0;stroke-dasharray:2.0,2.0;" x1="97" x2="559" y1="573.8639" y2="573.8639"/><text fill="#000000" font-family="sans-serif" font-size="13" font-weight="bold" lengthAdjust="spacing" textLength="18" x="109" y="568.7943">16</text><text fill="#000000" font-family="sans-serif" font-size="13" lengthAdjust="spacing" textLength="94" x="131" y="568.7943">asks for street</text><polygon fill="#181818" points="548,599.0149,558,603.0149,548,607.0149,552,603.0149" style="stroke:#181818;stroke-width:1.0;"/><line style="stroke:#181818;stroke-width:1.0;" x1="92" x2="554" y1="603.0149" y2="603.0149"/><text fill="#000000" font-family="sans-serif" font-size="13" font-weight="bold" lengthAdjust="spacing" textLength="18" x="99" y="597.9453">17</text><text fill="#000000" font-family="sans-serif" font-size="13" lengthAdjust="spacing" textLength="71" x="121" y="597.9453">sends data</text><polygon fill="#181818" points="103,628.1659,93,632.1659,103,636.1659,99,632.1659" style="stroke:#181818;stroke-width:1.0;"/><line style="stroke:#181818;stroke-width:1.0;stroke-dasharray:2.0,2.0;" x1="97" x2="559" y1="632.1659" y2="632.1659"/><text fill="#000000" font-family="sans-serif" font-size="13" font-weight="bold" lengthAdjust="spacing" textLength="18" x="109" y="627.0963">18</text><text fill="#000000" font-family="sans-serif" font-size="13" lengthAdjust="spacing" textLength="106" x="131" y="627.0963">asks for zipcode</text><polygon fill="#181818" points="548,657.3169,558,661.3169,548,665.3169,552,661.3169" style="stroke:#181818;stroke-width:1.0;"/><line style="stroke:#181818;stroke-width:1.0;" x1="92" x2="554" y1="661.3169" y2="661.3169"/><text fill="#000000" font-family="sans-serif" font-size="13" font-weight="bold" lengthAdjust="spacing" textLength="18" x="99" y="656.2473">19</text><text fill="#000000" font-family="sans-serif" font-size="13" lengthAdjust="spacing" textLength="71" x="121" y="656.2473">sends data</text><polygon fill="#181818" points="103,686.4679,93,690.4679,103,694.4679,99,690.4679" style="stroke:#181818;stroke-width:1.0;"/><line style="stroke:#181818;stroke-width:1.0;stroke-dasharray:2.0,2.0;" x1="97" x2="559" y1="690.4679" y2="690.4679"/><text fill="#000000" font-family="sans-serif" font-size="13" font-weight="bold" lengthAdjust="spacing" textLength="18" x="109" y="685.3983">20</text><text fill="#000000" font-family="sans-serif" font-size="13" lengthAdjust="spacing" textLength="89" x="131" y="685.3983">asks for state</text><polygon fill="#181818" points="548,715.6189,558,719.6189,548,723.6189,552,719.6189" style="stroke:#181818;stroke-width:1.0;"/><line style="stroke:#181818;stroke-width:1.0;" x1="92" x2="554" y1="719.6189" y2="719.6189"/><text fill="#000000" font-family="sans-serif" font-size="13" font-weight="bold" lengthAdjust="spacing" textLength="18" x="99" y="714.5493">21</text><text fill="#000000" font-family="sans-serif" font-size="13" lengthAdjust="spacing" textLength="71" x="121" y="714.5493">sends data</text><polygon fill="#181818" points="103,744.7699,93,748.7699,103,752.7699,99,748.7699" style="stroke:#181818;stroke-width:1.0;"/><line style="stroke:#181818;stroke-width:1.0;stroke-dasharray:2.0,2.0;" x1="97" x2="559" y1="748.7699" y2="748.7699"/><text fill="#000000" font-family="sans-serif" font-size="13" font-weight="bold" lengthAdjust="spacing" textLength="18" x="109" y="743.7003">22</text><text fill="#000000" font-family="sans-serif" font-size="13" lengthAdjust="spacing" textLength="80" x="131" y="743.7003">asks for city</text><polygon fill="#181818" points="548,773.9209,558,777.9209,548,781.9209,552,777.9209" style="stroke:#181818;stroke-width:1.0;"/><line style="stroke:#181818;stroke-width:1.0;" x1="92" x2="554" y1="777.9209" y2="777.9209"/><text fill="#000000" font-family="sans-serif" font-size="13" font-weight="bold" lengthAdjust="spacing" textLength="18" x="99" y="772.8513">23</text><text fill="#000000" font-family="sans-serif" font-size="13" lengthAdjust="spacing" textLength="71" x="121" y="772.8513">sends data</text><polygon fill="#181818" points="103,803.0719,93,807.0719,103,811.0719,99,807.0719" style="stroke:#181818;stroke-width:1.0;"/><line style="stroke:#181818;stroke-width:1.0;stroke-dasharray:2.0,2.0;" x1="97" x2="559" y1="807.0719" y2="807.0719"/><text fill="#000000" font-family="sans-serif" font-size="13" font-weight="bold" lengthAdjust="spacing" textLength="18" x="109" y="802.0023">24</text><text fill="#000000" font-family="sans-serif" font-size="13" lengthAdjust="spacing" textLength="101" x="131" y="802.0023">asks for district</text><polygon fill="#181818" points="548,832.2229,558,836.2229,548,840.2229,552,836.2229" style="stroke:#181818;stroke-width:1.0;"/><line style="stroke:#181818;stroke-width:1.0;" x1="92" x2="554" y1="836.2229" y2="836.2229"/><text fill="#000000" font-family="sans-serif" font-size="13" font-weight="bold" lengthAdjust="spacing" textLength="18" x="99" y="831.1533">25</text><text fill="#000000" font-family="sans-serif" font-size="13" lengthAdjust="spacing" textLength="71" x="121" y="831.1533">sends data</text><polygon fill="#181818" points="98,868.3739,88,872.3739,98,876.3739,94,872.3739" style="stroke:#181818;stroke-width:1.0;"/><line style="stroke:#181818;stroke-width:1.0;stroke-dasharray:2.0,2.0;" x1="92" x2="564" y1="872.3739" y2="872.3739"/><text fill="#000000" font-family="sans-serif" font-size="13" font-weight="bold" lengthAdjust="spacing" textLength="18" x="104" y="867.3043">26</text><text fill="#000000" font-family="sans-serif" font-size="13" lengthAdjust="spacing" textLength="113" x="126" y="867.3043">display operation</text><!--SRC=[lLMnRkCm3Dtr5KIMcuBk6G8SS4k7TYao5HrOYR69sA8WqKtJhp_PJbCNIDmuQQlD8FdU8-L7fGtxW15hgCMBBQFK11eRCkaG2MWtMD23xYg2I5RH5zKm8PNePCk-W3LMYOp1HiKtzJD5O_wKx0ZM8leihmQjIeJPoaSgE2b5Sh1A56U02Vx-kpC6ZfmXth5ubg5iEQ1Nc2qUTXcuxX1Nj-O4ebL-GQNJdEt9GPWlCmeiCjecWGgy2mVse2K1Xb2nHMNnvZJIWQzJD9BOdimtdoyp-PvrdKVciQRngeFO1IJoBe53nGkOQ5uZL-DrNt5E9WsOqbQY-sLQoyflvEz7_gt96YQBKFRVH3rvwgLu0Z-b-ylRNi87EQyxxpJ3DT3aDG3RRE7EPWM_K9VZQTk7Ajcxx3nvxHAxsU-ZiOeYIXD0Wi9ZM_8qUOX98v5Eky4pndaEtZ4vRnoiEBfGprMtF3galFn-I1DSg2cRVtUTfAiq7PFaiXaYM_sHIKt66I_9oBrv1ktsFVL6pxs42dVPMXJtpsEVvEZJQpZuR1_Z_m00]--></g></svg>