<?xml version="1.0" encoding="us-ascii" standalone="no"?><svg xmlns="http://www.w3.org/2000/svg" xmlns:xlink="http://www.w3.org/1999/xlink" contentStyleType="text/css" height="653.5px" preserveAspectRatio="none" style="width:602px;height:653px;background:#FFFFFF;" version="1.1" viewBox="0 0 602 653" width="602px" zoomAndPan="magnify"><defs/><g><!--class Employee--><g id="elem_Employee"><rect codeLine="9" fill="#F1F1F1" height="18.3105" id="Employee" rx="1.25" ry="1.25" style="stroke:#181818;stroke-width:0.25;" width="34" x="202.5" y="99"/><text fill="#000000" font-family="sans-serif" font-size="7" lengthAdjust="spacing" textLength="31" x="204" y="109.0537">Employee</text><line style="stroke:#181818;stroke-width:0.25;" x1="203" x2="236" y1="113.3105" y2="113.3105"/></g><!--class Client--><g id="elem_Client"><rect codeLine="12" fill="#F1F1F1" height="18.3105" id="Client" rx="1.25" ry="1.25" style="stroke:#181818;stroke-width:0.25;" width="21" x="80.5" y="451.5"/><text fill="#000000" font-family="sans-serif" font-size="7" lengthAdjust="spacing" textLength="18" x="82" y="461.5537">Client</text><line style="stroke:#181818;stroke-width:0.25;" x1="81" x2="101" y1="465.8105" y2="465.8105"/></g><!--class Owner--><g id="elem_Owner"><rect codeLine="15" fill="#F1F1F1" height="18.3105" id="Owner" rx="1.25" ry="1.25" style="stroke:#181818;stroke-width:0.25;" width="23.5" x="353.25" y="99"/><text fill="#000000" font-family="sans-serif" font-size="7" lengthAdjust="spacing" textLength="20.5" x="354.75" y="109.0537">Owner</text><line style="stroke:#181818;stroke-width:0.25;" x1="353.75" x2="376.25" y1="113.3105" y2="113.3105"/></g><!--class Agent--><g id="elem_Agent"><rect codeLine="18" fill="#F1F1F1" height="18.3105" id="Agent" rx="1.25" ry="1.25" style="stroke:#181818;stroke-width:0.25;" width="21.5" x="259.75" y="361.25"/><text fill="#000000" font-family="sans-serif" font-size="7" lengthAdjust="spacing" textLength="18.5" x="261.25" y="371.3037">Agent</text><line style="stroke:#181818;stroke-width:0.25;" x1="260.25" x2="280.75" y1="375.5605" y2="375.5605"/></g><!--class Advertisement--><g id="elem_Advertisement"><rect codeLine="20" fill="#F1F1F1" height="46.2422" id="Advertisement" rx="1.25" ry="1.25" style="stroke:#181818;stroke-width:0.25;" width="60.5" x="172.25" y="528"/><text fill="#000000" font-family="sans-serif" font-size="7" lengthAdjust="spacing" textLength="45" x="180" y="538.0537">Advertisement</text><line style="stroke:#181818;stroke-width:0.25;" x1="172.75" x2="232.25" y1="542.3105" y2="542.3105"/><text fill="#000000" font-family="sans-serif" font-size="7" lengthAdjust="spacing" textLength="54.5" x="175.25" y="551.8643">commissionValue</text><text fill="#000000" font-family="sans-serif" font-size="7" lengthAdjust="spacing" textLength="52.5" x="175.25" y="561.1748">commissionType</text><text fill="#000000" font-family="sans-serif" font-size="7" lengthAdjust="spacing" textLength="14" x="175.25" y="570.4854">date</text></g><!--class BusinessType--><g id="elem_BusinessType"><rect codeLine="26" fill="#F1F1F1" height="27.6211" id="BusinessType" rx="1.25" ry="1.25" style="stroke:#181818;stroke-width:0.25;" width="47.5" x="345.75" y="537.25"/><text fill="#000000" font-family="sans-serif" font-size="7" lengthAdjust="spacing" textLength="44.5" x="347.25" y="547.3037">BusinessType</text><line style="stroke:#181818;stroke-width:0.25;" x1="346.25" x2="392.75" y1="551.5605" y2="551.5605"/><text fill="#000000" font-family="sans-serif" font-size="7" lengthAdjust="spacing" textLength="36.5" x="348.75" y="561.1143">designation</text></g><!--class PropertyType--><g id="elem_PropertyType"><rect codeLine="30" fill="#F1F1F1" height="27.6211" id="PropertyType" rx="1.25" ry="1.25" style="stroke:#181818;stroke-width:0.25;" width="46" x="552.5" y="447"/><text fill="#000000" font-family="sans-serif" font-size="7" lengthAdjust="spacing" textLength="43" x="554" y="457.0537">PropertyType</text><line style="stroke:#181818;stroke-width:0.25;" x1="553" x2="598" y1="461.3105" y2="461.3105"/><text fill="#000000" font-family="sans-serif" font-size="7" lengthAdjust="spacing" textLength="36.5" x="555.5" y="470.8643">designation</text></g><!--class Property--><g id="elem_Property"><rect codeLine="34" fill="#F1F1F1" height="46.2422" id="Property" rx="1.25" ry="1.25" style="stroke:#181818;stroke-width:0.25;" width="66" x="424.5" y="528"/><text fill="#000000" font-family="sans-serif" font-size="7" lengthAdjust="spacing" textLength="27" x="444" y="538.0537">Property</text><line style="stroke:#181818;stroke-width:0.25;" x1="425" x2="490" y1="542.3105" y2="542.3105"/><text fill="#000000" font-family="sans-serif" font-size="7" lengthAdjust="spacing" textLength="21.5" x="427.5" y="551.8643">photos</text><text fill="#000000" font-family="sans-serif" font-size="7" lengthAdjust="spacing" textLength="41.5" x="427.5" y="561.1748">areaProperty</text><text fill="#000000" font-family="sans-serif" font-size="7" lengthAdjust="spacing" textLength="60" x="427.5" y="570.4854">distanceCityCenter</text></g><!--class House--><g id="elem_House"><rect codeLine="40" fill="#F1F1F1" height="46.2422" id="House" rx="1.25" ry="1.25" style="stroke:#181818;stroke-width:0.25;" width="47" x="516" y="347.5"/><text fill="#000000" font-family="sans-serif" font-size="7" lengthAdjust="spacing" textLength="20" x="529.5" y="357.5537">House</text><line style="stroke:#181818;stroke-width:0.25;" x1="516.5" x2="562.5" y1="361.8105" y2="361.8105"/><text fill="#000000" font-family="sans-serif" font-size="7" lengthAdjust="spacing" textLength="31" x="519" y="371.3643">basement</text><text fill="#000000" font-family="sans-serif" font-size="7" lengthAdjust="spacing" textLength="9.5" x="519" y="380.6748">loft</text><text fill="#000000" font-family="sans-serif" font-size="7" lengthAdjust="spacing" textLength="41" x="519" y="389.9854">sunExposure</text></g><!--class Building--><g id="elem_Building"><rect codeLine="46" fill="#F1F1F1" height="55.5527" id="Building" rx="1.25" ry="1.25" style="stroke:#181818;stroke-width:0.25;" width="67.5" x="467.25" y="433"/><text fill="#000000" font-family="sans-serif" font-size="7" lengthAdjust="spacing" textLength="25" x="488.5" y="443.0537">Building</text><line style="stroke:#181818;stroke-width:0.25;" x1="467.75" x2="534.25" y1="447.3105" y2="447.3105"/><text fill="#000000" font-family="sans-serif" font-size="7" lengthAdjust="spacing" textLength="56" x="470.25" y="456.8643">numberBedrooms</text><text fill="#000000" font-family="sans-serif" font-size="7" lengthAdjust="spacing" textLength="58" x="470.25" y="466.1748">numberBathrooms</text><text fill="#000000" font-family="sans-serif" font-size="7" lengthAdjust="spacing" textLength="48" x="470.25" y="475.4854">numberParking</text><text fill="#000000" font-family="sans-serif" font-size="7" lengthAdjust="spacing" textLength="61.5" x="470.25" y="484.7959">availableEquipment</text></g><!--class Store--><g id="elem_Store"><rect codeLine="54" fill="#F1F1F1" height="55.5527" id="Store" rx="1.25" ry="1.25" style="stroke:#181818;stroke-width:0.25;" width="50.5" x="177.25" y="252.5"/><text fill="#000000" font-family="sans-serif" font-size="7" lengthAdjust="spacing" textLength="17" x="194" y="262.5537">Store</text><line style="stroke:#181818;stroke-width:0.25;" x1="177.75" x2="227.25" y1="266.8105" y2="266.8105"/><text fill="#000000" font-family="sans-serif" font-size="7" lengthAdjust="spacing" textLength="5.5" x="180.25" y="276.3643">id</text><text fill="#000000" font-family="sans-serif" font-size="7" lengthAdjust="spacing" textLength="17.5" x="180.25" y="285.6748">name</text><text fill="#000000" font-family="sans-serif" font-size="7" lengthAdjust="spacing" textLength="42.5" x="180.25" y="294.9854">emailAddress</text><text fill="#000000" font-family="sans-serif" font-size="7" lengthAdjust="spacing" textLength="44.5" x="180.25" y="304.2959">phoneNumber</text></g><!--class Visit--><g id="elem_Visit"><rect codeLine="61" fill="#F1F1F1" height="36.9316" id="Visit" rx="1.25" ry="1.25" style="stroke:#181818;stroke-width:0.25;" width="25" x="190" y="613.5"/><text fill="#000000" font-family="sans-serif" font-size="7" lengthAdjust="spacing" textLength="13" x="196" y="623.5537">Visit</text><line style="stroke:#181818;stroke-width:0.25;" x1="190.5" x2="214.5" y1="627.8105" y2="627.8105"/><text fill="#000000" font-family="sans-serif" font-size="7" lengthAdjust="spacing" textLength="18.5" x="193" y="637.3643">idVisit</text><text fill="#000000" font-family="sans-serif" font-size="7" lengthAdjust="spacing" textLength="19" x="193" y="646.6748">report</text></g><!--class Location--><g id="elem_Location"><rect codeLine="66" fill="#F1F1F1" height="64.8633" id="Location" rx="1.25" ry="1.25" style="stroke:#181818;stroke-width:0.25;" width="31.5" x="306.75" y="148"/><text fill="#000000" font-family="sans-serif" font-size="7" lengthAdjust="spacing" textLength="27" x="309" y="158.0537">Location</text><line style="stroke:#181818;stroke-width:0.25;" x1="307.25" x2="337.75" y1="162.3105" y2="162.3105"/><text fill="#000000" font-family="sans-serif" font-size="7" lengthAdjust="spacing" textLength="18" x="309.75" y="171.8643">street</text><text fill="#000000" font-family="sans-serif" font-size="7" lengthAdjust="spacing" textLength="25.5" x="309.75" y="181.1748">zipCode</text><text fill="#000000" font-family="sans-serif" font-size="7" lengthAdjust="spacing" textLength="24.5" x="309.75" y="190.4854">stateUS</text><text fill="#000000" font-family="sans-serif" font-size="7" lengthAdjust="spacing" textLength="10.5" x="309.75" y="199.7959">city</text><text fill="#000000" font-family="sans-serif" font-size="7" lengthAdjust="spacing" textLength="20.5" x="309.75" y="209.1064">district</text></g><!--class StoreManager--><g id="elem_StoreManager"><rect codeLine="74" fill="#F1F1F1" height="18.3105" id="StoreManager" rx="1.25" ry="1.25" style="stroke:#181818;stroke-width:0.25;" width="48" x="120" y="171.25"/><text fill="#000000" font-family="sans-serif" font-size="7" lengthAdjust="spacing" textLength="45" x="121.5" y="181.3037">StoreManager</text><line style="stroke:#181818;stroke-width:0.25;" x1="120.5" x2="167.5" y1="185.5605" y2="185.5605"/></g><!--class StoreNetworkManager--><g id="elem_StoreNetworkManager"><rect codeLine="77" fill="#F1F1F1" height="18.3105" id="StoreNetworkManager" rx="1.25" ry="1.25" style="stroke:#181818;stroke-width:0.25;" width="73" x="29.5" y="171.25"/><text fill="#000000" font-family="sans-serif" font-size="7" lengthAdjust="spacing" textLength="70" x="31" y="181.3037">StoreNetworkManager</text><line style="stroke:#181818;stroke-width:0.25;" x1="30" x2="102" y1="185.5605" y2="185.5605"/></g><!--class Offer--><g id="elem_Offer"><rect codeLine="80" fill="#F1F1F1" height="36.9316" id="Offer" rx="1.25" ry="1.25" style="stroke:#181818;stroke-width:0.25;" width="27.5" x="92.25" y="613.5"/><text fill="#000000" font-family="sans-serif" font-size="7" lengthAdjust="spacing" textLength="16" x="98" y="623.5537">Offer</text><line style="stroke:#181818;stroke-width:0.25;" x1="92.75" x2="119.25" y1="627.8105" y2="627.8105"/><text fill="#000000" font-family="sans-serif" font-size="7" lengthAdjust="spacing" textLength="21.5" x="95.25" y="637.3643">idOffer</text><text fill="#000000" font-family="sans-serif" font-size="7" lengthAdjust="spacing" textLength="14.5" x="95.25" y="646.6748">offer</text></g><!--class SystemAdministrator--><g id="elem_SystemAdministrator"><rect codeLine="85" fill="#F1F1F1" height="18.3105" id="SystemAdministrator" rx="1.25" ry="1.25" style="stroke:#181818;stroke-width:0.25;" width="67.5" x="185.75" y="171.25"/><text fill="#000000" font-family="sans-serif" font-size="7" lengthAdjust="spacing" textLength="64.5" x="187.25" y="181.3037">SystemAdministrator</text><line style="stroke:#181818;stroke-width:0.25;" x1="186.25" x2="252.75" y1="185.5605" y2="185.5605"/></g><!--class Person--><g id="elem_Person"><rect codeLine="90" fill="#F1F1F1" height="64.8633" id="Person" rx="1.25" ry="1.25" style="stroke:#181818;stroke-width:0.25;" width="51" x="257.5" y="3.5"/><text fill="#000000" font-family="sans-serif" font-size="7" lengthAdjust="spacing" textLength="22.5" x="271.75" y="13.5537">Person</text><line style="stroke:#181818;stroke-width:0.25;" x1="258" x2="308" y1="17.8105" y2="17.8105"/><text fill="#000000" font-family="sans-serif" font-size="7" lengthAdjust="spacing" textLength="42.5" x="260.5" y="27.3643">emailAddress</text><text fill="#000000" font-family="sans-serif" font-size="7" lengthAdjust="spacing" textLength="45" x="260.5" y="36.6748">numberCitizen</text><text fill="#000000" font-family="sans-serif" font-size="7" lengthAdjust="spacing" textLength="7.5" x="260.5" y="45.9854">tin</text><text fill="#000000" font-family="sans-serif" font-size="7" lengthAdjust="spacing" textLength="44.5" x="260.5" y="55.2959">phoneNumber</text><text fill="#000000" font-family="sans-serif" font-size="7" lengthAdjust="spacing" textLength="17.5" x="260.5" y="64.6064">name</text></g><!--class Request--><g id="elem_Request"><rect codeLine="98" fill="#F1F1F1" height="55.5527" id="Request" rx="1.25" ry="1.25" style="stroke:#181818;stroke-width:0.25;" width="66.5" x="333.25" y="433"/><text fill="#000000" font-family="sans-serif" font-size="7" lengthAdjust="spacing" textLength="26.5" x="353.25" y="443.0537">Request</text><line style="stroke:#181818;stroke-width:0.25;" x1="333.75" x2="399.25" y1="447.3105" y2="447.3105"/><text fill="#000000" font-family="sans-serif" font-size="7" lengthAdjust="spacing" textLength="14" x="336.25" y="456.8643">date</text><text fill="#000000" font-family="sans-serif" font-size="7" lengthAdjust="spacing" textLength="34" x="336.25" y="466.1748">rentalPrice</text><text fill="#000000" font-family="sans-serif" font-size="7" lengthAdjust="spacing" textLength="29" x="336.25" y="475.4854">salePrice</text><text fill="#000000" font-family="sans-serif" font-size="7" lengthAdjust="spacing" textLength="60.5" x="336.25" y="484.7959">durationOfContract</text></g><!--reverse link Person to Owner--><g id="link_Person_Owner"><path codeLine="105" d="M316.43,65.55 C330.215,77.525 345.185,90.53 354.805,98.89 " fill="none" id="Person-backto-Owner" style="stroke:#181818;stroke-width:0.5;"/><polygon fill="none" points="313.975,68.05,308.72,58.85,318.565,62.765,313.975,68.05" style="stroke:#181818;stroke-width:0.5;"/></g><!--reverse link Person to Client--><g id="link_Person_Client"><path codeLine="106" d="M247.42,38.11 C172.015,42.485 3,57.865 3,107.75 C3,107.75 3,107.75 3,371 C3,414.63 56.98,444.665 80.385,455.635 " fill="none" id="Person-backto-Client" style="stroke:#181818;stroke-width:0.5;"/><polygon fill="none" points="247.235,34.615,257.41,37.56,247.615,41.6,247.235,34.615" style="stroke:#181818;stroke-width:0.5;"/></g><!--reverse link Person to Employee--><g id="link_Person_Employee"><path codeLine="107" d="M250.605,72.845 C241.95,82.56 233.355,92.205 227.4,98.885 " fill="none" id="Person-backto-Employee" style="stroke:#181818;stroke-width:0.5;"/><polygon fill="none" points="248.09,70.41,257.355,65.275,253.315,75.07,248.09,70.41" style="stroke:#181818;stroke-width:0.5;"/></g><!--link Person to Location--><g id="link_Person_Location"><path codeLine="109" d="M291.815,68.525 C298.32,92.15 307.13,124.165 313.645,147.825 " fill="none" id="Person-Location" style="stroke:#181818;stroke-width:0.5;"/><polygon fill="#000000" points="308.6635,110.7331,308.88,105.9827,306.0464,106.7628,308.6635,110.7331" style="stroke:#000000;stroke-width:0.5;"/><text fill="#000000" font-family="sans-serif" font-size="6.5" lengthAdjust="spacing" textLength="15" x="312.5" y="111.0142">owns</text></g><!--link Owner to Request--><g id="link_Owner_Request"><path codeLine="113" d="M376.94,109.915 C408.1,113.68 489.5,128.45 489.5,180 C489.5,180 489.5,180 489.5,371 C489.5,415.455 436.215,440.055 399.785,451.68 " fill="none" id="Owner-Request" style="stroke:#181818;stroke-width:0.5;"/><polygon fill="#000000" points="492.1667,282.8172,493.3313,278.2067,490.3989,278.4027,492.1667,282.8172" style="stroke:#000000;stroke-width:0.5;"/><text fill="#000000" font-family="sans-serif" font-size="6.5" lengthAdjust="spacing" textLength="15" x="496.5" y="283.0142">owns</text><text fill="#000000" font-family="sans-serif" font-size="6.5" lengthAdjust="spacing" textLength="3.5" x="380.7903" y="107.7492">1</text><text fill="#000000" font-family="sans-serif" font-size="6.5" lengthAdjust="spacing" textLength="10" x="403.7331" y="448.8253">1..*</text></g><!--link Owner to Request--><g id="link_Owner_Request"><path codeLine="134" d="M365,117.525 C365,130.975 365,157.485 365,180 C365,180 365,180 365,371 C365,391.765 365.41,415.245 365.805,432.91 " fill="none" id="Owner-Request-1" style="stroke:#181818;stroke-width:0.5;"/><polygon fill="#000000" points="367.5064,282.8227,368.9643,278.2965,366.0254,278.304,367.5064,282.8227" style="stroke:#000000;stroke-width:0.5;"/><text fill="#000000" font-family="sans-serif" font-size="6.5" lengthAdjust="spacing" textLength="41.5" x="372" y="283.0142">asks to create</text><text fill="#000000" font-family="sans-serif" font-size="6.5" lengthAdjust="spacing" textLength="3.5" x="361.0078" y="128.3902">1</text><text fill="#000000" font-family="sans-serif" font-size="6.5" lengthAdjust="spacing" textLength="2.5" x="363.0558" y="427.3186">*</text></g><!--link Agent to Request--><g id="link_Agent_Request"><path codeLine="114" d="M278.855,379.885 C288.005,389.5 303.21,405.185 317,418 C322.3,422.92 328.04,428.025 333.675,432.905 " fill="none" id="Agent-Request" style="stroke:#181818;stroke-width:0.5;"/><polygon fill="#000000" points="321.297,415.0608,319.0678,410.8604,317.0246,412.9729,321.297,415.0608" style="stroke:#000000;stroke-width:0.5;"/><text fill="#000000" font-family="sans-serif" font-size="6.5" lengthAdjust="spacing" textLength="27.5" x="324" y="416.0142">publishes</text><text fill="#000000" font-family="sans-serif" font-size="6.5" lengthAdjust="spacing" textLength="3.5" x="277.1301" y="390.6086">1</text><text fill="#000000" font-family="sans-serif" font-size="6.5" lengthAdjust="spacing" textLength="2.5" x="326.8091" y="427.3129">*</text></g><!--link House to Building--><g id="link_House_Building"><path codeLine="115" d="M529.785,393.52 C525.85,402.645 521.2,413.425 516.8,423.62 " fill="none" id="House-to-Building" style="stroke:#181818;stroke-width:0.5;"/><polygon fill="none" points="519.95,425.16,512.775,432.955,513.52,422.39,519.95,425.16" style="stroke:#181818;stroke-width:0.5;"/></g><!--link Building to Property--><g id="link_Building_Property"><path codeLine="117" d="M487.71,488.515 C483.055,498.07 477.785,508.885 472.965,518.775 " fill="none" id="Building-to-Property" style="stroke:#181818;stroke-width:0.5;"/><polygon fill="none" points="476.04,520.445,468.515,527.905,469.75,517.38,476.04,520.445" style="stroke:#181818;stroke-width:0.5;"/></g><!--link Store to Agent--><g id="link_Store_Agent"><path codeLine="118" d="M223.27,308.015 C237.1,326.16 254.38,348.845 263.735,361.12 " fill="none" id="Store-Agent" style="stroke:#181818;stroke-width:0.5;"/><polygon fill="#000000" points="241.9848,325.8342,243.557,330.3221,245.8946,328.5409,241.9848,325.8342" style="stroke:#000000;stroke-width:0.5;"/><text fill="#000000" font-family="sans-serif" font-size="6.5" lengthAdjust="spacing" textLength="17" x="248" y="330.5142">works</text><text fill="#000000" font-family="sans-serif" font-size="6.5" lengthAdjust="spacing" textLength="3.5" x="222.2069" y="319.137">1</text><text fill="#000000" font-family="sans-serif" font-size="6.5" lengthAdjust="spacing" textLength="2.5" x="258.8806" y="355.6795">*</text></g><!--link StoreManager to Store--><g id="link_StoreManager_Store"><path codeLine="119" d="M149.19,189.765 C157.44,203.69 173.88,231.44 186.335,252.465 " fill="none" id="StoreManager-Store" style="stroke:#181818;stroke-width:0.5;"/><polygon fill="#000000" points="180.7742,234.9736,179.7334,230.3337,177.2049,231.8316,180.7742,234.9736" style="stroke:#000000;stroke-width:0.5;"/><text fill="#000000" font-family="sans-serif" font-size="6.5" lengthAdjust="spacing" textLength="25" x="184" y="235.5142">monitors</text><text fill="#000000" font-family="sans-serif" font-size="6.5" lengthAdjust="spacing" textLength="3.5" x="146.6575" y="200.6274">1</text><text fill="#000000" font-family="sans-serif" font-size="6.5" lengthAdjust="spacing" textLength="3.5" x="180.5396" y="246.8806">1</text></g><!--link Location to Property--><g id="link_Location_Property"><path codeLine="120" d="M338.415,185.93 C370.625,197.015 440.5,227.125 440.5,279.75 C440.5,279.75 440.5,279.75 440.5,461.25 C440.5,484.28 446.03,510.07 450.78,527.98 " fill="none" id="Location-Property" style="stroke:#181818;stroke-width:0.5;"/><polygon fill="#000000" points="442.2198,368.1976,442.2352,372.9529,445.0273,372.0357,442.2198,368.1976" style="stroke:#000000;stroke-width:0.5;"/><text fill="#000000" font-family="sans-serif" font-size="6.5" lengthAdjust="spacing" textLength="15" x="447.5" y="373.2642">owns</text><text fill="#000000" font-family="sans-serif" font-size="6.5" lengthAdjust="spacing" textLength="3.5" x="342.2792" y="184.7332">1</text><text fill="#000000" font-family="sans-serif" font-size="6.5" lengthAdjust="spacing" textLength="3.5" x="445.983" y="522.311">1</text></g><!--link StoreNetworkManager to Store--><g id="link_StoreNetworkManager_Store"><path codeLine="121" d="M76.15,189.8 C89.52,201.245 113.925,221.655 136,237.5 C149.225,246.99 164.525,256.79 177.11,264.555 " fill="none" id="StoreNetworkManager-Store" style="stroke:#181818;stroke-width:0.5;"/><polygon fill="#000000" points="140.5092,234.3104,137.749,230.4382,136.0001,232.8002,140.5092,234.3104" style="stroke:#000000;stroke-width:0.5;"/><text fill="#000000" font-family="sans-serif" font-size="6.5" lengthAdjust="spacing" textLength="26" x="143" y="235.5142">analyzes</text><text fill="#000000" font-family="sans-serif" font-size="6.5" lengthAdjust="spacing" textLength="3.5" x="74.9075" y="200.5007">1</text><text fill="#000000" font-family="sans-serif" font-size="6.5" lengthAdjust="spacing" textLength="2.5" x="170.6973" y="260.1466">*</text></g><!--reverse link Employee to Agent--><g id="link_Employee_Agent"><path codeLine="122" d="M241.88,123.68 C249.69,130.16 257.595,138.455 262,148 C297.005,223.815 278.88,330.175 272.455,361.19 " fill="none" id="Employee-backto-Agent" style="stroke:#181818;stroke-width:0.5;"/><polygon fill="none" points="239.755,126.46,233.93,117.61,244.005,120.895,239.755,126.46" style="stroke:#181818;stroke-width:0.5;"/></g><!--reverse link Employee to StoreManager--><g id="link_Employee_StoreManager"><path codeLine="123" d="M202.36,124.4 C194.58,131.555 185.285,140.16 177,148 C168.77,155.79 159.515,164.785 152.905,171.25 " fill="none" id="Employee-backto-StoreManager" style="stroke:#181818;stroke-width:0.5;"/><polygon fill="none" points="200.08,121.745,209.815,117.57,204.81,126.905,200.08,121.745" style="stroke:#181818;stroke-width:0.5;"/></g><!--reverse link Employee to StoreNetworkManager--><g id="link_Employee_StoreNetworkManager"><path codeLine="124" d="M192.645,116.235 C170.155,123.025 137.56,134.085 111,148 C98.435,154.585 85.355,164.25 76.56,171.235 " fill="none" id="Employee-backto-StoreNetworkManager" style="stroke:#181818;stroke-width:0.5;"/><polygon fill="none" points="191.78,112.84,202.36,113.38,193.755,119.56,191.78,112.84" style="stroke:#181818;stroke-width:0.5;"/></g><!--link Advertisement to Offer--><g id="link_Advertisement_Offer"><path codeLine="125" d="M175.235,574.105 C157.175,589.075 134.25,608.08 119.845,620.025 " fill="none" id="Advertisement-Offer" style="stroke:#181818;stroke-width:0.5;"/><polygon fill="#000000" points="158.0754,595.4183,162.4949,593.6632,160.6192,591.4006,158.0754,595.4183" style="stroke:#000000;stroke-width:0.5;"/><text fill="#000000" font-family="sans-serif" font-size="6.5" lengthAdjust="spacing" textLength="23.5" x="164.5" y="596.5142">receives</text><text fill="#000000" font-family="sans-serif" font-size="6.5" lengthAdjust="spacing" textLength="3.5" x="167.2921" y="585.3005">1</text><text fill="#000000" font-family="sans-serif" font-size="6.5" lengthAdjust="spacing" textLength="2.5" x="123.7131" y="614.4089">*</text></g><!--link Client to Offer--><g id="link_Client_Offer"><path codeLine="126" d="M87.235,470.005 C79.53,489.13 63.495,535.975 73.5,574 C77.235,588.195 85.36,602.57 92.55,613.395 " fill="none" id="Client-Offer" style="stroke:#181818;stroke-width:0.5;"/><polygon fill="#000000" points="76.0926,553.571,77.3935,548.9972,74.4566,549.106,76.0926,553.571" style="stroke:#000000;stroke-width:0.5;"/><text fill="#000000" font-family="sans-serif" font-size="6.5" lengthAdjust="spacing" textLength="19.5" x="80.5" y="553.7642">makes</text><text fill="#000000" font-family="sans-serif" font-size="6.5" lengthAdjust="spacing" textLength="3.5" x="82.1839" y="480.8645">1</text><text fill="#000000" font-family="sans-serif" font-size="6.5" lengthAdjust="spacing" textLength="2.5" x="87.4316" y="607.8572">*</text></g><!--link Location to Store--><g id="link_Location_Store"><path codeLine="127" d="M306.565,194.115 C286.48,210.64 251.72,239.245 227.945,258.81 " fill="none" id="Location-Store" style="stroke:#181818;stroke-width:0.5;"/><polygon fill="#000000" points="266.9304,231.2342,262.5045,232.9732,264.372,235.2426,266.9304,231.2342" style="stroke:#000000;stroke-width:0.5;"/><text fill="#000000" font-family="sans-serif" font-size="6.5" lengthAdjust="spacing" textLength="15" x="269.5" y="235.5142">owns</text><text fill="#000000" font-family="sans-serif" font-size="6.5" lengthAdjust="spacing" textLength="3.5" x="299.1964" y="194.7086">1</text><text fill="#000000" font-family="sans-serif" font-size="6.5" lengthAdjust="spacing" textLength="3.5" x="231.7693" y="253.718">1</text></g><!--link Advertisement to Visit--><g id="link_Advertisement_Visit"><path codeLine="128" d="M202.5,574.21 C202.5,586.635 202.5,601.82 202.5,613.435 " fill="none" id="Advertisement-Visit" style="stroke:#181818;stroke-width:0.5;"/><polygon fill="#000000" points="205,596.3228,206.4695,591.8002,203.5305,591.8002,205,596.3228" style="stroke:#000000;stroke-width:0.5;"/><text fill="#000000" font-family="sans-serif" font-size="6.5" lengthAdjust="spacing" textLength="16" x="209.5" y="596.5142">hosts</text><text fill="#000000" font-family="sans-serif" font-size="6.5" lengthAdjust="spacing" textLength="3.5" x="198.743" y="585.2502">1</text><text fill="#000000" font-family="sans-serif" font-size="6.5" lengthAdjust="spacing" textLength="2.5" x="199.7773" y="607.9043">*</text></g><!--link Client to Visit--><g id="link_Client_Visit"><path codeLine="129" d="M92.02,470.095 C95.23,494.015 107.235,560.72 144.5,598.5 C157.6,611.78 177.16,621.41 189.88,626.725 " fill="none" id="Client-Visit" style="stroke:#181818;stroke-width:0.5;"/><polygon fill="#000000" points="128.8247,553.193,127.6745,548.5789,125.1821,550.1361,128.8247,553.193" style="stroke:#000000;stroke-width:0.5;"/><text fill="#000000" font-family="sans-serif" font-size="6.5" lengthAdjust="spacing" textLength="25" x="132" y="553.7642">requests</text><text fill="#000000" font-family="sans-serif" font-size="6.5" lengthAdjust="spacing" textLength="3.5" x="88.3238" y="480.8078">1</text><text fill="#000000" font-family="sans-serif" font-size="6.5" lengthAdjust="spacing" textLength="2.5" x="183.4791" y="622.5903">*</text></g><!--link Agent to Visit--><g id="link_Agent_Visit"><path codeLine="130" d="M269.58,379.92 C266.01,414.085 252.685,536.565 241.5,574 C238.055,585.525 236.46,588.35 230,598.5 C225.675,605.295 220.105,612.23 215.11,617.975 " fill="none" id="Agent-Visit" style="stroke:#181818;stroke-width:0.5;"/><polygon fill="#000000" points="256.4424,510.7598,258.8836,506.6789,256.0187,506.0234,256.4424,510.7598" style="stroke:#000000;stroke-width:0.5;"/><text fill="#000000" font-family="sans-serif" font-size="6.5" lengthAdjust="spacing" textLength="30.5" x="261.5" y="511.0142">carries out</text><text fill="#000000" font-family="sans-serif" font-size="6.5" lengthAdjust="spacing" textLength="3.5" x="265.3624" y="390.653">1</text><text fill="#000000" font-family="sans-serif" font-size="6.5" lengthAdjust="spacing" textLength="2.5" x="219.0081" y="611.3794">*</text></g><!--link Store to Advertisement--><g id="link_Store_Advertisement"><path codeLine="131" d="M202.5,308.1 C202.5,361.475 202.5,478.605 202.5,527.915 " fill="none" id="Store-Advertisement" style="stroke:#181818;stroke-width:0.5;"/><polygon fill="#000000" points="205,415.8228,206.4695,411.3002,203.5305,411.3002,205,415.8228" style="stroke:#000000;stroke-width:0.5;"/><text fill="#000000" font-family="sans-serif" font-size="6.5" lengthAdjust="spacing" textLength="24.5" x="209.5" y="416.0142">contains</text><text fill="#000000" font-family="sans-serif" font-size="6.5" lengthAdjust="spacing" textLength="3.5" x="198.7867" y="319.032">1</text><text fill="#000000" font-family="sans-serif" font-size="6.5" lengthAdjust="spacing" textLength="2.5" x="199.8164" y="522.4072">*</text></g><!--link Client to Advertisement--><g id="link_Client_Advertisement"><path codeLine="132" d="M101.72,469.865 C114.515,480.145 136.555,497.84 155.5,513 C161.53,517.825 168.005,522.995 174.155,527.905 " fill="none" id="Client-Advertisement" style="stroke:#181818;stroke-width:0.5;"/><polygon fill="#000000" points="159.951,509.886,157.3405,505.9113,155.5028,508.2048,159.951,509.886" style="stroke:#000000;stroke-width:0.5;"/><text fill="#000000" font-family="sans-serif" font-size="6.5" lengthAdjust="spacing" textLength="26.5" x="162.5" y="511.0142">searches</text><text fill="#000000" font-family="sans-serif" font-size="6.5" lengthAdjust="spacing" textLength="2.5" x="102.0018" y="480.8543">*</text><text fill="#000000" font-family="sans-serif" font-size="6.5" lengthAdjust="spacing" textLength="2.5" x="167.3082" y="522.3958">*</text></g><!--reverse link Employee to SystemAdministrator--><g id="link_Employee_SystemAdministrator"><path codeLine="133" d="M219.5,127.75 C219.5,141.86 219.5,160.455 219.5,171.23 " fill="none" id="Employee-backto-SystemAdministrator" style="stroke:#181818;stroke-width:0.5;"/><polygon fill="none" points="216,127.63,219.5,117.63,223,127.63,216,127.63" style="stroke:#181818;stroke-width:0.5;"/></g><!--link PropertyType to Property--><g id="link_PropertyType_Property"><path codeLine="135" d="M560.41,474.535 C555.135,479.06 549.125,484.085 543.5,488.5 C526.19,502.075 506.305,516.485 490.015,527.995 " fill="none" id="PropertyType-Property" style="stroke:#181818;stroke-width:0.5;"/><polygon fill="#000000" points="526.991,506.8108,522.5006,508.3757,524.278,510.7162,526.991,506.8108" style="stroke:#000000;stroke-width:0.5;"/><text fill="#000000" font-family="sans-serif" font-size="6.5" lengthAdjust="spacing" textLength="24.5" x="529.5" y="511.0142">contains</text><text fill="#000000" font-family="sans-serif" font-size="6.5" lengthAdjust="spacing" textLength="3.5" x="553.0157" y="485.7226">1</text><text fill="#000000" font-family="sans-serif" font-size="6.5" lengthAdjust="spacing" textLength="2.5" x="492.3025" y="522.3283">*</text></g><!--link Request to BusinessType--><g id="link_Request_BusinessType"><path codeLine="136" d="M367.415,488.515 C367.955,504.61 368.62,524.275 369.05,537.08 " fill="none" id="Request-BusinessType" style="stroke:#181818;stroke-width:0.5;"/><polygon fill="#000000" points="371.0841,510.8213,372.4006,506.2519,369.4633,506.3508,371.0841,510.8213" style="stroke:#000000;stroke-width:0.5;"/><text fill="#000000" font-family="sans-serif" font-size="6.5" lengthAdjust="spacing" textLength="24.5" x="375.5" y="511.0142">contains</text><text fill="#000000" font-family="sans-serif" font-size="6.5" lengthAdjust="spacing" textLength="2.5" x="364.8721" y="499.637">*</text><text fill="#000000" font-family="sans-serif" font-size="6.5" lengthAdjust="spacing" textLength="3.5" x="365.0688" y="531.6221">1</text></g><!--link Request to Property--><g id="link_Request_Property"><path codeLine="137" d="M394.295,488.515 C407.155,501.125 422.25,515.925 434.46,527.905 " fill="none" id="Request-Property" style="stroke:#181818;stroke-width:0.5;"/><text fill="#000000" font-family="sans-serif" font-size="6.5" lengthAdjust="spacing" textLength="3.5" x="394.132" y="499.637">1</text><text fill="#000000" font-family="sans-serif" font-size="6.5" lengthAdjust="spacing" textLength="3.5" x="427.319" y="522.3958">1</text></g><!--link Request to Advertisement--><g id="link_Request_Advertisement"><path codeLine="138" d="M334.13,488.565 C323.105,497.075 310.42,506.045 298,513 C277.255,524.62 252.175,534.32 232.925,540.94 " fill="none" id="Request-Advertisement" style="stroke:#181818;stroke-width:0.5;"/><polygon fill="#000000" points="316.7203,507.1737,312.0284,507.9473,313.3791,510.5574,316.7203,507.1737" style="stroke:#000000;stroke-width:0.5;"/><text fill="#000000" font-family="sans-serif" font-size="6.5" lengthAdjust="spacing" textLength="24.5" x="319" y="511.0142">contains</text><text fill="#000000" font-family="sans-serif" font-size="6.5" lengthAdjust="spacing" textLength="3.5" x="326.4716" y="499.4927">1</text><text fill="#000000" font-family="sans-serif" font-size="6.5" lengthAdjust="spacing" textLength="3.5" x="236.8463" y="537.7042">1</text></g><!--SRC=[ZLLBJnin4Bxlhx1ogOGK4DS88K64r4CBgBJSpNgI7SMFnUCb3O__tbbx7rwoICrfzlFdUNmputohGgXfTNPMQsb3O_HfwSnPgINHKg7SUcaAsg6j9Ll2EElAoZi38lW6ifDQbZkvXOTmq20yb47QhSu9L4dbzcYtOYCrGL6X0b6YBtLd6mYLKrGKHOmkRaojtG7WhVZeeRL6i45aoDtUWi-1goqpXW_r0ZuWWKdN1F-uF8D4wEoZr5p25Fjzg1EaP83HwtL3Q86eFUxyA23SMXduqiYxzwxcY8UMzn-qHAah5nn5KtgG_M6wZiHAbh36S5Xp4U17BzzTGtqsJp8L6J-qsoI36dlpjtRK-4ajg1Nt8LsqZNa2VmtAEsSeXsIeFcFtqdC_jodL5ubQFccuUMwmZh4_Xjuz1ESx0L0b1z8aOS7mlIkbFClPbs_XDleVatn4mj0xY1_Hzb0x7qRQ3rT6QJiLA7Y0n7p5UkqKT30tyyz3QZLcodeiCsSnwP_IyXXFHYhYjn3spkzcZkys6_1zgl4ZsYvQevC31J1Nog1j0qls6NqC8m6Ud7sRboYfppE0hs0Z4j0UYJV8F0Jz1SyDKATZdEWaeWrIttFndJnIm_Yb6XyblTkidUL4aq8fFN7nlbocdPiWQIydKB-zmrN6-cwjXDjR4fTjzMc15-UBbh0uFpqzMVHf3xIuqmCd9zJDaqQge6MbTLWkto-74I-Atahui5gnfRd7668bsXQJk2Wcep0ajqYZi1BjEuXijc674SneVHpHbT0v_3H3MVZUBv_emsiifnSmoPcUjIcM9pbtD0rNJ1x3CNQSs5NxP0E-nCYfcqSC8tVmLS5T_bsnqsStApCkyafKZi8OQ8RWKtzdUzzHH2czHqx8DO5fnmtDSrZn2yypZpQFUl8Lbq3wifffmimEv_Cx7Kr9F4d1YPAVz03iA_zlo3FjyIp9Yw9pCsJ9zFm_Q5BGm3qUmBcpQRLPp7y0]--></g></svg>