<?xml version="1.0" encoding="us-ascii" standalone="no"?><svg xmlns="http://www.w3.org/2000/svg" xmlns:xlink="http://www.w3.org/1999/xlink" contentStyleType="text/css" height="973px" preserveAspectRatio="none" style="width:1130px;height:973px;background:#FFFFFF;" version="1.1" viewBox="0 0 1130 973" width="1130px" zoomAndPan="magnify"><defs/><g><!--class Employee--><g id="elem_Employee"><rect codeLine="9" fill="#F1F1F1" height="36.6211" id="Employee" rx="2.5" ry="2.5" style="stroke:#181818;stroke-width:0.5;" width="68" x="693.5" y="252.5"/><text fill="#000000" font-family="sans-serif" font-size="14" lengthAdjust="spacing" textLength="62" x="696.5" y="272.6074">Employee</text><line style="stroke:#181818;stroke-width:0.5;" x1="694.5" x2="760.5" y1="281.1211" y2="281.1211"/></g><!--class Advertisement--><g id="elem_Advertisement"><rect codeLine="14" fill="#F1F1F1" height="92.4844" id="Advertisement" rx="2.5" ry="2.5" style="stroke:#181818;stroke-width:0.5;" width="121" x="667" y="621"/><text fill="#000000" font-family="sans-serif" font-size="14" lengthAdjust="spacing" textLength="90" x="682.5" y="641.1074">Advertisement</text><line style="stroke:#181818;stroke-width:0.5;" x1="668" x2="787" y1="649.6211" y2="649.6211"/><text fill="#000000" font-family="sans-serif" font-size="14" lengthAdjust="spacing" textLength="109" x="673" y="668.7285">commissionValue</text><text fill="#000000" font-family="sans-serif" font-size="14" lengthAdjust="spacing" textLength="105" x="673" y="687.3496">commissionType</text><text fill="#000000" font-family="sans-serif" font-size="14" lengthAdjust="spacing" textLength="28" x="673" y="705.9707">date</text></g><!--class BusinessType--><g id="elem_BusinessType"><rect codeLine="20" fill="#F1F1F1" height="55.2422" id="BusinessType" rx="2.5" ry="2.5" style="stroke:#181818;stroke-width:0.5;" width="95" x="34" y="451"/><text fill="#000000" font-family="sans-serif" font-size="14" lengthAdjust="spacing" textLength="89" x="37" y="471.1074">BusinessType</text><line style="stroke:#181818;stroke-width:0.5;" x1="35" x2="128" y1="479.6211" y2="479.6211"/><text fill="#000000" font-family="sans-serif" font-size="14" lengthAdjust="spacing" textLength="73" x="40" y="498.7285">designation</text></g><!--class PropertyType--><g id="elem_PropertyType"><rect codeLine="24" fill="#F1F1F1" height="55.2422" id="PropertyType" rx="2.5" ry="2.5" style="stroke:#181818;stroke-width:0.5;" width="92" x="104.5" y="856"/><text fill="#000000" font-family="sans-serif" font-size="14" lengthAdjust="spacing" textLength="86" x="107.5" y="876.1074">PropertyType</text><line style="stroke:#181818;stroke-width:0.5;" x1="105.5" x2="195.5" y1="884.6211" y2="884.6211"/><text fill="#000000" font-family="sans-serif" font-size="14" lengthAdjust="spacing" textLength="73" x="110.5" y="903.7285">designation</text></g><!--class Property--><g id="elem_Property"><rect codeLine="28" fill="#F1F1F1" height="108.4453" id="Property" rx="2.5" ry="2.5" style="stroke:#181818;stroke-width:0.5;" width="132" x="318.5" y="613"/><text fill="#000000" font-family="sans-serif" font-size="12" font-style="italic" lengthAdjust="spacing" textLength="62" x="353.5" y="630.9492">&#171;Interface&#187;</text><text fill="#000000" font-family="sans-serif" font-size="14" lengthAdjust="spacing" textLength="54" x="357.5" y="649.0684">Property</text><line style="stroke:#181818;stroke-width:0.5;" x1="319.5" x2="449.5" y1="657.582" y2="657.582"/><text fill="#000000" font-family="sans-serif" font-size="14" lengthAdjust="spacing" textLength="43" x="324.5" y="676.6895">photos</text><text fill="#000000" font-family="sans-serif" font-size="14" lengthAdjust="spacing" textLength="83" x="324.5" y="695.3105">areaProperty</text><text fill="#000000" font-family="sans-serif" font-size="14" lengthAdjust="spacing" textLength="120" x="324.5" y="713.9316">distanceCityCenter</text></g><!--class House--><g id="elem_House"><rect codeLine="34" fill="#F1F1F1" height="166.9688" id="House" rx="2.5" ry="2.5" style="stroke:#181818;stroke-width:0.5;" width="135" x="232" y="800"/><text fill="#000000" font-family="sans-serif" font-size="14" lengthAdjust="spacing" textLength="40" x="279.5" y="820.1074">House</text><line style="stroke:#181818;stroke-width:0.5;" x1="233" x2="366" y1="828.6211" y2="828.6211"/><text fill="#000000" font-family="sans-serif" font-size="14" lengthAdjust="spacing" textLength="112" x="238" y="847.7285">numberBedrooms</text><text fill="#000000" font-family="sans-serif" font-size="14" lengthAdjust="spacing" textLength="116" x="238" y="866.3496">numberBathrooms</text><text fill="#000000" font-family="sans-serif" font-size="14" lengthAdjust="spacing" textLength="96" x="238" y="884.9707">numberParking</text><text fill="#000000" font-family="sans-serif" font-size="14" lengthAdjust="spacing" textLength="123" x="238" y="903.5918">availableEquipment</text><text fill="#000000" font-family="sans-serif" font-size="14" lengthAdjust="spacing" textLength="62" x="238" y="922.2129">basement</text><text fill="#000000" font-family="sans-serif" font-size="14" lengthAdjust="spacing" textLength="19" x="238" y="940.834">loft</text><text fill="#000000" font-family="sans-serif" font-size="14" lengthAdjust="spacing" textLength="82" x="238" y="959.4551">sunExposure</text></g><!--class Apartment--><g id="elem_Apartment"><rect codeLine="44" fill="#F1F1F1" height="111.1055" id="Apartment" rx="2.5" ry="2.5" style="stroke:#181818;stroke-width:0.5;" width="135" x="402" y="828"/><text fill="#000000" font-family="sans-serif" font-size="14" lengthAdjust="spacing" textLength="65" x="437" y="848.1074">Apartment</text><line style="stroke:#181818;stroke-width:0.5;" x1="403" x2="536" y1="856.6211" y2="856.6211"/><text fill="#000000" font-family="sans-serif" font-size="14" lengthAdjust="spacing" textLength="112" x="408" y="875.7285">numberBedrooms</text><text fill="#000000" font-family="sans-serif" font-size="14" lengthAdjust="spacing" textLength="116" x="408" y="894.3496">numberBathrooms</text><text fill="#000000" font-family="sans-serif" font-size="14" lengthAdjust="spacing" textLength="96" x="408" y="912.9707">numberParking</text><text fill="#000000" font-family="sans-serif" font-size="14" lengthAdjust="spacing" textLength="123" x="408" y="931.5918">availableEquipment</text></g><!--class Land--><g id="elem_Land"><rect codeLine="50" fill="#F1F1F1" height="36.6211" id="Land" rx="2.5" ry="2.5" style="stroke:#181818;stroke-width:0.5;" width="38" x="572.5" y="865"/><text fill="#000000" font-family="sans-serif" font-size="14" lengthAdjust="spacing" textLength="32" x="575.5" y="885.1074">Land</text><line style="stroke:#181818;stroke-width:0.5;" x1="573.5" x2="609.5" y1="893.6211" y2="893.6211"/></g><!--class Store--><g id="elem_Store"><rect codeLine="53" fill="#F1F1F1" height="111.1055" id="Store" rx="2.5" ry="2.5" style="stroke:#181818;stroke-width:0.5;" width="101" x="677" y="423"/><text fill="#000000" font-family="sans-serif" font-size="14" lengthAdjust="spacing" textLength="34" x="710.5" y="443.1074">Store</text><line style="stroke:#181818;stroke-width:0.5;" x1="678" x2="777" y1="451.6211" y2="451.6211"/><text fill="#000000" font-family="sans-serif" font-size="14" lengthAdjust="spacing" textLength="11" x="683" y="470.7285">id</text><text fill="#000000" font-family="sans-serif" font-size="14" lengthAdjust="spacing" textLength="35" x="683" y="489.3496">name</text><text fill="#000000" font-family="sans-serif" font-size="14" lengthAdjust="spacing" textLength="85" x="683" y="507.9707">emailAddress</text><text fill="#000000" font-family="sans-serif" font-size="14" lengthAdjust="spacing" textLength="89" x="683" y="526.5918">phoneNumber</text></g><!--class Visit--><g id="elem_Visit"><rect codeLine="60" fill="#F1F1F1" height="73.8633" id="Visit" rx="2.5" ry="2.5" style="stroke:#181818;stroke-width:0.5;" width="50" x="896.5" y="441.5"/><text fill="#000000" font-family="sans-serif" font-size="14" lengthAdjust="spacing" textLength="26" x="908.5" y="461.6074">Visit</text><line style="stroke:#181818;stroke-width:0.5;" x1="897.5" x2="945.5" y1="470.1211" y2="470.1211"/><text fill="#000000" font-family="sans-serif" font-size="14" lengthAdjust="spacing" textLength="37" x="902.5" y="489.2285">idVisit</text><text fill="#000000" font-family="sans-serif" font-size="14" lengthAdjust="spacing" textLength="38" x="902.5" y="507.8496">report</text></g><!--class Location--><g id="elem_Location"><rect codeLine="65" fill="#F1F1F1" height="145.6875" id="Location" rx="2.5" ry="2.5" style="stroke:#181818;stroke-width:0.5;" width="64" x="524.5" y="198"/><text fill="#000000" font-family="sans-serif" font-size="12" font-style="italic" lengthAdjust="spacing" textLength="62" x="525.5" y="215.9492">&#171;Interface&#187;</text><text fill="#000000" font-family="sans-serif" font-size="14" lengthAdjust="spacing" textLength="54" x="529.5" y="234.0684">Location</text><line style="stroke:#181818;stroke-width:0.5;" x1="525.5" x2="587.5" y1="242.582" y2="242.582"/><text fill="#000000" font-family="sans-serif" font-size="14" lengthAdjust="spacing" textLength="36" x="530.5" y="261.6895">street</text><text fill="#000000" font-family="sans-serif" font-size="14" lengthAdjust="spacing" textLength="51" x="530.5" y="280.3105">zipCode</text><text fill="#000000" font-family="sans-serif" font-size="14" lengthAdjust="spacing" textLength="49" x="530.5" y="298.9316">stateUS</text><text fill="#000000" font-family="sans-serif" font-size="14" lengthAdjust="spacing" textLength="21" x="530.5" y="317.5527">city</text><text fill="#000000" font-family="sans-serif" font-size="14" lengthAdjust="spacing" textLength="41" x="530.5" y="336.1738">district</text></g><!--class Offer--><g id="elem_Offer"><rect codeLine="73" fill="#F1F1F1" height="73.8633" id="Offer" rx="2.5" ry="2.5" style="stroke:#181818;stroke-width:0.5;" width="50" x="999.5" y="630"/><text fill="#000000" font-family="sans-serif" font-size="14" lengthAdjust="spacing" textLength="32" x="1008.5" y="650.1074">Offer</text><line style="stroke:#181818;stroke-width:0.5;" x1="1000.5" x2="1048.5" y1="658.6211" y2="658.6211"/><text fill="#000000" font-family="sans-serif" font-size="14" lengthAdjust="spacing" textLength="38" x="1005.5" y="677.7285">status</text><text fill="#000000" font-family="sans-serif" font-size="14" lengthAdjust="spacing" textLength="29" x="1005.5" y="696.3496">offer</text></g><!--class Person--><g id="elem_Person"><rect codeLine="79" fill="#F1F1F1" height="129.7266" id="Person" rx="2.5" ry="2.5" style="stroke:#181818;stroke-width:0.5;" width="101" x="506" y="7"/><text fill="#000000" font-family="sans-serif" font-size="14" lengthAdjust="spacing" textLength="45" x="534" y="27.1074">Person</text><line style="stroke:#181818;stroke-width:0.5;" x1="507" x2="606" y1="35.6211" y2="35.6211"/><text fill="#000000" font-family="sans-serif" font-size="14" lengthAdjust="spacing" textLength="85" x="512" y="54.7285">emailAddress</text><text fill="#000000" font-family="sans-serif" font-size="14" lengthAdjust="spacing" textLength="55" x="512" y="73.3496">passport</text><text fill="#000000" font-family="sans-serif" font-size="14" lengthAdjust="spacing" textLength="15" x="512" y="91.9707">tin</text><text fill="#000000" font-family="sans-serif" font-size="14" lengthAdjust="spacing" textLength="89" x="512" y="110.5918">phoneNumber</text><text fill="#000000" font-family="sans-serif" font-size="14" lengthAdjust="spacing" textLength="35" x="512" y="129.2129">name</text></g><!--class Request--><g id="elem_Request"><rect codeLine="87" fill="#F1F1F1" height="71.2031" id="Request" rx="2.5" ry="2.5" style="stroke:#181818;stroke-width:0.5;" width="64" x="227.5" y="443"/><text fill="#000000" font-family="sans-serif" font-size="12" font-style="italic" lengthAdjust="spacing" textLength="62" x="228.5" y="460.9492">&#171;Interface&#187;</text><text fill="#000000" font-family="sans-serif" font-size="14" lengthAdjust="spacing" textLength="53" x="233" y="479.0684">Request</text><line style="stroke:#181818;stroke-width:0.5;" x1="228.5" x2="290.5" y1="487.582" y2="487.582"/><text fill="#000000" font-family="sans-serif" font-size="14" lengthAdjust="spacing" textLength="28" x="233.5" y="506.6895">date</text></g><!--class RequestSale--><g id="elem_RequestSale"><rect codeLine="91" fill="#F1F1F1" height="55.2422" id="RequestSale" rx="2.5" ry="2.5" style="stroke:#181818;stroke-width:0.5;" width="87" x="175" y="639.5"/><text fill="#000000" font-family="sans-serif" font-size="14" lengthAdjust="spacing" textLength="81" x="178" y="659.6074">RequestSale</text><line style="stroke:#181818;stroke-width:0.5;" x1="176" x2="261" y1="668.1211" y2="668.1211"/><text fill="#000000" font-family="sans-serif" font-size="14" lengthAdjust="spacing" textLength="58" x="181" y="687.2285">salePrice</text></g><!--class RequestLease--><g id="elem_RequestLease"><rect codeLine="95" fill="#F1F1F1" height="73.8633" id="RequestLease" rx="2.5" ry="2.5" style="stroke:#181818;stroke-width:0.5;" width="133" x="7" y="630"/><text fill="#000000" font-family="sans-serif" font-size="14" lengthAdjust="spacing" textLength="92" x="27.5" y="650.1074">RequestLease</text><line style="stroke:#181818;stroke-width:0.5;" x1="8" x2="139" y1="658.6211" y2="658.6211"/><text fill="#000000" font-family="sans-serif" font-size="14" lengthAdjust="spacing" textLength="68" x="13" y="677.7285">rentalPrice</text><text fill="#000000" font-family="sans-serif" font-size="14" lengthAdjust="spacing" textLength="121" x="13" y="696.3496">durationOfContract</text></g><!--reverse link Person to Employee--><g id="link_Person_Employee"><path codeLine="102" d="M620.29,146.49 C653.54,184.79 691.48,228.5 712.12,252.29 " fill="none" id="Person-backto-Employee" style="stroke:#181818;stroke-width:1.0;"/><polygon fill="none" points="614.94,151,607.11,131.31,625.51,141.82,614.94,151" style="stroke:#181818;stroke-width:1.0;"/></g><!--link Person to Request--><g id="link_Person_Request"><path codeLine="103" d="M505.85,74.64 C429.56,80.23 287.89,103.52 229.5,198 C182.03,274.8 218.84,386.56 242.9,442.65 " fill="none" id="Person-Request" style="stroke:#181818;stroke-width:1.0;"/><polygon fill="#000000" points="231.5932,275.2137,239.2429,269.5628,234.4604,266.1457,231.5932,275.2137" style="stroke:#000000;stroke-width:1.0;"/><text fill="#000000" font-family="sans-serif" font-size="13" lengthAdjust="spacing" textLength="30" x="243.5" y="276.5283">owns</text><text fill="#000000" font-family="sans-serif" font-size="13" lengthAdjust="spacing" textLength="7" x="490.8967" y="70.8491">1</text><text fill="#000000" font-family="sans-serif" font-size="13" lengthAdjust="spacing" textLength="20" x="218.1619" y="431.7863">1..*</text></g><!--link Person to Request--><g id="link_Person_Request"><path codeLine="107" d="M505.89,90.42 C457.66,109.54 386.38,144.78 344.5,198 C286.17,272.14 267.73,386.09 262.01,442.87 " fill="none" id="Person-Request-1" style="stroke:#181818;stroke-width:1.0;"/><polygon fill="#000000" points="346.6549,275.2571,354.2185,269.4914,349.385,266.1468,346.6549,275.2571" style="stroke:#000000;stroke-width:1.0;"/><text fill="#000000" font-family="sans-serif" font-size="13" lengthAdjust="spacing" textLength="83" x="358.5" y="276.5283">asks to create</text><text fill="#000000" font-family="sans-serif" font-size="13" lengthAdjust="spacing" textLength="7" x="490.9426" y="108.4436">1</text><text fill="#000000" font-family="sans-serif" font-size="13" lengthAdjust="spacing" textLength="5" x="257.0118" y="431.77">*</text></g><!--link Person to Visit--><g id="link_Person_Visit"><path codeLine="104" d="M607.22,91.58 C699.07,128.52 889.19,221.1 951.5,374 C960.4,395.83 953.27,421.24 943.73,441.43 " fill="none" id="Person-Visit" style="stroke:#181818;stroke-width:1.0;"/><polygon fill="#000000" points="943.9662,274.7491,939.8139,266.1928,935.5777,270.2675,943.9662,274.7491" style="stroke:#000000;stroke-width:1.0;"/><text fill="#000000" font-family="sans-serif" font-size="13" lengthAdjust="spacing" textLength="50" x="949.5" y="276.5283">requests</text><text fill="#000000" font-family="sans-serif" font-size="13" lengthAdjust="spacing" textLength="7" x="614.8447" y="90.2061">1</text><text fill="#000000" font-family="sans-serif" font-size="13" lengthAdjust="spacing" textLength="5" x="942.3677" y="430.0958">*</text></g><!--link Person to Offer--><g id="link_Person_Offer"><path codeLine="105" d="M607.09,79.48 C714.27,94.34 958.47,134.54 1008.5,198 C1110.29,327.13 1061.23,544.33 1036.14,629.85 " fill="none" id="Person-Offer" style="stroke:#181818;stroke-width:1.0;"/><polygon fill="#000000" points="1077.5741,387.5888,1074.3308,378.6484,1069.6952,382.2622,1077.5741,387.5888" style="stroke:#000000;stroke-width:1.0;"/><text fill="#000000" font-family="sans-serif" font-size="13" lengthAdjust="spacing" textLength="39" x="1083.5" y="389.0283">makes</text><text fill="#000000" font-family="sans-serif" font-size="13" lengthAdjust="spacing" textLength="7" x="615.0345" y="76.4">1</text><text fill="#000000" font-family="sans-serif" font-size="13" lengthAdjust="spacing" textLength="5" x="1032.7681" y="618.785">*</text></g><!--link Person to Advertisement--><g id="link_Person_Advertisement"><path codeLine="106" d="M524.56,137.19 C496.31,203 464.09,307.53 495.5,393 C530.26,487.58 613.93,571.78 670.69,620.86 " fill="none" id="Person-Advertisement" style="stroke:#181818;stroke-width:1.0;"/><polygon fill="#000000" points="501.9461,388.4318,502.1434,378.9233,496.5168,380.6233,501.9461,388.4318" style="stroke:#000000;stroke-width:1.0;"/><text fill="#000000" font-family="sans-serif" font-size="13" lengthAdjust="spacing" textLength="53" x="509.5" y="389.0283">searches</text><text fill="#000000" font-family="sans-serif" font-size="13" lengthAdjust="spacing" textLength="5" x="516.0084" y="158.8467">*</text><text fill="#000000" font-family="sans-serif" font-size="13" lengthAdjust="spacing" textLength="5" x="656.9788" y="609.8489">*</text></g><!--link Employee to Visit--><g id="link_Employee_Visit"><path codeLine="109" d="M753.35,289.57 C780.04,308.48 822,340.41 852.5,374 C871.08,394.47 888.33,420.34 900.94,441.1 " fill="none" id="Employee-Visit" style="stroke:#181818;stroke-width:1.0;"/><polygon fill="#000000" points="875.9887,387.2273,871.7829,378.6972,867.5723,382.7984,875.9887,387.2273" style="stroke:#000000;stroke-width:1.0;"/><text fill="#000000" font-family="sans-serif" font-size="13" lengthAdjust="spacing" textLength="61" x="881.5" y="389.0283">carries out</text><text fill="#000000" font-family="sans-serif" font-size="13" lengthAdjust="spacing" textLength="7" x="752.6359" y="311.306">1</text><text fill="#000000" font-family="sans-serif" font-size="13" lengthAdjust="spacing" textLength="5" x="891.9766" y="430.276">*</text></g><!--link Employee to Store--><g id="link_Employee_Store"><path codeLine="110" d="M742.82,289.55 C761.09,312.66 787.94,354.85 777.5,393 C774.76,403.03 770.48,413.08 765.56,422.56 " fill="none" id="Employee-Store" style="stroke:#181818;stroke-width:1.0;"/><polygon fill="#000000" points="785.3426,388.574,786.7152,379.163,780.9214,380.1535,785.3426,388.574" style="stroke:#000000;stroke-width:1.0;"/><text fill="#000000" font-family="sans-serif" font-size="13" lengthAdjust="spacing" textLength="50" x="793.5" y="389.0283">monitors</text><text fill="#000000" font-family="sans-serif" font-size="13" lengthAdjust="spacing" textLength="7" x="739.1444" y="311.2803">1</text><text fill="#000000" font-family="sans-serif" font-size="13" lengthAdjust="spacing" textLength="7" x="762.772" y="411.746">1</text></g><!--link Store to Employee--><g id="link_Store_Employee"><path codeLine="117" d="M722.32,422.99 C721.56,413.03 720.9,402.71 720.5,393 C718.98,356.21 722.81,313.17 725.38,289.63 " fill="none" id="Store-Employee" style="stroke:#181818;stroke-width:1.0;"/><polygon fill="#000000" points="725.3853,388.6442,728.5309,379.6689,722.6546,379.5341,725.3853,388.6442" style="stroke:#000000;stroke-width:1.0;"/><text fill="#000000" font-family="sans-serif" font-size="13" lengthAdjust="spacing" textLength="34" x="734.5" y="389.0283">works</text><text fill="#000000" font-family="sans-serif" font-size="13" lengthAdjust="spacing" textLength="7" x="714.2079" y="411.8289">1</text><text fill="#000000" font-family="sans-serif" font-size="13" lengthAdjust="spacing" textLength="5" x="719.1384" y="311.0395">*</text></g><!--link Employee to Request--><g id="link_Employee_Request"><path codeLine="111" d="M705.67,289.57 C672.59,315.45 606.98,363.87 544.5,393 C457.26,433.67 345.87,459.93 291.82,471.19 " fill="none" id="Employee-Request" style="stroke:#181818;stroke-width:1.0;"/><polygon fill="#000000" points="575.9215,385.6548,585.3851,384.7111,583.0231,379.3288,575.9215,385.6548" style="stroke:#000000;stroke-width:1.0;"/><text fill="#000000" font-family="sans-serif" font-size="13" lengthAdjust="spacing" textLength="55" x="589.5" y="389.0283">publishes</text><text fill="#000000" font-family="sans-serif" font-size="13" lengthAdjust="spacing" textLength="7" x="691.5459" y="311.306">1</text><text fill="#000000" font-family="sans-serif" font-size="13" lengthAdjust="spacing" textLength="5" x="299.4369" y="464.7695">*</text></g><!--link Person to Location--><g id="link_Person_Location"><path codeLine="113" d="M556.5,137.23 C556.5,150.06 556.5,163.77 556.5,177.33 " fill="none" id="Person-to-Location" style="stroke:#181818;stroke-width:1.0;stroke-dasharray:7.0,7.0;"/><polygon fill="none" points="563.5,177.66,556.5,197.66,549.5,177.66,563.5,177.66" style="stroke:#181818;stroke-width:1.0;"/></g><!--reverse link Location to Property--><g id="link_Location_Property"><path codeLine="114" d="M506.87,298.17 C478.62,315.74 445.23,341.61 426.5,374 C403.62,413.57 392.23,539.92 387.43,612.8 " fill="none" id="Location-backto-Property" style="stroke:#181818;stroke-width:1.0;stroke-dasharray:7.0,7.0;"/><polygon fill="none" points="503.69,291.91,524.48,287.83,510.78,303.99,503.69,291.91" style="stroke:#181818;stroke-width:1.0;"/></g><!--reverse link Location to Store--><g id="link_Location_Store"><path codeLine="115" d="M566.76,363.87 C570.39,374.27 575.19,384.25 581.5,393 C604.8,425.3 644.55,447.13 676.7,460.5 " fill="none" id="Location-backto-Store" style="stroke:#181818;stroke-width:1.0;stroke-dasharray:7.0,7.0;"/><polygon fill="none" points="559.92,365.4,561.26,344.25,573.4,361.62,559.92,365.4" style="stroke:#181818;stroke-width:1.0;"/></g><!--link Store to Advertisement--><g id="link_Store_Advertisement"><path codeLine="118" d="M727.5,534.2 C727.5,561.71 727.5,594.66 727.5,620.73 " fill="none" id="Store-Advertisement" style="stroke:#181818;stroke-width:1.0;"/><polygon fill="#000000" points="732.5,568.6455,729.5611,577.6906,735.4389,577.6906,732.5,568.6455" style="stroke:#000000;stroke-width:1.0;"/><text fill="#000000" font-family="sans-serif" font-size="13" lengthAdjust="spacing" textLength="82" x="741.5" y="579.0283">associate to a</text><text fill="#000000" font-family="sans-serif" font-size="13" lengthAdjust="spacing" textLength="7" x="720.0734" y="556.064">1</text><text fill="#000000" font-family="sans-serif" font-size="13" lengthAdjust="spacing" textLength="5" x="722.1328" y="609.6998">*</text></g><!--link Advertisement to Offer--><g id="link_Advertisement_Offer"><path codeLine="120" d="M788.32,667 C853.32,667 953.23,667 999.45,667 " fill="none" id="Advertisement-Offer" style="stroke:#181818;stroke-width:1.0;"/><polygon fill="#000000" points="872.75,654.6455,863.7049,651.7066,863.7049,657.5844,872.75,654.6455" style="stroke:#000000;stroke-width:1.0;"/><text fill="#000000" font-family="sans-serif" font-size="13" lengthAdjust="spacing" textLength="47" x="876.75" y="660.0283">receives</text><text fill="#000000" font-family="sans-serif" font-size="13" lengthAdjust="spacing" textLength="7" x="796.159" y="662.9806">1</text><text fill="#000000" font-family="sans-serif" font-size="13" lengthAdjust="spacing" textLength="5" x="986.3572" y="661.5943">*</text></g><!--link Visit to Advertisement--><g id="link_Visit_Advertisement"><path codeLine="121" d="M896.5,511.7 C879.42,532.87 855.76,560.69 832.5,583 C818.75,596.19 803.04,609.45 788.03,621.38 " fill="none" id="Visit-Advertisement" style="stroke:#181818;stroke-width:1.0;"/><polygon fill="#000000" points="859.0159,570.0904,850.566,574.4551,854.7452,578.5882,859.0159,570.0904" style="stroke:#000000;stroke-width:1.0;"/><text fill="#000000" font-family="sans-serif" font-size="13" lengthAdjust="spacing" textLength="32" x="864.5" y="579.0283">hosts</text><text fill="#000000" font-family="sans-serif" font-size="13" lengthAdjust="spacing" textLength="5" x="883.4219" y="516.0468">*</text><text fill="#000000" font-family="sans-serif" font-size="13" lengthAdjust="spacing" textLength="7" x="795.8337" y="611.8007">1</text></g><!--link Property to PropertyType--><g id="link_Property_PropertyType"><path codeLine="123" d="M318.23,712.48 C285.16,736.35 245.67,767.5 214.5,800 C197.81,817.4 181.19,838.99 169.07,855.72 " fill="none" id="Property-PropertyType" style="stroke:#181818;stroke-width:1.0;"/><polygon fill="#000000" points="275.1064,757.1823,266.5467,761.3276,270.618,765.5671,275.1064,757.1823" style="stroke:#000000;stroke-width:1.0;"/><text fill="#000000" font-family="sans-serif" font-size="13" lengthAdjust="spacing" textLength="49" x="280.5" y="766.0283">contains</text><text fill="#000000" font-family="sans-serif" font-size="13" lengthAdjust="spacing" textLength="7" x="303.5989" y="713.5446">1</text><text fill="#000000" font-family="sans-serif" font-size="13" lengthAdjust="spacing" textLength="5" x="167.5853" y="844.8174">*</text></g><!--reverse link Request to RequestLease--><g id="link_Request_RequestLease"><path codeLine="125" d="M212.74,526.38 C180.79,558.42 139.07,600.25 109.66,629.74 " fill="none" id="Request-backto-RequestLease" style="stroke:#181818;stroke-width:1.0;stroke-dasharray:7.0,7.0;"/><polygon fill="none" points="208.02,521.2,227.1,511.99,217.93,531.09,208.02,521.2" style="stroke:#181818;stroke-width:1.0;"/></g><!--reverse link Request to RequestSale--><g id="link_Request_RequestSale"><path codeLine="126" d="M247.22,533.8 C244.97,543.84 242.65,554.23 240.5,564 C234.89,589.48 228.63,618.56 224.23,639.14 " fill="none" id="Request-backto-RequestSale" style="stroke:#181818;stroke-width:1.0;stroke-dasharray:7.0,7.0;"/><polygon fill="none" points="240.45,532,251.67,514.02,254.11,535.07,240.45,532" style="stroke:#181818;stroke-width:1.0;"/></g><!--link BusinessType to Request--><g id="link_BusinessType_Request"><path codeLine="127" d="M129.2,478.5 C160.3,478.5 200.05,478.5 227.42,478.5 " fill="none" id="BusinessType-Request" style="stroke:#181818;stroke-width:1.0;"/><polygon fill="#000000" points="146.25,466.1455,155.2951,469.0844,155.2951,463.2066,146.25,466.1455" style="stroke:#000000;stroke-width:1.0;"/><text fill="#000000" font-family="sans-serif" font-size="13" lengthAdjust="spacing" textLength="49" x="160.25" y="471.5283">contains</text><text fill="#000000" font-family="sans-serif" font-size="13" lengthAdjust="spacing" textLength="7" x="137.04" y="474.2305">1</text><text fill="#000000" font-family="sans-serif" font-size="13" lengthAdjust="spacing" textLength="5" x="214.4234" y="473.5729">*</text></g><!--link Request to Property--><g id="link_Request_Property"><path codeLine="128" d="M261.05,514.28 C263.35,535.47 268.81,562.34 281.5,583 C291,598.46 304.44,612.28 318.49,624 " fill="none" id="Request-Property" style="stroke:#181818;stroke-width:1.0;"/><text fill="#000000" font-family="sans-serif" font-size="13" lengthAdjust="spacing" textLength="7" x="253.7027" y="536.2035">1</text><text fill="#000000" font-family="sans-serif" font-size="13" lengthAdjust="spacing" textLength="7" x="303.4529" y="615.0647">1</text></g><!--link Request to Advertisement--><g id="link_Request_Advertisement"><path codeLine="129" d="M291.57,512.85 C315.43,535.8 349.91,565.24 385.5,583 C434.5,607.45 582.55,638.35 666.92,654.69 " fill="none" id="Request-Advertisement" style="stroke:#181818;stroke-width:1.0;"/><polygon fill="#000000" points="385.8228,571.8781,393.245,577.8246,395.3228,572.3262,385.8228,571.8781" style="stroke:#000000;stroke-width:1.0;"/><text fill="#000000" font-family="sans-serif" font-size="13" lengthAdjust="spacing" textLength="49" x="399.5" y="579.0283">contains</text><text fill="#000000" font-family="sans-serif" font-size="13" lengthAdjust="spacing" textLength="7" x="299.3509" y="515.5426">1</text><text fill="#000000" font-family="sans-serif" font-size="13" lengthAdjust="spacing" textLength="7" x="652.1103" y="649.1703">1</text></g><!--reverse link Property to Land--><g id="link_Property_Land"><path codeLine="131" d="M467.19,719.64 C497.54,741.6 530.34,769.26 554.5,800 C570.02,819.75 580.59,847.04 586.34,864.73 " fill="none" id="Property-backto-Land" style="stroke:#181818;stroke-width:1.0;stroke-dasharray:7.0,7.0;"/><polygon fill="none" points="463,725.25,450.65,708.04,471.04,713.79,463,725.25" style="stroke:#181818;stroke-width:1.0;"/></g><!--reverse link Property to Apartment--><g id="link_Property_Apartment"><path codeLine="132" d="M412.92,739.73 C424.32,768.48 437.23,801.07 447.84,827.85 " fill="none" id="Property-backto-Apartment" style="stroke:#181818;stroke-width:1.0;stroke-dasharray:7.0,7.0;"/><polygon fill="none" points="406.37,742.19,405.51,721.02,419.39,737.04,406.37,742.19" style="stroke:#181818;stroke-width:1.0;"/></g><!--reverse link Property to House--><g id="link_Property_House"><path codeLine="133" d="M356.01,739.89 C348.42,759.05 340.15,779.91 332.35,799.61 " fill="none" id="Property-backto-House" style="stroke:#181818;stroke-width:1.0;stroke-dasharray:7.0,7.0;"/><polygon fill="none" points="349.61,737.04,363.49,721.02,362.63,742.19,349.61,737.04" style="stroke:#181818;stroke-width:1.0;"/></g><!--SRC=[hLLBRzim3BxhLmYv31WG5xq6GO0sAB01nHeiM- -CpSH2PCaLvNPPsly-Ml8pyO0TbaCianzV7sdgK-vzIOkRcrA3yLMXazGMDwa6edccuE2W47HKfWG-oS8Qc-RE5YYzgt2WAI4zmW6t_gHHEamzc8CU0YY7pBufSv1xq8GYLndALBbKD-S2VMup4aA4wFAXABKz8Px5X-Y4TzahEgy82pHUdeNa7oTSA29bpJDeJcei-t4geoW3ZxMhwEY-8cMGg5OtVZ8aTJ3WsQZ7RPmjEUAfnlq3J2wNNur7juSKLwjeKERMMmf7S0WjD3fJn4obk5R-jCRQilVvnLRKvcQgOeVk7ZDdRK534VZyKhO1nxGVOiHNK1fs6XzUAbNMh0Nn3YA5uKNRVJnGPHv-bPOgDs3gZlldQ-p_p-IZ2V489Zj_T4tUUkiQibKMlK4HcuW5ExdBCiUjQyar-2q4wrD-LgHywo2yXBF3qZhVmnvj6jeuRbh3E7c76Er-gt9jCsp4F4O_jt78rA2BJgK3rq_xFRfpPr75P6qj5NsX6tHapValbJ4Yv5k_U6Mkoks8wQ9-nvSAoK_Cu7Zu6zmMDDDC_B_XxA_rZyXJScweCnvqX0L_bGlKFUtNrdW7iNOXOaLo-JwVTnzmAvpTpYIBPxT9yddMnbX8-sP8hYv1Z0YDMt3e09p619uNie0Z3W6icJjro7r4ZRR6GXA2ItEyz1YWNLf0HvBUofG_MOyC5Mqz4pdA59nJxD5Mdg5NI7w4eMOahr35Hvg23UENrKuhYbcAVbBVawfCci4PYPDk1rs8Gs0XmcCOgOs-a6_MSQtBQyW5RpmQDbKr6ymBi84O0OBXWFMcDtmPe7eDTOotTy1NvOZ8tCPEYswX1XJV72RYXljumMkUnrAPEddHC1UB7axmfAQU_KuHvaNZtiTM3U-6GOnLZ-_Rsf4-eHlJDyorloxUaxgs9Ap02N6tV2TquNuGVm00]--></g></svg>