<?xml version="1.0" encoding="us-ascii" standalone="no"?><svg xmlns="http://www.w3.org/2000/svg" xmlns:xlink="http://www.w3.org/1999/xlink" contentStyleType="text/css" height="1552px" preserveAspectRatio="none" style="width:778px;height:1552px;background:#FFFFFF;" version="1.1" viewBox="0 0 778 1552" width="778px" zoomAndPan="magnify"><defs/><g><text fill="#000000" font-family="sans-serif" font-size="14" font-weight="bold" lengthAdjust="spacing" textLength="195" x="289.25" y="27.6738">Sequence Diagram Full (SD)</text><rect fill="#FFFFFF" height="1335.0625" style="stroke:#181818;stroke-width:1.0;" width="10" x="36" y="127.2813"/><rect fill="#FFFFFF" height="226.5938" style="stroke:#181818;stroke-width:1.0;" width="10" x="275" y="147.8047"/><rect fill="#FFFFFF" height="184.5469" style="stroke:#181818;stroke-width:1.0;" width="10" x="275" y="402.9219"/><rect fill="#FFFFFF" height="199.0703" style="stroke:#181818;stroke-width:1.0;" width="10" x="275" y="615.9922"/><rect fill="#FFFFFF" height="70.0469" style="stroke:#181818;stroke-width:1.0;" width="10" x="275" y="843.5859"/><rect fill="#FFFFFF" height="70.0469" style="stroke:#181818;stroke-width:1.0;" width="10" x="275" y="942.1563"/><rect fill="#FFFFFF" height="326.0469" style="stroke:#181818;stroke-width:1.0;" width="10" x="275" y="1040.7266"/><rect fill="#FFFFFF" height="52.0469" style="stroke:#181818;stroke-width:1.0;" width="10" x="275" y="1395.2969"/><rect fill="#FFFFFF" height="1277.0156" style="stroke:#181818;stroke-width:1.0;" width="10" x="632" y="186.3281"/><rect fill="#FFFFFF" height="71.4531" style="stroke:#181818;stroke-width:1.0;" width="10" x="637" y="259.8984"/><rect fill="#FFFFFF" height="71.4531" style="stroke:#181818;stroke-width:1.0;" width="10" x="637" y="472.9688"/><rect fill="#FFFFFF" height="71.4531" style="stroke:#181818;stroke-width:1.0;" width="10" x="637" y="700.5625"/><rect fill="#FFFFFF" height="71.4531" style="stroke:#181818;stroke-width:1.0;" width="10" x="637" y="1110.7734"/><rect fill="#FFFFFF" height="71.4531" style="stroke:#181818;stroke-width:1.0;" width="10" x="637" y="1252.2734"/><rect fill="none" height="45.0469" style="stroke:#000000;stroke-width:1.5;" width="337.5" x="10" y="1410.2969"/><line style="stroke:#181818;stroke-width:0.5;stroke-dasharray:5.0,5.0;" x1="41" x2="41" y1="117.2813" y2="1472.3438"/><line style="stroke:#181818;stroke-width:0.5;stroke-dasharray:5.0,5.0;" x1="279.5" x2="279.5" y1="117.2813" y2="1472.3438"/><line style="stroke:#181818;stroke-width:0.5;stroke-dasharray:5.0,5.0;" x1="636.5" x2="636.5" y1="186.125" y2="1472.3438"/><text fill="#000000" font-family="sans-serif" font-size="14" lengthAdjust="spacing" textLength="36" x="20" y="114.3145">Client</text><ellipse cx="41" cy="50.1406" fill="#E3E3E3" rx="8" ry="8" style="stroke:#181818;stroke-width:0.5;"/><path d="M41,58.1406 L41,85.1406 M28,66.1406 L54,66.1406 M41,85.1406 L28,100.1406 M41,85.1406 L54,100.1406 " fill="none" style="stroke:#181818;stroke-width:0.5;"/><text fill="#000000" font-family="sans-serif" font-size="14" lengthAdjust="spacing" textLength="36" x="20" y="1484.0176">Client</text><ellipse cx="41" cy="1495.4844" fill="#E3E3E3" rx="8" ry="8" style="stroke:#181818;stroke-width:0.5;"/><path d="M41,1503.4844 L41,1530.4844 M28,1511.4844 L54,1511.4844 M41,1530.4844 L28,1545.4844 M41,1530.4844 L54,1545.4844 " fill="none" style="stroke:#181818;stroke-width:0.5;"/><rect fill="#E3E3E3" height="29.6406" rx="2.5" ry="2.5" style="stroke:#181818;stroke-width:0.5;" width="115" x="222.5" y="86.6406"/><text fill="#000000" font-family="sans-serif" font-size="14" lengthAdjust="spacing" textLength="101" x="229.5" y="106.3145">:ScheduleVisitUI</text><rect fill="#E3E3E3" height="29.6406" rx="2.5" ry="2.5" style="stroke:#181818;stroke-width:0.5;" width="115" x="222.5" y="1471.3438"/><text fill="#000000" font-family="sans-serif" font-size="14" lengthAdjust="spacing" textLength="101" x="229.5" y="1491.0176">:ScheduleVisitUI</text><rect fill="#E3E3E3" height="29.6406" rx="2.5" ry="2.5" style="stroke:#181818;stroke-width:0.5;" width="165" x="554.5" y="1471.3438"/><text fill="#000000" font-family="sans-serif" font-size="14" lengthAdjust="spacing" textLength="151" x="561.5" y="1491.0176">:ScheduleVisitController</text><rect fill="#FFFFFF" height="1335.0625" style="stroke:#181818;stroke-width:1.0;" width="10" x="36" y="127.2813"/><rect fill="#FFFFFF" height="226.5938" style="stroke:#181818;stroke-width:1.0;" width="10" x="275" y="147.8047"/><rect fill="#FFFFFF" height="184.5469" style="stroke:#181818;stroke-width:1.0;" width="10" x="275" y="402.9219"/><rect fill="#FFFFFF" height="199.0703" style="stroke:#181818;stroke-width:1.0;" width="10" x="275" y="615.9922"/><rect fill="#FFFFFF" height="70.0469" style="stroke:#181818;stroke-width:1.0;" width="10" x="275" y="843.5859"/><rect fill="#FFFFFF" height="70.0469" style="stroke:#181818;stroke-width:1.0;" width="10" x="275" y="942.1563"/><rect fill="#FFFFFF" height="326.0469" style="stroke:#181818;stroke-width:1.0;" width="10" x="275" y="1040.7266"/><rect fill="#FFFFFF" height="52.0469" style="stroke:#181818;stroke-width:1.0;" width="10" x="275" y="1395.2969"/><rect fill="#FFFFFF" height="1277.0156" style="stroke:#181818;stroke-width:1.0;" width="10" x="632" y="186.3281"/><rect fill="#FFFFFF" height="71.4531" style="stroke:#181818;stroke-width:1.0;" width="10" x="637" y="259.8984"/><rect fill="#FFFFFF" height="71.4531" style="stroke:#181818;stroke-width:1.0;" width="10" x="637" y="472.9688"/><rect fill="#FFFFFF" height="71.4531" style="stroke:#181818;stroke-width:1.0;" width="10" x="637" y="700.5625"/><rect fill="#FFFFFF" height="71.4531" style="stroke:#181818;stroke-width:1.0;" width="10" x="637" y="1110.7734"/><rect fill="#FFFFFF" height="71.4531" style="stroke:#181818;stroke-width:1.0;" width="10" x="637" y="1252.2734"/><polygon fill="#181818" points="263,143.8047,273,147.8047,263,151.8047,267,147.8047" style="stroke:#181818;stroke-width:1.0;"/><line style="stroke:#181818;stroke-width:1.0;" x1="46" x2="269" y1="147.8047" y2="147.8047"/><text fill="#000000" font-family="sans-serif" font-size="13" font-weight="bold" lengthAdjust="spacing" textLength="7" x="53" y="143.0498">1</text><text fill="#000000" font-family="sans-serif" font-size="13" lengthAdjust="spacing" textLength="193" x="64" y="143.0498">asks to Schedule a Visit property</text><polygon fill="#181818" points="542.5,172.3281,552.5,176.3281,542.5,180.3281,546.5,176.3281" style="stroke:#181818;stroke-width:1.0;"/><line style="stroke:#181818;stroke-width:1.0;" x1="285" x2="548.5" y1="176.3281" y2="176.3281"/><text fill="#000000" font-family="sans-serif" font-size="13" font-weight="bold" lengthAdjust="spacing" textLength="7" x="292" y="171.5732">2</text><text fill="#000000" font-family="sans-serif" font-size="13" lengthAdjust="spacing" textLength="36" x="303" y="171.5732">create</text><rect fill="#E3E3E3" height="29.6406" rx="2.5" ry="2.5" style="stroke:#181818;stroke-width:0.5;" width="165" x="554.5" y="155.8047"/><text fill="#000000" font-family="sans-serif" font-size="14" lengthAdjust="spacing" textLength="151" x="561.5" y="175.4785">:ScheduleVisitController</text><rect fill="none" height="37.9297" style="stroke:#000000;stroke-width:1.5;" width="171" x="551.5" y="196.4453"/><path d="M551.5,196.4453 L613.5,196.4453 L613.5,202.4453 L603.5,212.4453 L551.5,212.4453 L551.5,196.4453 " fill="#EEEEEE" style="stroke:#000000;stroke-width:2.0;"/><text fill="#000000" font-family="sans-serif" font-size="13" font-weight="bold" lengthAdjust="spacing" textLength="17" x="564.5" y="210.2139">ref</text><text fill="#000000" font-family="sans-serif" font-size="12" lengthAdjust="spacing" textLength="93" x="590.5" y="227.3086">Get Repositories</text><polygon fill="#181818" points="625,255.8984,635,259.8984,625,263.8984,629,259.8984" style="stroke:#181818;stroke-width:1.0;"/><line style="stroke:#181818;stroke-width:1.0;" x1="285" x2="631" y1="259.8984" y2="259.8984"/><text fill="#000000" font-family="sans-serif" font-size="13" font-weight="bold" lengthAdjust="spacing" textLength="7" x="292" y="255.1436">3</text><text fill="#000000" font-family="sans-serif" font-size="13" lengthAdjust="spacing" textLength="169" x="303" y="255.1436">listAndChoosePropertyType()</text><rect fill="none" height="37.9297" style="stroke:#000000;stroke-width:1.5;" width="171" x="551.5" y="267.8984"/><path d="M551.5,267.8984 L613.5,267.8984 L613.5,273.8984 L603.5,283.8984 L551.5,283.8984 L551.5,267.8984 " fill="#EEEEEE" style="stroke:#000000;stroke-width:2.0;"/><text fill="#000000" font-family="sans-serif" font-size="13" font-weight="bold" lengthAdjust="spacing" textLength="17" x="564.5" y="281.667">ref</text><text fill="#000000" font-family="sans-serif" font-size="12" lengthAdjust="spacing" textLength="113" x="580.5" y="298.7617">Get PropertyTypeList</text><polygon fill="#181818" points="296,327.3516,286,331.3516,296,335.3516,292,331.3516" style="stroke:#181818;stroke-width:1.0;"/><line style="stroke:#181818;stroke-width:1.0;stroke-dasharray:2.0,2.0;" x1="290" x2="631" y1="331.3516" y2="331.3516"/><text fill="#000000" font-family="sans-serif" font-size="13" font-weight="bold" lengthAdjust="spacing" textLength="7" x="302" y="326.5967">4</text><text fill="#000000" font-family="sans-serif" font-size="13" lengthAdjust="spacing" textLength="103" x="313" y="326.5967">propertyTypesList</text><polygon fill="#181818" points="57,370.3984,47,374.3984,57,378.3984,53,374.3984" style="stroke:#181818;stroke-width:1.0;"/><line style="stroke:#181818;stroke-width:1.0;stroke-dasharray:2.0,2.0;" x1="51" x2="279" y1="374.3984" y2="374.3984"/><text fill="#000000" font-family="sans-serif" font-size="13" font-weight="bold" lengthAdjust="spacing" textLength="7" x="63" y="362.3818">5</text><text fill="#000000" font-family="sans-serif" font-size="13" lengthAdjust="spacing" textLength="147" x="74" y="355.1201">shows Property Type List</text><text fill="#000000" font-family="sans-serif" font-size="13" lengthAdjust="spacing" textLength="132" x="78" y="369.6436">and asks to select one</text><polygon fill="#181818" points="263,398.9219,273,402.9219,263,406.9219,267,402.9219" style="stroke:#181818;stroke-width:1.0;"/><line style="stroke:#181818;stroke-width:1.0;" x1="46" x2="269" y1="402.9219" y2="402.9219"/><text fill="#000000" font-family="sans-serif" font-size="13" font-weight="bold" lengthAdjust="spacing" textLength="7" x="53" y="398.167">6</text><text fill="#000000" font-family="sans-serif" font-size="13" lengthAdjust="spacing" textLength="138" x="64" y="398.167">selects a Property Type</text><line style="stroke:#181818;stroke-width:1.0;" x1="285" x2="327" y1="431.4453" y2="431.4453"/><line style="stroke:#181818;stroke-width:1.0;" x1="327" x2="327" y1="431.4453" y2="444.4453"/><line style="stroke:#181818;stroke-width:1.0;" x1="286" x2="327" y1="444.4453" y2="444.4453"/><polygon fill="#181818" points="296,440.4453,286,444.4453,296,448.4453,292,444.4453" style="stroke:#181818;stroke-width:1.0;"/><text fill="#000000" font-family="sans-serif" font-size="13" font-weight="bold" lengthAdjust="spacing" textLength="7" x="292" y="426.6904">7</text><text fill="#000000" font-family="sans-serif" font-size="13" lengthAdjust="spacing" textLength="105" x="303" y="426.6904">keepPropertyType</text><polygon fill="#181818" points="625,468.9688,635,472.9688,625,476.9688,629,472.9688" style="stroke:#181818;stroke-width:1.0;"/><line style="stroke:#181818;stroke-width:1.0;" x1="285" x2="631" y1="472.9688" y2="472.9688"/><text fill="#000000" font-family="sans-serif" font-size="13" font-weight="bold" lengthAdjust="spacing" textLength="7" x="292" y="468.2139">8</text><text fill="#000000" font-family="sans-serif" font-size="13" lengthAdjust="spacing" textLength="174" x="303" y="468.2139">listAndChooseBusinessType()</text><rect fill="none" height="37.9297" style="stroke:#000000;stroke-width:1.5;" width="171" x="551.5" y="480.9688"/><path d="M551.5,480.9688 L613.5,480.9688 L613.5,486.9688 L603.5,496.9688 L551.5,496.9688 L551.5,480.9688 " fill="#EEEEEE" style="stroke:#000000;stroke-width:2.0;"/><text fill="#000000" font-family="sans-serif" font-size="13" font-weight="bold" lengthAdjust="spacing" textLength="17" x="564.5" y="494.7373">ref</text><text fill="#000000" font-family="sans-serif" font-size="12" lengthAdjust="spacing" textLength="121" x="576.5" y="511.832">Get BusinessTypeList</text><polygon fill="#181818" points="296,540.4219,286,544.4219,296,548.4219,292,544.4219" style="stroke:#181818;stroke-width:1.0;"/><line style="stroke:#181818;stroke-width:1.0;stroke-dasharray:2.0,2.0;" x1="290" x2="631" y1="544.4219" y2="544.4219"/><text fill="#000000" font-family="sans-serif" font-size="13" font-weight="bold" lengthAdjust="spacing" textLength="7" x="302" y="539.667">9</text><text fill="#000000" font-family="sans-serif" font-size="13" lengthAdjust="spacing" textLength="108" x="313" y="539.667">businessTypesList</text><polygon fill="#181818" points="57,583.4688,47,587.4688,57,591.4688,53,587.4688" style="stroke:#181818;stroke-width:1.0;"/><line style="stroke:#181818;stroke-width:1.0;stroke-dasharray:2.0,2.0;" x1="51" x2="279" y1="587.4688" y2="587.4688"/><text fill="#000000" font-family="sans-serif" font-size="13" font-weight="bold" lengthAdjust="spacing" textLength="14" x="63" y="575.4521">10</text><text fill="#000000" font-family="sans-serif" font-size="13" lengthAdjust="spacing" textLength="152" x="81" y="568.1904">shows Business Type List</text><text fill="#000000" font-family="sans-serif" font-size="13" lengthAdjust="spacing" textLength="132" x="85" y="582.7139">and asks to select one</text><polygon fill="#181818" points="263,611.9922,273,615.9922,263,619.9922,267,615.9922" style="stroke:#181818;stroke-width:1.0;"/><line style="stroke:#181818;stroke-width:1.0;" x1="46" x2="269" y1="615.9922" y2="615.9922"/><text fill="#000000" font-family="sans-serif" font-size="13" font-weight="bold" lengthAdjust="spacing" textLength="14" x="53" y="611.2373">11</text><text fill="#000000" font-family="sans-serif" font-size="13" lengthAdjust="spacing" textLength="143" x="71" y="611.2373">selects a Business Type</text><line style="stroke:#181818;stroke-width:1.0;" x1="285" x2="327" y1="644.5156" y2="644.5156"/><line style="stroke:#181818;stroke-width:1.0;" x1="327" x2="327" y1="644.5156" y2="657.5156"/><line style="stroke:#181818;stroke-width:1.0;" x1="286" x2="327" y1="657.5156" y2="657.5156"/><polygon fill="#181818" points="296,653.5156,286,657.5156,296,661.5156,292,657.5156" style="stroke:#181818;stroke-width:1.0;"/><text fill="#000000" font-family="sans-serif" font-size="13" font-weight="bold" lengthAdjust="spacing" textLength="14" x="292" y="639.7607">12</text><text fill="#000000" font-family="sans-serif" font-size="13" lengthAdjust="spacing" textLength="110" x="310" y="639.7607">keepBusinessType</text><polygon fill="#181818" points="625,696.5625,635,700.5625,625,704.5625,629,700.5625" style="stroke:#181818;stroke-width:1.0;"/><line style="stroke:#181818;stroke-width:1.0;" x1="285" x2="631" y1="700.5625" y2="700.5625"/><text fill="#000000" font-family="sans-serif" font-size="13" font-weight="bold" lengthAdjust="spacing" textLength="14" x="292" y="688.5459">13</text><text fill="#000000" font-family="sans-serif" font-size="13" lengthAdjust="spacing" textLength="256" x="310" y="681.2842">listAndDisplayandChooseAdvertisementDTO</text><text fill="#000000" font-family="sans-serif" font-size="13" lengthAdjust="spacing" textLength="251" x="310" y="695.8076">(propertyTypeChoice, businessTypeChoice)</text><rect fill="none" height="37.9297" style="stroke:#000000;stroke-width:1.5;" width="221" x="551.5" y="708.5625"/><path d="M551.5,708.5625 L613.5,708.5625 L613.5,714.5625 L603.5,724.5625 L551.5,724.5625 L551.5,708.5625 " fill="#EEEEEE" style="stroke:#000000;stroke-width:2.0;"/><text fill="#000000" font-family="sans-serif" font-size="13" font-weight="bold" lengthAdjust="spacing" textLength="17" x="564.5" y="722.3311">ref</text><text fill="#000000" font-family="sans-serif" font-size="12" lengthAdjust="spacing" textLength="213" x="555.5" y="739.4258">Get AdvertismentDTOListSortedByDate</text><polygon fill="#181818" points="296,768.0156,286,772.0156,296,776.0156,292,772.0156" style="stroke:#181818;stroke-width:1.0;"/><line style="stroke:#181818;stroke-width:1.0;" x1="290" x2="631" y1="772.0156" y2="772.0156"/><text fill="#000000" font-family="sans-serif" font-size="13" font-weight="bold" lengthAdjust="spacing" textLength="14" x="302" y="767.2607">14</text><text fill="#000000" font-family="sans-serif" font-size="13" lengthAdjust="spacing" textLength="210" x="320" y="767.2607">AdvertisementDTOListSortedByDate</text><polygon fill="#181818" points="57,811.0625,47,815.0625,57,819.0625,53,815.0625" style="stroke:#181818;stroke-width:1.0;"/><line style="stroke:#181818;stroke-width:1.0;stroke-dasharray:2.0,2.0;" x1="51" x2="279" y1="815.0625" y2="815.0625"/><text fill="#000000" font-family="sans-serif" font-size="13" font-weight="bold" lengthAdjust="spacing" textLength="14" x="63" y="803.0459">15</text><text fill="#000000" font-family="sans-serif" font-size="13" lengthAdjust="spacing" textLength="167" x="81" y="795.7842">shows AdvertismentDTO List</text><text fill="#000000" font-family="sans-serif" font-size="13" lengthAdjust="spacing" textLength="132" x="85" y="810.3076">and asks to select one</text><polygon fill="#181818" points="263,839.5859,273,843.5859,263,847.5859,267,843.5859" style="stroke:#181818;stroke-width:1.0;"/><line style="stroke:#181818;stroke-width:1.0;" x1="46" x2="269" y1="843.5859" y2="843.5859"/><text fill="#000000" font-family="sans-serif" font-size="13" font-weight="bold" lengthAdjust="spacing" textLength="14" x="53" y="838.8311">16</text><text fill="#000000" font-family="sans-serif" font-size="13" lengthAdjust="spacing" textLength="158" x="71" y="838.8311">selects a AdvertismentDTO</text><line style="stroke:#181818;stroke-width:1.0;" x1="285" x2="327" y1="872.1094" y2="872.1094"/><line style="stroke:#181818;stroke-width:1.0;" x1="327" x2="327" y1="872.1094" y2="885.1094"/><line style="stroke:#181818;stroke-width:1.0;" x1="286" x2="327" y1="885.1094" y2="885.1094"/><polygon fill="#181818" points="296,881.1094,286,885.1094,296,889.1094,292,885.1094" style="stroke:#181818;stroke-width:1.0;"/><text fill="#000000" font-family="sans-serif" font-size="13" font-weight="bold" lengthAdjust="spacing" textLength="14" x="292" y="867.3545">17</text><text fill="#000000" font-family="sans-serif" font-size="13" lengthAdjust="spacing" textLength="129" x="310" y="867.3545">keepAdvertismentDTO</text><polygon fill="#181818" points="57,909.6328,47,913.6328,57,917.6328,53,913.6328" style="stroke:#181818;stroke-width:1.0;"/><line style="stroke:#181818;stroke-width:1.0;" x1="51" x2="279" y1="913.6328" y2="913.6328"/><text fill="#000000" font-family="sans-serif" font-size="13" font-weight="bold" lengthAdjust="spacing" textLength="14" x="63" y="908.8779">18</text><text fill="#000000" font-family="sans-serif" font-size="13" lengthAdjust="spacing" textLength="87" x="81" y="908.8779">ask data (date)</text><polygon fill="#181818" points="263,938.1563,273,942.1563,263,946.1563,267,942.1563" style="stroke:#181818;stroke-width:1.0;"/><line style="stroke:#181818;stroke-width:1.0;" x1="46" x2="269" y1="942.1563" y2="942.1563"/><text fill="#000000" font-family="sans-serif" font-size="13" font-weight="bold" lengthAdjust="spacing" textLength="14" x="53" y="937.4014">19</text><text fill="#000000" font-family="sans-serif" font-size="13" lengthAdjust="spacing" textLength="137" x="71" y="937.4014">types asked data (date)</text><line style="stroke:#181818;stroke-width:1.0;" x1="285" x2="327" y1="970.6797" y2="970.6797"/><line style="stroke:#181818;stroke-width:1.0;" x1="327" x2="327" y1="970.6797" y2="983.6797"/><line style="stroke:#181818;stroke-width:1.0;" x1="286" x2="327" y1="983.6797" y2="983.6797"/><polygon fill="#181818" points="296,979.6797,286,983.6797,296,987.6797,292,983.6797" style="stroke:#181818;stroke-width:1.0;"/><text fill="#000000" font-family="sans-serif" font-size="13" font-weight="bold" lengthAdjust="spacing" textLength="14" x="292" y="965.9248">20</text><text fill="#000000" font-family="sans-serif" font-size="13" lengthAdjust="spacing" textLength="94" x="310" y="965.9248">keep data (date)</text><polygon fill="#181818" points="57,1008.2031,47,1012.2031,57,1016.2031,53,1012.2031" style="stroke:#181818;stroke-width:1.0;"/><line style="stroke:#181818;stroke-width:1.0;" x1="51" x2="279" y1="1012.2031" y2="1012.2031"/><text fill="#000000" font-family="sans-serif" font-size="13" font-weight="bold" lengthAdjust="spacing" textLength="14" x="63" y="1007.4482">21</text><text fill="#000000" font-family="sans-serif" font-size="13" lengthAdjust="spacing" textLength="87" x="81" y="1007.4482">ask data (hour)</text><polygon fill="#181818" points="263,1036.7266,273,1040.7266,263,1044.7266,267,1040.7266" style="stroke:#181818;stroke-width:1.0;"/><line style="stroke:#181818;stroke-width:1.0;" x1="46" x2="269" y1="1040.7266" y2="1040.7266"/><text fill="#000000" font-family="sans-serif" font-size="13" font-weight="bold" lengthAdjust="spacing" textLength="14" x="53" y="1035.9717">22</text><text fill="#000000" font-family="sans-serif" font-size="13" lengthAdjust="spacing" textLength="137" x="71" y="1035.9717">types asked data (hour)</text><line style="stroke:#181818;stroke-width:1.0;" x1="285" x2="327" y1="1069.25" y2="1069.25"/><line style="stroke:#181818;stroke-width:1.0;" x1="327" x2="327" y1="1069.25" y2="1082.25"/><line style="stroke:#181818;stroke-width:1.0;" x1="286" x2="327" y1="1082.25" y2="1082.25"/><polygon fill="#181818" points="296,1078.25,286,1082.25,296,1086.25,292,1082.25" style="stroke:#181818;stroke-width:1.0;"/><text fill="#000000" font-family="sans-serif" font-size="13" font-weight="bold" lengthAdjust="spacing" textLength="14" x="292" y="1064.4951">23</text><text fill="#000000" font-family="sans-serif" font-size="13" lengthAdjust="spacing" textLength="94" x="310" y="1064.4951">keep data (hour)</text><polygon fill="#181818" points="625,1106.7734,635,1110.7734,625,1114.7734,629,1110.7734" style="stroke:#181818;stroke-width:1.0;"/><line style="stroke:#181818;stroke-width:1.0;" x1="285" x2="631" y1="1110.7734" y2="1110.7734"/><text fill="#000000" font-family="sans-serif" font-size="13" font-weight="bold" lengthAdjust="spacing" textLength="14" x="292" y="1106.0186">24</text><text fill="#000000" font-family="sans-serif" font-size="13" lengthAdjust="spacing" textLength="92" x="310" y="1106.0186">getClientEmail()</text><rect fill="none" height="37.9297" style="stroke:#000000;stroke-width:1.5;" width="171" x="551.5" y="1118.7734"/><path d="M551.5,1118.7734 L613.5,1118.7734 L613.5,1124.7734 L603.5,1134.7734 L551.5,1134.7734 L551.5,1118.7734 " fill="#EEEEEE" style="stroke:#000000;stroke-width:2.0;"/><text fill="#000000" font-family="sans-serif" font-size="13" font-weight="bold" lengthAdjust="spacing" textLength="17" x="564.5" y="1132.542">ref</text><text fill="#000000" font-family="sans-serif" font-size="12" lengthAdjust="spacing" textLength="105" x="584.5" y="1149.6367">Get GetClientEmail</text><polygon fill="#181818" points="296,1178.2266,286,1182.2266,296,1186.2266,292,1182.2266" style="stroke:#181818;stroke-width:1.0;"/><line style="stroke:#181818;stroke-width:1.0;" x1="290" x2="631" y1="1182.2266" y2="1182.2266"/><text fill="#000000" font-family="sans-serif" font-size="13" font-weight="bold" lengthAdjust="spacing" textLength="14" x="302" y="1177.4717">25</text><text fill="#000000" font-family="sans-serif" font-size="13" lengthAdjust="spacing" textLength="64" x="320" y="1177.4717">clientEmail</text><line style="stroke:#181818;stroke-width:1.0;" x1="285" x2="327" y1="1210.75" y2="1210.75"/><line style="stroke:#181818;stroke-width:1.0;" x1="327" x2="327" y1="1210.75" y2="1223.75"/><line style="stroke:#181818;stroke-width:1.0;" x1="286" x2="327" y1="1223.75" y2="1223.75"/><polygon fill="#181818" points="296,1219.75,286,1223.75,296,1227.75,292,1223.75" style="stroke:#181818;stroke-width:1.0;"/><text fill="#000000" font-family="sans-serif" font-size="13" font-weight="bold" lengthAdjust="spacing" textLength="14" x="292" y="1205.9951">26</text><text fill="#000000" font-family="sans-serif" font-size="13" lengthAdjust="spacing" textLength="94" x="310" y="1205.9951">keepClientEmail</text><polygon fill="#181818" points="625,1248.2734,635,1252.2734,625,1256.2734,629,1252.2734" style="stroke:#181818;stroke-width:1.0;"/><line style="stroke:#181818;stroke-width:1.0;" x1="285" x2="631" y1="1252.2734" y2="1252.2734"/><text fill="#000000" font-family="sans-serif" font-size="13" font-weight="bold" lengthAdjust="spacing" textLength="14" x="292" y="1247.5186">27</text><text fill="#000000" font-family="sans-serif" font-size="13" lengthAdjust="spacing" textLength="275" x="310" y="1247.5186">getVerifyVisitTimeFree(adchoiceVisit,date,hour)</text><rect fill="none" height="37.9297" style="stroke:#000000;stroke-width:1.5;" width="171" x="551.5" y="1260.2734"/><path d="M551.5,1260.2734 L613.5,1260.2734 L613.5,1266.2734 L603.5,1276.2734 L551.5,1276.2734 L551.5,1260.2734 " fill="#EEEEEE" style="stroke:#000000;stroke-width:2.0;"/><text fill="#000000" font-family="sans-serif" font-size="13" font-weight="bold" lengthAdjust="spacing" textLength="17" x="564.5" y="1274.042">ref</text><text fill="#000000" font-family="sans-serif" font-size="12" lengthAdjust="spacing" textLength="119" x="577.5" y="1291.1367">Verify time choice free</text><polygon fill="#181818" points="296,1319.7266,286,1323.7266,296,1327.7266,292,1323.7266" style="stroke:#181818;stroke-width:1.0;"/><line style="stroke:#181818;stroke-width:1.0;" x1="290" x2="631" y1="1323.7266" y2="1323.7266"/><text fill="#000000" font-family="sans-serif" font-size="13" font-weight="bold" lengthAdjust="spacing" textLength="14" x="302" y="1318.9717">28</text><text fill="#000000" font-family="sans-serif" font-size="13" lengthAdjust="spacing" textLength="305" x="320" y="1318.9717">getVerifyVisitTimeFree(adchoiceVisit,date,hour)=true</text><polygon fill="#181818" points="57,1362.7734,47,1366.7734,57,1370.7734,53,1366.7734" style="stroke:#181818;stroke-width:1.0;"/><line style="stroke:#181818;stroke-width:1.0;" x1="51" x2="279" y1="1366.7734" y2="1366.7734"/><text fill="#000000" font-family="sans-serif" font-size="13" font-weight="bold" lengthAdjust="spacing" textLength="14" x="63" y="1354.7568">29</text><text fill="#000000" font-family="sans-serif" font-size="13" lengthAdjust="spacing" textLength="136" x="81" y="1347.4951">Display Visit conditions</text><text fill="#000000" font-family="sans-serif" font-size="13" lengthAdjust="spacing" textLength="183" x="85" y="1362.0186">and ask for validation (YES/NO)</text><polygon fill="#181818" points="263,1391.2969,273,1395.2969,263,1399.2969,267,1395.2969" style="stroke:#181818;stroke-width:1.0;"/><line style="stroke:#181818;stroke-width:1.0;" x1="46" x2="269" y1="1395.2969" y2="1395.2969"/><text fill="#000000" font-family="sans-serif" font-size="13" font-weight="bold" lengthAdjust="spacing" textLength="14" x="53" y="1390.542">30</text><text fill="#000000" font-family="sans-serif" font-size="13" lengthAdjust="spacing" textLength="151" x="71" y="1390.542">input: validation (YES/NO)</text><path d="M10,1410.2969 L71,1410.2969 L71,1416.8203 L61,1426.8203 L10,1426.8203 L10,1410.2969 " fill="#EEEEEE" style="stroke:#000000;stroke-width:1.5;"/><rect fill="none" height="45.0469" style="stroke:#000000;stroke-width:1.5;" width="337.5" x="10" y="1410.2969"/><text fill="#000000" font-family="sans-serif" font-size="13" font-weight="bold" lengthAdjust="spacing" textLength="16" x="25" y="1423.0654">alt</text><text fill="#000000" font-family="sans-serif" font-size="11" font-weight="bold" lengthAdjust="spacing" textLength="92" x="86" y="1422.2549">[validation = YES]</text><polygon fill="#181818" points="57,1443.3438,47,1447.3438,57,1451.3438,53,1447.3438" style="stroke:#181818;stroke-width:1.0;"/><line style="stroke:#181818;stroke-width:1.0;" x1="51" x2="279" y1="1447.3438" y2="1447.3438"/><text fill="#000000" font-family="sans-serif" font-size="13" font-weight="bold" lengthAdjust="spacing" textLength="14" x="63" y="1442.5889">31</text><text fill="#000000" font-family="sans-serif" font-size="13" lengthAdjust="spacing" textLength="158" x="81" y="1442.5889">displays operation success</text><!--SRC=[jLPDJnin4BtlhnXnwO90lQz49KW08Q5IaO1KYOlnJX8hNdjhUw7vzntlHs97ITXjKnyWikUzUPutzjekXIgPOGKKMcc-CBf0SAR2nAvNIiQNR8uJjv881hbZQYx30BjWkVuGQWup9YqcmT8nMPrm53h1NnKgZZ0MRExZRYif8PsCJnDMEQsguWrDadmPIO7AmOGlCAy8zoAiS3I_43d2J6ltfdydZ3jjuAI9FG5cuTaIcWGumKN9YE0awoXgXkVx9kp-KD18AsUqb6ZguD7qwI7nkSGxSzYaI826_mKNtuWDCWfSMd1wevWrcg4qkaJZLZN4ZmtJVRAU90vYygdEpeYD6wI8zMe4g_LqimPdeDz9HpJhnnqwUC9IamPj1Dhr8ghSmwBW76Fw7ReWayAwAvMF5bfR_D5kQxegCJsDoFvMRKZvGBdsAgxbN7ILBmEOZN2zTkTfl94PjQp-i6iLuFd0yy6h0aOIEeijIcfuq6fZK92XSpNgZWPYgIaY-jq6R_M59w7_6ImHox16FLowhgnGQEqHNGef1xZq5i2Eu5AduZ-v5D4FTociKHZLcfH1Qz9Os5Ao5Ulikigfx4vOBEX26qyVNrKQTZS52OxdKIsRkTC3LqLFNxlSRMfVqeas3lFhrJYyYpgR8uB6wxQCsxlOIpNOzIsDn_TzAy5mvxS9jeveknlI2Zbp35Bw6vZtcL3d3uz7OxuJtqjYXFnCtq9Nvb_qnVYX6XlqZcikWpcwvhj_Kp0XqoCSWBk8iM-_qxTw1wZ7DxNRQfXpxrPVq8ZPgdvGJ4M1jmOnPJclptuzU-xjF3zGxRwLQ3A1eopGyCECilKeHxUfWN8lwvVbaC9HnsNGNftj8ujhbGidjBARsu2UYGRUcHIKYrOW_Nap-VhziMStPq0lsSfb1naYFBqHfGl3Bu7Yzvoml95lmT_kJRYjEATBVOyygdkIX5FrCzIFFm00]--></g></svg>