<?xml version="1.0" encoding="us-ascii" standalone="no"?><svg xmlns="http://www.w3.org/2000/svg" xmlns:xlink="http://www.w3.org/1999/xlink" contentStyleType="text/css" height="1028px" preserveAspectRatio="none" style="width:913px;height:1028px;background:#FFFFFF;" version="1.1" viewBox="0 0 913 1028" width="913px" zoomAndPan="magnify"><defs/><g><text fill="#000000" font-family="sans-serif" font-size="14" font-weight="bold" lengthAdjust="spacing" textLength="100" x="399.75" y="25.1074">Domain Model</text><!--class Person--><g id="elem_Person"><rect codeLine="16" fill="#F1F1F1" height="129.7266" id="Person" rx="2.5" ry="2.5" style="stroke:#181818;stroke-width:0.5;" width="101" x="193" y="46.6211"/><text fill="#000000" font-family="sans-serif" font-size="14" lengthAdjust="spacing" textLength="45" x="221" y="66.7285">Person</text><line style="stroke:#181818;stroke-width:0.5;" x1="194" x2="293" y1="75.2422" y2="75.2422"/><text fill="#000000" font-family="sans-serif" font-size="14" lengthAdjust="spacing" textLength="85" x="199" y="94.3496">emailAddress</text><text fill="#000000" font-family="sans-serif" font-size="14" lengthAdjust="spacing" textLength="55" x="199" y="112.9707">passport</text><text fill="#000000" font-family="sans-serif" font-size="14" lengthAdjust="spacing" textLength="15" x="199" y="131.5918">tin</text><text fill="#000000" font-family="sans-serif" font-size="14" lengthAdjust="spacing" textLength="89" x="199" y="150.2129">phoneNumber</text><text fill="#000000" font-family="sans-serif" font-size="14" lengthAdjust="spacing" textLength="35" x="199" y="168.834">name</text></g><!--class Property--><g id="elem_Property"><rect codeLine="24" fill="#F1F1F1" height="108.4453" id="Property" rx="2.5" ry="2.5" style="stroke:#181818;stroke-width:0.5;" width="132" x="583.5" y="685.6211"/><text fill="#000000" font-family="sans-serif" font-size="12" font-style="italic" lengthAdjust="spacing" textLength="62" x="618.5" y="703.5703">&#171;Interface&#187;</text><text fill="#000000" font-family="sans-serif" font-size="14" lengthAdjust="spacing" textLength="54" x="622.5" y="721.6895">Property</text><line style="stroke:#181818;stroke-width:0.5;" x1="584.5" x2="714.5" y1="730.2031" y2="730.2031"/><text fill="#000000" font-family="sans-serif" font-size="14" lengthAdjust="spacing" textLength="43" x="589.5" y="749.3105">photos</text><text fill="#000000" font-family="sans-serif" font-size="14" lengthAdjust="spacing" textLength="83" x="589.5" y="767.9316">areaProperty</text><text fill="#000000" font-family="sans-serif" font-size="14" lengthAdjust="spacing" textLength="120" x="589.5" y="786.5527">distanceCityCenter</text></g><!--class House--><g id="elem_House"><rect codeLine="30" fill="#F1F1F1" height="166.9688" id="House" rx="2.5" ry="2.5" style="stroke:#181818;stroke-width:0.5;" width="135" x="412" y="854.6211"/><text fill="#000000" font-family="sans-serif" font-size="14" lengthAdjust="spacing" textLength="40" x="459.5" y="874.7285">House</text><line style="stroke:#181818;stroke-width:0.5;" x1="413" x2="546" y1="883.2422" y2="883.2422"/><text fill="#000000" font-family="sans-serif" font-size="14" lengthAdjust="spacing" textLength="112" x="418" y="902.3496">numberBedrooms</text><text fill="#000000" font-family="sans-serif" font-size="14" lengthAdjust="spacing" textLength="116" x="418" y="920.9707">numberBathrooms</text><text fill="#000000" font-family="sans-serif" font-size="14" lengthAdjust="spacing" textLength="96" x="418" y="939.5918">numberParking</text><text fill="#000000" font-family="sans-serif" font-size="14" lengthAdjust="spacing" textLength="123" x="418" y="958.2129">availableEquipment</text><text fill="#000000" font-family="sans-serif" font-size="14" lengthAdjust="spacing" textLength="62" x="418" y="976.834">basement</text><text fill="#000000" font-family="sans-serif" font-size="14" lengthAdjust="spacing" textLength="19" x="418" y="995.4551">loft</text><text fill="#000000" font-family="sans-serif" font-size="14" lengthAdjust="spacing" textLength="82" x="418" y="1014.0762">sunExposure</text></g><!--class Apartment--><g id="elem_Apartment"><rect codeLine="40" fill="#F1F1F1" height="111.1055" id="Apartment" rx="2.5" ry="2.5" style="stroke:#181818;stroke-width:0.5;" width="135" x="582" y="882.6211"/><text fill="#000000" font-family="sans-serif" font-size="14" lengthAdjust="spacing" textLength="65" x="617" y="902.7285">Apartment</text><line style="stroke:#181818;stroke-width:0.5;" x1="583" x2="716" y1="911.2422" y2="911.2422"/><text fill="#000000" font-family="sans-serif" font-size="14" lengthAdjust="spacing" textLength="112" x="588" y="930.3496">numberBedrooms</text><text fill="#000000" font-family="sans-serif" font-size="14" lengthAdjust="spacing" textLength="116" x="588" y="948.9707">numberBathrooms</text><text fill="#000000" font-family="sans-serif" font-size="14" lengthAdjust="spacing" textLength="96" x="588" y="967.5918">numberParking</text><text fill="#000000" font-family="sans-serif" font-size="14" lengthAdjust="spacing" textLength="123" x="588" y="986.2129">availableEquipment</text></g><!--class Land--><g id="elem_Land"><rect codeLine="47" fill="#F1F1F1" height="36.6211" id="Land" rx="2.5" ry="2.5" style="stroke:#181818;stroke-width:0.5;" width="38" x="752.5" y="919.6211"/><text fill="#000000" font-family="sans-serif" font-size="14" lengthAdjust="spacing" textLength="32" x="755.5" y="939.7285">Land</text><line style="stroke:#181818;stroke-width:0.5;" x1="753.5" x2="789.5" y1="948.2422" y2="948.2422"/></g><!--class Advertisement--><g id="elem_Advertisement"><rect codeLine="49" fill="#F1F1F1" height="92.4844" id="Advertisement" rx="2.5" ry="2.5" style="stroke:#181818;stroke-width:0.5;" width="121" x="7" y="693.6211"/><text fill="#000000" font-family="sans-serif" font-size="14" lengthAdjust="spacing" textLength="90" x="22.5" y="713.7285">Advertisement</text><line style="stroke:#181818;stroke-width:0.5;" x1="8" x2="127" y1="722.2422" y2="722.2422"/><text fill="#000000" font-family="sans-serif" font-size="14" lengthAdjust="spacing" textLength="109" x="13" y="741.3496">commissionValue</text><text fill="#000000" font-family="sans-serif" font-size="14" lengthAdjust="spacing" textLength="105" x="13" y="759.9707">commissionType</text><text fill="#000000" font-family="sans-serif" font-size="14" lengthAdjust="spacing" textLength="28" x="13" y="778.5918">date</text></g><!--class PropertyType--><g id="elem_PropertyType"><rect codeLine="55" fill="#F1F1F1" height="55.2422" id="PropertyType" rx="2.5" ry="2.5" style="stroke:#181818;stroke-width:0.5;" width="92" x="814.5" y="712.1211"/><text fill="#000000" font-family="sans-serif" font-size="14" lengthAdjust="spacing" textLength="86" x="817.5" y="732.2285">PropertyType</text><line style="stroke:#181818;stroke-width:0.5;" x1="815.5" x2="905.5" y1="740.7422" y2="740.7422"/><text fill="#000000" font-family="sans-serif" font-size="14" lengthAdjust="spacing" textLength="73" x="820.5" y="759.8496">designation</text></g><!--class Location--><g id="elem_Location"><rect codeLine="60" fill="#F1F1F1" height="145.6875" id="Location" rx="2.5" ry="2.5" style="stroke:#181818;stroke-width:0.5;" width="64" x="473.5" y="206.6211"/><text fill="#000000" font-family="sans-serif" font-size="12" font-style="italic" lengthAdjust="spacing" textLength="62" x="474.5" y="224.5703">&#171;Interface&#187;</text><text fill="#000000" font-family="sans-serif" font-size="14" lengthAdjust="spacing" textLength="54" x="478.5" y="242.6895">Location</text><line style="stroke:#181818;stroke-width:0.5;" x1="474.5" x2="536.5" y1="251.2031" y2="251.2031"/><text fill="#000000" font-family="sans-serif" font-size="14" lengthAdjust="spacing" textLength="36" x="479.5" y="270.3105">street</text><text fill="#000000" font-family="sans-serif" font-size="14" lengthAdjust="spacing" textLength="51" x="479.5" y="288.9316">zipCode</text><text fill="#000000" font-family="sans-serif" font-size="14" lengthAdjust="spacing" textLength="49" x="479.5" y="307.5527">stateUS</text><text fill="#000000" font-family="sans-serif" font-size="14" lengthAdjust="spacing" textLength="21" x="479.5" y="326.1738">city</text><text fill="#000000" font-family="sans-serif" font-size="14" lengthAdjust="spacing" textLength="41" x="479.5" y="344.7949">district</text></g><!--class Request--><g id="elem_Request"><rect codeLine="68" fill="#F1F1F1" height="71.2031" id="Request" rx="2.5" ry="2.5" style="stroke:#181818;stroke-width:0.5;" width="64" x="339.5" y="535.6211"/><text fill="#000000" font-family="sans-serif" font-size="12" font-style="italic" lengthAdjust="spacing" textLength="62" x="340.5" y="553.5703">&#171;Interface&#187;</text><text fill="#000000" font-family="sans-serif" font-size="14" lengthAdjust="spacing" textLength="53" x="345" y="571.6895">Request</text><line style="stroke:#181818;stroke-width:0.5;" x1="340.5" x2="402.5" y1="580.2031" y2="580.2031"/><text fill="#000000" font-family="sans-serif" font-size="14" lengthAdjust="spacing" textLength="28" x="345.5" y="599.3105">date</text></g><!--class RequestSale--><g id="elem_RequestSale"><rect codeLine="72" fill="#F1F1F1" height="55.2422" id="RequestSale" rx="2.5" ry="2.5" style="stroke:#181818;stroke-width:0.5;" width="87" x="461" y="712.1211"/><text fill="#000000" font-family="sans-serif" font-size="14" lengthAdjust="spacing" textLength="81" x="464" y="732.2285">RequestSale</text><line style="stroke:#181818;stroke-width:0.5;" x1="462" x2="547" y1="740.7422" y2="740.7422"/><text fill="#000000" font-family="sans-serif" font-size="14" lengthAdjust="spacing" textLength="58" x="467" y="759.8496">salePrice</text></g><!--class RequestLease--><g id="elem_RequestLease"><rect codeLine="76" fill="#F1F1F1" height="73.8633" id="RequestLease" rx="2.5" ry="2.5" style="stroke:#181818;stroke-width:0.5;" width="133" x="163" y="702.6211"/><text fill="#000000" font-family="sans-serif" font-size="14" lengthAdjust="spacing" textLength="92" x="183.5" y="722.7285">RequestLease</text><line style="stroke:#181818;stroke-width:0.5;" x1="164" x2="295" y1="731.2422" y2="731.2422"/><text fill="#000000" font-family="sans-serif" font-size="14" lengthAdjust="spacing" textLength="68" x="169" y="750.3496">rentalPrice</text><text fill="#000000" font-family="sans-serif" font-size="14" lengthAdjust="spacing" textLength="121" x="169" y="768.9707">durationOfContract</text></g><!--class RequestType--><g id="elem_RequestType"><rect codeLine="81" fill="#F1F1F1" height="55.2422" id="RequestType" rx="2.5" ry="2.5" style="stroke:#181818;stroke-width:0.5;" width="91" x="439" y="543.6211"/><text fill="#000000" font-family="sans-serif" font-size="14" lengthAdjust="spacing" textLength="85" x="442" y="563.7285">RequestType</text><line style="stroke:#181818;stroke-width:0.5;" x1="440" x2="529" y1="572.2422" y2="572.2422"/><text fill="#000000" font-family="sans-serif" font-size="14" lengthAdjust="spacing" textLength="73" x="445" y="591.3496">designation</text></g><!--class BusinessType--><g id="elem_BusinessType"><rect codeLine="85" fill="#F1F1F1" height="55.2422" id="BusinessType" rx="2.5" ry="2.5" style="stroke:#181818;stroke-width:0.5;" width="95" x="331" y="712.1211"/><text fill="#000000" font-family="sans-serif" font-size="14" lengthAdjust="spacing" textLength="89" x="334" y="732.2285">BusinessType</text><line style="stroke:#181818;stroke-width:0.5;" x1="332" x2="425" y1="740.7422" y2="740.7422"/><text fill="#000000" font-family="sans-serif" font-size="14" lengthAdjust="spacing" textLength="73" x="337" y="759.8496">designation</text></g><!--class Visit--><g id="elem_Visit"><rect codeLine="89" fill="#F1F1F1" height="73.8633" id="Visit" rx="2.5" ry="2.5" style="stroke:#181818;stroke-width:0.5;" width="50" x="154.5" y="382.6211"/><text fill="#000000" font-family="sans-serif" font-size="14" lengthAdjust="spacing" textLength="26" x="166.5" y="402.7285">Visit</text><line style="stroke:#181818;stroke-width:0.5;" x1="155.5" x2="203.5" y1="411.2422" y2="411.2422"/><text fill="#000000" font-family="sans-serif" font-size="14" lengthAdjust="spacing" textLength="28" x="160.5" y="430.3496">data</text><text fill="#000000" font-family="sans-serif" font-size="14" lengthAdjust="spacing" textLength="38" x="160.5" y="448.9707">report</text></g><!--class Employee--><g id="elem_Employee"><rect codeLine="94" fill="#F1F1F1" height="36.6211" id="Employee" rx="2.5" ry="2.5" style="stroke:#181818;stroke-width:0.5;" width="68" x="315.5" y="401.1211"/><text fill="#000000" font-family="sans-serif" font-size="14" lengthAdjust="spacing" textLength="62" x="318.5" y="421.2285">Employee</text><line style="stroke:#181818;stroke-width:0.5;" x1="316.5" x2="382.5" y1="429.7422" y2="429.7422"/></g><!--reverse link Person to Employee--><g id="link_Person_Employee"><path codeLine="97" d="M291.51,194.9211 C293.28,198.8311 294.96,202.7411 296.5,206.6211 C324.17,276.0511 340.64,364.1611 346.76,401.0911 " fill="none" id="Person-backto-Employee" style="stroke:#181818;stroke-width:1.0;stroke-dasharray:7.0,7.0;"/><polygon fill="none" points="285.11,197.7711,282.62,176.7311,297.69,191.6311,285.11,197.7711" style="stroke:#181818;stroke-width:1.0;"/></g><!--link Person to Visit--><g id="link_Person_Visit"><path codeLine="98" d="M230.08,176.7711 C217.03,239.1611 197.68,331.7111 187.09,382.3211 " fill="none" id="Person-Visit" style="stroke:#181818;stroke-width:1.0;"/><polygon fill="#000000" points="227.4764,284.6607,232.2048,276.4088,226.4514,275.2055,227.4764,284.6607" style="stroke:#000000;stroke-width:1.0;"/><text fill="#000000" font-family="sans-serif" font-size="13" lengthAdjust="spacing" textLength="50" x="237.5" y="285.1494">requests</text><text fill="#000000" font-family="sans-serif" font-size="13" lengthAdjust="spacing" textLength="7" x="221.3351" y="198.4237">1</text><text fill="#000000" font-family="sans-serif" font-size="13" lengthAdjust="spacing" textLength="5" x="182.9967" y="371.2294">*</text></g><!--link Person to Advertisement--><g id="link_Person_Advertisement"><path codeLine="99" d="M201.88,176.7511 C196.1,186.6011 190.45,196.7711 185.5,206.6211 C125.46,326.2611 101.44,355.4911 74.5,486.6211 C59.88,557.7911 61.28,642.6211 64.07,693.4711 " fill="none" id="Person-Advertisement" style="stroke:#181818;stroke-width:1.0;"/><polygon fill="#000000" points="78.2115,501.0977,83.3821,493.1155,77.7027,491.6008,78.2115,501.0977" style="stroke:#000000;stroke-width:1.0;"/><text fill="#000000" font-family="sans-serif" font-size="13" lengthAdjust="spacing" textLength="53" x="88.5" y="501.6494">searches</text><text fill="#000000" font-family="sans-serif" font-size="13" lengthAdjust="spacing" textLength="5" x="192.3301" y="198.4016">*</text><text fill="#000000" font-family="sans-serif" font-size="13" lengthAdjust="spacing" textLength="5" x="58.199" y="682.4585">*</text></g><!--link Visit to Employee--><g id="link_Visit_Employee"><path codeLine="101" d="M204.58,419.6211 C233.86,419.6211 282.44,419.6211 315.19,419.6211 " fill="none" id="Visit-Employee" style="stroke:#181818;stroke-width:1.0;"/><polygon fill="#000000" points="222,407.2666,231.0451,410.2055,231.0451,404.3277,222,407.2666" style="stroke:#000000;stroke-width:1.0;"/><text fill="#000000" font-family="sans-serif" font-size="13" lengthAdjust="spacing" textLength="61" x="236" y="412.6494">carries out</text><text fill="#000000" font-family="sans-serif" font-size="13" lengthAdjust="spacing" textLength="5" x="212.3369" y="414.3189">*</text><text fill="#000000" font-family="sans-serif" font-size="13" lengthAdjust="spacing" textLength="7" x="300.3917" y="414.9654">1</text></g><!--link Employee to Request--><g id="link_Employee_Request"><path codeLine="102" d="M352.11,438.3611 C355.62,462.1811 361.92,505.0211 366.39,535.3811 " fill="none" id="Employee-Request" style="stroke:#181818;stroke-width:1.0;"/><polygon fill="#000000" points="367.2281,501.2133,368.8186,491.8367,363.0034,492.6926,367.2281,501.2133" style="stroke:#000000;stroke-width:1.0;"/><text fill="#000000" font-family="sans-serif" font-size="13" lengthAdjust="spacing" textLength="55" x="375.5" y="501.6494">publishes</text><text fill="#000000" font-family="sans-serif" font-size="13" lengthAdjust="spacing" textLength="7" x="344.8708" y="459.8002">1</text><text fill="#000000" font-family="sans-serif" font-size="13" lengthAdjust="spacing" textLength="5" x="359.9869" y="524.2608">*</text></g><!--link Person to Location--><g id="link_Person_Location"><path codeLine="104" d="M294.02,144.6311 C340.75,174.2411 409.79,217.9811 456.15,247.3511 " fill="none" id="Person-to-Location" style="stroke:#181818;stroke-width:1.0;stroke-dasharray:7.0,7.0;"/><polygon fill="none" points="460.16,241.6111,473.31,258.2211,452.67,253.4311,460.16,241.6111" style="stroke:#181818;stroke-width:1.0;"/></g><!--reverse link Location to Property--><g id="link_Location_Property"><path codeLine="105" d="M534.21,371.9311 C563.73,465.8111 608.68,608.8011 632.81,685.5411 " fill="none" id="Location-backto-Property" style="stroke:#181818;stroke-width:1.0;stroke-dasharray:7.0,7.0;"/><polygon fill="none" points="527.48,373.8711,528.16,352.6911,540.83,369.6711,527.48,373.8711" style="stroke:#181818;stroke-width:1.0;"/></g><!--reverse link Property to House--><g id="link_Property_House"><path codeLine="107" d="M590.06,809.3211 C576.23,825.3111 561.41,842.4411 547.25,858.8111 " fill="none" id="Property-backto-House" style="stroke:#181818;stroke-width:1.0;stroke-dasharray:7.0,7.0;"/><polygon fill="none" points="585.12,804.3411,603.5,793.8011,595.7,813.5011,585.12,804.3411" style="stroke:#181818;stroke-width:1.0;"/></g><!--reverse link Property to Land--><g id="link_Property_Land"><path codeLine="108" d="M705.01,810.0711 C715.4,824.4111 725.74,839.7011 734.5,854.6211 C747.06,876.0011 758.21,902.4211 764.91,919.5111 " fill="none" id="Property-backto-Land" style="stroke:#181818;stroke-width:1.0;stroke-dasharray:7.0,7.0;"/><polygon fill="none" points="699.19,813.9711,692.88,793.7411,710.43,805.6211,699.19,813.9711" style="stroke:#181818;stroke-width:1.0;"/></g><!--reverse link Property to Apartment--><g id="link_Property_Apartment"><path codeLine="109" d="M649.5,813.9811 C649.5,836.7011 649.5,861.3211 649.5,882.5311 " fill="none" id="Property-backto-Apartment" style="stroke:#181818;stroke-width:1.0;stroke-dasharray:7.0,7.0;"/><polygon fill="none" points="642.5,813.8011,649.5,793.8011,656.5,813.8011,642.5,813.8011" style="stroke:#181818;stroke-width:1.0;"/></g><!--link Property to PropertyType--><g id="link_Property_PropertyType"><path codeLine="110" d="M715.68,739.6211 C747.71,739.6211 785.38,739.6211 814.27,739.6211 " fill="none" id="Property-PropertyType" style="stroke:#181818;stroke-width:1.0;"/><polygon fill="#000000" points="743,727.2666,733.9549,724.3277,733.9549,730.2055,743,727.2666" style="stroke:#000000;stroke-width:1.0;"/><text fill="#000000" font-family="sans-serif" font-size="13" lengthAdjust="spacing" textLength="49" x="747" y="732.6494">contains</text><text fill="#000000" font-family="sans-serif" font-size="13" lengthAdjust="spacing" textLength="5" x="723.6211" y="735.6577">*</text><text fill="#000000" font-family="sans-serif" font-size="13" lengthAdjust="spacing" textLength="7" x="799.6551" y="735.3516">1</text></g><!--link Advertisement to Visit--><g id="link_Advertisement_Visit"><path codeLine="112" d="M83.37,693.5511 C105.77,629.9611 146.21,515.1511 166.76,456.7911 " fill="none" id="Advertisement-Visit" style="stroke:#181818;stroke-width:1.0;"/><polygon fill="#000000" points="145.161,566.5506,139.3842,574.1056,144.9282,576.0583,145.161,566.5506" style="stroke:#000000;stroke-width:1.0;"/><text fill="#000000" font-family="sans-serif" font-size="13" lengthAdjust="spacing" textLength="32" x="152.5" y="576.6494">hosts</text><text fill="#000000" font-family="sans-serif" font-size="13" lengthAdjust="spacing" textLength="7" x="78.2642" y="682.2086">1</text><text fill="#000000" font-family="sans-serif" font-size="13" lengthAdjust="spacing" textLength="5" x="159.2359" y="478.4189">*</text></g><!--link Request to BusinessType--><g id="link_Request_BusinessType"><path codeLine="114" d="M372.97,607.0211 C374.28,638.3011 376.18,683.5111 377.38,711.9711 " fill="none" id="Request-BusinessType" style="stroke:#181818;stroke-width:1.0;"/><polygon fill="#000000" points="379.7099,651.2622,382.2665,642.1017,376.3938,642.3485,379.7099,651.2622" style="stroke:#000000;stroke-width:1.0;"/><text fill="#000000" font-family="sans-serif" font-size="13" lengthAdjust="spacing" textLength="49" x="388.5" y="651.6494">contains</text><text fill="#000000" font-family="sans-serif" font-size="13" lengthAdjust="spacing" textLength="5" x="367.7865" y="628.966">*</text><text fill="#000000" font-family="sans-serif" font-size="13" lengthAdjust="spacing" textLength="7" x="369.3116" y="700.6454">1</text></g><!--link Request to Property--><g id="link_Request_Property"><path codeLine="115" d="M403.67,595.1511 C409.53,599.1011 415.64,603.0711 421.5,606.6211 C445.99,621.4411 453.36,622.9311 478.5,636.6211 C517.47,657.8511 527.39,662.8811 565.5,685.6211 C571.28,689.0711 577.24,692.6911 583.2,696.3611 " fill="none" id="Request-Property" style="stroke:#181818;stroke-width:1.0;"/><text fill="#000000" font-family="sans-serif" font-size="13" lengthAdjust="spacing" textLength="7" x="411.4728" y="595.5862">1</text><text fill="#000000" font-family="sans-serif" font-size="13" lengthAdjust="spacing" textLength="7" x="568.5656" y="687.7197">1</text></g><!--link Request to Advertisement--><g id="link_Request_Advertisement"><path codeLine="116" d="M339.22,585.4811 C309.92,597.8911 265.73,617.3111 228.5,636.6211 C190.47,656.3511 181.68,662.6811 145.5,685.6211 C139.83,689.2111 133.98,693.0211 128.14,696.8711 " fill="none" id="Request-Advertisement" style="stroke:#181818;stroke-width:1.0;"/><polygon fill="#000000" points="237.922,643.933,228.5509,645.5553,231.2941,650.7537,237.922,643.933" style="stroke:#000000;stroke-width:1.0;"/><text fill="#000000" font-family="sans-serif" font-size="13" lengthAdjust="spacing" textLength="49" x="242.5" y="651.6494">contains</text><text fill="#000000" font-family="sans-serif" font-size="13" lengthAdjust="spacing" textLength="7" x="324.3931" y="583.8009">1</text><text fill="#000000" font-family="sans-serif" font-size="13" lengthAdjust="spacing" textLength="7" x="135.9571" y="687.6415">1</text></g><!--link Request to RequestType--><g id="link_Request_RequestType"><path codeLine="117" d="M403.72,571.1211 C415.4,571.1211 427.07,571.1211 438.75,571.1211 " fill="none" id="Request-RequestType" style="stroke:#181818;stroke-width:1.0;"/><text fill="#000000" font-family="sans-serif" font-size="13" lengthAdjust="spacing" textLength="7" x="411.5338" y="566.2997">1</text><text fill="#000000" font-family="sans-serif" font-size="13" lengthAdjust="spacing" textLength="7" x="423.9008" y="566.7986">1</text></g><!--reverse link Request to RequestSale--><g id="link_Request_RequestSale"><path codeLine="118" d="M419.11,608.7211 C428.77,617.3011 438.43,626.8211 446.5,636.6211 C465.66,659.9011 482.05,690.3511 492.47,711.9011 " fill="none" id="Request-backto-RequestSale" style="stroke:#181818;stroke-width:1.0;stroke-dasharray:7.0,7.0;"/><polygon fill="none" points="414.43,613.9311,403.64,595.6911,423.45,603.2211,414.43,613.9311" style="stroke:#181818;stroke-width:1.0;"/></g><!--reverse link Request to RequestLease--><g id="link_Request_RequestLease"><path codeLine="119" d="M328.65,622.3611 C306.6,648.2211 280.21,679.1611 260.21,702.6111 " fill="none" id="Request-backto-RequestLease" style="stroke:#181818;stroke-width:1.0;stroke-dasharray:7.0,7.0;"/><polygon fill="none" points="323.43,617.7011,341.73,607.0211,334.08,626.7811,323.43,617.7011" style="stroke:#181818;stroke-width:1.0;"/></g><!--SRC=[hLHDJnin4BtxLrYvL48YAjSeGe8KgKYqHKtBVM9FiYEyzc9xQGFqltVMtdLsGthhdjPldjzyEpoIRS13BMjddQgygr56tw88nTA0UeGThkFUeFIe8jYT6HD21Thz8hkJMp01XVXWS1jbTDBJhefIKtUBd1MZIyf025SnUjgq4M-LisjwGVbHY8eqIaLUiPFqNsEid0wikpA4Digrgb2t7Cq31Of2H8fy-EHg82k_E8r6YAGlxz47Pr-5v0_PRAwqzXX20XfcDCx7T8XaCrWvYr_RUeC-dItKAFuKFUyQz74lbyjR6z5lGU7bvUjmCxgi31vXe2P0K-2oALnHtA-mktdG_EpQW39hsEJu6hLthWvZ269rZDs3vtBkiiTdJWus1c-UMcfgTf7W3GGi1-Es-IUqzkPtuqBhHwbTSLzYn_t_aHGVTs3rwy6ZVkO2KOwmBu1oTKqXyB0yWE4nd68_zas6DCGJNUdCMKPZe9s5D7HC6zmxbQ1JtGlH8-Rol52puY7gOVRqSvtZe54tFQbHOj_ngSKGJmbFG-s9Qp1zf87_xbdiFUSEkNcPvBb0O38jQRO-9V9jkt8sUZWHIbSBUR8OcNRT1hAy2V-iMQQb3Ik9G1zDsfh2kQaRu_R8CWpbZPFBj_cy60PmTZ6Jv-ToTZRBkWkMIi46ULauPuKpcO-530YU5x_ZYa4vItRFpKHMAl2UcEhQoFGfEpFxCYraqsuCXLxtC25lyqvrthyW4yEy31odMnw43a-hV8HrCty4bLKxu2djz5oUfoZ78xtW3U3-aqqXJhVcVKahb-ifXfaSAihCSTCdgeLxKRWbnnEsQMUApdBA7QKp6ih2IQKOxSD9Gre2Nk2_]--></g></svg>