<?xml version="1.0" encoding="us-ascii" standalone="no"?><svg xmlns="http://www.w3.org/2000/svg" xmlns:xlink="http://www.w3.org/1999/xlink" contentStyleType="text/css" height="425px" preserveAspectRatio="none" style="width:458px;height:425px;background:#FFFFFF;" version="1.1" viewBox="0 0 458 425" width="458px" zoomAndPan="magnify"><defs/><g><text fill="#000000" font-family="sans-serif" font-size="14" font-weight="bold" lengthAdjust="spacing" textLength="263" x="99.25" y="27.9951">System Sequence Diagram (SSD)</text><rect fill="#FFFFFF" height="197.9297" style="stroke:#181818;stroke-width:1.0;" width="10" x="39" y="128.5938"/><rect fill="#FFFFFF" height="176.7969" style="stroke:#181818;stroke-width:1.0;" width="10" x="402" y="149.7266"/><rect fill="none" height="133.6641" style="stroke:#000000;stroke-width:1.5;" width="442.5" x="10" y="164.7266"/><line style="stroke:#181818;stroke-width:0.5;stroke-dasharray:5.0,5.0;" x1="44" x2="44" y1="118.5938" y2="344.5234"/><line style="stroke:#181818;stroke-width:0.5;stroke-dasharray:5.0,5.0;" x1="406.5" x2="406.5" y1="118.5938" y2="344.5234"/><text fill="#000000" font-family="sans-serif" font-size="14" lengthAdjust="spacing" textLength="42" x="20" y="115.292">Agent</text><ellipse cx="44" cy="50.7969" fill="#E3E3E3" rx="8" ry="8" style="stroke:#181818;stroke-width:0.5;"/><path d="M44,58.7969 L44,85.7969 M31,66.7969 L57,66.7969 M44,85.7969 L31,100.7969 M44,85.7969 L57,100.7969 " fill="none" style="stroke:#181818;stroke-width:0.5;"/><text fill="#000000" font-family="sans-serif" font-size="14" lengthAdjust="spacing" textLength="42" x="20" y="356.5186">Agent</text><ellipse cx="44" cy="368.3203" fill="#E3E3E3" rx="8" ry="8" style="stroke:#181818;stroke-width:0.5;"/><path d="M44,376.3203 L44,403.3203 M31,384.3203 L57,384.3203 M44,403.3203 L31,418.3203 M44,403.3203 L57,418.3203 " fill="none" style="stroke:#181818;stroke-width:0.5;"/><rect fill="#E3E3E3" height="30.2969" rx="2.5" ry="2.5" style="stroke:#181818;stroke-width:0.5;" width="71" x="371.5" y="87.2969"/><text fill="#000000" font-family="sans-serif" font-size="14" lengthAdjust="spacing" textLength="57" x="378.5" y="107.292">:System</text><rect fill="#E3E3E3" height="30.2969" rx="2.5" ry="2.5" style="stroke:#181818;stroke-width:0.5;" width="71" x="371.5" y="343.5234"/><text fill="#000000" font-family="sans-serif" font-size="14" lengthAdjust="spacing" textLength="57" x="378.5" y="363.5186">:System</text><rect fill="#FFFFFF" height="197.9297" style="stroke:#181818;stroke-width:1.0;" width="10" x="39" y="128.5938"/><rect fill="#FFFFFF" height="176.7969" style="stroke:#181818;stroke-width:1.0;" width="10" x="402" y="149.7266"/><polygon fill="#181818" points="390,145.7266,400,149.7266,390,153.7266,394,149.7266" style="stroke:#181818;stroke-width:1.0;"/><line style="stroke:#181818;stroke-width:1.0;" x1="49" x2="396" y1="149.7266" y2="149.7266"/><text fill="#000000" font-family="sans-serif" font-size="13" font-weight="bold" lengthAdjust="spacing" textLength="9" x="56" y="144.6606">1</text><text fill="#000000" font-family="sans-serif" font-size="13" lengthAdjust="spacing" textLength="176" x="69" y="144.6606">asks to list purchase offers</text><path d="M10,164.7266 L91,164.7266 L91,171.8594 L81,181.8594 L10,181.8594 L10,164.7266 " fill="#EEEEEE" style="stroke:#000000;stroke-width:1.5;"/><rect fill="none" height="133.6641" style="stroke:#000000;stroke-width:1.5;" width="442.5" x="10" y="164.7266"/><text fill="#000000" font-family="sans-serif" font-size="13" font-weight="bold" lengthAdjust="spacing" textLength="31" x="25" y="177.7935">loop</text><text fill="#000000" font-family="sans-serif" font-size="11" font-weight="bold" lengthAdjust="spacing" textLength="65" x="106" y="176.937">[intended]</text><polygon fill="#181818" points="60,198.9922,50,202.9922,60,206.9922,56,202.9922" style="stroke:#181818;stroke-width:1.0;"/><line style="stroke:#181818;stroke-width:1.0;stroke-dasharray:2.0,2.0;" x1="54" x2="401" y1="202.9922" y2="202.9922"/><text fill="#000000" font-family="sans-serif" font-size="13" font-weight="bold" lengthAdjust="spacing" textLength="9" x="66" y="197.9263">2</text><text fill="#000000" font-family="sans-serif" font-size="13" lengthAdjust="spacing" textLength="316" x="79" y="197.9263">shows all offers of his advertisements to choose</text><polygon fill="#181818" points="390,228.125,400,232.125,390,236.125,394,232.125" style="stroke:#181818;stroke-width:1.0;"/><line style="stroke:#181818;stroke-width:1.0;" x1="49" x2="396" y1="232.125" y2="232.125"/><text fill="#000000" font-family="sans-serif" font-size="13" font-weight="bold" lengthAdjust="spacing" textLength="9" x="56" y="227.0591">3</text><text fill="#000000" font-family="sans-serif" font-size="13" lengthAdjust="spacing" textLength="109" x="69" y="227.0591">choose one offer</text><polygon fill="#181818" points="60,257.2578,50,261.2578,60,265.2578,56,261.2578" style="stroke:#181818;stroke-width:1.0;"/><line style="stroke:#181818;stroke-width:1.0;stroke-dasharray:2.0,2.0;" x1="54" x2="401" y1="261.2578" y2="261.2578"/><text fill="#000000" font-family="sans-serif" font-size="13" font-weight="bold" lengthAdjust="spacing" textLength="9" x="66" y="256.1919">4</text><text fill="#000000" font-family="sans-serif" font-size="13" lengthAdjust="spacing" textLength="257" x="79" y="256.1919">aks if he wants to accept it or decline it</text><polygon fill="#181818" points="390,286.3906,400,290.3906,390,294.3906,394,290.3906" style="stroke:#181818;stroke-width:1.0;"/><line style="stroke:#181818;stroke-width:1.0;" x1="49" x2="396" y1="290.3906" y2="290.3906"/><text fill="#000000" font-family="sans-serif" font-size="13" font-weight="bold" lengthAdjust="spacing" textLength="9" x="56" y="285.3247">5</text><text fill="#000000" font-family="sans-serif" font-size="13" lengthAdjust="spacing" textLength="94" x="69" y="285.3247">accept/decline</text><polygon fill="#181818" points="55,322.5234,45,326.5234,55,330.5234,51,326.5234" style="stroke:#181818;stroke-width:1.0;"/><line style="stroke:#181818;stroke-width:1.0;stroke-dasharray:2.0,2.0;" x1="49" x2="406" y1="326.5234" y2="326.5234"/><text fill="#000000" font-family="sans-serif" font-size="13" font-weight="bold" lengthAdjust="spacing" textLength="9" x="61" y="321.4575">6</text><text fill="#000000" font-family="sans-serif" font-size="13" lengthAdjust="spacing" textLength="170" x="74" y="321.4575">Display operation success</text><!--SRC=[RP4_JyD03CNt-nHM9nWgzWeXLUh2m1Gn8GPpSHEhb_DnTbhrs-EaKGaID-JV-_azsz4Jvu8L1nWaI-oh30HMHmfwLmh64tRKs3KHL8g6kKjhG7jivSAvWoCcfH2CpT7cgaO3DFGzKeu41yPkmX-Qvl0O0eucUHo-gFfpDAcmsNUKRGEei3-y1JStZbmm6snsDxTPV7-TA_YCHZCP_0BR5nTWvy19mGGIgq4PQ-nH2UHufAeXW9zxxMG4o-cgZ0MII84FpaQvfVRpLvuIdhVRMuJsSb70b1PRlq7F_gKza_UiDFWSSnEn5vasihQP6zqj4aXUclk5F6FhaBC-ZG_3xavmmSKJOwHYm0Q-ivPYOhTWkzUlCcxeqmBT0tou_zCEh2NX5QHGHMF9eADRgCvqItysjtgTVi8F]--></g></svg>