<?xml version="1.0" encoding="us-ascii" standalone="no"?><svg xmlns="http://www.w3.org/2000/svg" xmlns:xlink="http://www.w3.org/1999/xlink" contentStyleType="text/css" height="732px" preserveAspectRatio="none" style="width:729px;height:732px;background:#FFFFFF;" version="1.1" viewBox="0 0 729 732" width="729px" zoomAndPan="magnify"><defs/><g><text fill="#000000" font-family="sans-serif" font-size="14" font-weight="bold" lengthAdjust="spacing" textLength="100" x="307.5" y="22.6738">Domain Model</text><!--class Owner--><g id="elem_Owner"><rect codeLine="18" fill="#F1F1F1" height="111.8438" id="Owner" rx="2.5" ry="2.5" style="stroke:#181818;stroke-width:0.5;" width="102" x="178.5" y="350.1406"/><text fill="#000000" font-family="sans-serif" font-size="14" lengthAdjust="spacing" textLength="41" x="209" y="367.8145">Owner</text><line style="stroke:#181818;stroke-width:0.5;" x1="179.5" x2="279.5" y1="375.7813" y2="375.7813"/><text fill="#000000" font-family="sans-serif" font-size="14" lengthAdjust="spacing" textLength="33" x="184.5" y="392.4551">email</text><text fill="#000000" font-family="sans-serif" font-size="14" lengthAdjust="spacing" textLength="35" x="184.5" y="408.0957">name</text><text fill="#000000" font-family="sans-serif" font-size="14" lengthAdjust="spacing" textLength="90" x="184.5" y="423.7363">numberCitizen</text><text fill="#000000" font-family="sans-serif" font-size="14" lengthAdjust="spacing" textLength="15" x="184.5" y="439.377">tin</text><text fill="#000000" font-family="sans-serif" font-size="14" lengthAdjust="spacing" textLength="89" x="184.5" y="455.0176">phoneNumber</text></g><!--class Property--><g id="elem_Property"><rect codeLine="26" fill="#F1F1F1" height="111.8438" id="Property" rx="2.5" ry="2.5" style="stroke:#181818;stroke-width:0.5;" width="132" x="421.5" y="521.1406"/><text fill="#000000" font-family="sans-serif" font-size="14" lengthAdjust="spacing" textLength="54" x="460.5" y="538.8145">Property</text><line style="stroke:#181818;stroke-width:0.5;" x1="422.5" x2="552.5" y1="546.7813" y2="546.7813"/><text fill="#000000" font-family="sans-serif" font-size="14" lengthAdjust="spacing" textLength="85" x="427.5" y="563.4551">propertyType</text><text fill="#000000" font-family="sans-serif" font-size="14" lengthAdjust="spacing" textLength="83" x="427.5" y="579.0957">areaProperty</text><text fill="#000000" font-family="sans-serif" font-size="14" lengthAdjust="spacing" textLength="120" x="427.5" y="594.7363">distanceCityCenter</text><text fill="#000000" font-family="sans-serif" font-size="14" lengthAdjust="spacing" textLength="111" x="427.5" y="610.377">conditionProperty</text><text fill="#000000" font-family="sans-serif" font-size="14" lengthAdjust="spacing" textLength="43" x="427.5" y="626.0176">photos</text></g><!--class House--><g id="elem_House"><rect codeLine="34" fill="#F1F1F1" height="80.5625" id="House" rx="2.5" ry="2.5" style="stroke:#181818;stroke-width:0.5;" width="94" x="7" y="636.6406"/><text fill="#000000" font-family="sans-serif" font-size="14" lengthAdjust="spacing" textLength="40" x="34" y="654.3145">House</text><line style="stroke:#181818;stroke-width:0.5;" x1="8" x2="100" y1="662.2813" y2="662.2813"/><text fill="#000000" font-family="sans-serif" font-size="14" lengthAdjust="spacing" textLength="62" x="13" y="678.9551">basement</text><text fill="#000000" font-family="sans-serif" font-size="14" lengthAdjust="spacing" textLength="19" x="13" y="694.5957">loft</text><text fill="#000000" font-family="sans-serif" font-size="14" lengthAdjust="spacing" textLength="82" x="13" y="710.2363">sunExposure</text></g><!--class PropertyType--><g id="elem_PropertyType"><rect codeLine="40" fill="#F1F1F1" height="49.2813" id="PropertyType" rx="2.5" ry="2.5" style="stroke:#181818;stroke-width:0.5;" width="92" x="183.5" y="544.6406"/><text fill="#000000" font-family="sans-serif" font-size="14" lengthAdjust="spacing" textLength="86" x="186.5" y="562.3145">PropertyType</text><line style="stroke:#181818;stroke-width:0.5;" x1="184.5" x2="274.5" y1="570.2813" y2="570.2813"/><text fill="#000000" font-family="sans-serif" font-size="14" lengthAdjust="spacing" textLength="73" x="189.5" y="586.9551">designation</text></g><!--class Building--><g id="elem_Building"><rect codeLine="44" fill="#F1F1F1" height="96.2031" id="Building" rx="2.5" ry="2.5" style="stroke:#181818;stroke-width:0.5;" width="135" x="162" y="629.1406"/><text fill="#000000" font-family="sans-serif" font-size="14" lengthAdjust="spacing" textLength="50" x="204.5" y="646.8145">Building</text><line style="stroke:#181818;stroke-width:0.5;" x1="163" x2="296" y1="654.7813" y2="654.7813"/><text fill="#000000" font-family="sans-serif" font-size="14" lengthAdjust="spacing" textLength="112" x="168" y="671.4551">numberBedrooms</text><text fill="#000000" font-family="sans-serif" font-size="14" lengthAdjust="spacing" textLength="116" x="168" y="687.0957">numberBathrooms</text><text fill="#000000" font-family="sans-serif" font-size="14" lengthAdjust="spacing" textLength="96" x="168" y="702.7363">numberParking</text><text fill="#000000" font-family="sans-serif" font-size="14" lengthAdjust="spacing" textLength="123" x="168" y="718.377">availableEquipment</text></g><!--class Location--><g id="elem_Location"><rect codeLine="51" fill="#F1F1F1" height="111.8438" id="Location" rx="2.5" ry="2.5" style="stroke:#181818;stroke-width:0.5;" width="63" x="659" y="458.1406"/><text fill="#000000" font-family="sans-serif" font-size="14" lengthAdjust="spacing" textLength="54" x="663.5" y="475.8145">Location</text><line style="stroke:#181818;stroke-width:0.5;" x1="660" x2="721" y1="483.7813" y2="483.7813"/><text fill="#000000" font-family="sans-serif" font-size="14" lengthAdjust="spacing" textLength="36" x="665" y="500.4551">street</text><text fill="#000000" font-family="sans-serif" font-size="14" lengthAdjust="spacing" textLength="51" x="665" y="516.0957">zipCode</text><text fill="#000000" font-family="sans-serif" font-size="14" lengthAdjust="spacing" textLength="49" x="665" y="531.7363">stateUS</text><text fill="#000000" font-family="sans-serif" font-size="14" lengthAdjust="spacing" textLength="21" x="665" y="547.377">city</text><text fill="#000000" font-family="sans-serif" font-size="14" lengthAdjust="spacing" textLength="41" x="665" y="563.0176">district</text></g><!--class Request--><g id="elem_Request"><rect codeLine="59" fill="#F1F1F1" height="64.9219" id="Request" rx="2.5" ry="2.5" style="stroke:#181818;stroke-width:0.5;" width="76" x="191.5" y="234.6406"/><text fill="#000000" font-family="sans-serif" font-size="14" lengthAdjust="spacing" textLength="53" x="203" y="252.3145">Request</text><line style="stroke:#181818;stroke-width:0.5;" x1="192.5" x2="266.5" y1="260.2813" y2="260.2813"/><text fill="#000000" font-family="sans-serif" font-size="14" lengthAdjust="spacing" textLength="64" x="197.5" y="276.9551">idRequest</text><text fill="#000000" font-family="sans-serif" font-size="14" lengthAdjust="spacing" textLength="28" x="197.5" y="292.5957">date</text></g><!--class RequestSale--><g id="elem_RequestSale"><rect codeLine="63" fill="#F1F1F1" height="49.2813" id="RequestSale" rx="2.5" ry="2.5" style="stroke:#181818;stroke-width:0.5;" width="87" x="444" y="43.6406"/><text fill="#000000" font-family="sans-serif" font-size="14" lengthAdjust="spacing" textLength="81" x="447" y="61.3145">RequestSale</text><line style="stroke:#181818;stroke-width:0.5;" x1="445" x2="530" y1="69.2813" y2="69.2813"/><text fill="#000000" font-family="sans-serif" font-size="14" lengthAdjust="spacing" textLength="58" x="450" y="85.9551">salePrice</text></g><!--class RequestLease--><g id="elem_RequestLease"><rect codeLine="67" fill="#F1F1F1" height="64.9219" id="RequestLease" rx="2.5" ry="2.5" style="stroke:#181818;stroke-width:0.5;" width="133" x="421" y="127.6406"/><text fill="#000000" font-family="sans-serif" font-size="14" lengthAdjust="spacing" textLength="92" x="441.5" y="145.3145">RequestLease</text><line style="stroke:#181818;stroke-width:0.5;" x1="422" x2="553" y1="153.2813" y2="153.2813"/><text fill="#000000" font-family="sans-serif" font-size="14" lengthAdjust="spacing" textLength="121" x="427" y="169.9551">durationOfContract</text><text fill="#000000" font-family="sans-serif" font-size="14" lengthAdjust="spacing" textLength="68" x="427" y="185.5957">rentalPrice</text></g><!--class RequestType--><g id="elem_RequestType"><rect codeLine="73" fill="#F1F1F1" height="49.2813" id="RequestType" rx="2.5" ry="2.5" style="stroke:#181818;stroke-width:0.5;" width="91" x="442" y="227.6406"/><text fill="#000000" font-family="sans-serif" font-size="14" lengthAdjust="spacing" textLength="85" x="445" y="245.3145">RequestType</text><line style="stroke:#181818;stroke-width:0.5;" x1="443" x2="532" y1="253.2813" y2="253.2813"/><text fill="#000000" font-family="sans-serif" font-size="14" lengthAdjust="spacing" textLength="73" x="448" y="269.9551">designation</text></g><!--class Agent--><g id="elem_Agent"><rect codeLine="77" fill="#F1F1F1" height="33.6406" id="Agent" rx="2.5" ry="2.5" style="stroke:#181818;stroke-width:0.5;" width="43" x="466" y="326.1406"/><text fill="#000000" font-family="sans-serif" font-size="14" lengthAdjust="spacing" textLength="37" x="469" y="343.8145">Agent</text><line style="stroke:#181818;stroke-width:0.5;" x1="467" x2="508" y1="351.7813" y2="351.7813"/></g><!--link Owner to Property--><g id="link_Owner_Property"><path codeLine="80" d="M280.6,455.6006 C294.98,468.5806 311.09,482.0406 327,493.1406 C356.39,513.6406 391.39,532.6106 421.12,547.3106 " fill="none" id="Owner-Property" style="stroke:#181818;stroke-width:1.0;"/><polygon fill="#000000" points="345.6871,488.1351,339.7188,480.7304,336.5063,485.6527,345.6871,488.1351" style="stroke:#000000;stroke-width:1.0;"/><text fill="#000000" font-family="sans-serif" font-size="13" lengthAdjust="spacing" textLength="30" x="350.5" y="489.9092">owns</text><text fill="#000000" font-family="sans-serif" font-size="13" lengthAdjust="spacing" textLength="7" x="288.6194" y="475.7117">1</text><text fill="#000000" font-family="sans-serif" font-size="13" lengthAdjust="spacing" textLength="20" x="393.6013" y="556.8653">1..*</text></g><!--link House to Building--><g id="link_House_Building"><path codeLine="82" d="M101.04,677.1406 C113.59,677.1406 127.6,677.1406 141.62,677.1406 " fill="none" id="House-to-Building" style="stroke:#181818;stroke-width:1.0;"/><polygon fill="none" points="141.99,670.1406,161.99,677.1406,141.99,684.1406,141.99,670.1406" style="stroke:#181818;stroke-width:1.0;"/></g><!--link Building to Property--><g id="link_Building_Property"><path codeLine="84" d="M297.09,651.1306 C329.19,638.5906 368.05,623.4106 402.19,610.0706 " fill="none" id="Building-to-Property" style="stroke:#181818;stroke-width:1.0;"/><polygon fill="none" points="399.95,603.4306,421.13,602.6806,405.04,616.4706,399.95,603.4306" style="stroke:#181818;stroke-width:1.0;"/></g><!--link Property to Location--><g id="link_Property_Location"><path codeLine="86" d="M553.76,556.6906 C589.07,545.6206 631.02,532.4706 658.84,523.7506 " fill="none" id="Property-Location" style="stroke:#181818;stroke-width:1.0;"/><polygon fill="#000000" points="593.7711,525.9067,584.261,525.808,586.0192,531.4167,593.7711,525.9067" style="stroke:#000000;stroke-width:1.0;"/><text fill="#000000" font-family="sans-serif" font-size="13" lengthAdjust="spacing" textLength="30" x="598" y="531.9092">owns</text><text fill="#000000" font-family="sans-serif" font-size="13" lengthAdjust="spacing" textLength="7" x="561.39" y="567.0253">1</text><text fill="#000000" font-family="sans-serif" font-size="13" lengthAdjust="spacing" textLength="7" x="644.1488" y="539.227">1</text></g><!--link Owner to Location--><g id="link_Owner_Location"><path codeLine="88" d="M280.93,418.0106 C376.53,440.5006 581.47,488.7206 658.97,506.9606 " fill="none" id="Owner-Location" style="stroke:#181818;stroke-width:1.0;"/><polygon fill="#000000" points="474.8671,445.5475,466.7356,440.6151,465.3893,446.3367,474.8671,445.5475" style="stroke:#000000;stroke-width:1.0;"/><text fill="#000000" font-family="sans-serif" font-size="13" lengthAdjust="spacing" textLength="30" x="479" y="448.9092">owns</text><text fill="#000000" font-family="sans-serif" font-size="13" lengthAdjust="spacing" textLength="7" x="288.6545" y="432.4806">1</text><text fill="#000000" font-family="sans-serif" font-size="13" lengthAdjust="spacing" textLength="7" x="643.8693" y="518.7661">1</text></g><!--link PropertyType to Property--><g id="link_PropertyType_Property"><path codeLine="90" d="M275.68,570.5506 C316.01,571.8106 375.58,573.6706 421.11,575.1006 " fill="none" id="PropertyType-Property" style="stroke:#181818;stroke-width:1.0;"/><polygon fill="#000000" points="327.0024,565.246,335.9512,568.4663,336.135,562.5913,327.0024,565.246" style="stroke:#000000;stroke-width:1.0;"/><text fill="#000000" font-family="sans-serif" font-size="13" lengthAdjust="spacing" textLength="49" x="341" y="569.9092">contains</text><text fill="#000000" font-family="sans-serif" font-size="13" lengthAdjust="spacing" textLength="7" x="283.5978" y="583.6788">1</text><text fill="#000000" font-family="sans-serif" font-size="13" lengthAdjust="spacing" textLength="5" x="408.5752" y="587.4489">*</text></g><!--link Owner to Request--><g id="link_Owner_Request"><path codeLine="92" d="M229.5,350.0006 C229.5,332.9806 229.5,314.8306 229.5,299.8806 " fill="none" id="Owner-Request" style="stroke:#181818;stroke-width:1.0;"/><polygon fill="#000000" points="174.5,320.1523,171.5611,329.1974,177.4389,329.1974,174.5,320.1523" style="stroke:#000000;stroke-width:1.0;"/><text fill="#000000" font-family="sans-serif" font-size="13" lengthAdjust="spacing" textLength="83" x="183.5" y="329.6592">asks to create</text><text fill="#000000" font-family="sans-serif" font-size="13" lengthAdjust="spacing" textLength="7" x="222.0297" y="339.3304">1</text><text fill="#000000" font-family="sans-serif" font-size="13" lengthAdjust="spacing" textLength="5" x="224.0234" y="319.282">*</text></g><!--link Request to Owner--><g id="link_Request_Owner"><path codeLine="106" d="M250.59,299.7206 C256.14,319.6006 253.81,329.4706 249.8,350.0806 " fill="none" id="Request-Owner" style="stroke:#181818;stroke-width:1.0;"/><polygon fill="#000000" points="213.4216,330.1517,216.502,321.1539,210.6249,321.0617,213.4216,330.1517" style="stroke:#000000;stroke-width:1.0;"/><text fill="#000000" font-family="sans-serif" font-size="13" lengthAdjust="spacing" textLength="49" x="222.5" y="329.6592">contains</text><text fill="#000000" font-family="sans-serif" font-size="13" lengthAdjust="spacing" textLength="7" x="247.053" y="319.3407">1</text><text fill="#000000" font-family="sans-serif" font-size="13" lengthAdjust="spacing" textLength="20" x="231.1841" y="339.4212">1..*</text></g><!--reverse link Request to RequestSale--><g id="link_Request_RequestSale"><path codeLine="94" d="M282.53,221.4106 C320.08,189.1206 372.51,145.4806 421,110.1406 C429.08,104.2506 437.96,98.2606 446.5,92.7106 " fill="none" id="Request-backto-RequestSale" style="stroke:#181818;stroke-width:1.0;"/><polygon fill="none" points="287.1,226.7106,267.4,234.5006,277.94,216.1206,287.1,226.7106" style="stroke:#181818;stroke-width:1.0;"/></g><!--reverse link Request to RequestLease--><g id="link_Request_RequestLease"><path codeLine="96" d="M286.24,243.8406 C325.88,227.2706 379.27,204.9606 420.95,187.5406 " fill="none" id="Request-backto-RequestLease" style="stroke:#181818;stroke-width:1.0;"/><polygon fill="none" points="288.88,250.3306,267.72,251.5806,283.48,237.4106,288.88,250.3306" style="stroke:#181818;stroke-width:1.0;"/></g><!--link Request to RequestType--><g id="link_Request_RequestType"><path codeLine="98" d="M267.72,264.9606 C313.9,262.2506 392.56,257.6406 441.91,254.7506 " fill="none" id="Request-RequestType" style="stroke:#181818;stroke-width:1.0;"/><polygon fill="#000000" points="336.9914,250.1098,327.7899,247.7051,328.1338,253.5729,336.9914,250.1098" style="stroke:#000000;stroke-width:1.0;"/><text fill="#000000" font-family="sans-serif" font-size="13" lengthAdjust="spacing" textLength="49" x="341" y="254.9092">contains</text><text fill="#000000" font-family="sans-serif" font-size="13" lengthAdjust="spacing" textLength="5" x="275.4823" y="277.7053">*</text><text fill="#000000" font-family="sans-serif" font-size="13" lengthAdjust="spacing" textLength="7" x="427.0863" y="268.0701">1</text></g><!--link Owner to Agent--><g id="link_Owner_Agent"><path codeLine="100" d="M280.65,408.6406 C312.8,408.8906 355.09,406.6406 391,396.1406 C418.66,388.0506 447.14,370.8806 465.72,358.2706 " fill="none" id="Owner-Agent" style="stroke:#181818;stroke-width:1.0;"/><polygon fill="#000000" points="340.3245,387.0893,330.8251,386.6289,332.3687,392.3004,340.3245,387.0893" style="stroke:#000000;stroke-width:1.0;"/><text fill="#000000" font-family="sans-serif" font-size="13" lengthAdjust="spacing" textLength="42" x="344.5" y="392.9092">choses</text><text fill="#000000" font-family="sans-serif" font-size="13" lengthAdjust="spacing" textLength="7" x="288.3352" y="405.8242">1</text><text fill="#000000" font-family="sans-serif" font-size="13" lengthAdjust="spacing" textLength="20" x="437.9736" y="375.541">1..*</text></g><!--link Request to Agent--><g id="link_Request_Agent"><path codeLine="102" d="M267.72,278.1906 C322.36,294.4106 422.46,324.1306 465.7,336.9706 " fill="none" id="Request-Agent" style="stroke:#181818;stroke-width:1.0;"/><polygon fill="#000000" points="336.7932,289.8254,328.9587,284.4337,327.2857,290.0684,336.7932,289.8254" style="stroke:#000000;stroke-width:1.0;"/><text fill="#000000" font-family="sans-serif" font-size="13" lengthAdjust="spacing" textLength="49" x="341" y="292.9092">contains</text><text fill="#000000" font-family="sans-serif" font-size="13" lengthAdjust="spacing" textLength="7" x="275.4121" y="293.3426">1</text><text fill="#000000" font-family="sans-serif" font-size="13" lengthAdjust="spacing" textLength="20" x="437.9487" y="349.0491">1..*</text></g><!--link Request to Property--><g id="link_Request_Property"><path codeLine="104" d="M267.81,296.5706 C285.42,310.0406 306.93,325.9106 327,339.1406 C354.44,357.2206 371.17,349.9406 391,376.1406 C423.65,419.2906 397.05,445.6206 421,494.1406 C425.47,503.1906 431.04,512.1906 437.04,520.7306 " fill="none" id="Request-Property" style="stroke:#181818;stroke-width:1.0;"/><polygon fill="#000000" points="335.0126,335.3928,331.9083,326.4032,327.2172,329.9447,335.0126,335.3928" style="stroke:#000000;stroke-width:1.0;"/><text fill="#000000" font-family="sans-serif" font-size="13" lengthAdjust="spacing" textLength="49" x="341" y="335.9092">contains</text><text fill="#000000" font-family="sans-serif" font-size="13" lengthAdjust="spacing" textLength="7" x="275.5187" y="315.1114">1</text><text fill="#000000" font-family="sans-serif" font-size="13" lengthAdjust="spacing" textLength="20" x="409.2936" y="510.4183">1..*</text></g><!--SRC=[VLJ1Rjim3BthAuHS0WneiLsB8a2R5jY0RWsMxGCKYR69o98hqSlITly-Md8TfV6MYodgyV7vaKxSeMjLK8rilFEw3hu1IQ434SURLkcTgc1D1mioW2RbAbi2OgsCtwEhv5RP249Os98aBmDMDKc3VH5w9ueQRLMCDqG1Dnt15-tT6fz1VXIYHWDIOz3S8yKDKErD58AGMC6TRnGw-TKRi4BC4v5SMKLR7nhv8kPINXY8Ec2Rcix_2951Zti7WH6IVy0aDaLEDP23hjb0M2An49SoXFdPrjx1jtGjHhPLy2q4EWo4xN3ySMWpdGgWtZ0fOJ2oTHgums49ZfYiJ_Eh6-oLde2v9VbuxFRPTn5ofusAq71zEbY_pK7itFtlriSkmBd6NbGkPcUmSYevCy9kExI6v_TI-70B9dZVn3Abg7wVMwd0Cwto6_zYJzN6mlrJXssIEBPuy3er7ToA502oy6TibppB8Qq8VgwpBrZu5b0NPD_XgOD8cGhDSCnW9c3W2MwjU6s6lXokc0pEo1w0RHrGfWj9xEDswHq5fJDtu3TIDfUVrVSMo_zuV5DnDGCuaVTmzcacBoxuSNdvOJPEwahwlOjo8KIQE2DU5-DyX7YBSdxS634kuyWw6oq_KhvhF0KfDsP4dkZZVIN-0AEyFY5CgC6BAwdYBlR_09e_0eAUUBYIrw_CM0nc-YPDutZLSm-I2xiBBOjfLvFf3AjzX5Ygc8OLRDF02HV-YKrwJe5_0G00]--></g></svg>