<?xml version="1.0" encoding="us-ascii" standalone="no"?><svg xmlns="http://www.w3.org/2000/svg" xmlns:xlink="http://www.w3.org/1999/xlink" contentStyleType="text/css" height="649px" preserveAspectRatio="none" style="width:2168px;height:649px;background:#FFFFFF;" version="1.1" viewBox="0 0 2168 649" width="2168px" zoomAndPan="magnify"><defs/><g><!--class RegisterEmployeeUI--><g id="elem_RegisterEmployeeUI"><rect codeLine="10" fill="#F1F1F1" height="66.6211" id="RegisterEmployeeUI" rx="2.5" ry="2.5" style="stroke:#181818;stroke-width:0.5;" width="241" x="7" y="44"/><ellipse cx="59.75" cy="60" fill="#ADD1B2" rx="11" ry="11" style="stroke:#181818;stroke-width:1.0;"/><path d="M62.5156,55.875 Q62.6719,55.6563 62.8594,55.5469 Q63.0469,55.4375 63.2656,55.4375 Q63.6406,55.4375 63.875,55.7031 Q64.1094,55.9531 64.1094,56.5625 L64.1094,58.0156 Q64.1094,58.625 63.875,58.8906 Q63.6406,59.1563 63.2656,59.1563 Q62.9219,59.1563 62.7188,58.9531 Q62.5156,58.7656 62.4063,58.25 Q62.3594,57.8906 62.1719,57.7031 Q61.8438,57.3281 61.2344,57.1094 Q60.625,56.8906 60,56.8906 Q59.2344,56.8906 58.5938,57.2188 Q57.9688,57.5469 57.4688,58.2969 Q56.9844,59.0469 56.9844,60.0781 L56.9844,61.1719 Q56.9844,62.4063 57.875,63.2344 Q58.7656,64.0469 60.3594,64.0469 Q61.2969,64.0469 61.9531,63.7969 Q62.3438,63.6406 62.7656,63.2031 Q63.0313,62.9375 63.1719,62.8594 Q63.3281,62.7813 63.5313,62.7813 Q63.8594,62.7813 64.1094,63.0469 Q64.375,63.2969 64.375,63.6406 Q64.375,63.9844 64.0313,64.3906 Q63.5313,64.9688 62.7344,65.2969 Q61.6563,65.75 60.3594,65.75 Q58.8438,65.75 57.6406,65.125 Q56.6563,64.625 55.9688,63.5625 Q55.2813,62.4844 55.2813,61.2031 L55.2813,60.0469 Q55.2813,58.7188 55.8906,57.5781 Q56.5156,56.4219 57.6094,55.8125 Q58.7031,55.1875 59.9375,55.1875 Q60.6719,55.1875 61.3125,55.3594 Q61.9688,55.5156 62.5156,55.875 Z " fill="#000000"/><text fill="#000000" font-family="sans-serif" font-size="14" lengthAdjust="spacing" textLength="127" x="80.25" y="65.7969">RegisterEmployeeUI</text><line style="stroke:#181818;stroke-width:0.5;" x1="8" x2="247" y1="76" y2="76"/><text fill="#000000" font-family="sans-serif" font-size="14" lengthAdjust="spacing" textLength="229" x="13" y="95.1074">+create RegisterEmployeeController</text><line style="stroke:#181818;stroke-width:0.5;" x1="8" x2="247" y1="102.6211" y2="102.6211"/></g><!--class RegisterEmployeeController--><g id="elem_RegisterEmployeeController"><rect codeLine="14" fill="#F1F1F1" height="122.4844" id="RegisterEmployeeController" rx="2.5" ry="2.5" style="stroke:#181818;stroke-width:0.5;" width="738" x="283.5" y="16.5"/><ellipse cx="559.75" cy="32.5" fill="#ADD1B2" rx="11" ry="11" style="stroke:#181818;stroke-width:1.0;"/><path d="M562.5156,28.375 Q562.6719,28.1563 562.8594,28.0469 Q563.0469,27.9375 563.2656,27.9375 Q563.6406,27.9375 563.875,28.2031 Q564.1094,28.4531 564.1094,29.0625 L564.1094,30.5156 Q564.1094,31.125 563.875,31.3906 Q563.6406,31.6563 563.2656,31.6563 Q562.9219,31.6563 562.7188,31.4531 Q562.5156,31.2656 562.4063,30.75 Q562.3594,30.3906 562.1719,30.2031 Q561.8438,29.8281 561.2344,29.6094 Q560.625,29.3906 560,29.3906 Q559.2344,29.3906 558.5938,29.7188 Q557.9688,30.0469 557.4688,30.7969 Q556.9844,31.5469 556.9844,32.5781 L556.9844,33.6719 Q556.9844,34.9063 557.875,35.7344 Q558.7656,36.5469 560.3594,36.5469 Q561.2969,36.5469 561.9531,36.2969 Q562.3438,36.1406 562.7656,35.7031 Q563.0313,35.4375 563.1719,35.3594 Q563.3281,35.2813 563.5313,35.2813 Q563.8594,35.2813 564.1094,35.5469 Q564.375,35.7969 564.375,36.1406 Q564.375,36.4844 564.0313,36.8906 Q563.5313,37.4688 562.7344,37.7969 Q561.6563,38.25 560.3594,38.25 Q558.8438,38.25 557.6406,37.625 Q556.6563,37.125 555.9688,36.0625 Q555.2813,34.9844 555.2813,33.7031 L555.2813,32.5469 Q555.2813,31.2188 555.8906,30.0781 Q556.5156,28.9219 557.6094,28.3125 Q558.7031,27.6875 559.9375,27.6875 Q560.6719,27.6875 561.3125,27.8594 Q561.9688,28.0156 562.5156,28.375 Z " fill="#000000"/><text fill="#000000" font-family="sans-serif" font-size="14" lengthAdjust="spacing" textLength="177" x="580.25" y="38.2969">RegisterEmployeeController</text><line style="stroke:#181818;stroke-width:0.5;" x1="284.5" x2="1020.5" y1="48.5" y2="48.5"/><line style="stroke:#181818;stroke-width:0.5;" x1="284.5" x2="1020.5" y1="56.5" y2="56.5"/><text fill="#000000" font-family="sans-serif" font-size="14" lengthAdjust="spacing" textLength="91" x="289.5" y="75.6074">+getInstance()</text><text fill="#000000" font-family="sans-serif" font-size="14" lengthAdjust="spacing" textLength="186" x="289.5" y="94.2285">+getUserRoleListRepository()</text><text fill="#000000" font-family="sans-serif" font-size="14" lengthAdjust="spacing" textLength="162" x="289.5" y="112.8496">+getStoreListRepository()</text><text fill="#000000" font-family="sans-serif" font-size="14" lengthAdjust="spacing" textLength="726" x="289.5" y="131.4707">+createEmployee(name, citizenNum, tin, email, phoneNum, storeID, street, zipCode, stateUS, city, district, userRole)</text></g><!--class Repositories--><g id="elem_Repositories"><rect codeLine="21" fill="#F1F1F1" height="141.1055" id="Repositories" rx="2.5" ry="2.5" style="stroke:#181818;stroke-width:0.5;" width="208" x="1125.5" y="7"/><ellipse cx="1185.75" cy="23" fill="#ADD1B2" rx="11" ry="11" style="stroke:#181818;stroke-width:1.0;"/><path d="M1188.5156,18.875 Q1188.6719,18.6563 1188.8594,18.5469 Q1189.0469,18.4375 1189.2656,18.4375 Q1189.6406,18.4375 1189.875,18.7031 Q1190.1094,18.9531 1190.1094,19.5625 L1190.1094,21.0156 Q1190.1094,21.625 1189.875,21.8906 Q1189.6406,22.1563 1189.2656,22.1563 Q1188.9219,22.1563 1188.7188,21.9531 Q1188.5156,21.7656 1188.4063,21.25 Q1188.3594,20.8906 1188.1719,20.7031 Q1187.8438,20.3281 1187.2344,20.1094 Q1186.625,19.8906 1186,19.8906 Q1185.2344,19.8906 1184.5938,20.2188 Q1183.9688,20.5469 1183.4688,21.2969 Q1182.9844,22.0469 1182.9844,23.0781 L1182.9844,24.1719 Q1182.9844,25.4063 1183.875,26.2344 Q1184.7656,27.0469 1186.3594,27.0469 Q1187.2969,27.0469 1187.9531,26.7969 Q1188.3438,26.6406 1188.7656,26.2031 Q1189.0313,25.9375 1189.1719,25.8594 Q1189.3281,25.7813 1189.5313,25.7813 Q1189.8594,25.7813 1190.1094,26.0469 Q1190.375,26.2969 1190.375,26.6406 Q1190.375,26.9844 1190.0313,27.3906 Q1189.5313,27.9688 1188.7344,28.2969 Q1187.6563,28.75 1186.3594,28.75 Q1184.8438,28.75 1183.6406,28.125 Q1182.6563,27.625 1181.9688,26.5625 Q1181.2813,25.4844 1181.2813,24.2031 L1181.2813,23.0469 Q1181.2813,21.7188 1181.8906,20.5781 Q1182.5156,19.4219 1183.6094,18.8125 Q1184.7031,18.1875 1185.9375,18.1875 Q1186.6719,18.1875 1187.3125,18.3594 Q1187.9688,18.5156 1188.5156,18.875 Z " fill="#000000"/><text fill="#000000" font-family="sans-serif" font-size="14" lengthAdjust="spacing" textLength="79" x="1206.25" y="28.7969">Repositories</text><line style="stroke:#181818;stroke-width:0.5;" x1="1126.5" x2="1332.5" y1="39" y2="39"/><line style="stroke:#181818;stroke-width:0.5;" x1="1126.5" x2="1332.5" y1="47" y2="47"/><text fill="#000000" font-family="sans-serif" font-size="14" lengthAdjust="spacing" textLength="94" x="1131.5" y="66.1074">-Repositories()</text><text fill="#000000" font-family="sans-serif" font-size="14" lengthAdjust="spacing" textLength="182" x="1131.5" y="84.7285">+getInstance() : Repositories</text><text fill="#000000" font-family="sans-serif" font-size="14" lengthAdjust="spacing" textLength="140" x="1131.5" y="103.3496">+getStoreRepository()</text><text fill="#000000" font-family="sans-serif" font-size="14" lengthAdjust="spacing" textLength="196" x="1131.5" y="121.9707">+getAuthenticationRepository()</text><text fill="#000000" font-family="sans-serif" font-size="14" lengthAdjust="spacing" textLength="151" x="1131.5" y="140.5918">+getPersonRepository()</text></g><!--class AuthenticationRepository--><g id="elem_AuthenticationRepository"><rect codeLine="29" fill="#F1F1F1" height="85.2422" id="AuthenticationRepository" rx="2.5" ry="2.5" style="stroke:#181818;stroke-width:0.5;" width="238" x="815.5" y="209"/><ellipse cx="852.1" cy="225" fill="#ADD1B2" rx="11" ry="11" style="stroke:#181818;stroke-width:1.0;"/><path d="M854.8656,220.875 Q855.0219,220.6563 855.2094,220.5469 Q855.3969,220.4375 855.6156,220.4375 Q855.9906,220.4375 856.225,220.7031 Q856.4594,220.9531 856.4594,221.5625 L856.4594,223.0156 Q856.4594,223.625 856.225,223.8906 Q855.9906,224.1563 855.6156,224.1563 Q855.2719,224.1563 855.0688,223.9531 Q854.8656,223.7656 854.7563,223.25 Q854.7094,222.8906 854.5219,222.7031 Q854.1938,222.3281 853.5844,222.1094 Q852.975,221.8906 852.35,221.8906 Q851.5844,221.8906 850.9438,222.2188 Q850.3188,222.5469 849.8188,223.2969 Q849.3344,224.0469 849.3344,225.0781 L849.3344,226.1719 Q849.3344,227.4063 850.225,228.2344 Q851.1156,229.0469 852.7094,229.0469 Q853.6469,229.0469 854.3031,228.7969 Q854.6938,228.6406 855.1156,228.2031 Q855.3813,227.9375 855.5219,227.8594 Q855.6781,227.7813 855.8813,227.7813 Q856.2094,227.7813 856.4594,228.0469 Q856.725,228.2969 856.725,228.6406 Q856.725,228.9844 856.3813,229.3906 Q855.8813,229.9688 855.0844,230.2969 Q854.0063,230.75 852.7094,230.75 Q851.1938,230.75 849.9906,230.125 Q849.0063,229.625 848.3188,228.5625 Q847.6313,227.4844 847.6313,226.2031 L847.6313,225.0469 Q847.6313,223.7188 848.2406,222.5781 Q848.8656,221.4219 849.9594,220.8125 Q851.0531,220.1875 852.2875,220.1875 Q853.0219,220.1875 853.6625,220.3594 Q854.3188,220.5156 854.8656,220.875 Z " fill="#000000"/><text fill="#000000" font-family="sans-serif" font-size="14" lengthAdjust="spacing" textLength="158" x="870.9" y="230.7969">AuthenticationRepository</text><line style="stroke:#181818;stroke-width:0.5;" x1="816.5" x2="1052.5" y1="241" y2="241"/><text fill="#000000" font-family="sans-serif" font-size="14" lengthAdjust="spacing" textLength="226" x="821.5" y="260.1074">+AuthFacade authenticationFacade</text><line style="stroke:#181818;stroke-width:0.5;" x1="816.5" x2="1052.5" y1="267.6211" y2="267.6211"/><text fill="#000000" font-family="sans-serif" font-size="14" lengthAdjust="spacing" textLength="115" x="821.5" y="286.7285">+existsUser(email)</text></g><!--class StoreRepository--><g id="elem_StoreRepository"><rect codeLine="34" fill="#F1F1F1" height="66.6211" id="StoreRepository" rx="2.5" ry="2.5" style="stroke:#181818;stroke-width:0.5;" width="281" x="1089" y="218"/><ellipse cx="1174.25" cy="234" fill="#ADD1B2" rx="11" ry="11" style="stroke:#181818;stroke-width:1.0;"/><path d="M1177.0156,229.875 Q1177.1719,229.6563 1177.3594,229.5469 Q1177.5469,229.4375 1177.7656,229.4375 Q1178.1406,229.4375 1178.375,229.7031 Q1178.6094,229.9531 1178.6094,230.5625 L1178.6094,232.0156 Q1178.6094,232.625 1178.375,232.8906 Q1178.1406,233.1563 1177.7656,233.1563 Q1177.4219,233.1563 1177.2188,232.9531 Q1177.0156,232.7656 1176.9063,232.25 Q1176.8594,231.8906 1176.6719,231.7031 Q1176.3438,231.3281 1175.7344,231.1094 Q1175.125,230.8906 1174.5,230.8906 Q1173.7344,230.8906 1173.0938,231.2188 Q1172.4688,231.5469 1171.9688,232.2969 Q1171.4844,233.0469 1171.4844,234.0781 L1171.4844,235.1719 Q1171.4844,236.4063 1172.375,237.2344 Q1173.2656,238.0469 1174.8594,238.0469 Q1175.7969,238.0469 1176.4531,237.7969 Q1176.8438,237.6406 1177.2656,237.2031 Q1177.5313,236.9375 1177.6719,236.8594 Q1177.8281,236.7813 1178.0313,236.7813 Q1178.3594,236.7813 1178.6094,237.0469 Q1178.875,237.2969 1178.875,237.6406 Q1178.875,237.9844 1178.5313,238.3906 Q1178.0313,238.9688 1177.2344,239.2969 Q1176.1563,239.75 1174.8594,239.75 Q1173.3438,239.75 1172.1406,239.125 Q1171.1563,238.625 1170.4688,237.5625 Q1169.7813,236.4844 1169.7813,235.2031 L1169.7813,234.0469 Q1169.7813,232.7188 1170.3906,231.5781 Q1171.0156,230.4219 1172.1094,229.8125 Q1173.2031,229.1875 1174.4375,229.1875 Q1175.1719,229.1875 1175.8125,229.3594 Q1176.4688,229.5156 1177.0156,229.875 Z " fill="#000000"/><text fill="#000000" font-family="sans-serif" font-size="14" lengthAdjust="spacing" textLength="102" x="1194.75" y="239.7969">StoreRepository</text><line style="stroke:#181818;stroke-width:0.5;" x1="1090" x2="1369" y1="250" y2="250"/><line style="stroke:#181818;stroke-width:0.5;" x1="1090" x2="1369" y1="258" y2="258"/><text fill="#000000" font-family="sans-serif" font-size="14" lengthAdjust="spacing" textLength="269" x="1095" y="277.1074">+addEmployeeToStore(employee, storeID)</text></g><!--class Store--><g id="elem_Store"><rect codeLine="38" fill="#F1F1F1" height="159.7266" id="Store" rx="2.5" ry="2.5" style="stroke:#181818;stroke-width:0.5;" width="143" x="1158" y="355"/><ellipse cx="1208.25" cy="371" fill="#ADD1B2" rx="11" ry="11" style="stroke:#181818;stroke-width:1.0;"/><path d="M1211.0156,366.875 Q1211.1719,366.6563 1211.3594,366.5469 Q1211.5469,366.4375 1211.7656,366.4375 Q1212.1406,366.4375 1212.375,366.7031 Q1212.6094,366.9531 1212.6094,367.5625 L1212.6094,369.0156 Q1212.6094,369.625 1212.375,369.8906 Q1212.1406,370.1563 1211.7656,370.1563 Q1211.4219,370.1563 1211.2188,369.9531 Q1211.0156,369.7656 1210.9063,369.25 Q1210.8594,368.8906 1210.6719,368.7031 Q1210.3438,368.3281 1209.7344,368.1094 Q1209.125,367.8906 1208.5,367.8906 Q1207.7344,367.8906 1207.0938,368.2188 Q1206.4688,368.5469 1205.9688,369.2969 Q1205.4844,370.0469 1205.4844,371.0781 L1205.4844,372.1719 Q1205.4844,373.4063 1206.375,374.2344 Q1207.2656,375.0469 1208.8594,375.0469 Q1209.7969,375.0469 1210.4531,374.7969 Q1210.8438,374.6406 1211.2656,374.2031 Q1211.5313,373.9375 1211.6719,373.8594 Q1211.8281,373.7813 1212.0313,373.7813 Q1212.3594,373.7813 1212.6094,374.0469 Q1212.875,374.2969 1212.875,374.6406 Q1212.875,374.9844 1212.5313,375.3906 Q1212.0313,375.9688 1211.2344,376.2969 Q1210.1563,376.75 1208.8594,376.75 Q1207.3438,376.75 1206.1406,376.125 Q1205.1563,375.625 1204.4688,374.5625 Q1203.7813,373.4844 1203.7813,372.2031 L1203.7813,371.0469 Q1203.7813,369.7188 1204.3906,368.5781 Q1205.0156,367.4219 1206.1094,366.8125 Q1207.2031,366.1875 1208.4375,366.1875 Q1209.1719,366.1875 1209.8125,366.3594 Q1210.4688,366.5156 1211.0156,366.875 Z " fill="#000000"/><text fill="#000000" font-family="sans-serif" font-size="14" lengthAdjust="spacing" textLength="34" x="1228.75" y="376.7969">Store</text><line style="stroke:#181818;stroke-width:0.5;" x1="1159" x2="1300" y1="387" y2="387"/><text fill="#000000" font-family="sans-serif" font-size="14" lengthAdjust="spacing" textLength="80" x="1164" y="406.1074">-String prefix</text><text fill="#000000" font-family="sans-serif" font-size="14" lengthAdjust="spacing" textLength="92" x="1164" y="424.7285">-int numStores</text><text fill="#000000" font-family="sans-serif" font-size="14" lengthAdjust="spacing" textLength="81" x="1164" y="443.3496">-String name</text><text fill="#000000" font-family="sans-serif" font-size="14" lengthAdjust="spacing" textLength="131" x="1164" y="461.9707">-String emailAddress</text><text fill="#000000" font-family="sans-serif" font-size="14" lengthAdjust="spacing" textLength="113" x="1164" y="480.5918">-int phoneNumber</text><text fill="#000000" font-family="sans-serif" font-size="14" lengthAdjust="spacing" textLength="91" x="1164" y="499.2129">-String idStore</text><line style="stroke:#181818;stroke-width:0.5;" x1="1159" x2="1300" y1="506.7266" y2="506.7266"/></g><!--class PersonRepository--><g id="elem_PersonRepository"><rect codeLine="47" fill="#F1F1F1" height="66.6211" id="PersonRepository" rx="2.5" ry="2.5" style="stroke:#181818;stroke-width:0.5;" width="756" x="1405.5" y="218"/><ellipse cx="1722.75" cy="234" fill="#ADD1B2" rx="11" ry="11" style="stroke:#181818;stroke-width:1.0;"/><path d="M1725.5156,229.875 Q1725.6719,229.6563 1725.8594,229.5469 Q1726.0469,229.4375 1726.2656,229.4375 Q1726.6406,229.4375 1726.875,229.7031 Q1727.1094,229.9531 1727.1094,230.5625 L1727.1094,232.0156 Q1727.1094,232.625 1726.875,232.8906 Q1726.6406,233.1563 1726.2656,233.1563 Q1725.9219,233.1563 1725.7188,232.9531 Q1725.5156,232.7656 1725.4063,232.25 Q1725.3594,231.8906 1725.1719,231.7031 Q1724.8438,231.3281 1724.2344,231.1094 Q1723.625,230.8906 1723,230.8906 Q1722.2344,230.8906 1721.5938,231.2188 Q1720.9688,231.5469 1720.4688,232.2969 Q1719.9844,233.0469 1719.9844,234.0781 L1719.9844,235.1719 Q1719.9844,236.4063 1720.875,237.2344 Q1721.7656,238.0469 1723.3594,238.0469 Q1724.2969,238.0469 1724.9531,237.7969 Q1725.3438,237.6406 1725.7656,237.2031 Q1726.0313,236.9375 1726.1719,236.8594 Q1726.3281,236.7813 1726.5313,236.7813 Q1726.8594,236.7813 1727.1094,237.0469 Q1727.375,237.2969 1727.375,237.6406 Q1727.375,237.9844 1727.0313,238.3906 Q1726.5313,238.9688 1725.7344,239.2969 Q1724.6563,239.75 1723.3594,239.75 Q1721.8438,239.75 1720.6406,239.125 Q1719.6563,238.625 1718.9688,237.5625 Q1718.2813,236.4844 1718.2813,235.2031 L1718.2813,234.0469 Q1718.2813,232.7188 1718.8906,231.5781 Q1719.5156,230.4219 1720.6094,229.8125 Q1721.7031,229.1875 1722.9375,229.1875 Q1723.6719,229.1875 1724.3125,229.3594 Q1724.9688,229.5156 1725.5156,229.875 Z " fill="#000000"/><text fill="#000000" font-family="sans-serif" font-size="14" lengthAdjust="spacing" textLength="113" x="1743.25" y="239.7969">PersonRepository</text><line style="stroke:#181818;stroke-width:0.5;" x1="1406.5" x2="2160.5" y1="250" y2="250"/><line style="stroke:#181818;stroke-width:0.5;" x1="1406.5" x2="2160.5" y1="258" y2="258"/><text fill="#000000" font-family="sans-serif" font-size="14" lengthAdjust="spacing" textLength="744" x="1411.5" y="277.1074">+addEmployeeWithLocation(email, name, citizenNum, tin, phoneNum, street, zipCode, stateUS, city, district, userRole)}</text></g><!--class Person--><g id="elem_Person"><rect codeLine="51" fill="#F1F1F1" height="122.4844" id="Person" rx="2.5" ry="2.5" style="stroke:#181818;stroke-width:0.5;" width="130" x="1718.5" y="374"/><ellipse cx="1757.35" cy="390" fill="#ADD1B2" rx="11" ry="11" style="stroke:#181818;stroke-width:1.0;"/><path d="M1760.1156,385.875 Q1760.2719,385.6563 1760.4594,385.5469 Q1760.6469,385.4375 1760.8656,385.4375 Q1761.2406,385.4375 1761.475,385.7031 Q1761.7094,385.9531 1761.7094,386.5625 L1761.7094,388.0156 Q1761.7094,388.625 1761.475,388.8906 Q1761.2406,389.1563 1760.8656,389.1563 Q1760.5219,389.1563 1760.3188,388.9531 Q1760.1156,388.7656 1760.0063,388.25 Q1759.9594,387.8906 1759.7719,387.7031 Q1759.4438,387.3281 1758.8344,387.1094 Q1758.225,386.8906 1757.6,386.8906 Q1756.8344,386.8906 1756.1938,387.2188 Q1755.5688,387.5469 1755.0688,388.2969 Q1754.5844,389.0469 1754.5844,390.0781 L1754.5844,391.1719 Q1754.5844,392.4063 1755.475,393.2344 Q1756.3656,394.0469 1757.9594,394.0469 Q1758.8969,394.0469 1759.5531,393.7969 Q1759.9438,393.6406 1760.3656,393.2031 Q1760.6313,392.9375 1760.7719,392.8594 Q1760.9281,392.7813 1761.1313,392.7813 Q1761.4594,392.7813 1761.7094,393.0469 Q1761.975,393.2969 1761.975,393.6406 Q1761.975,393.9844 1761.6313,394.3906 Q1761.1313,394.9688 1760.3344,395.2969 Q1759.2563,395.75 1757.9594,395.75 Q1756.4438,395.75 1755.2406,395.125 Q1754.2563,394.625 1753.5688,393.5625 Q1752.8813,392.4844 1752.8813,391.2031 L1752.8813,390.0469 Q1752.8813,388.7188 1753.4906,387.5781 Q1754.1156,386.4219 1755.2094,385.8125 Q1756.3031,385.1875 1757.5375,385.1875 Q1758.2719,385.1875 1758.9125,385.3594 Q1759.5688,385.5156 1760.1156,385.875 Z " fill="#000000"/><text fill="#000000" font-family="sans-serif" font-size="14" lengthAdjust="spacing" textLength="45" x="1776.65" y="395.7969">Person</text><line style="stroke:#181818;stroke-width:0.5;" x1="1719.5" x2="1847.5" y1="406" y2="406"/><text fill="#000000" font-family="sans-serif" font-size="14" lengthAdjust="spacing" textLength="118" x="1724.5" y="425.1074">-int: numberCitizen</text><text fill="#000000" font-family="sans-serif" font-size="14" lengthAdjust="spacing" textLength="43" x="1724.5" y="443.7285">-int: tin</text><text fill="#000000" font-family="sans-serif" font-size="14" lengthAdjust="spacing" textLength="117" x="1724.5" y="462.3496">-int: phoneNumber</text><text fill="#000000" font-family="sans-serif" font-size="14" lengthAdjust="spacing" textLength="85" x="1724.5" y="480.9707">-String: name</text><line style="stroke:#181818;stroke-width:0.5;" x1="1719.5" x2="1847.5" y1="488.4844" y2="488.4844"/></g><!--class Employee--><g id="elem_Employee"><rect codeLine="58" fill="#F1F1F1" height="66.6211" id="Employee" rx="2.5" ry="2.5" style="stroke:#181818;stroke-width:0.5;" width="94" x="1736.5" y="576"/><ellipse cx="1751.5" cy="592" fill="#ADD1B2" rx="11" ry="11" style="stroke:#181818;stroke-width:1.0;"/><path d="M1754.2656,587.875 Q1754.4219,587.6563 1754.6094,587.5469 Q1754.7969,587.4375 1755.0156,587.4375 Q1755.3906,587.4375 1755.625,587.7031 Q1755.8594,587.9531 1755.8594,588.5625 L1755.8594,590.0156 Q1755.8594,590.625 1755.625,590.8906 Q1755.3906,591.1563 1755.0156,591.1563 Q1754.6719,591.1563 1754.4688,590.9531 Q1754.2656,590.7656 1754.1563,590.25 Q1754.1094,589.8906 1753.9219,589.7031 Q1753.5938,589.3281 1752.9844,589.1094 Q1752.375,588.8906 1751.75,588.8906 Q1750.9844,588.8906 1750.3438,589.2188 Q1749.7188,589.5469 1749.2188,590.2969 Q1748.7344,591.0469 1748.7344,592.0781 L1748.7344,593.1719 Q1748.7344,594.4063 1749.625,595.2344 Q1750.5156,596.0469 1752.1094,596.0469 Q1753.0469,596.0469 1753.7031,595.7969 Q1754.0938,595.6406 1754.5156,595.2031 Q1754.7813,594.9375 1754.9219,594.8594 Q1755.0781,594.7813 1755.2813,594.7813 Q1755.6094,594.7813 1755.8594,595.0469 Q1756.125,595.2969 1756.125,595.6406 Q1756.125,595.9844 1755.7813,596.3906 Q1755.2813,596.9688 1754.4844,597.2969 Q1753.4063,597.75 1752.1094,597.75 Q1750.5938,597.75 1749.3906,597.125 Q1748.4063,596.625 1747.7188,595.5625 Q1747.0313,594.4844 1747.0313,593.2031 L1747.0313,592.0469 Q1747.0313,590.7188 1747.6406,589.5781 Q1748.2656,588.4219 1749.3594,587.8125 Q1750.4531,587.1875 1751.6875,587.1875 Q1752.4219,587.1875 1753.0625,587.3594 Q1753.7188,587.5156 1754.2656,587.875 Z " fill="#000000"/><text fill="#000000" font-family="sans-serif" font-size="14" lengthAdjust="spacing" textLength="62" x="1765.5" y="597.7969">Employee</text><line style="stroke:#181818;stroke-width:0.5;" x1="1737.5" x2="1829.5" y1="608" y2="608"/><text fill="#000000" font-family="sans-serif" font-size="14" lengthAdjust="spacing" textLength="74" x="1742.5" y="627.1074">-String: role</text><line style="stroke:#181818;stroke-width:0.5;" x1="1737.5" x2="1829.5" y1="634.6211" y2="634.6211"/></g><!--link Repositories to Repositories--><g id="link_Repositories_Repositories"><path codeLine="62" d="M1333.76,59.58 C1354.08,61.66 1368.5,67.64 1368.5,77.5 C1368.5,86.52 1356.45,92.28 1338.86,94.79 " fill="none" id="Repositories-to-Repositories" style="stroke:#181818;stroke-width:1.0;"/><polygon fill="#181818" points="1333.76,95.42,1343.1744,98.3128,1338.724,94.8209,1342.2159,90.3704,1333.76,95.42" style="stroke:#181818;stroke-width:1.0;"/><text fill="#000000" font-family="sans-serif" font-size="13" lengthAdjust="spacing" textLength="49" x="1374.5" y="83.0283">instance</text></g><!--link RegisterEmployeeController to Repositories--><g id="link_RegisterEmployeeController_Repositories"><path codeLine="63" d="M1021.6,77.5 C1057.03,77.5 1090.71,77.5 1120.23,77.5 " fill="none" id="RegisterEmployeeController-to-Repositories" style="stroke:#181818;stroke-width:1.0;stroke-dasharray:7.0,7.0;"/><polygon fill="#181818" points="1125.32,77.5,1116.32,73.5,1120.32,77.5,1116.32,81.5,1125.32,77.5" style="stroke:#181818;stroke-width:1.0;"/><text fill="#000000" font-family="sans-serif" font-size="13" lengthAdjust="spacing" textLength="67" x="1040" y="70.5283">repositories</text></g><!--link RegisterEmployeeUI to RegisterEmployeeController--><g id="link_RegisterEmployeeUI_RegisterEmployeeController"><path codeLine="65" d="M248.09,77.5 C259.27,77.5 269.6,77.5 278.19,77.5 " fill="none" id="RegisterEmployeeUI-to-RegisterEmployeeController" style="stroke:#181818;stroke-width:1.0;stroke-dasharray:7.0,7.0;"/><polygon fill="#181818" points="283.31,77.5,274.31,73.5,278.31,77.5,274.31,81.5,283.31,77.5" style="stroke:#181818;stroke-width:1.0;"/></g><!--link Repositories to StoreRepository--><g id="link_Repositories_StoreRepository"><path codeLine="68" d="M1229.5,148.46 C1229.5,170.39 1229.5,193.77 1229.5,212.61 " fill="none" id="Repositories-to-StoreRepository" style="stroke:#181818;stroke-width:1.0;"/><polygon fill="#181818" points="1229.5,217.79,1233.5,208.79,1229.5,212.79,1225.5,208.79,1229.5,217.79" style="stroke:#181818;stroke-width:1.0;"/><text fill="#000000" font-family="sans-serif" font-size="13" lengthAdjust="spacing" textLength="7" x="1221.8328" y="206.8359">1</text></g><!--link Repositories to AuthenticationRepository--><g id="link_Repositories_AuthenticationRepository"><path codeLine="69" d="M1125.49,139.14 C1087.55,161.26 1045.39,185.84 1010.36,206.27 " fill="none" id="Repositories-to-AuthenticationRepository" style="stroke:#181818;stroke-width:1.0;"/><polygon fill="#181818" points="1005.68,209,1015.4699,207.9243,1009.9999,206.4824,1011.4418,201.0124,1005.68,209" style="stroke:#181818;stroke-width:1.0;"/><text fill="#000000" font-family="sans-serif" font-size="13" lengthAdjust="spacing" textLength="7" x="1009.8895" y="197.5855">1</text></g><!--link Repositories to PersonRepository--><g id="link_Repositories_PersonRepository"><path codeLine="70" d="M1333.7,110.85 C1430.64,140.95 1574.59,185.64 1673.39,216.31 " fill="none" id="Repositories-to-PersonRepository" style="stroke:#181818;stroke-width:1.0;"/><polygon fill="#181818" points="1678.35,217.85,1670.9461,211.3552,1673.5761,216.3635,1668.5677,218.9935,1678.35,217.85" style="stroke:#181818;stroke-width:1.0;"/><text fill="#000000" font-family="sans-serif" font-size="13" lengthAdjust="spacing" textLength="7" x="1649.9595" y="206.646">1</text></g><!--link StoreRepository to Store--><g id="link_StoreRepository_Store"><path codeLine="72" d="M1229.5,285.37 C1229.5,303.51 1229.5,326.94 1229.5,349.82 " fill="none" id="StoreRepository-to-Store" style="stroke:#181818;stroke-width:1.0;"/><polygon fill="#181818" points="1229.5,355,1233.5,346,1229.5,350,1225.5,346,1229.5,355" style="stroke:#181818;stroke-width:1.0;"/><text fill="#000000" font-family="sans-serif" font-size="13" lengthAdjust="spacing" textLength="5" x="1224.2617" y="343.6201">*</text></g><!--link PersonRepository to Person--><g id="link_PersonRepository_Person"><path codeLine="73" d="M1783.5,285.37 C1783.5,308.55 1783.5,340.37 1783.5,368.62 " fill="none" id="PersonRepository-to-Person" style="stroke:#181818;stroke-width:1.0;"/><polygon fill="#181818" points="1783.5,373.85,1787.5,364.85,1783.5,368.85,1779.5,364.85,1783.5,373.85" style="stroke:#181818;stroke-width:1.0;"/><text fill="#000000" font-family="sans-serif" font-size="13" lengthAdjust="spacing" textLength="5" x="1778.2109" y="362.8139">*</text></g><!--link Person to Employee--><g id="link_Person_Employee"><path codeLine="75" d="M1783.5,496.33 C1783.5,520.98 1783.5,548.73 1783.5,570.47 " fill="none" id="Person-to-Employee" style="stroke:#181818;stroke-width:1.0;"/><polygon fill="#181818" points="1783.5,575.58,1787.5,566.58,1783.5,570.58,1779.5,566.58,1783.5,575.58" style="stroke:#181818;stroke-width:1.0;"/></g><!--SRC=[bLHDRzim3BthLmYz9DtSORlcC238DY10CGp9WfrLcRM5of8XqLZTelzzj6mdic8Nc4yM-VZn7Ycj_9CojN2YufKrLfRELi3HDS0kdbh89r704LiDt854OGeT0tmfSljNcO8_2krZZrO6iAs1rrQttO6jPfpMeMLHbDJ2-osYKmyDmbvQSrGlm3ypjjBmY1mjTweeaUUgQqTPmq88Fq2XF8BxNjNQjW2dFNzbdBwFqe50k0Bih45djGR7tjX2aWjcJCOBmBtnf8E4zUt5TlBW3bR3FSKVeBPUeNLjZ3YIOSdTjpXMNHjHGSQbGg9kVZPLnb6PZ4CbbCvuNLe3mUgxbFjltOy3m8o_g7fdS-WCbEzq34dQZCGYX9A4Q8O-RsFIGpyA_43pRcACMLouyyq4b12Trs3RO0a6bHJTvEOnly3vn7TkTIb-74xd_o6ao86B2RGt3YXu9ZbyDx5ra3GgaFG-vXLvFWxdjmqOYkpFvocaMKObZwGyNO_QmQDw7cpA83TD5N1-YkjcFxM47hTvJb0VnOzhy40BFC6hFEIzj9CgEiFgZyBotlPQhOSzMzZ2UFt-U-lUqgu6bOZGfbE4oEpwWf6ToaQdAzuzxKslt3dzoEnr2gBR742JfR_xEhq46nAuNtFspelmwIhAnVU1pRn88MJn6KgxehPkljoaEpaFMhePy-Xq8nXBYlJ83qDnbkBFxjx11a0mZyJ-0G00]--></g></svg>