<?xml version="1.0" encoding="UTF-8" standalone="no"?><svg xmlns="http://www.w3.org/2000/svg" xmlns:xlink="http://www.w3.org/1999/xlink" contentStyleType="text/css" height="1245px" preserveAspectRatio="none" style="width:472px;height:1245px;background:#FFFFFF;" version="1.1" viewBox="0 0 472 1245" width="472px" zoomAndPan="magnify"><defs/><g><rect fill="none" height="27.6094" id="_title" style="stroke:none;stroke-width:1.0;" width="440" x="17.75" y="10"/><text fill="#000000" font-family="sans-serif" font-size="14" font-weight="bold" lengthAdjust="spacing" textLength="430" x="22.75" y="29.5332">System Sequence Diagram (SSD) - Create sale announcement</text><rect fill="#FFFFFF" height="1023.4922" style="stroke:#181818;stroke-width:1.0;" width="10" x="56.5" y="131.2188"/><rect fill="#FFFFFF" height="30.3516" style="stroke:#181818;stroke-width:1.0;" width="10" x="399.5" y="169.9219"/><rect fill="#FFFFFF" height="63.0547" style="stroke:#181818;stroke-width:1.0;" width="10" x="399.5" y="230.625"/><rect fill="#FFFFFF" height="30.3516" style="stroke:#181818;stroke-width:1.0;" width="10" x="399.5" y="324.0313"/><rect fill="#FFFFFF" height="116.8906" style="stroke:#181818;stroke-width:1.0;" width="10" x="399.5" y="384.7344"/><rect fill="#FFFFFF" height="46.7031" style="stroke:#181818;stroke-width:1.0;" width="10" x="399.5" y="523.9766"/><rect fill="#FFFFFF" height="72.0547" style="stroke:#181818;stroke-width:1.0;" width="10" x="399.5" y="601.0313"/><rect fill="#FFFFFF" height="72.0547" style="stroke:#181818;stroke-width:1.0;" width="10" x="399.5" y="703.4375"/><rect fill="#FFFFFF" height="104.4063" style="stroke:#181818;stroke-width:1.0;" width="10" x="399.5" y="805.8438"/><rect fill="#FFFFFF" height="76.7031" style="stroke:#181818;stroke-width:1.0;" width="10" x="399.5" y="940.6016"/><rect fill="#FFFFFF" height="15" style="stroke:#181818;stroke-width:1.0;" width="10" x="399.5" y="1047.6563"/><rect fill="#FFFFFF" height="30.3516" style="stroke:#181818;stroke-width:1.0;" width="10" x="399.5" y="1115.3594"/><rect fill="none" height="94.8906" style="stroke:#000000;stroke-width:1.5;" width="416.5" x="30" y="399.7344"/><rect fill="none" height="346.5703" style="stroke:#000000;stroke-width:1.5;" width="456.5" x="10" y="616.0313"/><rect fill="none" height="95.4063" style="stroke:#000000;stroke-width:1.5;" width="416.5" x="30" y="718.4375"/><rect fill="none" height="127.7578" style="stroke:#000000;stroke-width:1.5;" width="436.5" x="20" y="827.8438"/><rect fill="none" height="95.4063" style="stroke:#000000;stroke-width:1.5;" width="416.5" x="30" y="853.1953"/><rect fill="none" height="79.0547" style="stroke:#000000;stroke-width:1.5;" width="416.5" x="30" y="976.6016"/><line style="stroke:#181818;stroke-width:0.5;stroke-dasharray:5.0,5.0;" x1="61" x2="61" y1="121.2188" y2="1163.7109"/><line style="stroke:#181818;stroke-width:0.5;stroke-dasharray:5.0,5.0;" x1="404.5" x2="404.5" y1="121.2188" y2="1163.7109"/><text fill="#000000" font-family="sans-serif" font-size="14" lengthAdjust="spacing" textLength="37" x="40" y="118.1426">Agent</text><ellipse cx="61.5" cy="52.1094" fill="#E3E3E3" rx="8" ry="8" style="stroke:#181818;stroke-width:0.5;"/><path d="M61.5,60.1094 L61.5,87.1094 M48.5,68.1094 L74.5,68.1094 M61.5,87.1094 L48.5,102.1094 M61.5,87.1094 L74.5,102.1094 " fill="none" style="stroke:#181818;stroke-width:0.5;"/><text fill="#000000" font-family="sans-serif" font-size="14" lengthAdjust="spacing" textLength="37" x="40" y="1177.2441">Agent</text><ellipse cx="61.5" cy="1188.8203" fill="#E3E3E3" rx="8" ry="8" style="stroke:#181818;stroke-width:0.5;"/><path d="M61.5,1196.8203 L61.5,1223.8203 M48.5,1204.8203 L74.5,1204.8203 M61.5,1223.8203 L48.5,1238.8203 M61.5,1223.8203 L74.5,1238.8203 " fill="none" style="stroke:#181818;stroke-width:0.5;"/><rect fill="#E3E3E3" height="31.6094" rx="2.5" ry="2.5" style="stroke:#181818;stroke-width:0.5;" width="64" x="372.5" y="88.6094"/><text fill="#000000" font-family="sans-serif" font-size="14" lengthAdjust="spacing" textLength="50" x="379.5" y="110.1426">:System</text><rect fill="#E3E3E3" height="31.6094" rx="2.5" ry="2.5" style="stroke:#181818;stroke-width:0.5;" width="64" x="372.5" y="1162.7109"/><text fill="#000000" font-family="sans-serif" font-size="14" lengthAdjust="spacing" textLength="50" x="379.5" y="1184.2441">:System</text><rect fill="#FFFFFF" height="1023.4922" style="stroke:#181818;stroke-width:1.0;" width="10" x="56.5" y="131.2188"/><rect fill="#FFFFFF" height="30.3516" style="stroke:#181818;stroke-width:1.0;" width="10" x="399.5" y="169.9219"/><rect fill="#FFFFFF" height="63.0547" style="stroke:#181818;stroke-width:1.0;" width="10" x="399.5" y="230.625"/><rect fill="#FFFFFF" height="30.3516" style="stroke:#181818;stroke-width:1.0;" width="10" x="399.5" y="324.0313"/><rect fill="#FFFFFF" height="116.8906" style="stroke:#181818;stroke-width:1.0;" width="10" x="399.5" y="384.7344"/><rect fill="#FFFFFF" height="46.7031" style="stroke:#181818;stroke-width:1.0;" width="10" x="399.5" y="523.9766"/><rect fill="#FFFFFF" height="72.0547" style="stroke:#181818;stroke-width:1.0;" width="10" x="399.5" y="601.0313"/><rect fill="#FFFFFF" height="72.0547" style="stroke:#181818;stroke-width:1.0;" width="10" x="399.5" y="703.4375"/><rect fill="#FFFFFF" height="104.4063" style="stroke:#181818;stroke-width:1.0;" width="10" x="399.5" y="805.8438"/><rect fill="#FFFFFF" height="76.7031" style="stroke:#181818;stroke-width:1.0;" width="10" x="399.5" y="940.6016"/><rect fill="#FFFFFF" height="15" style="stroke:#181818;stroke-width:1.0;" width="10" x="399.5" y="1047.6563"/><rect fill="#FFFFFF" height="30.3516" style="stroke:#181818;stroke-width:1.0;" width="10" x="399.5" y="1115.3594"/><polygon fill="#181818" points="387.5,165.9219,397.5,169.9219,387.5,173.9219,391.5,169.9219" style="stroke:#181818;stroke-width:1.0;"/><line style="stroke:#181818;stroke-width:1.0;" x1="66.5" x2="393.5" y1="169.9219" y2="169.9219"/><text fill="#000000" font-family="sans-serif" font-size="13" font-weight="bold" lengthAdjust="spacing" textLength="7" x="73.5" y="156.8896">1</text><text fill="#000000" font-family="sans-serif" font-size="13" lengthAdjust="spacing" textLength="205" x="84.5" y="148.7139">asks to publish sale announcement</text><text fill="#000000" font-family="sans-serif" font-size="13" lengthAdjust="spacing" textLength="188" x="84.5" y="165.0654">(create new sale announcement)</text><polygon fill="#181818" points="77.5,196.2734,67.5,200.2734,77.5,204.2734,73.5,200.2734" style="stroke:#181818;stroke-width:1.0;"/><line style="stroke:#181818;stroke-width:1.0;stroke-dasharray:2.0,2.0;" x1="71.5" x2="403.5" y1="200.2734" y2="200.2734"/><text fill="#000000" font-family="sans-serif" font-size="13" font-weight="bold" lengthAdjust="spacing" textLength="7" x="83.5" y="195.417">2</text><text fill="#000000" font-family="sans-serif" font-size="13" lengthAdjust="spacing" textLength="198" x="94.5" y="195.417">requests owner information (email)</text><polygon fill="#181818" points="387.5,226.625,397.5,230.625,387.5,234.625,391.5,230.625" style="stroke:#181818;stroke-width:1.0;"/><line style="stroke:#181818;stroke-width:1.0;" x1="66.5" x2="393.5" y1="230.625" y2="230.625"/><text fill="#000000" font-family="sans-serif" font-size="13" font-weight="bold" lengthAdjust="spacing" textLength="7" x="73.5" y="225.7686">3</text><text fill="#000000" font-family="sans-serif" font-size="13" lengthAdjust="spacing" textLength="122" x="84.5" y="225.7686">types requested data</text><polygon fill="#181818" points="77.5,289.6797,67.5,293.6797,77.5,297.6797,73.5,293.6797" style="stroke:#181818;stroke-width:1.0;"/><line style="stroke:#181818;stroke-width:1.0;stroke-dasharray:2.0,2.0;" x1="71.5" x2="403.5" y1="293.6797" y2="293.6797"/><text fill="#000000" font-family="sans-serif" font-size="13" font-weight="bold" lengthAdjust="spacing" textLength="7" x="83.5" y="272.4717">4</text><text fill="#000000" font-family="sans-serif" font-size="13" lengthAdjust="spacing" textLength="161" x="94.5" y="256.1201">request property information</text><text fill="#000000" font-family="sans-serif" font-size="13" lengthAdjust="spacing" textLength="184" x="94.5" y="272.4717">(area, distance from city center,</text><text fill="#000000" font-family="sans-serif" font-size="13" lengthAdjust="spacing" textLength="207" x="94.5" y="288.8232">state, city, district, street, zip code)</text><polygon fill="#181818" points="387.5,320.0313,397.5,324.0313,387.5,328.0313,391.5,324.0313" style="stroke:#181818;stroke-width:1.0;"/><line style="stroke:#181818;stroke-width:1.0;" x1="66.5" x2="393.5" y1="324.0313" y2="324.0313"/><text fill="#000000" font-family="sans-serif" font-size="13" font-weight="bold" lengthAdjust="spacing" textLength="7" x="73.5" y="319.1748">5</text><text fill="#000000" font-family="sans-serif" font-size="13" lengthAdjust="spacing" textLength="136" x="84.5" y="319.1748">submits requested data</text><polygon fill="#181818" points="77.5,350.3828,67.5,354.3828,77.5,358.3828,73.5,354.3828" style="stroke:#181818;stroke-width:1.0;"/><line style="stroke:#181818;stroke-width:1.0;stroke-dasharray:2.0,2.0;" x1="71.5" x2="403.5" y1="354.3828" y2="354.3828"/><text fill="#000000" font-family="sans-serif" font-size="13" font-weight="bold" lengthAdjust="spacing" textLength="7" x="83.5" y="349.5264">6</text><text fill="#000000" font-family="sans-serif" font-size="13" lengthAdjust="spacing" textLength="195" x="94.5" y="349.5264">lists business type (sale or lease)</text><polygon fill="#181818" points="387.5,380.7344,397.5,384.7344,387.5,388.7344,391.5,384.7344" style="stroke:#181818;stroke-width:1.0;"/><line style="stroke:#181818;stroke-width:1.0;" x1="66.5" x2="393.5" y1="384.7344" y2="384.7344"/><text fill="#000000" font-family="sans-serif" font-size="13" font-weight="bold" lengthAdjust="spacing" textLength="7" x="73.5" y="379.8779">7</text><text fill="#000000" font-family="sans-serif" font-size="13" lengthAdjust="spacing" textLength="136" x="84.5" y="379.8779">submits requested data</text><path d="M30,399.7344 L91,399.7344 L91,408.0859 L81,418.0859 L30,418.0859 L30,399.7344 " fill="#EEEEEE" style="stroke:#000000;stroke-width:1.5;"/><rect fill="none" height="94.8906" style="stroke:#000000;stroke-width:1.5;" width="416.5" x="30" y="399.7344"/><text fill="#000000" font-family="sans-serif" font-size="13" font-weight="bold" lengthAdjust="spacing" textLength="16" x="45" y="414.2295">alt</text><text fill="#000000" font-family="sans-serif" font-size="11" font-weight="bold" lengthAdjust="spacing" textLength="104" x="106" y="413.1533">[agreement = sale]</text><polygon fill="#181818" points="77.5,436.4375,67.5,440.4375,77.5,444.4375,73.5,440.4375" style="stroke:#181818;stroke-width:1.0;"/><line style="stroke:#181818;stroke-width:1.0;stroke-dasharray:2.0,2.0;" x1="71.5" x2="398.5" y1="440.4375" y2="440.4375"/><text fill="#000000" font-family="sans-serif" font-size="13" font-weight="bold" lengthAdjust="spacing" textLength="7" x="83.5" y="435.5811">8</text><text fill="#000000" font-family="sans-serif" font-size="13" lengthAdjust="spacing" textLength="82" x="94.5" y="435.5811">requests price</text><line style="stroke:#000000;stroke-width:1.0;stroke-dasharray:2.0,2.0;" x1="30" x2="446.5" y1="449.4375" y2="449.4375"/><text fill="#000000" font-family="sans-serif" font-size="11" font-weight="bold" lengthAdjust="spacing" textLength="111" x="35" y="460.8564">[agreement = lease]</text><polygon fill="#181818" points="77.5,482.625,67.5,486.625,77.5,490.625,73.5,486.625" style="stroke:#181818;stroke-width:1.0;"/><line style="stroke:#181818;stroke-width:1.0;stroke-dasharray:2.0,2.0;" x1="71.5" x2="398.5" y1="486.625" y2="486.625"/><text fill="#000000" font-family="sans-serif" font-size="13" font-weight="bold" lengthAdjust="spacing" textLength="7" x="83.5" y="481.7686">9</text><text fill="#000000" font-family="sans-serif" font-size="13" lengthAdjust="spacing" textLength="186" x="94.5" y="481.7686">requests rent and lease duration</text><polygon fill="#181818" points="387.5,519.9766,397.5,523.9766,387.5,527.9766,391.5,523.9766" style="stroke:#181818;stroke-width:1.0;"/><line style="stroke:#181818;stroke-width:1.0;" x1="66.5" x2="393.5" y1="523.9766" y2="523.9766"/><text fill="#000000" font-family="sans-serif" font-size="13" font-weight="bold" lengthAdjust="spacing" textLength="14" x="73.5" y="519.1201">10</text><text fill="#000000" font-family="sans-serif" font-size="13" lengthAdjust="spacing" textLength="136" x="91.5" y="519.1201">submits requested data</text><polygon fill="#181818" points="77.5,566.6797,67.5,570.6797,77.5,574.6797,73.5,570.6797" style="stroke:#181818;stroke-width:1.0;"/><line style="stroke:#181818;stroke-width:1.0;stroke-dasharray:2.0,2.0;" x1="71.5" x2="403.5" y1="570.6797" y2="570.6797"/><text fill="#000000" font-family="sans-serif" font-size="13" font-weight="bold" lengthAdjust="spacing" textLength="14" x="83.5" y="557.6475">11</text><text fill="#000000" font-family="sans-serif" font-size="13" lengthAdjust="spacing" textLength="177" x="101.5" y="549.4717">lists possible types of property</text><text fill="#000000" font-family="sans-serif" font-size="13" lengthAdjust="spacing" textLength="186" x="101.5" y="565.8232">and request that one is selected</text><polygon fill="#181818" points="387.5,597.0313,397.5,601.0313,387.5,605.0313,391.5,601.0313" style="stroke:#181818;stroke-width:1.0;"/><line style="stroke:#181818;stroke-width:1.0;" x1="66.5" x2="393.5" y1="601.0313" y2="601.0313"/><text fill="#000000" font-family="sans-serif" font-size="13" font-weight="bold" lengthAdjust="spacing" textLength="14" x="73.5" y="596.1748">12</text><text fill="#000000" font-family="sans-serif" font-size="13" lengthAdjust="spacing" textLength="136" x="91.5" y="596.1748">submits requested data</text><path d="M10,616.0313 L71,616.0313 L71,624.3828 L61,634.3828 L10,634.3828 L10,616.0313 " fill="#EEEEEE" style="stroke:#000000;stroke-width:1.5;"/><rect fill="none" height="346.5703" style="stroke:#000000;stroke-width:1.5;" width="456.5" x="10" y="616.0313"/><text fill="#000000" font-family="sans-serif" font-size="13" font-weight="bold" lengthAdjust="spacing" textLength="16" x="25" y="630.5264">alt</text><text fill="#000000" font-family="sans-serif" font-size="11" font-weight="bold" lengthAdjust="spacing" textLength="178" x="86" y="629.4502">[property = house or apartment]</text><polygon fill="#181818" points="77.5,669.0859,67.5,673.0859,77.5,677.0859,73.5,673.0859" style="stroke:#181818;stroke-width:1.0;"/><line style="stroke:#181818;stroke-width:1.0;stroke-dasharray:2.0,2.0;" x1="71.5" x2="403.5" y1="673.0859" y2="673.0859"/><text fill="#000000" font-family="sans-serif" font-size="13" font-weight="bold" lengthAdjust="spacing" textLength="14" x="83.5" y="660.0537">13</text><text fill="#000000" font-family="sans-serif" font-size="13" lengthAdjust="spacing" textLength="241" x="101.5" y="651.8779">requests specific data related to selection</text><text fill="#000000" font-family="sans-serif" font-size="13" lengthAdjust="spacing" textLength="283" x="101.5" y="668.2295">(number of bedrooms, number of parking spaces)</text><polygon fill="#181818" points="387.5,699.4375,397.5,703.4375,387.5,707.4375,391.5,703.4375" style="stroke:#181818;stroke-width:1.0;"/><line style="stroke:#181818;stroke-width:1.0;" x1="66.5" x2="393.5" y1="703.4375" y2="703.4375"/><text fill="#000000" font-family="sans-serif" font-size="13" font-weight="bold" lengthAdjust="spacing" textLength="14" x="73.5" y="698.5811">14</text><text fill="#000000" font-family="sans-serif" font-size="13" lengthAdjust="spacing" textLength="136" x="91.5" y="698.5811">submits requested data</text><path d="M30,718.4375 L95,718.4375 L95,726.7891 L85,736.7891 L30,736.7891 L30,718.4375 " fill="#EEEEEE" style="stroke:#000000;stroke-width:1.5;"/><rect fill="none" height="95.4063" style="stroke:#000000;stroke-width:1.5;" width="416.5" x="30" y="718.4375"/><text fill="#000000" font-family="sans-serif" font-size="13" font-weight="bold" lengthAdjust="spacing" textLength="20" x="45" y="732.9326">opt</text><polygon fill="#181818" points="77.5,771.4922,67.5,775.4922,77.5,779.4922,73.5,775.4922" style="stroke:#181818;stroke-width:1.0;"/><line style="stroke:#181818;stroke-width:1.0;stroke-dasharray:2.0,2.0;" x1="71.5" x2="403.5" y1="775.4922" y2="775.4922"/><text fill="#000000" font-family="sans-serif" font-size="13" font-weight="bold" lengthAdjust="spacing" textLength="14" x="83.5" y="762.46">15</text><text fill="#000000" font-family="sans-serif" font-size="13" lengthAdjust="spacing" textLength="159" x="101.5" y="754.2842">request optional information</text><text fill="#000000" font-family="sans-serif" font-size="13" lengthAdjust="spacing" textLength="251" x="101.5" y="770.6357">(number of bathrooms, available equipment)</text><polygon fill="#181818" points="387.5,801.8438,397.5,805.8438,387.5,809.8438,391.5,805.8438" style="stroke:#181818;stroke-width:1.0;"/><line style="stroke:#181818;stroke-width:1.0;" x1="66.5" x2="393.5" y1="805.8438" y2="805.8438"/><text fill="#000000" font-family="sans-serif" font-size="13" font-weight="bold" lengthAdjust="spacing" textLength="14" x="73.5" y="800.9873">16</text><text fill="#000000" font-family="sans-serif" font-size="13" lengthAdjust="spacing" textLength="125" x="91.5" y="800.9873">sends requested data</text><path d="M20,827.8438 L81,827.8438 L81,836.1953 L71,846.1953 L20,846.1953 L20,827.8438 " fill="#EEEEEE" style="stroke:#000000;stroke-width:1.5;"/><rect fill="none" height="127.7578" style="stroke:#000000;stroke-width:1.5;" width="436.5" x="20" y="827.8438"/><text fill="#000000" font-family="sans-serif" font-size="13" font-weight="bold" lengthAdjust="spacing" textLength="16" x="35" y="842.3389">alt</text><text fill="#000000" font-family="sans-serif" font-size="11" font-weight="bold" lengthAdjust="spacing" textLength="103" x="96" y="841.2627">[property = house]</text><path d="M30,853.1953 L95,853.1953 L95,861.5469 L85,871.5469 L30,871.5469 L30,853.1953 " fill="#EEEEEE" style="stroke:#000000;stroke-width:1.5;"/><rect fill="none" height="95.4063" style="stroke:#000000;stroke-width:1.5;" width="416.5" x="30" y="853.1953"/><text fill="#000000" font-family="sans-serif" font-size="13" font-weight="bold" lengthAdjust="spacing" textLength="20" x="45" y="867.6904">opt</text><polygon fill="#181818" points="77.5,906.25,67.5,910.25,77.5,914.25,73.5,910.25" style="stroke:#181818;stroke-width:1.0;"/><line style="stroke:#181818;stroke-width:1.0;stroke-dasharray:2.0,2.0;" x1="71.5" x2="403.5" y1="910.25" y2="910.25"/><text fill="#000000" font-family="sans-serif" font-size="13" font-weight="bold" lengthAdjust="spacing" textLength="14" x="83.5" y="897.2178">17</text><text fill="#000000" font-family="sans-serif" font-size="13" lengthAdjust="spacing" textLength="191" x="101.5" y="889.042">request additional characteristics</text><text fill="#000000" font-family="sans-serif" font-size="13" lengthAdjust="spacing" textLength="291" x="101.5" y="905.3936">(existing basement, inhabitable loft, sun exposure)</text><polygon fill="#181818" points="387.5,936.6016,397.5,940.6016,387.5,944.6016,391.5,940.6016" style="stroke:#181818;stroke-width:1.0;"/><line style="stroke:#181818;stroke-width:1.0;" x1="66.5" x2="393.5" y1="940.6016" y2="940.6016"/><text fill="#000000" font-family="sans-serif" font-size="13" font-weight="bold" lengthAdjust="spacing" textLength="14" x="73.5" y="935.7451">18</text><text fill="#000000" font-family="sans-serif" font-size="13" lengthAdjust="spacing" textLength="136" x="91.5" y="935.7451">submits requested data</text><path d="M30,976.6016 L103,976.6016 L103,984.9531 L93,994.9531 L30,994.9531 L30,976.6016 " fill="#EEEEEE" style="stroke:#000000;stroke-width:1.5;"/><rect fill="none" height="79.0547" style="stroke:#000000;stroke-width:1.5;" width="416.5" x="30" y="976.6016"/><text fill="#000000" font-family="sans-serif" font-size="13" font-weight="bold" lengthAdjust="spacing" textLength="28" x="45" y="991.0967">loop</text><a href="for" target="_top" title="for" xlink:actuate="onRequest" xlink:href="for" xlink:show="new" xlink:title="for" xlink:type="simple"><text fill="#1D1D1D" font-family="sans-serif" font-size="11" font-weight="bold" lengthAdjust="spacing" text-decoration="underline" textLength="116" x="118" y="990.0205">at least 1 photograph</text></a><polygon fill="#181818" points="77.5,1013.3047,67.5,1017.3047,77.5,1021.3047,73.5,1017.3047" style="stroke:#181818;stroke-width:1.0;"/><line style="stroke:#181818;stroke-width:1.0;stroke-dasharray:2.0,2.0;" x1="71.5" x2="403.5" y1="1017.3047" y2="1017.3047"/><text fill="#000000" font-family="sans-serif" font-size="13" font-weight="bold" lengthAdjust="spacing" textLength="14" x="83.5" y="1012.4482">19</text><text fill="#000000" font-family="sans-serif" font-size="13" lengthAdjust="spacing" textLength="186" x="101.5" y="1012.4482">requests photographs to append</text><polygon fill="#181818" points="387.5,1043.6563,397.5,1047.6563,387.5,1051.6563,391.5,1047.6563" style="stroke:#181818;stroke-width:1.0;"/><line style="stroke:#181818;stroke-width:1.0;" x1="66.5" x2="393.5" y1="1047.6563" y2="1047.6563"/><text fill="#000000" font-family="sans-serif" font-size="13" font-weight="bold" lengthAdjust="spacing" textLength="14" x="73.5" y="1042.7998">20</text><text fill="#000000" font-family="sans-serif" font-size="13" lengthAdjust="spacing" textLength="174" x="91.5" y="1042.7998">submits requested information</text><polygon fill="#181818" points="77.5,1081.0078,67.5,1085.0078,77.5,1089.0078,73.5,1085.0078" style="stroke:#181818;stroke-width:1.0;"/><line style="stroke:#181818;stroke-width:1.0;stroke-dasharray:2.0,2.0;" x1="71.5" x2="403.5" y1="1085.0078" y2="1085.0078"/><text fill="#000000" font-family="sans-serif" font-size="13" font-weight="bold" lengthAdjust="spacing" textLength="14" x="83.5" y="1080.1514">21</text><text fill="#000000" font-family="sans-serif" font-size="13" lengthAdjust="spacing" textLength="180" x="101.5" y="1080.1514">requests comission information</text><polygon fill="#181818" points="387.5,1111.3594,397.5,1115.3594,387.5,1119.3594,391.5,1115.3594" style="stroke:#181818;stroke-width:1.0;"/><line style="stroke:#181818;stroke-width:1.0;" x1="66.5" x2="393.5" y1="1115.3594" y2="1115.3594"/><text fill="#000000" font-family="sans-serif" font-size="13" font-weight="bold" lengthAdjust="spacing" textLength="14" x="73.5" y="1110.5029">22</text><text fill="#000000" font-family="sans-serif" font-size="13" lengthAdjust="spacing" textLength="174" x="91.5" y="1110.5029">submits requested information</text><polygon fill="#181818" points="77.5,1141.7109,67.5,1145.7109,77.5,1149.7109,73.5,1145.7109" style="stroke:#181818;stroke-width:1.0;"/><line style="stroke:#181818;stroke-width:1.0;stroke-dasharray:2.0,2.0;" x1="71.5" x2="403.5" y1="1145.7109" y2="1145.7109"/><text fill="#000000" font-family="sans-serif" font-size="13" font-weight="bold" lengthAdjust="spacing" textLength="14" x="83.5" y="1140.8545">23</text><text fill="#000000" font-family="sans-serif" font-size="13" lengthAdjust="spacing" textLength="151" x="101.5" y="1140.8545">display operation success</text><!--MD5=[dfeccc1ec8bb7dcebc6bd9d164fa1aae]
@startuml System Sequence Diagram (SSD) - Create sale announcement
skinparam monochrome true
skinparam packageStyle rectangle
skinparam shadowing false

title System Sequence Diagram (SSD) - Create sale announcement

autonumber

actor "Agent" as Agent
participant ":System" as System

activate Agent

    Agent -> System : asks to publish sale announcement\n(create new sale announcement)
    activate System
        System - -> Agent : requests owner information (email)
    deactivate System

    Agent -> System : types requested data
    activate System 
        System - -> Agent : request property information\n(area, distance from city center,\nstate, city, district, street, zip code)
    deactivate System

    Agent -> System : submits requested data
    activate System
        System - -> Agent : lists business type (sale or lease)
    deactivate System

    Agent -> System : submits requested data
    activate System 
        alt agreement = sale
            System - -> Agent : requests price
        else agreement = lease
            System - -> Agent : requests rent and lease duration
        end
    deactivate System

    Agent -> System : submits requested data
    activate System 
        System - -> Agent : lists possible types of property\nand request that one is selected
    deactivate System

    Agent -> System : submits requested data
    alt property = house or apartment
        activate System 
            System - -> Agent : requests specific data related to selection\n(number of bedrooms, number of parking spaces)
        deactivate System

        Agent -> System : submits requested data
        activate System 
        opt
                System - -> Agent : request optional information\n(number of bathrooms, available equipment)
            deactivate System

            Agent -> System : sends requested data
            activate System 
        end
        alt property = house
            opt
                    System - -> Agent : request additional characteristics\n(existing basement, inhabitable loft, sun exposure)
                deactivate System
                Agent -> System : submits requested data
                activate System 
            end
        end
    end

    loop [for at least 1 photograph]
            System - -> Agent : requests photographs to append
        deactivate System
        Agent -> System : submits requested information
        activate System 
    end
    deactivate System

    activate System
        System - -> Agent : requests comission information
    deactivate System

    Agent -> System : submits requested information
    activate System 
        System - -> Agent : display operation success
    deactivate System

@enduml

PlantUML version 1.2022.7(Mon Aug 22 18:01:30 WEST 2022)
(GPL source distribution)
Java Runtime: Java(TM) SE Runtime Environment
JVM: Java HotSpot(TM) 64-Bit Server VM
Default Encoding: UTF-8
Language: en
Country: GB
--></g></svg>