<?xml version="1.0" encoding="us-ascii" standalone="no"?><svg xmlns="http://www.w3.org/2000/svg" xmlns:xlink="http://www.w3.org/1999/xlink" contentStyleType="text/css" height="1125px" preserveAspectRatio="none" style="width:2424px;height:1125px;background:#FFFFFF;" version="1.1" viewBox="0 0 2424 1125" width="2424px" zoomAndPan="magnify"><defs/><g><!--class ImportFileUI--><g id="elem_ImportFileUI"><rect codeLine="11" fill="#F1F1F1" height="66.6211" id="ImportFileUI" rx="2.5" ry="2.5" style="stroke:#181818;stroke-width:0.5;" width="188" x="335.5" y="72"/><ellipse cx="388.25" cy="88" fill="#ADD1B2" rx="11" ry="11" style="stroke:#181818;stroke-width:1.0;"/><path d="M391.0156,83.875 Q391.1719,83.6563 391.3594,83.5469 Q391.5469,83.4375 391.7656,83.4375 Q392.1406,83.4375 392.375,83.7031 Q392.6094,83.9531 392.6094,84.5625 L392.6094,86.0156 Q392.6094,86.625 392.375,86.8906 Q392.1406,87.1563 391.7656,87.1563 Q391.4219,87.1563 391.2188,86.9531 Q391.0156,86.7656 390.9063,86.25 Q390.8594,85.8906 390.6719,85.7031 Q390.3438,85.3281 389.7344,85.1094 Q389.125,84.8906 388.5,84.8906 Q387.7344,84.8906 387.0938,85.2188 Q386.4688,85.5469 385.9688,86.2969 Q385.4844,87.0469 385.4844,88.0781 L385.4844,89.1719 Q385.4844,90.4063 386.375,91.2344 Q387.2656,92.0469 388.8594,92.0469 Q389.7969,92.0469 390.4531,91.7969 Q390.8438,91.6406 391.2656,91.2031 Q391.5313,90.9375 391.6719,90.8594 Q391.8281,90.7813 392.0313,90.7813 Q392.3594,90.7813 392.6094,91.0469 Q392.875,91.2969 392.875,91.6406 Q392.875,91.9844 392.5313,92.3906 Q392.0313,92.9688 391.2344,93.2969 Q390.1563,93.75 388.8594,93.75 Q387.3438,93.75 386.1406,93.125 Q385.1563,92.625 384.4688,91.5625 Q383.7813,90.4844 383.7813,89.2031 L383.7813,88.0469 Q383.7813,86.7188 384.3906,85.5781 Q385.0156,84.4219 386.1094,83.8125 Q387.2031,83.1875 388.4375,83.1875 Q389.1719,83.1875 389.8125,83.3594 Q390.4688,83.5156 391.0156,83.875 Z " fill="#000000"/><text fill="#000000" font-family="sans-serif" font-size="14" lengthAdjust="spacing" textLength="74" x="408.75" y="93.7969">ImportFileUI</text><line style="stroke:#181818;stroke-width:0.5;" x1="336.5" x2="522.5" y1="104" y2="104"/><text fill="#000000" font-family="sans-serif" font-size="14" lengthAdjust="spacing" textLength="176" x="341.5" y="123.1074">+create ImportFileController</text><line style="stroke:#181818;stroke-width:0.5;" x1="336.5" x2="522.5" y1="130.6211" y2="130.6211"/></g><!--class ImportFileController--><g id="elem_ImportFileController"><rect codeLine="15" fill="#F1F1F1" height="85.2422" id="ImportFileController" rx="2.5" ry="2.5" style="stroke:#181818;stroke-width:0.5;" width="211" x="559" y="63"/><ellipse cx="598.75" cy="79" fill="#ADD1B2" rx="11" ry="11" style="stroke:#181818;stroke-width:1.0;"/><path d="M601.5156,74.875 Q601.6719,74.6563 601.8594,74.5469 Q602.0469,74.4375 602.2656,74.4375 Q602.6406,74.4375 602.875,74.7031 Q603.1094,74.9531 603.1094,75.5625 L603.1094,77.0156 Q603.1094,77.625 602.875,77.8906 Q602.6406,78.1563 602.2656,78.1563 Q601.9219,78.1563 601.7188,77.9531 Q601.5156,77.7656 601.4063,77.25 Q601.3594,76.8906 601.1719,76.7031 Q600.8438,76.3281 600.2344,76.1094 Q599.625,75.8906 599,75.8906 Q598.2344,75.8906 597.5938,76.2188 Q596.9688,76.5469 596.4688,77.2969 Q595.9844,78.0469 595.9844,79.0781 L595.9844,80.1719 Q595.9844,81.4063 596.875,82.2344 Q597.7656,83.0469 599.3594,83.0469 Q600.2969,83.0469 600.9531,82.7969 Q601.3438,82.6406 601.7656,82.2031 Q602.0313,81.9375 602.1719,81.8594 Q602.3281,81.7813 602.5313,81.7813 Q602.8594,81.7813 603.1094,82.0469 Q603.375,82.2969 603.375,82.6406 Q603.375,82.9844 603.0313,83.3906 Q602.5313,83.9688 601.7344,84.2969 Q600.6563,84.75 599.3594,84.75 Q597.8438,84.75 596.6406,84.125 Q595.6563,83.625 594.9688,82.5625 Q594.2813,81.4844 594.2813,80.2031 L594.2813,79.0469 Q594.2813,77.7188 594.8906,76.5781 Q595.5156,75.4219 596.6094,74.8125 Q597.7031,74.1875 598.9375,74.1875 Q599.6719,74.1875 600.3125,74.3594 Q600.9688,74.5156 601.5156,74.875 Z " fill="#000000"/><text fill="#000000" font-family="sans-serif" font-size="14" lengthAdjust="spacing" textLength="124" x="618.25" y="84.7969">ImportFileController</text><line style="stroke:#181818;stroke-width:0.5;" x1="560" x2="769" y1="95" y2="95"/><line style="stroke:#181818;stroke-width:0.5;" x1="560" x2="769" y1="103" y2="103"/><text fill="#000000" font-family="sans-serif" font-size="14" lengthAdjust="spacing" textLength="91" x="565" y="122.1074">+getInstance()</text><text fill="#000000" font-family="sans-serif" font-size="14" lengthAdjust="spacing" textLength="199" x="565" y="140.7285">+importInformation(fileLocation)</text></g><!--class Repositories--><g id="elem_Repositories"><rect codeLine="20" fill="#F1F1F1" height="196.9688" id="Repositories" rx="2.5" ry="2.5" style="stroke:#181818;stroke-width:0.5;" width="208" x="873.5" y="7"/><ellipse cx="933.75" cy="23" fill="#ADD1B2" rx="11" ry="11" style="stroke:#181818;stroke-width:1.0;"/><path d="M936.5156,18.875 Q936.6719,18.6563 936.8594,18.5469 Q937.0469,18.4375 937.2656,18.4375 Q937.6406,18.4375 937.875,18.7031 Q938.1094,18.9531 938.1094,19.5625 L938.1094,21.0156 Q938.1094,21.625 937.875,21.8906 Q937.6406,22.1563 937.2656,22.1563 Q936.9219,22.1563 936.7188,21.9531 Q936.5156,21.7656 936.4063,21.25 Q936.3594,20.8906 936.1719,20.7031 Q935.8438,20.3281 935.2344,20.1094 Q934.625,19.8906 934,19.8906 Q933.2344,19.8906 932.5938,20.2188 Q931.9688,20.5469 931.4688,21.2969 Q930.9844,22.0469 930.9844,23.0781 L930.9844,24.1719 Q930.9844,25.4063 931.875,26.2344 Q932.7656,27.0469 934.3594,27.0469 Q935.2969,27.0469 935.9531,26.7969 Q936.3438,26.6406 936.7656,26.2031 Q937.0313,25.9375 937.1719,25.8594 Q937.3281,25.7813 937.5313,25.7813 Q937.8594,25.7813 938.1094,26.0469 Q938.375,26.2969 938.375,26.6406 Q938.375,26.9844 938.0313,27.3906 Q937.5313,27.9688 936.7344,28.2969 Q935.6563,28.75 934.3594,28.75 Q932.8438,28.75 931.6406,28.125 Q930.6563,27.625 929.9688,26.5625 Q929.2813,25.4844 929.2813,24.2031 L929.2813,23.0469 Q929.2813,21.7188 929.8906,20.5781 Q930.5156,19.4219 931.6094,18.8125 Q932.7031,18.1875 933.9375,18.1875 Q934.6719,18.1875 935.3125,18.3594 Q935.9688,18.5156 936.5156,18.875 Z " fill="#000000"/><text fill="#000000" font-family="sans-serif" font-size="14" lengthAdjust="spacing" textLength="79" x="954.25" y="28.7969">Repositories</text><line style="stroke:#181818;stroke-width:0.5;" x1="874.5" x2="1080.5" y1="39" y2="39"/><line style="stroke:#181818;stroke-width:0.5;" x1="874.5" x2="1080.5" y1="47" y2="47"/><text fill="#000000" font-family="sans-serif" font-size="14" lengthAdjust="spacing" textLength="94" x="879.5" y="66.1074">-Repositories()</text><text fill="#000000" font-family="sans-serif" font-size="14" lengthAdjust="spacing" textLength="182" x="879.5" y="84.7285">+getInstance() : Repositories</text><text fill="#000000" font-family="sans-serif" font-size="14" lengthAdjust="spacing" textLength="196" x="879.5" y="103.3496">+getAuthenticationRepository()</text><text fill="#000000" font-family="sans-serif" font-size="14" lengthAdjust="spacing" textLength="151" x="879.5" y="121.9707">+getPersonRepository()</text><text fill="#000000" font-family="sans-serif" font-size="14" lengthAdjust="spacing" textLength="140" x="879.5" y="140.5918">+getStoreRepository()</text><text fill="#000000" font-family="sans-serif" font-size="14" lengthAdjust="spacing" textLength="160" x="879.5" y="159.2129">+getPropertyRepository()</text><text fill="#000000" font-family="sans-serif" font-size="14" lengthAdjust="spacing" textLength="159" x="879.5" y="177.834">+getRequestRepository()</text><text fill="#000000" font-family="sans-serif" font-size="14" lengthAdjust="spacing" textLength="196" x="879.5" y="196.4551">+getAdvertisementRepository()</text></g><!--class FileClassCollection--><g id="elem_FileClassCollection"><rect codeLine="31" fill="#F1F1F1" height="66.6211" id="FileClassCollection" rx="2.5" ry="2.5" style="stroke:#181818;stroke-width:0.5;" width="211" x="7" y="311.5"/><ellipse cx="48.55" cy="327.5" fill="#ADD1B2" rx="11" ry="11" style="stroke:#181818;stroke-width:1.0;"/><path d="M51.3156,323.375 Q51.4719,323.1563 51.6594,323.0469 Q51.8469,322.9375 52.0656,322.9375 Q52.4406,322.9375 52.675,323.2031 Q52.9094,323.4531 52.9094,324.0625 L52.9094,325.5156 Q52.9094,326.125 52.675,326.3906 Q52.4406,326.6563 52.0656,326.6563 Q51.7219,326.6563 51.5188,326.4531 Q51.3156,326.2656 51.2063,325.75 Q51.1594,325.3906 50.9719,325.2031 Q50.6438,324.8281 50.0344,324.6094 Q49.425,324.3906 48.8,324.3906 Q48.0344,324.3906 47.3938,324.7188 Q46.7688,325.0469 46.2688,325.7969 Q45.7844,326.5469 45.7844,327.5781 L45.7844,328.6719 Q45.7844,329.9063 46.675,330.7344 Q47.5656,331.5469 49.1594,331.5469 Q50.0969,331.5469 50.7531,331.2969 Q51.1438,331.1406 51.5656,330.7031 Q51.8313,330.4375 51.9719,330.3594 Q52.1281,330.2813 52.3313,330.2813 Q52.6594,330.2813 52.9094,330.5469 Q53.175,330.7969 53.175,331.1406 Q53.175,331.4844 52.8313,331.8906 Q52.3313,332.4688 51.5344,332.7969 Q50.4563,333.25 49.1594,333.25 Q47.6438,333.25 46.4406,332.625 Q45.4563,332.125 44.7688,331.0625 Q44.0813,329.9844 44.0813,328.7031 L44.0813,327.5469 Q44.0813,326.2188 44.6906,325.0781 Q45.3156,323.9219 46.4094,323.3125 Q47.5031,322.6875 48.7375,322.6875 Q49.4719,322.6875 50.1125,322.8594 Q50.7688,323.0156 51.3156,323.375 Z " fill="#000000"/><text fill="#000000" font-family="sans-serif" font-size="14" lengthAdjust="spacing" textLength="120" x="68.45" y="333.2969">FileClassCollection</text><line style="stroke:#181818;stroke-width:0.5;" x1="8" x2="217" y1="343.5" y2="343.5"/><line style="stroke:#181818;stroke-width:0.5;" x1="8" x2="217" y1="351.5" y2="351.5"/><text fill="#000000" font-family="sans-serif" font-size="14" lengthAdjust="spacing" textLength="199" x="13" y="370.6074">+importInformation(fileLocation)</text></g><!--class PropertyType--><g id="elem_PropertyType"><rect codeLine="35" fill="#F1F1F1" height="66.6211" id="PropertyType" rx="2.5" ry="2.5" style="stroke:#181818;stroke-width:0.5;" width="127" x="783" y="598.5"/><ellipse cx="802.05" cy="614.5" fill="#EB937F" rx="11" ry="11" style="stroke:#181818;stroke-width:1.0;"/><path d="M800.9094,615.2969 L800.9094,617.7969 L805.2375,617.7969 L805.2375,616.875 Q805.2375,616.2656 805.4719,616 Q805.7219,615.7344 806.0969,615.7344 Q806.4719,615.7344 806.7063,616 Q806.9406,616.2656 806.9406,616.875 L806.9406,619.5 L798.9406,619.5 Q798.3156,619.5 798.05,619.2656 Q797.8,619.0313 797.8,618.6406 Q797.8,618.2656 798.0656,618.0313 Q798.3313,617.7969 798.9406,617.7969 L799.2063,617.7969 L799.2063,611.1406 L798.9406,611.1406 Q798.3156,611.1406 798.05,610.9063 Q797.8,610.6719 797.8,610.2813 Q797.8,609.9063 798.05,609.6719 Q798.3156,609.4375 798.9406,609.4375 L806.5656,609.4375 L806.5656,612.0313 Q806.5656,612.6406 806.3313,612.9063 Q806.1125,613.1563 805.7219,613.1563 Q805.3469,613.1563 805.1125,612.9063 Q804.8781,612.6406 804.8781,612.0313 L804.8781,611.1406 L800.9094,611.1406 L800.9094,613.5938 L802.3938,613.5938 Q802.3938,612.9375 802.5188,612.75 Q802.7844,612.3438 803.2531,612.3438 Q803.6281,612.3438 803.8625,612.6094 Q804.0969,612.8594 804.0969,613.4688 L804.0969,615.4375 Q804.0969,615.9844 803.9719,616.1719 Q803.7063,616.5625 803.2531,616.5625 Q802.7844,616.5625 802.5188,616.1563 Q802.3938,615.9688 802.3938,615.2969 L800.9094,615.2969 Z " fill="#000000"/><text fill="#000000" font-family="sans-serif" font-size="14" lengthAdjust="spacing" textLength="86" x="816.95" y="620.2969">PropertyType</text><line style="stroke:#181818;stroke-width:0.5;" x1="784" x2="909" y1="630.5" y2="630.5"/><text fill="#000000" font-family="sans-serif" font-size="14" lengthAdjust="spacing" textLength="115" x="789" y="649.6074">-String description</text><line style="stroke:#181818;stroke-width:0.5;" x1="784" x2="909" y1="657.1211" y2="657.1211"/></g><!--class Property--><g id="elem_Property"><rect codeLine="39" fill="#F1F1F1" height="48" id="Property" rx="2.5" ry="2.5" style="stroke:#181818;stroke-width:0.5;" width="86" x="661.5" y="608"/><ellipse cx="676.5" cy="624" fill="#B4A7E5" rx="11" ry="11" style="stroke:#181818;stroke-width:1.0;"/><path d="M677.4531,620.6406 L677.4531,627.2969 L679.1719,627.2969 Q679.7813,627.2969 680.0469,627.5313 Q680.3125,627.7656 680.3125,628.1563 Q680.3125,628.5313 680.0469,628.7656 Q679.7813,629 679.1719,629 L674.0313,629 Q673.4219,629 673.1563,628.7656 Q672.8906,628.5313 672.8906,628.1406 Q672.8906,627.7656 673.1563,627.5313 Q673.4219,627.2969 674.0313,627.2969 L675.75,627.2969 L675.75,620.6406 L674.0313,620.6406 Q673.4219,620.6406 673.1563,620.4063 Q672.8906,620.1719 672.8906,619.7813 Q672.8906,619.4063 673.1563,619.1719 Q673.4219,618.9375 674.0313,618.9375 L679.1719,618.9375 Q679.7813,618.9375 680.0469,619.1719 Q680.3125,619.4063 680.3125,619.7813 Q680.3125,620.1719 680.0469,620.4063 Q679.7813,620.6406 679.1719,620.6406 L677.4531,620.6406 Z " fill="#000000"/><text fill="#000000" font-family="sans-serif" font-size="14" font-style="italic" lengthAdjust="spacing" textLength="54" x="690.5" y="629.7969">Property</text><line style="stroke:#181818;stroke-width:0.5;" x1="662.5" x2="746.5" y1="640" y2="640"/><line style="stroke:#181818;stroke-width:0.5;" x1="662.5" x2="746.5" y1="648" y2="648"/></g><!--class Land--><g id="elem_Land"><rect codeLine="41" fill="#F1F1F1" height="215.5898" id="Land" rx="2.5" ry="2.5" style="stroke:#181818;stroke-width:0.5;" width="192" x="608.5" y="838"/><ellipse cx="684.25" cy="854" fill="#ADD1B2" rx="11" ry="11" style="stroke:#181818;stroke-width:1.0;"/><path d="M687.0156,849.875 Q687.1719,849.6563 687.3594,849.5469 Q687.5469,849.4375 687.7656,849.4375 Q688.1406,849.4375 688.375,849.7031 Q688.6094,849.9531 688.6094,850.5625 L688.6094,852.0156 Q688.6094,852.625 688.375,852.8906 Q688.1406,853.1563 687.7656,853.1563 Q687.4219,853.1563 687.2188,852.9531 Q687.0156,852.7656 686.9063,852.25 Q686.8594,851.8906 686.6719,851.7031 Q686.3438,851.3281 685.7344,851.1094 Q685.125,850.8906 684.5,850.8906 Q683.7344,850.8906 683.0938,851.2188 Q682.4688,851.5469 681.9688,852.2969 Q681.4844,853.0469 681.4844,854.0781 L681.4844,855.1719 Q681.4844,856.4063 682.375,857.2344 Q683.2656,858.0469 684.8594,858.0469 Q685.7969,858.0469 686.4531,857.7969 Q686.8438,857.6406 687.2656,857.2031 Q687.5313,856.9375 687.6719,856.8594 Q687.8281,856.7813 688.0313,856.7813 Q688.3594,856.7813 688.6094,857.0469 Q688.875,857.2969 688.875,857.6406 Q688.875,857.9844 688.5313,858.3906 Q688.0313,858.9688 687.2344,859.2969 Q686.1563,859.75 684.8594,859.75 Q683.3438,859.75 682.1406,859.125 Q681.1563,858.625 680.4688,857.5625 Q679.7813,856.4844 679.7813,855.2031 L679.7813,854.0469 Q679.7813,852.7188 680.3906,851.5781 Q681.0156,850.4219 682.1094,849.8125 Q683.2031,849.1875 684.4375,849.1875 Q685.1719,849.1875 685.8125,849.3594 Q686.4688,849.5156 687.0156,849.875 Z " fill="#000000"/><text fill="#000000" font-family="sans-serif" font-size="14" lengthAdjust="spacing" textLength="32" x="704.75" y="859.7969">Land</text><line style="stroke:#181818;stroke-width:0.5;" x1="609.5" x2="799.5" y1="870" y2="870"/><text fill="#000000" font-family="sans-serif" font-size="14" lengthAdjust="spacing" textLength="180" x="614.5" y="889.1074">-PropertyType propertyType</text><text fill="#000000" font-family="sans-serif" font-size="14" lengthAdjust="spacing" textLength="81" x="614.5" y="907.7285">-double area</text><text fill="#000000" font-family="sans-serif" font-size="14" lengthAdjust="spacing" textLength="105" x="614.5" y="926.3496">-double distance</text><text fill="#000000" font-family="sans-serif" font-size="14" lengthAdjust="spacing" textLength="82" x="614.5" y="944.9707">-String street</text><text fill="#000000" font-family="sans-serif" font-size="14" lengthAdjust="spacing" textLength="63" x="614.5" y="963.5918">-String zip</text><text fill="#000000" font-family="sans-serif" font-size="14" lengthAdjust="spacing" textLength="77" x="614.5" y="982.2129">-String state</text><text fill="#000000" font-family="sans-serif" font-size="14" lengthAdjust="spacing" textLength="67" x="614.5" y="1000.834">-String city</text><text fill="#000000" font-family="sans-serif" font-size="14" lengthAdjust="spacing" textLength="87" x="614.5" y="1019.4551">-String district</text><text fill="#000000" font-family="sans-serif" font-size="14" lengthAdjust="spacing" textLength="164" x="614.5" y="1038.0762">-List&lt;String&gt; photographs</text><line style="stroke:#181818;stroke-width:0.5;" x1="609.5" x2="799.5" y1="1045.5898" y2="1045.5898"/></g><!--class House--><g id="elem_House"><rect codeLine="53" fill="#F1F1F1" height="345.9375" id="House" rx="2.5" ry="2.5" style="stroke:#181818;stroke-width:0.5;" width="192" x="835.5" y="773"/><ellipse cx="907.25" cy="789" fill="#ADD1B2" rx="11" ry="11" style="stroke:#181818;stroke-width:1.0;"/><path d="M910.0156,784.875 Q910.1719,784.6563 910.3594,784.5469 Q910.5469,784.4375 910.7656,784.4375 Q911.1406,784.4375 911.375,784.7031 Q911.6094,784.9531 911.6094,785.5625 L911.6094,787.0156 Q911.6094,787.625 911.375,787.8906 Q911.1406,788.1563 910.7656,788.1563 Q910.4219,788.1563 910.2188,787.9531 Q910.0156,787.7656 909.9063,787.25 Q909.8594,786.8906 909.6719,786.7031 Q909.3438,786.3281 908.7344,786.1094 Q908.125,785.8906 907.5,785.8906 Q906.7344,785.8906 906.0938,786.2188 Q905.4688,786.5469 904.9688,787.2969 Q904.4844,788.0469 904.4844,789.0781 L904.4844,790.1719 Q904.4844,791.4063 905.375,792.2344 Q906.2656,793.0469 907.8594,793.0469 Q908.7969,793.0469 909.4531,792.7969 Q909.8438,792.6406 910.2656,792.2031 Q910.5313,791.9375 910.6719,791.8594 Q910.8281,791.7813 911.0313,791.7813 Q911.3594,791.7813 911.6094,792.0469 Q911.875,792.2969 911.875,792.6406 Q911.875,792.9844 911.5313,793.3906 Q911.0313,793.9688 910.2344,794.2969 Q909.1563,794.75 907.8594,794.75 Q906.3438,794.75 905.1406,794.125 Q904.1563,793.625 903.4688,792.5625 Q902.7813,791.4844 902.7813,790.2031 L902.7813,789.0469 Q902.7813,787.7188 903.3906,786.5781 Q904.0156,785.4219 905.1094,784.8125 Q906.2031,784.1875 907.4375,784.1875 Q908.1719,784.1875 908.8125,784.3594 Q909.4688,784.5156 910.0156,784.875 Z " fill="#000000"/><text fill="#000000" font-family="sans-serif" font-size="14" lengthAdjust="spacing" textLength="40" x="927.75" y="794.7969">House</text><line style="stroke:#181818;stroke-width:0.5;" x1="836.5" x2="1026.5" y1="805" y2="805"/><text fill="#000000" font-family="sans-serif" font-size="14" lengthAdjust="spacing" textLength="180" x="841.5" y="824.1074">-PropertyType propertyType</text><text fill="#000000" font-family="sans-serif" font-size="14" lengthAdjust="spacing" textLength="81" x="841.5" y="842.7285">-double area</text><text fill="#000000" font-family="sans-serif" font-size="14" lengthAdjust="spacing" textLength="105" x="841.5" y="861.3496">-double distance</text><text fill="#000000" font-family="sans-serif" font-size="14" lengthAdjust="spacing" textLength="82" x="841.5" y="879.9707">-String street</text><text fill="#000000" font-family="sans-serif" font-size="14" lengthAdjust="spacing" textLength="63" x="841.5" y="898.5918">-String zip</text><text fill="#000000" font-family="sans-serif" font-size="14" lengthAdjust="spacing" textLength="77" x="841.5" y="917.2129">-String state</text><text fill="#000000" font-family="sans-serif" font-size="14" lengthAdjust="spacing" textLength="67" x="841.5" y="935.834">-String city</text><text fill="#000000" font-family="sans-serif" font-size="14" lengthAdjust="spacing" textLength="87" x="841.5" y="954.4551">-String district</text><text fill="#000000" font-family="sans-serif" font-size="14" lengthAdjust="spacing" textLength="164" x="841.5" y="973.0762">-List&lt;String&gt; photographs</text><text fill="#000000" font-family="sans-serif" font-size="14" lengthAdjust="spacing" textLength="136" x="841.5" y="991.6973">-int numberBedrooms</text><text fill="#000000" font-family="sans-serif" font-size="14" lengthAdjust="spacing" textLength="120" x="841.5" y="1010.3184">-int numberParking</text><text fill="#000000" font-family="sans-serif" font-size="14" lengthAdjust="spacing" textLength="140" x="841.5" y="1028.9395">-int numberBathrooms</text><text fill="#000000" font-family="sans-serif" font-size="14" lengthAdjust="spacing" textLength="169" x="841.5" y="1047.5605">-String availableEquipment</text><text fill="#000000" font-family="sans-serif" font-size="14" lengthAdjust="spacing" textLength="79" x="841.5" y="1066.1816">-boolean loft</text><text fill="#000000" font-family="sans-serif" font-size="14" lengthAdjust="spacing" textLength="122" x="841.5" y="1084.8027">-boolean basement</text><text fill="#000000" font-family="sans-serif" font-size="14" lengthAdjust="spacing" textLength="175" x="841.5" y="1103.4238">-SunExposure sunExposure</text><line style="stroke:#181818;stroke-width:0.5;" x1="836.5" x2="1026.5" y1="1110.9375" y2="1110.9375"/></g><!--class Apartment--><g id="elem_Apartment"><rect codeLine="72" fill="#F1F1F1" height="290.0742" id="Apartment" rx="2.5" ry="2.5" style="stroke:#181818;stroke-width:0.5;" width="192" x="381.5" y="801"/><ellipse cx="440.75" cy="817" fill="#ADD1B2" rx="11" ry="11" style="stroke:#181818;stroke-width:1.0;"/><path d="M443.5156,812.875 Q443.6719,812.6563 443.8594,812.5469 Q444.0469,812.4375 444.2656,812.4375 Q444.6406,812.4375 444.875,812.7031 Q445.1094,812.9531 445.1094,813.5625 L445.1094,815.0156 Q445.1094,815.625 444.875,815.8906 Q444.6406,816.1563 444.2656,816.1563 Q443.9219,816.1563 443.7188,815.9531 Q443.5156,815.7656 443.4063,815.25 Q443.3594,814.8906 443.1719,814.7031 Q442.8438,814.3281 442.2344,814.1094 Q441.625,813.8906 441,813.8906 Q440.2344,813.8906 439.5938,814.2188 Q438.9688,814.5469 438.4688,815.2969 Q437.9844,816.0469 437.9844,817.0781 L437.9844,818.1719 Q437.9844,819.4063 438.875,820.2344 Q439.7656,821.0469 441.3594,821.0469 Q442.2969,821.0469 442.9531,820.7969 Q443.3438,820.6406 443.7656,820.2031 Q444.0313,819.9375 444.1719,819.8594 Q444.3281,819.7813 444.5313,819.7813 Q444.8594,819.7813 445.1094,820.0469 Q445.375,820.2969 445.375,820.6406 Q445.375,820.9844 445.0313,821.3906 Q444.5313,821.9688 443.7344,822.2969 Q442.6563,822.75 441.3594,822.75 Q439.8438,822.75 438.6406,822.125 Q437.6563,821.625 436.9688,820.5625 Q436.2813,819.4844 436.2813,818.2031 L436.2813,817.0469 Q436.2813,815.7188 436.8906,814.5781 Q437.5156,813.4219 438.6094,812.8125 Q439.7031,812.1875 440.9375,812.1875 Q441.6719,812.1875 442.3125,812.3594 Q442.9688,812.5156 443.5156,812.875 Z " fill="#000000"/><text fill="#000000" font-family="sans-serif" font-size="14" lengthAdjust="spacing" textLength="65" x="461.25" y="822.7969">Apartment</text><line style="stroke:#181818;stroke-width:0.5;" x1="382.5" x2="572.5" y1="833" y2="833"/><text fill="#000000" font-family="sans-serif" font-size="14" lengthAdjust="spacing" textLength="180" x="387.5" y="852.1074">-PropertyType propertyType</text><text fill="#000000" font-family="sans-serif" font-size="14" lengthAdjust="spacing" textLength="81" x="387.5" y="870.7285">-double area</text><text fill="#000000" font-family="sans-serif" font-size="14" lengthAdjust="spacing" textLength="105" x="387.5" y="889.3496">-double distance</text><text fill="#000000" font-family="sans-serif" font-size="14" lengthAdjust="spacing" textLength="82" x="387.5" y="907.9707">-String street</text><text fill="#000000" font-family="sans-serif" font-size="14" lengthAdjust="spacing" textLength="63" x="387.5" y="926.5918">-String zip</text><text fill="#000000" font-family="sans-serif" font-size="14" lengthAdjust="spacing" textLength="77" x="387.5" y="945.2129">-String state</text><text fill="#000000" font-family="sans-serif" font-size="14" lengthAdjust="spacing" textLength="67" x="387.5" y="963.834">-String city</text><text fill="#000000" font-family="sans-serif" font-size="14" lengthAdjust="spacing" textLength="87" x="387.5" y="982.4551">-String district</text><text fill="#000000" font-family="sans-serif" font-size="14" lengthAdjust="spacing" textLength="164" x="387.5" y="1001.0762">-List&lt;String&gt; photographs</text><text fill="#000000" font-family="sans-serif" font-size="14" lengthAdjust="spacing" textLength="136" x="387.5" y="1019.6973">-int numberBedrooms</text><text fill="#000000" font-family="sans-serif" font-size="14" lengthAdjust="spacing" textLength="120" x="387.5" y="1038.3184">-int numberParking</text><text fill="#000000" font-family="sans-serif" font-size="14" lengthAdjust="spacing" textLength="140" x="387.5" y="1056.9395">-int numberBathrooms</text><text fill="#000000" font-family="sans-serif" font-size="14" lengthAdjust="spacing" textLength="169" x="387.5" y="1075.5605">-String availableEquipment</text><line style="stroke:#181818;stroke-width:0.5;" x1="382.5" x2="572.5" y1="1083.0742" y2="1083.0742"/></g><!--class Request--><g id="elem_Request"><rect codeLine="88" fill="#F1F1F1" height="48" id="Request" rx="2.5" ry="2.5" style="stroke:#181818;stroke-width:0.5;" width="85" x="1606" y="608"/><ellipse cx="1621" cy="624" fill="#B4A7E5" rx="11" ry="11" style="stroke:#181818;stroke-width:1.0;"/><path d="M1621.9531,620.6406 L1621.9531,627.2969 L1623.6719,627.2969 Q1624.2813,627.2969 1624.5469,627.5313 Q1624.8125,627.7656 1624.8125,628.1563 Q1624.8125,628.5313 1624.5469,628.7656 Q1624.2813,629 1623.6719,629 L1618.5313,629 Q1617.9219,629 1617.6563,628.7656 Q1617.3906,628.5313 1617.3906,628.1406 Q1617.3906,627.7656 1617.6563,627.5313 Q1617.9219,627.2969 1618.5313,627.2969 L1620.25,627.2969 L1620.25,620.6406 L1618.5313,620.6406 Q1617.9219,620.6406 1617.6563,620.4063 Q1617.3906,620.1719 1617.3906,619.7813 Q1617.3906,619.4063 1617.6563,619.1719 Q1617.9219,618.9375 1618.5313,618.9375 L1623.6719,618.9375 Q1624.2813,618.9375 1624.5469,619.1719 Q1624.8125,619.4063 1624.8125,619.7813 Q1624.8125,620.1719 1624.5469,620.4063 Q1624.2813,620.6406 1623.6719,620.6406 L1621.9531,620.6406 Z " fill="#000000"/><text fill="#000000" font-family="sans-serif" font-size="14" font-style="italic" lengthAdjust="spacing" textLength="53" x="1635" y="629.7969">Request</text><line style="stroke:#181818;stroke-width:0.5;" x1="1607" x2="1690" y1="640" y2="640"/><line style="stroke:#181818;stroke-width:0.5;" x1="1607" x2="1690" y1="648" y2="648"/></g><!--class RequestSale--><g id="elem_RequestSale"><rect codeLine="90" fill="#F1F1F1" height="159.7266" id="RequestSale" rx="2.5" ry="2.5" style="stroke:#181818;stroke-width:0.5;" width="201" x="1666" y="866"/><ellipse cx="1721.75" cy="882" fill="#ADD1B2" rx="11" ry="11" style="stroke:#181818;stroke-width:1.0;"/><path d="M1724.5156,877.875 Q1724.6719,877.6563 1724.8594,877.5469 Q1725.0469,877.4375 1725.2656,877.4375 Q1725.6406,877.4375 1725.875,877.7031 Q1726.1094,877.9531 1726.1094,878.5625 L1726.1094,880.0156 Q1726.1094,880.625 1725.875,880.8906 Q1725.6406,881.1563 1725.2656,881.1563 Q1724.9219,881.1563 1724.7188,880.9531 Q1724.5156,880.7656 1724.4063,880.25 Q1724.3594,879.8906 1724.1719,879.7031 Q1723.8438,879.3281 1723.2344,879.1094 Q1722.625,878.8906 1722,878.8906 Q1721.2344,878.8906 1720.5938,879.2188 Q1719.9688,879.5469 1719.4688,880.2969 Q1718.9844,881.0469 1718.9844,882.0781 L1718.9844,883.1719 Q1718.9844,884.4063 1719.875,885.2344 Q1720.7656,886.0469 1722.3594,886.0469 Q1723.2969,886.0469 1723.9531,885.7969 Q1724.3438,885.6406 1724.7656,885.2031 Q1725.0313,884.9375 1725.1719,884.8594 Q1725.3281,884.7813 1725.5313,884.7813 Q1725.8594,884.7813 1726.1094,885.0469 Q1726.375,885.2969 1726.375,885.6406 Q1726.375,885.9844 1726.0313,886.3906 Q1725.5313,886.9688 1724.7344,887.2969 Q1723.6563,887.75 1722.3594,887.75 Q1720.8438,887.75 1719.6406,887.125 Q1718.6563,886.625 1717.9688,885.5625 Q1717.2813,884.4844 1717.2813,883.2031 L1717.2813,882.0469 Q1717.2813,880.7188 1717.8906,879.5781 Q1718.5156,878.4219 1719.6094,877.8125 Q1720.7031,877.1875 1721.9375,877.1875 Q1722.6719,877.1875 1723.3125,877.3594 Q1723.9688,877.5156 1724.5156,877.875 Z " fill="#000000"/><text fill="#000000" font-family="sans-serif" font-size="14" lengthAdjust="spacing" textLength="81" x="1742.25" y="887.7969">RequestSale</text><line style="stroke:#181818;stroke-width:0.5;" x1="1667" x2="1866" y1="898" y2="898"/><text fill="#000000" font-family="sans-serif" font-size="14" lengthAdjust="spacing" textLength="70" x="1672" y="917.1074">+Date date</text><text fill="#000000" font-family="sans-serif" font-size="14" lengthAdjust="spacing" textLength="189" x="1672" y="935.7285">+BusinessType businessType</text><text fill="#000000" font-family="sans-serif" font-size="14" lengthAdjust="spacing" textLength="119" x="1672" y="954.3496">+Property property</text><text fill="#000000" font-family="sans-serif" font-size="14" lengthAdjust="spacing" textLength="46" x="1672" y="972.9707">+owner</text><text fill="#000000" font-family="sans-serif" font-size="14" lengthAdjust="spacing" textLength="110" x="1672" y="991.5918">+Employee agent</text><text fill="#000000" font-family="sans-serif" font-size="14" lengthAdjust="spacing" textLength="113" x="1672" y="1010.2129">+double salePrice</text><line style="stroke:#181818;stroke-width:0.5;" x1="1667" x2="1866" y1="1017.7266" y2="1017.7266"/></g><!--class RequestLease--><g id="elem_RequestLease"><rect codeLine="99" fill="#F1F1F1" height="178.3477" id="RequestLease" rx="2.5" ry="2.5" style="stroke:#181818;stroke-width:0.5;" width="201" x="1430" y="857"/><ellipse cx="1480.25" cy="873" fill="#ADD1B2" rx="11" ry="11" style="stroke:#181818;stroke-width:1.0;"/><path d="M1483.0156,868.875 Q1483.1719,868.6563 1483.3594,868.5469 Q1483.5469,868.4375 1483.7656,868.4375 Q1484.1406,868.4375 1484.375,868.7031 Q1484.6094,868.9531 1484.6094,869.5625 L1484.6094,871.0156 Q1484.6094,871.625 1484.375,871.8906 Q1484.1406,872.1563 1483.7656,872.1563 Q1483.4219,872.1563 1483.2188,871.9531 Q1483.0156,871.7656 1482.9063,871.25 Q1482.8594,870.8906 1482.6719,870.7031 Q1482.3438,870.3281 1481.7344,870.1094 Q1481.125,869.8906 1480.5,869.8906 Q1479.7344,869.8906 1479.0938,870.2188 Q1478.4688,870.5469 1477.9688,871.2969 Q1477.4844,872.0469 1477.4844,873.0781 L1477.4844,874.1719 Q1477.4844,875.4063 1478.375,876.2344 Q1479.2656,877.0469 1480.8594,877.0469 Q1481.7969,877.0469 1482.4531,876.7969 Q1482.8438,876.6406 1483.2656,876.2031 Q1483.5313,875.9375 1483.6719,875.8594 Q1483.8281,875.7813 1484.0313,875.7813 Q1484.3594,875.7813 1484.6094,876.0469 Q1484.875,876.2969 1484.875,876.6406 Q1484.875,876.9844 1484.5313,877.3906 Q1484.0313,877.9688 1483.2344,878.2969 Q1482.1563,878.75 1480.8594,878.75 Q1479.3438,878.75 1478.1406,878.125 Q1477.1563,877.625 1476.4688,876.5625 Q1475.7813,875.4844 1475.7813,874.2031 L1475.7813,873.0469 Q1475.7813,871.7188 1476.3906,870.5781 Q1477.0156,869.4219 1478.1094,868.8125 Q1479.2031,868.1875 1480.4375,868.1875 Q1481.1719,868.1875 1481.8125,868.3594 Q1482.4688,868.5156 1483.0156,868.875 Z " fill="#000000"/><text fill="#000000" font-family="sans-serif" font-size="14" lengthAdjust="spacing" textLength="92" x="1500.75" y="878.7969">RequestLease</text><line style="stroke:#181818;stroke-width:0.5;" x1="1431" x2="1630" y1="889" y2="889"/><text fill="#000000" font-family="sans-serif" font-size="14" lengthAdjust="spacing" textLength="70" x="1436" y="908.1074">+Date date</text><text fill="#000000" font-family="sans-serif" font-size="14" lengthAdjust="spacing" textLength="189" x="1436" y="926.7285">+BusinessType businessType</text><text fill="#000000" font-family="sans-serif" font-size="14" lengthAdjust="spacing" textLength="119" x="1436" y="945.3496">+Property property</text><text fill="#000000" font-family="sans-serif" font-size="14" lengthAdjust="spacing" textLength="95" x="1436" y="963.9707">+Person owner</text><text fill="#000000" font-family="sans-serif" font-size="14" lengthAdjust="spacing" textLength="110" x="1436" y="982.5918">+Employee agent</text><text fill="#000000" font-family="sans-serif" font-size="14" lengthAdjust="spacing" textLength="148" x="1436" y="1001.2129">+int durationOfContract</text><text fill="#000000" font-family="sans-serif" font-size="14" lengthAdjust="spacing" textLength="112" x="1436" y="1019.834">+double rentPrice</text><line style="stroke:#181818;stroke-width:0.5;" x1="1431" x2="1630" y1="1027.3477" y2="1027.3477"/></g><!--class BusinessType--><g id="elem_BusinessType"><rect codeLine="109" fill="#F1F1F1" height="66.6211" id="BusinessType" rx="2.5" ry="2.5" style="stroke:#181818;stroke-width:0.5;" width="127" x="1726" y="598.5"/><ellipse cx="1743.7" cy="614.5" fill="#EB937F" rx="11" ry="11" style="stroke:#181818;stroke-width:1.0;"/><path d="M1742.5594,615.2969 L1742.5594,617.7969 L1746.8875,617.7969 L1746.8875,616.875 Q1746.8875,616.2656 1747.1219,616 Q1747.3719,615.7344 1747.7469,615.7344 Q1748.1219,615.7344 1748.3563,616 Q1748.5906,616.2656 1748.5906,616.875 L1748.5906,619.5 L1740.5906,619.5 Q1739.9656,619.5 1739.7,619.2656 Q1739.45,619.0313 1739.45,618.6406 Q1739.45,618.2656 1739.7156,618.0313 Q1739.9813,617.7969 1740.5906,617.7969 L1740.8563,617.7969 L1740.8563,611.1406 L1740.5906,611.1406 Q1739.9656,611.1406 1739.7,610.9063 Q1739.45,610.6719 1739.45,610.2813 Q1739.45,609.9063 1739.7,609.6719 Q1739.9656,609.4375 1740.5906,609.4375 L1748.2156,609.4375 L1748.2156,612.0313 Q1748.2156,612.6406 1747.9813,612.9063 Q1747.7625,613.1563 1747.3719,613.1563 Q1746.9969,613.1563 1746.7625,612.9063 Q1746.5281,612.6406 1746.5281,612.0313 L1746.5281,611.1406 L1742.5594,611.1406 L1742.5594,613.5938 L1744.0438,613.5938 Q1744.0438,612.9375 1744.1688,612.75 Q1744.4344,612.3438 1744.9031,612.3438 Q1745.2781,612.3438 1745.5125,612.6094 Q1745.7469,612.8594 1745.7469,613.4688 L1745.7469,615.4375 Q1745.7469,615.9844 1745.6219,616.1719 Q1745.3563,616.5625 1744.9031,616.5625 Q1744.4344,616.5625 1744.1688,616.1563 Q1744.0438,615.9688 1744.0438,615.2969 L1742.5594,615.2969 Z " fill="#000000"/><text fill="#000000" font-family="sans-serif" font-size="14" lengthAdjust="spacing" textLength="89" x="1758.3" y="620.2969">BusinessType</text><line style="stroke:#181818;stroke-width:0.5;" x1="1727" x2="1852" y1="630.5" y2="630.5"/><text fill="#000000" font-family="sans-serif" font-size="14" lengthAdjust="spacing" textLength="115" x="1732" y="649.6074">-String description</text><line style="stroke:#181818;stroke-width:0.5;" x1="1727" x2="1852" y1="657.1211" y2="657.1211"/></g><!--class Store--><g id="elem_Store"><rect codeLine="113" fill="#F1F1F1" height="122.4844" id="Store" rx="2.5" ry="2.5" style="stroke:#181818;stroke-width:0.5;" width="140" x="1180.5" y="571"/><ellipse cx="1229.25" cy="587" fill="#ADD1B2" rx="11" ry="11" style="stroke:#181818;stroke-width:1.0;"/><path d="M1232.0156,582.875 Q1232.1719,582.6563 1232.3594,582.5469 Q1232.5469,582.4375 1232.7656,582.4375 Q1233.1406,582.4375 1233.375,582.7031 Q1233.6094,582.9531 1233.6094,583.5625 L1233.6094,585.0156 Q1233.6094,585.625 1233.375,585.8906 Q1233.1406,586.1563 1232.7656,586.1563 Q1232.4219,586.1563 1232.2188,585.9531 Q1232.0156,585.7656 1231.9063,585.25 Q1231.8594,584.8906 1231.6719,584.7031 Q1231.3438,584.3281 1230.7344,584.1094 Q1230.125,583.8906 1229.5,583.8906 Q1228.7344,583.8906 1228.0938,584.2188 Q1227.4688,584.5469 1226.9688,585.2969 Q1226.4844,586.0469 1226.4844,587.0781 L1226.4844,588.1719 Q1226.4844,589.4063 1227.375,590.2344 Q1228.2656,591.0469 1229.8594,591.0469 Q1230.7969,591.0469 1231.4531,590.7969 Q1231.8438,590.6406 1232.2656,590.2031 Q1232.5313,589.9375 1232.6719,589.8594 Q1232.8281,589.7813 1233.0313,589.7813 Q1233.3594,589.7813 1233.6094,590.0469 Q1233.875,590.2969 1233.875,590.6406 Q1233.875,590.9844 1233.5313,591.3906 Q1233.0313,591.9688 1232.2344,592.2969 Q1231.1563,592.75 1229.8594,592.75 Q1228.3438,592.75 1227.1406,592.125 Q1226.1563,591.625 1225.4688,590.5625 Q1224.7813,589.4844 1224.7813,588.2031 L1224.7813,587.0469 Q1224.7813,585.7188 1225.3906,584.5781 Q1226.0156,583.4219 1227.1094,582.8125 Q1228.2031,582.1875 1229.4375,582.1875 Q1230.1719,582.1875 1230.8125,582.3594 Q1231.4688,582.5156 1232.0156,582.875 Z " fill="#000000"/><text fill="#000000" font-family="sans-serif" font-size="14" lengthAdjust="spacing" textLength="34" x="1249.75" y="592.7969">Store</text><line style="stroke:#181818;stroke-width:0.5;" x1="1181.5" x2="1319.5" y1="603" y2="603"/><text fill="#000000" font-family="sans-serif" font-size="14" lengthAdjust="spacing" textLength="81" x="1186.5" y="622.1074">-String name</text><text fill="#000000" font-family="sans-serif" font-size="14" lengthAdjust="spacing" textLength="128" x="1186.5" y="640.7285">-Email emailAddress</text><text fill="#000000" font-family="sans-serif" font-size="14" lengthAdjust="spacing" textLength="113" x="1186.5" y="659.3496">-int phoneNumber</text><text fill="#000000" font-family="sans-serif" font-size="14" lengthAdjust="spacing" textLength="91" x="1186.5" y="677.9707">-String idStore</text><line style="stroke:#181818;stroke-width:0.5;" x1="1181.5" x2="1319.5" y1="685.4844" y2="685.4844"/></g><!--class Person--><g id="elem_Person"><rect codeLine="120" fill="#F1F1F1" height="234.2109" id="Person" rx="2.5" ry="2.5" style="stroke:#181818;stroke-width:0.5;" width="140" x="206.5" y="829"/><ellipse cx="249.85" cy="845" fill="#ADD1B2" rx="11" ry="11" style="stroke:#181818;stroke-width:1.0;"/><path d="M252.6156,840.875 Q252.7719,840.6563 252.9594,840.5469 Q253.1469,840.4375 253.3656,840.4375 Q253.7406,840.4375 253.975,840.7031 Q254.2094,840.9531 254.2094,841.5625 L254.2094,843.0156 Q254.2094,843.625 253.975,843.8906 Q253.7406,844.1563 253.3656,844.1563 Q253.0219,844.1563 252.8188,843.9531 Q252.6156,843.7656 252.5063,843.25 Q252.4594,842.8906 252.2719,842.7031 Q251.9438,842.3281 251.3344,842.1094 Q250.725,841.8906 250.1,841.8906 Q249.3344,841.8906 248.6938,842.2188 Q248.0688,842.5469 247.5688,843.2969 Q247.0844,844.0469 247.0844,845.0781 L247.0844,846.1719 Q247.0844,847.4063 247.975,848.2344 Q248.8656,849.0469 250.4594,849.0469 Q251.3969,849.0469 252.0531,848.7969 Q252.4438,848.6406 252.8656,848.2031 Q253.1313,847.9375 253.2719,847.8594 Q253.4281,847.7813 253.6313,847.7813 Q253.9594,847.7813 254.2094,848.0469 Q254.475,848.2969 254.475,848.6406 Q254.475,848.9844 254.1313,849.3906 Q253.6313,849.9688 252.8344,850.2969 Q251.7563,850.75 250.4594,850.75 Q248.9438,850.75 247.7406,850.125 Q246.7563,849.625 246.0688,848.5625 Q245.3813,847.4844 245.3813,846.2031 L245.3813,845.0469 Q245.3813,843.7188 245.9906,842.5781 Q246.6156,841.4219 247.7094,840.8125 Q248.8031,840.1875 250.0375,840.1875 Q250.7719,840.1875 251.4125,840.3594 Q252.0688,840.5156 252.6156,840.875 Z " fill="#000000"/><text fill="#000000" font-family="sans-serif" font-size="14" lengthAdjust="spacing" textLength="45" x="270.15" y="850.7969">Person</text><line style="stroke:#181818;stroke-width:0.5;" x1="207.5" x2="345.5" y1="861" y2="861"/><text fill="#000000" font-family="sans-serif" font-size="14" lengthAdjust="spacing" textLength="128" x="212.5" y="880.1074">-Email emailAddress</text><text fill="#000000" font-family="sans-serif" font-size="14" lengthAdjust="spacing" textLength="81" x="212.5" y="898.7285">-String name</text><text fill="#000000" font-family="sans-serif" font-size="14" lengthAdjust="spacing" textLength="79" x="212.5" y="917.3496">-int passport</text><text fill="#000000" font-family="sans-serif" font-size="14" lengthAdjust="spacing" textLength="39" x="212.5" y="935.9707">-int tin</text><text fill="#000000" font-family="sans-serif" font-size="14" lengthAdjust="spacing" textLength="113" x="212.5" y="954.5918">-int phoneNumber</text><text fill="#000000" font-family="sans-serif" font-size="14" lengthAdjust="spacing" textLength="82" x="212.5" y="973.2129">-String street</text><text fill="#000000" font-family="sans-serif" font-size="14" lengthAdjust="spacing" textLength="63" x="212.5" y="991.834">-String zip</text><text fill="#000000" font-family="sans-serif" font-size="14" lengthAdjust="spacing" textLength="77" x="212.5" y="1010.4551">-String state</text><text fill="#000000" font-family="sans-serif" font-size="14" lengthAdjust="spacing" textLength="67" x="212.5" y="1029.0762">-String city</text><text fill="#000000" font-family="sans-serif" font-size="14" lengthAdjust="spacing" textLength="87" x="212.5" y="1047.6973">-String district</text><line style="stroke:#181818;stroke-width:0.5;" x1="207.5" x2="345.5" y1="1055.2109" y2="1055.2109"/></g><!--class Location--><g id="elem_Location"><rect codeLine="133" fill="#F1F1F1" height="48" id="Location" rx="2.5" ry="2.5" style="stroke:#181818;stroke-width:0.5;" width="86" x="474.5" y="608"/><ellipse cx="489.5" cy="624" fill="#B4A7E5" rx="11" ry="11" style="stroke:#181818;stroke-width:1.0;"/><path d="M490.4531,620.6406 L490.4531,627.2969 L492.1719,627.2969 Q492.7813,627.2969 493.0469,627.5313 Q493.3125,627.7656 493.3125,628.1563 Q493.3125,628.5313 493.0469,628.7656 Q492.7813,629 492.1719,629 L487.0313,629 Q486.4219,629 486.1563,628.7656 Q485.8906,628.5313 485.8906,628.1406 Q485.8906,627.7656 486.1563,627.5313 Q486.4219,627.2969 487.0313,627.2969 L488.75,627.2969 L488.75,620.6406 L487.0313,620.6406 Q486.4219,620.6406 486.1563,620.4063 Q485.8906,620.1719 485.8906,619.7813 Q485.8906,619.4063 486.1563,619.1719 Q486.4219,618.9375 487.0313,618.9375 L492.1719,618.9375 Q492.7813,618.9375 493.0469,619.1719 Q493.3125,619.4063 493.3125,619.7813 Q493.3125,620.1719 493.0469,620.4063 Q492.7813,620.6406 492.1719,620.6406 L490.4531,620.6406 Z " fill="#000000"/><text fill="#000000" font-family="sans-serif" font-size="14" font-style="italic" lengthAdjust="spacing" textLength="54" x="503.5" y="629.7969">Location</text><line style="stroke:#181818;stroke-width:0.5;" x1="475.5" x2="559.5" y1="640" y2="640"/><line style="stroke:#181818;stroke-width:0.5;" x1="475.5" x2="559.5" y1="648" y2="648"/></g><!--class Advertisement--><g id="elem_Advertisement"><rect codeLine="135" fill="#F1F1F1" height="159.7266" id="Advertisement" rx="2.5" ry="2.5" style="stroke:#181818;stroke-width:0.5;" width="234" x="2050.5" y="552"/><ellipse cx="2118.25" cy="568" fill="#ADD1B2" rx="11" ry="11" style="stroke:#181818;stroke-width:1.0;"/><path d="M2121.0156,563.875 Q2121.1719,563.6563 2121.3594,563.5469 Q2121.5469,563.4375 2121.7656,563.4375 Q2122.1406,563.4375 2122.375,563.7031 Q2122.6094,563.9531 2122.6094,564.5625 L2122.6094,566.0156 Q2122.6094,566.625 2122.375,566.8906 Q2122.1406,567.1563 2121.7656,567.1563 Q2121.4219,567.1563 2121.2188,566.9531 Q2121.0156,566.7656 2120.9063,566.25 Q2120.8594,565.8906 2120.6719,565.7031 Q2120.3438,565.3281 2119.7344,565.1094 Q2119.125,564.8906 2118.5,564.8906 Q2117.7344,564.8906 2117.0938,565.2188 Q2116.4688,565.5469 2115.9688,566.2969 Q2115.4844,567.0469 2115.4844,568.0781 L2115.4844,569.1719 Q2115.4844,570.4063 2116.375,571.2344 Q2117.2656,572.0469 2118.8594,572.0469 Q2119.7969,572.0469 2120.4531,571.7969 Q2120.8438,571.6406 2121.2656,571.2031 Q2121.5313,570.9375 2121.6719,570.8594 Q2121.8281,570.7813 2122.0313,570.7813 Q2122.3594,570.7813 2122.6094,571.0469 Q2122.875,571.2969 2122.875,571.6406 Q2122.875,571.9844 2122.5313,572.3906 Q2122.0313,572.9688 2121.2344,573.2969 Q2120.1563,573.75 2118.8594,573.75 Q2117.3438,573.75 2116.1406,573.125 Q2115.1563,572.625 2114.4688,571.5625 Q2113.7813,570.4844 2113.7813,569.2031 L2113.7813,568.0469 Q2113.7813,566.7188 2114.3906,565.5781 Q2115.0156,564.4219 2116.1094,563.8125 Q2117.2031,563.1875 2118.4375,563.1875 Q2119.1719,563.1875 2119.8125,563.3594 Q2120.4688,563.5156 2121.0156,563.875 Z " fill="#000000"/><text fill="#000000" font-family="sans-serif" font-size="14" lengthAdjust="spacing" textLength="90" x="2138.75" y="573.7969">Advertisement</text><line style="stroke:#181818;stroke-width:0.5;" x1="2051.5" x2="2283.5" y1="584" y2="584"/><text fill="#000000" font-family="sans-serif" font-size="14" lengthAdjust="spacing" textLength="67" x="2056.5" y="603.1074">-Date date</text><text fill="#000000" font-family="sans-serif" font-size="14" lengthAdjust="spacing" textLength="110" x="2056.5" y="621.7285">-Request request</text><text fill="#000000" font-family="sans-serif" font-size="14" lengthAdjust="spacing" textLength="222" x="2056.5" y="640.3496">-CommissionType commissionType</text><text fill="#000000" font-family="sans-serif" font-size="14" lengthAdjust="spacing" textLength="161" x="2056.5" y="658.9707">-double commissionValue</text><text fill="#000000" font-family="sans-serif" font-size="14" lengthAdjust="spacing" textLength="104" x="2056.5" y="677.5918">-List&lt;Visit&gt; visits</text><text fill="#000000" font-family="sans-serif" font-size="14" lengthAdjust="spacing" textLength="115" x="2056.5" y="696.2129">-List&lt;Offer&gt; offers</text><line style="stroke:#181818;stroke-width:0.5;" x1="2051.5" x2="2283.5" y1="703.7266" y2="703.7266"/></g><!--class ComissionType--><g id="elem_ComissionType"><rect codeLine="144" fill="#F1F1F1" height="66.6211" id="ComissionType" rx="2.5" ry="2.5" style="stroke:#181818;stroke-width:0.5;" width="129" x="2103" y="912.5"/><ellipse cx="2118" cy="928.5" fill="#EB937F" rx="11" ry="11" style="stroke:#181818;stroke-width:1.0;"/><path d="M2116.8594,929.2969 L2116.8594,931.7969 L2121.1875,931.7969 L2121.1875,930.875 Q2121.1875,930.2656 2121.4219,930 Q2121.6719,929.7344 2122.0469,929.7344 Q2122.4219,929.7344 2122.6563,930 Q2122.8906,930.2656 2122.8906,930.875 L2122.8906,933.5 L2114.8906,933.5 Q2114.2656,933.5 2114,933.2656 Q2113.75,933.0313 2113.75,932.6406 Q2113.75,932.2656 2114.0156,932.0313 Q2114.2813,931.7969 2114.8906,931.7969 L2115.1563,931.7969 L2115.1563,925.1406 L2114.8906,925.1406 Q2114.2656,925.1406 2114,924.9063 Q2113.75,924.6719 2113.75,924.2813 Q2113.75,923.9063 2114,923.6719 Q2114.2656,923.4375 2114.8906,923.4375 L2122.5156,923.4375 L2122.5156,926.0313 Q2122.5156,926.6406 2122.2813,926.9063 Q2122.0625,927.1563 2121.6719,927.1563 Q2121.2969,927.1563 2121.0625,926.9063 Q2120.8281,926.6406 2120.8281,926.0313 L2120.8281,925.1406 L2116.8594,925.1406 L2116.8594,927.5938 L2118.3438,927.5938 Q2118.3438,926.9375 2118.4688,926.75 Q2118.7344,926.3438 2119.2031,926.3438 Q2119.5781,926.3438 2119.8125,926.6094 Q2120.0469,926.8594 2120.0469,927.4688 L2120.0469,929.4375 Q2120.0469,929.9844 2119.9219,930.1719 Q2119.6563,930.5625 2119.2031,930.5625 Q2118.7344,930.5625 2118.4688,930.1563 Q2118.3438,929.9688 2118.3438,929.2969 L2116.8594,929.2969 Z " fill="#000000"/><text fill="#000000" font-family="sans-serif" font-size="14" lengthAdjust="spacing" textLength="97" x="2132" y="934.2969">ComissionType</text><line style="stroke:#181818;stroke-width:0.5;" x1="2104" x2="2231" y1="944.5" y2="944.5"/><text fill="#000000" font-family="sans-serif" font-size="14" lengthAdjust="spacing" textLength="115" x="2109" y="963.6074">-String description</text><line style="stroke:#181818;stroke-width:0.5;" x1="2104" x2="2231" y1="971.1211" y2="971.1211"/></g><!--class PersonRepository--><g id="elem_PersonRepository"><rect codeLine="148" fill="#F1F1F1" height="66.6211" id="PersonRepository" rx="2.5" ry="2.5" style="stroke:#181818;stroke-width:0.5;" width="414" x="65.5" y="455"/><ellipse cx="211.75" cy="471" fill="#ADD1B2" rx="11" ry="11" style="stroke:#181818;stroke-width:1.0;"/><path d="M214.5156,466.875 Q214.6719,466.6563 214.8594,466.5469 Q215.0469,466.4375 215.2656,466.4375 Q215.6406,466.4375 215.875,466.7031 Q216.1094,466.9531 216.1094,467.5625 L216.1094,469.0156 Q216.1094,469.625 215.875,469.8906 Q215.6406,470.1563 215.2656,470.1563 Q214.9219,470.1563 214.7188,469.9531 Q214.5156,469.7656 214.4063,469.25 Q214.3594,468.8906 214.1719,468.7031 Q213.8438,468.3281 213.2344,468.1094 Q212.625,467.8906 212,467.8906 Q211.2344,467.8906 210.5938,468.2188 Q209.9688,468.5469 209.4688,469.2969 Q208.9844,470.0469 208.9844,471.0781 L208.9844,472.1719 Q208.9844,473.4063 209.875,474.2344 Q210.7656,475.0469 212.3594,475.0469 Q213.2969,475.0469 213.9531,474.7969 Q214.3438,474.6406 214.7656,474.2031 Q215.0313,473.9375 215.1719,473.8594 Q215.3281,473.7813 215.5313,473.7813 Q215.8594,473.7813 216.1094,474.0469 Q216.375,474.2969 216.375,474.6406 Q216.375,474.9844 216.0313,475.3906 Q215.5313,475.9688 214.7344,476.2969 Q213.6563,476.75 212.3594,476.75 Q210.8438,476.75 209.6406,476.125 Q208.6563,475.625 207.9688,474.5625 Q207.2813,473.4844 207.2813,472.2031 L207.2813,471.0469 Q207.2813,469.7188 207.8906,468.5781 Q208.5156,467.4219 209.6094,466.8125 Q210.7031,466.1875 211.9375,466.1875 Q212.6719,466.1875 213.3125,466.3594 Q213.9688,466.5156 214.5156,466.875 Z " fill="#000000"/><text fill="#000000" font-family="sans-serif" font-size="14" lengthAdjust="spacing" textLength="113" x="232.25" y="476.7969">PersonRepository</text><line style="stroke:#181818;stroke-width:0.5;" x1="66.5" x2="478.5" y1="487" y2="487"/><line style="stroke:#181818;stroke-width:0.5;" x1="66.5" x2="478.5" y1="495" y2="495"/><text fill="#000000" font-family="sans-serif" font-size="14" lengthAdjust="spacing" textLength="402" x="71.5" y="514.1074">+addPerson(email, name, citizenNum, tin, phoneNum, userRole)</text></g><!--class StoreRepository--><g id="elem_StoreRepository"><rect codeLine="152" fill="#F1F1F1" height="66.6211" id="StoreRepository" rx="2.5" ry="2.5" style="stroke:#181818;stroke-width:0.5;" width="259" x="1121" y="311.5"/><ellipse cx="1195.25" cy="327.5" fill="#ADD1B2" rx="11" ry="11" style="stroke:#181818;stroke-width:1.0;"/><path d="M1198.0156,323.375 Q1198.1719,323.1563 1198.3594,323.0469 Q1198.5469,322.9375 1198.7656,322.9375 Q1199.1406,322.9375 1199.375,323.2031 Q1199.6094,323.4531 1199.6094,324.0625 L1199.6094,325.5156 Q1199.6094,326.125 1199.375,326.3906 Q1199.1406,326.6563 1198.7656,326.6563 Q1198.4219,326.6563 1198.2188,326.4531 Q1198.0156,326.2656 1197.9063,325.75 Q1197.8594,325.3906 1197.6719,325.2031 Q1197.3438,324.8281 1196.7344,324.6094 Q1196.125,324.3906 1195.5,324.3906 Q1194.7344,324.3906 1194.0938,324.7188 Q1193.4688,325.0469 1192.9688,325.7969 Q1192.4844,326.5469 1192.4844,327.5781 L1192.4844,328.6719 Q1192.4844,329.9063 1193.375,330.7344 Q1194.2656,331.5469 1195.8594,331.5469 Q1196.7969,331.5469 1197.4531,331.2969 Q1197.8438,331.1406 1198.2656,330.7031 Q1198.5313,330.4375 1198.6719,330.3594 Q1198.8281,330.2813 1199.0313,330.2813 Q1199.3594,330.2813 1199.6094,330.5469 Q1199.875,330.7969 1199.875,331.1406 Q1199.875,331.4844 1199.5313,331.8906 Q1199.0313,332.4688 1198.2344,332.7969 Q1197.1563,333.25 1195.8594,333.25 Q1194.3438,333.25 1193.1406,332.625 Q1192.1563,332.125 1191.4688,331.0625 Q1190.7813,329.9844 1190.7813,328.7031 L1190.7813,327.5469 Q1190.7813,326.2188 1191.3906,325.0781 Q1192.0156,323.9219 1193.1094,323.3125 Q1194.2031,322.6875 1195.4375,322.6875 Q1196.1719,322.6875 1196.8125,322.8594 Q1197.4688,323.0156 1198.0156,323.375 Z " fill="#000000"/><text fill="#000000" font-family="sans-serif" font-size="14" lengthAdjust="spacing" textLength="102" x="1215.75" y="333.2969">StoreRepository</text><line style="stroke:#181818;stroke-width:0.5;" x1="1122" x2="1379" y1="343.5" y2="343.5"/><line style="stroke:#181818;stroke-width:0.5;" x1="1122" x2="1379" y1="351.5" y2="351.5"/><text fill="#000000" font-family="sans-serif" font-size="14" lengthAdjust="spacing" textLength="247" x="1127" y="370.6074">+addStore(id, name, email, phoneNum)</text></g><!--class PropertyRepository--><g id="elem_PropertyRepository"><rect codeLine="156" fill="#F1F1F1" height="159.7266" id="PropertyRepository" rx="2.5" ry="2.5" style="stroke:#181818;stroke-width:0.5;" width="761" x="325" y="265"/><ellipse cx="640.25" cy="281" fill="#ADD1B2" rx="11" ry="11" style="stroke:#181818;stroke-width:1.0;"/><path d="M643.0156,276.875 Q643.1719,276.6563 643.3594,276.5469 Q643.5469,276.4375 643.7656,276.4375 Q644.1406,276.4375 644.375,276.7031 Q644.6094,276.9531 644.6094,277.5625 L644.6094,279.0156 Q644.6094,279.625 644.375,279.8906 Q644.1406,280.1563 643.7656,280.1563 Q643.4219,280.1563 643.2188,279.9531 Q643.0156,279.7656 642.9063,279.25 Q642.8594,278.8906 642.6719,278.7031 Q642.3438,278.3281 641.7344,278.1094 Q641.125,277.8906 640.5,277.8906 Q639.7344,277.8906 639.0938,278.2188 Q638.4688,278.5469 637.9688,279.2969 Q637.4844,280.0469 637.4844,281.0781 L637.4844,282.1719 Q637.4844,283.4063 638.375,284.2344 Q639.2656,285.0469 640.8594,285.0469 Q641.7969,285.0469 642.4531,284.7969 Q642.8438,284.6406 643.2656,284.2031 Q643.5313,283.9375 643.6719,283.8594 Q643.8281,283.7813 644.0313,283.7813 Q644.3594,283.7813 644.6094,284.0469 Q644.875,284.2969 644.875,284.6406 Q644.875,284.9844 644.5313,285.3906 Q644.0313,285.9688 643.2344,286.2969 Q642.1563,286.75 640.8594,286.75 Q639.3438,286.75 638.1406,286.125 Q637.1563,285.625 636.4688,284.5625 Q635.7813,283.4844 635.7813,282.2031 L635.7813,281.0469 Q635.7813,279.7188 636.3906,278.5781 Q637.0156,277.4219 638.1094,276.8125 Q639.2031,276.1875 640.4375,276.1875 Q641.1719,276.1875 641.8125,276.3594 Q642.4688,276.5156 643.0156,276.875 Z " fill="#000000"/><text fill="#000000" font-family="sans-serif" font-size="14" lengthAdjust="spacing" textLength="122" x="660.75" y="286.7969">PropertyRepository</text><line style="stroke:#181818;stroke-width:0.5;" x1="326" x2="1085" y1="297" y2="297"/><line style="stroke:#181818;stroke-width:0.5;" x1="326" x2="1085" y1="305" y2="305"/><text fill="#000000" font-family="sans-serif" font-size="14" lengthAdjust="spacing" textLength="313" x="331" y="324.1074">+createNewProperty(propertyType, areaProperty,</text><text fill="#000000" font-family="sans-serif" font-size="14" lengthAdjust="spacing" textLength="451" x="339" y="342.7285">distanceCityCenter, photographs, street, zipCode, stateUS, city, district)</text><text fill="#000000" font-family="sans-serif" font-size="14" lengthAdjust="spacing" textLength="638" x="331" y="361.3496">+createNewApartmentProperty(propertyType, areaProperty, distanceCityCenter, photographs, street,</text><text fill="#000000" font-family="sans-serif" font-size="14" lengthAdjust="spacing" textLength="670" x="339" y="379.9707">zipCode, stateUS, city, district, numberBedrooms, numberParking, numberBathrooms, availableEquipment)</text><text fill="#000000" font-family="sans-serif" font-size="14" lengthAdjust="spacing" textLength="729" x="331" y="398.5918">+createNewHouseProperty(propertyType, areaProperty, distanceCityCenter, photographs, street, zipCode, stateUS,</text><text fill="#000000" font-family="sans-serif" font-size="14" lengthAdjust="spacing" textLength="741" x="339" y="417.2129">city, district, numberBedrooms, numberParking, numberBathrooms, availableEquipment, basement, loft, sunExposure)</text></g><!--class RequestRepository--><g id="elem_RequestRepository"><rect codeLine="162" fill="#F1F1F1" height="159.7266" id="RequestRepository" rx="2.5" ry="2.5" style="stroke:#181818;stroke-width:0.5;" width="467" x="1415" y="265"/><ellipse cx="1583.75" cy="281" fill="#ADD1B2" rx="11" ry="11" style="stroke:#181818;stroke-width:1.0;"/><path d="M1586.5156,276.875 Q1586.6719,276.6563 1586.8594,276.5469 Q1587.0469,276.4375 1587.2656,276.4375 Q1587.6406,276.4375 1587.875,276.7031 Q1588.1094,276.9531 1588.1094,277.5625 L1588.1094,279.0156 Q1588.1094,279.625 1587.875,279.8906 Q1587.6406,280.1563 1587.2656,280.1563 Q1586.9219,280.1563 1586.7188,279.9531 Q1586.5156,279.7656 1586.4063,279.25 Q1586.3594,278.8906 1586.1719,278.7031 Q1585.8438,278.3281 1585.2344,278.1094 Q1584.625,277.8906 1584,277.8906 Q1583.2344,277.8906 1582.5938,278.2188 Q1581.9688,278.5469 1581.4688,279.2969 Q1580.9844,280.0469 1580.9844,281.0781 L1580.9844,282.1719 Q1580.9844,283.4063 1581.875,284.2344 Q1582.7656,285.0469 1584.3594,285.0469 Q1585.2969,285.0469 1585.9531,284.7969 Q1586.3438,284.6406 1586.7656,284.2031 Q1587.0313,283.9375 1587.1719,283.8594 Q1587.3281,283.7813 1587.5313,283.7813 Q1587.8594,283.7813 1588.1094,284.0469 Q1588.375,284.2969 1588.375,284.6406 Q1588.375,284.9844 1588.0313,285.3906 Q1587.5313,285.9688 1586.7344,286.2969 Q1585.6563,286.75 1584.3594,286.75 Q1582.8438,286.75 1581.6406,286.125 Q1580.6563,285.625 1579.9688,284.5625 Q1579.2813,283.4844 1579.2813,282.2031 L1579.2813,281.0469 Q1579.2813,279.7188 1579.8906,278.5781 Q1580.5156,277.4219 1581.6094,276.8125 Q1582.7031,276.1875 1583.9375,276.1875 Q1584.6719,276.1875 1585.3125,276.3594 Q1585.9688,276.5156 1586.5156,276.875 Z " fill="#000000"/><text fill="#000000" font-family="sans-serif" font-size="14" lengthAdjust="spacing" textLength="121" x="1604.25" y="286.7969">RequestRepository</text><line style="stroke:#181818;stroke-width:0.5;" x1="1416" x2="1881" y1="297" y2="297"/><line style="stroke:#181818;stroke-width:0.5;" x1="1416" x2="1881" y1="305" y2="305"/><text fill="#000000" font-family="sans-serif" font-size="14" lengthAdjust="spacing" textLength="418" x="1421" y="324.1074">+createSaleRequest(land, businessType, owner, agent, salePrice)</text><text fill="#000000" font-family="sans-serif" font-size="14" lengthAdjust="spacing" textLength="429" x="1421" y="342.7285">+createLeaseRequest(land, businessType, owner, agent, salePrice)</text><text fill="#000000" font-family="sans-serif" font-size="14" lengthAdjust="spacing" textLength="455" x="1421" y="361.3496">+createSaleRequest(apartment, businessType, owner, agent, salePrice)</text><text fill="#000000" font-family="sans-serif" font-size="14" lengthAdjust="spacing" textLength="455" x="1421" y="379.9707">+createSaleRequest(apartment, businessType, owner, agent, salePrice)</text><text fill="#000000" font-family="sans-serif" font-size="14" lengthAdjust="spacing" textLength="430" x="1421" y="398.5918">+createSaleRequest(house, businessType, owner, agent, salePrice)</text><text fill="#000000" font-family="sans-serif" font-size="14" lengthAdjust="spacing" textLength="430" x="1421" y="417.2129">+createSaleRequest(house, businessType, owner, agent, salePrice)</text></g><!--class AdvertisementRepository--><g id="elem_AdvertisementRepository"><rect codeLine="171" fill="#F1F1F1" height="66.6211" id="AdvertisementRepository" rx="2.5" ry="2.5" style="stroke:#181818;stroke-width:0.5;" width="500" x="1917.5" y="311.5"/><ellipse cx="2084.25" cy="327.5" fill="#ADD1B2" rx="11" ry="11" style="stroke:#181818;stroke-width:1.0;"/><path d="M2087.0156,323.375 Q2087.1719,323.1563 2087.3594,323.0469 Q2087.5469,322.9375 2087.7656,322.9375 Q2088.1406,322.9375 2088.375,323.2031 Q2088.6094,323.4531 2088.6094,324.0625 L2088.6094,325.5156 Q2088.6094,326.125 2088.375,326.3906 Q2088.1406,326.6563 2087.7656,326.6563 Q2087.4219,326.6563 2087.2188,326.4531 Q2087.0156,326.2656 2086.9063,325.75 Q2086.8594,325.3906 2086.6719,325.2031 Q2086.3438,324.8281 2085.7344,324.6094 Q2085.125,324.3906 2084.5,324.3906 Q2083.7344,324.3906 2083.0938,324.7188 Q2082.4688,325.0469 2081.9688,325.7969 Q2081.4844,326.5469 2081.4844,327.5781 L2081.4844,328.6719 Q2081.4844,329.9063 2082.375,330.7344 Q2083.2656,331.5469 2084.8594,331.5469 Q2085.7969,331.5469 2086.4531,331.2969 Q2086.8438,331.1406 2087.2656,330.7031 Q2087.5313,330.4375 2087.6719,330.3594 Q2087.8281,330.2813 2088.0313,330.2813 Q2088.3594,330.2813 2088.6094,330.5469 Q2088.875,330.7969 2088.875,331.1406 Q2088.875,331.4844 2088.5313,331.8906 Q2088.0313,332.4688 2087.2344,332.7969 Q2086.1563,333.25 2084.8594,333.25 Q2083.3438,333.25 2082.1406,332.625 Q2081.1563,332.125 2080.4688,331.0625 Q2079.7813,329.9844 2079.7813,328.7031 L2079.7813,327.5469 Q2079.7813,326.2188 2080.3906,325.0781 Q2081.0156,323.9219 2082.1094,323.3125 Q2083.2031,322.6875 2084.4375,322.6875 Q2085.1719,322.6875 2085.8125,322.8594 Q2086.4688,323.0156 2087.0156,323.375 Z " fill="#000000"/><text fill="#000000" font-family="sans-serif" font-size="14" lengthAdjust="spacing" textLength="158" x="2104.75" y="333.2969">AdvertisementRepository</text><line style="stroke:#181818;stroke-width:0.5;" x1="1918.5" x2="2416.5" y1="343.5" y2="343.5"/><line style="stroke:#181818;stroke-width:0.5;" x1="1918.5" x2="2416.5" y1="351.5" y2="351.5"/><text fill="#000000" font-family="sans-serif" font-size="14" lengthAdjust="spacing" textLength="488" x="1923.5" y="370.6074">+createNewAdvertisement(request, date, commissionType, commissionValue)</text></g><!--link Repositories to Repositories--><g id="link_Repositories_Repositories"><path codeLine="175" d="M1081.76,82.57 C1102.08,85.23 1116.5,92.88 1116.5,105.5 C1116.5,117.04 1104.45,124.42 1086.86,127.64 " fill="none" id="Repositories-to-Repositories" style="stroke:#181818;stroke-width:1.0;"/><polygon fill="#181818" points="1081.76,128.43,1091.2692,130.9943,1086.7002,127.659,1090.0355,123.09,1081.76,128.43" style="stroke:#181818;stroke-width:1.0;"/><text fill="#000000" font-family="sans-serif" font-size="13" lengthAdjust="spacing" textLength="49" x="1122.5" y="111.0283">instance</text></g><!--link ImportFileController to Repositories--><g id="link_ImportFileController_Repositories"><path codeLine="176" d="M770.03,105.5 C801.7,105.5 836.5,105.5 868.4,105.5 " fill="none" id="ImportFileController-to-Repositories" style="stroke:#181818;stroke-width:1.0;stroke-dasharray:7.0,7.0;"/><polygon fill="#181818" points="873.49,105.5,864.49,101.5,868.49,105.5,864.49,109.5,873.49,105.5" style="stroke:#181818;stroke-width:1.0;"/><text fill="#000000" font-family="sans-serif" font-size="13" lengthAdjust="spacing" textLength="67" x="788.25" y="98.5283">repositories</text></g><!--link ImportFileUI to ImportFileController--><g id="link_ImportFileUI_ImportFileController"><path codeLine="178" d="M523.69,105.5 C532.37,105.5 543.45,105.5 553.87,105.5 " fill="none" id="ImportFileUI-to-ImportFileController" style="stroke:#181818;stroke-width:1.0;stroke-dasharray:7.0,7.0;"/><polygon fill="#181818" points="558.92,105.5,549.92,101.5,553.92,105.5,549.92,109.5,558.92,105.5" style="stroke:#181818;stroke-width:1.0;"/></g><!--link Repositories to PersonRepository--><g id="link_Repositories_PersonRepository"><path codeLine="182" d="M873.33,159.96 C829.07,182.67 787.5,204 787.5,204 C787.5,204 307.5,265 307.5,265 C307.5,265 288.48,385.88 278.49,449.45 " fill="none" id="Repositories-to-PersonRepository" style="stroke:#181818;stroke-width:1.0;"/><polygon fill="#181818" points="277.66,454.67,283,446.3945,278.431,449.7298,275.0957,445.1608,277.66,454.67" style="stroke:#181818;stroke-width:1.0;"/><text fill="#000000" font-family="sans-serif" font-size="13" lengthAdjust="spacing" textLength="7" x="270.9764" y="443.693">1</text></g><!--link Repositories to StoreRepository--><g id="link_Repositories_StoreRepository"><path codeLine="183" d="M1081.88,197.31 C1126.14,235.81 1175.18,278.47 1208.91,307.82 " fill="none" id="Repositories-to-StoreRepository" style="stroke:#181818;stroke-width:1.0;"/><polygon fill="#181818" points="1212.94,311.33,1208.7816,302.4021,1209.17,308.0456,1203.5265,308.434,1212.94,311.33" style="stroke:#181818;stroke-width:1.0;"/><text fill="#000000" font-family="sans-serif" font-size="13" lengthAdjust="spacing" textLength="7" x="1197.8563" y="300.122">1</text></g><!--link Repositories to PropertyRepository--><g id="link_Repositories_PropertyRepository"><path codeLine="184" d="M873.12,197.64 C849.08,218.63 823.66,240.83 800.07,261.43 " fill="none" id="Repositories-to-PropertyRepository" style="stroke:#181818;stroke-width:1.0;"/><polygon fill="#181818" points="796.3,264.72,805.7135,261.824,800.07,261.4356,800.4584,255.7921,796.3,264.72" style="stroke:#181818;stroke-width:1.0;"/><text fill="#000000" font-family="sans-serif" font-size="13" lengthAdjust="spacing" textLength="7" x="797.0752" y="253.8665">1</text></g><!--link Repositories to RequestRepository--><g id="link_Repositories_RequestRepository"><path codeLine="185" d="M1081.61,143.35 C1171.83,175.28 1305.59,222.63 1420.52,263.31 " fill="none" id="Repositories-to-RequestRepository" style="stroke:#181818;stroke-width:1.0;"/><polygon fill="#181818" points="1425.29,264.99,1418.1505,258.2056,1420.579,263.3147,1415.47,265.7432,1425.29,264.99" style="stroke:#181818;stroke-width:1.0;"/><text fill="#000000" font-family="sans-serif" font-size="13" lengthAdjust="spacing" textLength="7" x="1400.224" y="254.9877">1</text></g><!--link Repositories to AdvertisementRepository--><g id="link_Repositories_AdvertisementRepository"><path codeLine="186" d="M1081.92,124.45 C1323.31,165.95 1899.5,265 1899.5,265 C1899.5,265 1979.25,288.51 2051.74,309.88 " fill="none" id="Repositories-to-AdvertisementRepository" style="stroke:#181818;stroke-width:1.0;"/><polygon fill="#181818" points="2056.95,311.41,2049.4475,305.0294,2052.1539,309.9969,2047.1864,312.7032,2056.95,311.41" style="stroke:#181818;stroke-width:1.0;"/><text fill="#000000" font-family="sans-serif" font-size="13" lengthAdjust="spacing" textLength="7" x="2027.4964" y="300.2178">1</text></g><!--link Repositories to FileClassCollection--><g id="link_Repositories_FileClassCollection"><path codeLine="187" d="M873.33,159.96 C829.07,182.67 787.5,204 787.5,204 C787.5,204 245.5,234 245.5,234 C245.5,234 195,275.77 156.23,307.83 " fill="none" id="Repositories-to-FileClassCollection" style="stroke:#181818;stroke-width:1.0;"/><polygon fill="#181818" points="152.04,311.29,161.5264,308.6428,155.8951,308.106,156.432,302.4746,152.04,311.29" style="stroke:#181818;stroke-width:1.0;"/><text fill="#000000" font-family="sans-serif" font-size="13" lengthAdjust="spacing" textLength="7" x="151.9101" y="300.3359">1</text></g><!--link PersonRepository to Person--><g id="link_PersonRepository_Person"><path codeLine="189" d="M272.79,522.26 C273.33,584.34 274.54,722 275.43,823.45 " fill="none" id="PersonRepository-to-Person" style="stroke:#181818;stroke-width:1.0;"/><polygon fill="#181818" points="275.48,828.55,279.4027,819.516,275.4371,823.5502,271.403,819.5846,275.48,828.55" style="stroke:#181818;stroke-width:1.0;"/><text fill="#000000" font-family="sans-serif" font-size="13" lengthAdjust="spacing" textLength="5" x="270.2655" y="817.9057">*</text></g><!--reverse link Location to Person--><g id="link_Location_Person"><path codeLine="191" d="M477.01,669.81 C431.38,711.29 363.5,773 363.5,773 C363.5,773 350.88,797.95 335.25,828.84 " fill="none" id="Location-backto-Person" style="stroke:#181818;stroke-width:1.0;stroke-dasharray:7.0,7.0;"/><polygon fill="none" points="472.56,664.39,492.07,656.12,481.98,674.75,472.56,664.39" style="stroke:#181818;stroke-width:1.0;"/></g><!--link StoreRepository to Store--><g id="link_StoreRepository_Store"><path codeLine="193" d="M1250.5,378.69 C1250.5,424.11 1250.5,507.29 1250.5,565.69 " fill="none" id="StoreRepository-to-Store" style="stroke:#181818;stroke-width:1.0;"/><polygon fill="#181818" points="1250.5,570.91,1254.5,561.91,1250.5,565.91,1246.5,561.91,1250.5,570.91" style="stroke:#181818;stroke-width:1.0;"/><text fill="#000000" font-family="sans-serif" font-size="13" lengthAdjust="spacing" textLength="5" x="1245.2109" y="559.8808">*</text></g><!--link RequestRepository to Request--><g id="link_RequestRepository_Request"><path codeLine="195" d="M1648.5,425.01 C1648.5,484.25 1648.5,561.9 1648.5,602.87 " fill="none" id="RequestRepository-to-Request" style="stroke:#181818;stroke-width:1.0;"/><polygon fill="#181818" points="1648.5,607.92,1652.5,598.92,1648.5,602.92,1644.5,598.92,1648.5,607.92" style="stroke:#181818;stroke-width:1.0;"/><text fill="#000000" font-family="sans-serif" font-size="13" lengthAdjust="spacing" textLength="5" x="1642.8594" y="596.637">*</text></g><!--link Request to BusinessType--><g id="link_Request_BusinessType"><path codeLine="197" d="M1691.16,632 C1693.85,632 1695.5,632 1695.5,632 C1695.5,632 1708.35,632 1720.62,632 " fill="none" id="Request-to-BusinessType" style="stroke:#181818;stroke-width:1.0;"/><polygon fill="#181818" points="1725.8,632,1716.8,628,1720.8,632,1716.8,636,1725.8,632" style="stroke:#181818;stroke-width:1.0;"/><text fill="#000000" font-family="sans-serif" font-size="13" lengthAdjust="spacing" textLength="7" x="1711.03" y="628.0842">1</text></g><!--reverse link Request to RequestSale--><g id="link_Request_RequestSale"><path codeLine="198" d="M1664.47,675.23 C1682.9,723.95 1713.59,805.11 1736.51,865.72 " fill="none" id="Request-backto-RequestSale" style="stroke:#181818;stroke-width:1.0;stroke-dasharray:7.0,7.0;"/><polygon fill="none" points="1657.8,677.38,1657.27,656.2,1670.9,672.43,1657.8,677.38" style="stroke:#181818;stroke-width:1.0;"/></g><!--reverse link Request to RequestLease--><g id="link_Request_RequestLease"><path codeLine="199" d="M1632.63,674.96 C1615.1,721.31 1586.37,797.27 1563.85,856.83 " fill="none" id="Request-backto-RequestLease" style="stroke:#181818;stroke-width:1.0;stroke-dasharray:7.0,7.0;"/><polygon fill="none" points="1626.1,672.43,1639.73,656.2,1639.2,677.38,1626.1,672.43" style="stroke:#181818;stroke-width:1.0;"/></g><!--link AdvertisementRepository to Advertisement--><g id="link_AdvertisementRepository_Advertisement"><path codeLine="201" d="M2167.5,378.69 C2167.5,419.43 2167.5,490.53 2167.5,546.9 " fill="none" id="AdvertisementRepository-to-Advertisement" style="stroke:#181818;stroke-width:1.0;"/><polygon fill="#181818" points="2167.5,551.96,2171.5,542.96,2167.5,546.96,2163.5,542.96,2167.5,551.96" style="stroke:#181818;stroke-width:1.0;"/><text fill="#000000" font-family="sans-serif" font-size="13" lengthAdjust="spacing" textLength="5" x="2162.2695" y="540.8521">*</text></g><!--link Advertisement to ComissionType--><g id="link_Advertisement_ComissionType"><path codeLine="203" d="M2167.5,712.13 C2167.5,774.67 2167.5,859.17 2167.5,907.29 " fill="none" id="Advertisement-to-ComissionType" style="stroke:#181818;stroke-width:1.0;"/><polygon fill="#181818" points="2167.5,912.41,2171.5,903.41,2167.5,907.41,2163.5,903.41,2167.5,912.41" style="stroke:#181818;stroke-width:1.0;"/><text fill="#000000" font-family="sans-serif" font-size="13" lengthAdjust="spacing" textLength="7" x="2159.8109" y="901.2178">1</text></g><!--link PropertyRepository to Property--><g id="link_PropertyRepository_Property"><path codeLine="205" d="M705.22,425.01 C705.01,484.25 704.74,561.9 704.6,602.87 " fill="none" id="PropertyRepository-to-Property" style="stroke:#181818;stroke-width:1.0;"/><polygon fill="#181818" points="704.58,607.92,708.6057,598.9315,704.5943,602.92,700.6057,598.9086,704.58,607.92" style="stroke:#181818;stroke-width:1.0;"/><text fill="#000000" font-family="sans-serif" font-size="13" lengthAdjust="spacing" textLength="5" x="698.9599" y="596.637">*</text></g><!--link Property to PropertyType--><g id="link_Property_PropertyType"><path codeLine="207" d="M747.8,632 C750.31,632 751.83,632 751.83,632 C751.83,632 765.12,632 777.61,632 " fill="none" id="Property-to-PropertyType" style="stroke:#181818;stroke-width:1.0;"/><polygon fill="#181818" points="782.88,632,773.88,628,777.88,632,773.88,636,782.88,632" style="stroke:#181818;stroke-width:1.0;"/><text fill="#000000" font-family="sans-serif" font-size="13" lengthAdjust="spacing" textLength="7" x="768.1193" y="628.0842">1</text></g><!--reverse link Property to House--><g id="link_Property_House"><path codeLine="208" d="M734.73,672.15 C750.07,692.01 765.5,712 765.5,712 C765.5,712 817.5,773 817.5,773 C817.5,773 824.62,783.75 835.31,799.88 " fill="none" id="Property-backto-House" style="stroke:#181818;stroke-width:1.0;stroke-dasharray:7.0,7.0;"/><polygon fill="none" points="729.15,676.38,722.47,656.28,740.24,667.83,729.15,676.38" style="stroke:#181818;stroke-width:1.0;"/></g><!--reverse link Property to Land--><g id="link_Property_Land"><path codeLine="209" d="M704.5,676.23 C704.5,717.86 704.5,782.52 704.5,837.99 " fill="none" id="Property-backto-Land" style="stroke:#181818;stroke-width:1.0;stroke-dasharray:7.0,7.0;"/><polygon fill="none" points="697.5,676.2,704.5,656.2,711.5,676.2,697.5,676.2" style="stroke:#181818;stroke-width:1.0;"/></g><!--reverse link Property to Apartment--><g id="link_Property_Apartment"><path codeLine="210" d="M672.96,671.73 C639.22,713.16 590.5,773 590.5,773 C590.5,773 583.22,784.09 572.34,800.63 " fill="none" id="Property-backto-Apartment" style="stroke:#181818;stroke-width:1.0;stroke-dasharray:7.0,7.0;"/><polygon fill="none" points="667.62,667.21,685.68,656.12,678.47,676.05,667.62,667.21" style="stroke:#181818;stroke-width:1.0;"/></g><!--reverse link Location to House--><g id="link_Location_House"><path codeLine="212" d="M571.61,666.92 C605.77,688.35 643.5,712 643.5,712 C643.5,712 817.5,773 817.5,773 C817.5,773 824.62,783.75 835.31,799.88 " fill="none" id="Location-backto-House" style="stroke:#181818;stroke-width:1.0;stroke-dasharray:7.0,7.0;"/><polygon fill="none" points="567.51,672.62,554.28,656.06,574.95,660.76,567.51,672.62" style="stroke:#181818;stroke-width:1.0;"/></g><!--reverse link Location to Land--><g id="link_Location_Land"><path codeLine="213" d="M541.71,673.39 C566.58,714.88 606.35,781.25 640.36,837.99 " fill="none" id="Location-backto-Land" style="stroke:#181818;stroke-width:1.0;stroke-dasharray:7.0,7.0;"/><polygon fill="none" points="535.68,676.95,531.4,656.2,547.69,669.75,535.68,676.95" style="stroke:#181818;stroke-width:1.0;"/></g><!--reverse link Location to Apartment--><g id="link_Location_Apartment"><path codeLine="214" d="M511.95,676.29 C507.78,708.83 501.81,755.4 496.01,800.66 " fill="none" id="Location-backto-Apartment" style="stroke:#181818;stroke-width:1.0;stroke-dasharray:7.0,7.0;"/><polygon fill="none" points="505.04,675.14,514.53,656.2,518.93,676.92,505.04,675.14" style="stroke:#181818;stroke-width:1.0;"/></g><!--SRC=[xLTHRzis47xNho3w4cTXWksrA0AuNeO52DeWNllK5rewsqGbKYMfP6ws_xuZ9L8a9JV1bWt3i3n4rjtnUBpxzDtnH7_cecMADQIHGfPx9HiWHdLGZ9gMbP_P3jRcK0DHK1ecTdLieFUiaWzSxCYMrJhMr5o0ERH0MbaVx4jnCgEKoiWYMbNMJEkbCOflEWFNfHHh_XN8zqLnKiFM42E9uhkz8HMtuN0fYiAj8TTDYyv-uZLyk7ui2FwTaL81Cn2fLb8O9UiQLF7xTE6ezGvsOAw5nbENi3WTPDpPNukjL0sp4IoskFP6bkxbT7Hy1wtKt4Z5GPFUutaY32wJRSZhn6WqMNPc3yBmVgDWSuZTt8BIntHh5C2HPKgseCnXNdi7NphGPbwvhEvn9TVGO6o9IKY4owtzjRB9TLKZZy_F9eYk8Jx2Nn0rFfThX0aYhm9TAjuwCA0v5mRKbfKGrZo6I6wOg48fOfUaZLu6VIMx3SAU8OXIISNxMgLXQAC0J2hxojlS206PYafk3jc1qB_YfVTrWwzlUjKbQVVIo9rYxLwF2VvPTXh-E-VgrLX7WfNVW7eBbPAocIfkcKBcs4qNCBEFLmpxitl6QuOdlVhIyTRYTT1lfAo12LBBRIxQi1xPtbCdhdv5Z7SAY1v_ZwLO8eyPk-3_Slo9SYIVxq0xZn6XEi6QrU3fuqVBxvK_x1bvssbiBLgxP6-Ybq7lYn4ACSW9aGy2kqB_TjMqjJm05cNdIt_cgw9nzrjC6nHvN3U0M7dfm7f2Vpewc-sgKuurtszT9sDb5hf2yn2wOzKagc_JQdzKrqCoGy4QZxMh1ajAmFvVLfL2pn4O45C2tZb4f0vuvToEk_I7VdpAwNH_jmrwi3qb4XakdXF7t_1f9O3sNMr4TD8yGm5Ix9nxV67zt7EGhcJJSAtHdwjUcRocJ3BgFhAwW_Y3_yYnNr-IU_lGiUBzTWlgaaZxq04mk6cqvtCGaqyaeVEpgkfr2rTQwkf8RJ9nuXDO7shhHaEvAC4cf-wGbaypFCuxTwe5hxpZOHVlBd8odNv8Ea6-WmTliuWPd3hMzYfAFWaIM7k5e5Y1hJsDsPGEAACMMIjP0UqHzM7jZevEF7PEyn12QtbMBC-EmmRzL2mqetwQCZxDYPxEaFlaF6vgUTcpJCzXJ_VoPw5XBg1kQA3nC70wwGn7WMLRsM2pg74sfKbhe3tjqvxewTXwqbIwllENlSIXC8-qVv6dlKNBF-nbdgU_HHE9uM8WREh8d6OKJNDQTlibbyRpo_GI-Hhxrp0JpjrQoSN4NiKtoIA-8rlZsOinNhNJ832ALp-y8iUkdyMiTKxxyrOPVHznDQ7dURl9npPlTgIMyyOpLzUYcBGqP_sTFtHH-4PFtlnsSH6aUQ_og_hXfvXoXJSODC643C75qrlGkIsZINbMuIYZA8x1sc-Sw3FpaA9a9C3aJ9jfI8yVROCHoKhiN0IbYzXrYKnch_6PA3J7FFlz-bJcrgUYSVqV]--></g></svg>