<?xml version="1.0" encoding="us-ascii" standalone="no"?><svg xmlns="http://www.w3.org/2000/svg" xmlns:xlink="http://www.w3.org/1999/xlink" contentStyleType="text/css" height="2487px" preserveAspectRatio="none" style="width:1436px;height:2487px;background:#FFFFFF;" version="1.1" viewBox="0 0 1436 2487" width="1436px" zoomAndPan="magnify"><defs/><g><!--class RespondToVisitRequestUI--><g id="elem_RespondToVisitRequestUI"><rect codeLine="11" fill="#F1F1F1" height="298.25" id="RespondToVisitRequestUI" rx="2.5" ry="2.5" style="stroke:#181818;stroke-width:0.5;" width="644" x="417" y="7"/><ellipse cx="652.25" cy="23" fill="#ADD1B2" rx="11" ry="11" style="stroke:#181818;stroke-width:1.0;"/><path d="M655.0156,18.875 Q655.1719,18.6563 655.3594,18.5469 Q655.5469,18.4375 655.7656,18.4375 Q656.1406,18.4375 656.375,18.7031 Q656.6094,18.9531 656.6094,19.5625 L656.6094,21.0156 Q656.6094,21.625 656.375,21.8906 Q656.1406,22.1563 655.7656,22.1563 Q655.4219,22.1563 655.2188,21.9531 Q655.0156,21.7656 654.9063,21.25 Q654.8594,20.8906 654.6719,20.7031 Q654.3438,20.3281 653.7344,20.1094 Q653.125,19.8906 652.5,19.8906 Q651.7344,19.8906 651.0938,20.2188 Q650.4688,20.5469 649.9688,21.2969 Q649.4844,22.0469 649.4844,23.0781 L649.4844,24.1719 Q649.4844,25.4063 650.375,26.2344 Q651.2656,27.0469 652.8594,27.0469 Q653.7969,27.0469 654.4531,26.7969 Q654.8438,26.6406 655.2656,26.2031 Q655.5313,25.9375 655.6719,25.8594 Q655.8281,25.7813 656.0313,25.7813 Q656.3594,25.7813 656.6094,26.0469 Q656.875,26.2969 656.875,26.6406 Q656.875,26.9844 656.5313,27.3906 Q656.0313,27.9688 655.2344,28.2969 Q654.1563,28.75 652.8594,28.75 Q651.3438,28.75 650.1406,28.125 Q649.1563,27.625 648.4688,26.5625 Q647.7813,25.4844 647.7813,24.2031 L647.7813,23.0469 Q647.7813,21.7188 648.3906,20.5781 Q649.0156,19.4219 650.1094,18.8125 Q651.2031,18.1875 652.4375,18.1875 Q653.1719,18.1875 653.8125,18.3594 Q654.4688,18.5156 655.0156,18.875 Z " fill="#000000"/><text fill="#000000" font-family="sans-serif" font-size="14" lengthAdjust="spacing" textLength="165" x="672.75" y="27.8535">RespondToVisitRequestUI</text><line style="stroke:#181818;stroke-width:0.5;" x1="418" x2="1060" y1="39" y2="39"/><text fill="#000000" font-family="sans-serif" font-size="14" lengthAdjust="spacing" textLength="260" x="423" y="55.6738">-PropertyType keepPropertyTypeChoice;</text><text fill="#000000" font-family="sans-serif" font-size="14" lengthAdjust="spacing" textLength="266" x="423" y="71.3145">-BusinessType keepBusinessTypeChoice;</text><text fill="#000000" font-family="sans-serif" font-size="14" lengthAdjust="spacing" textLength="89" x="423" y="86.9551">-int keepYear;</text><text fill="#000000" font-family="sans-serif" font-size="14" lengthAdjust="spacing" textLength="98" x="423" y="102.5957">-int keepMonth;</text><text fill="#000000" font-family="sans-serif" font-size="14" lengthAdjust="spacing" textLength="84" x="423" y="118.2363">-int keepDay;</text><text fill="#000000" font-family="sans-serif" font-size="14" lengthAdjust="spacing" textLength="89" x="423" y="133.877">-int keepHour;</text><text fill="#000000" font-family="sans-serif" font-size="14" lengthAdjust="spacing" textLength="232" x="423" y="149.5176">-Advertisement advertisementChoice</text><text fill="#000000" font-family="sans-serif" font-size="14" lengthAdjust="spacing" textLength="292" x="423" y="165.1582">-AdvertisementDTO advertisementDTOChoice</text><text fill="#000000" font-family="sans-serif" font-size="14" lengthAdjust="spacing" textLength="103" x="423" y="180.7988">-Visit visitChoice</text><line style="stroke:#181818;stroke-width:0.5;" x1="418" x2="1060" y1="187.7656" y2="187.7656"/><text fill="#000000" font-family="sans-serif" font-size="14" lengthAdjust="spacing" textLength="277" x="423" y="204.4395">+create RespondToVisitRequestController()</text><text fill="#000000" font-family="sans-serif" font-size="14" lengthAdjust="spacing" textLength="195" x="423" y="220.0801">+listAndChoosePropertyType()</text><text fill="#000000" font-family="sans-serif" font-size="14" lengthAdjust="spacing" textLength="198" x="423" y="235.7207">+listAndChooseBusinessType()</text><text fill="#000000" font-family="sans-serif" font-size="14" lengthAdjust="spacing" textLength="632" x="423" y="251.3613">+listAndDisplayandChooseAdvertisementDTO(keepPropertyTypeChoice, keepBusinessTypeChoice)</text><text fill="#000000" font-family="sans-serif" font-size="14" lengthAdjust="spacing" textLength="547" x="423" y="267.002">+getAdvertismentDTOListSorted(keepPropertyTypeChoice, keepBusinessTypeChoice)</text><text fill="#000000" font-family="sans-serif" font-size="14" lengthAdjust="spacing" textLength="597" x="423" y="282.6426">+displayAdvertisments( adsVisitListDTO, keepPropertyTypeChoice, keepBusinessTypeChoice)</text><text fill="#000000" font-family="sans-serif" font-size="14" lengthAdjust="spacing" textLength="517" x="423" y="298.2832">+displayConditionsAskToConfirm(AdvertisementDTO adchoiceVisitDTO, Visit visit)</text></g><!--class RespondToVisitRequestController--><g id="elem_RespondToVisitRequestController"><rect codeLine="32" fill="#F1F1F1" height="173.125" id="RespondToVisitRequestController" rx="2.5" ry="2.5" style="stroke:#181818;stroke-width:0.5;" width="340" x="569" y="366"/><ellipse cx="627.25" cy="382" fill="#ADD1B2" rx="11" ry="11" style="stroke:#181818;stroke-width:1.0;"/><path d="M630.0156,377.875 Q630.1719,377.6563 630.3594,377.5469 Q630.5469,377.4375 630.7656,377.4375 Q631.1406,377.4375 631.375,377.7031 Q631.6094,377.9531 631.6094,378.5625 L631.6094,380.0156 Q631.6094,380.625 631.375,380.8906 Q631.1406,381.1563 630.7656,381.1563 Q630.4219,381.1563 630.2188,380.9531 Q630.0156,380.7656 629.9063,380.25 Q629.8594,379.8906 629.6719,379.7031 Q629.3438,379.3281 628.7344,379.1094 Q628.125,378.8906 627.5,378.8906 Q626.7344,378.8906 626.0938,379.2188 Q625.4688,379.5469 624.9688,380.2969 Q624.4844,381.0469 624.4844,382.0781 L624.4844,383.1719 Q624.4844,384.4063 625.375,385.2344 Q626.2656,386.0469 627.8594,386.0469 Q628.7969,386.0469 629.4531,385.7969 Q629.8438,385.6406 630.2656,385.2031 Q630.5313,384.9375 630.6719,384.8594 Q630.8281,384.7813 631.0313,384.7813 Q631.3594,384.7813 631.6094,385.0469 Q631.875,385.2969 631.875,385.6406 Q631.875,385.9844 631.5313,386.3906 Q631.0313,386.9688 630.2344,387.2969 Q629.1563,387.75 627.8594,387.75 Q626.3438,387.75 625.1406,387.125 Q624.1563,386.625 623.4688,385.5625 Q622.7813,384.4844 622.7813,383.2031 L622.7813,382.0469 Q622.7813,380.7188 623.3906,379.5781 Q624.0156,378.4219 625.1094,377.8125 Q626.2031,377.1875 627.4375,377.1875 Q628.1719,377.1875 628.8125,377.3594 Q629.4688,377.5156 630.0156,377.875 Z " fill="#000000"/><text fill="#000000" font-family="sans-serif" font-size="14" lengthAdjust="spacing" textLength="215" x="647.75" y="386.8535">RespondToVisitRequestController</text><line style="stroke:#181818;stroke-width:0.5;" x1="570" x2="908" y1="398" y2="398"/><text fill="#000000" font-family="sans-serif" font-size="14" lengthAdjust="spacing" textLength="166" x="575" y="414.6738">-Repositories repositories;</text><text fill="#000000" font-family="sans-serif" font-size="14" lengthAdjust="spacing" textLength="256" x="575" y="430.3145">-PropertyRepository propertyRepository;</text><text fill="#000000" font-family="sans-serif" font-size="14" lengthAdjust="spacing" textLength="250" x="575" y="445.9551">-RequestRepository requestRepository;</text><text fill="#000000" font-family="sans-serif" font-size="14" lengthAdjust="spacing" textLength="328" x="575" y="461.5957">-AdvertisementRepository advertisementRepository;</text><line style="stroke:#181818;stroke-width:0.5;" x1="570" x2="908" y1="468.5625" y2="468.5625"/><text fill="#000000" font-family="sans-serif" font-size="14" lengthAdjust="spacing" textLength="91" x="575" y="485.2363">+getInstance()</text><text fill="#000000" font-family="sans-serif" font-size="14" lengthAdjust="spacing" textLength="146" x="575" y="500.877">+getPropertyTypeList()</text><text fill="#000000" font-family="sans-serif" font-size="14" lengthAdjust="spacing" textLength="149" x="575" y="516.5176">+getBusinessTypeList()</text><text fill="#000000" font-family="sans-serif" font-size="14" lengthAdjust="spacing" textLength="188" x="575" y="532.1582">+getAdvertismentRepository()</text></g><!--class Repositories--><g id="elem_Repositories"><rect codeLine="46" fill="#F1F1F1" height="141.8438" id="Repositories" rx="2.5" ry="2.5" style="stroke:#181818;stroke-width:0.5;" width="207" x="417.5" y="741"/><ellipse cx="477.25" cy="757" fill="#ADD1B2" rx="11" ry="11" style="stroke:#181818;stroke-width:1.0;"/><path d="M480.0156,752.875 Q480.1719,752.6563 480.3594,752.5469 Q480.5469,752.4375 480.7656,752.4375 Q481.1406,752.4375 481.375,752.7031 Q481.6094,752.9531 481.6094,753.5625 L481.6094,755.0156 Q481.6094,755.625 481.375,755.8906 Q481.1406,756.1563 480.7656,756.1563 Q480.4219,756.1563 480.2188,755.9531 Q480.0156,755.7656 479.9063,755.25 Q479.8594,754.8906 479.6719,754.7031 Q479.3438,754.3281 478.7344,754.1094 Q478.125,753.8906 477.5,753.8906 Q476.7344,753.8906 476.0938,754.2188 Q475.4688,754.5469 474.9688,755.2969 Q474.4844,756.0469 474.4844,757.0781 L474.4844,758.1719 Q474.4844,759.4063 475.375,760.2344 Q476.2656,761.0469 477.8594,761.0469 Q478.7969,761.0469 479.4531,760.7969 Q479.8438,760.6406 480.2656,760.2031 Q480.5313,759.9375 480.6719,759.8594 Q480.8281,759.7813 481.0313,759.7813 Q481.3594,759.7813 481.6094,760.0469 Q481.875,760.2969 481.875,760.6406 Q481.875,760.9844 481.5313,761.3906 Q481.0313,761.9688 480.2344,762.2969 Q479.1563,762.75 477.8594,762.75 Q476.3438,762.75 475.1406,762.125 Q474.1563,761.625 473.4688,760.5625 Q472.7813,759.4844 472.7813,758.2031 L472.7813,757.0469 Q472.7813,755.7188 473.3906,754.5781 Q474.0156,753.4219 475.1094,752.8125 Q476.2031,752.1875 477.4375,752.1875 Q478.1719,752.1875 478.8125,752.3594 Q479.4688,752.5156 480.0156,752.875 Z " fill="#000000"/><text fill="#000000" font-family="sans-serif" font-size="14" lengthAdjust="spacing" textLength="79" x="497.75" y="761.8535">Repositories</text><line style="stroke:#181818;stroke-width:0.5;" x1="418.5" x2="623.5" y1="773" y2="773"/><line style="stroke:#181818;stroke-width:0.5;" x1="418.5" x2="623.5" y1="781" y2="781"/><text fill="#000000" font-family="sans-serif" font-size="14" lengthAdjust="spacing" textLength="94" x="423.5" y="797.6738">-Repositories()</text><text fill="#000000" font-family="sans-serif" font-size="14" lengthAdjust="spacing" textLength="182" x="423.5" y="813.3145">+getInstance() : Repositories</text><text fill="#000000" font-family="sans-serif" font-size="14" lengthAdjust="spacing" textLength="160" x="423.5" y="828.9551">+getPropertyRepository()</text><text fill="#000000" font-family="sans-serif" font-size="14" lengthAdjust="spacing" textLength="195" x="423.5" y="844.5957">+getBusinessTypeRepository()</text><text fill="#000000" font-family="sans-serif" font-size="14" lengthAdjust="spacing" textLength="159" x="423.5" y="860.2363">+getRequestRepository()</text><text fill="#000000" font-family="sans-serif" font-size="14" lengthAdjust="spacing" textLength="188" x="423.5" y="875.877">+getAdvertismentRepository()</text></g><!--class PropertyRepository--><g id="elem_PropertyRepository"><rect codeLine="56" fill="#F1F1F1" height="63.6406" id="PropertyRepository" rx="2.5" ry="2.5" style="stroke:#181818;stroke-width:0.5;" width="154" x="725" y="1038"/><ellipse cx="740" cy="1054" fill="#ADD1B2" rx="11" ry="11" style="stroke:#181818;stroke-width:1.0;"/><path d="M742.7656,1049.875 Q742.9219,1049.6563 743.1094,1049.5469 Q743.2969,1049.4375 743.5156,1049.4375 Q743.8906,1049.4375 744.125,1049.7031 Q744.3594,1049.9531 744.3594,1050.5625 L744.3594,1052.0156 Q744.3594,1052.625 744.125,1052.8906 Q743.8906,1053.1563 743.5156,1053.1563 Q743.1719,1053.1563 742.9688,1052.9531 Q742.7656,1052.7656 742.6563,1052.25 Q742.6094,1051.8906 742.4219,1051.7031 Q742.0938,1051.3281 741.4844,1051.1094 Q740.875,1050.8906 740.25,1050.8906 Q739.4844,1050.8906 738.8438,1051.2188 Q738.2188,1051.5469 737.7188,1052.2969 Q737.2344,1053.0469 737.2344,1054.0781 L737.2344,1055.1719 Q737.2344,1056.4063 738.125,1057.2344 Q739.0156,1058.0469 740.6094,1058.0469 Q741.5469,1058.0469 742.2031,1057.7969 Q742.5938,1057.6406 743.0156,1057.2031 Q743.2813,1056.9375 743.4219,1056.8594 Q743.5781,1056.7813 743.7813,1056.7813 Q744.1094,1056.7813 744.3594,1057.0469 Q744.625,1057.2969 744.625,1057.6406 Q744.625,1057.9844 744.2813,1058.3906 Q743.7813,1058.9688 742.9844,1059.2969 Q741.9063,1059.75 740.6094,1059.75 Q739.0938,1059.75 737.8906,1059.125 Q736.9063,1058.625 736.2188,1057.5625 Q735.5313,1056.4844 735.5313,1055.2031 L735.5313,1054.0469 Q735.5313,1052.7188 736.1406,1051.5781 Q736.7656,1050.4219 737.8594,1049.8125 Q738.9531,1049.1875 740.1875,1049.1875 Q740.9219,1049.1875 741.5625,1049.3594 Q742.2188,1049.5156 742.7656,1049.875 Z " fill="#000000"/><text fill="#000000" font-family="sans-serif" font-size="14" lengthAdjust="spacing" textLength="122" x="754" y="1058.8535">PropertyRepository</text><line style="stroke:#181818;stroke-width:0.5;" x1="726" x2="878" y1="1070" y2="1070"/><line style="stroke:#181818;stroke-width:0.5;" x1="726" x2="878" y1="1078" y2="1078"/><text fill="#000000" font-family="sans-serif" font-size="14" lengthAdjust="spacing" textLength="114" x="731" y="1094.6738">+getPropertyList()</text></g><!--class Property--><g id="elem_Property"><rect codeLine="59" fill="#F1F1F1" height="117.6094" id="Property" rx="2.5" ry="2.5" style="stroke:#181818;stroke-width:0.5;" width="180" x="947" y="1854"/><ellipse cx="1004.25" cy="1873.5234" fill="#B4A7E5" rx="11" ry="11" style="stroke:#181818;stroke-width:1.0;"/><path d="M1005.2031,1870.1641 L1005.2031,1876.8203 L1006.9219,1876.8203 Q1007.5313,1876.8203 1007.7969,1877.0547 Q1008.0625,1877.2891 1008.0625,1877.6797 Q1008.0625,1878.0547 1007.7969,1878.2891 Q1007.5313,1878.5234 1006.9219,1878.5234 L1001.7813,1878.5234 Q1001.1719,1878.5234 1000.9063,1878.2891 Q1000.6406,1878.0547 1000.6406,1877.6641 Q1000.6406,1877.2891 1000.9063,1877.0547 Q1001.1719,1876.8203 1001.7813,1876.8203 L1003.5,1876.8203 L1003.5,1870.1641 L1001.7813,1870.1641 Q1001.1719,1870.1641 1000.9063,1869.9297 Q1000.6406,1869.6953 1000.6406,1869.3047 Q1000.6406,1868.9297 1000.9063,1868.6953 Q1001.1719,1868.4609 1001.7813,1868.4609 L1006.9219,1868.4609 Q1007.5313,1868.4609 1007.7969,1868.6953 Q1008.0625,1868.9297 1008.0625,1869.3047 Q1008.0625,1869.6953 1007.7969,1869.9297 Q1007.5313,1870.1641 1006.9219,1870.1641 L1005.2031,1870.1641 Z " fill="#000000"/><text fill="#000000" font-family="sans-serif" font-size="12" font-style="italic" lengthAdjust="spacing" textLength="61" x="1022.75" y="1869.8633">&#171;interface&#187;</text><text fill="#000000" font-family="sans-serif" font-size="14" font-style="italic" lengthAdjust="spacing" textLength="54" x="1026.25" y="1885.0801">Property</text><line style="stroke:#181818;stroke-width:0.5;" x1="948" x2="1126" y1="1893.0469" y2="1893.0469"/><text fill="#000000" font-family="sans-serif" font-size="14" lengthAdjust="spacing" textLength="85" x="953" y="1909.7207">-double area;</text><text fill="#000000" font-family="sans-serif" font-size="14" lengthAdjust="spacing" textLength="109" x="953" y="1925.3613">-double distance;</text><text fill="#000000" font-family="sans-serif" font-size="14" lengthAdjust="spacing" textLength="116" x="953" y="1941.002">-Location location;</text><text fill="#000000" font-family="sans-serif" font-size="14" lengthAdjust="spacing" textLength="168" x="953" y="1956.6426">-List&lt;String&gt; photographs;</text><line style="stroke:#181818;stroke-width:0.5;" x1="948" x2="1126" y1="1963.6094" y2="1963.6094"/></g><!--class Land--><g id="elem_Land"><rect codeLine="65" fill="#F1F1F1" height="48" id="Land" rx="2.5" ry="2.5" style="stroke:#181818;stroke-width:0.5;" width="64" x="1365" y="2099"/><ellipse cx="1380" cy="2115" fill="#ADD1B2" rx="11" ry="11" style="stroke:#181818;stroke-width:1.0;"/><path d="M1382.7656,2110.875 Q1382.9219,2110.6563 1383.1094,2110.5469 Q1383.2969,2110.4375 1383.5156,2110.4375 Q1383.8906,2110.4375 1384.125,2110.7031 Q1384.3594,2110.9531 1384.3594,2111.5625 L1384.3594,2113.0156 Q1384.3594,2113.625 1384.125,2113.8906 Q1383.8906,2114.1563 1383.5156,2114.1563 Q1383.1719,2114.1563 1382.9688,2113.9531 Q1382.7656,2113.7656 1382.6563,2113.25 Q1382.6094,2112.8906 1382.4219,2112.7031 Q1382.0938,2112.3281 1381.4844,2112.1094 Q1380.875,2111.8906 1380.25,2111.8906 Q1379.4844,2111.8906 1378.8438,2112.2188 Q1378.2188,2112.5469 1377.7188,2113.2969 Q1377.2344,2114.0469 1377.2344,2115.0781 L1377.2344,2116.1719 Q1377.2344,2117.4063 1378.125,2118.2344 Q1379.0156,2119.0469 1380.6094,2119.0469 Q1381.5469,2119.0469 1382.2031,2118.7969 Q1382.5938,2118.6406 1383.0156,2118.2031 Q1383.2813,2117.9375 1383.4219,2117.8594 Q1383.5781,2117.7813 1383.7813,2117.7813 Q1384.1094,2117.7813 1384.3594,2118.0469 Q1384.625,2118.2969 1384.625,2118.6406 Q1384.625,2118.9844 1384.2813,2119.3906 Q1383.7813,2119.9688 1382.9844,2120.2969 Q1381.9063,2120.75 1380.6094,2120.75 Q1379.0938,2120.75 1377.8906,2120.125 Q1376.9063,2119.625 1376.2188,2118.5625 Q1375.5313,2117.4844 1375.5313,2116.2031 L1375.5313,2115.0469 Q1375.5313,2113.7188 1376.1406,2112.5781 Q1376.7656,2111.4219 1377.8594,2110.8125 Q1378.9531,2110.1875 1380.1875,2110.1875 Q1380.9219,2110.1875 1381.5625,2110.3594 Q1382.2188,2110.5156 1382.7656,2110.875 Z " fill="#000000"/><text fill="#000000" font-family="sans-serif" font-size="14" lengthAdjust="spacing" textLength="32" x="1394" y="2119.8535">Land</text><line style="stroke:#181818;stroke-width:0.5;" x1="1366" x2="1428" y1="2131" y2="2131"/><line style="stroke:#181818;stroke-width:0.5;" x1="1366" x2="1428" y1="2139" y2="2139"/></g><!--class Apartment--><g id="elem_Apartment"><rect codeLine="67" fill="#F1F1F1" height="110.5625" id="Apartment" rx="2.5" ry="2.5" style="stroke:#181818;stroke-width:0.5;" width="185" x="554.5" y="2067.5"/><ellipse cx="610.25" cy="2083.5" fill="#ADD1B2" rx="11" ry="11" style="stroke:#181818;stroke-width:1.0;"/><path d="M613.0156,2079.375 Q613.1719,2079.1563 613.3594,2079.0469 Q613.5469,2078.9375 613.7656,2078.9375 Q614.1406,2078.9375 614.375,2079.2031 Q614.6094,2079.4531 614.6094,2080.0625 L614.6094,2081.5156 Q614.6094,2082.125 614.375,2082.3906 Q614.1406,2082.6563 613.7656,2082.6563 Q613.4219,2082.6563 613.2188,2082.4531 Q613.0156,2082.2656 612.9063,2081.75 Q612.8594,2081.3906 612.6719,2081.2031 Q612.3438,2080.8281 611.7344,2080.6094 Q611.125,2080.3906 610.5,2080.3906 Q609.7344,2080.3906 609.0938,2080.7188 Q608.4688,2081.0469 607.9688,2081.7969 Q607.4844,2082.5469 607.4844,2083.5781 L607.4844,2084.6719 Q607.4844,2085.9063 608.375,2086.7344 Q609.2656,2087.5469 610.8594,2087.5469 Q611.7969,2087.5469 612.4531,2087.2969 Q612.8438,2087.1406 613.2656,2086.7031 Q613.5313,2086.4375 613.6719,2086.3594 Q613.8281,2086.2813 614.0313,2086.2813 Q614.3594,2086.2813 614.6094,2086.5469 Q614.875,2086.7969 614.875,2087.1406 Q614.875,2087.4844 614.5313,2087.8906 Q614.0313,2088.4688 613.2344,2088.7969 Q612.1563,2089.25 610.8594,2089.25 Q609.3438,2089.25 608.1406,2088.625 Q607.1563,2088.125 606.4688,2087.0625 Q605.7813,2085.9844 605.7813,2084.7031 L605.7813,2083.5469 Q605.7813,2082.2188 606.3906,2081.0781 Q607.0156,2079.9219 608.1094,2079.3125 Q609.2031,2078.6875 610.4375,2078.6875 Q611.1719,2078.6875 611.8125,2078.8594 Q612.4688,2079.0156 613.0156,2079.375 Z " fill="#000000"/><text fill="#000000" font-family="sans-serif" font-size="14" lengthAdjust="spacing" textLength="65" x="630.75" y="2088.3535">Apartment</text><line style="stroke:#181818;stroke-width:0.5;" x1="555.5" x2="738.5" y1="2099.5" y2="2099.5"/><text fill="#000000" font-family="sans-serif" font-size="14" lengthAdjust="spacing" textLength="140" x="560.5" y="2116.1738">-int: numberBedrooms</text><text fill="#000000" font-family="sans-serif" font-size="14" lengthAdjust="spacing" textLength="124" x="560.5" y="2131.8145">-int: numberParking</text><text fill="#000000" font-family="sans-serif" font-size="14" lengthAdjust="spacing" textLength="144" x="560.5" y="2147.4551">-int: numberBathrooms</text><text fill="#000000" font-family="sans-serif" font-size="14" lengthAdjust="spacing" textLength="173" x="560.5" y="2163.0957">-String: availableEquipment</text><line style="stroke:#181818;stroke-width:0.5;" x1="555.5" x2="738.5" y1="2170.0625" y2="2170.0625"/></g><!--class House--><g id="elem_House"><rect codeLine="73" fill="#F1F1F1" height="141.8438" id="House" rx="2.5" ry="2.5" style="stroke:#181818;stroke-width:0.5;" width="185" x="1144.5" y="2052"/><ellipse cx="1212.75" cy="2068" fill="#ADD1B2" rx="11" ry="11" style="stroke:#181818;stroke-width:1.0;"/><path d="M1215.5156,2063.875 Q1215.6719,2063.6563 1215.8594,2063.5469 Q1216.0469,2063.4375 1216.2656,2063.4375 Q1216.6406,2063.4375 1216.875,2063.7031 Q1217.1094,2063.9531 1217.1094,2064.5625 L1217.1094,2066.0156 Q1217.1094,2066.625 1216.875,2066.8906 Q1216.6406,2067.1563 1216.2656,2067.1563 Q1215.9219,2067.1563 1215.7188,2066.9531 Q1215.5156,2066.7656 1215.4063,2066.25 Q1215.3594,2065.8906 1215.1719,2065.7031 Q1214.8438,2065.3281 1214.2344,2065.1094 Q1213.625,2064.8906 1213,2064.8906 Q1212.2344,2064.8906 1211.5938,2065.2188 Q1210.9688,2065.5469 1210.4688,2066.2969 Q1209.9844,2067.0469 1209.9844,2068.0781 L1209.9844,2069.1719 Q1209.9844,2070.4063 1210.875,2071.2344 Q1211.7656,2072.0469 1213.3594,2072.0469 Q1214.2969,2072.0469 1214.9531,2071.7969 Q1215.3438,2071.6406 1215.7656,2071.2031 Q1216.0313,2070.9375 1216.1719,2070.8594 Q1216.3281,2070.7813 1216.5313,2070.7813 Q1216.8594,2070.7813 1217.1094,2071.0469 Q1217.375,2071.2969 1217.375,2071.6406 Q1217.375,2071.9844 1217.0313,2072.3906 Q1216.5313,2072.9688 1215.7344,2073.2969 Q1214.6563,2073.75 1213.3594,2073.75 Q1211.8438,2073.75 1210.6406,2073.125 Q1209.6563,2072.625 1208.9688,2071.5625 Q1208.2813,2070.4844 1208.2813,2069.2031 L1208.2813,2068.0469 Q1208.2813,2066.7188 1208.8906,2065.5781 Q1209.5156,2064.4219 1210.6094,2063.8125 Q1211.7031,2063.1875 1212.9375,2063.1875 Q1213.6719,2063.1875 1214.3125,2063.3594 Q1214.9688,2063.5156 1215.5156,2063.875 Z " fill="#000000"/><text fill="#000000" font-family="sans-serif" font-size="14" lengthAdjust="spacing" textLength="40" x="1233.25" y="2072.8535">House</text><line style="stroke:#181818;stroke-width:0.5;" x1="1145.5" x2="1328.5" y1="2084" y2="2084"/><text fill="#000000" font-family="sans-serif" font-size="14" lengthAdjust="spacing" textLength="140" x="1150.5" y="2100.6738">-int: numberBedrooms</text><text fill="#000000" font-family="sans-serif" font-size="14" lengthAdjust="spacing" textLength="124" x="1150.5" y="2116.3145">-int: numberParking</text><text fill="#000000" font-family="sans-serif" font-size="14" lengthAdjust="spacing" textLength="144" x="1150.5" y="2131.9551">-int: numberBathrooms</text><text fill="#000000" font-family="sans-serif" font-size="14" lengthAdjust="spacing" textLength="173" x="1150.5" y="2147.5957">-String: availableEquipment</text><text fill="#000000" font-family="sans-serif" font-size="14" lengthAdjust="spacing" textLength="126" x="1150.5" y="2163.2363">-boolean: basement</text><text fill="#000000" font-family="sans-serif" font-size="14" lengthAdjust="spacing" textLength="146" x="1150.5" y="2178.877">-boolean: habitableLoft</text><line style="stroke:#181818;stroke-width:0.5;" x1="1145.5" x2="1328.5" y1="2185.8438" y2="2185.8438"/></g><!--class SunExposureType--><g id="elem_SunExposureType"><rect codeLine="81" fill="#F1F1F1" height="70.6875" id="SunExposureType" rx="2.5" ry="2.5" style="stroke:#181818;stroke-width:0.5;" width="217" x="1128.5" y="2410"/><ellipse cx="1174.75" cy="2429.5234" fill="#EB937F" rx="11" ry="11" style="stroke:#181818;stroke-width:1.0;"/><path d="M1173.6094,2430.3203 L1173.6094,2432.8203 L1177.9375,2432.8203 L1177.9375,2431.8984 Q1177.9375,2431.2891 1178.1719,2431.0234 Q1178.4219,2430.7578 1178.7969,2430.7578 Q1179.1719,2430.7578 1179.4063,2431.0234 Q1179.6406,2431.2891 1179.6406,2431.8984 L1179.6406,2434.5234 L1171.6406,2434.5234 Q1171.0156,2434.5234 1170.75,2434.2891 Q1170.5,2434.0547 1170.5,2433.6641 Q1170.5,2433.2891 1170.7656,2433.0547 Q1171.0313,2432.8203 1171.6406,2432.8203 L1171.9063,2432.8203 L1171.9063,2426.1641 L1171.6406,2426.1641 Q1171.0156,2426.1641 1170.75,2425.9297 Q1170.5,2425.6953 1170.5,2425.3047 Q1170.5,2424.9297 1170.75,2424.6953 Q1171.0156,2424.4609 1171.6406,2424.4609 L1179.2656,2424.4609 L1179.2656,2427.0547 Q1179.2656,2427.6641 1179.0313,2427.9297 Q1178.8125,2428.1797 1178.4219,2428.1797 Q1178.0469,2428.1797 1177.8125,2427.9297 Q1177.5781,2427.6641 1177.5781,2427.0547 L1177.5781,2426.1641 L1173.6094,2426.1641 L1173.6094,2428.6172 L1175.0938,2428.6172 Q1175.0938,2427.9609 1175.2188,2427.7734 Q1175.4844,2427.3672 1175.9531,2427.3672 Q1176.3281,2427.3672 1176.5625,2427.6328 Q1176.7969,2427.8828 1176.7969,2428.4922 L1176.7969,2430.4609 Q1176.7969,2431.0078 1176.6719,2431.1953 Q1176.4063,2431.5859 1175.9531,2431.5859 Q1175.4844,2431.5859 1175.2188,2431.1797 Q1175.0938,2430.9922 1175.0938,2430.3203 L1173.6094,2430.3203 Z " fill="#000000"/><text fill="#000000" font-family="sans-serif" font-size="12" font-style="italic" lengthAdjust="spacing" textLength="46" x="1230.25" y="2425.8633">&#171;enum&#187;</text><text fill="#000000" font-family="sans-serif" font-size="14" lengthAdjust="spacing" textLength="116" x="1195.25" y="2441.0801">SunExposureType</text><line style="stroke:#181818;stroke-width:0.5;" x1="1129.5" x2="1344.5" y1="2449.0469" y2="2449.0469"/><text fill="#000000" font-family="sans-serif" font-size="14" lengthAdjust="spacing" textLength="205" x="1134.5" y="2465.7207">-String: North, South, East, West</text><line style="stroke:#181818;stroke-width:0.5;" x1="1129.5" x2="1344.5" y1="2472.6875" y2="2472.6875"/></g><!--class SunExposure--><g id="elem_SunExposure"><rect codeLine="84" fill="#F1F1F1" height="63.6406" id="SunExposure" rx="2.5" ry="2.5" style="stroke:#181818;stroke-width:0.5;" width="166" x="1154" y="2277.5"/><ellipse cx="1191.5" cy="2293.5" fill="#ADD1B2" rx="11" ry="11" style="stroke:#181818;stroke-width:1.0;"/><path d="M1194.2656,2289.375 Q1194.4219,2289.1563 1194.6094,2289.0469 Q1194.7969,2288.9375 1195.0156,2288.9375 Q1195.3906,2288.9375 1195.625,2289.2031 Q1195.8594,2289.4531 1195.8594,2290.0625 L1195.8594,2291.5156 Q1195.8594,2292.125 1195.625,2292.3906 Q1195.3906,2292.6563 1195.0156,2292.6563 Q1194.6719,2292.6563 1194.4688,2292.4531 Q1194.2656,2292.2656 1194.1563,2291.75 Q1194.1094,2291.3906 1193.9219,2291.2031 Q1193.5938,2290.8281 1192.9844,2290.6094 Q1192.375,2290.3906 1191.75,2290.3906 Q1190.9844,2290.3906 1190.3438,2290.7188 Q1189.7188,2291.0469 1189.2188,2291.7969 Q1188.7344,2292.5469 1188.7344,2293.5781 L1188.7344,2294.6719 Q1188.7344,2295.9063 1189.625,2296.7344 Q1190.5156,2297.5469 1192.1094,2297.5469 Q1193.0469,2297.5469 1193.7031,2297.2969 Q1194.0938,2297.1406 1194.5156,2296.7031 Q1194.7813,2296.4375 1194.9219,2296.3594 Q1195.0781,2296.2813 1195.2813,2296.2813 Q1195.6094,2296.2813 1195.8594,2296.5469 Q1196.125,2296.7969 1196.125,2297.1406 Q1196.125,2297.4844 1195.7813,2297.8906 Q1195.2813,2298.4688 1194.4844,2298.7969 Q1193.4063,2299.25 1192.1094,2299.25 Q1190.5938,2299.25 1189.3906,2298.625 Q1188.4063,2298.125 1187.7188,2297.0625 Q1187.0313,2295.9844 1187.0313,2294.7031 L1187.0313,2293.5469 Q1187.0313,2292.2188 1187.6406,2291.0781 Q1188.2656,2289.9219 1189.3594,2289.3125 Q1190.4531,2288.6875 1191.6875,2288.6875 Q1192.4219,2288.6875 1193.0625,2288.8594 Q1193.7188,2289.0156 1194.2656,2289.375 Z " fill="#000000"/><text fill="#000000" font-family="sans-serif" font-size="14" lengthAdjust="spacing" textLength="84" x="1210.5" y="2298.3535">SunExposure</text><line style="stroke:#181818;stroke-width:0.5;" x1="1155" x2="1319" y1="2309.5" y2="2309.5"/><line style="stroke:#181818;stroke-width:0.5;" x1="1155" x2="1319" y1="2317.5" y2="2317.5"/><text fill="#000000" font-family="sans-serif" font-size="14" lengthAdjust="spacing" textLength="154" x="1160" y="2334.1738">+getSunExposureType()</text></g><!--class PropertyType--><g id="elem_PropertyType"><rect codeLine="87" fill="#F1F1F1" height="86.3281" id="PropertyType" rx="2.5" ry="2.5" style="stroke:#181818;stroke-width:0.5;" width="211" x="774.5" y="2080"/><ellipse cx="832.75" cy="2099.5234" fill="#EB937F" rx="11" ry="11" style="stroke:#181818;stroke-width:1.0;"/><path d="M831.6094,2100.3203 L831.6094,2102.8203 L835.9375,2102.8203 L835.9375,2101.8984 Q835.9375,2101.2891 836.1719,2101.0234 Q836.4219,2100.7578 836.7969,2100.7578 Q837.1719,2100.7578 837.4063,2101.0234 Q837.6406,2101.2891 837.6406,2101.8984 L837.6406,2104.5234 L829.6406,2104.5234 Q829.0156,2104.5234 828.75,2104.2891 Q828.5,2104.0547 828.5,2103.6641 Q828.5,2103.2891 828.7656,2103.0547 Q829.0313,2102.8203 829.6406,2102.8203 L829.9063,2102.8203 L829.9063,2096.1641 L829.6406,2096.1641 Q829.0156,2096.1641 828.75,2095.9297 Q828.5,2095.6953 828.5,2095.3047 Q828.5,2094.9297 828.75,2094.6953 Q829.0156,2094.4609 829.6406,2094.4609 L837.2656,2094.4609 L837.2656,2097.0547 Q837.2656,2097.6641 837.0313,2097.9297 Q836.8125,2098.1797 836.4219,2098.1797 Q836.0469,2098.1797 835.8125,2097.9297 Q835.5781,2097.6641 835.5781,2097.0547 L835.5781,2096.1641 L831.6094,2096.1641 L831.6094,2098.6172 L833.0938,2098.6172 Q833.0938,2097.9609 833.2188,2097.7734 Q833.4844,2097.3672 833.9531,2097.3672 Q834.3281,2097.3672 834.5625,2097.6328 Q834.7969,2097.8828 834.7969,2098.4922 L834.7969,2100.4609 Q834.7969,2101.0078 834.6719,2101.1953 Q834.4063,2101.5859 833.9531,2101.5859 Q833.4844,2101.5859 833.2188,2101.1797 Q833.0938,2100.9922 833.0938,2100.3203 L831.6094,2100.3203 Z " fill="#000000"/><text fill="#000000" font-family="sans-serif" font-size="12" font-style="italic" lengthAdjust="spacing" textLength="46" x="873.25" y="2095.8633">&#171;enum&#187;</text><text fill="#000000" font-family="sans-serif" font-size="14" lengthAdjust="spacing" textLength="86" x="853.25" y="2111.0801">PropertyType</text><line style="stroke:#181818;stroke-width:0.5;" x1="775.5" x2="984.5" y1="2119.0469" y2="2119.0469"/><text fill="#000000" font-family="sans-serif" font-size="14" lengthAdjust="spacing" textLength="199" x="780.5" y="2135.7207">LAND + APARTMENT + HOUSE</text><text fill="#000000" font-family="sans-serif" font-size="14" lengthAdjust="spacing" textLength="69" x="780.5" y="2151.3613">description</text><line style="stroke:#181818;stroke-width:0.5;" x1="775.5" x2="984.5" y1="2158.3281" y2="2158.3281"/></g><!--class Location--><g id="elem_Location"><rect codeLine="91" fill="#F1F1F1" height="133.25" id="Location" rx="2.5" ry="2.5" style="stroke:#181818;stroke-width:0.5;" width="89" x="1020.5" y="2056.5"/><ellipse cx="1035.5" cy="2076.0234" fill="#B4A7E5" rx="11" ry="11" style="stroke:#181818;stroke-width:1.0;"/><path d="M1036.4531,2072.6641 L1036.4531,2079.3203 L1038.1719,2079.3203 Q1038.7813,2079.3203 1039.0469,2079.5547 Q1039.3125,2079.7891 1039.3125,2080.1797 Q1039.3125,2080.5547 1039.0469,2080.7891 Q1038.7813,2081.0234 1038.1719,2081.0234 L1033.0313,2081.0234 Q1032.4219,2081.0234 1032.1563,2080.7891 Q1031.8906,2080.5547 1031.8906,2080.1641 Q1031.8906,2079.7891 1032.1563,2079.5547 Q1032.4219,2079.3203 1033.0313,2079.3203 L1034.75,2079.3203 L1034.75,2072.6641 L1033.0313,2072.6641 Q1032.4219,2072.6641 1032.1563,2072.4297 Q1031.8906,2072.1953 1031.8906,2071.8047 Q1031.8906,2071.4297 1032.1563,2071.1953 Q1032.4219,2070.9609 1033.0313,2070.9609 L1038.1719,2070.9609 Q1038.7813,2070.9609 1039.0469,2071.1953 Q1039.3125,2071.4297 1039.3125,2071.8047 Q1039.3125,2072.1953 1039.0469,2072.4297 Q1038.7813,2072.6641 1038.1719,2072.6641 L1036.4531,2072.6641 Z " fill="#000000"/><text fill="#000000" font-family="sans-serif" font-size="12" font-style="italic" lengthAdjust="spacing" textLength="61" x="1047.5" y="2072.3633">&#171;interface&#187;</text><text fill="#000000" font-family="sans-serif" font-size="14" font-style="italic" lengthAdjust="spacing" textLength="54" x="1051" y="2087.5801">Location</text><line style="stroke:#181818;stroke-width:0.5;" x1="1021.5" x2="1108.5" y1="2095.5469" y2="2095.5469"/><text fill="#000000" font-family="sans-serif" font-size="14" lengthAdjust="spacing" textLength="41" x="1026.5" y="2112.2207">-street</text><text fill="#000000" font-family="sans-serif" font-size="14" lengthAdjust="spacing" textLength="56" x="1026.5" y="2127.8613">-zipCode</text><text fill="#000000" font-family="sans-serif" font-size="14" lengthAdjust="spacing" textLength="54" x="1026.5" y="2143.502">-stateUS</text><text fill="#000000" font-family="sans-serif" font-size="14" lengthAdjust="spacing" textLength="26" x="1026.5" y="2159.1426">-city</text><text fill="#000000" font-family="sans-serif" font-size="14" lengthAdjust="spacing" textLength="46" x="1026.5" y="2174.7832">-district</text><line style="stroke:#181818;stroke-width:0.5;" x1="1021.5" x2="1108.5" y1="2181.75" y2="2181.75"/></g><!--class RequestRepository--><g id="elem_RequestRepository"><rect codeLine="99" fill="#F1F1F1" height="63.6406" id="RequestRepository" rx="2.5" ry="2.5" style="stroke:#181818;stroke-width:0.5;" width="153" x="388.5" y="1241"/><ellipse cx="403.5" cy="1257" fill="#ADD1B2" rx="11" ry="11" style="stroke:#181818;stroke-width:1.0;"/><path d="M406.2656,1252.875 Q406.4219,1252.6563 406.6094,1252.5469 Q406.7969,1252.4375 407.0156,1252.4375 Q407.3906,1252.4375 407.625,1252.7031 Q407.8594,1252.9531 407.8594,1253.5625 L407.8594,1255.0156 Q407.8594,1255.625 407.625,1255.8906 Q407.3906,1256.1563 407.0156,1256.1563 Q406.6719,1256.1563 406.4688,1255.9531 Q406.2656,1255.7656 406.1563,1255.25 Q406.1094,1254.8906 405.9219,1254.7031 Q405.5938,1254.3281 404.9844,1254.1094 Q404.375,1253.8906 403.75,1253.8906 Q402.9844,1253.8906 402.3438,1254.2188 Q401.7188,1254.5469 401.2188,1255.2969 Q400.7344,1256.0469 400.7344,1257.0781 L400.7344,1258.1719 Q400.7344,1259.4063 401.625,1260.2344 Q402.5156,1261.0469 404.1094,1261.0469 Q405.0469,1261.0469 405.7031,1260.7969 Q406.0938,1260.6406 406.5156,1260.2031 Q406.7813,1259.9375 406.9219,1259.8594 Q407.0781,1259.7813 407.2813,1259.7813 Q407.6094,1259.7813 407.8594,1260.0469 Q408.125,1260.2969 408.125,1260.6406 Q408.125,1260.9844 407.7813,1261.3906 Q407.2813,1261.9688 406.4844,1262.2969 Q405.4063,1262.75 404.1094,1262.75 Q402.5938,1262.75 401.3906,1262.125 Q400.4063,1261.625 399.7188,1260.5625 Q399.0313,1259.4844 399.0313,1258.2031 L399.0313,1257.0469 Q399.0313,1255.7188 399.6406,1254.5781 Q400.2656,1253.4219 401.3594,1252.8125 Q402.4531,1252.1875 403.6875,1252.1875 Q404.4219,1252.1875 405.0625,1252.3594 Q405.7188,1252.5156 406.2656,1252.875 Z " fill="#000000"/><text fill="#000000" font-family="sans-serif" font-size="14" lengthAdjust="spacing" textLength="121" x="417.5" y="1261.8535">RequestRepository</text><line style="stroke:#181818;stroke-width:0.5;" x1="389.5" x2="540.5" y1="1273" y2="1273"/><line style="stroke:#181818;stroke-width:0.5;" x1="389.5" x2="540.5" y1="1281" y2="1281"/><text fill="#000000" font-family="sans-serif" font-size="14" lengthAdjust="spacing" textLength="113" x="394.5" y="1297.6738">+getRequestList()</text></g><!--class Request--><g id="elem_Request"><rect codeLine="102" fill="#F1F1F1" height="63.6406" id="Request" rx="2.5" ry="2.5" style="stroke:#181818;stroke-width:0.5;" width="85" x="480.5" y="1881"/><ellipse cx="495.5" cy="1897" fill="#ADD1B2" rx="11" ry="11" style="stroke:#181818;stroke-width:1.0;"/><path d="M498.2656,1892.875 Q498.4219,1892.6563 498.6094,1892.5469 Q498.7969,1892.4375 499.0156,1892.4375 Q499.3906,1892.4375 499.625,1892.7031 Q499.8594,1892.9531 499.8594,1893.5625 L499.8594,1895.0156 Q499.8594,1895.625 499.625,1895.8906 Q499.3906,1896.1563 499.0156,1896.1563 Q498.6719,1896.1563 498.4688,1895.9531 Q498.2656,1895.7656 498.1563,1895.25 Q498.1094,1894.8906 497.9219,1894.7031 Q497.5938,1894.3281 496.9844,1894.1094 Q496.375,1893.8906 495.75,1893.8906 Q494.9844,1893.8906 494.3438,1894.2188 Q493.7188,1894.5469 493.2188,1895.2969 Q492.7344,1896.0469 492.7344,1897.0781 L492.7344,1898.1719 Q492.7344,1899.4063 493.625,1900.2344 Q494.5156,1901.0469 496.1094,1901.0469 Q497.0469,1901.0469 497.7031,1900.7969 Q498.0938,1900.6406 498.5156,1900.2031 Q498.7813,1899.9375 498.9219,1899.8594 Q499.0781,1899.7813 499.2813,1899.7813 Q499.6094,1899.7813 499.8594,1900.0469 Q500.125,1900.2969 500.125,1900.6406 Q500.125,1900.9844 499.7813,1901.3906 Q499.2813,1901.9688 498.4844,1902.2969 Q497.4063,1902.75 496.1094,1902.75 Q494.5938,1902.75 493.3906,1902.125 Q492.4063,1901.625 491.7188,1900.5625 Q491.0313,1899.4844 491.0313,1898.2031 L491.0313,1897.0469 Q491.0313,1895.7188 491.6406,1894.5781 Q492.2656,1893.4219 493.3594,1892.8125 Q494.4531,1892.1875 495.6875,1892.1875 Q496.4219,1892.1875 497.0625,1892.3594 Q497.7188,1892.5156 498.2656,1892.875 Z " fill="#000000"/><text fill="#000000" font-family="sans-serif" font-size="14" lengthAdjust="spacing" textLength="53" x="509.5" y="1901.8535">Request</text><line style="stroke:#181818;stroke-width:0.5;" x1="481.5" x2="564.5" y1="1913" y2="1913"/><text fill="#000000" font-family="sans-serif" font-size="14" lengthAdjust="spacing" textLength="71" x="486.5" y="1929.6738">-Date date;</text><line style="stroke:#181818;stroke-width:0.5;" x1="481.5" x2="564.5" y1="1936.6406" y2="1936.6406"/></g><!--class BusinessType--><g id="elem_BusinessType"><rect codeLine="108" fill="#F1F1F1" height="86.3281" id="BusinessType" rx="2.5" ry="2.5" style="stroke:#181818;stroke-width:0.5;" width="161" x="358.5" y="2080"/><ellipse cx="391.5" cy="2099.5234" fill="#EB937F" rx="11" ry="11" style="stroke:#181818;stroke-width:1.0;"/><path d="M390.3594,2100.3203 L390.3594,2102.8203 L394.6875,2102.8203 L394.6875,2101.8984 Q394.6875,2101.2891 394.9219,2101.0234 Q395.1719,2100.7578 395.5469,2100.7578 Q395.9219,2100.7578 396.1563,2101.0234 Q396.3906,2101.2891 396.3906,2101.8984 L396.3906,2104.5234 L388.3906,2104.5234 Q387.7656,2104.5234 387.5,2104.2891 Q387.25,2104.0547 387.25,2103.6641 Q387.25,2103.2891 387.5156,2103.0547 Q387.7813,2102.8203 388.3906,2102.8203 L388.6563,2102.8203 L388.6563,2096.1641 L388.3906,2096.1641 Q387.7656,2096.1641 387.5,2095.9297 Q387.25,2095.6953 387.25,2095.3047 Q387.25,2094.9297 387.5,2094.6953 Q387.7656,2094.4609 388.3906,2094.4609 L396.0156,2094.4609 L396.0156,2097.0547 Q396.0156,2097.6641 395.7813,2097.9297 Q395.5625,2098.1797 395.1719,2098.1797 Q394.7969,2098.1797 394.5625,2097.9297 Q394.3281,2097.6641 394.3281,2097.0547 L394.3281,2096.1641 L390.3594,2096.1641 L390.3594,2098.6172 L391.8438,2098.6172 Q391.8438,2097.9609 391.9688,2097.7734 Q392.2344,2097.3672 392.7031,2097.3672 Q393.0781,2097.3672 393.3125,2097.6328 Q393.5469,2097.8828 393.5469,2098.4922 L393.5469,2100.4609 Q393.5469,2101.0078 393.4219,2101.1953 Q393.1563,2101.5859 392.7031,2101.5859 Q392.2344,2101.5859 391.9688,2101.1797 Q391.8438,2100.9922 391.8438,2100.3203 L390.3594,2100.3203 Z " fill="#000000"/><text fill="#000000" font-family="sans-serif" font-size="12" font-style="italic" lengthAdjust="spacing" textLength="46" x="431" y="2095.8633">&#171;enum&#187;</text><text fill="#000000" font-family="sans-serif" font-size="14" lengthAdjust="spacing" textLength="89" x="409.5" y="2111.0801">BusinessType</text><line style="stroke:#181818;stroke-width:0.5;" x1="359.5" x2="518.5" y1="2119.0469" y2="2119.0469"/><text fill="#000000" font-family="sans-serif" font-size="14" lengthAdjust="spacing" textLength="69" x="364.5" y="2135.7207">description</text><line style="stroke:#181818;stroke-width:0.5;" x1="359.5" x2="518.5" y1="2142.6875" y2="2142.6875"/><text fill="#000000" font-family="sans-serif" font-size="14" lengthAdjust="spacing" textLength="149" x="364.5" y="2159.3613">+getBusinessTypeList()</text></g><!--class BusinessTypeRent--><g id="elem_BusinessTypeRent"><rect codeLine="111" fill="#F1F1F1" height="79.2813" id="BusinessTypeRent" rx="2.5" ry="2.5" style="stroke:#181818;stroke-width:0.5;" width="151" x="271.5" y="2270"/><ellipse cx="286.5" cy="2286" fill="#ADD1B2" rx="11" ry="11" style="stroke:#181818;stroke-width:1.0;"/><path d="M289.2656,2281.875 Q289.4219,2281.6563 289.6094,2281.5469 Q289.7969,2281.4375 290.0156,2281.4375 Q290.3906,2281.4375 290.625,2281.7031 Q290.8594,2281.9531 290.8594,2282.5625 L290.8594,2284.0156 Q290.8594,2284.625 290.625,2284.8906 Q290.3906,2285.1563 290.0156,2285.1563 Q289.6719,2285.1563 289.4688,2284.9531 Q289.2656,2284.7656 289.1563,2284.25 Q289.1094,2283.8906 288.9219,2283.7031 Q288.5938,2283.3281 287.9844,2283.1094 Q287.375,2282.8906 286.75,2282.8906 Q285.9844,2282.8906 285.3438,2283.2188 Q284.7188,2283.5469 284.2188,2284.2969 Q283.7344,2285.0469 283.7344,2286.0781 L283.7344,2287.1719 Q283.7344,2288.4063 284.625,2289.2344 Q285.5156,2290.0469 287.1094,2290.0469 Q288.0469,2290.0469 288.7031,2289.7969 Q289.0938,2289.6406 289.5156,2289.2031 Q289.7813,2288.9375 289.9219,2288.8594 Q290.0781,2288.7813 290.2813,2288.7813 Q290.6094,2288.7813 290.8594,2289.0469 Q291.125,2289.2969 291.125,2289.6406 Q291.125,2289.9844 290.7813,2290.3906 Q290.2813,2290.9688 289.4844,2291.2969 Q288.4063,2291.75 287.1094,2291.75 Q285.5938,2291.75 284.3906,2291.125 Q283.4063,2290.625 282.7188,2289.5625 Q282.0313,2288.4844 282.0313,2287.2031 L282.0313,2286.0469 Q282.0313,2284.7188 282.6406,2283.5781 Q283.2656,2282.4219 284.3594,2281.8125 Q285.4531,2281.1875 286.6875,2281.1875 Q287.4219,2281.1875 288.0625,2281.3594 Q288.7188,2281.5156 289.2656,2281.875 Z " fill="#000000"/><text fill="#000000" font-family="sans-serif" font-size="14" lengthAdjust="spacing" textLength="119" x="300.5" y="2290.8535">BusinessTypeRent</text><line style="stroke:#181818;stroke-width:0.5;" x1="272.5" x2="421.5" y1="2302" y2="2302"/><text fill="#000000" font-family="sans-serif" font-size="14" lengthAdjust="spacing" textLength="120" x="277.5" y="2318.6738">-double:rentalPrice</text><text fill="#000000" font-family="sans-serif" font-size="14" lengthAdjust="spacing" textLength="130" x="277.5" y="2334.3145">-int:durationContract</text><line style="stroke:#181818;stroke-width:0.5;" x1="272.5" x2="421.5" y1="2341.2813" y2="2341.2813"/></g><!--class BusinessTypeSale--><g id="elem_BusinessTypeSale"><rect codeLine="115" fill="#F1F1F1" height="63.6406" id="BusinessTypeSale" rx="2.5" ry="2.5" style="stroke:#181818;stroke-width:0.5;" width="149" x="457.5" y="2277.5"/><ellipse cx="472.5" cy="2293.5" fill="#ADD1B2" rx="11" ry="11" style="stroke:#181818;stroke-width:1.0;"/><path d="M475.2656,2289.375 Q475.4219,2289.1563 475.6094,2289.0469 Q475.7969,2288.9375 476.0156,2288.9375 Q476.3906,2288.9375 476.625,2289.2031 Q476.8594,2289.4531 476.8594,2290.0625 L476.8594,2291.5156 Q476.8594,2292.125 476.625,2292.3906 Q476.3906,2292.6563 476.0156,2292.6563 Q475.6719,2292.6563 475.4688,2292.4531 Q475.2656,2292.2656 475.1563,2291.75 Q475.1094,2291.3906 474.9219,2291.2031 Q474.5938,2290.8281 473.9844,2290.6094 Q473.375,2290.3906 472.75,2290.3906 Q471.9844,2290.3906 471.3438,2290.7188 Q470.7188,2291.0469 470.2188,2291.7969 Q469.7344,2292.5469 469.7344,2293.5781 L469.7344,2294.6719 Q469.7344,2295.9063 470.625,2296.7344 Q471.5156,2297.5469 473.1094,2297.5469 Q474.0469,2297.5469 474.7031,2297.2969 Q475.0938,2297.1406 475.5156,2296.7031 Q475.7813,2296.4375 475.9219,2296.3594 Q476.0781,2296.2813 476.2813,2296.2813 Q476.6094,2296.2813 476.8594,2296.5469 Q477.125,2296.7969 477.125,2297.1406 Q477.125,2297.4844 476.7813,2297.8906 Q476.2813,2298.4688 475.4844,2298.7969 Q474.4063,2299.25 473.1094,2299.25 Q471.5938,2299.25 470.3906,2298.625 Q469.4063,2298.125 468.7188,2297.0625 Q468.0313,2295.9844 468.0313,2294.7031 L468.0313,2293.5469 Q468.0313,2292.2188 468.6406,2291.0781 Q469.2656,2289.9219 470.3594,2289.3125 Q471.4531,2288.6875 472.6875,2288.6875 Q473.4219,2288.6875 474.0625,2288.8594 Q474.7188,2289.0156 475.2656,2289.375 Z " fill="#000000"/><text fill="#000000" font-family="sans-serif" font-size="14" lengthAdjust="spacing" textLength="117" x="486.5" y="2298.3535">BusinessTypeSale</text><line style="stroke:#181818;stroke-width:0.5;" x1="458.5" x2="605.5" y1="2309.5" y2="2309.5"/><text fill="#000000" font-family="sans-serif" font-size="14" lengthAdjust="spacing" textLength="110" x="463.5" y="2326.1738">-double:salePrice</text><line style="stroke:#181818;stroke-width:0.5;" x1="458.5" x2="605.5" y1="2333.1406" y2="2333.1406"/></g><!--class AdvertisementRepository--><g id="elem_AdvertisementRepository"><rect codeLine="119" fill="#F1F1F1" height="63.6406" id="AdvertisementRepository" rx="2.5" ry="2.5" style="stroke:#181818;stroke-width:0.5;" width="190" x="574" y="944"/><ellipse cx="589" cy="960" fill="#ADD1B2" rx="11" ry="11" style="stroke:#181818;stroke-width:1.0;"/><path d="M591.7656,955.875 Q591.9219,955.6563 592.1094,955.5469 Q592.2969,955.4375 592.5156,955.4375 Q592.8906,955.4375 593.125,955.7031 Q593.3594,955.9531 593.3594,956.5625 L593.3594,958.0156 Q593.3594,958.625 593.125,958.8906 Q592.8906,959.1563 592.5156,959.1563 Q592.1719,959.1563 591.9688,958.9531 Q591.7656,958.7656 591.6563,958.25 Q591.6094,957.8906 591.4219,957.7031 Q591.0938,957.3281 590.4844,957.1094 Q589.875,956.8906 589.25,956.8906 Q588.4844,956.8906 587.8438,957.2188 Q587.2188,957.5469 586.7188,958.2969 Q586.2344,959.0469 586.2344,960.0781 L586.2344,961.1719 Q586.2344,962.4063 587.125,963.2344 Q588.0156,964.0469 589.6094,964.0469 Q590.5469,964.0469 591.2031,963.7969 Q591.5938,963.6406 592.0156,963.2031 Q592.2813,962.9375 592.4219,962.8594 Q592.5781,962.7813 592.7813,962.7813 Q593.1094,962.7813 593.3594,963.0469 Q593.625,963.2969 593.625,963.6406 Q593.625,963.9844 593.2813,964.3906 Q592.7813,964.9688 591.9844,965.2969 Q590.9063,965.75 589.6094,965.75 Q588.0938,965.75 586.8906,965.125 Q585.9063,964.625 585.2188,963.5625 Q584.5313,962.4844 584.5313,961.2031 L584.5313,960.0469 Q584.5313,958.7188 585.1406,957.5781 Q585.7656,956.4219 586.8594,955.8125 Q587.9531,955.1875 589.1875,955.1875 Q589.9219,955.1875 590.5625,955.3594 Q591.2188,955.5156 591.7656,955.875 Z " fill="#000000"/><text fill="#000000" font-family="sans-serif" font-size="14" lengthAdjust="spacing" textLength="158" x="603" y="964.8535">AdvertisementRepository</text><line style="stroke:#181818;stroke-width:0.5;" x1="575" x2="763" y1="976" y2="976"/><line style="stroke:#181818;stroke-width:0.5;" x1="575" x2="763" y1="984" y2="984"/><text fill="#000000" font-family="sans-serif" font-size="14" lengthAdjust="spacing" textLength="150" x="580" y="1000.6738">+getAdvertisementList()</text></g><!--class Advertisement--><g id="elem_Advertisement"><rect codeLine="122" fill="#F1F1F1" height="439.0156" id="Advertisement" rx="2.5" ry="2.5" style="stroke:#181818;stroke-width:0.5;" width="234" x="477" y="1335"/><ellipse cx="544.75" cy="1351" fill="#ADD1B2" rx="11" ry="11" style="stroke:#181818;stroke-width:1.0;"/><path d="M547.5156,1346.875 Q547.6719,1346.6563 547.8594,1346.5469 Q548.0469,1346.4375 548.2656,1346.4375 Q548.6406,1346.4375 548.875,1346.7031 Q549.1094,1346.9531 549.1094,1347.5625 L549.1094,1349.0156 Q549.1094,1349.625 548.875,1349.8906 Q548.6406,1350.1563 548.2656,1350.1563 Q547.9219,1350.1563 547.7188,1349.9531 Q547.5156,1349.7656 547.4063,1349.25 Q547.3594,1348.8906 547.1719,1348.7031 Q546.8438,1348.3281 546.2344,1348.1094 Q545.625,1347.8906 545,1347.8906 Q544.2344,1347.8906 543.5938,1348.2188 Q542.9688,1348.5469 542.4688,1349.2969 Q541.9844,1350.0469 541.9844,1351.0781 L541.9844,1352.1719 Q541.9844,1353.4063 542.875,1354.2344 Q543.7656,1355.0469 545.3594,1355.0469 Q546.2969,1355.0469 546.9531,1354.7969 Q547.3438,1354.6406 547.7656,1354.2031 Q548.0313,1353.9375 548.1719,1353.8594 Q548.3281,1353.7813 548.5313,1353.7813 Q548.8594,1353.7813 549.1094,1354.0469 Q549.375,1354.2969 549.375,1354.6406 Q549.375,1354.9844 549.0313,1355.3906 Q548.5313,1355.9688 547.7344,1356.2969 Q546.6563,1356.75 545.3594,1356.75 Q543.8438,1356.75 542.6406,1356.125 Q541.6563,1355.625 540.9688,1354.5625 Q540.2813,1353.4844 540.2813,1352.2031 L540.2813,1351.0469 Q540.2813,1349.7188 540.8906,1348.5781 Q541.5156,1347.4219 542.6094,1346.8125 Q543.7031,1346.1875 544.9375,1346.1875 Q545.6719,1346.1875 546.3125,1346.3594 Q546.9688,1346.5156 547.5156,1346.875 Z " fill="#000000"/><text fill="#000000" font-family="sans-serif" font-size="14" lengthAdjust="spacing" textLength="90" x="565.25" y="1355.8535">Advertisement</text><line style="stroke:#181818;stroke-width:0.5;" x1="478" x2="710" y1="1367" y2="1367"/><text fill="#000000" font-family="sans-serif" font-size="14" lengthAdjust="spacing" textLength="150" x="483" y="1383.6738">-Request keepRequest;</text><text fill="#000000" font-family="sans-serif" font-size="14" lengthAdjust="spacing" textLength="216" x="483" y="1399.3145">-PropertyType keepPropertyType;</text><text fill="#000000" font-family="sans-serif" font-size="14" lengthAdjust="spacing" textLength="222" x="483" y="1414.9551">-BusinessType keepBusinessType;</text><text fill="#000000" font-family="sans-serif" font-size="14" lengthAdjust="spacing" textLength="152" x="483" y="1430.5957">-Property keepProperty;</text><text fill="#000000" font-family="sans-serif" font-size="14" lengthAdjust="spacing" textLength="85" x="483" y="1446.2363">-double area;</text><text fill="#000000" font-family="sans-serif" font-size="14" lengthAdjust="spacing" textLength="109" x="483" y="1461.877">-double distance;</text><text fill="#000000" font-family="sans-serif" font-size="14" lengthAdjust="spacing" textLength="136" x="483" y="1477.5176">-int numberBedrooms</text><text fill="#000000" font-family="sans-serif" font-size="14" lengthAdjust="spacing" textLength="120" x="483" y="1493.1582">-int numberParking</text><text fill="#000000" font-family="sans-serif" font-size="14" lengthAdjust="spacing" textLength="140" x="483" y="1508.7988">-int numberBathrooms</text><text fill="#000000" font-family="sans-serif" font-size="14" lengthAdjust="spacing" textLength="169" x="483" y="1524.4395">-String availableEquipment</text><text fill="#000000" font-family="sans-serif" font-size="14" lengthAdjust="spacing" textLength="122" x="483" y="1540.0801">-boolean basement</text><text fill="#000000" font-family="sans-serif" font-size="14" lengthAdjust="spacing" textLength="79" x="483" y="1555.7207">-boolean loft</text><text fill="#000000" font-family="sans-serif" font-size="14" lengthAdjust="spacing" textLength="116" x="483" y="1571.3613">-SunExposure sun</text><text fill="#000000" font-family="sans-serif" font-size="14" lengthAdjust="spacing" textLength="82" x="483" y="1587.002">-String street</text><text fill="#000000" font-family="sans-serif" font-size="14" lengthAdjust="spacing" textLength="63" x="483" y="1602.6426">-String zip</text><text fill="#000000" font-family="sans-serif" font-size="14" lengthAdjust="spacing" textLength="77" x="483" y="1618.2832">-String state</text><text fill="#000000" font-family="sans-serif" font-size="14" lengthAdjust="spacing" textLength="67" x="483" y="1633.9238">-String city</text><text fill="#000000" font-family="sans-serif" font-size="14" lengthAdjust="spacing" textLength="87" x="483" y="1649.5645">-String district</text><text fill="#000000" font-family="sans-serif" font-size="14" lengthAdjust="spacing" textLength="164" x="483" y="1665.2051">-List&lt;String&gt; photographs</text><text fill="#000000" font-family="sans-serif" font-size="14" lengthAdjust="spacing" textLength="110" x="483" y="1680.8457">-double salePrice</text><text fill="#000000" font-family="sans-serif" font-size="14" lengthAdjust="spacing" textLength="109" x="483" y="1696.4863">-double rentPrice</text><text fill="#000000" font-family="sans-serif" font-size="14" lengthAdjust="spacing" textLength="152" x="483" y="1712.127">-int duractionOfContract</text><text fill="#000000" font-family="sans-serif" font-size="14" lengthAdjust="spacing" textLength="71" x="483" y="1727.7676">-Date date;</text><text fill="#000000" font-family="sans-serif" font-size="14" lengthAdjust="spacing" textLength="57" x="483" y="1743.4082">-List Visit</text><text fill="#000000" font-family="sans-serif" font-size="14" lengthAdjust="spacing" textLength="63" x="483" y="1759.0488">-List Offer</text><line style="stroke:#181818;stroke-width:0.5;" x1="478" x2="710" y1="1766.0156" y2="1766.0156"/></g><!--class AdvertisementMapper--><g id="elem_AdvertisementMapper"><rect codeLine="149" fill="#F1F1F1" height="79.2813" id="AdvertisementMapper" rx="2.5" ry="2.5" style="stroke:#181818;stroke-width:0.5;" width="289" x="682.5" y="1132"/><ellipse cx="753.75" cy="1148" fill="#ADD1B2" rx="11" ry="11" style="stroke:#181818;stroke-width:1.0;"/><path d="M756.5156,1143.875 Q756.6719,1143.6563 756.8594,1143.5469 Q757.0469,1143.4375 757.2656,1143.4375 Q757.6406,1143.4375 757.875,1143.7031 Q758.1094,1143.9531 758.1094,1144.5625 L758.1094,1146.0156 Q758.1094,1146.625 757.875,1146.8906 Q757.6406,1147.1563 757.2656,1147.1563 Q756.9219,1147.1563 756.7188,1146.9531 Q756.5156,1146.7656 756.4063,1146.25 Q756.3594,1145.8906 756.1719,1145.7031 Q755.8438,1145.3281 755.2344,1145.1094 Q754.625,1144.8906 754,1144.8906 Q753.2344,1144.8906 752.5938,1145.2188 Q751.9688,1145.5469 751.4688,1146.2969 Q750.9844,1147.0469 750.9844,1148.0781 L750.9844,1149.1719 Q750.9844,1150.4063 751.875,1151.2344 Q752.7656,1152.0469 754.3594,1152.0469 Q755.2969,1152.0469 755.9531,1151.7969 Q756.3438,1151.6406 756.7656,1151.2031 Q757.0313,1150.9375 757.1719,1150.8594 Q757.3281,1150.7813 757.5313,1150.7813 Q757.8594,1150.7813 758.1094,1151.0469 Q758.375,1151.2969 758.375,1151.6406 Q758.375,1151.9844 758.0313,1152.3906 Q757.5313,1152.9688 756.7344,1153.2969 Q755.6563,1153.75 754.3594,1153.75 Q752.8438,1153.75 751.6406,1153.125 Q750.6563,1152.625 749.9688,1151.5625 Q749.2813,1150.4844 749.2813,1149.2031 L749.2813,1148.0469 Q749.2813,1146.7188 749.8906,1145.5781 Q750.5156,1144.4219 751.6094,1143.8125 Q752.7031,1143.1875 753.9375,1143.1875 Q754.6719,1143.1875 755.3125,1143.3594 Q755.9688,1143.5156 756.5156,1143.875 Z " fill="#000000"/><text fill="#000000" font-family="sans-serif" font-size="14" lengthAdjust="spacing" textLength="138" x="774.25" y="1152.8535">AdvertisementMapper</text><line style="stroke:#181818;stroke-width:0.5;" x1="683.5" x2="970.5" y1="1164" y2="1164"/><line style="stroke:#181818;stroke-width:0.5;" x1="683.5" x2="970.5" y1="1172" y2="1172"/><text fill="#000000" font-family="sans-serif" font-size="14" lengthAdjust="spacing" textLength="170" x="688.5" y="1188.6738">+toDTO(Advertisement ad)</text><text fill="#000000" font-family="sans-serif" font-size="14" lengthAdjust="spacing" textLength="277" x="688.5" y="1204.3145">+fromDTOtoAD(AdvertisementDTO adDTO)</text></g><!--class AdvertisementDTO--><g id="elem_AdvertisementDTO"><rect codeLine="153" fill="#F1F1F1" height="376.4531" id="AdvertisementDTO" rx="2.5" ry="2.5" style="stroke:#181818;stroke-width:0.5;" width="237" x="746.5" y="1366.5"/><ellipse cx="800.75" cy="1382.5" fill="#ADD1B2" rx="11" ry="11" style="stroke:#181818;stroke-width:1.0;"/><path d="M803.5156,1378.375 Q803.6719,1378.1563 803.8594,1378.0469 Q804.0469,1377.9375 804.2656,1377.9375 Q804.6406,1377.9375 804.875,1378.2031 Q805.1094,1378.4531 805.1094,1379.0625 L805.1094,1380.5156 Q805.1094,1381.125 804.875,1381.3906 Q804.6406,1381.6563 804.2656,1381.6563 Q803.9219,1381.6563 803.7188,1381.4531 Q803.5156,1381.2656 803.4063,1380.75 Q803.3594,1380.3906 803.1719,1380.2031 Q802.8438,1379.8281 802.2344,1379.6094 Q801.625,1379.3906 801,1379.3906 Q800.2344,1379.3906 799.5938,1379.7188 Q798.9688,1380.0469 798.4688,1380.7969 Q797.9844,1381.5469 797.9844,1382.5781 L797.9844,1383.6719 Q797.9844,1384.9063 798.875,1385.7344 Q799.7656,1386.5469 801.3594,1386.5469 Q802.2969,1386.5469 802.9531,1386.2969 Q803.3438,1386.1406 803.7656,1385.7031 Q804.0313,1385.4375 804.1719,1385.3594 Q804.3281,1385.2813 804.5313,1385.2813 Q804.8594,1385.2813 805.1094,1385.5469 Q805.375,1385.7969 805.375,1386.1406 Q805.375,1386.4844 805.0313,1386.8906 Q804.5313,1387.4688 803.7344,1387.7969 Q802.6563,1388.25 801.3594,1388.25 Q799.8438,1388.25 798.6406,1387.625 Q797.6563,1387.125 796.9688,1386.0625 Q796.2813,1384.9844 796.2813,1383.7031 L796.2813,1382.5469 Q796.2813,1381.2188 796.8906,1380.0781 Q797.5156,1378.9219 798.6094,1378.3125 Q799.7031,1377.6875 800.9375,1377.6875 Q801.6719,1377.6875 802.3125,1377.8594 Q802.9688,1378.0156 803.5156,1378.375 Z " fill="#000000"/><text fill="#000000" font-family="sans-serif" font-size="14" lengthAdjust="spacing" textLength="120" x="821.25" y="1387.3535">AdvertisementDTO</text><line style="stroke:#181818;stroke-width:0.5;" x1="747.5" x2="982.5" y1="1398.5" y2="1398.5"/><text fill="#000000" font-family="sans-serif" font-size="14" lengthAdjust="spacing" textLength="120" x="752.5" y="1415.1738">+double keepArea;</text><text fill="#000000" font-family="sans-serif" font-size="14" lengthAdjust="spacing" textLength="143" x="752.5" y="1430.8145">+double keepdistance;</text><text fill="#000000" font-family="sans-serif" font-size="14" lengthAdjust="spacing" textLength="219" x="752.5" y="1446.4551">+PropertyType keepPropertyType;</text><text fill="#000000" font-family="sans-serif" font-size="14" lengthAdjust="spacing" textLength="225" x="752.5" y="1462.0957">+BusinessType keepBusinessType;</text><text fill="#000000" font-family="sans-serif" font-size="14" lengthAdjust="spacing" textLength="175" x="752.5" y="1477.7363">+int keepNumberBedrooms;</text><text fill="#000000" font-family="sans-serif" font-size="14" lengthAdjust="spacing" textLength="131" x="752.5" y="1493.377">+int numberParking ;</text><text fill="#000000" font-family="sans-serif" font-size="14" lengthAdjust="spacing" textLength="151" x="752.5" y="1509.0176">+int numberBathrooms ;</text><text fill="#000000" font-family="sans-serif" font-size="14" lengthAdjust="spacing" textLength="180" x="752.5" y="1524.6582">+String availableEquipment ;</text><text fill="#000000" font-family="sans-serif" font-size="14" lengthAdjust="spacing" textLength="134" x="752.5" y="1540.2988">+Boolean basement ;</text><text fill="#000000" font-family="sans-serif" font-size="14" lengthAdjust="spacing" textLength="91" x="752.5" y="1555.9395">+Boolean loft ;</text><text fill="#000000" font-family="sans-serif" font-size="14" lengthAdjust="spacing" textLength="127" x="752.5" y="1571.5801">+SunExposure sun ;</text><text fill="#000000" font-family="sans-serif" font-size="14" lengthAdjust="spacing" textLength="122" x="752.5" y="1587.2207">+String keepStreet;</text><text fill="#000000" font-family="sans-serif" font-size="14" lengthAdjust="spacing" textLength="103" x="752.5" y="1602.8613">+String keepZip;</text><text fill="#000000" font-family="sans-serif" font-size="14" lengthAdjust="spacing" textLength="117" x="752.5" y="1618.502">+String keepState;</text><text fill="#000000" font-family="sans-serif" font-size="14" lengthAdjust="spacing" textLength="108" x="752.5" y="1634.1426">+String keepCity;</text><text fill="#000000" font-family="sans-serif" font-size="14" lengthAdjust="spacing" textLength="127" x="752.5" y="1649.7832">+String keepDistrict;</text><text fill="#000000" font-family="sans-serif" font-size="14" lengthAdjust="spacing" textLength="203" x="752.5" y="1665.4238">+List&lt;String&gt; keepPhotographs;</text><text fill="#000000" font-family="sans-serif" font-size="14" lengthAdjust="spacing" textLength="150" x="752.5" y="1681.0645">+double keepSalePrice;</text><text fill="#000000" font-family="sans-serif" font-size="14" lengthAdjust="spacing" textLength="152" x="752.5" y="1696.7051">+double keepRentPrice;</text><text fill="#000000" font-family="sans-serif" font-size="14" lengthAdjust="spacing" textLength="185" x="752.5" y="1712.3457">+int keepDurationOfContract;</text><text fill="#000000" font-family="sans-serif" font-size="14" lengthAdjust="spacing" textLength="107" x="752.5" y="1727.9863">+Date keepDate;</text><line style="stroke:#181818;stroke-width:0.5;" x1="747.5" x2="982.5" y1="1734.9531" y2="1734.9531"/></g><!--class AdvertisementCollections--><g id="elem_AdvertisementCollections"><rect codeLine="177" fill="#F1F1F1" height="141.8438" id="AdvertisementCollections" rx="2.5" ry="2.5" style="stroke:#181818;stroke-width:0.5;" width="421" x="643.5" y="569"/><ellipse cx="770.25" cy="585" fill="#ADD1B2" rx="11" ry="11" style="stroke:#181818;stroke-width:1.0;"/><path d="M773.0156,580.875 Q773.1719,580.6563 773.3594,580.5469 Q773.5469,580.4375 773.7656,580.4375 Q774.1406,580.4375 774.375,580.7031 Q774.6094,580.9531 774.6094,581.5625 L774.6094,583.0156 Q774.6094,583.625 774.375,583.8906 Q774.1406,584.1563 773.7656,584.1563 Q773.4219,584.1563 773.2188,583.9531 Q773.0156,583.7656 772.9063,583.25 Q772.8594,582.8906 772.6719,582.7031 Q772.3438,582.3281 771.7344,582.1094 Q771.125,581.8906 770.5,581.8906 Q769.7344,581.8906 769.0938,582.2188 Q768.4688,582.5469 767.9688,583.2969 Q767.4844,584.0469 767.4844,585.0781 L767.4844,586.1719 Q767.4844,587.4063 768.375,588.2344 Q769.2656,589.0469 770.8594,589.0469 Q771.7969,589.0469 772.4531,588.7969 Q772.8438,588.6406 773.2656,588.2031 Q773.5313,587.9375 773.6719,587.8594 Q773.8281,587.7813 774.0313,587.7813 Q774.3594,587.7813 774.6094,588.0469 Q774.875,588.2969 774.875,588.6406 Q774.875,588.9844 774.5313,589.3906 Q774.0313,589.9688 773.2344,590.2969 Q772.1563,590.75 770.8594,590.75 Q769.3438,590.75 768.1406,590.125 Q767.1563,589.625 766.4688,588.5625 Q765.7813,587.4844 765.7813,586.2031 L765.7813,585.0469 Q765.7813,583.7188 766.3906,582.5781 Q767.0156,581.4219 768.1094,580.8125 Q769.2031,580.1875 770.4375,580.1875 Q771.1719,580.1875 771.8125,580.3594 Q772.4688,580.5156 773.0156,580.875 Z " fill="#000000"/><text fill="#000000" font-family="sans-serif" font-size="14" lengthAdjust="spacing" textLength="159" x="790.75" y="589.8535">AdvertisementCollections</text><line style="stroke:#181818;stroke-width:0.5;" x1="644.5" x2="1063.5" y1="601" y2="601"/><line style="stroke:#181818;stroke-width:0.5;" x1="644.5" x2="1063.5" y1="609" y2="609"/><text fill="#000000" font-family="sans-serif" font-size="14" lengthAdjust="spacing" textLength="204" x="649.5" y="625.6738">+getAdvertismentDTOListSorted</text><text fill="#000000" font-family="sans-serif" font-size="14" lengthAdjust="spacing" textLength="275" x="649.5" y="641.3145">(propertyTypeChoice,businessTypeChoice)</text><text fill="#000000" font-family="sans-serif" font-size="14" lengthAdjust="spacing" textLength="409" x="649.5" y="656.9551">+createNewAdvertAllInformationList(adsList, propertyTypeChoice</text><text fill="#000000" font-family="sans-serif" font-size="14" lengthAdjust="spacing" textLength="145" x="649.5" y="672.5957">, businessTypeChoice)</text><text fill="#000000" font-family="sans-serif" font-size="14" lengthAdjust="spacing" textLength="224" x="649.5" y="688.2363">+sortAdVisitListByDate(adsVisitList)</text><text fill="#000000" font-family="sans-serif" font-size="14" lengthAdjust="spacing" textLength="276" x="649.5" y="703.877">+getVerifyVisitTimeFree(adchoiceVisit, visit)</text></g><!--class Visit--><g id="elem_Visit"><rect codeLine="184" fill="#F1F1F1" height="126.2031" id="Visit" rx="2.5" ry="2.5" style="stroke:#181818;stroke-width:0.5;" width="125" x="132.5" y="1850"/><ellipse cx="177.75" cy="1866" fill="#ADD1B2" rx="11" ry="11" style="stroke:#181818;stroke-width:1.0;"/><path d="M180.5156,1861.875 Q180.6719,1861.6563 180.8594,1861.5469 Q181.0469,1861.4375 181.2656,1861.4375 Q181.6406,1861.4375 181.875,1861.7031 Q182.1094,1861.9531 182.1094,1862.5625 L182.1094,1864.0156 Q182.1094,1864.625 181.875,1864.8906 Q181.6406,1865.1563 181.2656,1865.1563 Q180.9219,1865.1563 180.7188,1864.9531 Q180.5156,1864.7656 180.4063,1864.25 Q180.3594,1863.8906 180.1719,1863.7031 Q179.8438,1863.3281 179.2344,1863.1094 Q178.625,1862.8906 178,1862.8906 Q177.2344,1862.8906 176.5938,1863.2188 Q175.9688,1863.5469 175.4688,1864.2969 Q174.9844,1865.0469 174.9844,1866.0781 L174.9844,1867.1719 Q174.9844,1868.4063 175.875,1869.2344 Q176.7656,1870.0469 178.3594,1870.0469 Q179.2969,1870.0469 179.9531,1869.7969 Q180.3438,1869.6406 180.7656,1869.2031 Q181.0313,1868.9375 181.1719,1868.8594 Q181.3281,1868.7813 181.5313,1868.7813 Q181.8594,1868.7813 182.1094,1869.0469 Q182.375,1869.2969 182.375,1869.6406 Q182.375,1869.9844 182.0313,1870.3906 Q181.5313,1870.9688 180.7344,1871.2969 Q179.6563,1871.75 178.3594,1871.75 Q176.8438,1871.75 175.6406,1871.125 Q174.6563,1870.625 173.9688,1869.5625 Q173.2813,1868.4844 173.2813,1867.2031 L173.2813,1866.0469 Q173.2813,1864.7188 173.8906,1863.5781 Q174.5156,1862.4219 175.6094,1861.8125 Q176.7031,1861.1875 177.9375,1861.1875 Q178.6719,1861.1875 179.3125,1861.3594 Q179.9688,1861.5156 180.5156,1861.875 Z " fill="#000000"/><text fill="#000000" font-family="sans-serif" font-size="14" lengthAdjust="spacing" textLength="26" x="198.25" y="1870.8535">Visit</text><line style="stroke:#181818;stroke-width:0.5;" x1="133.5" x2="256.5" y1="1882" y2="1882"/><text fill="#000000" font-family="sans-serif" font-size="14" lengthAdjust="spacing" textLength="52" x="138.5" y="1898.6738">-int year</text><text fill="#000000" font-family="sans-serif" font-size="14" lengthAdjust="spacing" textLength="63" x="138.5" y="1914.3145">-int Month</text><text fill="#000000" font-family="sans-serif" font-size="14" lengthAdjust="spacing" textLength="49" x="138.5" y="1929.9551">-int Day</text><text fill="#000000" font-family="sans-serif" font-size="14" lengthAdjust="spacing" textLength="54" x="138.5" y="1945.5957">-int Hour</text><text fill="#000000" font-family="sans-serif" font-size="14" lengthAdjust="spacing" textLength="113" x="138.5" y="1961.2363">-String clientEmail</text><line style="stroke:#181818;stroke-width:0.5;" x1="133.5" x2="256.5" y1="1968.2031" y2="1968.2031"/></g><!--class SunExposureRepository--><g id="elem_SunExposureRepository"><rect fill="#F1F1F1" height="48" id="SunExposureRepository" rx="2.5" ry="2.5" style="stroke:#181818;stroke-width:0.5;" width="184" x="59" y="952"/><ellipse cx="74" cy="968" fill="#ADD1B2" rx="11" ry="11" style="stroke:#181818;stroke-width:1.0;"/><path d="M76.7656,963.875 Q76.9219,963.6563 77.1094,963.5469 Q77.2969,963.4375 77.5156,963.4375 Q77.8906,963.4375 78.125,963.7031 Q78.3594,963.9531 78.3594,964.5625 L78.3594,966.0156 Q78.3594,966.625 78.125,966.8906 Q77.8906,967.1563 77.5156,967.1563 Q77.1719,967.1563 76.9688,966.9531 Q76.7656,966.7656 76.6563,966.25 Q76.6094,965.8906 76.4219,965.7031 Q76.0938,965.3281 75.4844,965.1094 Q74.875,964.8906 74.25,964.8906 Q73.4844,964.8906 72.8438,965.2188 Q72.2188,965.5469 71.7188,966.2969 Q71.2344,967.0469 71.2344,968.0781 L71.2344,969.1719 Q71.2344,970.4063 72.125,971.2344 Q73.0156,972.0469 74.6094,972.0469 Q75.5469,972.0469 76.2031,971.7969 Q76.5938,971.6406 77.0156,971.2031 Q77.2813,970.9375 77.4219,970.8594 Q77.5781,970.7813 77.7813,970.7813 Q78.1094,970.7813 78.3594,971.0469 Q78.625,971.2969 78.625,971.6406 Q78.625,971.9844 78.2813,972.3906 Q77.7813,972.9688 76.9844,973.2969 Q75.9063,973.75 74.6094,973.75 Q73.0938,973.75 71.8906,973.125 Q70.9063,972.625 70.2188,971.5625 Q69.5313,970.4844 69.5313,969.2031 L69.5313,968.0469 Q69.5313,966.7188 70.1406,965.5781 Q70.7656,964.4219 71.8594,963.8125 Q72.9531,963.1875 74.1875,963.1875 Q74.9219,963.1875 75.5625,963.3594 Q76.2188,963.5156 76.7656,963.875 Z " fill="#000000"/><text fill="#000000" font-family="sans-serif" font-size="14" lengthAdjust="spacing" textLength="152" x="88" y="972.8535">SunExposureRepository</text><line style="stroke:#181818;stroke-width:0.5;" x1="60" x2="242" y1="984" y2="984"/><line style="stroke:#181818;stroke-width:0.5;" x1="60" x2="242" y1="992" y2="992"/></g><!--class BusinessTypeRepository--><g id="elem_BusinessTypeRepository"><rect fill="#F1F1F1" height="48" id="BusinessTypeRepository" rx="2.5" ry="2.5" style="stroke:#181818;stroke-width:0.5;" width="189" x="278.5" y="952"/><ellipse cx="293.5" cy="968" fill="#ADD1B2" rx="11" ry="11" style="stroke:#181818;stroke-width:1.0;"/><path d="M296.2656,963.875 Q296.4219,963.6563 296.6094,963.5469 Q296.7969,963.4375 297.0156,963.4375 Q297.3906,963.4375 297.625,963.7031 Q297.8594,963.9531 297.8594,964.5625 L297.8594,966.0156 Q297.8594,966.625 297.625,966.8906 Q297.3906,967.1563 297.0156,967.1563 Q296.6719,967.1563 296.4688,966.9531 Q296.2656,966.7656 296.1563,966.25 Q296.1094,965.8906 295.9219,965.7031 Q295.5938,965.3281 294.9844,965.1094 Q294.375,964.8906 293.75,964.8906 Q292.9844,964.8906 292.3438,965.2188 Q291.7188,965.5469 291.2188,966.2969 Q290.7344,967.0469 290.7344,968.0781 L290.7344,969.1719 Q290.7344,970.4063 291.625,971.2344 Q292.5156,972.0469 294.1094,972.0469 Q295.0469,972.0469 295.7031,971.7969 Q296.0938,971.6406 296.5156,971.2031 Q296.7813,970.9375 296.9219,970.8594 Q297.0781,970.7813 297.2813,970.7813 Q297.6094,970.7813 297.8594,971.0469 Q298.125,971.2969 298.125,971.6406 Q298.125,971.9844 297.7813,972.3906 Q297.2813,972.9688 296.4844,973.2969 Q295.4063,973.75 294.1094,973.75 Q292.5938,973.75 291.3906,973.125 Q290.4063,972.625 289.7188,971.5625 Q289.0313,970.4844 289.0313,969.2031 L289.0313,968.0469 Q289.0313,966.7188 289.6406,965.5781 Q290.2656,964.4219 291.3594,963.8125 Q292.4531,963.1875 293.6875,963.1875 Q294.4219,963.1875 295.0625,963.3594 Q295.7188,963.5156 296.2656,963.875 Z " fill="#000000"/><text fill="#000000" font-family="sans-serif" font-size="14" lengthAdjust="spacing" textLength="157" x="307.5" y="972.8535">BusinessTypeRepository</text><line style="stroke:#181818;stroke-width:0.5;" x1="279.5" x2="466.5" y1="984" y2="984"/><line style="stroke:#181818;stroke-width:0.5;" x1="279.5" x2="466.5" y1="992" y2="992"/></g><!--class PersonRepository--><g id="elem_PersonRepository"><rect fill="#F1F1F1" height="48" id="PersonRepository" rx="2.5" ry="2.5" style="stroke:#181818;stroke-width:0.5;" width="145" x="297.5" y="428.5"/><ellipse cx="312.5" cy="444.5" fill="#ADD1B2" rx="11" ry="11" style="stroke:#181818;stroke-width:1.0;"/><path d="M315.2656,440.375 Q315.4219,440.1563 315.6094,440.0469 Q315.7969,439.9375 316.0156,439.9375 Q316.3906,439.9375 316.625,440.2031 Q316.8594,440.4531 316.8594,441.0625 L316.8594,442.5156 Q316.8594,443.125 316.625,443.3906 Q316.3906,443.6563 316.0156,443.6563 Q315.6719,443.6563 315.4688,443.4531 Q315.2656,443.2656 315.1563,442.75 Q315.1094,442.3906 314.9219,442.2031 Q314.5938,441.8281 313.9844,441.6094 Q313.375,441.3906 312.75,441.3906 Q311.9844,441.3906 311.3438,441.7188 Q310.7188,442.0469 310.2188,442.7969 Q309.7344,443.5469 309.7344,444.5781 L309.7344,445.6719 Q309.7344,446.9063 310.625,447.7344 Q311.5156,448.5469 313.1094,448.5469 Q314.0469,448.5469 314.7031,448.2969 Q315.0938,448.1406 315.5156,447.7031 Q315.7813,447.4375 315.9219,447.3594 Q316.0781,447.2813 316.2813,447.2813 Q316.6094,447.2813 316.8594,447.5469 Q317.125,447.7969 317.125,448.1406 Q317.125,448.4844 316.7813,448.8906 Q316.2813,449.4688 315.4844,449.7969 Q314.4063,450.25 313.1094,450.25 Q311.5938,450.25 310.3906,449.625 Q309.4063,449.125 308.7188,448.0625 Q308.0313,446.9844 308.0313,445.7031 L308.0313,444.5469 Q308.0313,443.2188 308.6406,442.0781 Q309.2656,440.9219 310.3594,440.3125 Q311.4531,439.6875 312.6875,439.6875 Q313.4219,439.6875 314.0625,439.8594 Q314.7188,440.0156 315.2656,440.375 Z " fill="#000000"/><text fill="#000000" font-family="sans-serif" font-size="14" lengthAdjust="spacing" textLength="113" x="326.5" y="449.3535">PersonRepository</text><line style="stroke:#181818;stroke-width:0.5;" x1="298.5" x2="441.5" y1="460.5" y2="460.5"/><line style="stroke:#181818;stroke-width:0.5;" x1="298.5" x2="441.5" y1="468.5" y2="468.5"/></g><!--class Person--><g id="elem_Person"><rect fill="#F1F1F1" height="48" id="Person" rx="2.5" ry="2.5" style="stroke:#181818;stroke-width:0.5;" width="77" x="30.5" y="428.5"/><ellipse cx="45.5" cy="444.5" fill="#ADD1B2" rx="11" ry="11" style="stroke:#181818;stroke-width:1.0;"/><path d="M48.2656,440.375 Q48.4219,440.1563 48.6094,440.0469 Q48.7969,439.9375 49.0156,439.9375 Q49.3906,439.9375 49.625,440.2031 Q49.8594,440.4531 49.8594,441.0625 L49.8594,442.5156 Q49.8594,443.125 49.625,443.3906 Q49.3906,443.6563 49.0156,443.6563 Q48.6719,443.6563 48.4688,443.4531 Q48.2656,443.2656 48.1563,442.75 Q48.1094,442.3906 47.9219,442.2031 Q47.5938,441.8281 46.9844,441.6094 Q46.375,441.3906 45.75,441.3906 Q44.9844,441.3906 44.3438,441.7188 Q43.7188,442.0469 43.2188,442.7969 Q42.7344,443.5469 42.7344,444.5781 L42.7344,445.6719 Q42.7344,446.9063 43.625,447.7344 Q44.5156,448.5469 46.1094,448.5469 Q47.0469,448.5469 47.7031,448.2969 Q48.0938,448.1406 48.5156,447.7031 Q48.7813,447.4375 48.9219,447.3594 Q49.0781,447.2813 49.2813,447.2813 Q49.6094,447.2813 49.8594,447.5469 Q50.125,447.7969 50.125,448.1406 Q50.125,448.4844 49.7813,448.8906 Q49.2813,449.4688 48.4844,449.7969 Q47.4063,450.25 46.1094,450.25 Q44.5938,450.25 43.3906,449.625 Q42.4063,449.125 41.7188,448.0625 Q41.0313,446.9844 41.0313,445.7031 L41.0313,444.5469 Q41.0313,443.2188 41.6406,442.0781 Q42.2656,440.9219 43.3594,440.3125 Q44.4531,439.6875 45.6875,439.6875 Q46.4219,439.6875 47.0625,439.8594 Q47.7188,440.0156 48.2656,440.375 Z " fill="#000000"/><text fill="#000000" font-family="sans-serif" font-size="14" lengthAdjust="spacing" textLength="45" x="59.5" y="449.3535">Person</text><line style="stroke:#181818;stroke-width:0.5;" x1="31.5" x2="106.5" y1="460.5" y2="460.5"/><line style="stroke:#181818;stroke-width:0.5;" x1="31.5" x2="106.5" y1="468.5" y2="468.5"/></g><!--link RespondToVisitRequestUI to RespondToVisitRequestController--><g id="link_RespondToVisitRequestUI_RespondToVisitRequestController"><path codeLine="191" d="M739,305.11 C739,323.93 739,342.74 739,360.29 " fill="none" id="RespondToVisitRequestUI-to-RespondToVisitRequestController" style="stroke:#181818;stroke-width:1.0;stroke-dasharray:7.0,7.0;"/><polygon fill="#181818" points="739,365.7,743,356.7,739,360.7,735,356.7,739,365.7" style="stroke:#181818;stroke-width:1.0;"/></g><!--link RespondToVisitRequestController to Repositories--><g id="link_RespondToVisitRequestController_Repositories"><path codeLine="193" d="M603.87,539.26 C577.06,556.27 557,569 557,569 C557,569 542.78,664.58 532.22,735.61 " fill="none" id="RespondToVisitRequestController-to-Repositories" style="stroke:#181818;stroke-width:1.0;stroke-dasharray:7.0,7.0;"/><polygon fill="#181818" points="531.46,740.68,536.7297,732.3595,532.1891,735.7334,528.8152,731.1929,531.46,740.68" style="stroke:#181818;stroke-width:1.0;"/><text fill="#000000" font-family="sans-serif" font-size="13" lengthAdjust="spacing" textLength="67" x="558" y="644.7686">repositories</text></g><!--link Repositories to PropertyRepository--><g id="link_Repositories_PropertyRepository"><path codeLine="195" d="M624.53,864.96 C697.4,901.54 782,944 782,944 C782,944 790.25,995.56 796.15,1032.45 " fill="none" id="Repositories-to-PropertyRepository" style="stroke:#181818;stroke-width:1.0;"/><polygon fill="#181818" points="797,1037.78,799.5332,1028.2625,796.2128,1032.8424,791.633,1029.522,797,1037.78" style="stroke:#181818;stroke-width:1.0;"/></g><!--link Repositories to SunExposureRepository--><g id="link_Repositories_SunExposureRepository"><path codeLine="196" d="M417.44,858.34 C349.76,887.98 263.9,925.57 208.23,949.94 " fill="none" id="Repositories-to-SunExposureRepository" style="stroke:#181818;stroke-width:1.0;"/><polygon fill="#181818" points="203.6,951.97,213.4488,952.0128,208.1778,949.9592,210.2314,944.6882,203.6,951.97" style="stroke:#181818;stroke-width:1.0;"/></g><!--link Repositories to BusinessTypeRepository--><g id="link_Repositories_BusinessTypeRepository"><path codeLine="197" d="M456.95,883.11 C436.03,906.01 414.03,930.09 397.8,947.85 " fill="none" id="Repositories-to-BusinessTypeRepository" style="stroke:#181818;stroke-width:1.0;"/><polygon fill="#181818" points="394.22,951.77,403.2384,947.8116,397.5876,948.0742,397.3251,942.4234,394.22,951.77" style="stroke:#181818;stroke-width:1.0;"/></g><!--link Repositories to RequestRepository--><g id="link_Repositories_RequestRepository"><path codeLine="198" d="M512.43,883.21 C500.35,982.29 478.72,1159.53 469.44,1235.64 " fill="none" id="Repositories-to-RequestRepository" style="stroke:#181818;stroke-width:1.0;"/><polygon fill="#181818" points="468.79,1240.94,473.8425,1232.4859,469.3908,1235.9762,465.9004,1231.5246,468.79,1240.94" style="stroke:#181818;stroke-width:1.0;"/></g><!--reverse link PersonRepository to Repositories--><g id="link_PersonRepository_Repositories"><path codeLine="199" d="M381.83,481.5 C405.22,536.87 458,661.84 491.42,740.97 " fill="none" id="PersonRepository-backto-Repositories" style="stroke:#181818;stroke-width:1.0;"/><polygon fill="#181818" points="379.79,476.68,379.596,486.5269,381.7303,481.2882,386.9691,483.4225,379.79,476.68" style="stroke:#181818;stroke-width:1.0;"/></g><!--link Repositories to AdvertisementRepository--><g id="link_Repositories_AdvertisementRepository"><path codeLine="200" d="M585.05,883.11 C603.07,902.83 621.88,923.42 637.12,940.1 " fill="none" id="Repositories-to-AdvertisementRepository" style="stroke:#181818;stroke-width:1.0;"/><polygon fill="#181818" points="640.51,943.82,637.3869,934.4794,637.1353,940.1307,631.484,939.879,640.51,943.82" style="stroke:#181818;stroke-width:1.0;"/></g><!--link PropertyRepository to Property--><g id="link_PropertyRepository_Property"><path codeLine="202" d="M879.14,1096.16 C930.65,1112.97 989,1132 989,1132 C989,1132 1021.65,1662.62 1033.1,1848.56 " fill="none" id="PropertyRepository-to-Property" style="stroke:#181818;stroke-width:1.0;"/><polygon fill="#181818" points="1033.41,1853.69,1036.8359,1844.4562,1033.0954,1848.6999,1028.8517,1844.9595,1033.41,1853.69" style="stroke:#181818;stroke-width:1.0;"/><text fill="#000000" font-family="sans-serif" font-size="13" lengthAdjust="spacing" textLength="5" x="1027.6678" y="1843.4327">*</text></g><!--link Property to PropertyType--><g id="link_Property_PropertyType"><path codeLine="203" d="M993.06,1972.22 C968.32,2005 937.85,2045.36 914.78,2075.92 " fill="none" id="Property-to-PropertyType" style="stroke:#181818;stroke-width:1.0;"/><polygon fill="#181818" points="911.72,2079.98,920.3309,2075.1996,914.7291,2075.9869,913.9419,2070.385,911.72,2079.98" style="stroke:#181818;stroke-width:1.0;"/><text fill="#000000" font-family="sans-serif" font-size="13" lengthAdjust="spacing" textLength="30" x="964" y="2018.7686">owns</text><text fill="#000000" font-family="sans-serif" font-size="13" lengthAdjust="spacing" textLength="7" x="980.8712" y="1991.2814">1</text><text fill="#000000" font-family="sans-serif" font-size="13" lengthAdjust="spacing" textLength="7" x="909.5703" y="2069.1682">1</text></g><!--link Property to Location--><g id="link_Property_Location"><path codeLine="204" d="M1044.84,1972.22 C1048.14,1996.78 1052.02,2025.6 1055.49,2051.36 " fill="none" id="Property-to-Location" style="stroke:#181818;stroke-width:1.0;"/><polygon fill="#181818" points="1056.18,2056.47,1058.9358,2047.0146,1055.5089,2051.5152,1051.0082,2048.0883,1056.18,2056.47" style="stroke:#181818;stroke-width:1.0;"/><text fill="#000000" font-family="sans-serif" font-size="13" lengthAdjust="spacing" textLength="30" x="1052" y="2018.7686">owns</text><text fill="#000000" font-family="sans-serif" font-size="13" lengthAdjust="spacing" textLength="7" x="1038.3147" y="1991.2814">1</text><text fill="#000000" font-family="sans-serif" font-size="13" lengthAdjust="spacing" textLength="7" x="1047.7555" y="2045.7525">1</text></g><!--reverse link Property to Land--><g id="link_Property_Land"><path codeLine="205" d="M1145.47,1962.29 C1234.86,2002.08 1347,2052 1347,2052 C1347,2052 1365.81,2078.33 1380.35,2098.69 " fill="none" id="Property-backto-Land" style="stroke:#181818;stroke-width:1.0;"/><polygon fill="none" points="1142.51,1968.63,1127.08,1954.1,1148.2,1955.84,1142.51,1968.63" style="stroke:#181818;stroke-width:1.0;"/></g><!--reverse link Property to Apartment--><g id="link_Property_Apartment"><path codeLine="206" d="M928.76,1967.35 C849.97,2006.18 757,2052 757,2052 C757,2052 746.92,2058.42 732.86,2067.36 " fill="none" id="Property-backto-Apartment" style="stroke:#181818;stroke-width:1.0;"/><polygon fill="none" points="925.83,1960.99,946.86,1958.42,932.02,1973.54,925.83,1960.99" style="stroke:#181818;stroke-width:1.0;"/></g><!--reverse link Property to House--><g id="link_Property_House"><path codeLine="207" d="M1107.05,1986.86 C1127.38,2007.99 1149.52,2031.02 1169.67,2051.98 " fill="none" id="Property-backto-House" style="stroke:#181818;stroke-width:1.0;"/><polygon fill="none" points="1101.79,1991.48,1092.98,1972.22,1111.89,1981.78,1101.79,1991.48" style="stroke:#181818;stroke-width:1.0;"/></g><!--reverse link House to SunExposure--><g id="link_House_SunExposure"><path codeLine="208" d="M1237,2199.1 C1237,2226.46 1237,2255.91 1237,2277.35 " fill="none" id="House-backto-SunExposure" style="stroke:#181818;stroke-width:1.0;"/><polygon fill="#181818" points="1237,2194.01,1233,2203.01,1237,2199.01,1241,2203.01,1237,2194.01" style="stroke:#181818;stroke-width:1.0;"/></g><!--link SunExposure to SunExposureType--><g id="link_SunExposure_SunExposureType"><path codeLine="209" d="M1237,2341.58 C1237,2360.4 1237,2384.58 1237,2404.77 " fill="none" id="SunExposure-to-SunExposureType" style="stroke:#181818;stroke-width:1.0;"/><polygon fill="#181818" points="1237,2409.82,1241,2400.82,1237,2404.82,1233,2400.82,1237,2409.82" style="stroke:#181818;stroke-width:1.0;"/><text fill="#000000" font-family="sans-serif" font-size="13" lengthAdjust="spacing" textLength="5" x="1231.5078" y="2399.2682">*</text></g><!--link RequestRepository to Request--><g id="link_RequestRepository_Request"><path codeLine="211" d="M462.44,1305.21 C461.21,1320.22 460,1335 460,1335 C460,1335 446,1804 446,1804 C446,1804 446,1820 446,1820 C446,1820 471.76,1850.78 493.48,1876.73 " fill="none" id="RequestRepository-to-Request" style="stroke:#181818;stroke-width:1.0;"/><polygon fill="#181818" points="496.93,1880.85,494.2273,1871.3792,493.7234,1877.0136,488.0891,1876.5097,496.93,1880.85" style="stroke:#181818;stroke-width:1.0;"/><text fill="#000000" font-family="sans-serif" font-size="13" lengthAdjust="spacing" textLength="5" x="485.6803" y="1870.151">*</text></g><!--link Request to BusinessType--><g id="link_Request_BusinessType"><path codeLine="212" d="M510.42,1945.14 C496.53,1979.55 473.99,2035.36 457.95,2075.07 " fill="none" id="Request-to-BusinessType" style="stroke:#181818;stroke-width:1.0;"/><polygon fill="#181818" points="456.03,2079.83,463.1119,2072.9856,457.9042,2075.1946,455.6952,2069.9868,456.03,2079.83" style="stroke:#181818;stroke-width:1.0;"/><text fill="#000000" font-family="sans-serif" font-size="13" lengthAdjust="spacing" textLength="72" x="484" y="2018.7686">is classified:</text><text fill="#000000" font-family="sans-serif" font-size="13" lengthAdjust="spacing" textLength="5" x="502.5454" y="1964.4538">*</text><text fill="#000000" font-family="sans-serif" font-size="13" lengthAdjust="spacing" textLength="7" x="451.2709" y="2069.3053">1</text></g><!--link Request to Property--><g id="link_Request_Property"><path codeLine="213" d="M565.5,1913 C647.42,1913 829,1913 941.39,1913 " fill="none" id="Request-to-Property" style="stroke:#181818;stroke-width:1.0;"/><polygon fill="#181818" points="946.69,1913,937.69,1909,941.69,1913,937.69,1917,946.69,1913" style="stroke:#181818;stroke-width:1.0;"/><text fill="#000000" font-family="sans-serif" font-size="13" lengthAdjust="spacing" textLength="45" x="733.75" y="1906.7686">include:</text><text fill="#000000" font-family="sans-serif" font-size="13" lengthAdjust="spacing" textLength="7" x="573.4063" y="1909.6413">1</text><text fill="#000000" font-family="sans-serif" font-size="13" lengthAdjust="spacing" textLength="7" x="931.9214" y="1910.2267">1</text></g><!--link BusinessType to BusinessTypeRent--><g id="link_BusinessType_BusinessTypeRent"><path codeLine="214" d="M417.89,2166.33 C403.14,2195.92 383.5,2235.31 368.63,2265.13 " fill="none" id="BusinessType-to-BusinessTypeRent" style="stroke:#181818;stroke-width:1.0;"/><polygon fill="#181818" points="366.28,2269.83,373.8746,2263.5593,368.5103,2265.355,366.7146,2259.9907,366.28,2269.83" style="stroke:#181818;stroke-width:1.0;"/><text fill="#000000" font-family="sans-serif" font-size="13" lengthAdjust="spacing" textLength="43" x="388" y="2236.7686">can be:</text></g><!--link BusinessType to BusinessTypeSale--><g id="link_BusinessType_BusinessTypeSale"><path codeLine="215" d="M460.34,2166.33 C476.52,2198.44 498.53,2242.1 513.87,2272.54 " fill="none" id="BusinessType-to-BusinessTypeSale" style="stroke:#181818;stroke-width:1.0;"/><polygon fill="#181818" points="516.28,2277.3,515.7951,2267.4631,514.0268,2272.8365,508.6535,2271.0681,516.28,2277.3" style="stroke:#181818;stroke-width:1.0;"/><text fill="#000000" font-family="sans-serif" font-size="13" lengthAdjust="spacing" textLength="43" x="497" y="2236.7686">can be:</text></g><!--link AdvertisementRepository to Advertisement--><g id="link_AdvertisementRepository_Advertisement"><path codeLine="217" d="M664.91,1008.4 C657.01,1069.18 638.99,1207.67 623.1,1329.85 " fill="none" id="AdvertisementRepository-to-Advertisement" style="stroke:#181818;stroke-width:1.0;"/><polygon fill="#181818" points="622.44,1334.92,627.5642,1326.5092,623.083,1329.9615,619.6307,1325.4803,622.44,1334.92" style="stroke:#181818;stroke-width:1.0;"/><text fill="#000000" font-family="sans-serif" font-size="13" lengthAdjust="spacing" textLength="5" x="618.3722" y="1324.555">*</text></g><!--link AdvertisementRepository to AdvertisementMapper--><g id="link_AdvertisementRepository_AdvertisementMapper"><path codeLine="218" d="M678.74,1008.22 C690.29,1045.24 708,1102 708,1102 C708,1102 730.21,1114.79 755.44,1129.31 " fill="none" id="AdvertisementRepository-to-AdvertisementMapper" style="stroke:#181818;stroke-width:1.0;stroke-dasharray:7.0,7.0;"/><polygon fill="#181818" points="759.85,1131.85,754.0457,1123.8933,755.5167,1129.3555,750.0545,1130.8265,759.85,1131.85" style="stroke:#181818;stroke-width:1.0;"/><text fill="#000000" font-family="sans-serif" font-size="13" lengthAdjust="spacing" textLength="5" x="742.4436" y="1121.3306">*</text></g><!--link AdvertisementMapper to AdvertisementDTO--><g id="link_AdvertisementMapper_AdvertisementDTO"><path codeLine="219" d="M830.85,1211.13 C834.45,1247.21 840.11,1303.93 845.79,1360.9 " fill="none" id="AdvertisementMapper-to-AdvertisementDTO" style="stroke:#181818;stroke-width:1.0;stroke-dasharray:7.0,7.0;"/><polygon fill="#181818" points="846.3,1366.06,849.4059,1356.7137,845.8138,1361.0837,841.4438,1357.4916,846.3,1366.06" style="stroke:#181818;stroke-width:1.0;"/></g><!--link AdvertisementMapper to Advertisement--><g id="link_AdvertisementMapper_Advertisement"><path codeLine="220" d="M803.38,1211.13 C781.73,1246.53 747.94,1301.79 713.77,1357.66 " fill="none" id="AdvertisementMapper-to-Advertisement" style="stroke:#181818;stroke-width:1.0;stroke-dasharray:7.0,7.0;"/><polygon fill="#181818" points="711.1,1362.02,719.21,1356.4317,713.7101,1357.7554,712.3865,1352.2555,711.1,1362.02" style="stroke:#181818;stroke-width:1.0;"/></g><!--link RespondToVisitRequestController to AdvertisementCollections--><g id="link_RespondToVisitRequestController_AdvertisementCollections"><path codeLine="222" d="M792.12,539.19 C797.34,547.6 802.6,556.09 807.74,564.38 " fill="none" id="RespondToVisitRequestController-to-AdvertisementCollections" style="stroke:#181818;stroke-width:1.0;stroke-dasharray:7.0,7.0;"/><polygon fill="#181818" points="810.58,568.96,809.2405,559.2027,807.9467,564.7096,802.4398,563.4159,810.58,568.96" style="stroke:#181818;stroke-width:1.0;"/></g><!--link AdvertisementCollections to AdvertisementMapper--><g id="link_AdvertisementCollections_AdvertisementMapper"><path codeLine="223" d="M858.59,711.06 C866.05,825.03 880,1038 880,1038 C880,1038 880,1102 880,1102 C880,1102 870.75,1113.95 859.98,1127.88 " fill="none" id="AdvertisementCollections-to-AdvertisementMapper" style="stroke:#181818;stroke-width:1.0;stroke-dasharray:7.0,7.0;"/><polygon fill="#181818" points="856.91,1131.85,865.5777,1127.1733,859.9668,1127.8933,859.2469,1122.2824,856.91,1131.85" style="stroke:#181818;stroke-width:1.0;"/></g><!--link Advertisement to Request--><g id="link_Advertisement_Request"><path codeLine="225" d="M550.45,1774.17 C542.59,1813.62 535.29,1850.29 530.2,1875.87 " fill="none" id="Advertisement-to-Request" style="stroke:#181818;stroke-width:1.0;"/><polygon fill="#181818" points="529.21,1880.84,534.8838,1872.7897,530.1823,1875.9355,527.0366,1871.234,529.21,1880.84" style="stroke:#181818;stroke-width:1.0;"/><text fill="#000000" font-family="sans-serif" font-size="13" lengthAdjust="spacing" textLength="45" x="544" y="1816.7686">include:</text><text fill="#000000" font-family="sans-serif" font-size="13" lengthAdjust="spacing" textLength="7" x="541.7591" y="1794.0936">1</text><text fill="#000000" font-family="sans-serif" font-size="13" lengthAdjust="spacing" textLength="7" x="522.8028" y="1870.1389">1</text></g><!--reverse link Person to PersonRepository--><g id="link_Person_PersonRepository"><path codeLine="227" d="M112.52,452.5 C139.61,452.5 169.33,452.5 169.33,452.5 C169.33,452.5 269.67,452.5 269.67,452.5 C269.67,452.5 281.66,452.5 297.35,452.5 " fill="none" id="Person-backto-PersonRepository" style="stroke:#181818;stroke-width:1.0;"/><polygon fill="#181818" points="107.5,452.5,116.5,456.5,112.5,452.5,116.5,448.5,107.5,452.5" style="stroke:#181818;stroke-width:1.0;"/><text fill="#000000" font-family="sans-serif" font-size="13" lengthAdjust="spacing" textLength="5" x="115.5719" y="448.942">*</text></g><!--link Advertisement to Visit--><g id="link_Advertisement_Visit"><path codeLine="229" d="M476.98,1660.05 C406.78,1722.78 320.04,1800.28 261.44,1852.63 " fill="none" id="Advertisement-to-Visit" style="stroke:#181818;stroke-width:1.0;"/><polygon fill="#181818" points="257.62,1856.05,266.9977,1853.0403,261.3499,1852.7202,261.6701,1847.0724,257.62,1856.05" style="stroke:#181818;stroke-width:1.0;"/><text fill="#000000" font-family="sans-serif" font-size="13" lengthAdjust="spacing" textLength="40" x="314" y="1816.7686">allows:</text><text fill="#000000" font-family="sans-serif" font-size="13" lengthAdjust="spacing" textLength="7" x="461.8826" y="1664.4569">1</text><text fill="#000000" font-family="sans-serif" font-size="13" lengthAdjust="spacing" textLength="5" x="265.5565" y="1846.0442">*</text></g><!--link Person to Visit--><g id="link_Person_Visit"><path codeLine="231" d="M64.91,476.68 C50.95,555.9 6,811 6,811 C6,811 6,811 6,1555.5 C6,1555.5 104.96,1742.17 159.67,1845.36 " fill="none" id="Person-to-Visit" style="stroke:#181818;stroke-width:1.0;"/><polygon fill="#181818" points="162.08,1849.9,161.4188,1840.0734,159.7471,1845.4776,154.3429,1843.8059,162.08,1849.9" style="stroke:#181818;stroke-width:1.0;"/><text fill="#000000" font-family="sans-serif" font-size="13" lengthAdjust="spacing" textLength="43" x="7" y="1074.7686">makes:</text><text fill="#000000" font-family="sans-serif" font-size="13" lengthAdjust="spacing" textLength="5" x="58.3037" y="496.1125">*</text><text fill="#000000" font-family="sans-serif" font-size="13" lengthAdjust="spacing" textLength="5" x="152.7632" y="1839.1446">*</text></g><!--SRC=[jLZTR-Cs37_tNo7qfRarFQolIH4WRJ9SWNwXIM_OSC2Ws78YrB5yajmkb_L_7odBjkIFIt50-j1Q94M9v8yKsLFrmjECIhebMv6AS2F5bX4jSnRKd8o6BtJD5dgNC29Pg6cwJbm1jQ6HUEFfciGqKIuduIdJkuoHJ2GxN0Id7KmXjGYSNM52bPfgBVagr-mc5Ec2_s3azo0uJLYiYHP4ylL6auZZTRX8Wy3i8KzCPIADbk8hLrm_iUyvK_hvXko3S_8eHSQatYtno1V6CfTmlH4yP6CGkyeLt4kfIimbr68yrORx5wFINT-9L6zSmepktEKNaHlvQVGAPtF5jWmur5qLXpHbPii7Nmm8bQGnbxpYRqix8w5aLBDkbrp3BQL84YO7dq0quKfFqmYs2iLSjxIvhZTSxeohBA4xMierxpxezlYmnyMeUSrqgSKgkOMp5e0M5ls2kgYueQjI3S2boZW6LSC9G_BBYi6d4KSmggbwMGfOnbnk1nr13CrMSwmvqedUf-0TKFxFaNv-cYOr9aowFB5C05D8pXHaVRqOExbK2Ur8rYADZHQZsv6JJKeh6nnXsaqV5-YuIHNKeh308QpTi64yIxeRDfVkGg5MFZXs3AeWE0vkUhoyOcqY6Na2liNUxLisjxcji7p09KT7PTkOlM-bZTrx0CMKoPY6hDf3BYyhucI2ten4leBtYa8L7DTBo5NZJoJTYf1YlfB4VXWY25mkuEb9rnEIROGMQqcp3Q3-tLxp5chSlbfDuSdIwArzKUH79CstAoQlM2I5s2gV-aWbl7BhXYZLcrAsE7b4w2lb2OKRpx_dF4FzrOdmWYXszDFEoKg8XD5qH5Qqo3-Njg4hhd77hOZnQWoKaqMUpl-5sEMIcTVpyXB9aub1TtdMFTJlpP0iH8v_vbJf8VaJi5ZPvsWX5W0DnGO3vaJlJNUEkvtUpyWPcJvEdvPty_ibV7zvU5xC0m8_4LEXv9df6rmiLNZmi6GkhxHa31tmWsVN8cA61A_hymA-GgvtY310ZkIXFcggbAMZaRvxBwshFF6aqOuPTWGH_AhXx1QAVM-zjFxscYF7tsstjfK_5KbI9E98meecZzBqBmZFA9V6- -OPeg7krB6W2QkJUwHWMQWuli_xdgYzNpWDkn40lzVRry-YQIhiz_XGYtgmENKrUBl77og7sA5sLPEkOj9RItvQIZeg2TJU69TkqgiyhVLLcMVNa80k4w1SBsqYsbMLZ_r5lNP4ZQIAX0WjIMWo0jGC6mznXL4leufpYcwkN3p4CPFTGBYZ6KG7uQC5DiZDYG1Vv1ZcCU1fCPrrDPBmkmTbm47DrXG4mzH4tYFLqJyx1BspGz0xgoQSUmz39SS34V6f5OmClHT8XdlLW997H30LEdmukNhnYWi3gWRnRvwrn4nSFTerrxi6QMQ1XcGFQSQDRWlXUNzHGgv1VofnvpfrPgjZZJta6l0LGsPHqhkWS8qzlG6ksX-OghwbWwmz-gmwfvvYlBndRuMsQPBSfB6GMtDDKm1XjCA_GzBM-IqTacwr2YuoZQgHx6g7fWtSASrsgb-PvF7EK9Tyo_w0Y0wyqMheJ5I5MmpPTava1uEx_JGpk_s6STr-uQJkr9Q4WxVcMm0bAEpxFyFdIBobdoU71gmWE3I1rOhgbd_aZM6emnaWpd73-QIZYUwMSpBaa6ZtAD4js-fC6c9vXdTaKedqaAgU1pS8EeRFSi_9RoUL1oevSd9nKajSd7YrRaI0hlfbowRGoc7pRwpuhtPrKCq0BOxfrLjKjpeL7Z5oFjrQqsXzCUhDYTertd9BAKFpx763EI9S5Vziup5dqQZUTO6xV6U1S1ecUSH6WVSKTAC4vuqGo_H7nB4Irk91NwVbskd9zEueiwYretXxWmvQjQVvd7vS-0FPFUajqK4VexN9sk1lm901T31mzbWdRa4pySWv_Z-rp1l3xDQ70iOMc1MJHBofIfdPMeBLYcpf2rIhu7y0]--></g></svg>