<?xml version="1.0" encoding="us-ascii" standalone="no"?><svg xmlns="http://www.w3.org/2000/svg" xmlns:xlink="http://www.w3.org/1999/xlink" contentStyleType="text/css" height="2464px" preserveAspectRatio="none" style="width:883px;height:2464px;background:#FFFFFF;" version="1.1" viewBox="0 0 883 2464" width="883px" zoomAndPan="magnify"><defs/><g><rect fill="#FFFFFF" height="2275.9609" style="stroke:#181818;stroke-width:1.0;" width="10" x="46.5" y="90.6406"/><rect fill="#FFFFFF" height="1010.2578" style="stroke:#181818;stroke-width:1.0;" width="10" x="442.5" y="125.6875"/><rect fill="#FFFFFF" height="84.5703" style="stroke:#181818;stroke-width:1.0;" width="10" x="442.5" y="1164.4688"/><rect fill="#FFFFFF" height="1089.0391" style="stroke:#181818;stroke-width:1.0;" width="10" x="442.5" y="1277.5625"/><rect fill="#FFFFFF" height="73.5703" style="stroke:#181818;stroke-width:1.0;" width="10" x="730.5" y="164.2109"/><rect fill="#FFFFFF" height="71.4531" style="stroke:#181818;stroke-width:1.0;" width="10" x="730.5" y="266.3047"/><rect fill="#FFFFFF" height="71.4531" style="stroke:#181818;stroke-width:1.0;" width="10" x="730.5" y="407.8047"/><rect fill="#FFFFFF" height="71.4531" style="stroke:#181818;stroke-width:1.0;" width="10" x="730.5" y="549.3047"/><rect fill="#FFFFFF" height="71.4531" style="stroke:#181818;stroke-width:1.0;" width="10" x="730.5" y="690.8047"/><rect fill="#FFFFFF" height="71.4531" style="stroke:#181818;stroke-width:1.0;" width="10" x="730.5" y="976.9219"/><rect fill="#FFFFFF" height="71.4531" style="stroke:#181818;stroke-width:1.0;" width="10" x="730.5" y="1306.0859"/><rect fill="#FFFFFF" height="71.4531" style="stroke:#181818;stroke-width:1.0;" width="10" x="730.5" y="1447.5859"/><rect fill="#FFFFFF" height="692.0625" style="stroke:#181818;stroke-width:1.0;" width="10" x="730.5" y="1589.0859"/><rect fill="none" height="45.0469" style="stroke:#000000;stroke-width:1.5;" width="533" x="20" y="805.7813"/><rect fill="none" height="45.0469" style="stroke:#000000;stroke-width:1.5;" width="533" x="20" y="1063.375"/><rect fill="none" height="692.0625" style="stroke:#000000;stroke-width:1.5;" width="866" x="10" y="1647.0156"/><rect fill="none" height="316.625" style="stroke:#000000;stroke-width:1.5;" width="846" x="20" y="1670.5391"/><rect fill="none" height="316.625" style="stroke:#000000;stroke-width:1.5;" width="846" x="20" y="2015.4531"/><line style="stroke:#181818;stroke-width:0.5;stroke-dasharray:5.0,5.0;" x1="51" x2="51" y1="80.6406" y2="2384.6016"/><line style="stroke:#181818;stroke-width:0.5;stroke-dasharray:5.0,5.0;" x1="447" x2="447" y1="80.6406" y2="2384.6016"/><line style="stroke:#181818;stroke-width:0.5;stroke-dasharray:5.0,5.0;" x1="735" x2="735" y1="164.0078" y2="2384.6016"/><text fill="#000000" font-family="sans-serif" font-size="14" lengthAdjust="spacing" textLength="37" x="30" y="77.6738">Agent</text><ellipse cx="51.5" cy="13.5" fill="#E3E3E3" rx="8" ry="8" style="stroke:#181818;stroke-width:0.5;"/><path d="M51.5,21.5 L51.5,48.5 M38.5,29.5 L64.5,29.5 M51.5,48.5 L38.5,63.5 M51.5,48.5 L64.5,63.5 " fill="none" style="stroke:#181818;stroke-width:0.5;"/><text fill="#000000" font-family="sans-serif" font-size="14" lengthAdjust="spacing" textLength="37" x="30" y="2396.2754">Agent</text><ellipse cx="51.5" cy="2407.7422" fill="#E3E3E3" rx="8" ry="8" style="stroke:#181818;stroke-width:0.5;"/><path d="M51.5,2415.7422 L51.5,2442.7422 M38.5,2423.7422 L64.5,2423.7422 M51.5,2442.7422 L38.5,2457.7422 M51.5,2442.7422 L64.5,2457.7422 " fill="none" style="stroke:#181818;stroke-width:0.5;"/><rect fill="#E3E3E3" height="29.6406" rx="2.5" ry="2.5" style="stroke:#181818;stroke-width:0.5;" width="191" x="352" y="50"/><text fill="#000000" font-family="sans-serif" font-size="14" lengthAdjust="spacing" textLength="177" x="359" y="69.6738">:RespondBookingRequestUI</text><rect fill="#E3E3E3" height="29.6406" rx="2.5" ry="2.5" style="stroke:#181818;stroke-width:0.5;" width="191" x="352" y="2383.6016"/><text fill="#000000" font-family="sans-serif" font-size="14" lengthAdjust="spacing" textLength="177" x="359" y="2403.2754">:RespondBookingRequestUI</text><rect fill="#E3E3E3" height="29.6406" rx="2.5" ry="2.5" style="stroke:#181818;stroke-width:0.5;" width="241" x="615" y="2383.6016"/><text fill="#000000" font-family="sans-serif" font-size="14" lengthAdjust="spacing" textLength="227" x="622" y="2403.2754">:RespondBookingRequestController</text><rect fill="#FFFFFF" height="2275.9609" style="stroke:#181818;stroke-width:1.0;" width="10" x="46.5" y="90.6406"/><rect fill="#FFFFFF" height="1010.2578" style="stroke:#181818;stroke-width:1.0;" width="10" x="442.5" y="125.6875"/><rect fill="#FFFFFF" height="84.5703" style="stroke:#181818;stroke-width:1.0;" width="10" x="442.5" y="1164.4688"/><rect fill="#FFFFFF" height="1089.0391" style="stroke:#181818;stroke-width:1.0;" width="10" x="442.5" y="1277.5625"/><rect fill="#FFFFFF" height="73.5703" style="stroke:#181818;stroke-width:1.0;" width="10" x="730.5" y="164.2109"/><rect fill="#FFFFFF" height="71.4531" style="stroke:#181818;stroke-width:1.0;" width="10" x="730.5" y="266.3047"/><rect fill="#FFFFFF" height="71.4531" style="stroke:#181818;stroke-width:1.0;" width="10" x="730.5" y="407.8047"/><rect fill="#FFFFFF" height="71.4531" style="stroke:#181818;stroke-width:1.0;" width="10" x="730.5" y="549.3047"/><rect fill="#FFFFFF" height="71.4531" style="stroke:#181818;stroke-width:1.0;" width="10" x="730.5" y="690.8047"/><rect fill="#FFFFFF" height="71.4531" style="stroke:#181818;stroke-width:1.0;" width="10" x="730.5" y="976.9219"/><rect fill="#FFFFFF" height="71.4531" style="stroke:#181818;stroke-width:1.0;" width="10" x="730.5" y="1306.0859"/><rect fill="#FFFFFF" height="71.4531" style="stroke:#181818;stroke-width:1.0;" width="10" x="730.5" y="1447.5859"/><rect fill="#FFFFFF" height="692.0625" style="stroke:#181818;stroke-width:1.0;" width="10" x="730.5" y="1589.0859"/><polygon fill="#181818" points="430.5,121.6875,440.5,125.6875,430.5,129.6875,434.5,125.6875" style="stroke:#181818;stroke-width:1.0;"/><line style="stroke:#181818;stroke-width:1.0;" x1="56.5" x2="436.5" y1="125.6875" y2="125.6875"/><text fill="#000000" font-family="sans-serif" font-size="13" font-weight="bold" lengthAdjust="spacing" textLength="7" x="63.5" y="113.6709">1</text><text fill="#000000" font-family="sans-serif" font-size="13" lengthAdjust="spacing" textLength="203" x="74.5" y="106.4092">asks to chosse a Booking Request</text><text fill="#000000" font-family="sans-serif" font-size="13" lengthAdjust="spacing" textLength="61" x="78.5" y="120.9326">from a List</text><polygon fill="#181818" points="603,150.2109,613,154.2109,603,158.2109,607,154.2109" style="stroke:#181818;stroke-width:1.0;"/><line style="stroke:#181818;stroke-width:1.0;" x1="452.5" x2="609" y1="154.2109" y2="154.2109"/><text fill="#000000" font-family="sans-serif" font-size="13" font-weight="bold" lengthAdjust="spacing" textLength="7" x="459.5" y="149.4561">2</text><text fill="#000000" font-family="sans-serif" font-size="13" lengthAdjust="spacing" textLength="36" x="470.5" y="149.4561">create</text><rect fill="#E3E3E3" height="29.6406" rx="2.5" ry="2.5" style="stroke:#181818;stroke-width:0.5;" width="241" x="615" y="133.6875"/><text fill="#000000" font-family="sans-serif" font-size="14" lengthAdjust="spacing" textLength="227" x="622" y="153.3613">:RespondBookingRequestController</text><rect fill="none" height="37.9297" style="stroke:#000000;stroke-width:1.5;" width="247" x="612" y="174.3281"/><path d="M612,174.3281 L674,174.3281 L674,180.3281 L664,190.3281 L612,190.3281 L612,174.3281 " fill="#EEEEEE" style="stroke:#000000;stroke-width:2.0;"/><text fill="#000000" font-family="sans-serif" font-size="13" font-weight="bold" lengthAdjust="spacing" textLength="17" x="625" y="188.0967">ref</text><text fill="#000000" font-family="sans-serif" font-size="12" lengthAdjust="spacing" textLength="93" x="689" y="205.1914">Get Repositories</text><polygon fill="#181818" points="463.5,233.7813,453.5,237.7813,463.5,241.7813,459.5,237.7813" style="stroke:#181818;stroke-width:1.0;"/><line style="stroke:#181818;stroke-width:1.0;stroke-dasharray:2.0,2.0;" x1="457.5" x2="734.5" y1="237.7813" y2="237.7813"/><text fill="#000000" font-family="sans-serif" font-size="13" font-weight="bold" lengthAdjust="spacing" textLength="7" x="469.5" y="233.0264">3</text><text fill="#000000" font-family="sans-serif" font-size="13" lengthAdjust="spacing" textLength="4" x="480.5" y="233.0264">&#160;</text><polygon fill="#181818" points="718.5,262.3047,728.5,266.3047,718.5,270.3047,722.5,266.3047" style="stroke:#181818;stroke-width:1.0;"/><line style="stroke:#181818;stroke-width:1.0;" x1="452.5" x2="724.5" y1="266.3047" y2="266.3047"/><text fill="#000000" font-family="sans-serif" font-size="13" font-weight="bold" lengthAdjust="spacing" textLength="7" x="459.5" y="261.5498">4</text><text fill="#000000" font-family="sans-serif" font-size="13" lengthAdjust="spacing" textLength="93" x="470.5" y="261.5498">getAgentEmail()</text><rect fill="none" height="37.9297" style="stroke:#000000;stroke-width:1.5;" width="247" x="612" y="274.3047"/><path d="M612,274.3047 L674,274.3047 L674,280.3047 L664,290.3047 L612,290.3047 L612,274.3047 " fill="#EEEEEE" style="stroke:#000000;stroke-width:2.0;"/><text fill="#000000" font-family="sans-serif" font-size="13" font-weight="bold" lengthAdjust="spacing" textLength="17" x="625" y="288.0732">ref</text><text fill="#000000" font-family="sans-serif" font-size="12" lengthAdjust="spacing" textLength="88" x="691.5" y="305.168">Get Agent Email</text><polygon fill="#181818" points="463.5,333.7578,453.5,337.7578,463.5,341.7578,459.5,337.7578" style="stroke:#181818;stroke-width:1.0;"/><line style="stroke:#181818;stroke-width:1.0;" x1="457.5" x2="734.5" y1="337.7578" y2="337.7578"/><text fill="#000000" font-family="sans-serif" font-size="13" font-weight="bold" lengthAdjust="spacing" textLength="7" x="469.5" y="333.0029">5</text><text fill="#000000" font-family="sans-serif" font-size="13" lengthAdjust="spacing" textLength="65" x="480.5" y="333.0029">agentEmail</text><line style="stroke:#181818;stroke-width:1.0;" x1="452.5" x2="494.5" y1="366.2813" y2="366.2813"/><line style="stroke:#181818;stroke-width:1.0;" x1="494.5" x2="494.5" y1="366.2813" y2="379.2813"/><line style="stroke:#181818;stroke-width:1.0;" x1="453.5" x2="494.5" y1="379.2813" y2="379.2813"/><polygon fill="#181818" points="463.5,375.2813,453.5,379.2813,463.5,383.2813,459.5,379.2813" style="stroke:#181818;stroke-width:1.0;"/><text fill="#000000" font-family="sans-serif" font-size="13" font-weight="bold" lengthAdjust="spacing" textLength="7" x="459.5" y="361.5264">6</text><text fill="#000000" font-family="sans-serif" font-size="13" lengthAdjust="spacing" textLength="95" x="470.5" y="361.5264">keepAgentEmail</text><polygon fill="#181818" points="718.5,403.8047,728.5,407.8047,718.5,411.8047,722.5,407.8047" style="stroke:#181818;stroke-width:1.0;"/><line style="stroke:#181818;stroke-width:1.0;" x1="452.5" x2="724.5" y1="407.8047" y2="407.8047"/><text fill="#000000" font-family="sans-serif" font-size="13" font-weight="bold" lengthAdjust="spacing" textLength="7" x="459.5" y="403.0498">7</text><text fill="#000000" font-family="sans-serif" font-size="13" lengthAdjust="spacing" textLength="189" x="470.5" y="403.0498">getAgentName(keepAgentEmail)</text><rect fill="none" height="37.9297" style="stroke:#000000;stroke-width:1.5;" width="247" x="612" y="415.8047"/><path d="M612,415.8047 L674,415.8047 L674,421.8047 L664,431.8047 L612,431.8047 L612,415.8047 " fill="#EEEEEE" style="stroke:#000000;stroke-width:2.0;"/><text fill="#000000" font-family="sans-serif" font-size="13" font-weight="bold" lengthAdjust="spacing" textLength="17" x="625" y="429.5732">ref</text><text fill="#000000" font-family="sans-serif" font-size="12" lengthAdjust="spacing" textLength="90" x="690.5" y="446.668">Get Agent Name</text><polygon fill="#181818" points="463.5,475.2578,453.5,479.2578,463.5,483.2578,459.5,479.2578" style="stroke:#181818;stroke-width:1.0;"/><line style="stroke:#181818;stroke-width:1.0;" x1="457.5" x2="734.5" y1="479.2578" y2="479.2578"/><text fill="#000000" font-family="sans-serif" font-size="13" font-weight="bold" lengthAdjust="spacing" textLength="7" x="469.5" y="474.5029">8</text><text fill="#000000" font-family="sans-serif" font-size="13" lengthAdjust="spacing" textLength="96" x="480.5" y="474.5029">keepAgentName</text><line style="stroke:#181818;stroke-width:1.0;" x1="452.5" x2="494.5" y1="507.7813" y2="507.7813"/><line style="stroke:#181818;stroke-width:1.0;" x1="494.5" x2="494.5" y1="507.7813" y2="520.7813"/><line style="stroke:#181818;stroke-width:1.0;" x1="453.5" x2="494.5" y1="520.7813" y2="520.7813"/><polygon fill="#181818" points="463.5,516.7813,453.5,520.7813,463.5,524.7813,459.5,520.7813" style="stroke:#181818;stroke-width:1.0;"/><text fill="#000000" font-family="sans-serif" font-size="13" font-weight="bold" lengthAdjust="spacing" textLength="7" x="459.5" y="503.0264">9</text><text fill="#000000" font-family="sans-serif" font-size="13" lengthAdjust="spacing" textLength="96" x="470.5" y="503.0264">keepAgentName</text><polygon fill="#181818" points="718.5,545.3047,728.5,549.3047,718.5,553.3047,722.5,549.3047" style="stroke:#181818;stroke-width:1.0;"/><line style="stroke:#181818;stroke-width:1.0;" x1="452.5" x2="724.5" y1="549.3047" y2="549.3047"/><text fill="#000000" font-family="sans-serif" font-size="13" font-weight="bold" lengthAdjust="spacing" textLength="14" x="459.5" y="544.5498">10</text><text fill="#000000" font-family="sans-serif" font-size="13" lengthAdjust="spacing" textLength="192" x="477.5" y="544.5498">getAgentPhone(keepAgentEmail)</text><rect fill="none" height="37.9297" style="stroke:#000000;stroke-width:1.5;" width="247" x="612" y="557.3047"/><path d="M612,557.3047 L674,557.3047 L674,563.3047 L664,573.3047 L612,573.3047 L612,557.3047 " fill="#EEEEEE" style="stroke:#000000;stroke-width:2.0;"/><text fill="#000000" font-family="sans-serif" font-size="13" font-weight="bold" lengthAdjust="spacing" textLength="17" x="625" y="571.0732">ref</text><text fill="#000000" font-family="sans-serif" font-size="12" lengthAdjust="spacing" textLength="92" x="689.5" y="588.168">Get Agent Phone</text><polygon fill="#181818" points="463.5,616.7578,453.5,620.7578,463.5,624.7578,459.5,620.7578" style="stroke:#181818;stroke-width:1.0;"/><line style="stroke:#181818;stroke-width:1.0;" x1="457.5" x2="734.5" y1="620.7578" y2="620.7578"/><text fill="#000000" font-family="sans-serif" font-size="13" font-weight="bold" lengthAdjust="spacing" textLength="14" x="469.5" y="616.0029">11</text><text fill="#000000" font-family="sans-serif" font-size="13" lengthAdjust="spacing" textLength="99" x="487.5" y="616.0029">keepAgentPhone</text><line style="stroke:#181818;stroke-width:1.0;" x1="452.5" x2="494.5" y1="649.2813" y2="649.2813"/><line style="stroke:#181818;stroke-width:1.0;" x1="494.5" x2="494.5" y1="649.2813" y2="662.2813"/><line style="stroke:#181818;stroke-width:1.0;" x1="453.5" x2="494.5" y1="662.2813" y2="662.2813"/><polygon fill="#181818" points="463.5,658.2813,453.5,662.2813,463.5,666.2813,459.5,662.2813" style="stroke:#181818;stroke-width:1.0;"/><text fill="#000000" font-family="sans-serif" font-size="13" font-weight="bold" lengthAdjust="spacing" textLength="14" x="459.5" y="644.5264">12</text><text fill="#000000" font-family="sans-serif" font-size="13" lengthAdjust="spacing" textLength="99" x="477.5" y="644.5264">keepAgentPhone</text><polygon fill="#181818" points="718.5,686.8047,728.5,690.8047,718.5,694.8047,722.5,690.8047" style="stroke:#181818;stroke-width:1.0;"/><line style="stroke:#181818;stroke-width:1.0;" x1="452.5" x2="724.5" y1="690.8047" y2="690.8047"/><text fill="#000000" font-family="sans-serif" font-size="13" font-weight="bold" lengthAdjust="spacing" textLength="14" x="459.5" y="686.0498">13</text><text fill="#000000" font-family="sans-serif" font-size="13" lengthAdjust="spacing" textLength="199" x="477.5" y="686.0498">getAdsListAgent(keepAgentEmail)</text><rect fill="none" height="37.9297" style="stroke:#000000;stroke-width:1.5;" width="247" x="612" y="698.8047"/><path d="M612,698.8047 L674,698.8047 L674,704.8047 L664,714.8047 L612,714.8047 L612,698.8047 " fill="#EEEEEE" style="stroke:#000000;stroke-width:2.0;"/><text fill="#000000" font-family="sans-serif" font-size="13" font-weight="bold" lengthAdjust="spacing" textLength="17" x="625" y="712.5732">ref</text><text fill="#000000" font-family="sans-serif" font-size="12" lengthAdjust="spacing" textLength="100" x="685.5" y="729.668">Get Agent Ads List</text><polygon fill="#181818" points="463.5,758.2578,453.5,762.2578,463.5,766.2578,459.5,762.2578" style="stroke:#181818;stroke-width:1.0;"/><line style="stroke:#181818;stroke-width:1.0;" x1="457.5" x2="734.5" y1="762.2578" y2="762.2578"/><text fill="#000000" font-family="sans-serif" font-size="13" font-weight="bold" lengthAdjust="spacing" textLength="14" x="469.5" y="757.5029">14</text><text fill="#000000" font-family="sans-serif" font-size="13" lengthAdjust="spacing" textLength="100" x="487.5" y="757.5029">advAgentDTOList</text><polygon fill="#181818" points="67.5,786.7813,57.5,790.7813,67.5,794.7813,63.5,790.7813" style="stroke:#181818;stroke-width:1.0;"/><line style="stroke:#181818;stroke-width:1.0;" x1="61.5" x2="441.5" y1="790.7813" y2="790.7813"/><text fill="#000000" font-family="sans-serif" font-size="13" font-weight="bold" lengthAdjust="spacing" textLength="14" x="73.5" y="786.0264">15</text><text fill="#000000" font-family="sans-serif" font-size="13" lengthAdjust="spacing" textLength="253" x="91.5" y="786.0264">displayAdsAgentVisitList(advAgentDTOList)</text><path d="M20,805.7813 L93,805.7813 L93,812.3047 L83,822.3047 L20,822.3047 L20,805.7813 " fill="#EEEEEE" style="stroke:#000000;stroke-width:1.5;"/><rect fill="none" height="45.0469" style="stroke:#000000;stroke-width:1.5;" width="533" x="20" y="805.7813"/><text fill="#000000" font-family="sans-serif" font-size="13" font-weight="bold" lengthAdjust="spacing" textLength="28" x="35" y="818.5498">loop</text><text fill="#000000" font-family="sans-serif" font-size="11" font-weight="bold" lengthAdjust="spacing" textLength="77" x="108" y="817.7393">[(for each ad)]</text><polygon fill="#181818" points="67.5,838.8281,57.5,842.8281,67.5,846.8281,63.5,842.8281" style="stroke:#181818;stroke-width:1.0;"/><line style="stroke:#181818;stroke-width:1.0;" x1="61.5" x2="441.5" y1="842.8281" y2="842.8281"/><text fill="#000000" font-family="sans-serif" font-size="13" font-weight="bold" lengthAdjust="spacing" textLength="14" x="73.5" y="838.0732">16</text><text fill="#000000" font-family="sans-serif" font-size="13" lengthAdjust="spacing" textLength="165" x="91.5" y="838.0732">displayAd(advAgentDTOList)</text><polygon fill="#181818" points="67.5,874.3516,57.5,878.3516,67.5,882.3516,63.5,878.3516" style="stroke:#181818;stroke-width:1.0;"/><line style="stroke:#181818;stroke-width:1.0;" x1="61.5" x2="441.5" y1="878.3516" y2="878.3516"/><text fill="#000000" font-family="sans-serif" font-size="13" font-weight="bold" lengthAdjust="spacing" textLength="14" x="73.5" y="873.5967">17</text><text fill="#000000" font-family="sans-serif" font-size="13" lengthAdjust="spacing" textLength="209" x="91.5" y="873.5967">ask To Choose One Advertisement()</text><polygon fill="#181818" points="430.5,902.875,440.5,906.875,430.5,910.875,434.5,906.875" style="stroke:#181818;stroke-width:1.0;"/><line style="stroke:#181818;stroke-width:1.0;" x1="56.5" x2="436.5" y1="906.875" y2="906.875"/><text fill="#000000" font-family="sans-serif" font-size="13" font-weight="bold" lengthAdjust="spacing" textLength="14" x="63.5" y="902.1201">18</text><text fill="#000000" font-family="sans-serif" font-size="13" lengthAdjust="spacing" textLength="139" x="81.5" y="902.1201">selects a Advertisement</text><line style="stroke:#181818;stroke-width:1.0;" x1="452.5" x2="494.5" y1="935.3984" y2="935.3984"/><line style="stroke:#181818;stroke-width:1.0;" x1="494.5" x2="494.5" y1="935.3984" y2="948.3984"/><line style="stroke:#181818;stroke-width:1.0;" x1="453.5" x2="494.5" y1="948.3984" y2="948.3984"/><polygon fill="#181818" points="463.5,944.3984,453.5,948.3984,463.5,952.3984,459.5,948.3984" style="stroke:#181818;stroke-width:1.0;"/><text fill="#000000" font-family="sans-serif" font-size="13" font-weight="bold" lengthAdjust="spacing" textLength="14" x="459.5" y="930.6436">19</text><text fill="#000000" font-family="sans-serif" font-size="13" lengthAdjust="spacing" textLength="129" x="477.5" y="930.6436">keepAdvertismentDTO</text><polygon fill="#181818" points="718.5,972.9219,728.5,976.9219,718.5,980.9219,722.5,976.9219" style="stroke:#181818;stroke-width:1.0;"/><line style="stroke:#181818;stroke-width:1.0;" x1="452.5" x2="724.5" y1="976.9219" y2="976.9219"/><text fill="#000000" font-family="sans-serif" font-size="13" font-weight="bold" lengthAdjust="spacing" textLength="14" x="459.5" y="972.167">20</text><text fill="#000000" font-family="sans-serif" font-size="13" lengthAdjust="spacing" textLength="234" x="477.5" y="972.167">getAdFromDTO(keepAdvertisementDTO)</text><rect fill="none" height="37.9297" style="stroke:#000000;stroke-width:1.5;" width="247" x="612" y="984.9219"/><path d="M612,984.9219 L674,984.9219 L674,990.9219 L664,1000.9219 L612,1000.9219 L612,984.9219 " fill="#EEEEEE" style="stroke:#000000;stroke-width:2.0;"/><text fill="#000000" font-family="sans-serif" font-size="13" font-weight="bold" lengthAdjust="spacing" textLength="17" x="625" y="998.6904">ref</text><text fill="#000000" font-family="sans-serif" font-size="12" lengthAdjust="spacing" textLength="124" x="673.5" y="1015.7852">Get List Visits From Ad</text><polygon fill="#181818" points="463.5,1044.375,453.5,1048.375,463.5,1052.375,459.5,1048.375" style="stroke:#181818;stroke-width:1.0;"/><line style="stroke:#181818;stroke-width:1.0;" x1="457.5" x2="734.5" y1="1048.375" y2="1048.375"/><text fill="#000000" font-family="sans-serif" font-size="13" font-weight="bold" lengthAdjust="spacing" textLength="14" x="469.5" y="1043.6201">21</text><text fill="#000000" font-family="sans-serif" font-size="13" lengthAdjust="spacing" textLength="96" x="487.5" y="1043.6201">visitsListFromAd</text><path d="M20,1063.375 L93,1063.375 L93,1069.8984 L83,1079.8984 L20,1079.8984 L20,1063.375 " fill="#EEEEEE" style="stroke:#000000;stroke-width:1.5;"/><rect fill="none" height="45.0469" style="stroke:#000000;stroke-width:1.5;" width="533" x="20" y="1063.375"/><text fill="#000000" font-family="sans-serif" font-size="13" font-weight="bold" lengthAdjust="spacing" textLength="28" x="35" y="1076.1436">loop</text><text fill="#000000" font-family="sans-serif" font-size="11" font-weight="bold" lengthAdjust="spacing" textLength="87" x="108" y="1075.333">[(for each visit)]</text><polygon fill="#181818" points="67.5,1096.4219,57.5,1100.4219,67.5,1104.4219,63.5,1100.4219" style="stroke:#181818;stroke-width:1.0;"/><line style="stroke:#181818;stroke-width:1.0;" x1="61.5" x2="441.5" y1="1100.4219" y2="1100.4219"/><text fill="#000000" font-family="sans-serif" font-size="13" font-weight="bold" lengthAdjust="spacing" textLength="14" x="73.5" y="1095.667">22</text><text fill="#000000" font-family="sans-serif" font-size="13" lengthAdjust="spacing" textLength="171" x="91.5" y="1095.667">displayVisit(visitsListFromAd)</text><polygon fill="#181818" points="67.5,1131.9453,57.5,1135.9453,67.5,1139.9453,63.5,1135.9453" style="stroke:#181818;stroke-width:1.0;"/><line style="stroke:#181818;stroke-width:1.0;" x1="61.5" x2="446.5" y1="1135.9453" y2="1135.9453"/><text fill="#000000" font-family="sans-serif" font-size="13" font-weight="bold" lengthAdjust="spacing" textLength="14" x="73.5" y="1131.1904">23</text><text fill="#000000" font-family="sans-serif" font-size="13" lengthAdjust="spacing" textLength="202" x="91.5" y="1131.1904">ask To Choose one Visit Request()</text><polygon fill="#181818" points="430.5,1160.4688,440.5,1164.4688,430.5,1168.4688,434.5,1164.4688" style="stroke:#181818;stroke-width:1.0;"/><line style="stroke:#181818;stroke-width:1.0;" x1="56.5" x2="436.5" y1="1164.4688" y2="1164.4688"/><text fill="#000000" font-family="sans-serif" font-size="13" font-weight="bold" lengthAdjust="spacing" textLength="14" x="63.5" y="1159.7139">24</text><text fill="#000000" font-family="sans-serif" font-size="13" lengthAdjust="spacing" textLength="135" x="81.5" y="1159.7139">selects a Visit Request</text><line style="stroke:#181818;stroke-width:1.0;" x1="452.5" x2="494.5" y1="1192.9922" y2="1192.9922"/><line style="stroke:#181818;stroke-width:1.0;" x1="494.5" x2="494.5" y1="1192.9922" y2="1205.9922"/><line style="stroke:#181818;stroke-width:1.0;" x1="453.5" x2="494.5" y1="1205.9922" y2="1205.9922"/><polygon fill="#181818" points="463.5,1201.9922,453.5,1205.9922,463.5,1209.9922,459.5,1205.9922" style="stroke:#181818;stroke-width:1.0;"/><text fill="#000000" font-family="sans-serif" font-size="13" font-weight="bold" lengthAdjust="spacing" textLength="14" x="459.5" y="1188.2373">25</text><text fill="#000000" font-family="sans-serif" font-size="13" lengthAdjust="spacing" textLength="102" x="477.5" y="1188.2373">keepVisitRequest</text><polygon fill="#181818" points="67.5,1245.0391,57.5,1249.0391,67.5,1253.0391,63.5,1249.0391" style="stroke:#181818;stroke-width:1.0;"/><line style="stroke:#181818;stroke-width:1.0;" x1="61.5" x2="446.5" y1="1249.0391" y2="1249.0391"/><text fill="#000000" font-family="sans-serif" font-size="13" font-weight="bold" lengthAdjust="spacing" textLength="14" x="73.5" y="1237.0225">26</text><text fill="#000000" font-family="sans-serif" font-size="13" lengthAdjust="spacing" textLength="254" x="91.5" y="1229.7607">Display Ad and Visit and ask for a response</text><text fill="#000000" font-family="sans-serif" font-size="13" lengthAdjust="spacing" textLength="344" x="91.5" y="1244.2842">to Visit Request (keepAdvertismentDTO, keepVisitRequest)</text><polygon fill="#181818" points="430.5,1273.5625,440.5,1277.5625,430.5,1281.5625,434.5,1277.5625" style="stroke:#181818;stroke-width:1.0;"/><line style="stroke:#181818;stroke-width:1.0;" x1="56.5" x2="436.5" y1="1277.5625" y2="1277.5625"/><text fill="#000000" font-family="sans-serif" font-size="13" font-weight="bold" lengthAdjust="spacing" textLength="14" x="63.5" y="1272.8076">27</text><text fill="#000000" font-family="sans-serif" font-size="13" lengthAdjust="spacing" textLength="150" x="81.5" y="1272.8076">responds to Visit Request</text><polygon fill="#181818" points="718.5,1302.0859,728.5,1306.0859,718.5,1310.0859,722.5,1306.0859" style="stroke:#181818;stroke-width:1.0;"/><line style="stroke:#181818;stroke-width:1.0;" x1="452.5" x2="724.5" y1="1306.0859" y2="1306.0859"/><text fill="#000000" font-family="sans-serif" font-size="13" font-weight="bold" lengthAdjust="spacing" textLength="14" x="459.5" y="1301.3311">28</text><text fill="#000000" font-family="sans-serif" font-size="13" lengthAdjust="spacing" textLength="148" x="477.5" y="1301.3311">getClientEmailFromVisit()</text><rect fill="none" height="37.9297" style="stroke:#000000;stroke-width:1.5;" width="247" x="612" y="1314.0859"/><path d="M612,1314.0859 L674,1314.0859 L674,1320.0859 L664,1330.0859 L612,1330.0859 L612,1314.0859 " fill="#EEEEEE" style="stroke:#000000;stroke-width:2.0;"/><text fill="#000000" font-family="sans-serif" font-size="13" font-weight="bold" lengthAdjust="spacing" textLength="17" x="625" y="1327.8545">ref</text><text fill="#000000" font-family="sans-serif" font-size="12" lengthAdjust="spacing" textLength="147" x="662" y="1344.9492">Get Client Email From Visit</text><polygon fill="#181818" points="463.5,1373.5391,453.5,1377.5391,463.5,1381.5391,459.5,1377.5391" style="stroke:#181818;stroke-width:1.0;"/><line style="stroke:#181818;stroke-width:1.0;" x1="457.5" x2="734.5" y1="1377.5391" y2="1377.5391"/><text fill="#000000" font-family="sans-serif" font-size="13" font-weight="bold" lengthAdjust="spacing" textLength="14" x="469.5" y="1372.7842">29</text><text fill="#000000" font-family="sans-serif" font-size="13" lengthAdjust="spacing" textLength="94" x="487.5" y="1372.7842">keepClientEmail</text><line style="stroke:#181818;stroke-width:1.0;" x1="452.5" x2="494.5" y1="1406.0625" y2="1406.0625"/><line style="stroke:#181818;stroke-width:1.0;" x1="494.5" x2="494.5" y1="1406.0625" y2="1419.0625"/><line style="stroke:#181818;stroke-width:1.0;" x1="453.5" x2="494.5" y1="1419.0625" y2="1419.0625"/><polygon fill="#181818" points="463.5,1415.0625,453.5,1419.0625,463.5,1423.0625,459.5,1419.0625" style="stroke:#181818;stroke-width:1.0;"/><text fill="#000000" font-family="sans-serif" font-size="13" font-weight="bold" lengthAdjust="spacing" textLength="14" x="459.5" y="1401.3076">30</text><text fill="#000000" font-family="sans-serif" font-size="13" lengthAdjust="spacing" textLength="94" x="477.5" y="1401.3076">keepClientEmail</text><polygon fill="#181818" points="718.5,1443.5859,728.5,1447.5859,718.5,1451.5859,722.5,1447.5859" style="stroke:#181818;stroke-width:1.0;"/><line style="stroke:#181818;stroke-width:1.0;" x1="452.5" x2="724.5" y1="1447.5859" y2="1447.5859"/><text fill="#000000" font-family="sans-serif" font-size="13" font-weight="bold" lengthAdjust="spacing" textLength="14" x="459.5" y="1442.8311">31</text><text fill="#000000" font-family="sans-serif" font-size="13" lengthAdjust="spacing" textLength="241" x="477.5" y="1442.8311">getNameClientFromMail(keepClientEmail)</text><rect fill="none" height="37.9297" style="stroke:#000000;stroke-width:1.5;" width="247" x="612" y="1455.5859"/><path d="M612,1455.5859 L674,1455.5859 L674,1461.5859 L664,1471.5859 L612,1471.5859 L612,1455.5859 " fill="#EEEEEE" style="stroke:#000000;stroke-width:2.0;"/><text fill="#000000" font-family="sans-serif" font-size="13" font-weight="bold" lengthAdjust="spacing" textLength="17" x="625" y="1469.3545">ref</text><text fill="#000000" font-family="sans-serif" font-size="12" lengthAdjust="spacing" textLength="158" x="656.5" y="1486.4492">Get Client Name From Email</text><polygon fill="#181818" points="463.5,1515.0391,453.5,1519.0391,463.5,1523.0391,459.5,1519.0391" style="stroke:#181818;stroke-width:1.0;"/><line style="stroke:#181818;stroke-width:1.0;" x1="457.5" x2="734.5" y1="1519.0391" y2="1519.0391"/><text fill="#000000" font-family="sans-serif" font-size="13" font-weight="bold" lengthAdjust="spacing" textLength="14" x="469.5" y="1514.2842">32</text><text fill="#000000" font-family="sans-serif" font-size="13" lengthAdjust="spacing" textLength="95" x="487.5" y="1514.2842">keepClientName</text><line style="stroke:#181818;stroke-width:1.0;" x1="452.5" x2="494.5" y1="1547.5625" y2="1547.5625"/><line style="stroke:#181818;stroke-width:1.0;" x1="494.5" x2="494.5" y1="1547.5625" y2="1560.5625"/><line style="stroke:#181818;stroke-width:1.0;" x1="453.5" x2="494.5" y1="1560.5625" y2="1560.5625"/><polygon fill="#181818" points="463.5,1556.5625,453.5,1560.5625,463.5,1564.5625,459.5,1560.5625" style="stroke:#181818;stroke-width:1.0;"/><text fill="#000000" font-family="sans-serif" font-size="13" font-weight="bold" lengthAdjust="spacing" textLength="14" x="459.5" y="1542.8076">33</text><text fill="#000000" font-family="sans-serif" font-size="13" lengthAdjust="spacing" textLength="95" x="477.5" y="1542.8076">keepClientName</text><polygon fill="#181818" points="718.5,1585.0859,728.5,1589.0859,718.5,1593.0859,722.5,1589.0859" style="stroke:#181818;stroke-width:1.0;"/><line style="stroke:#181818;stroke-width:1.0;" x1="452.5" x2="724.5" y1="1589.0859" y2="1589.0859"/><text fill="#000000" font-family="sans-serif" font-size="13" font-weight="bold" lengthAdjust="spacing" textLength="14" x="459.5" y="1584.3311">34</text><text fill="#000000" font-family="sans-serif" font-size="13" lengthAdjust="spacing" textLength="137" x="477.5" y="1584.3311">respondEmail(YES/NO)</text><rect fill="none" height="37.9297" style="stroke:#000000;stroke-width:1.5;" width="247" x="612" y="1597.0859"/><path d="M612,1597.0859 L674,1597.0859 L674,1603.0859 L664,1613.0859 L612,1613.0859 L612,1597.0859 " fill="#EEEEEE" style="stroke:#000000;stroke-width:2.0;"/><text fill="#000000" font-family="sans-serif" font-size="13" font-weight="bold" lengthAdjust="spacing" textLength="17" x="625" y="1610.8545">ref</text><text fill="#000000" font-family="sans-serif" font-size="12" lengthAdjust="spacing" textLength="103" x="684" y="1627.9492">Get Email Platform</text><path d="M10,1647.0156 L71,1647.0156 L71,1653.5391 L61,1663.5391 L10,1663.5391 L10,1647.0156 " fill="#EEEEEE" style="stroke:#000000;stroke-width:1.5;"/><rect fill="none" height="692.0625" style="stroke:#000000;stroke-width:1.5;" width="866" x="10" y="1647.0156"/><text fill="#000000" font-family="sans-serif" font-size="13" font-weight="bold" lengthAdjust="spacing" textLength="16" x="25" y="1659.7842">alt</text><text fill="#000000" font-family="sans-serif" font-size="11" font-weight="bold" lengthAdjust="spacing" textLength="141" x="86" y="1658.9736">[(EMAIL.FORMAT=GMAIL)]</text><path d="M20,1670.5391 L81,1670.5391 L81,1677.0625 L71,1687.0625 L20,1687.0625 L20,1670.5391 " fill="#EEEEEE" style="stroke:#000000;stroke-width:1.5;"/><rect fill="none" height="316.625" style="stroke:#000000;stroke-width:1.5;" width="846" x="20" y="1670.5391"/><text fill="#000000" font-family="sans-serif" font-size="13" font-weight="bold" lengthAdjust="spacing" textLength="16" x="35" y="1683.3076">alt</text><text fill="#000000" font-family="sans-serif" font-size="11" font-weight="bold" lengthAdjust="spacing" textLength="31" x="96" y="1682.4971">[(NO)]</text><rect fill="none" height="37.9297" style="stroke:#000000;stroke-width:1.5;" width="247" x="612" y="1687.0625"/><path d="M612,1687.0625 L674,1687.0625 L674,1693.0625 L664,1703.0625 L612,1703.0625 L612,1687.0625 " fill="#EEEEEE" style="stroke:#000000;stroke-width:2.0;"/><text fill="#000000" font-family="sans-serif" font-size="13" font-weight="bold" lengthAdjust="spacing" textLength="17" x="625" y="1700.8311">ref</text><text fill="#000000" font-family="sans-serif" font-size="12" lengthAdjust="spacing" textLength="239" x="616" y="1717.9258">Respond Booking Request GMAIL Rejected</text><polygon fill="#181818" points="463.5,1746.5156,453.5,1750.5156,463.5,1754.5156,459.5,1750.5156" style="stroke:#181818;stroke-width:1.0;"/><line style="stroke:#181818;stroke-width:1.0;" x1="457.5" x2="729.5" y1="1750.5156" y2="1750.5156"/><text fill="#000000" font-family="sans-serif" font-size="13" font-weight="bold" lengthAdjust="spacing" textLength="14" x="469.5" y="1745.7607">35</text><text fill="#000000" font-family="sans-serif" font-size="13" lengthAdjust="spacing" textLength="115" x="487.5" y="1745.7607">emailSendRejection</text><polygon fill="#181818" points="67.5,1775.0391,57.5,1779.0391,67.5,1783.0391,63.5,1779.0391" style="stroke:#181818;stroke-width:1.0;"/><line style="stroke:#181818;stroke-width:1.0;" x1="61.5" x2="441.5" y1="1779.0391" y2="1779.0391"/><text fill="#000000" font-family="sans-serif" font-size="13" font-weight="bold" lengthAdjust="spacing" textLength="14" x="73.5" y="1774.2842">36</text><text fill="#000000" font-family="sans-serif" font-size="13" lengthAdjust="spacing" textLength="192" x="91.5" y="1774.2842">send Email (emailSendRejection)</text><rect fill="none" height="37.9297" style="stroke:#000000;stroke-width:1.5;" width="247" x="612" y="1787.0391"/><path d="M612,1787.0391 L674,1787.0391 L674,1793.0391 L664,1803.0391 L612,1803.0391 L612,1787.0391 " fill="#EEEEEE" style="stroke:#000000;stroke-width:2.0;"/><text fill="#000000" font-family="sans-serif" font-size="13" font-weight="bold" lengthAdjust="spacing" textLength="17" x="625" y="1800.8076">ref</text><text fill="#000000" font-family="sans-serif" font-size="12" lengthAdjust="spacing" textLength="160" x="655.5" y="1817.9023">Change Visit Status Rejected</text><line style="stroke:#000000;stroke-width:1.0;stroke-dasharray:2.0,2.0;" x1="20" x2="866" y1="1830.9688" y2="1830.9688"/><text fill="#000000" font-family="sans-serif" font-size="11" font-weight="bold" lengthAdjust="spacing" textLength="36" x="25" y="1840.9268">[(YES)]</text><rect fill="none" height="37.9297" style="stroke:#000000;stroke-width:1.5;" width="248" x="612" y="1844.2578"/><path d="M612,1844.2578 L674,1844.2578 L674,1850.2578 L664,1860.2578 L612,1860.2578 L612,1844.2578 " fill="#EEEEEE" style="stroke:#000000;stroke-width:2.0;"/><text fill="#000000" font-family="sans-serif" font-size="13" font-weight="bold" lengthAdjust="spacing" textLength="17" x="625" y="1858.0264">ref</text><text fill="#000000" font-family="sans-serif" font-size="12" lengthAdjust="spacing" textLength="240" x="616" y="1875.1211">Respond Booking Request GMAIL Accepted</text><polygon fill="#181818" points="463.5,1903.7109,453.5,1907.7109,463.5,1911.7109,459.5,1907.7109" style="stroke:#181818;stroke-width:1.0;"/><line style="stroke:#181818;stroke-width:1.0;" x1="457.5" x2="729.5" y1="1907.7109" y2="1907.7109"/><text fill="#000000" font-family="sans-serif" font-size="13" font-weight="bold" lengthAdjust="spacing" textLength="14" x="469.5" y="1902.9561">37</text><text fill="#000000" font-family="sans-serif" font-size="13" lengthAdjust="spacing" textLength="133" x="487.5" y="1902.9561">emailSendConfirmation</text><polygon fill="#181818" points="67.5,1932.2344,57.5,1936.2344,67.5,1940.2344,63.5,1936.2344" style="stroke:#181818;stroke-width:1.0;"/><line style="stroke:#181818;stroke-width:1.0;" x1="61.5" x2="441.5" y1="1936.2344" y2="1936.2344"/><text fill="#000000" font-family="sans-serif" font-size="13" font-weight="bold" lengthAdjust="spacing" textLength="14" x="73.5" y="1931.4795">38</text><text fill="#000000" font-family="sans-serif" font-size="13" lengthAdjust="spacing" textLength="210" x="91.5" y="1931.4795">send Email (emailSendConfirmation)</text><rect fill="none" height="37.9297" style="stroke:#000000;stroke-width:1.5;" width="247" x="612" y="1944.2344"/><path d="M612,1944.2344 L674,1944.2344 L674,1950.2344 L664,1960.2344 L612,1960.2344 L612,1944.2344 " fill="#EEEEEE" style="stroke:#000000;stroke-width:2.0;"/><text fill="#000000" font-family="sans-serif" font-size="13" font-weight="bold" lengthAdjust="spacing" textLength="17" x="625" y="1958.0029">ref</text><text fill="#000000" font-family="sans-serif" font-size="12" lengthAdjust="spacing" textLength="161" x="655" y="1975.0977">Change Visit Status Accepted</text><line style="stroke:#000000;stroke-width:1.0;stroke-dasharray:2.0,2.0;" x1="10" x2="876" y1="1995.1641" y2="1995.1641"/><text fill="#000000" font-family="sans-serif" font-size="11" font-weight="bold" lengthAdjust="spacing" textLength="121" x="15" y="2005.1221">[(EMAIL.FORMAT=DEI)]</text><path d="M20,2015.4531 L81,2015.4531 L81,2021.9766 L71,2031.9766 L20,2031.9766 L20,2015.4531 " fill="#EEEEEE" style="stroke:#000000;stroke-width:1.5;"/><rect fill="none" height="316.625" style="stroke:#000000;stroke-width:1.5;" width="846" x="20" y="2015.4531"/><text fill="#000000" font-family="sans-serif" font-size="13" font-weight="bold" lengthAdjust="spacing" textLength="16" x="35" y="2028.2217">alt</text><text fill="#000000" font-family="sans-serif" font-size="11" font-weight="bold" lengthAdjust="spacing" textLength="31" x="96" y="2027.4111">[(NO)]</text><rect fill="none" height="37.9297" style="stroke:#000000;stroke-width:1.5;" width="247" x="612" y="2031.9766"/><path d="M612,2031.9766 L674,2031.9766 L674,2037.9766 L664,2047.9766 L612,2047.9766 L612,2031.9766 " fill="#EEEEEE" style="stroke:#000000;stroke-width:2.0;"/><text fill="#000000" font-family="sans-serif" font-size="13" font-weight="bold" lengthAdjust="spacing" textLength="17" x="625" y="2045.7451">ref</text><text fill="#000000" font-family="sans-serif" font-size="12" lengthAdjust="spacing" textLength="224" x="623.5" y="2062.8398">Respond Booking Request DEI Rejected</text><polygon fill="#181818" points="463.5,2091.4297,453.5,2095.4297,463.5,2099.4297,459.5,2095.4297" style="stroke:#181818;stroke-width:1.0;"/><line style="stroke:#181818;stroke-width:1.0;" x1="457.5" x2="729.5" y1="2095.4297" y2="2095.4297"/><text fill="#000000" font-family="sans-serif" font-size="13" font-weight="bold" lengthAdjust="spacing" textLength="14" x="469.5" y="2090.6748">39</text><text fill="#000000" font-family="sans-serif" font-size="13" lengthAdjust="spacing" textLength="115" x="487.5" y="2090.6748">emailSendRejection</text><polygon fill="#181818" points="67.5,2119.9531,57.5,2123.9531,67.5,2127.9531,63.5,2123.9531" style="stroke:#181818;stroke-width:1.0;"/><line style="stroke:#181818;stroke-width:1.0;" x1="61.5" x2="441.5" y1="2123.9531" y2="2123.9531"/><text fill="#000000" font-family="sans-serif" font-size="13" font-weight="bold" lengthAdjust="spacing" textLength="14" x="73.5" y="2119.1982">40</text><text fill="#000000" font-family="sans-serif" font-size="13" lengthAdjust="spacing" textLength="192" x="91.5" y="2119.1982">send Email (emailSendRejection)</text><rect fill="none" height="37.9297" style="stroke:#000000;stroke-width:1.5;" width="247" x="612" y="2131.9531"/><path d="M612,2131.9531 L674,2131.9531 L674,2137.9531 L664,2147.9531 L612,2147.9531 L612,2131.9531 " fill="#EEEEEE" style="stroke:#000000;stroke-width:2.0;"/><text fill="#000000" font-family="sans-serif" font-size="13" font-weight="bold" lengthAdjust="spacing" textLength="17" x="625" y="2145.7217">ref</text><text fill="#000000" font-family="sans-serif" font-size="12" lengthAdjust="spacing" textLength="160" x="655.5" y="2162.8164">Change Visit Status Rejected</text><line style="stroke:#000000;stroke-width:1.0;stroke-dasharray:2.0,2.0;" x1="20" x2="866" y1="2175.8828" y2="2175.8828"/><text fill="#000000" font-family="sans-serif" font-size="11" font-weight="bold" lengthAdjust="spacing" textLength="36" x="25" y="2185.8408">[(YES)]</text><rect fill="none" height="37.9297" style="stroke:#000000;stroke-width:1.5;" width="247" x="612" y="2189.1719"/><path d="M612,2189.1719 L674,2189.1719 L674,2195.1719 L664,2205.1719 L612,2205.1719 L612,2189.1719 " fill="#EEEEEE" style="stroke:#000000;stroke-width:2.0;"/><text fill="#000000" font-family="sans-serif" font-size="13" font-weight="bold" lengthAdjust="spacing" textLength="17" x="625" y="2202.9404">ref</text><text fill="#000000" font-family="sans-serif" font-size="12" lengthAdjust="spacing" textLength="225" x="623" y="2220.0352">Respond Booking Request DEI Accepted</text><polygon fill="#181818" points="463.5,2248.625,453.5,2252.625,463.5,2256.625,459.5,2252.625" style="stroke:#181818;stroke-width:1.0;"/><line style="stroke:#181818;stroke-width:1.0;" x1="457.5" x2="729.5" y1="2252.625" y2="2252.625"/><text fill="#000000" font-family="sans-serif" font-size="13" font-weight="bold" lengthAdjust="spacing" textLength="14" x="469.5" y="2247.8701">41</text><text fill="#000000" font-family="sans-serif" font-size="13" lengthAdjust="spacing" textLength="133" x="487.5" y="2247.8701">emailSendConfirmation</text><polygon fill="#181818" points="67.5,2277.1484,57.5,2281.1484,67.5,2285.1484,63.5,2281.1484" style="stroke:#181818;stroke-width:1.0;"/><line style="stroke:#181818;stroke-width:1.0;" x1="61.5" x2="441.5" y1="2281.1484" y2="2281.1484"/><text fill="#000000" font-family="sans-serif" font-size="13" font-weight="bold" lengthAdjust="spacing" textLength="14" x="73.5" y="2276.3936">42</text><text fill="#000000" font-family="sans-serif" font-size="13" lengthAdjust="spacing" textLength="210" x="91.5" y="2276.3936">send Email (emailSendConfirmation)</text><rect fill="none" height="37.9297" style="stroke:#000000;stroke-width:1.5;" width="247" x="612" y="2289.1484"/><path d="M612,2289.1484 L674,2289.1484 L674,2295.1484 L664,2305.1484 L612,2305.1484 L612,2289.1484 " fill="#EEEEEE" style="stroke:#000000;stroke-width:2.0;"/><text fill="#000000" font-family="sans-serif" font-size="13" font-weight="bold" lengthAdjust="spacing" textLength="17" x="625" y="2302.917">ref</text><text fill="#000000" font-family="sans-serif" font-size="12" lengthAdjust="spacing" textLength="161" x="655" y="2320.0117">Change Visit Status Accepted</text><polygon fill="#181818" points="62.5,2362.6016,52.5,2366.6016,62.5,2370.6016,58.5,2366.6016" style="stroke:#181818;stroke-width:1.0;"/><line style="stroke:#181818;stroke-width:1.0;" x1="56.5" x2="446.5" y1="2366.6016" y2="2366.6016"/><text fill="#000000" font-family="sans-serif" font-size="13" font-weight="bold" lengthAdjust="spacing" textLength="14" x="68.5" y="2361.8467">43</text><text fill="#000000" font-family="sans-serif" font-size="13" lengthAdjust="spacing" textLength="158" x="86.5" y="2361.8467">displays operation success</text><!--SRC=[xLZ1Rjf04BtxAqQvr4HDUqTg9KfeX9I424YbIhbix05liRskTw7DttTcrn0RRC2GNgfo0dRUc_TcrhCBUY7JJEGYWKIbAeXobI2OV8cUtgna8bY8EKxCIuoGOs14Ee_B0JeIeVebqpdCHApHyyJIg7IPF6FkUUyY6IBCb3BFwZSj1KRbSD6ROsekG6Xur1H5F4O6CXEfWOlk67Mcql2BKfHYFiQVIzJcSUZ2XyS4zrLgSXN7c5jGVpg-jQdbIXXqAJsW5x-3gy_42bqAN6Wm2e98QOqWeE24WlGfXHdLXnPkfJOMpwzNsg6t-P88YPRpNbuITP0ZHMnMAp0hRlrjZZDGAn9L-PPVDsX8IAQqf09Ar9j5J4E6LO8P3LVMMDUhh8HOJLoZk0jpDBP1WqJ8sE-ShTkIWMKxGhPL3M8Ze8r-HYuGirVv-ntUYmJzAk2jx3BraMwX9Be2Q-lOWlSQVeXK-hSSM-uJB5TnRJqxT8rfwBBfKFFJQYFtsZxFEgMfJeM3xaMuij3hwQW2FCO-JQqkX59diNYXp9RdcwJ9m4p-5dF7ysAbCl1dD7Y9EABKdGEKDHnag0RZnYPC5VGZfMXgZbAaOb2rZDIOSD4xDQDMOqpdYAPHMebjx7CHb3X5pJiy_4e3cYByCWeBsFdRd4i1jj0QE1EfFxxXAujZ2eQMa8qTtsgR9TZVEQlDtyvKOBY3nxIG7YTdSdtmbKw0aixrSTVGs0h3mSEI2JRjjj0ribxnjVDB3G11XNV9-1rRuOe9QWPV3CZFKqg7UaKE-3MxwlrExkDjkroXlJwqCrxUllrOhcSJDyuri-ETisCTfJjwtPQrhEs6T4dNALEw36-opWUNYsEHTtpjs8AU__GMjU1KhXJjBYIlUauzealesZeKkyZTkhuF9X_lH-TrtxNz8HQ67ebanwadOdeK1dUzuUs7hwFnNM_wwOO_5FF2hfObD2ShBk7RDsQmTFJf1mq5t9sLNbsTaKLFACJ1f4gB1wuqxZGpE7V-RdnfHZPBxaVqCsOzw2P6cAK-81JfjmrmNywlI2y8C6jV4VfPCvDv8beKfGmvkIxxvTfpnHMdifUk1yEtsqb4zdyVRTNZdzf5ZNFKRQ_6kqjnyz6WCiojGD1BogHrq-djbJ_pNm5_0000]--></g></svg>