<?xml version="1.0" encoding="UTF-8" standalone="no"?><svg xmlns="http://www.w3.org/2000/svg" xmlns:xlink="http://www.w3.org/1999/xlink" contentStyleType="text/css" height="638px" preserveAspectRatio="none" style="width:414px;height:638px;background:#FFFFFF;" version="1.1" viewBox="0 0 414 638" width="414px" zoomAndPan="magnify"><defs/><g><rect fill="none" height="27.6094" id="_title" style="stroke:none;stroke-width:1.0;" width="396" x="5" y="10"/><text fill="#000000" font-family="sans-serif" font-size="14" font-weight="bold" lengthAdjust="spacing" textLength="386" x="10" y="29.5332">System Sequence Diagram (SSD) - List booking request</text><rect fill="#FFFFFF" height="400.2734" style="stroke:#181818;stroke-width:1.0;" width="10" x="43.25" y="131.2188"/><rect fill="#FFFFFF" height="30.3516" style="stroke:#181818;stroke-width:1.0;" width="10" x="343.25" y="153.5703"/><rect fill="#FFFFFF" height="30.3516" style="stroke:#181818;stroke-width:1.0;" width="10" x="343.25" y="214.2734"/><rect fill="#FFFFFF" height="88.4063" style="stroke:#181818;stroke-width:1.0;" width="10" x="343.25" y="274.9766"/><rect fill="#FFFFFF" height="46.7031" style="stroke:#181818;stroke-width:1.0;" width="10" x="343.25" y="393.7344"/><rect fill="#FFFFFF" height="30.3516" style="stroke:#181818;stroke-width:1.0;" width="10" x="343.25" y="470.7891"/><rect fill="none" height="249.5156" style="stroke:#000000;stroke-width:1.5;" width="373.5" x="16.75" y="289.9766"/><line style="stroke:#181818;stroke-width:0.5;stroke-dasharray:5.0,5.0;" x1="47.75" x2="47.75" y1="121.2188" y2="556.4922"/><line style="stroke:#181818;stroke-width:0.5;stroke-dasharray:5.0,5.0;" x1="348.25" x2="348.25" y1="121.2188" y2="556.4922"/><text fill="#000000" font-family="sans-serif" font-size="14" lengthAdjust="spacing" textLength="37" x="26.75" y="118.1426">Agent</text><ellipse cx="48.25" cy="52.1094" fill="#E3E3E3" rx="8" ry="8" style="stroke:#181818;stroke-width:0.5;"/><path d="M48.25,60.1094 L48.25,87.1094 M35.25,68.1094 L61.25,68.1094 M48.25,87.1094 L35.25,102.1094 M48.25,87.1094 L61.25,102.1094 " fill="none" style="stroke:#181818;stroke-width:0.5;"/><text fill="#000000" font-family="sans-serif" font-size="14" lengthAdjust="spacing" textLength="37" x="26.75" y="570.0254">Agent</text><ellipse cx="48.25" cy="581.6016" fill="#E3E3E3" rx="8" ry="8" style="stroke:#181818;stroke-width:0.5;"/><path d="M48.25,589.6016 L48.25,616.6016 M35.25,597.6016 L61.25,597.6016 M48.25,616.6016 L35.25,631.6016 M48.25,616.6016 L61.25,631.6016 " fill="none" style="stroke:#181818;stroke-width:0.5;"/><rect fill="#E3E3E3" height="31.6094" rx="2.5" ry="2.5" style="stroke:#181818;stroke-width:0.5;" width="64" x="316.25" y="88.6094"/><text fill="#000000" font-family="sans-serif" font-size="14" lengthAdjust="spacing" textLength="50" x="323.25" y="110.1426">:System</text><rect fill="#E3E3E3" height="31.6094" rx="2.5" ry="2.5" style="stroke:#181818;stroke-width:0.5;" width="64" x="316.25" y="555.4922"/><text fill="#000000" font-family="sans-serif" font-size="14" lengthAdjust="spacing" textLength="50" x="323.25" y="577.0254">:System</text><rect fill="#FFFFFF" height="400.2734" style="stroke:#181818;stroke-width:1.0;" width="10" x="43.25" y="131.2188"/><rect fill="#FFFFFF" height="30.3516" style="stroke:#181818;stroke-width:1.0;" width="10" x="343.25" y="153.5703"/><rect fill="#FFFFFF" height="30.3516" style="stroke:#181818;stroke-width:1.0;" width="10" x="343.25" y="214.2734"/><rect fill="#FFFFFF" height="88.4063" style="stroke:#181818;stroke-width:1.0;" width="10" x="343.25" y="274.9766"/><rect fill="#FFFFFF" height="46.7031" style="stroke:#181818;stroke-width:1.0;" width="10" x="343.25" y="393.7344"/><rect fill="#FFFFFF" height="30.3516" style="stroke:#181818;stroke-width:1.0;" width="10" x="343.25" y="470.7891"/><polygon fill="#181818" points="331.25,149.5703,341.25,153.5703,331.25,157.5703,335.25,153.5703" style="stroke:#181818;stroke-width:1.0;"/><line style="stroke:#181818;stroke-width:1.0;" x1="53.25" x2="337.25" y1="153.5703" y2="153.5703"/><text fill="#000000" font-family="sans-serif" font-size="13" font-weight="bold" lengthAdjust="spacing" textLength="7" x="60.25" y="148.7139">1</text><text fill="#000000" font-family="sans-serif" font-size="13" lengthAdjust="spacing" textLength="167" x="71.25" y="148.7139">asks to list booking requests</text><polygon fill="#181818" points="64.25,179.9219,54.25,183.9219,64.25,187.9219,60.25,183.9219" style="stroke:#181818;stroke-width:1.0;"/><line style="stroke:#181818;stroke-width:1.0;stroke-dasharray:2.0,2.0;" x1="58.25" x2="347.25" y1="183.9219" y2="183.9219"/><text fill="#000000" font-family="sans-serif" font-size="13" font-weight="bold" lengthAdjust="spacing" textLength="7" x="70.25" y="179.0654">2</text><text fill="#000000" font-family="sans-serif" font-size="13" lengthAdjust="spacing" textLength="172" x="81.25" y="179.0654">requests start date for filtering</text><polygon fill="#181818" points="331.25,210.2734,341.25,214.2734,331.25,218.2734,335.25,214.2734" style="stroke:#181818;stroke-width:1.0;"/><line style="stroke:#181818;stroke-width:1.0;" x1="53.25" x2="337.25" y1="214.2734" y2="214.2734"/><text fill="#000000" font-family="sans-serif" font-size="13" font-weight="bold" lengthAdjust="spacing" textLength="7" x="60.25" y="209.417">3</text><text fill="#000000" font-family="sans-serif" font-size="13" lengthAdjust="spacing" textLength="122" x="71.25" y="209.417">types requested data</text><polygon fill="#181818" points="64.25,240.625,54.25,244.625,64.25,248.625,60.25,244.625" style="stroke:#181818;stroke-width:1.0;"/><line style="stroke:#181818;stroke-width:1.0;stroke-dasharray:2.0,2.0;" x1="58.25" x2="347.25" y1="244.625" y2="244.625"/><text fill="#000000" font-family="sans-serif" font-size="13" font-weight="bold" lengthAdjust="spacing" textLength="7" x="70.25" y="239.7686">4</text><text fill="#000000" font-family="sans-serif" font-size="13" lengthAdjust="spacing" textLength="167" x="81.25" y="239.7686">requests end date for filtering</text><polygon fill="#181818" points="331.25,270.9766,341.25,274.9766,331.25,278.9766,335.25,274.9766" style="stroke:#181818;stroke-width:1.0;"/><line style="stroke:#181818;stroke-width:1.0;" x1="53.25" x2="337.25" y1="274.9766" y2="274.9766"/><text fill="#000000" font-family="sans-serif" font-size="13" font-weight="bold" lengthAdjust="spacing" textLength="7" x="60.25" y="270.1201">5</text><text fill="#000000" font-family="sans-serif" font-size="13" lengthAdjust="spacing" textLength="122" x="71.25" y="270.1201">types requested data</text><path d="M16.75,289.9766 L89.75,289.9766 L89.75,298.3281 L79.75,308.3281 L16.75,308.3281 L16.75,289.9766 " fill="#EEEEEE" style="stroke:#000000;stroke-width:1.5;"/><rect fill="none" height="249.5156" style="stroke:#000000;stroke-width:1.5;" width="373.5" x="16.75" y="289.9766"/><text fill="#000000" font-family="sans-serif" font-size="13" font-weight="bold" lengthAdjust="spacing" textLength="28" x="31.75" y="304.4717">loop</text><text fill="#000000" font-family="sans-serif" font-size="11" font-weight="bold" lengthAdjust="spacing" textLength="90" x="104.75" y="303.3955">[while intended]</text><polygon fill="#181818" points="64.25,359.3828,54.25,363.3828,64.25,367.3828,60.25,363.3828" style="stroke:#181818;stroke-width:1.0;"/><line style="stroke:#181818;stroke-width:1.0;stroke-dasharray:2.0,2.0;" x1="58.25" x2="347.25" y1="363.3828" y2="363.3828"/><text fill="#000000" font-family="sans-serif" font-size="13" font-weight="bold" lengthAdjust="spacing" textLength="7" x="70.25" y="342.1748">6</text><text fill="#000000" font-family="sans-serif" font-size="13" lengthAdjust="spacing" textLength="235" x="81.25" y="325.8232">displays advertisements assigned to him</text><text fill="#000000" font-family="sans-serif" font-size="13" lengthAdjust="spacing" textLength="132" x="81.25" y="342.1748">and asks to select one</text><text fill="#000000" font-family="sans-serif" font-size="13" lengthAdjust="spacing" textLength="166" x="81.25" y="358.5264">to show its booking requests</text><polygon fill="#181818" points="331.25,389.7344,341.25,393.7344,331.25,397.7344,335.25,393.7344" style="stroke:#181818;stroke-width:1.0;"/><line style="stroke:#181818;stroke-width:1.0;" x1="53.25" x2="337.25" y1="393.7344" y2="393.7344"/><text fill="#000000" font-family="sans-serif" font-size="13" font-weight="bold" lengthAdjust="spacing" textLength="7" x="60.25" y="388.8779">7</text><text fill="#000000" font-family="sans-serif" font-size="13" lengthAdjust="spacing" textLength="67" x="71.25" y="388.8779">selects one</text><polygon fill="#181818" points="64.25,436.4375,54.25,440.4375,64.25,444.4375,60.25,440.4375" style="stroke:#181818;stroke-width:1.0;"/><line style="stroke:#181818;stroke-width:1.0;stroke-dasharray:2.0,2.0;" x1="58.25" x2="347.25" y1="440.4375" y2="440.4375"/><text fill="#000000" font-family="sans-serif" font-size="13" font-weight="bold" lengthAdjust="spacing" textLength="7" x="70.25" y="427.4053">8</text><text fill="#000000" font-family="sans-serif" font-size="13" lengthAdjust="spacing" textLength="255" x="81.25" y="419.2295">lists booking requests for that advertisement</text><text fill="#000000" font-family="sans-serif" font-size="13" lengthAdjust="spacing" textLength="132" x="81.25" y="435.5811">and asks to select one</text><polygon fill="#181818" points="331.25,466.7891,341.25,470.7891,331.25,474.7891,335.25,470.7891" style="stroke:#181818;stroke-width:1.0;"/><line style="stroke:#181818;stroke-width:1.0;" x1="53.25" x2="337.25" y1="470.7891" y2="470.7891"/><text fill="#000000" font-family="sans-serif" font-size="13" font-weight="bold" lengthAdjust="spacing" textLength="7" x="60.25" y="465.9326">9</text><text fill="#000000" font-family="sans-serif" font-size="13" lengthAdjust="spacing" textLength="67" x="71.25" y="465.9326">selects one</text><polygon fill="#181818" points="64.25,497.1406,54.25,501.1406,64.25,505.1406,60.25,501.1406" style="stroke:#181818;stroke-width:1.0;"/><line style="stroke:#181818;stroke-width:1.0;stroke-dasharray:2.0,2.0;" x1="58.25" x2="347.25" y1="501.1406" y2="501.1406"/><text fill="#000000" font-family="sans-serif" font-size="13" font-weight="bold" lengthAdjust="spacing" textLength="14" x="70.25" y="496.2842">10</text><text fill="#000000" font-family="sans-serif" font-size="13" lengthAdjust="spacing" textLength="197" x="88.25" y="496.2842">asks whether to accept or reject it</text><polygon fill="#181818" points="336.25,527.4922,346.25,531.4922,336.25,535.4922,340.25,531.4922" style="stroke:#181818;stroke-width:1.0;"/><line style="stroke:#181818;stroke-width:1.0;" x1="48.25" x2="342.25" y1="531.4922" y2="531.4922"/><text fill="#000000" font-family="sans-serif" font-size="13" font-weight="bold" lengthAdjust="spacing" textLength="14" x="55.25" y="526.6357">11</text><text fill="#000000" font-family="sans-serif" font-size="13" lengthAdjust="spacing" textLength="67" x="73.25" y="526.6357">selects one</text><!--MD5=[4d6550f8c0c881728cdbd58a5fd79619]
@startuml System Sequence Diagram (SSD) - List booking request
skinparam monochrome true
skinparam packageStyle rectangle
skinparam shadowing false

title System Sequence Diagram (SSD) - List booking request

autonumber

actor "Agent" as Agent
participant ":System" as System

activate Agent

    Agent -> System : asks to list booking requests
    activate System
        System - -> Agent : requests start date for filtering
    deactivate System

    Agent -> System : types requested data
    activate System
        System - -> Agent : requests end date for filtering
    deactivate System

    Agent -> System : types requested data

loop while intended
    activate System
        System - -> Agent : displays advertisements assigned to him\nand asks to select one\nto show its booking requests
    deactivate System

    Agent -> System : selects one
    activate System
        System - -> Agent : lists booking requests for that advertisement\nand asks to select one
    deactivate System

    Agent -> System : selects one
    activate System
        System - -> Agent : asks whether to accept or reject it
    deactivate System

    Agent -> System : selects one
        
deactivate Agent

end

@enduml

PlantUML version 1.2022.7(Mon Aug 22 18:01:30 WEST 2022)
(GPL source distribution)
Java Runtime: Java(TM) SE Runtime Environment
JVM: Java HotSpot(TM) 64-Bit Server VM
Default Encoding: UTF-8
Language: en
Country: GB
--></g></svg>