<?xml version="1.0" encoding="us-ascii" standalone="no"?><svg xmlns="http://www.w3.org/2000/svg" xmlns:xlink="http://www.w3.org/1999/xlink" contentStyleType="text/css" height="1547px" preserveAspectRatio="none" style="width:540px;height:1547px;background:#FFFFFF;" version="1.1" viewBox="0 0 540 1547" width="540px" zoomAndPan="magnify"><defs/><g><text fill="#000000" font-family="sans-serif" font-size="14" font-weight="bold" lengthAdjust="spacing" textLength="228" x="157.25" y="27.6738">System Sequence Diagram (SSD)</text><rect fill="#FFFFFF" height="1330.2266" style="stroke:#181818;stroke-width:1.0;" width="10" x="77.5" y="127.2813"/><rect fill="#FFFFFF" height="28.5234" style="stroke:#181818;stroke-width:1.0;" width="10" x="476.5" y="147.8047"/><rect fill="#FFFFFF" height="57.5703" style="stroke:#181818;stroke-width:1.0;" width="10" x="476.5" y="204.8516"/><rect fill="#FFFFFF" height="52.0469" style="stroke:#181818;stroke-width:1.0;" width="10" x="476.5" y="319.9922"/><rect fill="#FFFFFF" height="66.5703" style="stroke:#181818;stroke-width:1.0;" width="10" x="476.5" y="400.5625"/><rect fill="#FFFFFF" height="49.8125" style="stroke:#181818;stroke-width:1.0;" width="10" x="476.5" y="510.1797"/><rect fill="#FFFFFF" height="28.5234" style="stroke:#181818;stroke-width:1.0;" width="10" x="476.5" y="588.5156"/><rect fill="#FFFFFF" height="52.0469" style="stroke:#181818;stroke-width:1.0;" width="10" x="476.5" y="645.5625"/><rect fill="#FFFFFF" height="42.5234" style="stroke:#181818;stroke-width:1.0;" width="10" x="476.5" y="726.1328"/><rect fill="#FFFFFF" height="75.5703" style="stroke:#181818;stroke-width:1.0;" width="10" x="476.5" y="797.1797"/><rect fill="#FFFFFF" height="42.5234" style="stroke:#181818;stroke-width:1.0;" width="10" x="476.5" y="901.2734"/><rect fill="#FFFFFF" height="52.0469" style="stroke:#181818;stroke-width:1.0;" width="10" x="476.5" y="972.3203"/><rect fill="#FFFFFF" height="52.0469" style="stroke:#181818;stroke-width:1.0;" width="10" x="476.5" y="1102.9375"/><rect fill="#FFFFFF" height="42.8125" style="stroke:#181818;stroke-width:1.0;" width="10" x="476.5" y="1183.5078"/><rect fill="#FFFFFF" height="50.0469" style="stroke:#181818;stroke-width:1.0;" width="10" x="476.5" y="1254.8438"/><rect fill="#FFFFFF" height="28.5234" style="stroke:#181818;stroke-width:1.0;" width="10" x="476.5" y="1333.4141"/><rect fill="#FFFFFF" height="52.0469" style="stroke:#181818;stroke-width:1.0;" width="10" x="476.5" y="1390.4609"/><rect fill="none" height="406.1406" style="stroke:#000000;stroke-width:1.5;" width="523.5" x="10" y="334.9922"/><rect fill="none" height="102.6172" style="stroke:#000000;stroke-width:1.5;" width="503.5" x="20" y="415.5625"/><rect fill="none" height="73.5703" style="stroke:#000000;stroke-width:1.5;" width="503.5" x="20" y="660.5625"/><rect fill="none" height="104.0938" style="stroke:#000000;stroke-width:1.5;" width="523.5" x="10" y="812.1797"/><rect fill="none" height="73.5703" style="stroke:#000000;stroke-width:1.5;" width="503.5" x="20" y="835.7031"/><rect fill="none" height="45.0469" style="stroke:#000000;stroke-width:1.5;" width="503.5" x="20" y="987.3203"/><rect fill="none" height="144.9063" style="stroke:#000000;stroke-width:1.5;" width="503.5" x="20" y="1117.9375"/><rect fill="none" height="45.0469" style="stroke:#000000;stroke-width:1.5;" width="503.5" x="20" y="1405.4609"/><line style="stroke:#181818;stroke-width:0.5;stroke-dasharray:5.0,5.0;" x1="82" x2="82" y1="117.2813" y2="1467.5078"/><line style="stroke:#181818;stroke-width:0.5;stroke-dasharray:5.0,5.0;" x1="481.5" x2="481.5" y1="117.2813" y2="1467.5078"/><text fill="#000000" font-family="sans-serif" font-size="14" lengthAdjust="spacing" textLength="99" x="30" y="114.3145">Property Owner</text><ellipse cx="82.5" cy="50.1406" fill="#E3E3E3" rx="8" ry="8" style="stroke:#181818;stroke-width:0.5;"/><path d="M82.5,58.1406 L82.5,85.1406 M69.5,66.1406 L95.5,66.1406 M82.5,85.1406 L69.5,100.1406 M82.5,85.1406 L95.5,100.1406 " fill="none" style="stroke:#181818;stroke-width:0.5;"/><text fill="#000000" font-family="sans-serif" font-size="14" lengthAdjust="spacing" textLength="99" x="30" y="1479.1816">Property Owner</text><ellipse cx="82.5" cy="1490.6484" fill="#E3E3E3" rx="8" ry="8" style="stroke:#181818;stroke-width:0.5;"/><path d="M82.5,1498.6484 L82.5,1525.6484 M69.5,1506.6484 L95.5,1506.6484 M82.5,1525.6484 L69.5,1540.6484 M82.5,1525.6484 L95.5,1540.6484 " fill="none" style="stroke:#181818;stroke-width:0.5;"/><rect fill="#E3E3E3" height="29.6406" rx="2.5" ry="2.5" style="stroke:#181818;stroke-width:0.5;" width="64" x="449.5" y="86.6406"/><text fill="#000000" font-family="sans-serif" font-size="14" lengthAdjust="spacing" textLength="50" x="456.5" y="106.3145">:System</text><rect fill="#E3E3E3" height="29.6406" rx="2.5" ry="2.5" style="stroke:#181818;stroke-width:0.5;" width="64" x="449.5" y="1466.5078"/><text fill="#000000" font-family="sans-serif" font-size="14" lengthAdjust="spacing" textLength="50" x="456.5" y="1486.1816">:System</text><rect fill="#FFFFFF" height="1330.2266" style="stroke:#181818;stroke-width:1.0;" width="10" x="77.5" y="127.2813"/><rect fill="#FFFFFF" height="28.5234" style="stroke:#181818;stroke-width:1.0;" width="10" x="476.5" y="147.8047"/><rect fill="#FFFFFF" height="57.5703" style="stroke:#181818;stroke-width:1.0;" width="10" x="476.5" y="204.8516"/><rect fill="#FFFFFF" height="52.0469" style="stroke:#181818;stroke-width:1.0;" width="10" x="476.5" y="319.9922"/><rect fill="#FFFFFF" height="66.5703" style="stroke:#181818;stroke-width:1.0;" width="10" x="476.5" y="400.5625"/><rect fill="#FFFFFF" height="49.8125" style="stroke:#181818;stroke-width:1.0;" width="10" x="476.5" y="510.1797"/><rect fill="#FFFFFF" height="28.5234" style="stroke:#181818;stroke-width:1.0;" width="10" x="476.5" y="588.5156"/><rect fill="#FFFFFF" height="52.0469" style="stroke:#181818;stroke-width:1.0;" width="10" x="476.5" y="645.5625"/><rect fill="#FFFFFF" height="42.5234" style="stroke:#181818;stroke-width:1.0;" width="10" x="476.5" y="726.1328"/><rect fill="#FFFFFF" height="75.5703" style="stroke:#181818;stroke-width:1.0;" width="10" x="476.5" y="797.1797"/><rect fill="#FFFFFF" height="42.5234" style="stroke:#181818;stroke-width:1.0;" width="10" x="476.5" y="901.2734"/><rect fill="#FFFFFF" height="52.0469" style="stroke:#181818;stroke-width:1.0;" width="10" x="476.5" y="972.3203"/><rect fill="#FFFFFF" height="52.0469" style="stroke:#181818;stroke-width:1.0;" width="10" x="476.5" y="1102.9375"/><rect fill="#FFFFFF" height="42.8125" style="stroke:#181818;stroke-width:1.0;" width="10" x="476.5" y="1183.5078"/><rect fill="#FFFFFF" height="50.0469" style="stroke:#181818;stroke-width:1.0;" width="10" x="476.5" y="1254.8438"/><rect fill="#FFFFFF" height="28.5234" style="stroke:#181818;stroke-width:1.0;" width="10" x="476.5" y="1333.4141"/><rect fill="#FFFFFF" height="52.0469" style="stroke:#181818;stroke-width:1.0;" width="10" x="476.5" y="1390.4609"/><polygon fill="#181818" points="464.5,143.8047,474.5,147.8047,464.5,151.8047,468.5,147.8047" style="stroke:#181818;stroke-width:1.0;"/><line style="stroke:#181818;stroke-width:1.0;" x1="87.5" x2="470.5" y1="147.8047" y2="147.8047"/><text fill="#000000" font-family="sans-serif" font-size="13" font-weight="bold" lengthAdjust="spacing" textLength="7" x="94.5" y="143.0498">1</text><text fill="#000000" font-family="sans-serif" font-size="13" lengthAdjust="spacing" textLength="175" x="105.5" y="143.0498">asks to submit a new property</text><polygon fill="#181818" points="98.5,172.3281,88.5,176.3281,98.5,180.3281,94.5,176.3281" style="stroke:#181818;stroke-width:1.0;"/><line style="stroke:#181818;stroke-width:1.0;stroke-dasharray:2.0,2.0;" x1="92.5" x2="480.5" y1="176.3281" y2="176.3281"/><text fill="#000000" font-family="sans-serif" font-size="13" font-weight="bold" lengthAdjust="spacing" textLength="7" x="104.5" y="171.5732">2</text><text fill="#000000" font-family="sans-serif" font-size="13" lengthAdjust="spacing" textLength="253" x="115.5" y="171.5732">display and asks to chosse type of property</text><polygon fill="#181818" points="464.5,200.8516,474.5,204.8516,464.5,208.8516,468.5,204.8516" style="stroke:#181818;stroke-width:1.0;"/><line style="stroke:#181818;stroke-width:1.0;" x1="87.5" x2="470.5" y1="204.8516" y2="204.8516"/><text fill="#000000" font-family="sans-serif" font-size="13" font-weight="bold" lengthAdjust="spacing" textLength="7" x="94.5" y="200.0967">3</text><text fill="#000000" font-family="sans-serif" font-size="13" lengthAdjust="spacing" textLength="136" x="105.5" y="200.0967">selects type of property</text><polygon fill="#181818" points="98.5,258.4219,88.5,262.4219,98.5,266.4219,94.5,262.4219" style="stroke:#181818;stroke-width:1.0;"/><line style="stroke:#181818;stroke-width:1.0;stroke-dasharray:2.0,2.0;" x1="92.5" x2="480.5" y1="262.4219" y2="262.4219"/><text fill="#000000" font-family="sans-serif" font-size="13" font-weight="bold" lengthAdjust="spacing" textLength="7" x="104.5" y="243.1436">4</text><text fill="#000000" font-family="sans-serif" font-size="13" lengthAdjust="spacing" textLength="83" x="115.5" y="228.6201">requests data:</text><text fill="#000000" font-family="sans-serif" font-size="13" lengthAdjust="spacing" textLength="148" x="119.5" y="243.1436">area cms. Distance Kms,</text><text fill="#000000" font-family="sans-serif" font-size="13" lengthAdjust="spacing" textLength="270" x="119.5" y="257.667">location(street, zipcode, stateUS, city, district)</text><polygon fill="#181818" points="464.5,315.9922,474.5,319.9922,464.5,323.9922,468.5,319.9922" style="stroke:#181818;stroke-width:1.0;"/><line style="stroke:#181818;stroke-width:1.0;" x1="87.5" x2="470.5" y1="319.9922" y2="319.9922"/><text fill="#000000" font-family="sans-serif" font-size="13" font-weight="bold" lengthAdjust="spacing" textLength="7" x="94.5" y="300.7139">5</text><text fill="#000000" font-family="sans-serif" font-size="13" lengthAdjust="spacing" textLength="61" x="105.5" y="286.1904">input data:</text><text fill="#000000" font-family="sans-serif" font-size="13" lengthAdjust="spacing" textLength="148" x="109.5" y="300.7139">area cms. Distance Kms,</text><text fill="#000000" font-family="sans-serif" font-size="13" lengthAdjust="spacing" textLength="270" x="109.5" y="315.2373">location(street, zipcode, stateUS, city, district)</text><path d="M10,334.9922 L71,334.9922 L71,341.5156 L61,351.5156 L10,351.5156 L10,334.9922 " fill="#EEEEEE" style="stroke:#000000;stroke-width:1.5;"/><rect fill="none" height="406.1406" style="stroke:#000000;stroke-width:1.5;" width="523.5" x="10" y="334.9922"/><text fill="#000000" font-family="sans-serif" font-size="13" font-weight="bold" lengthAdjust="spacing" textLength="16" x="25" y="347.7607">alt</text><text fill="#000000" font-family="sans-serif" font-size="11" font-weight="bold" lengthAdjust="spacing" textLength="207" x="86" y="346.9502">[propertyType = House or Apartment]</text><polygon fill="#181818" points="98.5,368.0391,88.5,372.0391,98.5,376.0391,94.5,372.0391" style="stroke:#181818;stroke-width:1.0;"/><line style="stroke:#181818;stroke-width:1.0;" x1="92.5" x2="480.5" y1="372.0391" y2="372.0391"/><text fill="#000000" font-family="sans-serif" font-size="13" font-weight="bold" lengthAdjust="spacing" textLength="7" x="104.5" y="367.2842">6</text><text fill="#000000" font-family="sans-serif" font-size="13" lengthAdjust="spacing" textLength="259" x="115.5" y="367.2842">ask data (numberBedrooms, numberParking)</text><polygon fill="#181818" points="464.5,396.5625,474.5,400.5625,464.5,404.5625,468.5,400.5625" style="stroke:#181818;stroke-width:1.0;"/><line style="stroke:#181818;stroke-width:1.0;" x1="87.5" x2="470.5" y1="400.5625" y2="400.5625"/><text fill="#000000" font-family="sans-serif" font-size="13" font-weight="bold" lengthAdjust="spacing" textLength="7" x="94.5" y="395.8076">7</text><text fill="#000000" font-family="sans-serif" font-size="13" lengthAdjust="spacing" textLength="309" x="105.5" y="395.8076">types asked data (numberBedrooms, numberParking)</text><path d="M20,415.5625 L85,415.5625 L85,422.0859 L75,432.0859 L20,432.0859 L20,415.5625 " fill="#EEEEEE" style="stroke:#000000;stroke-width:1.5;"/><rect fill="none" height="102.6172" style="stroke:#000000;stroke-width:1.5;" width="503.5" x="20" y="415.5625"/><text fill="#000000" font-family="sans-serif" font-size="13" font-weight="bold" lengthAdjust="spacing" textLength="20" x="35" y="428.3311">opt</text><polygon fill="#181818" points="98.5,463.1328,88.5,467.1328,98.5,471.1328,94.5,467.1328" style="stroke:#181818;stroke-width:1.0;"/><line style="stroke:#181818;stroke-width:1.0;" x1="92.5" x2="480.5" y1="467.1328" y2="467.1328"/><text fill="#000000" font-family="sans-serif" font-size="13" font-weight="bold" lengthAdjust="spacing" textLength="7" x="104.5" y="455.1162">8</text><text fill="#000000" font-family="sans-serif" font-size="13" lengthAdjust="spacing" textLength="168" x="115.5" y="447.8545">ask data (numberBathrooms,</text><text fill="#000000" font-family="sans-serif" font-size="13" lengthAdjust="spacing" textLength="115" x="115.5" y="462.3779">availableEquipment)</text><polygon fill="#181818" points="464.5,506.1797,474.5,510.1797,464.5,514.1797,468.5,510.1797" style="stroke:#181818;stroke-width:1.0;"/><line style="stroke:#181818;stroke-width:1.0;" x1="87.5" x2="470.5" y1="510.1797" y2="510.1797"/><text fill="#000000" font-family="sans-serif" font-size="13" font-weight="bold" lengthAdjust="spacing" textLength="7" x="94.5" y="498.1631">9</text><text fill="#000000" font-family="sans-serif" font-size="13" lengthAdjust="spacing" textLength="218" x="105.5" y="490.9014">types asked data (numberBathrooms,</text><text fill="#000000" font-family="sans-serif" font-size="13" lengthAdjust="spacing" textLength="115" x="105.5" y="505.4248">availableEquipment)</text><line style="stroke:#000000;stroke-width:1.0;stroke-dasharray:2.0,2.0;" x1="10" x2="533.5" y1="526.1797" y2="526.1797"/><text fill="#000000" font-family="sans-serif" font-size="11" font-weight="bold" lengthAdjust="spacing" textLength="130" x="15" y="536.1377">[propertyType = House]</text><polygon fill="#181818" points="98.5,555.9922,88.5,559.9922,98.5,563.9922,94.5,559.9922" style="stroke:#181818;stroke-width:1.0;"/><line style="stroke:#181818;stroke-width:1.0;" x1="92.5" x2="480.5" y1="559.9922" y2="559.9922"/><text fill="#000000" font-family="sans-serif" font-size="13" font-weight="bold" lengthAdjust="spacing" textLength="14" x="104.5" y="555.2373">10</text><text fill="#000000" font-family="sans-serif" font-size="13" lengthAdjust="spacing" textLength="204" x="122.5" y="555.2373">ask existence basement (YES/NO)</text><polygon fill="#181818" points="464.5,584.5156,474.5,588.5156,464.5,592.5156,468.5,588.5156" style="stroke:#181818;stroke-width:1.0;"/><line style="stroke:#181818;stroke-width:1.0;" x1="87.5" x2="470.5" y1="588.5156" y2="588.5156"/><text fill="#000000" font-family="sans-serif" font-size="13" font-weight="bold" lengthAdjust="spacing" textLength="14" x="94.5" y="583.7607">11</text><text fill="#000000" font-family="sans-serif" font-size="13" lengthAdjust="spacing" textLength="260" x="112.5" y="583.7607">types answer existence basement (YES/NO)</text><polygon fill="#181818" points="98.5,613.0391,88.5,617.0391,98.5,621.0391,94.5,617.0391" style="stroke:#181818;stroke-width:1.0;"/><line style="stroke:#181818;stroke-width:1.0;" x1="92.5" x2="480.5" y1="617.0391" y2="617.0391"/><text fill="#000000" font-family="sans-serif" font-size="13" font-weight="bold" lengthAdjust="spacing" textLength="14" x="104.5" y="612.2842">12</text><text fill="#000000" font-family="sans-serif" font-size="13" lengthAdjust="spacing" textLength="174" x="122.5" y="612.2842">ask is habitable loft (YES/NO)</text><polygon fill="#181818" points="464.5,641.5625,474.5,645.5625,464.5,649.5625,468.5,645.5625" style="stroke:#181818;stroke-width:1.0;"/><line style="stroke:#181818;stroke-width:1.0;" x1="87.5" x2="470.5" y1="645.5625" y2="645.5625"/><text fill="#000000" font-family="sans-serif" font-size="13" font-weight="bold" lengthAdjust="spacing" textLength="14" x="94.5" y="640.8076">13</text><text fill="#000000" font-family="sans-serif" font-size="13" lengthAdjust="spacing" textLength="216" x="112.5" y="640.8076">types answer habitable loft (YES/NO)</text><path d="M20,660.5625 L85,660.5625 L85,667.0859 L75,677.0859 L20,677.0859 L20,660.5625 " fill="#EEEEEE" style="stroke:#000000;stroke-width:1.5;"/><rect fill="none" height="73.5703" style="stroke:#000000;stroke-width:1.5;" width="503.5" x="20" y="660.5625"/><text fill="#000000" font-family="sans-serif" font-size="13" font-weight="bold" lengthAdjust="spacing" textLength="20" x="35" y="673.3311">opt</text><polygon fill="#181818" points="98.5,693.6094,88.5,697.6094,98.5,701.6094,94.5,697.6094" style="stroke:#181818;stroke-width:1.0;"/><line style="stroke:#181818;stroke-width:1.0;stroke-dasharray:2.0,2.0;" x1="92.5" x2="480.5" y1="697.6094" y2="697.6094"/><text fill="#000000" font-family="sans-serif" font-size="13" font-weight="bold" lengthAdjust="spacing" textLength="14" x="104.5" y="692.8545">14</text><text fill="#000000" font-family="sans-serif" font-size="13" lengthAdjust="spacing" textLength="330" x="122.5" y="692.8545">shows sunExposureTypesList list and asks to select one</text><polygon fill="#181818" points="464.5,722.1328,474.5,726.1328,464.5,730.1328,468.5,726.1328" style="stroke:#181818;stroke-width:1.0;"/><line style="stroke:#181818;stroke-width:1.0;" x1="87.5" x2="470.5" y1="726.1328" y2="726.1328"/><text fill="#000000" font-family="sans-serif" font-size="13" font-weight="bold" lengthAdjust="spacing" textLength="14" x="94.5" y="721.3779">15</text><text fill="#000000" font-family="sans-serif" font-size="13" lengthAdjust="spacing" textLength="171" x="112.5" y="721.3779">selects a Sun Exposure Type</text><polygon fill="#181818" points="98.5,764.6563,88.5,768.6563,98.5,772.6563,94.5,768.6563" style="stroke:#181818;stroke-width:1.0;"/><line style="stroke:#181818;stroke-width:1.0;" x1="92.5" x2="480.5" y1="768.6563" y2="768.6563"/><text fill="#000000" font-family="sans-serif" font-size="13" font-weight="bold" lengthAdjust="spacing" textLength="14" x="104.5" y="763.9014">16</text><text fill="#000000" font-family="sans-serif" font-size="13" lengthAdjust="spacing" textLength="116" x="122.5" y="763.9014">request data (photo)</text><polygon fill="#181818" points="464.5,793.1797,474.5,797.1797,464.5,801.1797,468.5,797.1797" style="stroke:#181818;stroke-width:1.0;"/><line style="stroke:#181818;stroke-width:1.0;" x1="87.5" x2="470.5" y1="797.1797" y2="797.1797"/><text fill="#000000" font-family="sans-serif" font-size="13" font-weight="bold" lengthAdjust="spacing" textLength="14" x="94.5" y="792.4248">17</text><text fill="#000000" font-family="sans-serif" font-size="13" lengthAdjust="spacing" textLength="140" x="112.5" y="792.4248">input asked data (photo)</text><path d="M10,812.1797 L75,812.1797 L75,818.7031 L65,828.7031 L10,828.7031 L10,812.1797 " fill="#EEEEEE" style="stroke:#000000;stroke-width:1.5;"/><rect fill="none" height="104.0938" style="stroke:#000000;stroke-width:1.5;" width="523.5" x="10" y="812.1797"/><text fill="#000000" font-family="sans-serif" font-size="13" font-weight="bold" lengthAdjust="spacing" textLength="20" x="25" y="824.9482">opt</text><path d="M20,835.7031 L93,835.7031 L93,842.2266 L83,852.2266 L20,852.2266 L20,835.7031 " fill="#EEEEEE" style="stroke:#000000;stroke-width:1.5;"/><rect fill="none" height="73.5703" style="stroke:#000000;stroke-width:1.5;" width="503.5" x="20" y="835.7031"/><text fill="#000000" font-family="sans-serif" font-size="13" font-weight="bold" lengthAdjust="spacing" textLength="28" x="35" y="848.4717">loop</text><polygon fill="#181818" points="98.5,868.75,88.5,872.75,98.5,876.75,94.5,872.75" style="stroke:#181818;stroke-width:1.0;"/><line style="stroke:#181818;stroke-width:1.0;" x1="92.5" x2="480.5" y1="872.75" y2="872.75"/><text fill="#000000" font-family="sans-serif" font-size="13" font-weight="bold" lengthAdjust="spacing" textLength="14" x="104.5" y="867.9951">18</text><text fill="#000000" font-family="sans-serif" font-size="13" lengthAdjust="spacing" textLength="123" x="122.5" y="867.9951">request data (photos)</text><polygon fill="#181818" points="464.5,897.2734,474.5,901.2734,464.5,905.2734,468.5,901.2734" style="stroke:#181818;stroke-width:1.0;"/><line style="stroke:#181818;stroke-width:1.0;" x1="87.5" x2="470.5" y1="901.2734" y2="901.2734"/><text fill="#000000" font-family="sans-serif" font-size="13" font-weight="bold" lengthAdjust="spacing" textLength="14" x="94.5" y="896.5186">19</text><text fill="#000000" font-family="sans-serif" font-size="13" lengthAdjust="spacing" textLength="147" x="112.5" y="896.5186">input asked data (photos)</text><polygon fill="#181818" points="98.5,939.7969,88.5,943.7969,98.5,947.7969,94.5,943.7969" style="stroke:#181818;stroke-width:1.0;"/><line style="stroke:#181818;stroke-width:1.0;" x1="92.5" x2="480.5" y1="943.7969" y2="943.7969"/><text fill="#000000" font-family="sans-serif" font-size="13" font-weight="bold" lengthAdjust="spacing" textLength="14" x="104.5" y="939.042">20</text><text fill="#000000" font-family="sans-serif" font-size="13" lengthAdjust="spacing" textLength="344" x="122.5" y="939.042">Display property conditions and ask for validation (YES/NO)</text><polygon fill="#181818" points="464.5,968.3203,474.5,972.3203,464.5,976.3203,468.5,972.3203" style="stroke:#181818;stroke-width:1.0;"/><line style="stroke:#181818;stroke-width:1.0;" x1="87.5" x2="470.5" y1="972.3203" y2="972.3203"/><text fill="#000000" font-family="sans-serif" font-size="13" font-weight="bold" lengthAdjust="spacing" textLength="14" x="94.5" y="967.5654">21</text><text fill="#000000" font-family="sans-serif" font-size="13" lengthAdjust="spacing" textLength="151" x="112.5" y="967.5654">input: validation (YES/NO)</text><path d="M20,987.3203 L81,987.3203 L81,993.8438 L71,1003.8438 L20,1003.8438 L20,987.3203 " fill="#EEEEEE" style="stroke:#000000;stroke-width:1.5;"/><rect fill="none" height="45.0469" style="stroke:#000000;stroke-width:1.5;" width="503.5" x="20" y="987.3203"/><text fill="#000000" font-family="sans-serif" font-size="13" font-weight="bold" lengthAdjust="spacing" textLength="16" x="35" y="1000.0889">alt</text><text fill="#000000" font-family="sans-serif" font-size="11" font-weight="bold" lengthAdjust="spacing" textLength="92" x="96" y="999.2783">[validation = YES]</text><polygon fill="#181818" points="98.5,1020.3672,88.5,1024.3672,98.5,1028.3672,94.5,1024.3672" style="stroke:#181818;stroke-width:1.0;"/><line style="stroke:#181818;stroke-width:1.0;" x1="92.5" x2="480.5" y1="1024.3672" y2="1024.3672"/><text fill="#000000" font-family="sans-serif" font-size="13" font-weight="bold" lengthAdjust="spacing" textLength="14" x="104.5" y="1019.6123">22</text><text fill="#000000" font-family="sans-serif" font-size="13" lengthAdjust="spacing" textLength="158" x="122.5" y="1019.6123">displays operation success</text><polygon fill="#181818" points="98.5,1070.4141,88.5,1074.4141,98.5,1078.4141,94.5,1074.4141" style="stroke:#181818;stroke-width:1.0;"/><line style="stroke:#181818;stroke-width:1.0;stroke-dasharray:2.0,2.0;" x1="92.5" x2="480.5" y1="1074.4141" y2="1074.4141"/><text fill="#000000" font-family="sans-serif" font-size="13" font-weight="bold" lengthAdjust="spacing" textLength="14" x="104.5" y="1062.3975">23</text><text fill="#000000" font-family="sans-serif" font-size="13" lengthAdjust="spacing" textLength="142" x="122.5" y="1055.1357">shows businessTypeList</text><text fill="#000000" font-family="sans-serif" font-size="13" lengthAdjust="spacing" textLength="132" x="126.5" y="1069.6592">and asks to select one</text><polygon fill="#181818" points="464.5,1098.9375,474.5,1102.9375,464.5,1106.9375,468.5,1102.9375" style="stroke:#181818;stroke-width:1.0;"/><line style="stroke:#181818;stroke-width:1.0;" x1="87.5" x2="470.5" y1="1102.9375" y2="1102.9375"/><text fill="#000000" font-family="sans-serif" font-size="13" font-weight="bold" lengthAdjust="spacing" textLength="14" x="94.5" y="1098.1826">24</text><text fill="#000000" font-family="sans-serif" font-size="13" lengthAdjust="spacing" textLength="143" x="112.5" y="1098.1826">selects a Business Type</text><path d="M20,1117.9375 L81,1117.9375 L81,1124.4609 L71,1134.4609 L20,1134.4609 L20,1117.9375 " fill="#EEEEEE" style="stroke:#000000;stroke-width:1.5;"/><rect fill="none" height="144.9063" style="stroke:#000000;stroke-width:1.5;" width="503.5" x="20" y="1117.9375"/><text fill="#000000" font-family="sans-serif" font-size="13" font-weight="bold" lengthAdjust="spacing" textLength="16" x="35" y="1130.7061">alt</text><text fill="#000000" font-family="sans-serif" font-size="11" font-weight="bold" lengthAdjust="spacing" textLength="122" x="96" y="1129.8955">[businessType = Sale]</text><polygon fill="#181818" points="98.5,1150.9844,88.5,1154.9844,98.5,1158.9844,94.5,1154.9844" style="stroke:#181818;stroke-width:1.0;"/><line style="stroke:#181818;stroke-width:1.0;" x1="92.5" x2="480.5" y1="1154.9844" y2="1154.9844"/><text fill="#000000" font-family="sans-serif" font-size="13" font-weight="bold" lengthAdjust="spacing" textLength="14" x="104.5" y="1150.2295">25</text><text fill="#000000" font-family="sans-serif" font-size="13" lengthAdjust="spacing" textLength="116" x="122.5" y="1150.2295">ask data (salePrice)</text><polygon fill="#181818" points="464.5,1179.5078,474.5,1183.5078,464.5,1187.5078,468.5,1183.5078" style="stroke:#181818;stroke-width:1.0;"/><line style="stroke:#181818;stroke-width:1.0;" x1="87.5" x2="470.5" y1="1183.5078" y2="1183.5078"/><text fill="#000000" font-family="sans-serif" font-size="13" font-weight="bold" lengthAdjust="spacing" textLength="14" x="94.5" y="1178.7529">26</text><text fill="#000000" font-family="sans-serif" font-size="13" lengthAdjust="spacing" textLength="166" x="112.5" y="1178.7529">types asked data (salePrice)</text><line style="stroke:#000000;stroke-width:1.0;stroke-dasharray:2.0,2.0;" x1="20" x2="523.5" y1="1192.5078" y2="1192.5078"/><text fill="#000000" font-family="sans-serif" font-size="11" font-weight="bold" lengthAdjust="spacing" textLength="124" x="25" y="1202.4658">[businessType = Rent]</text><polygon fill="#181818" points="98.5,1222.3203,88.5,1226.3203,98.5,1230.3203,94.5,1226.3203" style="stroke:#181818;stroke-width:1.0;"/><line style="stroke:#181818;stroke-width:1.0;" x1="92.5" x2="480.5" y1="1226.3203" y2="1226.3203"/><text fill="#000000" font-family="sans-serif" font-size="13" font-weight="bold" lengthAdjust="spacing" textLength="14" x="104.5" y="1221.5654">27</text><text fill="#000000" font-family="sans-serif" font-size="13" lengthAdjust="spacing" textLength="234" x="122.5" y="1221.5654">ask data (rentalPrice, duractionContract)</text><polygon fill="#181818" points="464.5,1250.8438,474.5,1254.8438,464.5,1258.8438,468.5,1254.8438" style="stroke:#181818;stroke-width:1.0;"/><line style="stroke:#181818;stroke-width:1.0;" x1="87.5" x2="470.5" y1="1254.8438" y2="1254.8438"/><text fill="#000000" font-family="sans-serif" font-size="13" font-weight="bold" lengthAdjust="spacing" textLength="14" x="94.5" y="1250.0889">28</text><text fill="#000000" font-family="sans-serif" font-size="13" lengthAdjust="spacing" textLength="284" x="112.5" y="1250.0889">types asked data (rentalPrice, duractionContract)</text><polygon fill="#181818" points="98.5,1300.8906,88.5,1304.8906,98.5,1308.8906,94.5,1304.8906" style="stroke:#181818;stroke-width:1.0;"/><line style="stroke:#181818;stroke-width:1.0;stroke-dasharray:2.0,2.0;" x1="92.5" x2="480.5" y1="1304.8906" y2="1304.8906"/><text fill="#000000" font-family="sans-serif" font-size="13" font-weight="bold" lengthAdjust="spacing" textLength="14" x="104.5" y="1292.874">29</text><text fill="#000000" font-family="sans-serif" font-size="13" lengthAdjust="spacing" textLength="121" x="122.5" y="1285.6123">shows Agent List list</text><text fill="#000000" font-family="sans-serif" font-size="13" lengthAdjust="spacing" textLength="132" x="126.5" y="1300.1357">and asks to select one</text><polygon fill="#181818" points="464.5,1329.4141,474.5,1333.4141,464.5,1337.4141,468.5,1333.4141" style="stroke:#181818;stroke-width:1.0;"/><line style="stroke:#181818;stroke-width:1.0;" x1="87.5" x2="470.5" y1="1333.4141" y2="1333.4141"/><text fill="#000000" font-family="sans-serif" font-size="13" font-weight="bold" lengthAdjust="spacing" textLength="14" x="94.5" y="1328.6592">30</text><text fill="#000000" font-family="sans-serif" font-size="13" lengthAdjust="spacing" textLength="80" x="112.5" y="1328.6592">selects Agent</text><polygon fill="#181818" points="98.5,1357.9375,88.5,1361.9375,98.5,1365.9375,94.5,1361.9375" style="stroke:#181818;stroke-width:1.0;"/><line style="stroke:#181818;stroke-width:1.0;" x1="92.5" x2="480.5" y1="1361.9375" y2="1361.9375"/><text fill="#000000" font-family="sans-serif" font-size="13" font-weight="bold" lengthAdjust="spacing" textLength="14" x="104.5" y="1357.1826">31</text><text fill="#000000" font-family="sans-serif" font-size="13" lengthAdjust="spacing" textLength="347" x="122.5" y="1357.1826">Display Request Conditions and ask for validation (YES/NO)</text><polygon fill="#181818" points="464.5,1386.4609,474.5,1390.4609,464.5,1394.4609,468.5,1390.4609" style="stroke:#181818;stroke-width:1.0;"/><line style="stroke:#181818;stroke-width:1.0;" x1="87.5" x2="470.5" y1="1390.4609" y2="1390.4609"/><text fill="#000000" font-family="sans-serif" font-size="13" font-weight="bold" lengthAdjust="spacing" textLength="14" x="94.5" y="1385.7061">32</text><text fill="#000000" font-family="sans-serif" font-size="13" lengthAdjust="spacing" textLength="151" x="112.5" y="1385.7061">input: validation (YES/NO)</text><path d="M20,1405.4609 L81,1405.4609 L81,1411.9844 L71,1421.9844 L20,1421.9844 L20,1405.4609 " fill="#EEEEEE" style="stroke:#000000;stroke-width:1.5;"/><rect fill="none" height="45.0469" style="stroke:#000000;stroke-width:1.5;" width="503.5" x="20" y="1405.4609"/><text fill="#000000" font-family="sans-serif" font-size="13" font-weight="bold" lengthAdjust="spacing" textLength="16" x="35" y="1418.2295">alt</text><text fill="#000000" font-family="sans-serif" font-size="11" font-weight="bold" lengthAdjust="spacing" textLength="92" x="96" y="1417.4189">[validation = YES]</text><polygon fill="#181818" points="98.5,1438.5078,88.5,1442.5078,98.5,1446.5078,94.5,1442.5078" style="stroke:#181818;stroke-width:1.0;"/><line style="stroke:#181818;stroke-width:1.0;" x1="92.5" x2="480.5" y1="1442.5078" y2="1442.5078"/><text fill="#000000" font-family="sans-serif" font-size="13" font-weight="bold" lengthAdjust="spacing" textLength="14" x="104.5" y="1437.7529">33</text><text fill="#000000" font-family="sans-serif" font-size="13" lengthAdjust="spacing" textLength="158" x="122.5" y="1437.7529">displays operation success</text><!--SRC=[jLTDRzf043tNlsAK4v58UqTAfNn9bLerKTmSAkKoh0TOnTvrTjOXzDTtrZQk0mOCSZaWm-w-UVlcpGpmYpOvEimWiyQgXRCPWNS5HToivAXUS4wnNwK4ZfH7Cq_R6tY1YLrgCuSPfanHvBMNhV6AFMKGqsj1HX7SQfo7xQCulZsF8YoyDKKs9IVFobi7Pm_EvkJy2kwNXjmP8CCJoxg4yLhf78s7iqc5MwvMZ-Lv_OQUgkqHo2iymSNNDOk9R7zXy1Quc6RQ0uAX9UHrnF98U3L8Q-XFuTiQv4BmIjn9eZbFSGLeaWPOBIopgBVA2Uni6pgXBV1EeaofYCoxWJfXEcbAkaHy5h04FKxWsG0wGb0PVvPyiAHI4lCzux6if5QXrzQCs3iYFuO_EbSseJ78FazFyHYKzginoEMzqygV7tqrSKpX_pENBIQO-aR3Nq7JI_Xc2ycKMEugM2iZuxT5R3IK_9QKOLJPzPeIPwtmXEhp0pefXVdnQeG4Su2df7-0JkYviqKEDZ_g6kWNTPXdWs-eKvocTFTQw3m8Ck1r-WJg344cYIAIbjAPlmDtfNUnHjbufiWK8i7ezrtyvUVzoLSpl9I5Fi1zglG3MysmmAdsGHfn_smeieT0Jt3KF-Ayi4kMXchktdFBXQEG7luXya0QtjhTiUfgO0sTt10HuiB0EXQ4O8Uy4zwwTMzwO-tLV66zFRMZjKs_0TG9yq7NrDeyQYUa3rF-aC9TT8-Xl85uqCQDjdj5lgq7vRg0GLcJwD3QUMqFc4aZViDK9sNBFz7uzRqcUv6wXqFhn2N8aJsbMizzXd2RwWWNIX7p7hQT0crMqRHWRGGdk3fKK1YFGvVFTHrZJ-a4FTfKH94OK-erLrWsFiWmfY5cnmRO5amr5pQeFlQTv4usObhYos-8mWLuQswiyU5n2Fvz8cnX1wSSCihLF4oSfiaExvCoGBItzdUM-MFTgMwEh_ATFMoGEeVEGX-spkjEs5ee_uxy1G00]--></g></svg>