<?xml version="1.0" encoding="us-ascii" standalone="no"?><svg xmlns="http://www.w3.org/2000/svg" xmlns:xlink="http://www.w3.org/1999/xlink" contentStyleType="text/css" height="776px" preserveAspectRatio="none" style="width:1004px;height:776px;background:#FFFFFF;" version="1.1" viewBox="0 0 1004 776" width="1004px" zoomAndPan="magnify"><defs/><g><text fill="#000000" font-family="sans-serif" font-size="14" font-weight="bold" lengthAdjust="spacing" textLength="100" x="445" y="22.6738">Domain Model</text><!--class Employee--><g id="elem_Employee"><rect codeLine="16" fill="#F1F1F1" height="33.6406" id="Employee" rx="2.5" ry="2.5" style="stroke:#181818;stroke-width:0.5;" width="68" x="134" y="565.1406"/><text fill="#000000" font-family="sans-serif" font-size="14" lengthAdjust="spacing" textLength="62" x="137" y="582.8145">Employee</text><line style="stroke:#181818;stroke-width:0.5;" x1="135" x2="201" y1="590.7813" y2="590.7813"/></g><!--class Advertisement--><g id="elem_Advertisement"><rect codeLine="20" fill="#F1F1F1" height="80.5625" id="Advertisement" rx="2.5" ry="2.5" style="stroke:#181818;stroke-width:0.5;" width="121" x="611" y="634.6406"/><text fill="#000000" font-family="sans-serif" font-size="14" lengthAdjust="spacing" textLength="90" x="626.5" y="652.3145">Advertisement</text><line style="stroke:#181818;stroke-width:0.5;" x1="612" x2="731" y1="660.2813" y2="660.2813"/><text fill="#000000" font-family="sans-serif" font-size="14" lengthAdjust="spacing" textLength="109" x="617" y="676.9551">commissionValue</text><text fill="#000000" font-family="sans-serif" font-size="14" lengthAdjust="spacing" textLength="105" x="617" y="692.5957">commissionType</text><text fill="#000000" font-family="sans-serif" font-size="14" lengthAdjust="spacing" textLength="28" x="617" y="708.2363">date</text></g><!--class BusinessType--><g id="elem_BusinessType"><rect codeLine="26" fill="#F1F1F1" height="62.6875" id="BusinessType" rx="2.5" ry="2.5" style="stroke:#181818;stroke-width:0.5;" width="95" x="624" y="352.6406"/><text fill="#000000" font-family="sans-serif" font-size="12" font-style="italic" lengthAdjust="spacing" textLength="47" x="648" y="368.5039">&#171;Enum&#187;</text><text fill="#000000" font-family="sans-serif" font-size="14" lengthAdjust="spacing" textLength="89" x="627" y="383.7207">BusinessType</text><line style="stroke:#181818;stroke-width:0.5;" x1="625" x2="718" y1="391.6875" y2="391.6875"/><text fill="#000000" font-family="sans-serif" font-size="14" lengthAdjust="spacing" textLength="73" x="630" y="408.3613">designation</text></g><!--class PropertyType--><g id="elem_PropertyType"><rect codeLine="30" fill="#F1F1F1" height="62.6875" id="PropertyType" rx="2.5" ry="2.5" style="stroke:#181818;stroke-width:0.5;" width="92" x="883.5" y="353.6406"/><text fill="#000000" font-family="sans-serif" font-size="12" font-style="italic" lengthAdjust="spacing" textLength="47" x="906" y="369.5039">&#171;Enum&#187;</text><text fill="#000000" font-family="sans-serif" font-size="14" lengthAdjust="spacing" textLength="86" x="886.5" y="384.7207">PropertyType</text><line style="stroke:#181818;stroke-width:0.5;" x1="884.5" x2="974.5" y1="392.6875" y2="392.6875"/><text fill="#000000" font-family="sans-serif" font-size="14" lengthAdjust="spacing" textLength="73" x="889.5" y="409.3613">designation</text></g><!--class Property--><g id="elem_Property"><rect codeLine="34" fill="#F1F1F1" height="93.9688" id="Property" rx="2.5" ry="2.5" style="stroke:#181818;stroke-width:0.5;" width="132" x="605.5" y="223.1406"/><text fill="#000000" font-family="sans-serif" font-size="12" font-style="italic" lengthAdjust="spacing" textLength="62" x="640.5" y="239.0039">&#171;Interface&#187;</text><text fill="#000000" font-family="sans-serif" font-size="14" lengthAdjust="spacing" textLength="54" x="644.5" y="254.2207">Property</text><line style="stroke:#181818;stroke-width:0.5;" x1="606.5" x2="736.5" y1="262.1875" y2="262.1875"/><text fill="#000000" font-family="sans-serif" font-size="14" lengthAdjust="spacing" textLength="43" x="611.5" y="278.8613">photos</text><text fill="#000000" font-family="sans-serif" font-size="14" lengthAdjust="spacing" textLength="83" x="611.5" y="294.502">areaProperty</text><text fill="#000000" font-family="sans-serif" font-size="14" lengthAdjust="spacing" textLength="120" x="611.5" y="310.1426">distanceCityCenter</text></g><!--class House--><g id="elem_House"><rect codeLine="40" fill="#F1F1F1" height="143.125" id="House" rx="2.5" ry="2.5" style="stroke:#181818;stroke-width:0.5;" width="135" x="862" y="43.6406"/><text fill="#000000" font-family="sans-serif" font-size="14" lengthAdjust="spacing" textLength="40" x="909.5" y="61.3145">House</text><line style="stroke:#181818;stroke-width:0.5;" x1="863" x2="996" y1="69.2813" y2="69.2813"/><text fill="#000000" font-family="sans-serif" font-size="14" lengthAdjust="spacing" textLength="112" x="868" y="85.9551">numberBedrooms</text><text fill="#000000" font-family="sans-serif" font-size="14" lengthAdjust="spacing" textLength="116" x="868" y="101.5957">numberBathrooms</text><text fill="#000000" font-family="sans-serif" font-size="14" lengthAdjust="spacing" textLength="96" x="868" y="117.2363">numberParking</text><text fill="#000000" font-family="sans-serif" font-size="14" lengthAdjust="spacing" textLength="123" x="868" y="132.877">availableEquipment</text><text fill="#000000" font-family="sans-serif" font-size="14" lengthAdjust="spacing" textLength="62" x="868" y="148.5176">basement</text><text fill="#000000" font-family="sans-serif" font-size="14" lengthAdjust="spacing" textLength="19" x="868" y="164.1582">loft</text><text fill="#000000" font-family="sans-serif" font-size="14" lengthAdjust="spacing" textLength="82" x="868" y="179.7988">sunExposure</text></g><!--class Apartment--><g id="elem_Apartment"><rect codeLine="50" fill="#F1F1F1" height="96.2031" id="Apartment" rx="2.5" ry="2.5" style="stroke:#181818;stroke-width:0.5;" width="135" x="862" y="222.1406"/><text fill="#000000" font-family="sans-serif" font-size="14" lengthAdjust="spacing" textLength="65" x="897" y="239.8145">Apartment</text><line style="stroke:#181818;stroke-width:0.5;" x1="863" x2="996" y1="247.7813" y2="247.7813"/><text fill="#000000" font-family="sans-serif" font-size="14" lengthAdjust="spacing" textLength="112" x="868" y="264.4551">numberBedrooms</text><text fill="#000000" font-family="sans-serif" font-size="14" lengthAdjust="spacing" textLength="116" x="868" y="280.0957">numberBathrooms</text><text fill="#000000" font-family="sans-serif" font-size="14" lengthAdjust="spacing" textLength="96" x="868" y="295.7363">numberParking</text><text fill="#000000" font-family="sans-serif" font-size="14" lengthAdjust="spacing" textLength="123" x="868" y="311.377">availableEquipment</text></g><!--class Store--><g id="elem_Store"><rect codeLine="57" fill="#F1F1F1" height="96.2031" id="Store" rx="2.5" ry="2.5" style="stroke:#181818;stroke-width:0.5;" width="101" x="347" y="546.1406"/><text fill="#000000" font-family="sans-serif" font-size="14" lengthAdjust="spacing" textLength="34" x="380.5" y="563.8145">Store</text><line style="stroke:#181818;stroke-width:0.5;" x1="348" x2="447" y1="571.7813" y2="571.7813"/><text fill="#000000" font-family="sans-serif" font-size="14" lengthAdjust="spacing" textLength="11" x="353" y="588.4551">id</text><text fill="#000000" font-family="sans-serif" font-size="14" lengthAdjust="spacing" textLength="35" x="353" y="604.0957">name</text><text fill="#000000" font-family="sans-serif" font-size="14" lengthAdjust="spacing" textLength="85" x="353" y="619.7363">emailAddress</text><text fill="#000000" font-family="sans-serif" font-size="14" lengthAdjust="spacing" textLength="89" x="353" y="635.377">phoneNumber</text></g><!--class Location--><g id="elem_Location"><rect codeLine="64" fill="#F1F1F1" height="125.25" id="Location" rx="2.5" ry="2.5" style="stroke:#181818;stroke-width:0.5;" width="64" x="136" y="314.6406"/><text fill="#000000" font-family="sans-serif" font-size="12" font-style="italic" lengthAdjust="spacing" textLength="62" x="137" y="330.5039">&#171;Interface&#187;</text><text fill="#000000" font-family="sans-serif" font-size="14" lengthAdjust="spacing" textLength="54" x="141" y="345.7207">Location</text><line style="stroke:#181818;stroke-width:0.5;" x1="137" x2="199" y1="353.6875" y2="353.6875"/><text fill="#000000" font-family="sans-serif" font-size="14" lengthAdjust="spacing" textLength="36" x="142" y="370.3613">street</text><text fill="#000000" font-family="sans-serif" font-size="14" lengthAdjust="spacing" textLength="51" x="142" y="386.002">zipCode</text><text fill="#000000" font-family="sans-serif" font-size="14" lengthAdjust="spacing" textLength="49" x="142" y="401.6426">stateUS</text><text fill="#000000" font-family="sans-serif" font-size="14" lengthAdjust="spacing" textLength="21" x="142" y="417.2832">city</text><text fill="#000000" font-family="sans-serif" font-size="14" lengthAdjust="spacing" textLength="41" x="142" y="432.9238">district</text></g><!--class Offer--><g id="elem_Offer"><rect codeLine="72" fill="#F1F1F1" height="64.9219" id="Offer" rx="2.5" ry="2.5" style="stroke:#181818;stroke-width:0.5;" width="50" x="904.5" y="698.6406"/><text fill="#000000" font-family="sans-serif" font-size="14" lengthAdjust="spacing" textLength="32" x="913.5" y="716.3145">Offer</text><line style="stroke:#181818;stroke-width:0.5;" x1="905.5" x2="953.5" y1="724.2813" y2="724.2813"/><text fill="#000000" font-family="sans-serif" font-size="14" lengthAdjust="spacing" textLength="38" x="910.5" y="740.9551">status</text><text fill="#000000" font-family="sans-serif" font-size="14" lengthAdjust="spacing" textLength="29" x="910.5" y="756.5957">offer</text></g><!--class Request--><g id="elem_Request"><rect codeLine="78" fill="#F1F1F1" height="62.6875" id="Request" rx="2.5" ry="2.5" style="stroke:#181818;stroke-width:0.5;" width="64" x="365.5" y="444.6406"/><text fill="#000000" font-family="sans-serif" font-size="12" font-style="italic" lengthAdjust="spacing" textLength="62" x="366.5" y="460.5039">&#171;Interface&#187;</text><text fill="#000000" font-family="sans-serif" font-size="14" lengthAdjust="spacing" textLength="53" x="371" y="475.7207">Request</text><line style="stroke:#181818;stroke-width:0.5;" x1="366.5" x2="428.5" y1="483.6875" y2="483.6875"/><text fill="#000000" font-family="sans-serif" font-size="14" lengthAdjust="spacing" textLength="28" x="371.5" y="500.3613">date</text></g><!--class RequestSale--><g id="elem_RequestSale"><rect codeLine="82" fill="#F1F1F1" height="49.2813" id="RequestSale" rx="2.5" ry="2.5" style="stroke:#181818;stroke-width:0.5;" width="87" x="628" y="450.6406"/><text fill="#000000" font-family="sans-serif" font-size="14" lengthAdjust="spacing" textLength="81" x="631" y="468.3145">RequestSale</text><line style="stroke:#181818;stroke-width:0.5;" x1="629" x2="714" y1="476.2813" y2="476.2813"/><text fill="#000000" font-family="sans-serif" font-size="14" lengthAdjust="spacing" textLength="58" x="634" y="492.9551">salePrice</text></g><!--class RequestLease--><g id="elem_RequestLease"><rect codeLine="86" fill="#F1F1F1" height="64.9219" id="RequestLease" rx="2.5" ry="2.5" style="stroke:#181818;stroke-width:0.5;" width="133" x="605" y="534.6406"/><text fill="#000000" font-family="sans-serif" font-size="14" lengthAdjust="spacing" textLength="92" x="625.5" y="552.3145">RequestLease</text><line style="stroke:#181818;stroke-width:0.5;" x1="606" x2="737" y1="560.2813" y2="560.2813"/><text fill="#000000" font-family="sans-serif" font-size="14" lengthAdjust="spacing" textLength="68" x="611" y="576.9551">rentalPrice</text><text fill="#000000" font-family="sans-serif" font-size="14" lengthAdjust="spacing" textLength="121" x="611" y="592.5957">durationOfContract</text></g><!--class Person--><g id="elem_Person"><rect fill="#F1F1F1" height="33.6406" id="Person" rx="2.5" ry="2.5" style="stroke:#181818;stroke-width:0.5;" width="51" x="7" y="498.1406"/><text fill="#000000" font-family="sans-serif" font-size="14" lengthAdjust="spacing" textLength="45" x="10" y="515.8145">Person</text><line style="stroke:#181818;stroke-width:0.5;" x1="8" x2="57" y1="523.7813" y2="523.7813"/></g><!--reverse link Person to Employee--><g id="link_Person_Employee"><path codeLine="93" d="M76.36,536.6506 C94.96,545.9806 116.41,556.7506 133.77,565.4606 " fill="none" id="Person-backto-Employee" style="stroke:#181818;stroke-width:1.0;"/><polygon fill="none" points="73.03,542.8106,58.3,527.5906,79.31,530.3006,73.03,542.8106" style="stroke:#181818;stroke-width:1.0;"/></g><!--link Person to Request--><g id="link_Person_Request"><path codeLine="94" d="M58.17,512.4906 C122.31,505.6006 294.3,487.1206 365.24,479.5006 " fill="none" id="Person-Request" style="stroke:#181818;stroke-width:1.0;"/><polygon fill="#000000" points="155.4714,486.8682,146.1641,484.9123,146.792,490.7566,155.4714,486.8682" style="stroke:#000000;stroke-width:1.0;"/><text fill="#000000" font-family="sans-serif" font-size="13" lengthAdjust="spacing" textLength="30" x="159.5" y="491.9092">owns</text><text fill="#000000" font-family="sans-serif" font-size="13" lengthAdjust="spacing" textLength="7" x="66.0094" y="525.5469">1</text><text fill="#000000" font-family="sans-serif" font-size="13" lengthAdjust="spacing" textLength="20" x="337.4483" y="493.2564">1..*</text></g><!--link Person to Request--><g id="link_Person_Request"><path codeLine="97" d="M34.15,497.9106 C36.8,455.1006 50.31,343.9806 119,297.1406 C213.49,232.7006 329.24,377.4006 375.72,444.4106 " fill="none" id="Person-Request-1" style="stroke:#181818;stroke-width:1.0;"/><polygon fill="#000000" points="128.9398,271.6286,119.5489,270.1248,120.4584,275.9318,128.9398,271.6286" style="stroke:#000000;stroke-width:1.0;"/><text fill="#000000" font-family="sans-serif" font-size="13" lengthAdjust="spacing" textLength="83" x="133" y="276.9092">asks to create</text><text fill="#000000" font-family="sans-serif" font-size="13" lengthAdjust="spacing" textLength="7" x="26.5141" y="487.5019">1</text><text fill="#000000" font-family="sans-serif" font-size="13" lengthAdjust="spacing" textLength="5" x="365.4088" y="433.7984">*</text></g><!--link Person to Offer--><g id="link_Person_Offer"><path codeLine="95" d="M34.41,532.2006 C38.43,589.1506 59.64,769.1406 167,769.1406 C167,769.1406 167,769.1406 672.5,769.1406 C758.54,769.1406 859.11,747.8806 904.32,737.1606 " fill="none" id="Person-Offer" style="stroke:#181818;stroke-width:1.0;"/><polygon fill="#000000" points="380.3667,762.549,372.2367,757.6141,370.8887,763.3353,380.3667,762.549" style="stroke:#000000;stroke-width:1.0;"/><text fill="#000000" font-family="sans-serif" font-size="13" lengthAdjust="spacing" textLength="39" x="384.5" y="765.9092">makes</text><text fill="#000000" font-family="sans-serif" font-size="13" lengthAdjust="spacing" textLength="7" x="26.9231" y="551.4727">1</text><text fill="#000000" font-family="sans-serif" font-size="13" lengthAdjust="spacing" textLength="5" x="891.535" y="752.6756">*</text></g><!--link Person to Advertisement--><g id="link_Person_Advertisement"><path codeLine="96" d="M44.29,532.4106 C58.88,554.5806 86.82,593.0406 119,617.1406 C168.7,654.3606 186.25,660.2806 247,673.1406 C374.32,700.0906 528.03,690.7306 610.78,682.3806 " fill="none" id="Person-Advertisement" style="stroke:#181818;stroke-width:1.0;"/><polygon fill="#000000" points="257.8335,666.6819,249.8418,661.5261,248.3375,667.2082,257.8335,666.6819" style="stroke:#000000;stroke-width:1.0;"/><text fill="#000000" font-family="sans-serif" font-size="13" lengthAdjust="spacing" textLength="53" x="262" y="669.9092">searches</text><text fill="#000000" font-family="sans-serif" font-size="13" lengthAdjust="spacing" textLength="5" x="42.0189" y="551.4382">*</text><text fill="#000000" font-family="sans-serif" font-size="13" lengthAdjust="spacing" textLength="5" x="598.0751" y="695.9432">*</text></g><!--link Employee to Store--><g id="link_Employee_Store"><path codeLine="99" d="M184.36,599.3706 C198.83,614.1906 221.97,634.5106 247,643.1406 C276.41,653.2806 287.07,651.6206 317,643.1406 C327.14,640.2706 337.25,635.6906 346.71,630.4706 " fill="none" id="Employee-Store" style="stroke:#181818;stroke-width:1.0;"/><polygon fill="#000000" points="259.4107,636.343,251.0801,631.7549,249.9742,637.5277,259.4107,636.343" style="stroke:#000000;stroke-width:1.0;"/><text fill="#000000" font-family="sans-serif" font-size="13" lengthAdjust="spacing" textLength="50" x="263.5" y="639.9092">monitors</text><text fill="#000000" font-family="sans-serif" font-size="13" lengthAdjust="spacing" textLength="7" x="181.2984" y="618.6948">1</text><text fill="#000000" font-family="sans-serif" font-size="13" lengthAdjust="spacing" textLength="7" x="332.0755" y="648.355">1</text></g><!--link Store to Employee--><g id="link_Store_Employee"><path codeLine="106" d="M347,592.0406 C317.87,590.7506 280.34,588.9906 247,587.1406 C232.23,586.3206 215.9,585.2906 202.01,584.3806 " fill="none" id="Store-Employee" style="stroke:#181818;stroke-width:1.0;"/><polygon fill="#000000" points="267.493,579.6661,258.6156,576.2541,258.3055,582.1238,267.493,579.6661" style="stroke:#000000;stroke-width:1.0;"/><text fill="#000000" font-family="sans-serif" font-size="13" lengthAdjust="spacing" textLength="34" x="271.5" y="583.9092">works</text><text fill="#000000" font-family="sans-serif" font-size="13" lengthAdjust="spacing" textLength="7" x="332.0688" y="604.5524">1</text><text fill="#000000" font-family="sans-serif" font-size="13" lengthAdjust="spacing" textLength="5" x="209.9966" y="598.267">*</text></g><!--link Employee to Request--><g id="link_Employee_Request"><path codeLine="100" d="M202.09,573.5506 C232.79,564.9406 279.29,550.2206 317,531.1406 C333.77,522.6506 351.08,511.0606 365.26,500.7106 " fill="none" id="Employee-Request" style="stroke:#181818;stroke-width:1.0;"/><polygon fill="#000000" points="256.5657,521.3642,247.1082,522.3676,249.5043,527.7349,256.5657,521.3642" style="stroke:#000000;stroke-width:1.0;"/><text fill="#000000" font-family="sans-serif" font-size="13" lengthAdjust="spacing" textLength="55" x="261" y="527.9092">publishes</text><text fill="#000000" font-family="sans-serif" font-size="13" lengthAdjust="spacing" textLength="7" x="209.8429" y="585.0823">1</text><text fill="#000000" font-family="sans-serif" font-size="13" lengthAdjust="spacing" textLength="5" x="352.6606" y="519.4765">*</text></g><!--link Person to Location--><g id="link_Person_Location"><path codeLine="102" d="M50.14,497.9406 C68.02,479.4606 97.2,449.2906 121.93,423.7306 " fill="none" id="Person-to-Location" style="stroke:#181818;stroke-width:1.0;stroke-dasharray:7.0,7.0;"/><polygon fill="none" points="116.92,418.8406,135.86,409.3306,126.98,428.5706,116.92,418.8406" style="stroke:#181818;stroke-width:1.0;"/></g><!--reverse link Location to Property--><g id="link_Location_Property"><path codeLine="103" d="M220.14,366.2306 C311.86,346.6606 504.16,305.6306 605.24,284.0606 " fill="none" id="Location-backto-Property" style="stroke:#181818;stroke-width:1.0;stroke-dasharray:7.0,7.0;"/><polygon fill="none" points="221.39,373.1206,200.37,370.4506,218.47,359.4306,221.39,373.1206" style="stroke:#181818;stroke-width:1.0;"/></g><!--reverse link Location to Store--><g id="link_Location_Store"><path codeLine="104" d="M215.68,415.8606 C245.42,441.0806 284.34,475.1206 317,507.1406 C329.42,519.3206 342.35,533.0006 354.1,545.8406 " fill="none" id="Location-backto-Store" style="stroke:#181818;stroke-width:1.0;stroke-dasharray:7.0,7.0;"/><polygon fill="none" points="211,421.0706,200.21,402.8306,220.02,410.3606,211,421.0706" style="stroke:#181818;stroke-width:1.0;"/></g><!--link Store to Advertisement--><g id="link_Store_Advertisement"><path codeLine="107" d="M448.04,627.0706 C457.68,632.4206 467.92,637.4106 478,641.1406 C520.97,657.0406 572.15,665.6206 610.94,670.1906 " fill="none" id="Store-Advertisement" style="stroke:#181818;stroke-width:1.0;"/><polygon fill="#000000" points="478.1665,632.1229,486.1584,637.2785,487.6624,631.5964,478.1665,632.1229" style="stroke:#000000;stroke-width:1.0;"/><text fill="#000000" font-family="sans-serif" font-size="13" lengthAdjust="spacing" textLength="82" x="492" y="637.9092">associate to a</text><text fill="#000000" font-family="sans-serif" font-size="13" lengthAdjust="spacing" textLength="7" x="455.9771" y="644.7274">1</text><text fill="#000000" font-family="sans-serif" font-size="13" lengthAdjust="spacing" textLength="5" x="597.8604" y="666.4896">*</text></g><!--link Advertisement to Offer--><g id="link_Advertisement_Offer"><path codeLine="109" d="M732.2,688.2006 C786.86,700.1606 865.04,717.2606 904.19,725.8206 " fill="none" id="Advertisement-Offer" style="stroke:#181818;stroke-width:1.0;"/><polygon fill="#000000" points="778.8845,689.4708,770.6763,684.6669,769.4203,690.409,778.8845,689.4708" style="stroke:#000000;stroke-width:1.0;"/><text fill="#000000" font-family="sans-serif" font-size="13" lengthAdjust="spacing" textLength="47" x="783" y="692.9092">receives</text><text fill="#000000" font-family="sans-serif" font-size="13" lengthAdjust="spacing" textLength="7" x="740.0244" y="702.4725">1</text><text fill="#000000" font-family="sans-serif" font-size="13" lengthAdjust="spacing" textLength="5" x="891.3684" y="720.2088">*</text></g><!--link Property to PropertyType--><g id="link_Property_PropertyType"><path codeLine="111" d="M737.76,299.4606 C783.24,319.8906 842.76,346.6206 883.13,364.7606 " fill="none" id="Property-PropertyType" style="stroke:#181818;stroke-width:1.0;"/><polygon fill="#000000" points="768.439,303.3536,775.4857,309.7407,777.8942,304.379,768.439,303.3536" style="stroke:#000000;stroke-width:1.0;"/><text fill="#000000" font-family="sans-serif" font-size="13" lengthAdjust="spacing" textLength="49" x="782" y="309.9092">contains</text><text fill="#000000" font-family="sans-serif" font-size="13" lengthAdjust="spacing" textLength="7" x="745.39" y="315.232">1</text><text fill="#000000" font-family="sans-serif" font-size="13" lengthAdjust="spacing" textLength="5" x="870.6468" y="374.5444">*</text></g><!--reverse link Request to RequestLease--><g id="link_Request_RequestLease"><path codeLine="113" d="M448.93,493.0106 C492.88,507.7106 556.9,529.1406 604.84,545.1706 " fill="none" id="Request-backto-RequestLease" style="stroke:#181818;stroke-width:1.0;stroke-dasharray:7.0,7.0;"/><polygon fill="none" points="446.45,499.5606,429.7,486.5806,450.89,486.2906,446.45,499.5606" style="stroke:#181818;stroke-width:1.0;"/></g><!--reverse link Request to RequestSale--><g id="link_Request_RequestSale"><path codeLine="114" d="M449.93,475.9506 C501.34,475.7606 579.47,475.4706 627.63,475.3006 " fill="none" id="Request-backto-RequestSale" style="stroke:#181818;stroke-width:1.0;stroke-dasharray:7.0,7.0;"/><polygon fill="none" points="449.73,482.9506,429.7,476.0306,449.68,468.9506,449.73,482.9506" style="stroke:#181818;stroke-width:1.0;"/></g><!--link Request to BusinessType--><g id="link_Request_BusinessType"><path codeLine="115" d="M429.84,465.4806 C444.47,460.5106 462.12,454.5206 478,449.1406 C527.78,432.2806 584.83,413.0306 623.81,399.8806 " fill="none" id="Request-BusinessType" style="stroke:#181818;stroke-width:1.0;"/><polygon fill="#000000" points="504.2365,406.8005,494.7266,406.9142,496.6097,412.4823,504.2365,406.8005" style="stroke:#000000;stroke-width:1.0;"/><text fill="#000000" font-family="sans-serif" font-size="13" lengthAdjust="spacing" textLength="49" x="508.5" y="412.9092">contains</text><text fill="#000000" font-family="sans-serif" font-size="13" lengthAdjust="spacing" textLength="5" x="437.4612" y="476.54">*</text><text fill="#000000" font-family="sans-serif" font-size="13" lengthAdjust="spacing" textLength="7" x="608.9715" y="415.1952">1</text></g><!--link Request to Property--><g id="link_Request_Property"><path codeLine="116" d="M425.14,444.3906 C439.84,427.8406 458.93,407.8406 478,392.1406 C517.71,359.4406 566.73,328.4906 605.36,305.9506 " fill="none" id="Request-Property" style="stroke:#181818;stroke-width:1.0;"/><text fill="#000000" font-family="sans-serif" font-size="13" lengthAdjust="spacing" textLength="7" x="423.4206" y="433.774">1</text><text fill="#000000" font-family="sans-serif" font-size="13" lengthAdjust="spacing" textLength="7" x="590.3079" y="322.7012">1</text></g><!--link Request to Advertisement--><g id="link_Request_Advertisement"><path codeLine="117" d="M428.48,507.8306 C448.64,529.0006 472.5,553.7506 478,558.1406 C500.93,576.4306 563.08,613.4606 610.61,640.9806 " fill="none" id="Request-Advertisement" style="stroke:#181818;stroke-width:1.0;"/><polygon fill="#000000" points="495.4636,547.4515,501.031,555.1622,504.5,550.4171,495.4636,547.4515" style="stroke:#000000;stroke-width:1.0;"/><text fill="#000000" font-family="sans-serif" font-size="13" lengthAdjust="spacing" textLength="49" x="508.5" y="554.9092">contains</text><text fill="#000000" font-family="sans-serif" font-size="13" lengthAdjust="spacing" textLength="7" x="426.7184" y="527.0541">1</text><text fill="#000000" font-family="sans-serif" font-size="13" lengthAdjust="spacing" textLength="7" x="596.1649" y="649.6644">1</text></g><!--reverse link Property to Apartment--><g id="link_Property_Apartment"><path codeLine="119" d="M758.08,270.1406 C791.8,270.1406 829.94,270.1406 861.57,270.1406 " fill="none" id="Property-backto-Apartment" style="stroke:#181818;stroke-width:1.0;stroke-dasharray:7.0,7.0;"/><polygon fill="none" points="757.76,277.1406,737.76,270.1406,757.76,263.1406,757.76,277.1406" style="stroke:#181818;stroke-width:1.0;"/></g><!--reverse link Property to House--><g id="link_Property_House"><path codeLine="120" d="M755.23,220.0506 C789.63,199.2206 829.04,175.3606 861.57,155.6606 " fill="none" id="Property-backto-House" style="stroke:#181818;stroke-width:1.0;stroke-dasharray:7.0,7.0;"/><polygon fill="none" points="758.5,226.2606,737.76,230.6306,751.24,214.2806,758.5,226.2606" style="stroke:#181818;stroke-width:1.0;"/></g><!--SRC=[hLLDRzim3BthLmYv32XGexti40G1iYp02dHhi6oxApOJ2x55LvJJfUt- -oWfjfMFou3bqAZa4n_vI36qqwPHLjMoHeDvQR46wMmBWdfFe_ATsiBA7IgG5dAdpBPA0LIg0b-qsSgDgWY4g63Zf4DfzRPqij3-aaOZaZjvfOXcpbczRXqyv6XM-XNadH2bBa3cskRC4Surk18B4kB3tVr7UIjdMp2E4w46JU5fb5mZxZo_XUSMoCaDMhRkDMcN2U6quym_OwsqaL-nW4g8m2yNTLFX0U1D_16TRLRimJfDK7kQDo7vasDTQoAkuPUgM9nJsuz34qs5Sk0ZnK2VMj86YBnRJYOBqzRJQOnN0EcjKK6K7h-qs33puL_nZ7qm3kn6vT1TQ4fqIE6eBAWE6eDfuXRcCDVkC0T_SuZv1Lk2Oz7ClmRx2GgBM5DgKguyjosLzHs8Z7kbAxMkOF7SwiRB6Cnh5JKD_rIuYGTgpU9tWzJQHBeP3udpsF-VIS-nScWXnjT5lA_gs4VWIQbcHS4pHfsS1hw5y4E0Hyn3HqxrFuf7pWB42bzrC-UXEvfvH7wkuW3ff25MvqbkJviDsBV-HXkpG6zD9lLxdFOhxJyTn2DkfIgkb_Zlajak_O_03OhtBIkbgWWByLeRIdtQpD4ugsAkGYp1aXVW_VQsVqkTSNG_acmUtMVPpQZZ64jyCIIdvo16X9h7ibOxI04tFU3aOOubWR9v2UV10hHdKxGZlo9oVWGE62gwD8VyHd4KnjBlGCr77_82baPjsdMbANABOGpUixR9P4pcn9prR_NC78Y525yfKyS-bYzekOB99UHC3UuZvjhN61RYH8WJmANEl9D1xsC9_IP9OEas6lEouu7GncSYZZB42jBPkUhnKzSxkcuoJReTa_ZJ0JlqfrVlYkzKXpJFOJ- -P_pxPB9XhLpnXStt5m00]--></g></svg>