<?xml version="1.0" encoding="us-ascii" standalone="no"?><svg xmlns="http://www.w3.org/2000/svg" xmlns:xlink="http://www.w3.org/1999/xlink" contentStyleType="text/css" height="777.2px" preserveAspectRatio="none" style="width:1504px;height:777px;background:#FFFFFF;" version="1.1" viewBox="0 0 1504 777" width="1504.8px" zoomAndPan="magnify"><defs/><g><rect fill="#FFFFFF" height="701.3563" style="stroke:#181818;stroke-width:0.4000000000000001;" width="4" x="36.8" y="36.5188"/><rect fill="#FFFFFF" height="692.9031" style="stroke:#181818;stroke-width:0.4000000000000001;" width="4" x="282" y="44.9719"/><rect fill="#FFFFFF" height="636.225" style="stroke:#181818;stroke-width:0.4000000000000001;" width="4" x="562.4" y="89.9969"/><rect fill="#FFFFFF" height="11.6531" style="stroke:#181818;stroke-width:0.4000000000000001;" width="4" x="715.2" y="89.9969"/><rect fill="#FFFFFF" height="11.6531" style="stroke:#181818;stroke-width:0.4000000000000001;" width="4" x="762" y="157.9156"/><rect fill="#FFFFFF" height="11.6531" style="stroke:#181818;stroke-width:0.4000000000000001;" width="4" x="762" y="267.9938"/><rect fill="#FFFFFF" height="11.6531" style="stroke:#181818;stroke-width:0.4000000000000001;" width="4" x="762" y="473.6438"/><rect fill="#FFFFFF" height="11.6531" style="stroke:#181818;stroke-width:0.4000000000000001;" width="4" x="825.8" y="181.2219"/><rect fill="#FFFFFF" height="11.6531" style="stroke:#181818;stroke-width:0.4000000000000001;" width="4" x="906.2" y="291.3"/><rect fill="#FFFFFF" height="11.6531" style="stroke:#181818;stroke-width:0.4000000000000001;" width="4" x="974.8" y="496.95"/><rect fill="#FFFFFF" height="130.3156" style="stroke:#181818;stroke-width:0.4000000000000001;" width="4" x="1016.8" y="552.9469"/><rect fill="#FFFFFF" height="11.6531" style="stroke:#181818;stroke-width:0.4000000000000001;" width="4" x="1451.6" y="618.5969"/><rect fill="none" height="279.6219" style="stroke:#000000;stroke-width:0.6000000000000001;" width="946.2" x="4" y="130.9563"/><rect fill="none" height="47.0125" style="stroke:#000000;stroke-width:0.6000000000000001;" width="354.4" x="8" y="360.7656"/><rect fill="none" height="160.475" style="stroke:#000000;stroke-width:0.6000000000000001;" width="979.4" x="523.2" y="537.6406"/><rect fill="none" height="90.025" style="stroke:#000000;stroke-width:0.6000000000000001;" width="499.2" x="999.4" y="581.9844"/><rect fill="none" height="30.1594" style="stroke:#000000;stroke-width:0.6000000000000001;" width="233.2" x="1240.2" y="603.2906"/><rect fill="none" height="18.5063" style="stroke:#000000;stroke-width:0.6000000000000001;" width="491.2" x="1003.4" y="650.7031"/><line style="stroke:#181818;stroke-width:0.20000000000000004;stroke-dasharray:5.0,5.0;" x1="38.8" x2="38.8" y1="32.5188" y2="745.075"/><line style="stroke:#181818;stroke-width:0.20000000000000004;stroke-dasharray:5.0,5.0;" x1="283.8" x2="283.8" y1="32.5188" y2="745.075"/><line style="stroke:#181818;stroke-width:0.20000000000000004;stroke-dasharray:5.0,5.0;" x1="564.4" x2="564.4" y1="60.4313" y2="745.075"/><line style="stroke:#181818;stroke-width:0.20000000000000004;stroke-dasharray:5.0,5.0;" x1="717" x2="717" y1="32.5188" y2="745.075"/><line style="stroke:#181818;stroke-width:0.20000000000000004;stroke-dasharray:5.0,5.0;" x1="763.8" x2="763.8" y1="32.5188" y2="745.075"/><line style="stroke:#181818;stroke-width:0.20000000000000004;stroke-dasharray:5.0,5.0;" x1="827.8" x2="827.8" y1="32.5188" y2="745.075"/><line style="stroke:#181818;stroke-width:0.20000000000000004;stroke-dasharray:5.0,5.0;" x1="908.2" x2="908.2" y1="32.5188" y2="745.075"/><line style="stroke:#181818;stroke-width:0.20000000000000004;stroke-dasharray:5.0,5.0;" x1="976.6" x2="976.6" y1="32.5188" y2="745.075"/><line style="stroke:#181818;stroke-width:0.20000000000000004;stroke-dasharray:5.0,5.0;" x1="1018.6" x2="1018.6" y1="32.5188" y2="745.075"/><line style="stroke:#181818;stroke-width:0.20000000000000004;stroke-dasharray:5.0,5.0;" x1="1268.6" x2="1268.6" y1="32.5188" y2="745.075"/><line style="stroke:#181818;stroke-width:0.20000000000000004;stroke-dasharray:5.0,5.0;" x1="1453.4" x2="1453.4" y1="32.5188" y2="745.075"/><line style="stroke:#181818;stroke-width:0.20000000000000004;stroke-dasharray:5.0,5.0;" x1="1481.8" x2="1481.8" y1="571.6656" y2="745.075"/><text fill="#000000" font-family="sans-serif" font-size="5.6" lengthAdjust="spacing" textLength="51.2" x="12" y="31.198">Unregistered User</text><ellipse cx="38.8" cy="5.4" fill="#E3E3E3" rx="3.2" ry="3.2" style="stroke:#181818;stroke-width:0.20000000000000004;"/><path d="M38.8,8.6 L38.8,19.4 M33.6,11.8 L44,11.8 M38.8,19.4 L33.6,25.4 M38.8,19.4 L44,25.4 " fill="none" style="stroke:#181818;stroke-width:0.20000000000000004;"/><text fill="#000000" font-family="sans-serif" font-size="5.6" lengthAdjust="spacing" textLength="51.2" x="12" y="749.873">Unregistered User</text><ellipse cx="38.8" cy="754.5938" fill="#E3E3E3" rx="3.2" ry="3.2" style="stroke:#181818;stroke-width:0.20000000000000004;"/><path d="M38.8,757.7938 L38.8,768.5938 M33.6,760.9938 L44,760.9938 M38.8,768.5938 L33.6,774.5938 M38.8,768.5938 L44,774.5938 " fill="none" style="stroke:#181818;stroke-width:0.20000000000000004;"/><rect fill="#E3E3E3" height="12.1188" rx="1" ry="1" style="stroke:#181818;stroke-width:0.20000000000000004;" width="51.6" x="258.2" y="20"/><text fill="#000000" font-family="sans-serif" font-size="5.6" lengthAdjust="spacing" textLength="46" x="261" y="27.998">:ListPropertiesUI</text><rect fill="#E3E3E3" height="12.1188" rx="1" ry="1" style="stroke:#181818;stroke-width:0.20000000000000004;" width="51.6" x="258.2" y="744.675"/><text fill="#000000" font-family="sans-serif" font-size="5.6" lengthAdjust="spacing" textLength="46" x="261" y="752.673">:ListPropertiesUI</text><rect fill="#E3E3E3" height="12.1188" rx="1" ry="1" style="stroke:#181818;stroke-width:0.20000000000000004;" width="74.4" x="527.2" y="744.675"/><text fill="#000000" font-family="sans-serif" font-size="5.6" lengthAdjust="spacing" textLength="68.8" x="530" y="752.673">:ListPropertiesController</text><rect fill="#E3E3E3" height="12.1188" rx="1" ry="1" style="stroke:#181818;stroke-width:0.20000000000000004;" width="42.8" x="695.8" y="20"/><text fill="#000000" font-family="sans-serif" font-size="5.6" lengthAdjust="spacing" textLength="37.2" x="698.6" y="27.998">:Repositories</text><rect fill="#E3E3E3" height="12.1188" rx="1" ry="1" style="stroke:#181818;stroke-width:0.20000000000000004;" width="42.8" x="695.8" y="744.675"/><text fill="#000000" font-family="sans-serif" font-size="5.6" lengthAdjust="spacing" textLength="37.2" x="698.6" y="752.673">:Repositories</text><rect fill="#E3E3E3" height="18.6375" rx="1" ry="1" style="stroke:#181818;stroke-width:0.20000000000000004;" width="42.8" x="742.6" y="13.4813"/><text fill="#000000" font-family="sans-serif" font-size="5.6" lengthAdjust="spacing" textLength="33.6" x="747.2" y="21.4793">repositories</text><text fill="#000000" font-family="sans-serif" font-size="5.6" lengthAdjust="spacing" textLength="37.2" x="745.4" y="27.998">:Repositories</text><rect fill="#E3E3E3" height="18.6375" rx="1" ry="1" style="stroke:#181818;stroke-width:0.20000000000000004;" width="42.8" x="742.6" y="744.675"/><text fill="#000000" font-family="sans-serif" font-size="5.6" lengthAdjust="spacing" textLength="33.6" x="747.2" y="752.673">repositories</text><text fill="#000000" font-family="sans-serif" font-size="5.6" lengthAdjust="spacing" textLength="37.2" x="745.4" y="759.1918">:Repositories</text><rect fill="#E3E3E3" height="18.6375" rx="1" ry="1" style="stroke:#181818;stroke-width:0.20000000000000004;" width="76.8" x="789.4" y="13.4813"/><text fill="#000000" font-family="sans-serif" font-size="5.6" lengthAdjust="spacing" textLength="68.8" x="793.4" y="21.4793">businessTypeRepository</text><text fill="#000000" font-family="sans-serif" font-size="5.6" lengthAdjust="spacing" textLength="71.2" x="792.2" y="27.998">:BusinessTypeRepository</text><rect fill="#E3E3E3" height="18.6375" rx="1" ry="1" style="stroke:#181818;stroke-width:0.20000000000000004;" width="76.8" x="789.4" y="744.675"/><text fill="#000000" font-family="sans-serif" font-size="5.6" lengthAdjust="spacing" textLength="68.8" x="793.4" y="752.673">businessTypeRepository</text><text fill="#000000" font-family="sans-serif" font-size="5.6" lengthAdjust="spacing" textLength="71.2" x="792.2" y="759.1918">:BusinessTypeRepository</text><rect fill="#E3E3E3" height="18.6375" rx="1" ry="1" style="stroke:#181818;stroke-width:0.20000000000000004;" width="76" x="870.2" y="13.4813"/><text fill="#000000" font-family="sans-serif" font-size="5.6" lengthAdjust="spacing" textLength="68.8" x="873.8" y="21.4793">propertyTypeRepository</text><text fill="#000000" font-family="sans-serif" font-size="5.6" lengthAdjust="spacing" textLength="70.4" x="873" y="27.998">:PropertyTypeRepository</text><rect fill="#E3E3E3" height="18.6375" rx="1" ry="1" style="stroke:#181818;stroke-width:0.20000000000000004;" width="76" x="870.2" y="744.675"/><text fill="#000000" font-family="sans-serif" font-size="5.6" lengthAdjust="spacing" textLength="68.8" x="873.8" y="752.673">propertyTypeRepository</text><text fill="#000000" font-family="sans-serif" font-size="5.6" lengthAdjust="spacing" textLength="70.4" x="873" y="759.1918">:PropertyTypeRepository</text><rect fill="#E3E3E3" height="18.6375" rx="1" ry="1" style="stroke:#181818;stroke-width:0.20000000000000004;" width="53.2" x="950.2" y="13.4813"/><text fill="#000000" font-family="sans-serif" font-size="5.6" lengthAdjust="spacing" textLength="44.8" x="954.4" y="21.4793">storeRepository</text><text fill="#000000" font-family="sans-serif" font-size="5.6" lengthAdjust="spacing" textLength="47.6" x="953" y="27.998">:StoreRepository</text><rect fill="#E3E3E3" height="18.6375" rx="1" ry="1" style="stroke:#181818;stroke-width:0.20000000000000004;" width="53.2" x="950.2" y="744.675"/><text fill="#000000" font-family="sans-serif" font-size="5.6" lengthAdjust="spacing" textLength="44.8" x="954.4" y="752.673">storeRepository</text><text fill="#000000" font-family="sans-serif" font-size="5.6" lengthAdjust="spacing" textLength="47.6" x="953" y="759.1918">:StoreRepository</text><rect fill="#E3E3E3" height="12.1188" rx="1" ry="1" style="stroke:#181818;stroke-width:0.20000000000000004;" width="22.8" x="1007.4" y="20"/><text fill="#000000" font-family="sans-serif" font-size="5.6" lengthAdjust="spacing" textLength="17.2" x="1010.2" y="27.998">:Store</text><rect fill="#E3E3E3" height="12.1188" rx="1" ry="1" style="stroke:#181818;stroke-width:0.20000000000000004;" width="22.8" x="1007.4" y="744.675"/><text fill="#000000" font-family="sans-serif" font-size="5.6" lengthAdjust="spacing" textLength="17.2" x="1010.2" y="752.673">:Store</text><rect fill="#E3E3E3" height="12.1188" rx="1" ry="1" style="stroke:#181818;stroke-width:0.20000000000000004;" width="49.2" x="1244.2" y="20"/><text fill="#000000" font-family="sans-serif" font-size="5.6" lengthAdjust="spacing" textLength="43.6" x="1247" y="27.998">:Advertisement</text><rect fill="#E3E3E3" height="12.1188" rx="1" ry="1" style="stroke:#181818;stroke-width:0.20000000000000004;" width="49.2" x="1244.2" y="744.675"/><text fill="#000000" font-family="sans-serif" font-size="5.6" lengthAdjust="spacing" textLength="43.6" x="1247" y="752.673">:Advertisement</text><rect fill="#E3E3E3" height="12.1188" rx="1" ry="1" style="stroke:#181818;stroke-width:0.20000000000000004;" width="31.6" x="1437.8" y="20"/><text fill="#000000" font-family="sans-serif" font-size="5.6" lengthAdjust="spacing" textLength="26" x="1440.6" y="27.998">:Property</text><rect fill="#E3E3E3" height="12.1188" rx="1" ry="1" style="stroke:#181818;stroke-width:0.20000000000000004;" width="31.6" x="1437.8" y="744.675"/><text fill="#000000" font-family="sans-serif" font-size="5.6" lengthAdjust="spacing" textLength="26" x="1440.6" y="752.673">:Property</text><rect fill="#E3E3E3" height="18.6375" rx="1" ry="1" style="stroke:#181818;stroke-width:0.20000000000000004;" width="17.2" x="1473.4" y="744.675"/><text fill="#000000" font-family="sans-serif" font-size="5.6" lengthAdjust="spacing" textLength="8" x="1478" y="752.673">list</text><text fill="#000000" font-family="sans-serif" font-size="5.6" lengthAdjust="spacing" textLength="11.6" x="1476.2" y="759.1918">:List</text><rect fill="#FFFFFF" height="701.3563" style="stroke:#181818;stroke-width:0.4000000000000001;" width="4" x="36.8" y="36.5188"/><rect fill="#FFFFFF" height="692.9031" style="stroke:#181818;stroke-width:0.4000000000000001;" width="4" x="282" y="44.9719"/><rect fill="#FFFFFF" height="636.225" style="stroke:#181818;stroke-width:0.4000000000000001;" width="4" x="562.4" y="89.9969"/><rect fill="#FFFFFF" height="11.6531" style="stroke:#181818;stroke-width:0.4000000000000001;" width="4" x="715.2" y="89.9969"/><rect fill="#FFFFFF" height="11.6531" style="stroke:#181818;stroke-width:0.4000000000000001;" width="4" x="762" y="157.9156"/><rect fill="#FFFFFF" height="11.6531" style="stroke:#181818;stroke-width:0.4000000000000001;" width="4" x="762" y="267.9938"/><rect fill="#FFFFFF" height="11.6531" style="stroke:#181818;stroke-width:0.4000000000000001;" width="4" x="762" y="473.6438"/><rect fill="#FFFFFF" height="11.6531" style="stroke:#181818;stroke-width:0.4000000000000001;" width="4" x="825.8" y="181.2219"/><rect fill="#FFFFFF" height="11.6531" style="stroke:#181818;stroke-width:0.4000000000000001;" width="4" x="906.2" y="291.3"/><rect fill="#FFFFFF" height="11.6531" style="stroke:#181818;stroke-width:0.4000000000000001;" width="4" x="974.8" y="496.95"/><rect fill="#FFFFFF" height="130.3156" style="stroke:#181818;stroke-width:0.4000000000000001;" width="4" x="1016.8" y="552.9469"/><rect fill="#FFFFFF" height="11.6531" style="stroke:#181818;stroke-width:0.4000000000000001;" width="4" x="1451.6" y="618.5969"/><polygon fill="#181818" points="277.2,43.3719,281.2,44.9719,277.2,46.5719,278.8,44.9719" style="stroke:#181818;stroke-width:0.4000000000000001;"/><line style="stroke:#181818;stroke-width:0.4000000000000001;" x1="40.8" x2="279.6" y1="44.9719" y2="44.9719"/><text fill="#000000" font-family="sans-serif" font-size="5.2" font-weight="bold" lengthAdjust="spacing" textLength="3.6" x="43.6" y="42.9455">1</text><text fill="#000000" font-family="sans-serif" font-size="5.2" lengthAdjust="spacing" textLength="72.4" x="48.8" y="42.9455">asks to list listed properties</text><polygon fill="#181818" points="522.4,55.025,526.4,56.625,522.4,58.225,524,56.625" style="stroke:#181818;stroke-width:0.4000000000000001;"/><line style="stroke:#181818;stroke-width:0.4000000000000001;" x1="286" x2="524.8" y1="56.625" y2="56.625"/><text fill="#000000" font-family="sans-serif" font-size="5.2" font-weight="bold" lengthAdjust="spacing" textLength="3.6" x="288.8" y="54.5986">2</text><text fill="#000000" font-family="sans-serif" font-size="5.2" lengthAdjust="spacing" textLength="20.4" x="294" y="54.5986">create()</text><rect fill="#E3E3E3" height="12.1188" rx="1" ry="1" style="stroke:#181818;stroke-width:0.20000000000000004;" width="74.4" x="527.2" y="48.1719"/><text fill="#000000" font-family="sans-serif" font-size="5.6" lengthAdjust="spacing" textLength="68.8" x="530" y="56.1699">:ListPropertiesController</text><line style="stroke:#181818;stroke-width:0.4000000000000001;" x1="286" x2="302.8" y1="73.1438" y2="73.1438"/><line style="stroke:#181818;stroke-width:0.4000000000000001;" x1="302.8" x2="302.8" y1="73.1438" y2="78.3438"/><line style="stroke:#181818;stroke-width:0.4000000000000001;" x1="286.4" x2="302.8" y1="78.3438" y2="78.3438"/><polygon fill="#181818" points="290.4,76.7438,286.4,78.3438,290.4,79.9438,288.8,78.3438" style="stroke:#181818;stroke-width:0.4000000000000001;"/><text fill="#000000" font-family="sans-serif" font-size="5.2" font-weight="bold" lengthAdjust="spacing" textLength="3.6" x="288.8" y="71.1174">3</text><text fill="#000000" font-family="sans-serif" font-size="5.2" lengthAdjust="spacing" textLength="12.4" x="294" y="71.1174">run()</text><polygon fill="#181818" points="710.4,88.3969,714.4,89.9969,710.4,91.5969,712,89.9969" style="stroke:#181818;stroke-width:0.4000000000000001;"/><line style="stroke:#181818;stroke-width:0.4000000000000001;" x1="566.4" x2="712.8" y1="89.9969" y2="89.9969"/><text fill="#000000" font-family="sans-serif" font-size="5.2" font-weight="bold" lengthAdjust="spacing" textLength="3.6" x="569.2" y="87.9705">4</text><text fill="#000000" font-family="sans-serif" font-size="5.2" lengthAdjust="spacing" textLength="34.4" x="574.4" y="87.9705">getInstance()</text><polygon fill="#181818" points="570.8,100.05,566.8,101.65,570.8,103.25,569.2,101.65" style="stroke:#181818;stroke-width:0.4000000000000001;"/><line style="stroke:#181818;stroke-width:0.4000000000000001;stroke-dasharray:2.0,2.0;" x1="568.4" x2="716.8" y1="101.65" y2="101.65"/><text fill="#000000" font-family="sans-serif" font-size="5.2" font-weight="bold" lengthAdjust="spacing" textLength="3.6" x="573.2" y="99.6236">5</text><text fill="#000000" font-family="sans-serif" font-size="5.2" lengthAdjust="spacing" textLength="30.8" x="578.4" y="99.6236">repositories</text><polygon fill="#181818" points="45.2,111.7031,41.2,113.3031,45.2,114.9031,43.6,113.3031" style="stroke:#181818;stroke-width:0.4000000000000001;"/><line style="stroke:#181818;stroke-width:0.4000000000000001;stroke-dasharray:2.0,2.0;" x1="42.8" x2="281.6" y1="113.3031" y2="113.3031"/><text fill="#000000" font-family="sans-serif" font-size="5.2" font-weight="bold" lengthAdjust="spacing" textLength="3.6" x="47.6" y="111.2768">6</text><text fill="#000000" font-family="sans-serif" font-size="5.2" lengthAdjust="spacing" textLength="226.4" x="52.8" y="111.2768">asks if the user want to use filters (business type, number of bedrooms, property type)</text><polygon fill="#181818" points="277.2,123.3563,281.2,124.9563,277.2,126.5563,278.8,124.9563" style="stroke:#181818;stroke-width:0.4000000000000001;"/><line style="stroke:#181818;stroke-width:0.4000000000000001;" x1="40.8" x2="279.6" y1="124.9563" y2="124.9563"/><text fill="#000000" font-family="sans-serif" font-size="5.2" font-weight="bold" lengthAdjust="spacing" textLength="3.6" x="43.6" y="122.9299">7</text><text fill="#000000" font-family="sans-serif" font-size="5.2" lengthAdjust="spacing" textLength="32.8" x="48.8" y="122.9299">send answer</text><path d="M4,130.9563 L33.6,130.9563 L33.6,133.8094 L29.6,137.8094 L4,137.8094 L4,130.9563 " fill="#EEEEEE" style="stroke:#000000;stroke-width:0.6000000000000001;"/><rect fill="none" height="279.6219" style="stroke:#000000;stroke-width:0.6000000000000001;" width="946.2" x="4" y="130.9563"/><text fill="#000000" font-family="sans-serif" font-size="5.2" font-weight="bold" lengthAdjust="spacing" textLength="9.6" x="10" y="136.183">opt</text><text fill="#000000" font-family="sans-serif" font-size="4.4" font-weight="bold" lengthAdjust="spacing" textLength="38.4" x="39.6" y="135.8404">[answer = true]</text><polygon fill="#181818" points="557.6,144.6625,561.6,146.2625,557.6,147.8625,559.2,146.2625" style="stroke:#181818;stroke-width:0.4000000000000001;"/><line style="stroke:#181818;stroke-width:0.4000000000000001;" x1="286" x2="560" y1="146.2625" y2="146.2625"/><text fill="#000000" font-family="sans-serif" font-size="5.2" font-weight="bold" lengthAdjust="spacing" textLength="3.6" x="288.8" y="144.2361">8</text><text fill="#000000" font-family="sans-serif" font-size="5.2" lengthAdjust="spacing" textLength="53.6" x="294" y="144.2361">getBusinessTypeList</text><polygon fill="#181818" points="757.2,156.3156,761.2,157.9156,757.2,159.5156,758.8,157.9156" style="stroke:#181818;stroke-width:0.4000000000000001;"/><line style="stroke:#181818;stroke-width:0.4000000000000001;" x1="566.4" x2="759.6" y1="157.9156" y2="157.9156"/><text fill="#000000" font-family="sans-serif" font-size="5.2" font-weight="bold" lengthAdjust="spacing" textLength="3.6" x="569.2" y="155.8893">9</text><text fill="#000000" font-family="sans-serif" font-size="5.2" lengthAdjust="spacing" textLength="76.4" x="574.4" y="155.8893">getBusinessTypeRepository()</text><polygon fill="#181818" points="570.8,167.9688,566.8,169.5688,570.8,171.1688,569.2,169.5688" style="stroke:#181818;stroke-width:0.4000000000000001;"/><line style="stroke:#181818;stroke-width:0.4000000000000001;stroke-dasharray:2.0,2.0;" x1="568.4" x2="763.6" y1="169.5688" y2="169.5688"/><text fill="#000000" font-family="sans-serif" font-size="5.2" font-weight="bold" lengthAdjust="spacing" textLength="7.2" x="573.2" y="167.5424">10</text><text fill="#000000" font-family="sans-serif" font-size="5.2" lengthAdjust="spacing" textLength="63.6" x="582" y="167.5424">businessTypeRepository</text><polygon fill="#181818" points="821,179.6219,825,181.2219,821,182.8219,822.6,181.2219" style="stroke:#181818;stroke-width:0.4000000000000001;"/><line style="stroke:#181818;stroke-width:0.4000000000000001;" x1="566.4" x2="823.4" y1="181.2219" y2="181.2219"/><text fill="#000000" font-family="sans-serif" font-size="5.2" font-weight="bold" lengthAdjust="spacing" textLength="7.2" x="569.2" y="179.1955">11</text><text fill="#000000" font-family="sans-serif" font-size="5.2" lengthAdjust="spacing" textLength="57.6" x="578" y="179.1955">getBusinessTypeList()</text><polygon fill="#181818" points="570.8,191.275,566.8,192.875,570.8,194.475,569.2,192.875" style="stroke:#181818;stroke-width:0.4000000000000001;"/><line style="stroke:#181818;stroke-width:0.4000000000000001;stroke-dasharray:2.0,2.0;" x1="568.4" x2="827.4" y1="192.875" y2="192.875"/><text fill="#000000" font-family="sans-serif" font-size="5.2" font-weight="bold" lengthAdjust="spacing" textLength="7.2" x="573.2" y="190.8486">12</text><text fill="#000000" font-family="sans-serif" font-size="5.2" lengthAdjust="spacing" textLength="44.8" x="582" y="190.8486">businessTypeList</text><polygon fill="#181818" points="290.4,202.9281,286.4,204.5281,290.4,206.1281,288.8,204.5281" style="stroke:#181818;stroke-width:0.4000000000000001;"/><line style="stroke:#181818;stroke-width:0.4000000000000001;stroke-dasharray:2.0,2.0;" x1="288" x2="562" y1="204.5281" y2="204.5281"/><text fill="#000000" font-family="sans-serif" font-size="5.2" font-weight="bold" lengthAdjust="spacing" textLength="7.2" x="292.8" y="202.5018">13</text><text fill="#000000" font-family="sans-serif" font-size="5.2" lengthAdjust="spacing" textLength="44.8" x="301.6" y="202.5018">businessTypeList</text><polygon fill="#181818" points="45.2,214.5813,41.2,216.1813,45.2,217.7813,43.6,216.1813" style="stroke:#181818;stroke-width:0.4000000000000001;"/><line style="stroke:#181818;stroke-width:0.4000000000000001;stroke-dasharray:2.0,2.0;" x1="42.8" x2="281.6" y1="216.1813" y2="216.1813"/><text fill="#000000" font-family="sans-serif" font-size="5.2" font-weight="bold" lengthAdjust="spacing" textLength="7.2" x="47.6" y="214.1549">14</text><text fill="#000000" font-family="sans-serif" font-size="5.2" lengthAdjust="spacing" textLength="62" x="56.4" y="214.1549">displays business types</text><polygon fill="#181818" points="277.2,226.2344,281.2,227.8344,277.2,229.4344,278.8,227.8344" style="stroke:#181818;stroke-width:0.4000000000000001;"/><line style="stroke:#181818;stroke-width:0.4000000000000001;" x1="40.8" x2="279.6" y1="227.8344" y2="227.8344"/><text fill="#000000" font-family="sans-serif" font-size="5.2" font-weight="bold" lengthAdjust="spacing" textLength="7.2" x="43.6" y="225.808">15</text><text fill="#000000" font-family="sans-serif" font-size="5.2" lengthAdjust="spacing" textLength="56" x="52.4" y="225.808">selects business type</text><line style="stroke:#181818;stroke-width:0.4000000000000001;" x1="286" x2="302.8" y1="239.4875" y2="239.4875"/><line style="stroke:#181818;stroke-width:0.4000000000000001;" x1="302.8" x2="302.8" y1="239.4875" y2="244.6875"/><line style="stroke:#181818;stroke-width:0.4000000000000001;" x1="286.4" x2="302.8" y1="244.6875" y2="244.6875"/><polygon fill="#181818" points="290.4,243.0875,286.4,244.6875,290.4,246.2875,288.8,244.6875" style="stroke:#181818;stroke-width:0.4000000000000001;"/><text fill="#000000" font-family="sans-serif" font-size="5.2" font-weight="bold" lengthAdjust="spacing" textLength="7.2" x="288.8" y="237.4611">16</text><text fill="#000000" font-family="sans-serif" font-size="5.2" lengthAdjust="spacing" textLength="48.8" x="297.6" y="237.4611">keepBusinessType</text><polygon fill="#181818" points="557.6,254.7406,561.6,256.3406,557.6,257.9406,559.2,256.3406" style="stroke:#181818;stroke-width:0.4000000000000001;"/><line style="stroke:#181818;stroke-width:0.4000000000000001;" x1="286" x2="560" y1="256.3406" y2="256.3406"/><text fill="#000000" font-family="sans-serif" font-size="5.2" font-weight="bold" lengthAdjust="spacing" textLength="7.2" x="288.8" y="254.3143">17</text><text fill="#000000" font-family="sans-serif" font-size="5.2" lengthAdjust="spacing" textLength="52.4" x="297.6" y="254.3143">getPropertyTypeList</text><polygon fill="#181818" points="757.2,266.3938,761.2,267.9938,757.2,269.5938,758.8,267.9938" style="stroke:#181818;stroke-width:0.4000000000000001;"/><line style="stroke:#181818;stroke-width:0.4000000000000001;" x1="566.4" x2="759.6" y1="267.9938" y2="267.9938"/><text fill="#000000" font-family="sans-serif" font-size="5.2" font-weight="bold" lengthAdjust="spacing" textLength="7.2" x="569.2" y="265.9674">18</text><text fill="#000000" font-family="sans-serif" font-size="5.2" lengthAdjust="spacing" textLength="75.2" x="578" y="265.9674">getPropertyTypeRepository()</text><polygon fill="#181818" points="570.8,278.0469,566.8,279.6469,570.8,281.2469,569.2,279.6469" style="stroke:#181818;stroke-width:0.4000000000000001;"/><line style="stroke:#181818;stroke-width:0.4000000000000001;stroke-dasharray:2.0,2.0;" x1="568.4" x2="763.6" y1="279.6469" y2="279.6469"/><text fill="#000000" font-family="sans-serif" font-size="5.2" font-weight="bold" lengthAdjust="spacing" textLength="7.2" x="573.2" y="277.6205">19</text><text fill="#000000" font-family="sans-serif" font-size="5.2" lengthAdjust="spacing" textLength="62.8" x="582" y="277.6205">propertyTypeRepository</text><polygon fill="#181818" points="901.4,289.7,905.4,291.3,901.4,292.9,903,291.3" style="stroke:#181818;stroke-width:0.4000000000000001;"/><line style="stroke:#181818;stroke-width:0.4000000000000001;" x1="566.4" x2="903.8" y1="291.3" y2="291.3"/><text fill="#000000" font-family="sans-serif" font-size="5.2" font-weight="bold" lengthAdjust="spacing" textLength="7.2" x="569.2" y="289.2736">20</text><text fill="#000000" font-family="sans-serif" font-size="5.2" lengthAdjust="spacing" textLength="56.4" x="578" y="289.2736">getPropertyTypeList()</text><polygon fill="#181818" points="570.8,301.3531,566.8,302.9531,570.8,304.5531,569.2,302.9531" style="stroke:#181818;stroke-width:0.4000000000000001;"/><line style="stroke:#181818;stroke-width:0.4000000000000001;stroke-dasharray:2.0,2.0;" x1="568.4" x2="907.8" y1="302.9531" y2="302.9531"/><text fill="#000000" font-family="sans-serif" font-size="5.2" font-weight="bold" lengthAdjust="spacing" textLength="7.2" x="573.2" y="300.9268">21</text><text fill="#000000" font-family="sans-serif" font-size="5.2" lengthAdjust="spacing" textLength="44" x="582" y="300.9268">propertyTypeList</text><polygon fill="#181818" points="290.4,313.0063,286.4,314.6063,290.4,316.2063,288.8,314.6063" style="stroke:#181818;stroke-width:0.4000000000000001;"/><line style="stroke:#181818;stroke-width:0.4000000000000001;stroke-dasharray:2.0,2.0;" x1="288" x2="562" y1="314.6063" y2="314.6063"/><text fill="#000000" font-family="sans-serif" font-size="5.2" font-weight="bold" lengthAdjust="spacing" textLength="7.2" x="292.8" y="312.5799">22</text><text fill="#000000" font-family="sans-serif" font-size="5.2" lengthAdjust="spacing" textLength="44" x="301.6" y="312.5799">propertyTypeList</text><polygon fill="#181818" points="45.2,324.6594,41.2,326.2594,45.2,327.8594,43.6,326.2594" style="stroke:#181818;stroke-width:0.4000000000000001;"/><line style="stroke:#181818;stroke-width:0.4000000000000001;stroke-dasharray:2.0,2.0;" x1="42.8" x2="281.6" y1="326.2594" y2="326.2594"/><text fill="#000000" font-family="sans-serif" font-size="5.2" font-weight="bold" lengthAdjust="spacing" textLength="7.2" x="47.6" y="324.233">23</text><text fill="#000000" font-family="sans-serif" font-size="5.2" lengthAdjust="spacing" textLength="61.2" x="56.4" y="324.233">displays property types</text><polygon fill="#181818" points="277.2,336.3125,281.2,337.9125,277.2,339.5125,278.8,337.9125" style="stroke:#181818;stroke-width:0.4000000000000001;"/><line style="stroke:#181818;stroke-width:0.4000000000000001;" x1="40.8" x2="279.6" y1="337.9125" y2="337.9125"/><text fill="#000000" font-family="sans-serif" font-size="5.2" font-weight="bold" lengthAdjust="spacing" textLength="7.2" x="43.6" y="335.8861">24</text><text fill="#000000" font-family="sans-serif" font-size="5.2" lengthAdjust="spacing" textLength="55.2" x="52.4" y="335.8861">selects property type</text><line style="stroke:#181818;stroke-width:0.4000000000000001;" x1="286" x2="302.8" y1="349.5656" y2="349.5656"/><line style="stroke:#181818;stroke-width:0.4000000000000001;" x1="302.8" x2="302.8" y1="349.5656" y2="354.7656"/><line style="stroke:#181818;stroke-width:0.4000000000000001;" x1="286.4" x2="302.8" y1="354.7656" y2="354.7656"/><polygon fill="#181818" points="290.4,353.1656,286.4,354.7656,290.4,356.3656,288.8,354.7656" style="stroke:#181818;stroke-width:0.4000000000000001;"/><text fill="#000000" font-family="sans-serif" font-size="5.2" font-weight="bold" lengthAdjust="spacing" textLength="7.2" x="288.8" y="347.5393">25</text><text fill="#000000" font-family="sans-serif" font-size="5.2" lengthAdjust="spacing" textLength="47.6" x="297.6" y="347.5393">keepPropertyType</text><path d="M8,360.7656 L35.6,360.7656 L35.6,363.6188 L31.6,367.6188 L8,367.6188 L8,360.7656 " fill="#EEEEEE" style="stroke:#000000;stroke-width:0.6000000000000001;"/><rect fill="none" height="47.0125" style="stroke:#000000;stroke-width:0.6000000000000001;" width="354.4" x="8" y="360.7656"/><text fill="#000000" font-family="sans-serif" font-size="5.2" font-weight="bold" lengthAdjust="spacing" textLength="9.6" x="14" y="365.9924">opt</text><text fill="#000000" font-family="sans-serif" font-size="4.4" font-weight="bold" lengthAdjust="spacing" textLength="69.6" x="41.6" y="365.6498">[keepPropertyType != Land]</text><polygon fill="#181818" points="45.2,374.4719,41.2,376.0719,45.2,377.6719,43.6,376.0719" style="stroke:#181818;stroke-width:0.4000000000000001;"/><line style="stroke:#181818;stroke-width:0.4000000000000001;stroke-dasharray:2.0,2.0;" x1="42.8" x2="281.6" y1="376.0719" y2="376.0719"/><text fill="#000000" font-family="sans-serif" font-size="5.2" font-weight="bold" lengthAdjust="spacing" textLength="7.2" x="47.6" y="374.0455">26</text><text fill="#000000" font-family="sans-serif" font-size="5.2" lengthAdjust="spacing" textLength="68" x="56.4" y="374.0455">asks number of bedrooms</text><polygon fill="#181818" points="277.2,386.125,281.2,387.725,277.2,389.325,278.8,387.725" style="stroke:#181818;stroke-width:0.4000000000000001;"/><line style="stroke:#181818;stroke-width:0.4000000000000001;" x1="40.8" x2="279.6" y1="387.725" y2="387.725"/><text fill="#000000" font-family="sans-serif" font-size="5.2" font-weight="bold" lengthAdjust="spacing" textLength="7.2" x="43.6" y="385.6986">27</text><text fill="#000000" font-family="sans-serif" font-size="5.2" lengthAdjust="spacing" textLength="67.6" x="52.4" y="385.6986">type number of bedrooms</text><line style="stroke:#181818;stroke-width:0.4000000000000001;" x1="286" x2="302.8" y1="399.3781" y2="399.3781"/><line style="stroke:#181818;stroke-width:0.4000000000000001;" x1="302.8" x2="302.8" y1="399.3781" y2="404.5781"/><line style="stroke:#181818;stroke-width:0.4000000000000001;" x1="286.4" x2="302.8" y1="404.5781" y2="404.5781"/><polygon fill="#181818" points="290.4,402.9781,286.4,404.5781,290.4,406.1781,288.8,404.5781" style="stroke:#181818;stroke-width:0.4000000000000001;"/><text fill="#000000" font-family="sans-serif" font-size="5.2" font-weight="bold" lengthAdjust="spacing" textLength="7.2" x="288.8" y="397.3518">28</text><text fill="#000000" font-family="sans-serif" font-size="5.2" lengthAdjust="spacing" textLength="60" x="297.6" y="397.3518">keepNumberBedrooms</text><polygon fill="#181818" points="45.2,420.2313,41.2,421.8313,45.2,423.4313,43.6,421.8313" style="stroke:#181818;stroke-width:0.4000000000000001;"/><line style="stroke:#181818;stroke-width:0.4000000000000001;stroke-dasharray:2.0,2.0;" x1="42.8" x2="281.6" y1="421.8313" y2="421.8313"/><text fill="#000000" font-family="sans-serif" font-size="5.2" font-weight="bold" lengthAdjust="spacing" textLength="7.2" x="47.6" y="419.8049">29</text><text fill="#000000" font-family="sans-serif" font-size="5.2" lengthAdjust="spacing" textLength="57.6" x="56.4" y="419.8049">displays sort methods</text><polygon fill="#181818" points="277.2,431.8844,281.2,433.4844,277.2,435.0844,278.8,433.4844" style="stroke:#181818;stroke-width:0.4000000000000001;"/><line style="stroke:#181818;stroke-width:0.4000000000000001;" x1="40.8" x2="279.6" y1="433.4844" y2="433.4844"/><text fill="#000000" font-family="sans-serif" font-size="5.2" font-weight="bold" lengthAdjust="spacing" textLength="7.2" x="43.6" y="431.458">30</text><text fill="#000000" font-family="sans-serif" font-size="5.2" lengthAdjust="spacing" textLength="51.6" x="52.4" y="431.458">selects sort method</text><line style="stroke:#181818;stroke-width:0.4000000000000001;" x1="286" x2="302.8" y1="445.1375" y2="445.1375"/><line style="stroke:#181818;stroke-width:0.4000000000000001;" x1="302.8" x2="302.8" y1="445.1375" y2="450.3375"/><line style="stroke:#181818;stroke-width:0.4000000000000001;" x1="286.4" x2="302.8" y1="450.3375" y2="450.3375"/><polygon fill="#181818" points="290.4,448.7375,286.4,450.3375,290.4,451.9375,288.8,450.3375" style="stroke:#181818;stroke-width:0.4000000000000001;"/><text fill="#000000" font-family="sans-serif" font-size="5.2" font-weight="bold" lengthAdjust="spacing" textLength="7.2" x="288.8" y="443.1111">31</text><text fill="#000000" font-family="sans-serif" font-size="5.2" lengthAdjust="spacing" textLength="42.4" x="297.6" y="443.1111">keepSortMethod</text><polygon fill="#181818" points="557.6,460.3906,561.6,461.9906,557.6,463.5906,559.2,461.9906" style="stroke:#181818;stroke-width:0.4000000000000001;"/><line style="stroke:#181818;stroke-width:0.4000000000000001;" x1="286" x2="560" y1="461.9906" y2="461.9906"/><text fill="#000000" font-family="sans-serif" font-size="5.2" font-weight="bold" lengthAdjust="spacing" textLength="7.2" x="288.8" y="459.9643">32</text><text fill="#000000" font-family="sans-serif" font-size="5.2" lengthAdjust="spacing" textLength="258" x="297.6" y="459.9643">getListedProperties(keepSortMethod,keepBusinessType,keepPropertyType,keepNumberBedrooms)</text><polygon fill="#181818" points="757.2,472.0438,761.2,473.6438,757.2,475.2438,758.8,473.6438" style="stroke:#181818;stroke-width:0.4000000000000001;"/><line style="stroke:#181818;stroke-width:0.4000000000000001;" x1="566.4" x2="759.6" y1="473.6438" y2="473.6438"/><text fill="#000000" font-family="sans-serif" font-size="5.2" font-weight="bold" lengthAdjust="spacing" textLength="7.2" x="569.2" y="471.6174">33</text><text fill="#000000" font-family="sans-serif" font-size="5.2" lengthAdjust="spacing" textLength="54" x="578" y="471.6174">getStoreRepository()</text><polygon fill="#181818" points="570.8,483.6969,566.8,485.2969,570.8,486.8969,569.2,485.2969" style="stroke:#181818;stroke-width:0.4000000000000001;"/><line style="stroke:#181818;stroke-width:0.4000000000000001;stroke-dasharray:2.0,2.0;" x1="568.4" x2="763.6" y1="485.2969" y2="485.2969"/><text fill="#000000" font-family="sans-serif" font-size="5.2" font-weight="bold" lengthAdjust="spacing" textLength="7.2" x="573.2" y="483.2705">34</text><text fill="#000000" font-family="sans-serif" font-size="5.2" lengthAdjust="spacing" textLength="41.2" x="582" y="483.2705">storeRepository</text><polygon fill="#181818" points="970,495.35,974,496.95,970,498.55,971.6,496.95" style="stroke:#181818;stroke-width:0.4000000000000001;"/><line style="stroke:#181818;stroke-width:0.4000000000000001;" x1="566.4" x2="972.4" y1="496.95" y2="496.95"/><text fill="#000000" font-family="sans-serif" font-size="5.2" font-weight="bold" lengthAdjust="spacing" textLength="7.2" x="569.2" y="494.9236">35</text><text fill="#000000" font-family="sans-serif" font-size="5.2" lengthAdjust="spacing" textLength="38" x="578" y="494.9236">getStoresList()</text><polygon fill="#181818" points="570.8,507.0031,566.8,508.6031,570.8,510.2031,569.2,508.6031" style="stroke:#181818;stroke-width:0.4000000000000001;"/><line style="stroke:#181818;stroke-width:0.4000000000000001;stroke-dasharray:2.0,2.0;" x1="568.4" x2="976.4" y1="508.6031" y2="508.6031"/><text fill="#000000" font-family="sans-serif" font-size="5.2" font-weight="bold" lengthAdjust="spacing" textLength="7.2" x="573.2" y="506.5768">36</text><text fill="#000000" font-family="sans-serif" font-size="5.2" lengthAdjust="spacing" textLength="25.2" x="582" y="506.5768">storesList</text><polygon fill="#181818" points="1468.6,518.6563,1472.6,520.2563,1468.6,521.8563,1470.2,520.2563" style="stroke:#181818;stroke-width:0.4000000000000001;"/><line style="stroke:#181818;stroke-width:0.4000000000000001;" x1="566.4" x2="1471" y1="520.2563" y2="520.2563"/><text fill="#000000" font-family="sans-serif" font-size="5.2" font-weight="bold" lengthAdjust="spacing" textLength="7.2" x="569.2" y="518.2299">37</text><text fill="#000000" font-family="sans-serif" font-size="5.2" lengthAdjust="spacing" textLength="20.4" x="578" y="518.2299">create()</text><rect fill="#E3E3E3" height="18.6375" rx="1" ry="1" style="stroke:#181818;stroke-width:0.20000000000000004;" width="17.2" x="1473.4" y="511.8031"/><text fill="#000000" font-family="sans-serif" font-size="5.6" lengthAdjust="spacing" textLength="8" x="1478" y="519.8012">list</text><text fill="#000000" font-family="sans-serif" font-size="5.6" lengthAdjust="spacing" textLength="11.6" x="1476.2" y="526.3199">:List</text><path d="M523.2,537.6406 L553.6,537.6406 L553.6,540.4938 L549.6,544.4938 L523.2,544.4938 L523.2,537.6406 " fill="#EEEEEE" style="stroke:#000000;stroke-width:0.6000000000000001;"/><rect fill="none" height="160.475" style="stroke:#000000;stroke-width:0.6000000000000001;" width="979.4" x="523.2" y="537.6406"/><text fill="#000000" font-family="sans-serif" font-size="5.2" font-weight="bold" lengthAdjust="spacing" textLength="12.4" x="529.2" y="542.8674">loop</text><text fill="#000000" font-family="sans-serif" font-size="4.4" font-weight="bold" lengthAdjust="spacing" textLength="38.8" x="559.6" y="542.5248">[for each store]</text><polygon fill="#181818" points="1012,551.3469,1016,552.9469,1012,554.5469,1013.6,552.9469" style="stroke:#181818;stroke-width:0.4000000000000001;"/><line style="stroke:#181818;stroke-width:0.4000000000000001;" x1="566.4" x2="1014.4" y1="552.9469" y2="552.9469"/><text fill="#000000" font-family="sans-serif" font-size="5.2" font-weight="bold" lengthAdjust="spacing" textLength="7.2" x="569.2" y="550.9205">38</text><text fill="#000000" font-family="sans-serif" font-size="5.2" lengthAdjust="spacing" textLength="214" x="578" y="550.9205">getListedProperties(keepBusinessType,keepPropertyType,keepNumberBedrooms)</text><polygon fill="#181818" points="1468.6,563,1472.6,564.6,1468.6,566.2,1470.2,564.6" style="stroke:#181818;stroke-width:0.4000000000000001;"/><line style="stroke:#181818;stroke-width:0.4000000000000001;" x1="1020.8" x2="1471" y1="564.6" y2="564.6"/><text fill="#000000" font-family="sans-serif" font-size="5.2" font-weight="bold" lengthAdjust="spacing" textLength="7.2" x="1023.6" y="562.5736">39</text><text fill="#000000" font-family="sans-serif" font-size="5.2" lengthAdjust="spacing" textLength="20.4" x="1032.4" y="562.5736">create()</text><rect fill="#E3E3E3" height="18.6375" rx="1" ry="1" style="stroke:#181818;stroke-width:0.20000000000000004;" width="17.2" x="1473.4" y="556.1469"/><text fill="#000000" font-family="sans-serif" font-size="5.6" lengthAdjust="spacing" textLength="8" x="1478" y="564.1449">list</text><text fill="#000000" font-family="sans-serif" font-size="5.6" lengthAdjust="spacing" textLength="11.6" x="1476.2" y="570.6637">:List</text><path d="M999.4,581.9844 L1029.8,581.9844 L1029.8,584.8375 L1025.8,588.8375 L999.4,588.8375 L999.4,581.9844 " fill="#EEEEEE" style="stroke:#000000;stroke-width:0.6000000000000001;"/><rect fill="none" height="90.025" style="stroke:#000000;stroke-width:0.6000000000000001;" width="499.2" x="999.4" y="581.9844"/><text fill="#000000" font-family="sans-serif" font-size="5.2" font-weight="bold" lengthAdjust="spacing" textLength="12.4" x="1005.4" y="587.2111">loop</text><text fill="#000000" font-family="sans-serif" font-size="4.4" font-weight="bold" lengthAdjust="spacing" textLength="61.2" x="1035.8" y="586.8686">[for each advertisement]</text><polygon fill="#181818" points="1264,595.6906,1268,597.2906,1264,598.8906,1265.6,597.2906" style="stroke:#181818;stroke-width:0.4000000000000001;"/><line style="stroke:#181818;stroke-width:0.4000000000000001;" x1="1020.8" x2="1266.4" y1="597.2906" y2="597.2906"/><text fill="#000000" font-family="sans-serif" font-size="5.2" font-weight="bold" lengthAdjust="spacing" textLength="7.2" x="1023.6" y="595.2643">40</text><text fill="#000000" font-family="sans-serif" font-size="5.2" lengthAdjust="spacing" textLength="229.6" x="1032.4" y="595.2643">getAdsAndPropertyFilters(keepBusinessType,keepPropertyType,keepNumberBedrooms)</text><path d="M1240.2,603.2906 L1267.8,603.2906 L1267.8,606.1438 L1263.8,610.1438 L1240.2,610.1438 L1240.2,603.2906 " fill="#EEEEEE" style="stroke:#000000;stroke-width:0.6000000000000001;"/><rect fill="none" height="30.1594" style="stroke:#000000;stroke-width:0.6000000000000001;" width="233.2" x="1240.2" y="603.2906"/><text fill="#000000" font-family="sans-serif" font-size="5.2" font-weight="bold" lengthAdjust="spacing" textLength="9.6" x="1246.2" y="608.5174">opt</text><text fill="#000000" font-family="sans-serif" font-size="4.4" font-weight="bold" lengthAdjust="spacing" textLength="14" x="1273.8" y="608.1748">[true]</text><polygon fill="#181818" points="1446.8,616.9969,1450.8,618.5969,1446.8,620.1969,1448.4,618.5969" style="stroke:#181818;stroke-width:0.4000000000000001;"/><line style="stroke:#181818;stroke-width:0.4000000000000001;" x1="1268.8" x2="1449.2" y1="618.5969" y2="618.5969"/><text fill="#000000" font-family="sans-serif" font-size="5.2" font-weight="bold" lengthAdjust="spacing" textLength="7.2" x="1271.6" y="616.5705">41</text><text fill="#000000" font-family="sans-serif" font-size="5.2" lengthAdjust="spacing" textLength="166.4" x="1280.4" y="616.5705">checkPropertyFilters(keepPropertyType,keepNumberBedrooms)</text><polygon fill="#181818" points="1273.2,628.65,1269.2,630.25,1273.2,631.85,1271.6,630.25" style="stroke:#181818;stroke-width:0.4000000000000001;"/><line style="stroke:#181818;stroke-width:0.4000000000000001;stroke-dasharray:2.0,2.0;" x1="1270.8" x2="1453.2" y1="630.25" y2="630.25"/><text fill="#000000" font-family="sans-serif" font-size="5.2" font-weight="bold" lengthAdjust="spacing" textLength="7.2" x="1275.6" y="628.2236">42</text><text fill="#000000" font-family="sans-serif" font-size="5.2" lengthAdjust="spacing" textLength="24.8" x="1284.4" y="628.2236">true/false</text><polygon fill="#181818" points="1025.2,643.1031,1021.2,644.7031,1025.2,646.3031,1023.6,644.7031" style="stroke:#181818;stroke-width:0.4000000000000001;"/><line style="stroke:#181818;stroke-width:0.4000000000000001;stroke-dasharray:2.0,2.0;" x1="1022.8" x2="1268.4" y1="644.7031" y2="644.7031"/><text fill="#000000" font-family="sans-serif" font-size="5.2" font-weight="bold" lengthAdjust="spacing" textLength="7.2" x="1027.6" y="642.6768">43</text><text fill="#000000" font-family="sans-serif" font-size="5.2" lengthAdjust="spacing" textLength="24.8" x="1036.4" y="642.6768">true/false</text><path d="M1003.4,650.7031 L1031,650.7031 L1031,653.5563 L1027,657.5563 L1003.4,657.5563 L1003.4,650.7031 " fill="#EEEEEE" style="stroke:#000000;stroke-width:0.6000000000000001;"/><rect fill="none" height="18.5063" style="stroke:#000000;stroke-width:0.6000000000000001;" width="491.2" x="1003.4" y="650.7031"/><text fill="#000000" font-family="sans-serif" font-size="5.2" font-weight="bold" lengthAdjust="spacing" textLength="9.6" x="1009.4" y="655.9299">opt</text><text fill="#000000" font-family="sans-serif" font-size="4.4" font-weight="bold" lengthAdjust="spacing" textLength="14" x="1037" y="655.5873">[true]</text><polygon fill="#181818" points="1477.2,664.4094,1481.2,666.0094,1477.2,667.6094,1478.8,666.0094" style="stroke:#181818;stroke-width:0.4000000000000001;"/><line style="stroke:#181818;stroke-width:0.4000000000000001;" x1="1020.8" x2="1479.6" y1="666.0094" y2="666.0094"/><text fill="#000000" font-family="sans-serif" font-size="5.2" font-weight="bold" lengthAdjust="spacing" textLength="7.2" x="1023.6" y="663.983">44</text><text fill="#000000" font-family="sans-serif" font-size="5.2" lengthAdjust="spacing" textLength="51.6" x="1032.4" y="663.983">add(advertisement)</text><polygon fill="#181818" points="570.8,681.6625,566.8,683.2625,570.8,684.8625,569.2,683.2625" style="stroke:#181818;stroke-width:0.4000000000000001;"/><line style="stroke:#181818;stroke-width:0.4000000000000001;stroke-dasharray:2.0,2.0;" x1="568.4" x2="1018.4" y1="683.2625" y2="683.2625"/><text fill="#000000" font-family="sans-serif" font-size="5.2" font-weight="bold" lengthAdjust="spacing" textLength="7.2" x="573.2" y="681.2361">45</text><text fill="#000000" font-family="sans-serif" font-size="5.2" lengthAdjust="spacing" textLength="40.8" x="582" y="681.2361">listedProperties</text><polygon fill="#181818" points="1477.2,693.3156,1481.2,694.9156,1477.2,696.5156,1478.8,694.9156" style="stroke:#181818;stroke-width:0.4000000000000001;"/><line style="stroke:#181818;stroke-width:0.4000000000000001;" x1="566.4" x2="1479.6" y1="694.9156" y2="694.9156"/><text fill="#000000" font-family="sans-serif" font-size="5.2" font-weight="bold" lengthAdjust="spacing" textLength="7.2" x="569.2" y="692.8893">46</text><text fill="#000000" font-family="sans-serif" font-size="5.2" lengthAdjust="spacing" textLength="54.4" x="578" y="692.8893">add(listedProperties)</text><line style="stroke:#181818;stroke-width:0.4000000000000001;" x1="566.4" x2="583.2" y1="709.3688" y2="709.3688"/><line style="stroke:#181818;stroke-width:0.4000000000000001;" x1="583.2" x2="583.2" y1="709.3688" y2="714.5688"/><line style="stroke:#181818;stroke-width:0.4000000000000001;" x1="566.8" x2="583.2" y1="714.5688" y2="714.5688"/><polygon fill="#181818" points="570.8,712.9688,566.8,714.5688,570.8,716.1688,569.2,714.5688" style="stroke:#181818;stroke-width:0.4000000000000001;"/><text fill="#000000" font-family="sans-serif" font-size="5.2" font-weight="bold" lengthAdjust="spacing" textLength="7.2" x="569.2" y="707.3424">47</text><text fill="#000000" font-family="sans-serif" font-size="5.2" lengthAdjust="spacing" textLength="134.4" x="578" y="707.3424">sortPropertiesList(listedProperties,keepSortMethod)</text><polygon fill="#181818" points="290.4,724.6219,286.4,726.2219,290.4,727.8219,288.8,726.2219" style="stroke:#181818;stroke-width:0.4000000000000001;"/><line style="stroke:#181818;stroke-width:0.4000000000000001;stroke-dasharray:2.0,2.0;" x1="288" x2="564" y1="726.2219" y2="726.2219"/><text fill="#000000" font-family="sans-serif" font-size="5.2" font-weight="bold" lengthAdjust="spacing" textLength="7.2" x="292.8" y="724.1955">48</text><text fill="#000000" font-family="sans-serif" font-size="5.2" lengthAdjust="spacing" textLength="40.8" x="301.6" y="724.1955">listedProperties</text><polygon fill="#181818" points="43.2,736.275,39.2,737.875,43.2,739.475,41.6,737.875" style="stroke:#181818;stroke-width:0.4000000000000001;"/><line style="stroke:#181818;stroke-width:0.4000000000000001;stroke-dasharray:2.0,2.0;" x1="40.8" x2="283.6" y1="737.875" y2="737.875"/><text fill="#000000" font-family="sans-serif" font-size="5.2" font-weight="bold" lengthAdjust="spacing" textLength="7.2" x="45.6" y="735.8486">49</text><text fill="#000000" font-family="sans-serif" font-size="5.2" lengthAdjust="spacing" textLength="62.8" x="54.4" y="735.8486">display listed properties</text><!--SRC=[jLV1Rjiu4BthAwQvR5pOsBlG1aZRtOK1Pnl4yQcx1yMYRS4oAP1qK_zzXvGbSQXHv1If3a5ClXc-6RuPacPVo2hJsG4EIghrJgk30AkF8Z7jJ9MjzzbMBEsf5A35scPoMuO0iyjozLp8BMooqeWaoOvMoUFXIUWa-MDNv08sIjadzIF9rbPfk5f9BRQ5iKAB75P6w2l83Dn-kKlGeotMHPL92rVf0Z7tMbK21uLPpJriDNyHzLb9grLPdfr-VdnOHFW7KIbJ8154UypNXtyeH0U8_sJVuE6l-w_Kukbe2YcCUJnLeeMVqFOJE-6zy5FKRrN7TUhvlMSdl5z-YlerE4GTBkc8znIDHNdqinqkchtDlxiDCU8WfAttDno9q0rd4W35bBZDoDFjjaSjvil7n7-egk9xPeLNK0BuuJymkq6fG8hGlG6hmDdxFwYvgfLBKXkqBb1TVi1zQ8vEd8BUlqzXhGK2hYVX_EncDKz17sKux0oS8SeAbzyAEvS6YsRjR1jCkvxNPs_KAR8T1UzfTgQ2omLoR46vu8rT9ZxCPa4gYWtOdO0ZbXqykynYRl07R8eI2zB0TQDbi2YWATIL36e3JoBNIXtCjCdVoKCcT3MVznICa3baqZoxBj3CRxKwLg0g2z_gAVZesyt_2PVrEdjXcRZDx-NPLMCVsicMIxklu233K7lfaimND9TkwgeXnLDX0-Bu3VG6mfZ73CH0CXUm7ree2gWfffvBics8SWf88IzCLMOd0qHBXXEA4IMUAH4oLeDRUoz45R8TLapO02d9lcJuPlbBak5xzUMIuQcm4N7y1je-OUm_7ZWGo91knbQZiga6TuIN3UalByg688Ta4vBjCAuDnRFmxYCiCfcJh7KSposqtn9fceCsw6YDud41X_S6Zj6_7l-fmJOmxAW9_uDq-JQBHcaB1s5tAkTo2Av9rraCaFHuSvGSeoK2xdhpjEmM_cpjRcBNr70Q5_0qJlwq7_lafTgDhYU_LBJHHUZYQetMxlYOeVgCBrE4LJJP4eJKj4uvReDEcsovMnAzlJ0T0KgbAhoaQq3Fkped38f-pGgUmWiAUFsMZwrCeqz6yJL3BXbZbZGl6Rd0NhmgkVVMYRhDpQri4dNwkxvv_QPikJRddtIZI4eqE94mOpkntdDytsupsrl_g4c3hBjoI3hraVvPlqF7t32dsQYDY8w62z9uxXMGle9QksSNYMnsuuIDPrEUNnEDJYwAvqs2FgkzEn3Ag1UyPZkMhsf0NV3ncbpy9EB6nVaimBEgC_PzFFOufMVQPF2Yt0k__fXW_GkGlmyrHpdpR8sSk6ThyDCzX7y2]--></g></svg>