<?xml version="1.0" encoding="us-ascii" standalone="no"?><svg xmlns="http://www.w3.org/2000/svg" xmlns:xlink="http://www.w3.org/1999/xlink" contentStyleType="text/css" height="507px" preserveAspectRatio="none" style="width:1590px;height:507px;background:#FFFFFF;" version="1.1" viewBox="0 0 1590 507" width="1590px" zoomAndPan="magnify"><defs/><g><rect fill="#FFFFFF" height="415.0266" style="stroke:#181818;stroke-width:0.6;" width="6" x="411.6" y="50.2359"/><rect fill="#FFFFFF" height="17.4797" style="stroke:#181818;stroke-width:0.6;" width="6" x="711" y="82.1953"/><rect fill="#FFFFFF" height="17.4797" style="stroke:#181818;stroke-width:0.6;" width="6" x="789" y="117.1547"/><rect fill="#FFFFFF" height="195.4734" style="stroke:#181818;stroke-width:0.6;" width="6" x="852" y="201.15"/><rect fill="#FFFFFF" height="17.4797" style="stroke:#181818;stroke-width:0.6;" width="6" x="1504.2" y="299.625"/><rect fill="none" height="389.1469" style="stroke:#000000;stroke-width:0.8999999999999999;" width="1239.9" x="346.8" y="59.2359"/><rect fill="none" height="240.7125" style="stroke:#000000;stroke-width:0.8999999999999999;" width="1227.9" x="352.8" y="178.1906"/><rect fill="none" height="135.0375" style="stroke:#000000;stroke-width:0.8999999999999999;" width="748.8" x="825.9" y="244.7062"/><rect fill="none" height="45.2391" style="stroke:#000000;stroke-width:0.8999999999999999;" width="349.8" x="1187.1" y="276.6656"/><rect fill="none" height="27.7594" style="stroke:#000000;stroke-width:0.8999999999999999;" width="736.8" x="831.9" y="347.7844"/><line style="stroke:#181818;stroke-width:0.3;stroke-dasharray:5.0,5.0;" x1="414.6" x2="414.6" y1="31.5563" y2="476.0625"/><line style="stroke:#181818;stroke-width:0.3;stroke-dasharray:5.0,5.0;" x1="643.5" x2="643.5" y1="31.5563" y2="476.0625"/><line style="stroke:#181818;stroke-width:0.3;stroke-dasharray:5.0,5.0;" x1="713.7" x2="713.7" y1="31.5563" y2="476.0625"/><line style="stroke:#181818;stroke-width:0.3;stroke-dasharray:5.0,5.0;" x1="791.7" x2="791.7" y1="31.5563" y2="476.0625"/><line style="stroke:#181818;stroke-width:0.3;stroke-dasharray:5.0,5.0;" x1="854.7" x2="854.7" y1="31.5563" y2="476.0625"/><line style="stroke:#181818;stroke-width:0.3;stroke-dasharray:5.0,5.0;" x1="1229.7" x2="1229.7" y1="31.5563" y2="476.0625"/><line style="stroke:#181818;stroke-width:0.3;stroke-dasharray:5.0,5.0;" x1="1506.9" x2="1506.9" y1="31.5563" y2="476.0625"/><line style="stroke:#181818;stroke-width:0.3;stroke-dasharray:5.0,5.0;" x1="1549.5" x2="1549.5" y1="229.2281" y2="476.0625"/><rect fill="#E3E3E3" height="18.1781" rx="1.5" ry="1.5" style="stroke:#181818;stroke-width:0.3;" width="111.6" x="358.8" y="12.7781"/><text fill="#000000" font-family="sans-serif" font-size="8.4" lengthAdjust="spacing" textLength="103.2" x="363" y="24.7752">:ListPropertiesController</text><rect fill="#E3E3E3" height="18.1781" rx="1.5" ry="1.5" style="stroke:#181818;stroke-width:0.3;" width="111.6" x="358.8" y="475.4625"/><text fill="#000000" font-family="sans-serif" font-size="8.4" lengthAdjust="spacing" textLength="103.2" x="363" y="487.4596">:ListPropertiesController</text><rect fill="#E3E3E3" height="18.1781" rx="1.5" ry="1.5" style="stroke:#181818;stroke-width:0.3;" width="64.2" x="611.7" y="12.7781"/><text fill="#000000" font-family="sans-serif" font-size="8.4" lengthAdjust="spacing" textLength="55.8" x="615.9" y="24.7752">:Repositories</text><rect fill="#E3E3E3" height="18.1781" rx="1.5" ry="1.5" style="stroke:#181818;stroke-width:0.3;" width="64.2" x="611.7" y="475.4625"/><text fill="#000000" font-family="sans-serif" font-size="8.4" lengthAdjust="spacing" textLength="55.8" x="615.9" y="487.4596">:Repositories</text><rect fill="#E3E3E3" height="27.9563" rx="1.5" ry="1.5" style="stroke:#181818;stroke-width:0.3;" width="64.2" x="681.9" y="3"/><text fill="#000000" font-family="sans-serif" font-size="8.4" lengthAdjust="spacing" textLength="50.4" x="688.8" y="14.9971">repositories</text><text fill="#000000" font-family="sans-serif" font-size="8.4" lengthAdjust="spacing" textLength="55.8" x="686.1" y="24.7752">:Repositories</text><rect fill="#E3E3E3" height="27.9563" rx="1.5" ry="1.5" style="stroke:#181818;stroke-width:0.3;" width="64.2" x="681.9" y="475.4625"/><text fill="#000000" font-family="sans-serif" font-size="8.4" lengthAdjust="spacing" textLength="50.4" x="688.8" y="487.4596">repositories</text><text fill="#000000" font-family="sans-serif" font-size="8.4" lengthAdjust="spacing" textLength="55.8" x="686.1" y="497.2377">:Repositories</text><rect fill="#E3E3E3" height="27.9563" rx="1.5" ry="1.5" style="stroke:#181818;stroke-width:0.3;" width="79.8" x="752.1" y="3"/><text fill="#000000" font-family="sans-serif" font-size="8.4" lengthAdjust="spacing" textLength="67.2" x="758.4" y="14.9971">storeRepository</text><text fill="#000000" font-family="sans-serif" font-size="8.4" lengthAdjust="spacing" textLength="71.4" x="756.3" y="24.7752">:StoreRepository</text><rect fill="#E3E3E3" height="27.9563" rx="1.5" ry="1.5" style="stroke:#181818;stroke-width:0.3;" width="79.8" x="752.1" y="475.4625"/><text fill="#000000" font-family="sans-serif" font-size="8.4" lengthAdjust="spacing" textLength="67.2" x="758.4" y="487.4596">storeRepository</text><text fill="#000000" font-family="sans-serif" font-size="8.4" lengthAdjust="spacing" textLength="71.4" x="756.3" y="497.2377">:StoreRepository</text><rect fill="#E3E3E3" height="18.1781" rx="1.5" ry="1.5" style="stroke:#181818;stroke-width:0.3;" width="34.2" x="837.9" y="12.7781"/><text fill="#000000" font-family="sans-serif" font-size="8.4" lengthAdjust="spacing" textLength="25.8" x="842.1" y="24.7752">:Store</text><rect fill="#E3E3E3" height="18.1781" rx="1.5" ry="1.5" style="stroke:#181818;stroke-width:0.3;" width="34.2" x="837.9" y="475.4625"/><text fill="#000000" font-family="sans-serif" font-size="8.4" lengthAdjust="spacing" textLength="25.8" x="842.1" y="487.4596">:Store</text><rect fill="#E3E3E3" height="18.1781" rx="1.5" ry="1.5" style="stroke:#181818;stroke-width:0.3;" width="73.8" x="1193.1" y="12.7781"/><text fill="#000000" font-family="sans-serif" font-size="8.4" lengthAdjust="spacing" textLength="65.4" x="1197.3" y="24.7752">:Advertisement</text><rect fill="#E3E3E3" height="18.1781" rx="1.5" ry="1.5" style="stroke:#181818;stroke-width:0.3;" width="73.8" x="1193.1" y="475.4625"/><text fill="#000000" font-family="sans-serif" font-size="8.4" lengthAdjust="spacing" textLength="65.4" x="1197.3" y="487.4596">:Advertisement</text><rect fill="#E3E3E3" height="18.1781" rx="1.5" ry="1.5" style="stroke:#181818;stroke-width:0.3;" width="47.4" x="1483.5" y="12.7781"/><text fill="#000000" font-family="sans-serif" font-size="8.4" lengthAdjust="spacing" textLength="39" x="1487.7" y="24.7752">:Property</text><rect fill="#E3E3E3" height="18.1781" rx="1.5" ry="1.5" style="stroke:#181818;stroke-width:0.3;" width="47.4" x="1483.5" y="475.4625"/><text fill="#000000" font-family="sans-serif" font-size="8.4" lengthAdjust="spacing" textLength="39" x="1487.7" y="487.4596">:Property</text><rect fill="#E3E3E3" height="27.9563" rx="1.5" ry="1.5" style="stroke:#181818;stroke-width:0.3;" width="25.8" x="1536.9" y="475.4625"/><text fill="#000000" font-family="sans-serif" font-size="8.4" lengthAdjust="spacing" textLength="12" x="1543.8" y="487.4596">list</text><text fill="#000000" font-family="sans-serif" font-size="8.4" lengthAdjust="spacing" textLength="17.4" x="1541.1" y="497.2377">:List</text><rect fill="#FFFFFF" height="415.0266" style="stroke:#181818;stroke-width:0.6;" width="6" x="411.6" y="50.2359"/><rect fill="#FFFFFF" height="17.4797" style="stroke:#181818;stroke-width:0.6;" width="6" x="711" y="82.1953"/><rect fill="#FFFFFF" height="17.4797" style="stroke:#181818;stroke-width:0.6;" width="6" x="789" y="117.1547"/><rect fill="#FFFFFF" height="195.4734" style="stroke:#181818;stroke-width:0.6;" width="6" x="852" y="201.15"/><rect fill="#FFFFFF" height="17.4797" style="stroke:#181818;stroke-width:0.6;" width="6" x="1504.2" y="299.625"/><polygon fill="#181818" points="404.4,47.8359,410.4,50.2359,404.4,52.6359,406.8,50.2359" style="stroke:#181818;stroke-width:0.6;"/><line style="stroke:#181818;stroke-width:0.6;" x1="0" x2="408" y1="50.2359" y2="50.2359"/><text fill="#000000" font-family="sans-serif" font-size="7.8" font-weight="bold" lengthAdjust="spacing" textLength="10.8" x="4.2" y="47.1964">31</text><text fill="#000000" font-family="sans-serif" font-size="7.8" lengthAdjust="spacing" textLength="387" x="17.4" y="47.1964">getListedProperties(keepSortMethod,keepBusinessType,keepPropertyType,keepNumberBedrooms)</text><path d="M346.8,59.2359 L486,59.2359 L486,63.5156 L480,69.5156 L346.8,69.5156 L346.8,59.2359 " fill="#EEEEEE" style="stroke:#000000;stroke-width:0.8999999999999999;"/><rect fill="none" height="389.1469" style="stroke:#000000;stroke-width:0.8999999999999999;" width="1239.9" x="346.8" y="59.2359"/><text fill="#000000" font-family="sans-serif" font-size="7.8" font-weight="bold" lengthAdjust="spacing" textLength="112.2" x="355.8" y="67.0761">Get Listed Properties List</text><polygon fill="#181818" points="703.8,79.7953,709.8,82.1953,703.8,84.5953,706.2,82.1953" style="stroke:#181818;stroke-width:0.6;"/><line style="stroke:#181818;stroke-width:0.6;" x1="417.6" x2="707.4" y1="82.1953" y2="82.1953"/><text fill="#000000" font-family="sans-serif" font-size="7.8" font-weight="bold" lengthAdjust="spacing" textLength="10.8" x="421.8" y="79.1558">32</text><text fill="#000000" font-family="sans-serif" font-size="7.8" lengthAdjust="spacing" textLength="81" x="435" y="79.1558">getStoreRepository()</text><polygon fill="#181818" points="424.2,97.275,418.2,99.675,424.2,102.075,421.8,99.675" style="stroke:#181818;stroke-width:0.6;"/><line style="stroke:#181818;stroke-width:0.6;stroke-dasharray:2.0,2.0;" x1="420.6" x2="713.4" y1="99.675" y2="99.675"/><text fill="#000000" font-family="sans-serif" font-size="7.8" font-weight="bold" lengthAdjust="spacing" textLength="10.8" x="427.8" y="96.6354">33</text><text fill="#000000" font-family="sans-serif" font-size="7.8" lengthAdjust="spacing" textLength="61.8" x="441" y="96.6354">storeRepository</text><polygon fill="#181818" points="781.8,114.7547,787.8,117.1547,781.8,119.5547,784.2,117.1547" style="stroke:#181818;stroke-width:0.6;"/><line style="stroke:#181818;stroke-width:0.6;" x1="417.6" x2="785.4" y1="117.1547" y2="117.1547"/><text fill="#000000" font-family="sans-serif" font-size="7.8" font-weight="bold" lengthAdjust="spacing" textLength="10.8" x="421.8" y="114.1151">34</text><text fill="#000000" font-family="sans-serif" font-size="7.8" lengthAdjust="spacing" textLength="57" x="435" y="114.1151">getStoresList()</text><polygon fill="#181818" points="424.2,132.2344,418.2,134.6344,424.2,137.0344,421.8,134.6344" style="stroke:#181818;stroke-width:0.6;"/><line style="stroke:#181818;stroke-width:0.6;stroke-dasharray:2.0,2.0;" x1="420.6" x2="791.4" y1="134.6344" y2="134.6344"/><text fill="#000000" font-family="sans-serif" font-size="7.8" font-weight="bold" lengthAdjust="spacing" textLength="10.8" x="427.8" y="131.5948">35</text><text fill="#000000" font-family="sans-serif" font-size="7.8" lengthAdjust="spacing" textLength="37.8" x="441" y="131.5948">storesList</text><polygon fill="#181818" points="1529.7,149.7141,1535.7,152.1141,1529.7,154.5141,1532.1,152.1141" style="stroke:#181818;stroke-width:0.6;"/><line style="stroke:#181818;stroke-width:0.6;" x1="417.6" x2="1533.3" y1="152.1141" y2="152.1141"/><text fill="#000000" font-family="sans-serif" font-size="7.8" font-weight="bold" lengthAdjust="spacing" textLength="10.8" x="421.8" y="149.0745">36</text><text fill="#000000" font-family="sans-serif" font-size="7.8" lengthAdjust="spacing" textLength="30.6" x="435" y="149.0745">create()</text><rect fill="#E3E3E3" height="27.9563" rx="1.5" ry="1.5" style="stroke:#181818;stroke-width:0.3;" width="25.8" x="1536.9" y="139.4344"/><text fill="#000000" font-family="sans-serif" font-size="8.4" lengthAdjust="spacing" textLength="12" x="1543.8" y="151.4314">list</text><text fill="#000000" font-family="sans-serif" font-size="8.4" lengthAdjust="spacing" textLength="17.4" x="1541.1" y="161.2096">:List</text><path d="M352.8,178.1906 L398.4,178.1906 L398.4,182.4703 L392.4,188.4703 L352.8,188.4703 L352.8,178.1906 " fill="#EEEEEE" style="stroke:#000000;stroke-width:0.8999999999999999;"/><rect fill="none" height="240.7125" style="stroke:#000000;stroke-width:0.8999999999999999;" width="1227.9" x="352.8" y="178.1906"/><text fill="#000000" font-family="sans-serif" font-size="7.8" font-weight="bold" lengthAdjust="spacing" textLength="18.6" x="361.8" y="186.0308">loop</text><text fill="#000000" font-family="sans-serif" font-size="6.6" font-weight="bold" lengthAdjust="spacing" textLength="58.2" x="407.4" y="185.5169">[for each store]</text><polygon fill="#181818" points="844.8,198.75,850.8,201.15,844.8,203.55,847.2,201.15" style="stroke:#181818;stroke-width:0.6;"/><line style="stroke:#181818;stroke-width:0.6;" x1="417.6" x2="848.4" y1="201.15" y2="201.15"/><text fill="#000000" font-family="sans-serif" font-size="7.8" font-weight="bold" lengthAdjust="spacing" textLength="10.8" x="421.8" y="198.1104">37</text><text fill="#000000" font-family="sans-serif" font-size="7.8" lengthAdjust="spacing" textLength="387" x="435" y="198.1104">getListedProperties(keepSortMethod,keepBusinessType,keepPropertyType,keepNumberBedrooms)</text><polygon fill="#181818" points="1529.7,216.2297,1535.7,218.6297,1529.7,221.0297,1532.1,218.6297" style="stroke:#181818;stroke-width:0.6;"/><line style="stroke:#181818;stroke-width:0.6;" x1="858" x2="1533.3" y1="218.6297" y2="218.6297"/><text fill="#000000" font-family="sans-serif" font-size="7.8" font-weight="bold" lengthAdjust="spacing" textLength="10.8" x="862.2" y="215.5901">38</text><text fill="#000000" font-family="sans-serif" font-size="7.8" lengthAdjust="spacing" textLength="30.6" x="875.4" y="215.5901">create()</text><rect fill="#E3E3E3" height="27.9563" rx="1.5" ry="1.5" style="stroke:#181818;stroke-width:0.3;" width="25.8" x="1536.9" y="205.95"/><text fill="#000000" font-family="sans-serif" font-size="8.4" lengthAdjust="spacing" textLength="12" x="1543.8" y="217.9471">list</text><text fill="#000000" font-family="sans-serif" font-size="8.4" lengthAdjust="spacing" textLength="17.4" x="1541.1" y="227.7252">:List</text><path d="M825.9,244.7062 L871.5,244.7062 L871.5,248.9859 L865.5,254.9859 L825.9,254.9859 L825.9,244.7062 " fill="#EEEEEE" style="stroke:#000000;stroke-width:0.8999999999999999;"/><rect fill="none" height="135.0375" style="stroke:#000000;stroke-width:0.8999999999999999;" width="748.8" x="825.9" y="244.7062"/><text fill="#000000" font-family="sans-serif" font-size="7.8" font-weight="bold" lengthAdjust="spacing" textLength="18.6" x="834.9" y="252.5464">loop</text><text fill="#000000" font-family="sans-serif" font-size="6.6" font-weight="bold" lengthAdjust="spacing" textLength="91.8" x="880.5" y="252.0325">[for each advertisement]</text><polygon fill="#181818" points="1222.8,265.2656,1228.8,267.6656,1222.8,270.0656,1225.2,267.6656" style="stroke:#181818;stroke-width:0.6;"/><line style="stroke:#181818;stroke-width:0.6;" x1="858" x2="1226.4" y1="267.6656" y2="267.6656"/><text fill="#000000" font-family="sans-serif" font-size="7.8" font-weight="bold" lengthAdjust="spacing" textLength="10.8" x="862.2" y="264.6261">39</text><text fill="#000000" font-family="sans-serif" font-size="7.8" lengthAdjust="spacing" textLength="344.4" x="875.4" y="264.6261">getAdsAndPropertyFilters(keepBusinessType,keepPropertyType,keepNumberBedrooms)</text><path d="M1187.1,276.6656 L1228.5,276.6656 L1228.5,280.9453 L1222.5,286.9453 L1187.1,286.9453 L1187.1,276.6656 " fill="#EEEEEE" style="stroke:#000000;stroke-width:0.8999999999999999;"/><rect fill="none" height="45.2391" style="stroke:#000000;stroke-width:0.8999999999999999;" width="349.8" x="1187.1" y="276.6656"/><text fill="#000000" font-family="sans-serif" font-size="7.8" font-weight="bold" lengthAdjust="spacing" textLength="14.4" x="1196.1" y="284.5058">opt</text><text fill="#000000" font-family="sans-serif" font-size="6.6" font-weight="bold" lengthAdjust="spacing" textLength="21" x="1237.5" y="283.9919">[true]</text><polygon fill="#181818" points="1497,297.225,1503,299.625,1497,302.025,1499.4,299.625" style="stroke:#181818;stroke-width:0.6;"/><line style="stroke:#181818;stroke-width:0.6;" x1="1230" x2="1500.6" y1="299.625" y2="299.625"/><text fill="#000000" font-family="sans-serif" font-size="7.8" font-weight="bold" lengthAdjust="spacing" textLength="10.8" x="1234.2" y="296.5854">40</text><text fill="#000000" font-family="sans-serif" font-size="7.8" lengthAdjust="spacing" textLength="249.6" x="1247.4" y="296.5854">checkPropertyFilters(keepPropertyType,keepNumberBedrooms)</text><polygon fill="#181818" points="1236.6,314.7047,1230.6,317.1047,1236.6,319.5047,1234.2,317.1047" style="stroke:#181818;stroke-width:0.6;"/><line style="stroke:#181818;stroke-width:0.6;stroke-dasharray:2.0,2.0;" x1="1233" x2="1506.6" y1="317.1047" y2="317.1047"/><text fill="#000000" font-family="sans-serif" font-size="7.8" font-weight="bold" lengthAdjust="spacing" textLength="10.8" x="1240.2" y="314.0651">41</text><text fill="#000000" font-family="sans-serif" font-size="7.8" lengthAdjust="spacing" textLength="37.2" x="1253.4" y="314.0651">true/false</text><polygon fill="#181818" points="864.6,336.3844,858.6,338.7844,864.6,341.1844,862.2,338.7844" style="stroke:#181818;stroke-width:0.6;"/><line style="stroke:#181818;stroke-width:0.6;stroke-dasharray:2.0,2.0;" x1="861" x2="1229.4" y1="338.7844" y2="338.7844"/><text fill="#000000" font-family="sans-serif" font-size="7.8" font-weight="bold" lengthAdjust="spacing" textLength="10.8" x="868.2" y="335.7448">42</text><text fill="#000000" font-family="sans-serif" font-size="7.8" lengthAdjust="spacing" textLength="37.2" x="881.4" y="335.7448">true/false</text><path d="M831.9,347.7844 L873.3,347.7844 L873.3,352.0641 L867.3,358.0641 L831.9,358.0641 L831.9,347.7844 " fill="#EEEEEE" style="stroke:#000000;stroke-width:0.8999999999999999;"/><rect fill="none" height="27.7594" style="stroke:#000000;stroke-width:0.8999999999999999;" width="736.8" x="831.9" y="347.7844"/><text fill="#000000" font-family="sans-serif" font-size="7.8" font-weight="bold" lengthAdjust="spacing" textLength="14.4" x="840.9" y="355.6245">opt</text><text fill="#000000" font-family="sans-serif" font-size="6.6" font-weight="bold" lengthAdjust="spacing" textLength="21" x="882.3" y="355.1106">[true]</text><polygon fill="#181818" points="1542.6,368.3438,1548.6,370.7438,1542.6,373.1438,1545,370.7438" style="stroke:#181818;stroke-width:0.6;"/><line style="stroke:#181818;stroke-width:0.6;" x1="858" x2="1546.2" y1="370.7438" y2="370.7438"/><text fill="#000000" font-family="sans-serif" font-size="7.8" font-weight="bold" lengthAdjust="spacing" textLength="10.8" x="862.2" y="367.7042">43</text><text fill="#000000" font-family="sans-serif" font-size="7.8" lengthAdjust="spacing" textLength="77.4" x="875.4" y="367.7042">add(advertisement)</text><polygon fill="#181818" points="424.2,394.2234,418.2,396.6234,424.2,399.0234,421.8,396.6234" style="stroke:#181818;stroke-width:0.6;"/><line style="stroke:#181818;stroke-width:0.6;stroke-dasharray:2.0,2.0;" x1="420.6" x2="854.4" y1="396.6234" y2="396.6234"/><text fill="#000000" font-family="sans-serif" font-size="7.8" font-weight="bold" lengthAdjust="spacing" textLength="10.8" x="427.8" y="393.5839">44</text><text fill="#000000" font-family="sans-serif" font-size="7.8" lengthAdjust="spacing" textLength="61.2" x="441" y="393.5839">listedProperties</text><polygon fill="#181818" points="1542.6,411.7031,1548.6,414.1031,1542.6,416.5031,1545,414.1031" style="stroke:#181818;stroke-width:0.6;"/><line style="stroke:#181818;stroke-width:0.6;" x1="417.6" x2="1546.2" y1="414.1031" y2="414.1031"/><text fill="#000000" font-family="sans-serif" font-size="7.8" font-weight="bold" lengthAdjust="spacing" textLength="10.8" x="421.8" y="411.0636">45</text><text fill="#000000" font-family="sans-serif" font-size="7.8" lengthAdjust="spacing" textLength="81.6" x="435" y="411.0636">add(listedProperties)</text><line style="stroke:#181818;stroke-width:0.6;" x1="417.6" x2="442.8" y1="435.7828" y2="435.7828"/><line style="stroke:#181818;stroke-width:0.6;" x1="442.8" x2="442.8" y1="435.7828" y2="443.5828"/><line style="stroke:#181818;stroke-width:0.6;" x1="418.2" x2="442.8" y1="443.5828" y2="443.5828"/><polygon fill="#181818" points="424.2,441.1828,418.2,443.5828,424.2,445.9828,421.8,443.5828" style="stroke:#181818;stroke-width:0.6;"/><text fill="#000000" font-family="sans-serif" font-size="7.8" font-weight="bold" lengthAdjust="spacing" textLength="10.8" x="421.8" y="432.7433">46</text><text fill="#000000" font-family="sans-serif" font-size="7.8" lengthAdjust="spacing" textLength="201.6" x="435" y="432.7433">sortPropertiesList(listedProperties,keepSortMethod)</text><polygon fill="#181818" points="6.6,462.8625,0.6,465.2625,6.6,467.6625,4.2,465.2625" style="stroke:#181818;stroke-width:0.6;"/><line style="stroke:#181818;stroke-width:0.6;stroke-dasharray:2.0,2.0;" x1="3" x2="414" y1="465.2625" y2="465.2625"/><text fill="#000000" font-family="sans-serif" font-size="7.8" font-weight="bold" lengthAdjust="spacing" textLength="10.8" x="10.2" y="462.2229">47</text><text fill="#000000" font-family="sans-serif" font-size="7.8" lengthAdjust="spacing" textLength="61.2" x="23.4" y="462.2229">listedProperties</text><!--SRC=[nLR1Rfmm4BtxAwoSTgEWgkeDLP4sKHDLsZRHiiTU79W0Mh0jswJQlw-nmQmDZPg59hunVZFpveqPMnvAoeaWDQuPPMaXM0rOYGQGT3kSf0UIGwAE5M01gI8qhqu1iY0P-rtI73-JIW92IDjLcPQSK8KlucqfrQDW7BGHv2sZIh2g0d61YSIt-zqsmE-0Crag9ZJQO1vszpv4d21-qR73xjlZW-yXzIuut54x9Rx5-0MsW9VP7N31xYPxQGkKK0DL1kLP0dIdXqtRV_YOIikcURRg6TJsUx97Y3IAqQP-0e6_V4RHjH4GnpW7rI8X6vHU7G1umeJw0QfWsLNxUTF8aeAK-oC7O-XpEyDF4_m6Ci5OBTUwcuYagdmX2copi5wvO0t7zw2mJOg7hCQ23AfTXfwcsRR4qWn4NgqTjbykd-dZQBjT9bpKbH_ZeBtE9OE_nEfe1Lm6VhAjuZLguL6PP1c0764SIvTav7Z2UPHaEeslT7jEBYzZd0hGCLRhrxt6gsACusSciEPHM6NVv3_DofJoFy_f-HHzkT6CIBR8gHwS7zDl1_5coW9ClI5b-xF9v8Rs_JdUbPK2OPlqdbrXNDcRQ4OClpXTRSzNTwQ0z31LutiSD3VmPmJhOvYXuXKQ6zq-sSlu_0GdSyZnFJyQq6ovHdQ36yUB5EfEsipVARfkV_jO_wFPoljFrpDr-p3Pkoanl3AgO7GlSxoIXUwOGVwGvziwy8-Qzscx9uY-m8Q4vlaGihZoBpfBIYUppodpzJMAkdWZgT69OkOXXlu0]--></g></svg>