<?xml version="1.0" encoding="us-ascii" standalone="no"?><svg xmlns="http://www.w3.org/2000/svg" xmlns:xlink="http://www.w3.org/1999/xlink" contentStyleType="text/css" height="724px" preserveAspectRatio="none" style="width:903px;height:724px;background:#FFFFFF;" version="1.1" viewBox="0 0 903 724" width="903px" zoomAndPan="magnify"><defs/><g><!--class ListDealsUI--><g id="elem_ListDealsUI"><rect codeLine="11" fill="#F1F1F1" height="66.6211" id="ListDealsUI" rx="2.5" ry="2.5" style="stroke:#181818;stroke-width:0.5;" width="184" x="7" y="25.5"/><ellipse cx="59.75" cy="41.5" fill="#ADD1B2" rx="11" ry="11" style="stroke:#181818;stroke-width:1.0;"/><path d="M62.5156,37.375 Q62.6719,37.1563 62.8594,37.0469 Q63.0469,36.9375 63.2656,36.9375 Q63.6406,36.9375 63.875,37.2031 Q64.1094,37.4531 64.1094,38.0625 L64.1094,39.5156 Q64.1094,40.125 63.875,40.3906 Q63.6406,40.6563 63.2656,40.6563 Q62.9219,40.6563 62.7188,40.4531 Q62.5156,40.2656 62.4063,39.75 Q62.3594,39.3906 62.1719,39.2031 Q61.8438,38.8281 61.2344,38.6094 Q60.625,38.3906 60,38.3906 Q59.2344,38.3906 58.5938,38.7188 Q57.9688,39.0469 57.4688,39.7969 Q56.9844,40.5469 56.9844,41.5781 L56.9844,42.6719 Q56.9844,43.9063 57.875,44.7344 Q58.7656,45.5469 60.3594,45.5469 Q61.2969,45.5469 61.9531,45.2969 Q62.3438,45.1406 62.7656,44.7031 Q63.0313,44.4375 63.1719,44.3594 Q63.3281,44.2813 63.5313,44.2813 Q63.8594,44.2813 64.1094,44.5469 Q64.375,44.7969 64.375,45.1406 Q64.375,45.4844 64.0313,45.8906 Q63.5313,46.4688 62.7344,46.7969 Q61.6563,47.25 60.3594,47.25 Q58.8438,47.25 57.6406,46.625 Q56.6563,46.125 55.9688,45.0625 Q55.2813,43.9844 55.2813,42.7031 L55.2813,41.5469 Q55.2813,40.2188 55.8906,39.0781 Q56.5156,37.9219 57.6094,37.3125 Q58.7031,36.6875 59.9375,36.6875 Q60.6719,36.6875 61.3125,36.8594 Q61.9688,37.0156 62.5156,37.375 Z " fill="#000000"/><text fill="#000000" font-family="sans-serif" font-size="14" lengthAdjust="spacing" textLength="70" x="80.25" y="47.2969">ListDealsUI</text><line style="stroke:#181818;stroke-width:0.5;" x1="8" x2="190" y1="57.5" y2="57.5"/><text fill="#000000" font-family="sans-serif" font-size="14" lengthAdjust="spacing" textLength="172" x="13" y="76.6074">+create ListDealsController</text><line style="stroke:#181818;stroke-width:0.5;" x1="8" x2="190" y1="84.1211" y2="84.1211"/></g><!--class ListDealsController--><g id="elem_ListDealsController"><rect codeLine="15" fill="#F1F1F1" height="85.2422" id="ListDealsController" rx="2.5" ry="2.5" style="stroke:#181818;stroke-width:0.5;" width="169" x="226.5" y="16.5"/><ellipse cx="249.15" cy="32.5" fill="#ADD1B2" rx="11" ry="11" style="stroke:#181818;stroke-width:1.0;"/><path d="M251.9156,28.375 Q252.0719,28.1563 252.2594,28.0469 Q252.4469,27.9375 252.6656,27.9375 Q253.0406,27.9375 253.275,28.2031 Q253.5094,28.4531 253.5094,29.0625 L253.5094,30.5156 Q253.5094,31.125 253.275,31.3906 Q253.0406,31.6563 252.6656,31.6563 Q252.3219,31.6563 252.1188,31.4531 Q251.9156,31.2656 251.8063,30.75 Q251.7594,30.3906 251.5719,30.2031 Q251.2438,29.8281 250.6344,29.6094 Q250.025,29.3906 249.4,29.3906 Q248.6344,29.3906 247.9938,29.7188 Q247.3688,30.0469 246.8688,30.7969 Q246.3844,31.5469 246.3844,32.5781 L246.3844,33.6719 Q246.3844,34.9063 247.275,35.7344 Q248.1656,36.5469 249.7594,36.5469 Q250.6969,36.5469 251.3531,36.2969 Q251.7438,36.1406 252.1656,35.7031 Q252.4313,35.4375 252.5719,35.3594 Q252.7281,35.2813 252.9313,35.2813 Q253.2594,35.2813 253.5094,35.5469 Q253.775,35.7969 253.775,36.1406 Q253.775,36.4844 253.4313,36.8906 Q252.9313,37.4688 252.1344,37.7969 Q251.0563,38.25 249.7594,38.25 Q248.2438,38.25 247.0406,37.625 Q246.0563,37.125 245.3688,36.0625 Q244.6813,34.9844 244.6813,33.7031 L244.6813,32.5469 Q244.6813,31.2188 245.2906,30.0781 Q245.9156,28.9219 247.0094,28.3125 Q248.1031,27.6875 249.3375,27.6875 Q250.0719,27.6875 250.7125,27.8594 Q251.3688,28.0156 251.9156,28.375 Z " fill="#000000"/><text fill="#000000" font-family="sans-serif" font-size="14" lengthAdjust="spacing" textLength="120" x="264.85" y="38.2969">ListDealsController</text><line style="stroke:#181818;stroke-width:0.5;" x1="227.5" x2="394.5" y1="48.5" y2="48.5"/><line style="stroke:#181818;stroke-width:0.5;" x1="227.5" x2="394.5" y1="56.5" y2="56.5"/><text fill="#000000" font-family="sans-serif" font-size="14" lengthAdjust="spacing" textLength="91" x="232.5" y="75.6074">+getInstance()</text><text fill="#000000" font-family="sans-serif" font-size="14" lengthAdjust="spacing" textLength="157" x="232.5" y="94.2285">+listDeals(sortAlg, order)</text></g><!--class Repositories--><g id="elem_Repositories"><rect codeLine="20" fill="#F1F1F1" height="103.8633" id="Repositories" rx="2.5" ry="2.5" style="stroke:#181818;stroke-width:0.5;" width="208" x="499" y="7"/><ellipse cx="559.25" cy="23" fill="#ADD1B2" rx="11" ry="11" style="stroke:#181818;stroke-width:1.0;"/><path d="M562.0156,18.875 Q562.1719,18.6563 562.3594,18.5469 Q562.5469,18.4375 562.7656,18.4375 Q563.1406,18.4375 563.375,18.7031 Q563.6094,18.9531 563.6094,19.5625 L563.6094,21.0156 Q563.6094,21.625 563.375,21.8906 Q563.1406,22.1563 562.7656,22.1563 Q562.4219,22.1563 562.2188,21.9531 Q562.0156,21.7656 561.9063,21.25 Q561.8594,20.8906 561.6719,20.7031 Q561.3438,20.3281 560.7344,20.1094 Q560.125,19.8906 559.5,19.8906 Q558.7344,19.8906 558.0938,20.2188 Q557.4688,20.5469 556.9688,21.2969 Q556.4844,22.0469 556.4844,23.0781 L556.4844,24.1719 Q556.4844,25.4063 557.375,26.2344 Q558.2656,27.0469 559.8594,27.0469 Q560.7969,27.0469 561.4531,26.7969 Q561.8438,26.6406 562.2656,26.2031 Q562.5313,25.9375 562.6719,25.8594 Q562.8281,25.7813 563.0313,25.7813 Q563.3594,25.7813 563.6094,26.0469 Q563.875,26.2969 563.875,26.6406 Q563.875,26.9844 563.5313,27.3906 Q563.0313,27.9688 562.2344,28.2969 Q561.1563,28.75 559.8594,28.75 Q558.3438,28.75 557.1406,28.125 Q556.1563,27.625 555.4688,26.5625 Q554.7813,25.4844 554.7813,24.2031 L554.7813,23.0469 Q554.7813,21.7188 555.3906,20.5781 Q556.0156,19.4219 557.1094,18.8125 Q558.2031,18.1875 559.4375,18.1875 Q560.1719,18.1875 560.8125,18.3594 Q561.4688,18.5156 562.0156,18.875 Z " fill="#000000"/><text fill="#000000" font-family="sans-serif" font-size="14" lengthAdjust="spacing" textLength="79" x="579.75" y="28.7969">Repositories</text><line style="stroke:#181818;stroke-width:0.5;" x1="500" x2="706" y1="39" y2="39"/><line style="stroke:#181818;stroke-width:0.5;" x1="500" x2="706" y1="47" y2="47"/><text fill="#000000" font-family="sans-serif" font-size="14" lengthAdjust="spacing" textLength="94" x="505" y="66.1074">-Repositories()</text><text fill="#000000" font-family="sans-serif" font-size="14" lengthAdjust="spacing" textLength="182" x="505" y="84.7285">+getInstance() : Repositories</text><text fill="#000000" font-family="sans-serif" font-size="14" lengthAdjust="spacing" textLength="196" x="505" y="103.3496">+getAdvertisementRepository()</text></g><!--class Advertisement--><g id="elem_Advertisement"><rect codeLine="27" fill="#F1F1F1" height="252.832" id="Advertisement" rx="2.5" ry="2.5" style="stroke:#181818;stroke-width:0.5;" width="234" x="248" y="337"/><ellipse cx="315.75" cy="353" fill="#ADD1B2" rx="11" ry="11" style="stroke:#181818;stroke-width:1.0;"/><path d="M318.5156,348.875 Q318.6719,348.6563 318.8594,348.5469 Q319.0469,348.4375 319.2656,348.4375 Q319.6406,348.4375 319.875,348.7031 Q320.1094,348.9531 320.1094,349.5625 L320.1094,351.0156 Q320.1094,351.625 319.875,351.8906 Q319.6406,352.1563 319.2656,352.1563 Q318.9219,352.1563 318.7188,351.9531 Q318.5156,351.7656 318.4063,351.25 Q318.3594,350.8906 318.1719,350.7031 Q317.8438,350.3281 317.2344,350.1094 Q316.625,349.8906 316,349.8906 Q315.2344,349.8906 314.5938,350.2188 Q313.9688,350.5469 313.4688,351.2969 Q312.9844,352.0469 312.9844,353.0781 L312.9844,354.1719 Q312.9844,355.4063 313.875,356.2344 Q314.7656,357.0469 316.3594,357.0469 Q317.2969,357.0469 317.9531,356.7969 Q318.3438,356.6406 318.7656,356.2031 Q319.0313,355.9375 319.1719,355.8594 Q319.3281,355.7813 319.5313,355.7813 Q319.8594,355.7813 320.1094,356.0469 Q320.375,356.2969 320.375,356.6406 Q320.375,356.9844 320.0313,357.3906 Q319.5313,357.9688 318.7344,358.2969 Q317.6563,358.75 316.3594,358.75 Q314.8438,358.75 313.6406,358.125 Q312.6563,357.625 311.9688,356.5625 Q311.2813,355.4844 311.2813,354.2031 L311.2813,353.0469 Q311.2813,351.7188 311.8906,350.5781 Q312.5156,349.4219 313.6094,348.8125 Q314.7031,348.1875 315.9375,348.1875 Q316.6719,348.1875 317.3125,348.3594 Q317.9688,348.5156 318.5156,348.875 Z " fill="#000000"/><text fill="#000000" font-family="sans-serif" font-size="14" lengthAdjust="spacing" textLength="90" x="336.25" y="358.7969">Advertisement</text><line style="stroke:#181818;stroke-width:0.5;" x1="249" x2="481" y1="369" y2="369"/><text fill="#000000" font-family="sans-serif" font-size="14" lengthAdjust="spacing" textLength="67" x="254" y="388.1074">-Date date</text><text fill="#000000" font-family="sans-serif" font-size="14" lengthAdjust="spacing" textLength="110" x="254" y="406.7285">-Request request</text><text fill="#000000" font-family="sans-serif" font-size="14" lengthAdjust="spacing" textLength="222" x="254" y="425.3496">-CommissionType commissionType</text><text fill="#000000" font-family="sans-serif" font-size="14" lengthAdjust="spacing" textLength="161" x="254" y="443.9707">-double commissionValue</text><text fill="#000000" font-family="sans-serif" font-size="14" lengthAdjust="spacing" textLength="75" x="254" y="462.5918">-Store store</text><text fill="#000000" font-family="sans-serif" font-size="14" lengthAdjust="spacing" textLength="104" x="254" y="481.2129">-List&lt;Visit&gt; visits</text><text fill="#000000" font-family="sans-serif" font-size="14" lengthAdjust="spacing" textLength="115" x="254" y="499.834">-List&lt;Offer&gt; offers</text><line style="stroke:#181818;stroke-width:0.5;" x1="249" x2="481" y1="507.3477" y2="507.3477"/><text fill="#000000" font-family="sans-serif" font-size="14" lengthAdjust="spacing" textLength="155" x="254" y="526.4551">+getOffers(): List&lt;Offer&gt;</text><text fill="#000000" font-family="sans-serif" font-size="14" lengthAdjust="spacing" textLength="126" x="254" y="545.0762">+getStatus(): Status</text><text fill="#000000" font-family="sans-serif" font-size="14" lengthAdjust="spacing" textLength="169" x="254" y="563.6973">+getAcceptedOffer(): Offer</text><text fill="#000000" font-family="sans-serif" font-size="14" lengthAdjust="spacing" textLength="187" x="254" y="582.3184">+adAndDealToString(): String</text></g><!--class ComissionType--><g id="elem_ComissionType"><rect codeLine="41" fill="#F1F1F1" height="66.6211" id="ComissionType" rx="2.5" ry="2.5" style="stroke:#181818;stroke-width:0.5;" width="129" x="300.5" y="651"/><ellipse cx="315.5" cy="667" fill="#EB937F" rx="11" ry="11" style="stroke:#181818;stroke-width:1.0;"/><path d="M314.3594,667.7969 L314.3594,670.2969 L318.6875,670.2969 L318.6875,669.375 Q318.6875,668.7656 318.9219,668.5 Q319.1719,668.2344 319.5469,668.2344 Q319.9219,668.2344 320.1563,668.5 Q320.3906,668.7656 320.3906,669.375 L320.3906,672 L312.3906,672 Q311.7656,672 311.5,671.7656 Q311.25,671.5313 311.25,671.1406 Q311.25,670.7656 311.5156,670.5313 Q311.7813,670.2969 312.3906,670.2969 L312.6563,670.2969 L312.6563,663.6406 L312.3906,663.6406 Q311.7656,663.6406 311.5,663.4063 Q311.25,663.1719 311.25,662.7813 Q311.25,662.4063 311.5,662.1719 Q311.7656,661.9375 312.3906,661.9375 L320.0156,661.9375 L320.0156,664.5313 Q320.0156,665.1406 319.7813,665.4063 Q319.5625,665.6563 319.1719,665.6563 Q318.7969,665.6563 318.5625,665.4063 Q318.3281,665.1406 318.3281,664.5313 L318.3281,663.6406 L314.3594,663.6406 L314.3594,666.0938 L315.8438,666.0938 Q315.8438,665.4375 315.9688,665.25 Q316.2344,664.8438 316.7031,664.8438 Q317.0781,664.8438 317.3125,665.1094 Q317.5469,665.3594 317.5469,665.9688 L317.5469,667.9375 Q317.5469,668.4844 317.4219,668.6719 Q317.1563,669.0625 316.7031,669.0625 Q316.2344,669.0625 315.9688,668.6563 Q315.8438,668.4688 315.8438,667.7969 L314.3594,667.7969 Z " fill="#000000"/><text fill="#000000" font-family="sans-serif" font-size="14" lengthAdjust="spacing" textLength="97" x="329.5" y="672.7969">ComissionType</text><line style="stroke:#181818;stroke-width:0.5;" x1="301.5" x2="428.5" y1="683" y2="683"/><text fill="#000000" font-family="sans-serif" font-size="14" lengthAdjust="spacing" textLength="115" x="306.5" y="702.1074">-String description</text><line style="stroke:#181818;stroke-width:0.5;" x1="301.5" x2="428.5" y1="709.6211" y2="709.6211"/></g><!--class AdvertisementRepository--><g id="elem_AdvertisementRepository"><rect codeLine="45" fill="#F1F1F1" height="66.6211" id="AdvertisementRepository" rx="2.5" ry="2.5" style="stroke:#181818;stroke-width:0.5;" width="190" x="270" y="190.5"/><ellipse cx="285" cy="206.5" fill="#ADD1B2" rx="11" ry="11" style="stroke:#181818;stroke-width:1.0;"/><path d="M287.7656,202.375 Q287.9219,202.1563 288.1094,202.0469 Q288.2969,201.9375 288.5156,201.9375 Q288.8906,201.9375 289.125,202.2031 Q289.3594,202.4531 289.3594,203.0625 L289.3594,204.5156 Q289.3594,205.125 289.125,205.3906 Q288.8906,205.6563 288.5156,205.6563 Q288.1719,205.6563 287.9688,205.4531 Q287.7656,205.2656 287.6563,204.75 Q287.6094,204.3906 287.4219,204.2031 Q287.0938,203.8281 286.4844,203.6094 Q285.875,203.3906 285.25,203.3906 Q284.4844,203.3906 283.8438,203.7188 Q283.2188,204.0469 282.7188,204.7969 Q282.2344,205.5469 282.2344,206.5781 L282.2344,207.6719 Q282.2344,208.9063 283.125,209.7344 Q284.0156,210.5469 285.6094,210.5469 Q286.5469,210.5469 287.2031,210.2969 Q287.5938,210.1406 288.0156,209.7031 Q288.2813,209.4375 288.4219,209.3594 Q288.5781,209.2813 288.7813,209.2813 Q289.1094,209.2813 289.3594,209.5469 Q289.625,209.7969 289.625,210.1406 Q289.625,210.4844 289.2813,210.8906 Q288.7813,211.4688 287.9844,211.7969 Q286.9063,212.25 285.6094,212.25 Q284.0938,212.25 282.8906,211.625 Q281.9063,211.125 281.2188,210.0625 Q280.5313,208.9844 280.5313,207.7031 L280.5313,206.5469 Q280.5313,205.2188 281.1406,204.0781 Q281.7656,202.9219 282.8594,202.3125 Q283.9531,201.6875 285.1875,201.6875 Q285.9219,201.6875 286.5625,201.8594 Q287.2188,202.0156 287.7656,202.375 Z " fill="#000000"/><text fill="#000000" font-family="sans-serif" font-size="14" lengthAdjust="spacing" textLength="158" x="299" y="212.2969">AdvertisementRepository</text><line style="stroke:#181818;stroke-width:0.5;" x1="271" x2="459" y1="222.5" y2="222.5"/><line style="stroke:#181818;stroke-width:0.5;" x1="271" x2="459" y1="230.5" y2="230.5"/><text fill="#000000" font-family="sans-serif" font-size="14" lengthAdjust="spacing" textLength="150" x="276" y="249.6074">+getAdvertisementList()</text></g><!--class AdvertisementCollection--><g id="elem_AdvertisementCollection"><rect codeLine="49" fill="#F1F1F1" height="103.8633" id="AdvertisementCollection" rx="2.5" ry="2.5" style="stroke:#181818;stroke-width:0.5;" width="401" x="495.5" y="172"/><ellipse cx="615.75" cy="188" fill="#ADD1B2" rx="11" ry="11" style="stroke:#181818;stroke-width:1.0;"/><path d="M618.5156,183.875 Q618.6719,183.6563 618.8594,183.5469 Q619.0469,183.4375 619.2656,183.4375 Q619.6406,183.4375 619.875,183.7031 Q620.1094,183.9531 620.1094,184.5625 L620.1094,186.0156 Q620.1094,186.625 619.875,186.8906 Q619.6406,187.1563 619.2656,187.1563 Q618.9219,187.1563 618.7188,186.9531 Q618.5156,186.7656 618.4063,186.25 Q618.3594,185.8906 618.1719,185.7031 Q617.8438,185.3281 617.2344,185.1094 Q616.625,184.8906 616,184.8906 Q615.2344,184.8906 614.5938,185.2188 Q613.9688,185.5469 613.4688,186.2969 Q612.9844,187.0469 612.9844,188.0781 L612.9844,189.1719 Q612.9844,190.4063 613.875,191.2344 Q614.7656,192.0469 616.3594,192.0469 Q617.2969,192.0469 617.9531,191.7969 Q618.3438,191.6406 618.7656,191.2031 Q619.0313,190.9375 619.1719,190.8594 Q619.3281,190.7813 619.5313,190.7813 Q619.8594,190.7813 620.1094,191.0469 Q620.375,191.2969 620.375,191.6406 Q620.375,191.9844 620.0313,192.3906 Q619.5313,192.9688 618.7344,193.2969 Q617.6563,193.75 616.3594,193.75 Q614.8438,193.75 613.6406,193.125 Q612.6563,192.625 611.9688,191.5625 Q611.2813,190.4844 611.2813,189.2031 L611.2813,188.0469 Q611.2813,186.7188 611.8906,185.5781 Q612.5156,184.4219 613.6094,183.8125 Q614.7031,183.1875 615.9375,183.1875 Q616.6719,183.1875 617.3125,183.3594 Q617.9688,183.5156 618.5156,183.875 Z " fill="#000000"/><text fill="#000000" font-family="sans-serif" font-size="14" lengthAdjust="spacing" textLength="152" x="636.25" y="193.7969">AdvertisementCollection</text><line style="stroke:#181818;stroke-width:0.5;" x1="496.5" x2="895.5" y1="204" y2="204"/><line style="stroke:#181818;stroke-width:0.5;" x1="496.5" x2="895.5" y1="212" y2="212"/><text fill="#000000" font-family="sans-serif" font-size="14" lengthAdjust="spacing" textLength="351" x="501.5" y="231.1074">+madeDealsSort(algorithm, order): List&lt;Advertisement&gt;</text><text fill="#000000" font-family="sans-serif" font-size="14" lengthAdjust="spacing" textLength="389" x="501.5" y="249.7285">+selectionSort(advertisementList, order): List&lt;Advertisement&gt;</text><text fill="#000000" font-family="sans-serif" font-size="14" lengthAdjust="spacing" textLength="376" x="501.5" y="268.3496">+bubbleSort(advertisementList, order): List&lt;Advertisement&gt;</text></g><!--link Repositories to Repositories--><g id="link_Repositories_Repositories"><path codeLine="55" d="M707.26,44.31 C727.58,46.02 742,50.91 742,59 C742,66.39 729.95,71.12 712.36,73.18 " fill="none" id="Repositories-to-Repositories" style="stroke:#181818;stroke-width:1.0;"/><polygon fill="#181818" points="707.26,73.69,716.6151,76.7693,712.2349,73.1897,715.8145,68.8094,707.26,73.69" style="stroke:#181818;stroke-width:1.0;"/><text fill="#000000" font-family="sans-serif" font-size="13" lengthAdjust="spacing" textLength="49" x="748" y="64.5283">instance</text></g><!--link Repositories to AdvertisementCollection--><g id="link_Repositories_AdvertisementCollection"><path codeLine="56" d="M632.17,111.13 C642.34,128.94 653.79,149.02 664.16,167.2 " fill="none" id="Repositories-to-AdvertisementCollection" style="stroke:#181818;stroke-width:1.0;"/><polygon fill="#181818" points="666.77,171.77,665.7708,161.972,664.2862,167.4305,658.8277,165.946,666.77,171.77" style="stroke:#181818;stroke-width:1.0;"/><text fill="#000000" font-family="sans-serif" font-size="13" lengthAdjust="spacing" textLength="7" x="655.3719" y="160.6665">1</text></g><!--link ListDealsController to Repositories--><g id="link_ListDealsController_Repositories"><path codeLine="57" d="M395.85,59 C426.38,59 461.26,59 493.59,59 " fill="none" id="ListDealsController-to-Repositories" style="stroke:#181818;stroke-width:1.0;stroke-dasharray:7.0,7.0;"/><polygon fill="#181818" points="498.75,59,489.75,55,493.75,59,489.75,63,498.75,59" style="stroke:#181818;stroke-width:1.0;"/><text fill="#000000" font-family="sans-serif" font-size="13" lengthAdjust="spacing" textLength="67" x="413.75" y="52.0283">repositories</text></g><!--link ListDealsUI to ListDealsController--><g id="link_ListDealsUI_ListDealsController"><path codeLine="59" d="M191.25,59 C200.75,59 211.82,59 221.05,59 " fill="none" id="ListDealsUI-to-ListDealsController" style="stroke:#181818;stroke-width:1.0;stroke-dasharray:7.0,7.0;"/><polygon fill="#181818" points="226.23,59,217.23,55,221.23,59,217.23,63,226.23,59" style="stroke:#181818;stroke-width:1.0;"/></g><!--link Repositories to AdvertisementRepository--><g id="link_Repositories_AdvertisementRepository"><path codeLine="61" d="M528.35,111.13 C492.21,135.88 449.7,164.99 417.11,187.31 " fill="none" id="Repositories-to-AdvertisementRepository" style="stroke:#181818;stroke-width:1.0;"/><polygon fill="#181818" points="412.78,190.28,422.4625,188.4774,416.9002,187.4474,417.9303,181.8851,412.78,190.28" style="stroke:#181818;stroke-width:1.0;"/><text fill="#000000" font-family="sans-serif" font-size="13" lengthAdjust="spacing" textLength="7" x="414.2209" y="179.324">1</text></g><!--link AdvertisementRepository to Advertisement--><g id="link_AdvertisementRepository_Advertisement"><path codeLine="63" d="M365,257.53 C365,277.32 365,304.05 365,331.66 " fill="none" id="AdvertisementRepository-to-Advertisement" style="stroke:#181818;stroke-width:1.0;"/><polygon fill="#181818" points="365,336.82,369,327.82,365,331.82,361,327.82,365,336.82" style="stroke:#181818;stroke-width:1.0;"/><text fill="#000000" font-family="sans-serif" font-size="13" lengthAdjust="spacing" textLength="5" x="359.8477" y="325.6248">*</text></g><!--link Advertisement to ComissionType--><g id="link_Advertisement_ComissionType"><path codeLine="65" d="M365,590.31 C365,610.35 365,629.64 365,645.43 " fill="none" id="Advertisement-to-ComissionType" style="stroke:#181818;stroke-width:1.0;"/><polygon fill="#181818" points="365,650.64,369,641.64,365,645.64,361,641.64,365,650.64" style="stroke:#181818;stroke-width:1.0;"/><text fill="#000000" font-family="sans-serif" font-size="13" lengthAdjust="spacing" textLength="7" x="357.3328" y="639.6573">1</text></g><!--SRC=[dLJBRjim4BppAnQvM6wReBqQXG73kHWeK21ASwV9jKo48bLobS0nykybQJqenmQ2wY1IEpFBVL4p_wnCmnsleRR6YhspDGAv5jc8D5myymfBEcW4XuAugNHEy7ikxQio5UouzZcYbK4wD0YDrOVumMONGEl8iambDFT-HUJKjYNS26jAzORmdR6PnXq1MN2gsXD85SDHrZ2MDF1BURh74CIVpP51UBw2SCW9HsHj3JchDJhs_a4sWhsyGjeO7r8MMCmxc-xfXG-XhtJrBQGWqSr7Zm_OMA_8EeKUJhvk9yR1sUG0M4n88sKbNz2HybYZeO5oADAHtPaJpd3eVSnUXjSGnDyMFOL6fhMphcrTA-z3AHzZHyJai-D8ssvrZZrntVPW6S91yF7TMM9HVpwf4EWINkBYS-3tReTk2JOkMPx978gpo5aZN1AdDi6dNLOW8R0Xb4aH2MdJuLokZ8mTUxHbc2fJdJp4NQmVchQE5SWAS1pIYYIGw8LJJHgrzulr7di2nojjYnaLyolwTPowDCk3lkOIqvYLOSeAhgim4xIl-s7hIZJnqfVAO-Vi93sFuZCkjkqsTFj_z271oVZVBgVNOG6g6_WpNY3U_BYvLXTsuPR2tGVVBhy_BFiXHEwbly0dWXYRozYrhYVXbpFX6NtmFXasnlu1]--></g></svg>