<?xml version="1.0" encoding="us-ascii" standalone="no"?><svg xmlns="http://www.w3.org/2000/svg" xmlns:xlink="http://www.w3.org/1999/xlink" contentStyleType="text/css" height="869px" preserveAspectRatio="none" style="width:1391px;height:869px;background:#FFFFFF;" version="1.1" viewBox="0 0 1391 869" width="1391px" zoomAndPan="magnify"><defs/><g><rect fill="#FFFFFF" height="674.7813" style="stroke:#181818;stroke-width:1.0;" width="10" x="69" y="93.6211"/><rect fill="#FFFFFF" height="137.4941" style="stroke:#181818;stroke-width:1.0;" width="10" x="465" y="116.9121"/><rect fill="#FFFFFF" height="31.291" style="stroke:#181818;stroke-width:1.0;" width="10" x="465" y="285.6973"/><rect fill="#FFFFFF" height="420.123" style="stroke:#181818;stroke-width:1.0;" width="10" x="465" y="348.2793"/><rect fill="#FFFFFF" height="64.9121" style="stroke:#181818;stroke-width:1.0;" width="10" x="653" y="158.2031"/><rect fill="#FFFFFF" height="357.541" style="stroke:#181818;stroke-width:1.0;" width="10" x="653" y="379.5703"/><rect fill="#FFFFFF" height="31.291" style="stroke:#181818;stroke-width:1.0;" width="10" x="780.5" y="191.8242"/><rect fill="#FFFFFF" height="31.291" style="stroke:#181818;stroke-width:1.0;" width="10" x="887.5" y="410.8613"/><rect fill="#FFFFFF" height="232.377" style="stroke:#181818;stroke-width:1.0;" width="10" x="1028.5" y="473.4434"/><rect fill="#FFFFFF" height="31.291" style="stroke:#181818;stroke-width:1.0;" width="10" x="1292.5" y="504.7344"/><rect fill="none" height="124.5039" style="stroke:#000000;stroke-width:1.5;" width="356.5" x="941" y="551.0254"/><line style="stroke:#181818;stroke-width:0.5;stroke-dasharray:5.0,5.0;" x1="74" x2="74" y1="83.6211" y2="786.4023"/><line style="stroke:#181818;stroke-width:0.5;stroke-dasharray:5.0,5.0;" x1="470" x2="470" y1="83.6211" y2="786.4023"/><line style="stroke:#181818;stroke-width:0.5;stroke-dasharray:5.0,5.0;" x1="658" x2="658" y1="156.7227" y2="786.4023"/><line style="stroke:#181818;stroke-width:0.5;stroke-dasharray:5.0,5.0;" x1="785" x2="785" y1="83.6211" y2="786.4023"/><line style="stroke:#181818;stroke-width:0.5;stroke-dasharray:5.0,5.0;" x1="892" x2="892" y1="83.6211" y2="786.4023"/><line style="stroke:#181818;stroke-width:0.5;stroke-dasharray:5.0,5.0;" x1="1033" x2="1033" y1="83.6211" y2="786.4023"/><line style="stroke:#181818;stroke-width:0.5;stroke-dasharray:5.0,5.0;" x1="1297.5" x2="1297.5" y1="83.6211" y2="786.4023"/><text fill="#000000" font-family="sans-serif" font-size="14" lengthAdjust="spacing" textLength="132" x="5" y="80.1074">System administrator</text><ellipse cx="74" cy="13.5" fill="#E3E3E3" rx="8" ry="8" style="stroke:#181818;stroke-width:0.5;"/><path d="M74,21.5 L74,48.5 M61,29.5 L87,29.5 M74,48.5 L61,63.5 M74,48.5 L87,63.5 " fill="none" style="stroke:#181818;stroke-width:0.5;"/><text fill="#000000" font-family="sans-serif" font-size="14" lengthAdjust="spacing" textLength="132" x="5" y="800.5098">System administrator</text><ellipse cx="74" cy="812.5234" fill="#E3E3E3" rx="8" ry="8" style="stroke:#181818;stroke-width:0.5;"/><path d="M74,820.5234 L74,847.5234 M61,828.5234 L87,828.5234 M74,847.5234 L61,862.5234 M74,847.5234 L87,862.5234 " fill="none" style="stroke:#181818;stroke-width:0.5;"/><rect fill="#E3E3E3" height="32.6211" rx="2.5" ry="2.5" style="stroke:#181818;stroke-width:0.5;" width="88" x="426" y="50"/><text fill="#000000" font-family="sans-serif" font-size="14" lengthAdjust="spacing" textLength="74" x="433" y="72.1074">:ListDealsUI</text><rect fill="#E3E3E3" height="32.6211" rx="2.5" ry="2.5" style="stroke:#181818;stroke-width:0.5;" width="88" x="426" y="785.4023"/><text fill="#000000" font-family="sans-serif" font-size="14" lengthAdjust="spacing" textLength="74" x="433" y="807.5098">:ListDealsUI</text><rect fill="#E3E3E3" height="32.6211" rx="2.5" ry="2.5" style="stroke:#181818;stroke-width:0.5;" width="138" x="589" y="785.4023"/><text fill="#000000" font-family="sans-serif" font-size="14" lengthAdjust="spacing" textLength="124" x="596" y="807.5098">:ListDealsController</text><rect fill="#E3E3E3" height="32.6211" rx="2.5" ry="2.5" style="stroke:#181818;stroke-width:0.5;" width="97" x="737" y="50"/><text fill="#000000" font-family="sans-serif" font-size="14" lengthAdjust="spacing" textLength="83" x="744" y="72.1074">:Repositories</text><rect fill="#E3E3E3" height="32.6211" rx="2.5" ry="2.5" style="stroke:#181818;stroke-width:0.5;" width="97" x="737" y="785.4023"/><text fill="#000000" font-family="sans-serif" font-size="14" lengthAdjust="spacing" textLength="83" x="744" y="807.5098">:Repositories</text><rect fill="#E3E3E3" height="51.2422" rx="2.5" ry="2.5" style="stroke:#181818;stroke-width:0.5;" width="97" x="844" y="31.3789"/><text fill="#000000" font-family="sans-serif" font-size="14" lengthAdjust="spacing" textLength="74" x="855.5" y="53.4863">repositories</text><text fill="#000000" font-family="sans-serif" font-size="14" lengthAdjust="spacing" textLength="83" x="851" y="72.1074">:Repositories</text><rect fill="#E3E3E3" height="51.2422" rx="2.5" ry="2.5" style="stroke:#181818;stroke-width:0.5;" width="97" x="844" y="785.4023"/><text fill="#000000" font-family="sans-serif" font-size="14" lengthAdjust="spacing" textLength="74" x="855.5" y="807.5098">repositories</text><text fill="#000000" font-family="sans-serif" font-size="14" lengthAdjust="spacing" textLength="83" x="851" y="826.1309">:Repositories</text><rect fill="#E3E3E3" height="32.6211" rx="2.5" ry="2.5" style="stroke:#181818;stroke-width:0.5;" width="165" x="951" y="50"/><text fill="#000000" font-family="sans-serif" font-size="14" lengthAdjust="spacing" textLength="151" x="958" y="72.1074">advertisementCollection</text><rect fill="#E3E3E3" height="32.6211" rx="2.5" ry="2.5" style="stroke:#181818;stroke-width:0.5;" width="165" x="951" y="785.4023"/><text fill="#000000" font-family="sans-serif" font-size="14" lengthAdjust="spacing" textLength="151" x="958" y="807.5098">advertisementCollection</text><rect fill="#E3E3E3" height="51.2422" rx="2.5" ry="2.5" style="stroke:#181818;stroke-width:0.5;" width="176" x="1209.5" y="31.3789"/><text fill="#000000" font-family="sans-serif" font-size="14" lengthAdjust="spacing" textLength="157" x="1219" y="53.4863">advertisementRepository</text><text fill="#000000" font-family="sans-serif" font-size="14" lengthAdjust="spacing" textLength="162" x="1216.5" y="72.1074">:AdvertisementRepository</text><rect fill="#E3E3E3" height="51.2422" rx="2.5" ry="2.5" style="stroke:#181818;stroke-width:0.5;" width="176" x="1209.5" y="785.4023"/><text fill="#000000" font-family="sans-serif" font-size="14" lengthAdjust="spacing" textLength="157" x="1219" y="807.5098">advertisementRepository</text><text fill="#000000" font-family="sans-serif" font-size="14" lengthAdjust="spacing" textLength="162" x="1216.5" y="826.1309">:AdvertisementRepository</text><rect fill="#FFFFFF" height="674.7813" style="stroke:#181818;stroke-width:1.0;" width="10" x="69" y="93.6211"/><rect fill="#FFFFFF" height="137.4941" style="stroke:#181818;stroke-width:1.0;" width="10" x="465" y="116.9121"/><rect fill="#FFFFFF" height="31.291" style="stroke:#181818;stroke-width:1.0;" width="10" x="465" y="285.6973"/><rect fill="#FFFFFF" height="420.123" style="stroke:#181818;stroke-width:1.0;" width="10" x="465" y="348.2793"/><rect fill="#FFFFFF" height="64.9121" style="stroke:#181818;stroke-width:1.0;" width="10" x="653" y="158.2031"/><rect fill="#FFFFFF" height="357.541" style="stroke:#181818;stroke-width:1.0;" width="10" x="653" y="379.5703"/><rect fill="#FFFFFF" height="31.291" style="stroke:#181818;stroke-width:1.0;" width="10" x="780.5" y="191.8242"/><rect fill="#FFFFFF" height="31.291" style="stroke:#181818;stroke-width:1.0;" width="10" x="887.5" y="410.8613"/><rect fill="#FFFFFF" height="232.377" style="stroke:#181818;stroke-width:1.0;" width="10" x="1028.5" y="473.4434"/><rect fill="#FFFFFF" height="31.291" style="stroke:#181818;stroke-width:1.0;" width="10" x="1292.5" y="504.7344"/><polygon fill="#181818" points="453,112.9121,463,116.9121,453,120.9121,457,116.9121" style="stroke:#181818;stroke-width:1.0;"/><line style="stroke:#181818;stroke-width:1.0;" x1="79" x2="459" y1="116.9121" y2="116.9121"/><text fill="#000000" font-family="sans-serif" font-size="13" font-weight="bold" lengthAdjust="spacing" textLength="7" x="86" y="111.6494">1</text><text fill="#000000" font-family="sans-serif" font-size="13" lengthAdjust="spacing" textLength="191" x="97" y="111.6494">asks to show the accepted deals</text><polygon fill="#181818" points="577,144.2031,587,148.2031,577,152.2031,581,148.2031" style="stroke:#181818;stroke-width:1.0;"/><line style="stroke:#181818;stroke-width:1.0;" x1="475" x2="583" y1="148.2031" y2="148.2031"/><text fill="#000000" font-family="sans-serif" font-size="13" font-weight="bold" lengthAdjust="spacing" textLength="7" x="482" y="142.9404">2</text><text fill="#000000" font-family="sans-serif" font-size="13" lengthAdjust="spacing" textLength="36" x="493" y="142.9404">create</text><rect fill="#E3E3E3" height="32.6211" rx="2.5" ry="2.5" style="stroke:#181818;stroke-width:0.5;" width="138" x="589" y="124.9121"/><text fill="#000000" font-family="sans-serif" font-size="14" lengthAdjust="spacing" textLength="124" x="596" y="147.0195">:ListDealsController</text><polygon fill="#181818" points="768.5,187.8242,778.5,191.8242,768.5,195.8242,772.5,191.8242" style="stroke:#181818;stroke-width:1.0;"/><line style="stroke:#181818;stroke-width:1.0;" x1="663" x2="774.5" y1="191.8242" y2="191.8242"/><text fill="#000000" font-family="sans-serif" font-size="13" font-weight="bold" lengthAdjust="spacing" textLength="7" x="670" y="186.5615">3</text><text fill="#000000" font-family="sans-serif" font-size="13" lengthAdjust="spacing" textLength="75" x="681" y="186.5615">getInstance()</text><polygon fill="#181818" points="669,219.1152,659,223.1152,669,227.1152,665,223.1152" style="stroke:#181818;stroke-width:1.0;"/><line style="stroke:#181818;stroke-width:1.0;stroke-dasharray:2.0,2.0;" x1="663" x2="784.5" y1="223.1152" y2="223.1152"/><text fill="#000000" font-family="sans-serif" font-size="13" font-weight="bold" lengthAdjust="spacing" textLength="7" x="675" y="217.8525">4</text><text fill="#000000" font-family="sans-serif" font-size="13" lengthAdjust="spacing" textLength="67" x="686" y="217.8525">repositories</text><polygon fill="#181818" points="90,250.4063,80,254.4063,90,258.4063,86,254.4063" style="stroke:#181818;stroke-width:1.0;"/><line style="stroke:#181818;stroke-width:1.0;stroke-dasharray:2.0,2.0;" x1="84" x2="469" y1="254.4063" y2="254.4063"/><text fill="#000000" font-family="sans-serif" font-size="13" font-weight="bold" lengthAdjust="spacing" textLength="7" x="96" y="249.1436">5</text><text fill="#000000" font-family="sans-serif" font-size="13" lengthAdjust="spacing" textLength="259" x="107" y="249.1436">asks to choose which algorithm will be used.</text><polygon fill="#181818" points="453,281.6973,463,285.6973,453,289.6973,457,285.6973" style="stroke:#181818;stroke-width:1.0;"/><line style="stroke:#181818;stroke-width:1.0;" x1="79" x2="459" y1="285.6973" y2="285.6973"/><text fill="#000000" font-family="sans-serif" font-size="13" font-weight="bold" lengthAdjust="spacing" textLength="7" x="86" y="280.4346">6</text><text fill="#000000" font-family="sans-serif" font-size="13" lengthAdjust="spacing" textLength="132" x="97" y="280.4346">chooses the algorithm.</text><polygon fill="#181818" points="90,312.9883,80,316.9883,90,320.9883,86,316.9883" style="stroke:#181818;stroke-width:1.0;"/><line style="stroke:#181818;stroke-width:1.0;stroke-dasharray:2.0,2.0;" x1="84" x2="469" y1="316.9883" y2="316.9883"/><text fill="#000000" font-family="sans-serif" font-size="13" font-weight="bold" lengthAdjust="spacing" textLength="7" x="96" y="311.7256">7</text><text fill="#000000" font-family="sans-serif" font-size="13" lengthAdjust="spacing" textLength="351" x="107" y="311.7256">asks to choose which order the information will be displayed.</text><polygon fill="#181818" points="453,344.2793,463,348.2793,453,352.2793,457,348.2793" style="stroke:#181818;stroke-width:1.0;"/><line style="stroke:#181818;stroke-width:1.0;" x1="79" x2="459" y1="348.2793" y2="348.2793"/><text fill="#000000" font-family="sans-serif" font-size="13" font-weight="bold" lengthAdjust="spacing" textLength="7" x="86" y="343.0166">8</text><text fill="#000000" font-family="sans-serif" font-size="13" lengthAdjust="spacing" textLength="230" x="97" y="343.0166">chooses the order and submits the data</text><polygon fill="#181818" points="641,375.5703,651,379.5703,641,383.5703,645,379.5703" style="stroke:#181818;stroke-width:1.0;"/><line style="stroke:#181818;stroke-width:1.0;" x1="475" x2="647" y1="379.5703" y2="379.5703"/><text fill="#000000" font-family="sans-serif" font-size="13" font-weight="bold" lengthAdjust="spacing" textLength="7" x="482" y="374.3076">9</text><text fill="#000000" font-family="sans-serif" font-size="13" lengthAdjust="spacing" textLength="148" x="493" y="374.3076">listDeals(algorithm, order)</text><polygon fill="#181818" points="875.5,406.8613,885.5,410.8613,875.5,414.8613,879.5,410.8613" style="stroke:#181818;stroke-width:1.0;"/><line style="stroke:#181818;stroke-width:1.0;" x1="663" x2="881.5" y1="410.8613" y2="410.8613"/><text fill="#000000" font-family="sans-serif" font-size="13" font-weight="bold" lengthAdjust="spacing" textLength="14" x="670" y="405.5986">10</text><text fill="#000000" font-family="sans-serif" font-size="13" lengthAdjust="spacing" textLength="170" x="688" y="405.5986">getAdvertisementRepository()</text><polygon fill="#181818" points="674,438.1523,664,442.1523,674,446.1523,670,442.1523" style="stroke:#181818;stroke-width:1.0;"/><line style="stroke:#181818;stroke-width:1.0;stroke-dasharray:2.0,2.0;" x1="668" x2="891.5" y1="442.1523" y2="442.1523"/><text fill="#000000" font-family="sans-serif" font-size="13" font-weight="bold" lengthAdjust="spacing" textLength="14" x="680" y="436.8896">11</text><text fill="#000000" font-family="sans-serif" font-size="13" lengthAdjust="spacing" textLength="142" x="698" y="436.8896">advertisementRepository</text><polygon fill="#181818" points="1016.5,469.4434,1026.5,473.4434,1016.5,477.4434,1020.5,473.4434" style="stroke:#181818;stroke-width:1.0;"/><line style="stroke:#181818;stroke-width:1.0;" x1="663" x2="1022.5" y1="473.4434" y2="473.4434"/><text fill="#000000" font-family="sans-serif" font-size="13" font-weight="bold" lengthAdjust="spacing" textLength="14" x="670" y="468.1807">12</text><text fill="#000000" font-family="sans-serif" font-size="13" lengthAdjust="spacing" textLength="187" x="688" y="468.1807">madeDealsSort(algorithm, order)</text><polygon fill="#181818" points="1280.5,500.7344,1290.5,504.7344,1280.5,508.7344,1284.5,504.7344" style="stroke:#181818;stroke-width:1.0;"/><line style="stroke:#181818;stroke-width:1.0;" x1="1038.5" x2="1286.5" y1="504.7344" y2="504.7344"/><text fill="#000000" font-family="sans-serif" font-size="13" font-weight="bold" lengthAdjust="spacing" textLength="14" x="1045.5" y="499.4717">13</text><text fill="#000000" font-family="sans-serif" font-size="13" lengthAdjust="spacing" textLength="129" x="1063.5" y="499.4717">getAdvertisementList()</text><polygon fill="#181818" points="1049.5,532.0254,1039.5,536.0254,1049.5,540.0254,1045.5,536.0254" style="stroke:#181818;stroke-width:1.0;"/><line style="stroke:#181818;stroke-width:1.0;stroke-dasharray:2.0,2.0;" x1="1043.5" x2="1296.5" y1="536.0254" y2="536.0254"/><text fill="#000000" font-family="sans-serif" font-size="13" font-weight="bold" lengthAdjust="spacing" textLength="14" x="1055.5" y="530.7627">14</text><text fill="#000000" font-family="sans-serif" font-size="13" lengthAdjust="spacing" textLength="101" x="1073.5" y="530.7627">advertisementList</text><path d="M941,551.0254 L1002,551.0254 L1002,560.3164 L992,570.3164 L941,570.3164 L941,551.0254 " fill="#EEEEEE" style="stroke:#000000;stroke-width:1.5;"/><rect fill="none" height="124.5039" style="stroke:#000000;stroke-width:1.5;" width="356.5" x="941" y="551.0254"/><text fill="#000000" font-family="sans-serif" font-size="13" font-weight="bold" lengthAdjust="spacing" textLength="16" x="956" y="566.0537">alt</text><text fill="#000000" font-family="sans-serif" font-size="11" font-weight="bold" lengthAdjust="spacing" textLength="85" x="1017" y="564.8955">[algorithm == 1]</text><line style="stroke:#181818;stroke-width:1.0;" x1="1038.5" x2="1080.5" y1="593.6074" y2="593.6074"/><line style="stroke:#181818;stroke-width:1.0;" x1="1080.5" x2="1080.5" y1="593.6074" y2="606.6074"/><line style="stroke:#181818;stroke-width:1.0;" x1="1039.5" x2="1080.5" y1="606.6074" y2="606.6074"/><polygon fill="#181818" points="1049.5,602.6074,1039.5,606.6074,1049.5,610.6074,1045.5,606.6074" style="stroke:#181818;stroke-width:1.0;"/><text fill="#000000" font-family="sans-serif" font-size="13" font-weight="bold" lengthAdjust="spacing" textLength="14" x="1045.5" y="588.3447">15</text><text fill="#000000" font-family="sans-serif" font-size="13" lengthAdjust="spacing" textLength="222" x="1063.5" y="588.3447">selectionSort(advertisementList, order)</text><line style="stroke:#000000;stroke-width:1.0;stroke-dasharray:2.0,2.0;" x1="941" x2="1297.5" y1="615.6074" y2="615.6074"/><text fill="#000000" font-family="sans-serif" font-size="11" font-weight="bold" lengthAdjust="spacing" textLength="85" x="946" y="627.4775">[algorithm == 2]</text><line style="stroke:#181818;stroke-width:1.0;" x1="1038.5" x2="1080.5" y1="654.5293" y2="654.5293"/><line style="stroke:#181818;stroke-width:1.0;" x1="1080.5" x2="1080.5" y1="654.5293" y2="667.5293"/><line style="stroke:#181818;stroke-width:1.0;" x1="1039.5" x2="1080.5" y1="667.5293" y2="667.5293"/><polygon fill="#181818" points="1049.5,663.5293,1039.5,667.5293,1049.5,671.5293,1045.5,667.5293" style="stroke:#181818;stroke-width:1.0;"/><text fill="#000000" font-family="sans-serif" font-size="13" font-weight="bold" lengthAdjust="spacing" textLength="14" x="1045.5" y="649.2666">16</text><text fill="#000000" font-family="sans-serif" font-size="13" lengthAdjust="spacing" textLength="208" x="1063.5" y="649.2666">bubbleSort(advertisementList, order)</text><polygon fill="#181818" points="674,701.8203,664,705.8203,674,709.8203,670,705.8203" style="stroke:#181818;stroke-width:1.0;"/><line style="stroke:#181818;stroke-width:1.0;stroke-dasharray:2.0,2.0;" x1="668" x2="1032.5" y1="705.8203" y2="705.8203"/><text fill="#000000" font-family="sans-serif" font-size="13" font-weight="bold" lengthAdjust="spacing" textLength="14" x="680" y="700.5576">17</text><text fill="#000000" font-family="sans-serif" font-size="13" lengthAdjust="spacing" textLength="59" x="698" y="700.5576">sortedAds</text><polygon fill="#181818" points="486,733.1113,476,737.1113,486,741.1113,482,737.1113" style="stroke:#181818;stroke-width:1.0;"/><line style="stroke:#181818;stroke-width:1.0;stroke-dasharray:2.0,2.0;" x1="480" x2="657" y1="737.1113" y2="737.1113"/><text fill="#000000" font-family="sans-serif" font-size="13" font-weight="bold" lengthAdjust="spacing" textLength="14" x="492" y="731.8486">18</text><text fill="#000000" font-family="sans-serif" font-size="13" lengthAdjust="spacing" textLength="59" x="510" y="731.8486">sortedAds</text><polygon fill="#181818" points="85,764.4023,75,768.4023,85,772.4023,81,768.4023" style="stroke:#181818;stroke-width:1.0;"/><line style="stroke:#181818;stroke-width:1.0;stroke-dasharray:2.0,2.0;" x1="79" x2="469" y1="768.4023" y2="768.4023"/><text fill="#000000" font-family="sans-serif" font-size="13" font-weight="bold" lengthAdjust="spacing" textLength="14" x="91" y="763.1396">19</text><text fill="#000000" font-family="sans-serif" font-size="13" lengthAdjust="spacing" textLength="225" x="109" y="763.1396">displays the deals, sorted and ordered.</text><!--SRC=[hLKzRzim4DtrAmvUwWHnW7Oqa0A6ay502XHnitMXoBD5M285aehhVz-ZP54VeMmFqIGTZ-_TlVkGFKXLCiCAABJIF3EwG72cmiI6avBn0zlZrfro18FSCRNF-musOq8VfTh3ZkKMauHLJgkgID4aoRTC2eITrYxL_nB6dJOmsvwimmAOAAIIrXb6rXam2wldNmc1EibboPI3sVALpf-HSDytjSVxPifXhPKpEi-nWLh_UNiTkRvXgQqaBecszY73LlfiADwXh-cv_bMHco-_jyCRJ7mWVLeiKBcrZuCxgLNjFN5s0I0GdeXz5J_v3DsT9Lvg-S4SrfecS7xe0nO_IKLOqks31QUfVle8BaDWd6FfK83mUeOx0Ocq3qR_40fXUQ7lxmcF6oIlWKUuMbTZSEGj_dg_1WIoHxTHbdgCu_mkZZMesi1bWBKunxQ4VZ47_fHd57J2vtCINW6YyQfsUl9CQujmp2JFWELxudLP0KUPvv0YL1R5unJ5ME9-lHfSsvIgXNsCQnGhrUL0jH5eQcofTjeKp7Te25f8M-Riz0MHDpnC2R1LMaZNM0Lpx7ecNSCHQDuE_Zo8yT2WtoLN-Y_q7arnqtCJ8pQFGDMZ7ymrnAABQceUOoqt06fZcjWL15qmWNN2MstSBKbFhPtESu9h74QNHqGjlu3drzZxcodAtgDOJAimqjTJnvIzJfsxtcG-FS7tOVFUAioWFXRFxqrzne66EWKcfB_bC8mVNn16MgLfZZV7eCGD_H1MgILO52jXhyeUwxUcnzkjS16h6zXkTItRDNJU6NuM7iumzKQfasjtr6WtzJxz7_4_]--></g></svg>