<?xml version="1.0" encoding="us-ascii" standalone="no"?><svg xmlns="http://www.w3.org/2000/svg" xmlns:xlink="http://www.w3.org/1999/xlink" contentStyleType="text/css" height="925px" preserveAspectRatio="none" style="width:913px;height:925px;background:#FFFFFF;" version="1.1" viewBox="0 0 913 925" width="913px" zoomAndPan="magnify"><defs/><g><text fill="#000000" font-family="sans-serif" font-size="14" font-weight="bold" lengthAdjust="spacing" textLength="100" x="399.75" y="22.6738">Domain Model</text><!--class Person--><g id="elem_Person"><rect codeLine="16" fill="#F1F1F1" height="111.8438" id="Person" rx="2.5" ry="2.5" style="stroke:#181818;stroke-width:0.5;" width="101" x="178" y="43.6406"/><text fill="#000000" font-family="sans-serif" font-size="14" lengthAdjust="spacing" textLength="45" x="206" y="61.3145">Person</text><line style="stroke:#181818;stroke-width:0.5;" x1="179" x2="278" y1="69.2813" y2="69.2813"/><text fill="#000000" font-family="sans-serif" font-size="14" lengthAdjust="spacing" textLength="85" x="184" y="85.9551">emailAddress</text><text fill="#000000" font-family="sans-serif" font-size="14" lengthAdjust="spacing" textLength="55" x="184" y="101.5957">passport</text><text fill="#000000" font-family="sans-serif" font-size="14" lengthAdjust="spacing" textLength="15" x="184" y="117.2363">tin</text><text fill="#000000" font-family="sans-serif" font-size="14" lengthAdjust="spacing" textLength="89" x="184" y="132.877">phoneNumber</text><text fill="#000000" font-family="sans-serif" font-size="14" lengthAdjust="spacing" textLength="35" x="184" y="148.5176">name</text></g><!--class Property--><g id="elem_Property"><rect codeLine="24" fill="#F1F1F1" height="93.9688" id="Property" rx="2.5" ry="2.5" style="stroke:#181818;stroke-width:0.5;" width="132" x="583.5" y="620.6406"/><text fill="#000000" font-family="sans-serif" font-size="12" font-style="italic" lengthAdjust="spacing" textLength="62" x="618.5" y="636.5039">&#171;Interface&#187;</text><text fill="#000000" font-family="sans-serif" font-size="14" lengthAdjust="spacing" textLength="54" x="622.5" y="651.7207">Property</text><line style="stroke:#181818;stroke-width:0.5;" x1="584.5" x2="714.5" y1="659.6875" y2="659.6875"/><text fill="#000000" font-family="sans-serif" font-size="14" lengthAdjust="spacing" textLength="43" x="589.5" y="676.3613">photos</text><text fill="#000000" font-family="sans-serif" font-size="14" lengthAdjust="spacing" textLength="83" x="589.5" y="692.002">areaProperty</text><text fill="#000000" font-family="sans-serif" font-size="14" lengthAdjust="spacing" textLength="120" x="589.5" y="707.6426">distanceCityCenter</text></g><!--class House--><g id="elem_House"><rect codeLine="30" fill="#F1F1F1" height="143.125" id="House" rx="2.5" ry="2.5" style="stroke:#181818;stroke-width:0.5;" width="135" x="412" y="775.6406"/><text fill="#000000" font-family="sans-serif" font-size="14" lengthAdjust="spacing" textLength="40" x="459.5" y="793.3145">House</text><line style="stroke:#181818;stroke-width:0.5;" x1="413" x2="546" y1="801.2813" y2="801.2813"/><text fill="#000000" font-family="sans-serif" font-size="14" lengthAdjust="spacing" textLength="112" x="418" y="817.9551">numberBedrooms</text><text fill="#000000" font-family="sans-serif" font-size="14" lengthAdjust="spacing" textLength="116" x="418" y="833.5957">numberBathrooms</text><text fill="#000000" font-family="sans-serif" font-size="14" lengthAdjust="spacing" textLength="96" x="418" y="849.2363">numberParking</text><text fill="#000000" font-family="sans-serif" font-size="14" lengthAdjust="spacing" textLength="123" x="418" y="864.877">availableEquipment</text><text fill="#000000" font-family="sans-serif" font-size="14" lengthAdjust="spacing" textLength="62" x="418" y="880.5176">basement</text><text fill="#000000" font-family="sans-serif" font-size="14" lengthAdjust="spacing" textLength="19" x="418" y="896.1582">loft</text><text fill="#000000" font-family="sans-serif" font-size="14" lengthAdjust="spacing" textLength="82" x="418" y="911.7988">sunExposure</text></g><!--class Apartment--><g id="elem_Apartment"><rect codeLine="40" fill="#F1F1F1" height="96.2031" id="Apartment" rx="2.5" ry="2.5" style="stroke:#181818;stroke-width:0.5;" width="135" x="582" y="799.1406"/><text fill="#000000" font-family="sans-serif" font-size="14" lengthAdjust="spacing" textLength="65" x="617" y="816.8145">Apartment</text><line style="stroke:#181818;stroke-width:0.5;" x1="583" x2="716" y1="824.7813" y2="824.7813"/><text fill="#000000" font-family="sans-serif" font-size="14" lengthAdjust="spacing" textLength="112" x="588" y="841.4551">numberBedrooms</text><text fill="#000000" font-family="sans-serif" font-size="14" lengthAdjust="spacing" textLength="116" x="588" y="857.0957">numberBathrooms</text><text fill="#000000" font-family="sans-serif" font-size="14" lengthAdjust="spacing" textLength="96" x="588" y="872.7363">numberParking</text><text fill="#000000" font-family="sans-serif" font-size="14" lengthAdjust="spacing" textLength="123" x="588" y="888.377">availableEquipment</text></g><!--class Land--><g id="elem_Land"><rect codeLine="47" fill="#F1F1F1" height="33.6406" id="Land" rx="2.5" ry="2.5" style="stroke:#181818;stroke-width:0.5;" width="38" x="752.5" y="830.1406"/><text fill="#000000" font-family="sans-serif" font-size="14" lengthAdjust="spacing" textLength="32" x="755.5" y="847.8145">Land</text><line style="stroke:#181818;stroke-width:0.5;" x1="753.5" x2="789.5" y1="855.7813" y2="855.7813"/></g><!--class Advertisement--><g id="elem_Advertisement"><rect codeLine="49" fill="#F1F1F1" height="80.5625" id="Advertisement" rx="2.5" ry="2.5" style="stroke:#181818;stroke-width:0.5;" width="121" x="7" y="627.1406"/><text fill="#000000" font-family="sans-serif" font-size="14" lengthAdjust="spacing" textLength="90" x="22.5" y="644.8145">Advertisement</text><line style="stroke:#181818;stroke-width:0.5;" x1="8" x2="127" y1="652.7813" y2="652.7813"/><text fill="#000000" font-family="sans-serif" font-size="14" lengthAdjust="spacing" textLength="109" x="13" y="669.4551">commissionValue</text><text fill="#000000" font-family="sans-serif" font-size="14" lengthAdjust="spacing" textLength="105" x="13" y="685.0957">commissionType</text><text fill="#000000" font-family="sans-serif" font-size="14" lengthAdjust="spacing" textLength="28" x="13" y="700.7363">date</text></g><!--class PropertyType--><g id="elem_PropertyType"><rect codeLine="55" fill="#F1F1F1" height="49.2813" id="PropertyType" rx="2.5" ry="2.5" style="stroke:#181818;stroke-width:0.5;" width="92" x="814.5" y="643.1406"/><text fill="#000000" font-family="sans-serif" font-size="14" lengthAdjust="spacing" textLength="86" x="817.5" y="660.8145">PropertyType</text><line style="stroke:#181818;stroke-width:0.5;" x1="815.5" x2="905.5" y1="668.7813" y2="668.7813"/><text fill="#000000" font-family="sans-serif" font-size="14" lengthAdjust="spacing" textLength="73" x="820.5" y="685.4551">designation</text></g><!--class Location--><g id="elem_Location"><rect codeLine="60" fill="#F1F1F1" height="125.25" id="Location" rx="2.5" ry="2.5" style="stroke:#181818;stroke-width:0.5;" width="64" x="489.5" y="185.6406"/><text fill="#000000" font-family="sans-serif" font-size="12" font-style="italic" lengthAdjust="spacing" textLength="62" x="490.5" y="201.5039">&#171;Interface&#187;</text><text fill="#000000" font-family="sans-serif" font-size="14" lengthAdjust="spacing" textLength="54" x="494.5" y="216.7207">Location</text><line style="stroke:#181818;stroke-width:0.5;" x1="490.5" x2="552.5" y1="224.6875" y2="224.6875"/><text fill="#000000" font-family="sans-serif" font-size="14" lengthAdjust="spacing" textLength="36" x="495.5" y="241.3613">street</text><text fill="#000000" font-family="sans-serif" font-size="14" lengthAdjust="spacing" textLength="51" x="495.5" y="257.002">zipCode</text><text fill="#000000" font-family="sans-serif" font-size="14" lengthAdjust="spacing" textLength="49" x="495.5" y="272.6426">stateUS</text><text fill="#000000" font-family="sans-serif" font-size="14" lengthAdjust="spacing" textLength="21" x="495.5" y="288.2832">city</text><text fill="#000000" font-family="sans-serif" font-size="14" lengthAdjust="spacing" textLength="41" x="495.5" y="303.9238">district</text></g><!--class Request--><g id="elem_Request"><rect codeLine="68" fill="#F1F1F1" height="62.6875" id="Request" rx="2.5" ry="2.5" style="stroke:#181818;stroke-width:0.5;" width="64" x="321.5" y="481.6406"/><text fill="#000000" font-family="sans-serif" font-size="12" font-style="italic" lengthAdjust="spacing" textLength="62" x="322.5" y="497.5039">&#171;Interface&#187;</text><text fill="#000000" font-family="sans-serif" font-size="14" lengthAdjust="spacing" textLength="53" x="327" y="512.7207">Request</text><line style="stroke:#181818;stroke-width:0.5;" x1="322.5" x2="384.5" y1="520.6875" y2="520.6875"/><text fill="#000000" font-family="sans-serif" font-size="14" lengthAdjust="spacing" textLength="28" x="327.5" y="537.3613">date</text></g><!--class RequestSale--><g id="elem_RequestSale"><rect codeLine="72" fill="#F1F1F1" height="49.2813" id="RequestSale" rx="2.5" ry="2.5" style="stroke:#181818;stroke-width:0.5;" width="87" x="461" y="643.1406"/><text fill="#000000" font-family="sans-serif" font-size="14" lengthAdjust="spacing" textLength="81" x="464" y="660.8145">RequestSale</text><line style="stroke:#181818;stroke-width:0.5;" x1="462" x2="547" y1="668.7813" y2="668.7813"/><text fill="#000000" font-family="sans-serif" font-size="14" lengthAdjust="spacing" textLength="58" x="467" y="685.4551">salePrice</text></g><!--class RequestLease--><g id="elem_RequestLease"><rect codeLine="76" fill="#F1F1F1" height="64.9219" id="RequestLease" rx="2.5" ry="2.5" style="stroke:#181818;stroke-width:0.5;" width="133" x="163" y="635.1406"/><text fill="#000000" font-family="sans-serif" font-size="14" lengthAdjust="spacing" textLength="92" x="183.5" y="652.8145">RequestLease</text><line style="stroke:#181818;stroke-width:0.5;" x1="164" x2="295" y1="660.7813" y2="660.7813"/><text fill="#000000" font-family="sans-serif" font-size="14" lengthAdjust="spacing" textLength="68" x="169" y="677.4551">rentalPrice</text><text fill="#000000" font-family="sans-serif" font-size="14" lengthAdjust="spacing" textLength="121" x="169" y="693.0957">durationOfContract</text></g><!--class RequestType--><g id="elem_RequestType"><rect codeLine="81" fill="#F1F1F1" height="49.2813" id="RequestType" rx="2.5" ry="2.5" style="stroke:#181818;stroke-width:0.5;" width="91" x="421" y="488.6406"/><text fill="#000000" font-family="sans-serif" font-size="14" lengthAdjust="spacing" textLength="85" x="424" y="506.3145">RequestType</text><line style="stroke:#181818;stroke-width:0.5;" x1="422" x2="511" y1="514.2813" y2="514.2813"/><text fill="#000000" font-family="sans-serif" font-size="14" lengthAdjust="spacing" textLength="73" x="427" y="530.9551">designation</text></g><!--class BusinessType--><g id="elem_BusinessType"><rect codeLine="85" fill="#F1F1F1" height="49.2813" id="BusinessType" rx="2.5" ry="2.5" style="stroke:#181818;stroke-width:0.5;" width="95" x="331" y="643.1406"/><text fill="#000000" font-family="sans-serif" font-size="14" lengthAdjust="spacing" textLength="89" x="334" y="660.8145">BusinessType</text><line style="stroke:#181818;stroke-width:0.5;" x1="332" x2="425" y1="668.7813" y2="668.7813"/><text fill="#000000" font-family="sans-serif" font-size="14" lengthAdjust="spacing" textLength="73" x="337" y="685.4551">designation</text></g><!--class Visit--><g id="elem_Visit"><rect codeLine="89" fill="#F1F1F1" height="64.9219" id="Visit" rx="2.5" ry="2.5" style="stroke:#181818;stroke-width:0.5;" width="50" x="139.5" y="340.6406"/><text fill="#000000" font-family="sans-serif" font-size="14" lengthAdjust="spacing" textLength="26" x="151.5" y="358.3145">Visit</text><line style="stroke:#181818;stroke-width:0.5;" x1="140.5" x2="188.5" y1="366.2813" y2="366.2813"/><text fill="#000000" font-family="sans-serif" font-size="14" lengthAdjust="spacing" textLength="28" x="145.5" y="382.9551">data</text><text fill="#000000" font-family="sans-serif" font-size="14" lengthAdjust="spacing" textLength="38" x="145.5" y="398.5957">report</text></g><!--class Employee--><g id="elem_Employee"><rect codeLine="94" fill="#F1F1F1" height="33.6406" id="Employee" rx="2.5" ry="2.5" style="stroke:#181818;stroke-width:0.5;" width="68" x="300.5" y="356.1406"/><text fill="#000000" font-family="sans-serif" font-size="14" lengthAdjust="spacing" textLength="62" x="303.5" y="373.8145">Employee</text><line style="stroke:#181818;stroke-width:0.5;" x1="301.5" x2="367.5" y1="381.7813" y2="381.7813"/></g><!--reverse link Person to Employee--><g id="link_Person_Employee"><path codeLine="97" d="M275.63,173.3706 C277.72,177.4706 279.7,181.5706 281.5,185.6406 C308.17,245.8006 325.01,322.8406 331.49,355.8906 " fill="none" id="Person-backto-Employee" style="stroke:#181818;stroke-width:1.0;stroke-dasharray:7.0,7.0;"/><polygon fill="none" points="269.39,176.5506,265.88,155.6506,281.66,169.8006,269.39,176.5506" style="stroke:#181818;stroke-width:1.0;"/></g><!--link Person to Visit--><g id="link_Person_Visit"><path codeLine="98" d="M215.47,155.9106 C202.39,211.4206 182.68,295.0206 172.01,340.2906 " fill="none" id="Person-Visit" style="stroke:#181818;stroke-width:1.0;"/><polygon fill="#000000" points="212.3529,253.269,217.2886,245.1394,211.5675,243.7909,212.3529,253.269" style="stroke:#000000;stroke-width:1.0;"/><text fill="#000000" font-family="sans-serif" font-size="13" lengthAdjust="spacing" textLength="50" x="222.5" y="252.9092">requests</text><text fill="#000000" font-family="sans-serif" font-size="13" lengthAdjust="spacing" textLength="7" x="206.4554" y="175.4316">1</text><text fill="#000000" font-family="sans-serif" font-size="13" lengthAdjust="spacing" textLength="5" x="168.0433" y="329.9022">*</text></g><!--link Person to Advertisement--><g id="link_Person_Advertisement"><path codeLine="99" d="M190.57,155.8406 C149.33,219.7806 86.36,329.9006 64.5,435.6406 C50.86,501.6206 56.41,580.4906 61.84,626.9106 " fill="none" id="Person-Advertisement" style="stroke:#181818;stroke-width:1.0;"/><polygon fill="#000000" points="68.182,448.7255,73.4013,440.7751,67.7313,439.2256,68.182,448.7255" style="stroke:#000000;stroke-width:1.0;"/><text fill="#000000" font-family="sans-serif" font-size="13" lengthAdjust="spacing" textLength="53" x="78.5" y="448.4092">searches</text><text fill="#000000" font-family="sans-serif" font-size="13" lengthAdjust="spacing" textLength="5" x="180.6426" y="175.3531">*</text><text fill="#000000" font-family="sans-serif" font-size="13" lengthAdjust="spacing" textLength="5" x="55.3865" y="616.2629">*</text></g><!--link Visit to Employee--><g id="link_Visit_Employee"><path codeLine="101" d="M189.58,373.1406 C218.86,373.1406 267.44,373.1406 300.19,373.1406 " fill="none" id="Visit-Employee" style="stroke:#181818;stroke-width:1.0;"/><polygon fill="#000000" points="207,362.4023,216.0451,365.3413,216.0451,359.4634,207,362.4023" style="stroke:#000000;stroke-width:1.0;"/><text fill="#000000" font-family="sans-serif" font-size="13" lengthAdjust="spacing" textLength="61" x="221" y="366.9092">carries out</text><text fill="#000000" font-family="sans-serif" font-size="13" lengthAdjust="spacing" textLength="5" x="197.3369" y="369.025">*</text><text fill="#000000" font-family="sans-serif" font-size="13" lengthAdjust="spacing" textLength="7" x="285.3917" y="369.5565">1</text></g><!--link Employee to Request--><g id="link_Employee_Request"><path codeLine="102" d="M336.72,390.2406 C339.79,412.5706 345.41,453.3606 349.29,481.5706 " fill="none" id="Employee-Request" style="stroke:#181818;stroke-width:1.0;"/><polygon fill="#000000" points="350.1817,448.8556,351.8599,439.4943,346.037,440.2958,350.1817,448.8556" style="stroke:#000000;stroke-width:1.0;"/><text fill="#000000" font-family="sans-serif" font-size="13" lengthAdjust="spacing" textLength="55" x="358.5" y="448.4092">publishes</text><text fill="#000000" font-family="sans-serif" font-size="13" lengthAdjust="spacing" textLength="7" x="329.328" y="409.525">1</text><text fill="#000000" font-family="sans-serif" font-size="13" lengthAdjust="spacing" textLength="5" x="342.8222" y="470.9934">*</text></g><!--link Person to Location--><g id="link_Person_Location"><path codeLine="104" d="M279.2,125.9906 C333.15,152.9606 417.96,195.3706 471.59,222.1906 " fill="none" id="Person-to-Location" style="stroke:#181818;stroke-width:1.0;stroke-dasharray:7.0,7.0;"/><polygon fill="none" points="474.74,215.9306,489.5,231.1406,468.48,228.4606,474.74,215.9306" style="stroke:#181818;stroke-width:1.0;"/></g><!--reverse link Location to Property--><g id="link_Location_Property"><path codeLine="105" d="M546.3,330.0306 C572.82,416.5206 613.93,550.6206 635.38,620.5906 " fill="none" id="Location-backto-Property" style="stroke:#181818;stroke-width:1.0;stroke-dasharray:7.0,7.0;"/><polygon fill="none" points="539.56,331.9206,540.39,310.7406,552.94,327.8106,539.56,331.9206" style="stroke:#181818;stroke-width:1.0;"/></g><!--reverse link Property to House--><g id="link_Property_House"><path codeLine="107" d="M591.04,729.6806 C576.93,744.4106 561.73,760.2806 547.23,775.4206 " fill="none" id="Property-backto-House" style="stroke:#181818;stroke-width:1.0;stroke-dasharray:7.0,7.0;"/><polygon fill="none" points="586.39,724.4106,605.28,714.8106,596.5,734.1006,586.39,724.4106" style="stroke:#181818;stroke-width:1.0;"/></g><!--reverse link Property to Land--><g id="link_Property_Land"><path codeLine="108" d="M701.91,730.5806 C713.19,744.9906 724.67,760.5506 734.5,775.6406 C746.12,793.4806 757.15,815.3706 764.09,829.9806 " fill="none" id="Property-backto-Land" style="stroke:#181818;stroke-width:1.0;stroke-dasharray:7.0,7.0;"/><polygon fill="none" points="696.38,734.8706,689.36,714.8806,707.31,726.1306,696.38,734.8706" style="stroke:#181818;stroke-width:1.0;"/></g><!--reverse link Property to Apartment--><g id="link_Property_Apartment"><path codeLine="109" d="M649.5,734.8906 C649.5,756.1806 649.5,779.3306 649.5,798.9606 " fill="none" id="Property-backto-Apartment" style="stroke:#181818;stroke-width:1.0;stroke-dasharray:7.0,7.0;"/><polygon fill="none" points="642.5,734.8106,649.5,714.8106,656.5,734.8106,642.5,734.8106" style="stroke:#181818;stroke-width:1.0;"/></g><!--link Property to PropertyType--><g id="link_Property_PropertyType"><path codeLine="110" d="M715.68,667.6406 C747.71,667.6406 785.38,667.6406 814.27,667.6406 " fill="none" id="Property-PropertyType" style="stroke:#181818;stroke-width:1.0;"/><polygon fill="#000000" points="743,656.9023,733.9549,653.9634,733.9549,659.8413,743,656.9023" style="stroke:#000000;stroke-width:1.0;"/><text fill="#000000" font-family="sans-serif" font-size="13" lengthAdjust="spacing" textLength="49" x="747" y="661.4092">contains</text><text fill="#000000" font-family="sans-serif" font-size="13" lengthAdjust="spacing" textLength="5" x="723.6211" y="664.6319">*</text><text fill="#000000" font-family="sans-serif" font-size="13" lengthAdjust="spacing" textLength="7" x="799.6551" y="664.3558">1</text></g><!--link Advertisement to Visit--><g id="link_Advertisement_Visit"><path codeLine="112" d="M81.22,626.8306 C85.21,615.1806 89.56,602.4106 93.5,590.6406 C115.49,525.0006 140.59,447.9306 154.28,405.7306 " fill="none" id="Advertisement-Visit" style="stroke:#181818;stroke-width:1.0;"/><polygon fill="#000000" points="136.0688,508.6548,130.4403,516.3211,136.0214,518.1653,136.0688,508.6548" style="stroke:#000000;stroke-width:1.0;"/><text fill="#000000" font-family="sans-serif" font-size="13" lengthAdjust="spacing" textLength="32" x="143.5" y="517.9092">hosts</text><text fill="#000000" font-family="sans-serif" font-size="13" lengthAdjust="spacing" textLength="7" x="75.9766" y="616.4644">1</text><text fill="#000000" font-family="sans-serif" font-size="13" lengthAdjust="spacing" textLength="5" x="146.7758" y="425.3527">*</text></g><!--link Request to BusinessType--><g id="link_Request_BusinessType"><path codeLine="114" d="M358.56,545.0006 C363.3,573.9006 370.27,616.4606 374.6,642.8206 " fill="none" id="Request-BusinessType" style="stroke:#181818;stroke-width:1.0;"/><polygon fill="#000000" points="371.3091,587.8365,372.7456,578.435,366.9453,579.3861,371.3091,587.8365" style="stroke:#000000;stroke-width:1.0;"/><text fill="#000000" font-family="sans-serif" font-size="13" lengthAdjust="spacing" textLength="49" x="379.5" y="587.4092">contains</text><text fill="#000000" font-family="sans-serif" font-size="13" lengthAdjust="spacing" textLength="5" x="354.032" y="564.0111">*</text><text fill="#000000" font-family="sans-serif" font-size="13" lengthAdjust="spacing" textLength="7" x="365.7038" y="632.4663">1</text></g><!--link Request to Property--><g id="link_Request_Property"><path codeLine="115" d="M385.7,534.6006 C391.55,538.0806 397.65,541.5606 403.5,544.6406 C432.37,559.8306 440.93,560.8606 470.5,574.6406 C513.02,594.4506 523.8,599.1406 565.5,620.6406 C571.26,623.6106 577.22,626.7406 583.18,629.9206 " fill="none" id="Request-Property" style="stroke:#181818;stroke-width:1.0;"/><polygon fill="#000000" points="513.0029,585.0758,506.1346,578.4972,503.5796,583.7907,513.0029,585.0758" style="stroke:#000000;stroke-width:1.0;"/><text fill="#000000" font-family="sans-serif" font-size="13" lengthAdjust="spacing" textLength="49" x="517.5" y="587.4092">contains</text><text fill="#000000" font-family="sans-serif" font-size="13" lengthAdjust="spacing" textLength="7" x="393.5094" y="535.6237">1</text><text fill="#000000" font-family="sans-serif" font-size="13" lengthAdjust="spacing" textLength="7" x="568.5434" y="622.8283">1</text></g><!--link Request to Advertisement--><g id="link_Request_Advertisement"><path codeLine="116" d="M321.31,527.3906 C293.84,538.9906 253.5,556.7606 219.5,574.6406 C188.79,590.7906 155.71,610.5206 128.29,627.5506 " fill="none" id="Request-Advertisement" style="stroke:#181818;stroke-width:1.0;"/><polygon fill="#000000" points="228.9381,580.5994,219.5559,582.1568,222.2632,587.3741,228.9381,580.5994" style="stroke:#000000;stroke-width:1.0;"/><text fill="#000000" font-family="sans-serif" font-size="13" lengthAdjust="spacing" textLength="49" x="233.5" y="587.4092">contains</text><text fill="#000000" font-family="sans-serif" font-size="13" lengthAdjust="spacing" textLength="7" x="306.5028" y="526.8365">1</text><text fill="#000000" font-family="sans-serif" font-size="13" lengthAdjust="spacing" textLength="7" x="132.2109" y="616.4342">1</text></g><!--link Request to RequestType--><g id="link_Request_RequestType"><path codeLine="117" d="M385.72,513.1406 C397.4,513.1406 409.07,513.1406 420.75,513.1406 " fill="none" id="Request-RequestType" style="stroke:#181818;stroke-width:1.0;"/><text fill="#000000" font-family="sans-serif" font-size="13" lengthAdjust="spacing" textLength="7" x="393.5338" y="509.4694">1</text><text fill="#000000" font-family="sans-serif" font-size="13" lengthAdjust="spacing" textLength="7" x="405.9008" y="509.8129">1</text></g><!--reverse link Request to RequestSale--><g id="link_Request_RequestSale"><path codeLine="118" d="M402.28,545.3006 C414.4,554.0806 426.93,564.1306 437.5,574.6406 C458.51,595.5406 477.9,623.5406 490.36,643.1306 " fill="none" id="Request-backto-RequestSale" style="stroke:#181818;stroke-width:1.0;stroke-dasharray:7.0,7.0;"/><polygon fill="none" points="398.14,550.9406,385.67,533.8106,406.1,539.4306,398.14,550.9406" style="stroke:#181818;stroke-width:1.0;"/></g><!--reverse link Request to RequestLease--><g id="link_Request_RequestLease"><path codeLine="119" d="M315.58,560.7706 C296.01,584.8506 272.64,613.5806 255.2,635.0406 " fill="none" id="Request-backto-RequestLease" style="stroke:#181818;stroke-width:1.0;stroke-dasharray:7.0,7.0;"/><polygon fill="none" points="310.36,556.1006,328.41,545.0006,321.22,564.9306,310.36,556.1006" style="stroke:#181818;stroke-width:1.0;"/></g><!--SRC=[hLJ1Rjim3BthAuHS1XH8q5vs2882QLfW1RgjMBRU5Oc9XSgYAydTqdR_Fago5JlDiCjyif-U7yb7KlvHsqOuKVCQBShAOGqyk1QOBoUDa8zY1-kmDy0To23ipWm9lX8AVsgxurjXF33smS0sy83SwLqLkDBnBusM3NwIHdY_3C7fJHlWLg9TwnVWvunLMW6NsaaAajvh21KgJxhd5n_vb2ztO0DbuXkqAeOHV8Fu61DmyDI23toBZj1dxNMOCHPqeDIliHRQyi-em32MulDxS1xjA-Fq01sRfL8ax1FG4AD15z97q3Q35LhuqjORSEdRYXhOxwBdi04NzdonkBK1t5P8kBnyxVyCc9M50z5J4w2q9ribh7JOho3-UT3yXAq7dZLi2dm5oY7MVWY9K1rZzy95KtB4PofER0pSFBMwgIb4WZV2G_amkCqllhKtlnhqhHkKjgI-XSZz_vcK67V2gjT3HFLC1kcSOMU0nBhMtjCmFGX3Oph6lk-R32aHJdGb7cSP1Lxlh4X3IRG-FCe4dUgU3muWs_EYcnKDKGTJf1_hd8SUTDDfEIZiMpUN9uJ7gNR4jJ1TffxUxadiFUSEg7cPvCWWOJ8jQROk5V9rkq8Rd3YHIlI2dpGZqwvQhorjmbyzoxI7k6Ab4D5baxQcS6xgnk0UI8QWl75yyJQRbOCUd5nC-7JA9sUJh3llzzdpoy8vAvpHVCov1-5a1P7BUkKi6Q-ZaIoNmZbDL6m3qSVipEniclEctHZjEzt3XBpDekgikq561xCoS5HkkH0YdbRv28ipVmILLJlWgUnqdKvJbiEHdjC6KF-rJIcEj-QzfHLcFra_axsZn1msVQHQk1U5ssVmBzwuIuMx67C7fGq6j72IBOFTE7cG5eBz0G00]--></g></svg>