<?xml version="1.0" encoding="UTF-8" standalone="no"?><svg xmlns="http://www.w3.org/2000/svg" xmlns:xlink="http://www.w3.org/1999/xlink" contentStyleType="text/css" height="1135px" preserveAspectRatio="none" style="width:943px;height:1135px;background:#FFFFFF;" version="1.1" viewBox="0 0 943 1135" width="943px" zoomAndPan="magnify"><defs/><g><rect fill="none" height="26.0986" id="_title" style="stroke:none;stroke-width:1.0;" width="355" x="295.75" y="10"/><text fill="#000000" font-family="sans-serif" font-size="14" font-weight="bold" lengthAdjust="spacing" textLength="345" x="300.75" y="28.1318">Sequence Diagram Partial - List Property Request</text><rect fill="#FFFFFF" height="916.3062" style="stroke:#181818;stroke-width:1.0;" width="10" x="46.5" y="128.1973"/><rect fill="#FFFFFF" height="254.3374" style="stroke:#181818;stroke-width:1.0;" width="10" x="397.5" y="149.146"/><rect fill="#FFFFFF" height="28.9487" style="stroke:#181818;stroke-width:1.0;" width="10" x="397.5" y="432.4321"/><rect fill="#FFFFFF" height="101.645" style="stroke:#181818;stroke-width:1.0;" width="10" x="397.5" y="514.2783"/><rect fill="#FFFFFF" height="28.9487" style="stroke:#181818;stroke-width:1.0;" width="10" x="397.5" y="659.521"/><rect fill="#FFFFFF" height="145.5425" style="stroke:#181818;stroke-width:1.0;" width="10" x="397.5" y="717.4185"/><rect fill="#FFFFFF" height="153.5938" style="stroke:#181818;stroke-width:1.0;" width="10" x="397.5" y="891.9097"/><rect fill="none" height="788.5112" style="stroke:#000000;stroke-width:1.5;" width="927.5" x="10" y="248.9922"/><rect fill="none" height="554.1226" style="stroke:#000000;stroke-width:1.5;" width="907.5" x="20" y="476.3809"/><line style="stroke:#181818;stroke-width:0.5;stroke-dasharray:5.0,5.0;" x1="51" x2="51" y1="118.1973" y2="1054.5034"/><line style="stroke:#181818;stroke-width:0.5;stroke-dasharray:5.0,5.0;" x1="402.5" x2="402.5" y1="118.1973" y2="1054.5034"/><line style="stroke:#181818;stroke-width:0.5;stroke-dasharray:5.0,5.0;" x1="809.5" x2="809.5" y1="187.6953" y2="1054.5034"/><text fill="#000000" font-family="sans-serif" font-size="14" lengthAdjust="spacing" textLength="37" x="30" y="115.2305">Agent</text><ellipse cx="51.5" cy="50.5986" fill="#E3E3E3" rx="8" ry="8" style="stroke:#181818;stroke-width:0.5;"/><path d="M51.5,58.5986 L51.5,85.5986 M38.5,66.5986 L64.5,66.5986 M51.5,85.5986 L38.5,100.5986 M51.5,85.5986 L64.5,100.5986 " fill="none" style="stroke:#181818;stroke-width:0.5;"/><text fill="#000000" font-family="sans-serif" font-size="14" lengthAdjust="spacing" textLength="37" x="30" y="1066.6353">Agent</text><ellipse cx="51.5" cy="1078.1021" fill="#E3E3E3" rx="8" ry="8" style="stroke:#181818;stroke-width:0.5;"/><path d="M51.5,1086.1021 L51.5,1113.1021 M38.5,1094.1021 L64.5,1094.1021 M51.5,1113.1021 L38.5,1128.1021 M51.5,1113.1021 L64.5,1128.1021 " fill="none" style="stroke:#181818;stroke-width:0.5;"/><rect fill="#E3E3E3" height="30.0986" rx="2.5" ry="2.5" style="stroke:#181818;stroke-width:0.5;" width="166" x="319.5" y="87.0986"/><text fill="#000000" font-family="sans-serif" font-size="14" lengthAdjust="spacing" textLength="152" x="326.5" y="107.2305">:ListPropertyRequestsUI</text><rect fill="#E3E3E3" height="30.0986" rx="2.5" ry="2.5" style="stroke:#181818;stroke-width:0.5;" width="166" x="319.5" y="1053.5034"/><text fill="#000000" font-family="sans-serif" font-size="14" lengthAdjust="spacing" textLength="152" x="326.5" y="1073.6353">:ListPropertyRequestsUI</text><rect fill="#E3E3E3" height="30.0986" rx="2.5" ry="2.5" style="stroke:#181818;stroke-width:0.5;" width="216" x="701.5" y="1053.5034"/><text fill="#000000" font-family="sans-serif" font-size="14" lengthAdjust="spacing" textLength="202" x="708.5" y="1073.6353">:ListPropertyRequestsController</text><rect fill="#FFFFFF" height="916.3062" style="stroke:#181818;stroke-width:1.0;" width="10" x="46.5" y="128.1973"/><rect fill="#FFFFFF" height="254.3374" style="stroke:#181818;stroke-width:1.0;" width="10" x="397.5" y="149.146"/><rect fill="#FFFFFF" height="28.9487" style="stroke:#181818;stroke-width:1.0;" width="10" x="397.5" y="432.4321"/><rect fill="#FFFFFF" height="101.645" style="stroke:#181818;stroke-width:1.0;" width="10" x="397.5" y="514.2783"/><rect fill="#FFFFFF" height="28.9487" style="stroke:#181818;stroke-width:1.0;" width="10" x="397.5" y="659.521"/><rect fill="#FFFFFF" height="145.5425" style="stroke:#181818;stroke-width:1.0;" width="10" x="397.5" y="717.4185"/><rect fill="#FFFFFF" height="153.5938" style="stroke:#181818;stroke-width:1.0;" width="10" x="397.5" y="891.9097"/><polygon fill="#181818" points="385.5,145.146,395.5,149.146,385.5,153.146,389.5,149.146" style="stroke:#181818;stroke-width:1.0;"/><line style="stroke:#181818;stroke-width:1.0;" x1="56.5" x2="391.5" y1="149.146" y2="149.146"/><text fill="#000000" font-family="sans-serif" font-size="13" font-weight="bold" lengthAdjust="spacing" textLength="7" x="63.5" y="144.3911">1</text><text fill="#000000" font-family="sans-serif" font-size="13" lengthAdjust="spacing" textLength="176" x="74.5" y="144.3911">asks to view property requests</text><polygon fill="#181818" points="689.5,174.0947,699.5,178.0947,689.5,182.0947,693.5,178.0947" style="stroke:#181818;stroke-width:1.0;"/><line style="stroke:#181818;stroke-width:1.0;" x1="407.5" x2="695.5" y1="178.0947" y2="178.0947"/><text fill="#000000" font-family="sans-serif" font-size="13" font-weight="bold" lengthAdjust="spacing" textLength="7" x="414.5" y="173.3398">2</text><text fill="#000000" font-family="sans-serif" font-size="13" lengthAdjust="spacing" textLength="43" x="425.5" y="173.3398">creates</text><rect fill="#E3E3E3" height="30.0986" rx="2.5" ry="2.5" style="stroke:#181818;stroke-width:0.5;" width="216" x="701.5" y="157.146"/><text fill="#000000" font-family="sans-serif" font-size="14" lengthAdjust="spacing" textLength="202" x="708.5" y="177.2778">:ListPropertyRequestsController</text><rect fill="none" height="38.7476" style="stroke:#000000;stroke-width:1.5;" width="222" x="698.5" y="198.2446"/><path d="M698.5,198.2446 L760.5,198.2446 L760.5,204.2446 L750.5,214.2446 L698.5,214.2446 L698.5,198.2446 " fill="#EEEEEE" style="stroke:#000000;stroke-width:2.0;"/><text fill="#000000" font-family="sans-serif" font-size="13" font-weight="bold" lengthAdjust="spacing" textLength="17" x="711.5" y="212.4385">ref</text><text fill="#000000" font-family="sans-serif" font-size="12" lengthAdjust="spacing" textLength="93" x="763" y="229.5005">Get Repositories</text><path d="M10,248.9922 L83,248.9922 L83,255.9409 L73,265.9409 L10,265.9409 L10,248.9922 " fill="#EEEEEE" style="stroke:#000000;stroke-width:1.5;"/><rect fill="none" height="788.5112" style="stroke:#000000;stroke-width:1.5;" width="927.5" x="10" y="248.9922"/><text fill="#000000" font-family="sans-serif" font-size="13" font-weight="bold" lengthAdjust="spacing" textLength="28" x="25" y="262.186">loop</text><text fill="#000000" font-family="sans-serif" font-size="11" font-weight="bold" lengthAdjust="spacing" textLength="90" x="98" y="261.3101">[while intended]</text><polygon fill="#181818" points="797.5,282.8896,807.5,286.8896,797.5,290.8896,801.5,286.8896" style="stroke:#181818;stroke-width:1.0;"/><line style="stroke:#181818;stroke-width:1.0;" x1="407.5" x2="803.5" y1="286.8896" y2="286.8896"/><text fill="#000000" font-family="sans-serif" font-size="13" font-weight="bold" lengthAdjust="spacing" textLength="7" x="414.5" y="282.1348">3</text><text fill="#000000" font-family="sans-serif" font-size="13" lengthAdjust="spacing" textLength="95" x="425.5" y="282.1348">getRequestList()</text><rect fill="none" height="38.7476" style="stroke:#000000;stroke-width:1.5;" width="222" x="698.5" y="294.8896"/><path d="M698.5,294.8896 L760.5,294.8896 L760.5,300.8896 L750.5,310.8896 L698.5,310.8896 L698.5,294.8896 " fill="#EEEEEE" style="stroke:#000000;stroke-width:2.0;"/><text fill="#000000" font-family="sans-serif" font-size="13" font-weight="bold" lengthAdjust="spacing" textLength="17" x="711.5" y="309.0835">ref</text><text fill="#000000" font-family="sans-serif" font-size="12" lengthAdjust="spacing" textLength="92" x="763.5" y="326.1455">Get Request List</text><polygon fill="#181818" points="418.5,355.5859,408.5,359.5859,418.5,363.5859,414.5,359.5859" style="stroke:#181818;stroke-width:1.0;"/><line style="stroke:#181818;stroke-width:1.0;stroke-dasharray:2.0,2.0;" x1="412.5" x2="808.5" y1="359.5859" y2="359.5859"/><text fill="#000000" font-family="sans-serif" font-size="13" font-weight="bold" lengthAdjust="spacing" textLength="7" x="424.5" y="354.8311">4</text><text fill="#000000" font-family="sans-serif" font-size="13" lengthAdjust="spacing" textLength="71" x="435.5" y="354.8311">requestsList</text><polygon fill="#181818" points="67.5,399.4834,57.5,403.4834,67.5,407.4834,63.5,403.4834" style="stroke:#181818;stroke-width:1.0;"/><line style="stroke:#181818;stroke-width:1.0;stroke-dasharray:2.0,2.0;" x1="61.5" x2="401.5" y1="403.4834" y2="403.4834"/><text fill="#000000" font-family="sans-serif" font-size="13" font-weight="bold" lengthAdjust="spacing" textLength="7" x="73.5" y="391.2542">5</text><text fill="#000000" font-family="sans-serif" font-size="13" lengthAdjust="spacing" textLength="306" x="84.5" y="383.7798">shows list of property requests assigned to the agent</text><text fill="#000000" font-family="sans-serif" font-size="13" lengthAdjust="spacing" textLength="132" x="84.5" y="398.7285">and asks to select one</text><polygon fill="#181818" points="385.5,428.4321,395.5,432.4321,385.5,436.4321,389.5,432.4321" style="stroke:#181818;stroke-width:1.0;"/><line style="stroke:#181818;stroke-width:1.0;" x1="56.5" x2="391.5" y1="432.4321" y2="432.4321"/><text fill="#000000" font-family="sans-serif" font-size="13" font-weight="bold" lengthAdjust="spacing" textLength="7" x="63.5" y="427.6772">6</text><text fill="#000000" font-family="sans-serif" font-size="13" lengthAdjust="spacing" textLength="114" x="74.5" y="427.6772">selects one request</text><polygon fill="#181818" points="67.5,457.3809,57.5,461.3809,67.5,465.3809,63.5,461.3809" style="stroke:#181818;stroke-width:1.0;"/><line style="stroke:#181818;stroke-width:1.0;stroke-dasharray:2.0,2.0;" x1="61.5" x2="401.5" y1="461.3809" y2="461.3809"/><text fill="#000000" font-family="sans-serif" font-size="13" font-weight="bold" lengthAdjust="spacing" textLength="7" x="73.5" y="456.626">7</text><text fill="#000000" font-family="sans-serif" font-size="13" lengthAdjust="spacing" textLength="179" x="84.5" y="456.626">asks wether to accept or reject</text><path d="M20,476.3809 L81,476.3809 L81,483.3296 L71,493.3296 L20,493.3296 L20,476.3809 " fill="#EEEEEE" style="stroke:#000000;stroke-width:1.5;"/><rect fill="none" height="554.1226" style="stroke:#000000;stroke-width:1.5;" width="907.5" x="20" y="476.3809"/><text fill="#000000" font-family="sans-serif" font-size="13" font-weight="bold" lengthAdjust="spacing" textLength="16" x="35" y="489.5747">alt</text><text fill="#000000" font-family="sans-serif" font-size="11" font-weight="bold" lengthAdjust="spacing" textLength="94" x="96" y="488.6987">[rejects request]</text><polygon fill="#181818" points="385.5,510.2783,395.5,514.2783,385.5,518.2783,389.5,514.2783" style="stroke:#181818;stroke-width:1.0;"/><line style="stroke:#181818;stroke-width:1.0;" x1="56.5" x2="391.5" y1="514.2783" y2="514.2783"/><text fill="#000000" font-family="sans-serif" font-size="13" font-weight="bold" lengthAdjust="spacing" textLength="7" x="63.5" y="509.5234">8</text><text fill="#000000" font-family="sans-serif" font-size="13" lengthAdjust="spacing" textLength="86" x="74.5" y="509.5234">rejects request</text><polygon fill="#181818" points="797.5,539.2271,807.5,543.2271,797.5,547.2271,801.5,543.2271" style="stroke:#181818;stroke-width:1.0;"/><line style="stroke:#181818;stroke-width:1.0;" x1="407.5" x2="803.5" y1="543.2271" y2="543.2271"/><text fill="#000000" font-family="sans-serif" font-size="13" font-weight="bold" lengthAdjust="spacing" textLength="7" x="414.5" y="538.4722">9</text><text fill="#000000" font-family="sans-serif" font-size="13" lengthAdjust="spacing" textLength="140" x="425.5" y="538.4722">removeRequest(request)</text><rect fill="none" height="38.7476" style="stroke:#000000;stroke-width:1.5;" width="222" x="698.5" y="551.2271"/><path d="M698.5,551.2271 L760.5,551.2271 L760.5,557.2271 L750.5,567.2271 L698.5,567.2271 L698.5,551.2271 " fill="#EEEEEE" style="stroke:#000000;stroke-width:2.0;"/><text fill="#000000" font-family="sans-serif" font-size="13" font-weight="bold" lengthAdjust="spacing" textLength="17" x="711.5" y="565.4209">ref</text><text fill="#000000" font-family="sans-serif" font-size="12" lengthAdjust="spacing" textLength="103" x="758" y="582.4829">Removes Request</text><polygon fill="#181818" points="67.5,611.9233,57.5,615.9233,67.5,619.9233,63.5,615.9233" style="stroke:#181818;stroke-width:1.0;"/><line style="stroke:#181818;stroke-width:1.0;stroke-dasharray:2.0,2.0;" x1="61.5" x2="401.5" y1="615.9233" y2="615.9233"/><text fill="#000000" font-family="sans-serif" font-size="13" font-weight="bold" lengthAdjust="spacing" textLength="14" x="73.5" y="611.1685">10</text><text fill="#000000" font-family="sans-serif" font-size="13" lengthAdjust="spacing" textLength="158" x="91.5" y="611.1685">displays operation success</text><line style="stroke:#000000;stroke-width:1.0;stroke-dasharray:2.0,2.0;" x1="20" x2="927.5" y1="624.9233" y2="624.9233"/><text fill="#000000" font-family="sans-serif" font-size="11" font-weight="bold" lengthAdjust="spacing" textLength="98" x="25" y="635.2412">[accepts request]</text><polygon fill="#181818" points="385.5,655.521,395.5,659.521,385.5,663.521,389.5,659.521" style="stroke:#181818;stroke-width:1.0;"/><line style="stroke:#181818;stroke-width:1.0;" x1="56.5" x2="391.5" y1="659.521" y2="659.521"/><text fill="#000000" font-family="sans-serif" font-size="13" font-weight="bold" lengthAdjust="spacing" textLength="14" x="63.5" y="654.7661">11</text><text fill="#000000" font-family="sans-serif" font-size="13" lengthAdjust="spacing" textLength="93" x="81.5" y="654.7661">accepts request</text><polygon fill="#181818" points="67.5,684.4697,57.5,688.4697,67.5,692.4697,63.5,688.4697" style="stroke:#181818;stroke-width:1.0;"/><line style="stroke:#181818;stroke-width:1.0;stroke-dasharray:2.0,2.0;" x1="61.5" x2="401.5" y1="688.4697" y2="688.4697"/><text fill="#000000" font-family="sans-serif" font-size="13" font-weight="bold" lengthAdjust="spacing" textLength="14" x="73.5" y="683.7148">12</text><text fill="#000000" font-family="sans-serif" font-size="13" lengthAdjust="spacing" textLength="146" x="91.5" y="683.7148">requests comission value</text><polygon fill="#181818" points="385.5,713.4185,395.5,717.4185,385.5,721.4185,389.5,717.4185" style="stroke:#181818;stroke-width:1.0;"/><line style="stroke:#181818;stroke-width:1.0;" x1="56.5" x2="391.5" y1="717.4185" y2="717.4185"/><text fill="#000000" font-family="sans-serif" font-size="13" font-weight="bold" lengthAdjust="spacing" textLength="14" x="63.5" y="712.6636">13</text><text fill="#000000" font-family="sans-serif" font-size="13" lengthAdjust="spacing" textLength="122" x="81.5" y="712.6636">types requested data</text><polygon fill="#181818" points="797.5,742.3672,807.5,746.3672,797.5,750.3672,801.5,746.3672" style="stroke:#181818;stroke-width:1.0;"/><line style="stroke:#181818;stroke-width:1.0;" x1="407.5" x2="803.5" y1="746.3672" y2="746.3672"/><text fill="#000000" font-family="sans-serif" font-size="13" font-weight="bold" lengthAdjust="spacing" textLength="14" x="414.5" y="741.6123">14</text><text fill="#000000" font-family="sans-serif" font-size="13" lengthAdjust="spacing" textLength="115" x="432.5" y="741.6123">getComissionType()</text><rect fill="none" height="38.7476" style="stroke:#000000;stroke-width:1.5;" width="222" x="698.5" y="754.3672"/><path d="M698.5,754.3672 L760.5,754.3672 L760.5,760.3672 L750.5,770.3672 L698.5,770.3672 L698.5,754.3672 " fill="#EEEEEE" style="stroke:#000000;stroke-width:2.0;"/><text fill="#000000" font-family="sans-serif" font-size="13" font-weight="bold" lengthAdjust="spacing" textLength="17" x="711.5" y="768.561">ref</text><text fill="#000000" font-family="sans-serif" font-size="12" lengthAdjust="spacing" textLength="130" x="744.5" y="785.623">Get Commission Types</text><polygon fill="#181818" points="418.5,815.0635,408.5,819.0635,418.5,823.0635,414.5,819.0635" style="stroke:#181818;stroke-width:1.0;"/><line style="stroke:#181818;stroke-width:1.0;stroke-dasharray:2.0,2.0;" x1="412.5" x2="808.5" y1="819.0635" y2="819.0635"/><text fill="#000000" font-family="sans-serif" font-size="13" font-weight="bold" lengthAdjust="spacing" textLength="14" x="424.5" y="814.3086">15</text><text fill="#000000" font-family="sans-serif" font-size="13" lengthAdjust="spacing" textLength="119" x="442.5" y="814.3086">commissionTypeList</text><polygon fill="#181818" points="67.5,858.9609,57.5,862.9609,67.5,866.9609,63.5,862.9609" style="stroke:#181818;stroke-width:1.0;"/><line style="stroke:#181818;stroke-width:1.0;stroke-dasharray:2.0,2.0;" x1="61.5" x2="401.5" y1="862.9609" y2="862.9609"/><text fill="#000000" font-family="sans-serif" font-size="13" font-weight="bold" lengthAdjust="spacing" textLength="14" x="73.5" y="850.7317">16</text><text fill="#000000" font-family="sans-serif" font-size="13" lengthAdjust="spacing" textLength="161" x="91.5" y="843.2573">shows commission type list</text><text fill="#000000" font-family="sans-serif" font-size="13" lengthAdjust="spacing" textLength="132" x="91.5" y="858.2061">and asks to select one</text><polygon fill="#181818" points="385.5,887.9097,395.5,891.9097,385.5,895.9097,389.5,891.9097" style="stroke:#181818;stroke-width:1.0;"/><line style="stroke:#181818;stroke-width:1.0;" x1="56.5" x2="391.5" y1="891.9097" y2="891.9097"/><text fill="#000000" font-family="sans-serif" font-size="13" font-weight="bold" lengthAdjust="spacing" textLength="14" x="63.5" y="887.1548">17</text><text fill="#000000" font-family="sans-serif" font-size="13" lengthAdjust="spacing" textLength="145" x="81.5" y="887.1548">selects commission type</text><polygon fill="#181818" points="797.5,916.8584,807.5,920.8584,797.5,924.8584,801.5,920.8584" style="stroke:#181818;stroke-width:1.0;"/><line style="stroke:#181818;stroke-width:1.0;" x1="407.5" x2="803.5" y1="920.8584" y2="920.8584"/><text fill="#000000" font-family="sans-serif" font-size="13" font-weight="bold" lengthAdjust="spacing" textLength="14" x="414.5" y="916.1035">18</text><text fill="#000000" font-family="sans-serif" font-size="13" lengthAdjust="spacing" textLength="360" x="432.5" y="916.1035">approveRequest(request, commissionValue, commissionType)</text><rect fill="none" height="38.7476" style="stroke:#000000;stroke-width:1.5;" width="222" x="698.5" y="928.8584"/><path d="M698.5,928.8584 L760.5,928.8584 L760.5,934.8584 L750.5,944.8584 L698.5,944.8584 L698.5,928.8584 " fill="#EEEEEE" style="stroke:#000000;stroke-width:2.0;"/><text fill="#000000" font-family="sans-serif" font-size="13" font-weight="bold" lengthAdjust="spacing" textLength="17" x="711.5" y="943.0522">ref</text><text fill="#000000" font-family="sans-serif" font-size="12" lengthAdjust="spacing" textLength="118" x="750.5" y="960.1143">Create Advertisement</text><polygon fill="#181818" points="418.5,989.5547,408.5,993.5547,418.5,997.5547,414.5,993.5547" style="stroke:#181818;stroke-width:1.0;"/><line style="stroke:#181818;stroke-width:1.0;stroke-dasharray:2.0,2.0;" x1="412.5" x2="808.5" y1="993.5547" y2="993.5547"/><text fill="#000000" font-family="sans-serif" font-size="13" font-weight="bold" lengthAdjust="spacing" textLength="14" x="424.5" y="988.7998">19</text><text fill="#000000" font-family="sans-serif" font-size="13" lengthAdjust="spacing" textLength="80" x="442.5" y="988.7998">advertisement</text><polygon fill="#181818" points="67.5,1018.5034,57.5,1022.5034,67.5,1026.5034,63.5,1022.5034" style="stroke:#181818;stroke-width:1.0;"/><line style="stroke:#181818;stroke-width:1.0;stroke-dasharray:2.0,2.0;" x1="61.5" x2="396.5" y1="1022.5034" y2="1022.5034"/><text fill="#000000" font-family="sans-serif" font-size="13" font-weight="bold" lengthAdjust="spacing" textLength="14" x="73.5" y="1017.7485">20</text><text fill="#000000" font-family="sans-serif" font-size="13" lengthAdjust="spacing" textLength="179" x="91.5" y="1017.7485">displays created advertisement</text><!--MD5=[9596c51287876ac8f399adccfc0a59b4]
@startuml Sequence Diagram - List Property Request
skinparam monochrome true
skinparam packageStyle rectangle
skinparam shadowing false

title Sequence Diagram Partial - List Property Request
autonumber

'hide footbox
actor "Agent" as AG
participant ":ListPropertyRequestsUI" as UI
participant ":ListPropertyRequestsController" as CTRL

activate AG

    AG -> UI : asks to view property requests
    activate UI
        UI -> CTRL** : creates
        
		ref over CTRL
			Get Repositories
		end ref

    loop while intended

        UI -> CTRL : getRequestList()

			ref over CTRL
				Get Request List
			end ref

			CTRL - -> UI : requestsList

		UI - -> AG : shows list of property requests assigned to the agent\nand asks to select one
    deactivate UI

	AG -> UI : selects one request
	activate UI
		UI - -> AG : asks wether to accept or reject
	deactivate UI

	alt rejects request
		AG -> UI : rejects request
		activate UI
			UI -> CTRL : removeRequest(request)

				ref over CTRL
					Removes Request
				end ref

			UI - -> AG : displays operation success
		deactivate UI


	else accepts request
		AG -> UI : accepts request
		activate UI
			UI - -> AG : requests comission value
		deactivate UI
	
		AG -> UI : types requested data
		activate UI
			UI -> CTRL : getComissionType()

				ref over CTRL
					Get Commission Types
				end ref

				CTRL - -> UI : commissionTypeList

			UI - -> AG : shows commission type list\nand asks to select one
		deactivate UI

		AG -> UI : selects commission type
		activate UI
			UI -> CTRL : approveRequest(request, commissionValue, commissionType)

				ref over CTRL
					Create Advertisement
				end ref

				CTRL - -> UI : advertisement

			UI - -> AG : displays created advertisement
		end
	end


deactivate AG

@enduml

@startuml Sequence Diagram - List Property Request
skinparam monochrome true
skinparam packageStyle rectangle
skinparam shadowing false

title Sequence Diagram Partial - List Property Request
autonumber

actor "Agent" as AG
participant ":ListPropertyRequestsUI" as UI
participant ":ListPropertyRequestsController" as CTRL

activate AG

    AG -> UI : asks to view property requests
    activate UI
        UI -> CTRL** : creates
        
		ref over CTRL
			Get Repositories
		end ref

    loop while intended

        UI -> CTRL : getRequestList()

			ref over CTRL
				Get Request List
			end ref

			CTRL - -> UI : requestsList

		UI - -> AG : shows list of property requests assigned to the agent\nand asks to select one
    deactivate UI

	AG -> UI : selects one request
	activate UI
		UI - -> AG : asks wether to accept or reject
	deactivate UI

	alt rejects request
		AG -> UI : rejects request
		activate UI
			UI -> CTRL : removeRequest(request)

				ref over CTRL
					Removes Request
				end ref

			UI - -> AG : displays operation success
		deactivate UI


	else accepts request
		AG -> UI : accepts request
		activate UI
			UI - -> AG : requests comission value
		deactivate UI
	
		AG -> UI : types requested data
		activate UI
			UI -> CTRL : getComissionType()

				ref over CTRL
					Get Commission Types
				end ref

				CTRL - -> UI : commissionTypeList

			UI - -> AG : shows commission type list\nand asks to select one
		deactivate UI

		AG -> UI : selects commission type
		activate UI
			UI -> CTRL : approveRequest(request, commissionValue, commissionType)

				ref over CTRL
					Create Advertisement
				end ref

				CTRL - -> UI : advertisement

			UI - -> AG : displays created advertisement
		end
	end


deactivate AG

@enduml

PlantUML version 1.2022.7(Mon Aug 22 18:01:30 WEST 2022)
(GPL source distribution)
Java Runtime: OpenJDK Runtime Environment
JVM: OpenJDK 64-Bit Server VM
Default Encoding: UTF-8
Language: en
Country: US
--></g></svg>