<?xml version="1.0" encoding="UTF-8" standalone="no"?><svg xmlns="http://www.w3.org/2000/svg" xmlns:xlink="http://www.w3.org/1999/xlink" contentStyleType="text/css" height="1262px" preserveAspectRatio="none" style="width:472px;height:1262px;background:#FFFFFF;" version="1.1" viewBox="0 0 472 1262" width="472px" zoomAndPan="magnify"><defs/><g><rect fill="none" height="27.6094" id="_title" style="stroke:none;stroke-width:1.0;" width="440" x="17.75" y="10"/><text fill="#000000" font-family="sans-serif" font-size="14" font-weight="bold" lengthAdjust="spacing" textLength="430" x="22.75" y="29.5332">System Sequence Diagram (SSD) - Create sale announcement</text><rect fill="#FFFFFF" height="1039.8438" style="stroke:#181818;stroke-width:1.0;" width="10" x="56.5" y="131.2188"/><rect fill="#FFFFFF" height="46.7031" style="stroke:#181818;stroke-width:1.0;" width="10" x="399.5" y="169.9219"/><rect fill="#FFFFFF" height="63.0547" style="stroke:#181818;stroke-width:1.0;" width="10" x="399.5" y="246.9766"/><rect fill="#FFFFFF" height="30.3516" style="stroke:#181818;stroke-width:1.0;" width="10" x="399.5" y="340.3828"/><rect fill="#FFFFFF" height="116.8906" style="stroke:#181818;stroke-width:1.0;" width="10" x="399.5" y="401.0859"/><rect fill="#FFFFFF" height="46.7031" style="stroke:#181818;stroke-width:1.0;" width="10" x="399.5" y="540.3281"/><rect fill="#FFFFFF" height="72.0547" style="stroke:#181818;stroke-width:1.0;" width="10" x="399.5" y="617.3828"/><rect fill="#FFFFFF" height="72.0547" style="stroke:#181818;stroke-width:1.0;" width="10" x="399.5" y="719.7891"/><rect fill="#FFFFFF" height="104.4063" style="stroke:#181818;stroke-width:1.0;" width="10" x="399.5" y="822.1953"/><rect fill="#FFFFFF" height="76.7031" style="stroke:#181818;stroke-width:1.0;" width="10" x="399.5" y="956.9531"/><rect fill="#FFFFFF" height="15" style="stroke:#181818;stroke-width:1.0;" width="10" x="399.5" y="1064.0078"/><rect fill="#FFFFFF" height="30.3516" style="stroke:#181818;stroke-width:1.0;" width="10" x="399.5" y="1131.7109"/><rect fill="none" height="94.8906" style="stroke:#000000;stroke-width:1.5;" width="416.5" x="30" y="416.0859"/><rect fill="none" height="346.5703" style="stroke:#000000;stroke-width:1.5;" width="456.5" x="10" y="632.3828"/><rect fill="none" height="95.4063" style="stroke:#000000;stroke-width:1.5;" width="416.5" x="30" y="734.7891"/><rect fill="none" height="127.7578" style="stroke:#000000;stroke-width:1.5;" width="436.5" x="20" y="844.1953"/><rect fill="none" height="95.4063" style="stroke:#000000;stroke-width:1.5;" width="416.5" x="30" y="869.5469"/><rect fill="none" height="79.0547" style="stroke:#000000;stroke-width:1.5;" width="416.5" x="30" y="992.9531"/><line style="stroke:#181818;stroke-width:0.5;stroke-dasharray:5.0,5.0;" x1="61" x2="61" y1="121.2188" y2="1180.0625"/><line style="stroke:#181818;stroke-width:0.5;stroke-dasharray:5.0,5.0;" x1="404.5" x2="404.5" y1="121.2188" y2="1180.0625"/><text fill="#000000" font-family="sans-serif" font-size="14" lengthAdjust="spacing" textLength="37" x="40" y="118.1426">Agent</text><ellipse cx="61.5" cy="52.1094" fill="#E3E3E3" rx="8" ry="8" style="stroke:#181818;stroke-width:0.5;"/><path d="M61.5,60.1094 L61.5,87.1094 M48.5,68.1094 L74.5,68.1094 M61.5,87.1094 L48.5,102.1094 M61.5,87.1094 L74.5,102.1094 " fill="none" style="stroke:#181818;stroke-width:0.5;"/><text fill="#000000" font-family="sans-serif" font-size="14" lengthAdjust="spacing" textLength="37" x="40" y="1193.5957">Agent</text><ellipse cx="61.5" cy="1205.1719" fill="#E3E3E3" rx="8" ry="8" style="stroke:#181818;stroke-width:0.5;"/><path d="M61.5,1213.1719 L61.5,1240.1719 M48.5,1221.1719 L74.5,1221.1719 M61.5,1240.1719 L48.5,1255.1719 M61.5,1240.1719 L74.5,1255.1719 " fill="none" style="stroke:#181818;stroke-width:0.5;"/><rect fill="#E3E3E3" height="31.6094" rx="2.5" ry="2.5" style="stroke:#181818;stroke-width:0.5;" width="64" x="372.5" y="88.6094"/><text fill="#000000" font-family="sans-serif" font-size="14" lengthAdjust="spacing" textLength="50" x="379.5" y="110.1426">:System</text><rect fill="#E3E3E3" height="31.6094" rx="2.5" ry="2.5" style="stroke:#181818;stroke-width:0.5;" width="64" x="372.5" y="1179.0625"/><text fill="#000000" font-family="sans-serif" font-size="14" lengthAdjust="spacing" textLength="50" x="379.5" y="1200.5957">:System</text><rect fill="#FFFFFF" height="1039.8438" style="stroke:#181818;stroke-width:1.0;" width="10" x="56.5" y="131.2188"/><rect fill="#FFFFFF" height="46.7031" style="stroke:#181818;stroke-width:1.0;" width="10" x="399.5" y="169.9219"/><rect fill="#FFFFFF" height="63.0547" style="stroke:#181818;stroke-width:1.0;" width="10" x="399.5" y="246.9766"/><rect fill="#FFFFFF" height="30.3516" style="stroke:#181818;stroke-width:1.0;" width="10" x="399.5" y="340.3828"/><rect fill="#FFFFFF" height="116.8906" style="stroke:#181818;stroke-width:1.0;" width="10" x="399.5" y="401.0859"/><rect fill="#FFFFFF" height="46.7031" style="stroke:#181818;stroke-width:1.0;" width="10" x="399.5" y="540.3281"/><rect fill="#FFFFFF" height="72.0547" style="stroke:#181818;stroke-width:1.0;" width="10" x="399.5" y="617.3828"/><rect fill="#FFFFFF" height="72.0547" style="stroke:#181818;stroke-width:1.0;" width="10" x="399.5" y="719.7891"/><rect fill="#FFFFFF" height="104.4063" style="stroke:#181818;stroke-width:1.0;" width="10" x="399.5" y="822.1953"/><rect fill="#FFFFFF" height="76.7031" style="stroke:#181818;stroke-width:1.0;" width="10" x="399.5" y="956.9531"/><rect fill="#FFFFFF" height="15" style="stroke:#181818;stroke-width:1.0;" width="10" x="399.5" y="1064.0078"/><rect fill="#FFFFFF" height="30.3516" style="stroke:#181818;stroke-width:1.0;" width="10" x="399.5" y="1131.7109"/><polygon fill="#181818" points="387.5,165.9219,397.5,169.9219,387.5,173.9219,391.5,169.9219" style="stroke:#181818;stroke-width:1.0;"/><line style="stroke:#181818;stroke-width:1.0;" x1="66.5" x2="393.5" y1="169.9219" y2="169.9219"/><text fill="#000000" font-family="sans-serif" font-size="13" font-weight="bold" lengthAdjust="spacing" textLength="7" x="73.5" y="156.8896">1</text><text fill="#000000" font-family="sans-serif" font-size="13" lengthAdjust="spacing" textLength="205" x="84.5" y="148.7139">asks to publish sale announcement</text><text fill="#000000" font-family="sans-serif" font-size="13" lengthAdjust="spacing" textLength="188" x="84.5" y="165.0654">(create new sale announcement)</text><polygon fill="#181818" points="77.5,212.625,67.5,216.625,77.5,220.625,73.5,216.625" style="stroke:#181818;stroke-width:1.0;"/><line style="stroke:#181818;stroke-width:1.0;stroke-dasharray:2.0,2.0;" x1="71.5" x2="403.5" y1="216.625" y2="216.625"/><text fill="#000000" font-family="sans-serif" font-size="13" font-weight="bold" lengthAdjust="spacing" textLength="7" x="83.5" y="203.5928">2</text><text fill="#000000" font-family="sans-serif" font-size="13" lengthAdjust="spacing" textLength="155" x="94.5" y="195.417">requests owner information</text><text fill="#000000" font-family="sans-serif" font-size="13" lengthAdjust="spacing" textLength="253" x="94.5" y="211.7686">(email, citizen ID, tin, phone number, name)</text><polygon fill="#181818" points="387.5,242.9766,397.5,246.9766,387.5,250.9766,391.5,246.9766" style="stroke:#181818;stroke-width:1.0;"/><line style="stroke:#181818;stroke-width:1.0;" x1="66.5" x2="393.5" y1="246.9766" y2="246.9766"/><text fill="#000000" font-family="sans-serif" font-size="13" font-weight="bold" lengthAdjust="spacing" textLength="7" x="73.5" y="242.1201">3</text><text fill="#000000" font-family="sans-serif" font-size="13" lengthAdjust="spacing" textLength="122" x="84.5" y="242.1201">types requested data</text><polygon fill="#181818" points="77.5,306.0313,67.5,310.0313,77.5,314.0313,73.5,310.0313" style="stroke:#181818;stroke-width:1.0;"/><line style="stroke:#181818;stroke-width:1.0;stroke-dasharray:2.0,2.0;" x1="71.5" x2="403.5" y1="310.0313" y2="310.0313"/><text fill="#000000" font-family="sans-serif" font-size="13" font-weight="bold" lengthAdjust="spacing" textLength="7" x="83.5" y="288.8232">4</text><text fill="#000000" font-family="sans-serif" font-size="13" lengthAdjust="spacing" textLength="161" x="94.5" y="272.4717">request property information</text><text fill="#000000" font-family="sans-serif" font-size="13" lengthAdjust="spacing" textLength="184" x="94.5" y="288.8232">(area, distance from city center,</text><text fill="#000000" font-family="sans-serif" font-size="13" lengthAdjust="spacing" textLength="207" x="94.5" y="305.1748">state, city, district, street, zip code)</text><polygon fill="#181818" points="387.5,336.3828,397.5,340.3828,387.5,344.3828,391.5,340.3828" style="stroke:#181818;stroke-width:1.0;"/><line style="stroke:#181818;stroke-width:1.0;" x1="66.5" x2="393.5" y1="340.3828" y2="340.3828"/><text fill="#000000" font-family="sans-serif" font-size="13" font-weight="bold" lengthAdjust="spacing" textLength="7" x="73.5" y="335.5264">5</text><text fill="#000000" font-family="sans-serif" font-size="13" lengthAdjust="spacing" textLength="136" x="84.5" y="335.5264">submits requested data</text><polygon fill="#181818" points="77.5,366.7344,67.5,370.7344,77.5,374.7344,73.5,370.7344" style="stroke:#181818;stroke-width:1.0;"/><line style="stroke:#181818;stroke-width:1.0;stroke-dasharray:2.0,2.0;" x1="71.5" x2="403.5" y1="370.7344" y2="370.7344"/><text fill="#000000" font-family="sans-serif" font-size="13" font-weight="bold" lengthAdjust="spacing" textLength="7" x="83.5" y="365.8779">6</text><text fill="#000000" font-family="sans-serif" font-size="13" lengthAdjust="spacing" textLength="195" x="94.5" y="365.8779">lists business type (sale or lease)</text><polygon fill="#181818" points="387.5,397.0859,397.5,401.0859,387.5,405.0859,391.5,401.0859" style="stroke:#181818;stroke-width:1.0;"/><line style="stroke:#181818;stroke-width:1.0;" x1="66.5" x2="393.5" y1="401.0859" y2="401.0859"/><text fill="#000000" font-family="sans-serif" font-size="13" font-weight="bold" lengthAdjust="spacing" textLength="7" x="73.5" y="396.2295">7</text><text fill="#000000" font-family="sans-serif" font-size="13" lengthAdjust="spacing" textLength="136" x="84.5" y="396.2295">submits requested data</text><path d="M30,416.0859 L91,416.0859 L91,424.4375 L81,434.4375 L30,434.4375 L30,416.0859 " fill="#EEEEEE" style="stroke:#000000;stroke-width:1.5;"/><rect fill="none" height="94.8906" style="stroke:#000000;stroke-width:1.5;" width="416.5" x="30" y="416.0859"/><text fill="#000000" font-family="sans-serif" font-size="13" font-weight="bold" lengthAdjust="spacing" textLength="16" x="45" y="430.5811">alt</text><text fill="#000000" font-family="sans-serif" font-size="11" font-weight="bold" lengthAdjust="spacing" textLength="104" x="106" y="429.5049">[agreement = sale]</text><polygon fill="#181818" points="77.5,452.7891,67.5,456.7891,77.5,460.7891,73.5,456.7891" style="stroke:#181818;stroke-width:1.0;"/><line style="stroke:#181818;stroke-width:1.0;stroke-dasharray:2.0,2.0;" x1="71.5" x2="398.5" y1="456.7891" y2="456.7891"/><text fill="#000000" font-family="sans-serif" font-size="13" font-weight="bold" lengthAdjust="spacing" textLength="7" x="83.5" y="451.9326">8</text><text fill="#000000" font-family="sans-serif" font-size="13" lengthAdjust="spacing" textLength="82" x="94.5" y="451.9326">requests price</text><line style="stroke:#000000;stroke-width:1.0;stroke-dasharray:2.0,2.0;" x1="30" x2="446.5" y1="465.7891" y2="465.7891"/><text fill="#000000" font-family="sans-serif" font-size="11" font-weight="bold" lengthAdjust="spacing" textLength="111" x="35" y="477.208">[agreement = lease]</text><polygon fill="#181818" points="77.5,498.9766,67.5,502.9766,77.5,506.9766,73.5,502.9766" style="stroke:#181818;stroke-width:1.0;"/><line style="stroke:#181818;stroke-width:1.0;stroke-dasharray:2.0,2.0;" x1="71.5" x2="398.5" y1="502.9766" y2="502.9766"/><text fill="#000000" font-family="sans-serif" font-size="13" font-weight="bold" lengthAdjust="spacing" textLength="7" x="83.5" y="498.1201">9</text><text fill="#000000" font-family="sans-serif" font-size="13" lengthAdjust="spacing" textLength="186" x="94.5" y="498.1201">requests rent and lease duration</text><polygon fill="#181818" points="387.5,536.3281,397.5,540.3281,387.5,544.3281,391.5,540.3281" style="stroke:#181818;stroke-width:1.0;"/><line style="stroke:#181818;stroke-width:1.0;" x1="66.5" x2="393.5" y1="540.3281" y2="540.3281"/><text fill="#000000" font-family="sans-serif" font-size="13" font-weight="bold" lengthAdjust="spacing" textLength="14" x="73.5" y="535.4717">10</text><text fill="#000000" font-family="sans-serif" font-size="13" lengthAdjust="spacing" textLength="136" x="91.5" y="535.4717">submits requested data</text><polygon fill="#181818" points="77.5,583.0313,67.5,587.0313,77.5,591.0313,73.5,587.0313" style="stroke:#181818;stroke-width:1.0;"/><line style="stroke:#181818;stroke-width:1.0;stroke-dasharray:2.0,2.0;" x1="71.5" x2="403.5" y1="587.0313" y2="587.0313"/><text fill="#000000" font-family="sans-serif" font-size="13" font-weight="bold" lengthAdjust="spacing" textLength="14" x="83.5" y="573.999">11</text><text fill="#000000" font-family="sans-serif" font-size="13" lengthAdjust="spacing" textLength="177" x="101.5" y="565.8232">lists possible types of property</text><text fill="#000000" font-family="sans-serif" font-size="13" lengthAdjust="spacing" textLength="186" x="101.5" y="582.1748">and request that one is selected</text><polygon fill="#181818" points="387.5,613.3828,397.5,617.3828,387.5,621.3828,391.5,617.3828" style="stroke:#181818;stroke-width:1.0;"/><line style="stroke:#181818;stroke-width:1.0;" x1="66.5" x2="393.5" y1="617.3828" y2="617.3828"/><text fill="#000000" font-family="sans-serif" font-size="13" font-weight="bold" lengthAdjust="spacing" textLength="14" x="73.5" y="612.5264">12</text><text fill="#000000" font-family="sans-serif" font-size="13" lengthAdjust="spacing" textLength="136" x="91.5" y="612.5264">submits requested data</text><path d="M10,632.3828 L71,632.3828 L71,640.7344 L61,650.7344 L10,650.7344 L10,632.3828 " fill="#EEEEEE" style="stroke:#000000;stroke-width:1.5;"/><rect fill="none" height="346.5703" style="stroke:#000000;stroke-width:1.5;" width="456.5" x="10" y="632.3828"/><text fill="#000000" font-family="sans-serif" font-size="13" font-weight="bold" lengthAdjust="spacing" textLength="16" x="25" y="646.8779">alt</text><text fill="#000000" font-family="sans-serif" font-size="11" font-weight="bold" lengthAdjust="spacing" textLength="178" x="86" y="645.8018">[property = house or apartment]</text><polygon fill="#181818" points="77.5,685.4375,67.5,689.4375,77.5,693.4375,73.5,689.4375" style="stroke:#181818;stroke-width:1.0;"/><line style="stroke:#181818;stroke-width:1.0;stroke-dasharray:2.0,2.0;" x1="71.5" x2="403.5" y1="689.4375" y2="689.4375"/><text fill="#000000" font-family="sans-serif" font-size="13" font-weight="bold" lengthAdjust="spacing" textLength="14" x="83.5" y="676.4053">13</text><text fill="#000000" font-family="sans-serif" font-size="13" lengthAdjust="spacing" textLength="241" x="101.5" y="668.2295">requests specific data related to selection</text><text fill="#000000" font-family="sans-serif" font-size="13" lengthAdjust="spacing" textLength="283" x="101.5" y="684.5811">(number of bedrooms, number of parking spaces)</text><polygon fill="#181818" points="387.5,715.7891,397.5,719.7891,387.5,723.7891,391.5,719.7891" style="stroke:#181818;stroke-width:1.0;"/><line style="stroke:#181818;stroke-width:1.0;" x1="66.5" x2="393.5" y1="719.7891" y2="719.7891"/><text fill="#000000" font-family="sans-serif" font-size="13" font-weight="bold" lengthAdjust="spacing" textLength="14" x="73.5" y="714.9326">14</text><text fill="#000000" font-family="sans-serif" font-size="13" lengthAdjust="spacing" textLength="136" x="91.5" y="714.9326">submits requested data</text><path d="M30,734.7891 L95,734.7891 L95,743.1406 L85,753.1406 L30,753.1406 L30,734.7891 " fill="#EEEEEE" style="stroke:#000000;stroke-width:1.5;"/><rect fill="none" height="95.4063" style="stroke:#000000;stroke-width:1.5;" width="416.5" x="30" y="734.7891"/><text fill="#000000" font-family="sans-serif" font-size="13" font-weight="bold" lengthAdjust="spacing" textLength="20" x="45" y="749.2842">opt</text><polygon fill="#181818" points="77.5,787.8438,67.5,791.8438,77.5,795.8438,73.5,791.8438" style="stroke:#181818;stroke-width:1.0;"/><line style="stroke:#181818;stroke-width:1.0;stroke-dasharray:2.0,2.0;" x1="71.5" x2="403.5" y1="791.8438" y2="791.8438"/><text fill="#000000" font-family="sans-serif" font-size="13" font-weight="bold" lengthAdjust="spacing" textLength="14" x="83.5" y="778.8115">15</text><text fill="#000000" font-family="sans-serif" font-size="13" lengthAdjust="spacing" textLength="159" x="101.5" y="770.6357">request optional information</text><text fill="#000000" font-family="sans-serif" font-size="13" lengthAdjust="spacing" textLength="251" x="101.5" y="786.9873">(number of bathrooms, available equipment)</text><polygon fill="#181818" points="387.5,818.1953,397.5,822.1953,387.5,826.1953,391.5,822.1953" style="stroke:#181818;stroke-width:1.0;"/><line style="stroke:#181818;stroke-width:1.0;" x1="66.5" x2="393.5" y1="822.1953" y2="822.1953"/><text fill="#000000" font-family="sans-serif" font-size="13" font-weight="bold" lengthAdjust="spacing" textLength="14" x="73.5" y="817.3389">16</text><text fill="#000000" font-family="sans-serif" font-size="13" lengthAdjust="spacing" textLength="125" x="91.5" y="817.3389">sends requested data</text><path d="M20,844.1953 L81,844.1953 L81,852.5469 L71,862.5469 L20,862.5469 L20,844.1953 " fill="#EEEEEE" style="stroke:#000000;stroke-width:1.5;"/><rect fill="none" height="127.7578" style="stroke:#000000;stroke-width:1.5;" width="436.5" x="20" y="844.1953"/><text fill="#000000" font-family="sans-serif" font-size="13" font-weight="bold" lengthAdjust="spacing" textLength="16" x="35" y="858.6904">alt</text><text fill="#000000" font-family="sans-serif" font-size="11" font-weight="bold" lengthAdjust="spacing" textLength="103" x="96" y="857.6143">[property = house]</text><path d="M30,869.5469 L95,869.5469 L95,877.8984 L85,887.8984 L30,887.8984 L30,869.5469 " fill="#EEEEEE" style="stroke:#000000;stroke-width:1.5;"/><rect fill="none" height="95.4063" style="stroke:#000000;stroke-width:1.5;" width="416.5" x="30" y="869.5469"/><text fill="#000000" font-family="sans-serif" font-size="13" font-weight="bold" lengthAdjust="spacing" textLength="20" x="45" y="884.042">opt</text><polygon fill="#181818" points="77.5,922.6016,67.5,926.6016,77.5,930.6016,73.5,926.6016" style="stroke:#181818;stroke-width:1.0;"/><line style="stroke:#181818;stroke-width:1.0;stroke-dasharray:2.0,2.0;" x1="71.5" x2="403.5" y1="926.6016" y2="926.6016"/><text fill="#000000" font-family="sans-serif" font-size="13" font-weight="bold" lengthAdjust="spacing" textLength="14" x="83.5" y="913.5693">17</text><text fill="#000000" font-family="sans-serif" font-size="13" lengthAdjust="spacing" textLength="191" x="101.5" y="905.3936">request additional characteristics</text><text fill="#000000" font-family="sans-serif" font-size="13" lengthAdjust="spacing" textLength="291" x="101.5" y="921.7451">(existing basement, inhabitable loft, sun exposure)</text><polygon fill="#181818" points="387.5,952.9531,397.5,956.9531,387.5,960.9531,391.5,956.9531" style="stroke:#181818;stroke-width:1.0;"/><line style="stroke:#181818;stroke-width:1.0;" x1="66.5" x2="393.5" y1="956.9531" y2="956.9531"/><text fill="#000000" font-family="sans-serif" font-size="13" font-weight="bold" lengthAdjust="spacing" textLength="14" x="73.5" y="952.0967">18</text><text fill="#000000" font-family="sans-serif" font-size="13" lengthAdjust="spacing" textLength="136" x="91.5" y="952.0967">submits requested data</text><path d="M30,992.9531 L103,992.9531 L103,1001.3047 L93,1011.3047 L30,1011.3047 L30,992.9531 " fill="#EEEEEE" style="stroke:#000000;stroke-width:1.5;"/><rect fill="none" height="79.0547" style="stroke:#000000;stroke-width:1.5;" width="416.5" x="30" y="992.9531"/><text fill="#000000" font-family="sans-serif" font-size="13" font-weight="bold" lengthAdjust="spacing" textLength="28" x="45" y="1007.4482">loop</text><a href="for" target="_top" title="for" xlink:actuate="onRequest" xlink:href="for" xlink:show="new" xlink:title="for" xlink:type="simple"><text fill="#1D1D1D" font-family="sans-serif" font-size="11" font-weight="bold" lengthAdjust="spacing" text-decoration="underline" textLength="116" x="118" y="1006.3721">at least 1 photograph</text></a><polygon fill="#181818" points="77.5,1029.6563,67.5,1033.6563,77.5,1037.6563,73.5,1033.6563" style="stroke:#181818;stroke-width:1.0;"/><line style="stroke:#181818;stroke-width:1.0;stroke-dasharray:2.0,2.0;" x1="71.5" x2="403.5" y1="1033.6563" y2="1033.6563"/><text fill="#000000" font-family="sans-serif" font-size="13" font-weight="bold" lengthAdjust="spacing" textLength="14" x="83.5" y="1028.7998">19</text><text fill="#000000" font-family="sans-serif" font-size="13" lengthAdjust="spacing" textLength="186" x="101.5" y="1028.7998">requests photographs to append</text><polygon fill="#181818" points="387.5,1060.0078,397.5,1064.0078,387.5,1068.0078,391.5,1064.0078" style="stroke:#181818;stroke-width:1.0;"/><line style="stroke:#181818;stroke-width:1.0;" x1="66.5" x2="393.5" y1="1064.0078" y2="1064.0078"/><text fill="#000000" font-family="sans-serif" font-size="13" font-weight="bold" lengthAdjust="spacing" textLength="14" x="73.5" y="1059.1514">20</text><text fill="#000000" font-family="sans-serif" font-size="13" lengthAdjust="spacing" textLength="174" x="91.5" y="1059.1514">submits requested information</text><polygon fill="#181818" points="77.5,1097.3594,67.5,1101.3594,77.5,1105.3594,73.5,1101.3594" style="stroke:#181818;stroke-width:1.0;"/><line style="stroke:#181818;stroke-width:1.0;stroke-dasharray:2.0,2.0;" x1="71.5" x2="403.5" y1="1101.3594" y2="1101.3594"/><text fill="#000000" font-family="sans-serif" font-size="13" font-weight="bold" lengthAdjust="spacing" textLength="14" x="83.5" y="1096.5029">21</text><text fill="#000000" font-family="sans-serif" font-size="13" lengthAdjust="spacing" textLength="180" x="101.5" y="1096.5029">requests comission information</text><polygon fill="#181818" points="387.5,1127.7109,397.5,1131.7109,387.5,1135.7109,391.5,1131.7109" style="stroke:#181818;stroke-width:1.0;"/><line style="stroke:#181818;stroke-width:1.0;" x1="66.5" x2="393.5" y1="1131.7109" y2="1131.7109"/><text fill="#000000" font-family="sans-serif" font-size="13" font-weight="bold" lengthAdjust="spacing" textLength="14" x="73.5" y="1126.8545">22</text><text fill="#000000" font-family="sans-serif" font-size="13" lengthAdjust="spacing" textLength="174" x="91.5" y="1126.8545">submits requested information</text><polygon fill="#181818" points="77.5,1158.0625,67.5,1162.0625,77.5,1166.0625,73.5,1162.0625" style="stroke:#181818;stroke-width:1.0;"/><line style="stroke:#181818;stroke-width:1.0;stroke-dasharray:2.0,2.0;" x1="71.5" x2="403.5" y1="1162.0625" y2="1162.0625"/><text fill="#000000" font-family="sans-serif" font-size="13" font-weight="bold" lengthAdjust="spacing" textLength="14" x="83.5" y="1157.2061">23</text><text fill="#000000" font-family="sans-serif" font-size="13" lengthAdjust="spacing" textLength="151" x="101.5" y="1157.2061">display operation success</text><!--MD5=[8824bd548ce5d835d3a63a5ca1d6bfe0]
@startuml
skinparam monochrome true
skinparam packageStyle rectangle
skinparam shadowing false

title System Sequence Diagram (SSD) - Create sale announcement

autonumber

actor "Agent" as Agent
participant ":System" as System

activate Agent

    Agent -> System : asks to publish sale announcement\n(create new sale announcement)
    activate System
        System - -> Agent : requests owner information\n(email, citizen ID, tin, phone number, name)
    deactivate System

    Agent -> System : types requested data
    activate System 
        System - -> Agent : request property information\n(area, distance from city center,\nstate, city, district, street, zip code)
    deactivate System

    Agent -> System : submits requested data
    activate System
        System - -> Agent : lists business type (sale or lease)
    deactivate System

    Agent -> System : submits requested data
    activate System 
        alt agreement = sale
            System - -> Agent : requests price
        else agreement = lease
            System - -> Agent : requests rent and lease duration
        end
    deactivate System

    Agent -> System : submits requested data
    activate System 
        System - -> Agent : lists possible types of property\nand request that one is selected
    deactivate System

    Agent -> System : submits requested data
    alt property = house or apartment
        activate System 
            System - -> Agent : requests specific data related to selection\n(number of bedrooms, number of parking spaces)
        deactivate System

        Agent -> System : submits requested data
        activate System 
        opt
                System - -> Agent : request optional information\n(number of bathrooms, available equipment)
            deactivate System

            Agent -> System : sends requested data
            activate System 
        end
        alt property = house
            opt
                    System - -> Agent : request additional characteristics\n(existing basement, inhabitable loft, sun exposure)
                deactivate System
                Agent -> System : submits requested data
                activate System 
            end
        end
    end

    loop [for at least 1 photograph]
            System - -> Agent : requests photographs to append
        deactivate System
        Agent -> System : submits requested information
        activate System 
    end
    deactivate System

    activate System
        System - -> Agent : requests comission information
    deactivate System

    Agent -> System : submits requested information
    activate System 
        System - -> Agent : display operation success
    deactivate System

@enduml

PlantUML version 1.2022.7(Mon Aug 22 18:01:30 BST 2022)
(GPL source distribution)
Java Runtime: Java(TM) SE Runtime Environment
JVM: Java HotSpot(TM) 64-Bit Server VM
Default Encoding: Cp1252
Language: en
Country: GB
--></g></svg>