<?xml version="1.0" encoding="us-ascii" standalone="no"?><svg xmlns="http://www.w3.org/2000/svg" xmlns:xlink="http://www.w3.org/1999/xlink" contentStyleType="text/css" height="786px" preserveAspectRatio="none" style="width:701px;height:786px;background:#FFFFFF;" version="1.1" viewBox="0 0 701 786" width="701px" zoomAndPan="magnify"><defs/><g><!--class PropertyType--><g id="elem_PropertyType"><rect codeLine="10" fill="#F1F1F1" height="55.2422" id="PropertyType" rx="2.5" ry="2.5" style="stroke:#181818;stroke-width:0.5;" width="92" x="7" y="469"/><text fill="#000000" font-family="sans-serif" font-size="14" lengthAdjust="spacing" textLength="86" x="10" y="489.1074">PropertyType</text><line style="stroke:#181818;stroke-width:0.5;" x1="8" x2="98" y1="497.6211" y2="497.6211"/><text fill="#000000" font-family="sans-serif" font-size="14" lengthAdjust="spacing" textLength="73" x="13" y="516.7285">designation</text></g><!--class Property--><g id="elem_Property"><rect codeLine="14" fill="#F1F1F1" height="108.4453" id="Property" rx="2.5" ry="2.5" style="stroke:#181818;stroke-width:0.5;" width="132" x="198" y="442.5"/><text fill="#000000" font-family="sans-serif" font-size="12" font-style="italic" lengthAdjust="spacing" textLength="62" x="233" y="460.4492">&#171;Interface&#187;</text><text fill="#000000" font-family="sans-serif" font-size="14" lengthAdjust="spacing" textLength="54" x="237" y="478.5684">Property</text><line style="stroke:#181818;stroke-width:0.5;" x1="199" x2="329" y1="487.082" y2="487.082"/><text fill="#000000" font-family="sans-serif" font-size="14" lengthAdjust="spacing" textLength="43" x="204" y="506.1895">photos</text><text fill="#000000" font-family="sans-serif" font-size="14" lengthAdjust="spacing" textLength="83" x="204" y="524.8105">areaProperty</text><text fill="#000000" font-family="sans-serif" font-size="14" lengthAdjust="spacing" textLength="120" x="204" y="543.4316">distanceCityCenter</text></g><!--class House--><g id="elem_House"><rect codeLine="20" fill="#F1F1F1" height="166.9688" id="House" rx="2.5" ry="2.5" style="stroke:#181818;stroke-width:0.5;" width="135" x="26.5" y="613"/><text fill="#000000" font-family="sans-serif" font-size="14" lengthAdjust="spacing" textLength="40" x="74" y="633.1074">House</text><line style="stroke:#181818;stroke-width:0.5;" x1="27.5" x2="160.5" y1="641.6211" y2="641.6211"/><text fill="#000000" font-family="sans-serif" font-size="14" lengthAdjust="spacing" textLength="112" x="32.5" y="660.7285">numberBedrooms</text><text fill="#000000" font-family="sans-serif" font-size="14" lengthAdjust="spacing" textLength="116" x="32.5" y="679.3496">numberBathrooms</text><text fill="#000000" font-family="sans-serif" font-size="14" lengthAdjust="spacing" textLength="96" x="32.5" y="697.9707">numberParking</text><text fill="#000000" font-family="sans-serif" font-size="14" lengthAdjust="spacing" textLength="123" x="32.5" y="716.5918">availableEquipment</text><text fill="#000000" font-family="sans-serif" font-size="14" lengthAdjust="spacing" textLength="62" x="32.5" y="735.2129">basement</text><text fill="#000000" font-family="sans-serif" font-size="14" lengthAdjust="spacing" textLength="19" x="32.5" y="753.834">loft</text><text fill="#000000" font-family="sans-serif" font-size="14" lengthAdjust="spacing" textLength="82" x="32.5" y="772.4551">sunExposure</text></g><!--class Apartment--><g id="elem_Apartment"><rect codeLine="30" fill="#F1F1F1" height="111.1055" id="Apartment" rx="2.5" ry="2.5" style="stroke:#181818;stroke-width:0.5;" width="135" x="196.5" y="641"/><text fill="#000000" font-family="sans-serif" font-size="14" lengthAdjust="spacing" textLength="65" x="231.5" y="661.1074">Apartment</text><line style="stroke:#181818;stroke-width:0.5;" x1="197.5" x2="330.5" y1="669.6211" y2="669.6211"/><text fill="#000000" font-family="sans-serif" font-size="14" lengthAdjust="spacing" textLength="112" x="202.5" y="688.7285">numberBedrooms</text><text fill="#000000" font-family="sans-serif" font-size="14" lengthAdjust="spacing" textLength="116" x="202.5" y="707.3496">numberBathrooms</text><text fill="#000000" font-family="sans-serif" font-size="14" lengthAdjust="spacing" textLength="96" x="202.5" y="725.9707">numberParking</text><text fill="#000000" font-family="sans-serif" font-size="14" lengthAdjust="spacing" textLength="123" x="202.5" y="744.5918">availableEquipment</text></g><!--class Land--><g id="elem_Land"><rect codeLine="37" fill="#F1F1F1" height="36.6211" id="Land" rx="2.5" ry="2.5" style="stroke:#181818;stroke-width:0.5;" width="38" x="367" y="678"/><text fill="#000000" font-family="sans-serif" font-size="14" lengthAdjust="spacing" textLength="32" x="370" y="698.1074">Land</text><line style="stroke:#181818;stroke-width:0.5;" x1="368" x2="404" y1="706.6211" y2="706.6211"/></g><!--class Request--><g id="elem_Request"><rect codeLine="39" fill="#F1F1F1" height="71.2031" id="Request" rx="2.5" ry="2.5" style="stroke:#181818;stroke-width:0.5;" width="64" x="278" y="36.5"/><text fill="#000000" font-family="sans-serif" font-size="12" font-style="italic" lengthAdjust="spacing" textLength="62" x="279" y="54.4492">&#171;Interface&#187;</text><text fill="#000000" font-family="sans-serif" font-size="14" lengthAdjust="spacing" textLength="53" x="283.5" y="72.5684">Request</text><line style="stroke:#181818;stroke-width:0.5;" x1="279" x2="341" y1="81.082" y2="81.082"/><text fill="#000000" font-family="sans-serif" font-size="14" lengthAdjust="spacing" textLength="28" x="284" y="100.1895">date</text></g><!--class RequestSale--><g id="elem_RequestSale"><rect codeLine="43" fill="#F1F1F1" height="55.2422" id="RequestSale" rx="2.5" ry="2.5" style="stroke:#181818;stroke-width:0.5;" width="87" x="26.5" y="261.5"/><text fill="#000000" font-family="sans-serif" font-size="14" lengthAdjust="spacing" textLength="81" x="29.5" y="281.6074">RequestSale</text><line style="stroke:#181818;stroke-width:0.5;" x1="27.5" x2="112.5" y1="290.1211" y2="290.1211"/><text fill="#000000" font-family="sans-serif" font-size="14" lengthAdjust="spacing" textLength="58" x="32.5" y="309.2285">salePrice</text></g><!--class RequestLease--><g id="elem_RequestLease"><rect codeLine="47" fill="#F1F1F1" height="73.8633" id="RequestLease" rx="2.5" ry="2.5" style="stroke:#181818;stroke-width:0.5;" width="133" x="220.5" y="252"/><text fill="#000000" font-family="sans-serif" font-size="14" lengthAdjust="spacing" textLength="92" x="241" y="272.1074">RequestLease</text><line style="stroke:#181818;stroke-width:0.5;" x1="221.5" x2="352.5" y1="280.6211" y2="280.6211"/><text fill="#000000" font-family="sans-serif" font-size="14" lengthAdjust="spacing" textLength="68" x="226.5" y="299.7285">rentalPrice</text><text fill="#000000" font-family="sans-serif" font-size="14" lengthAdjust="spacing" textLength="121" x="226.5" y="318.3496">durationOfContract</text></g><!--class BusinessType--><g id="elem_BusinessType"><rect codeLine="52" fill="#F1F1F1" height="55.2422" id="BusinessType" rx="2.5" ry="2.5" style="stroke:#181818;stroke-width:0.5;" width="95" x="84.5" y="44.5"/><text fill="#000000" font-family="sans-serif" font-size="14" lengthAdjust="spacing" textLength="89" x="87.5" y="64.6074">BusinessType</text><line style="stroke:#181818;stroke-width:0.5;" x1="85.5" x2="178.5" y1="73.1211" y2="73.1211"/><text fill="#000000" font-family="sans-serif" font-size="14" lengthAdjust="spacing" textLength="73" x="90.5" y="92.2285">designation</text></g><!--class Store--><g id="elem_Store"><rect codeLine="56" fill="#F1F1F1" height="111.1055" id="Store" rx="2.5" ry="2.5" style="stroke:#181818;stroke-width:0.5;" width="101" x="462.5" y="441"/><text fill="#000000" font-family="sans-serif" font-size="14" lengthAdjust="spacing" textLength="34" x="496" y="461.1074">Store</text><line style="stroke:#181818;stroke-width:0.5;" x1="463.5" x2="562.5" y1="469.6211" y2="469.6211"/><text fill="#000000" font-family="sans-serif" font-size="14" lengthAdjust="spacing" textLength="11" x="468.5" y="488.7285">id</text><text fill="#000000" font-family="sans-serif" font-size="14" lengthAdjust="spacing" textLength="35" x="468.5" y="507.3496">name</text><text fill="#000000" font-family="sans-serif" font-size="14" lengthAdjust="spacing" textLength="85" x="468.5" y="525.9707">emailAddress</text><text fill="#000000" font-family="sans-serif" font-size="14" lengthAdjust="spacing" textLength="89" x="468.5" y="544.5918">phoneNumber</text></g><!--class Location--><g id="elem_Location"><rect codeLine="63" fill="#F1F1F1" height="145.6875" id="Location" rx="2.5" ry="2.5" style="stroke:#181818;stroke-width:0.5;" width="64" x="545" y="216"/><text fill="#000000" font-family="sans-serif" font-size="12" font-style="italic" lengthAdjust="spacing" textLength="62" x="546" y="233.9492">&#171;Interface&#187;</text><text fill="#000000" font-family="sans-serif" font-size="14" lengthAdjust="spacing" textLength="54" x="550" y="252.0684">Location</text><line style="stroke:#181818;stroke-width:0.5;" x1="546" x2="608" y1="260.582" y2="260.582"/><text fill="#000000" font-family="sans-serif" font-size="14" lengthAdjust="spacing" textLength="36" x="551" y="279.6895">street</text><text fill="#000000" font-family="sans-serif" font-size="14" lengthAdjust="spacing" textLength="51" x="551" y="298.3105">zipCode</text><text fill="#000000" font-family="sans-serif" font-size="14" lengthAdjust="spacing" textLength="49" x="551" y="316.9316">stateUS</text><text fill="#000000" font-family="sans-serif" font-size="14" lengthAdjust="spacing" textLength="21" x="551" y="335.5527">city</text><text fill="#000000" font-family="sans-serif" font-size="14" lengthAdjust="spacing" textLength="41" x="551" y="354.1738">district</text></g><!--class Person--><g id="elem_Person"><rect codeLine="71" fill="#F1F1F1" height="129.7266" id="Person" rx="2.5" ry="2.5" style="stroke:#181818;stroke-width:0.5;" width="101" x="520.5" y="7"/><text fill="#000000" font-family="sans-serif" font-size="14" lengthAdjust="spacing" textLength="45" x="548.5" y="27.1074">Person</text><line style="stroke:#181818;stroke-width:0.5;" x1="521.5" x2="620.5" y1="35.6211" y2="35.6211"/><text fill="#000000" font-family="sans-serif" font-size="14" lengthAdjust="spacing" textLength="85" x="526.5" y="54.7285">emailAddress</text><text fill="#000000" font-family="sans-serif" font-size="14" lengthAdjust="spacing" textLength="55" x="526.5" y="73.3496">passport</text><text fill="#000000" font-family="sans-serif" font-size="14" lengthAdjust="spacing" textLength="15" x="526.5" y="91.9707">tin</text><text fill="#000000" font-family="sans-serif" font-size="14" lengthAdjust="spacing" textLength="89" x="526.5" y="110.5918">phoneNumber</text><text fill="#000000" font-family="sans-serif" font-size="14" lengthAdjust="spacing" textLength="35" x="526.5" y="129.2129">name</text></g><!--class Advertisement--><g id="elem_Advertisement"><rect codeLine="79" fill="#F1F1F1" height="92.4844" id="Advertisement" rx="2.5" ry="2.5" style="stroke:#181818;stroke-width:0.5;" width="121" x="388.5" y="243"/><text fill="#000000" font-family="sans-serif" font-size="14" lengthAdjust="spacing" textLength="90" x="404" y="263.1074">Advertisement</text><line style="stroke:#181818;stroke-width:0.5;" x1="389.5" x2="508.5" y1="271.6211" y2="271.6211"/><text fill="#000000" font-family="sans-serif" font-size="14" lengthAdjust="spacing" textLength="109" x="394.5" y="290.7285">commissionValue</text><text fill="#000000" font-family="sans-serif" font-size="14" lengthAdjust="spacing" textLength="105" x="394.5" y="309.3496">commissionType</text><text fill="#000000" font-family="sans-serif" font-size="14" lengthAdjust="spacing" textLength="28" x="394.5" y="327.9707">date</text></g><!--class Offer--><g id="elem_Offer"><rect codeLine="85" fill="#F1F1F1" height="73.8633" id="Offer" rx="2.5" ry="2.5" style="stroke:#181818;stroke-width:0.5;" width="50" x="644" y="252"/><text fill="#000000" font-family="sans-serif" font-size="14" lengthAdjust="spacing" textLength="32" x="653" y="272.1074">Offer</text><line style="stroke:#181818;stroke-width:0.5;" x1="645" x2="693" y1="280.6211" y2="280.6211"/><text fill="#000000" font-family="sans-serif" font-size="14" lengthAdjust="spacing" textLength="38" x="650" y="299.7285">status</text><text fill="#000000" font-family="sans-serif" font-size="14" lengthAdjust="spacing" textLength="29" x="650" y="318.3496">offer</text></g><!--link Person to Location--><g id="link_Person_Location"><path codeLine="90" d="M572.79,137.22 C573.3,155.58 573.87,175.97 574.42,195.67 " fill="none" id="Person-to-Location" style="stroke:#181818;stroke-width:1.0;stroke-dasharray:7.0,7.0;"/><polygon fill="none" points="581.43,195.65,574.99,215.83,567.43,196.04,581.43,195.65" style="stroke:#181818;stroke-width:1.0;"/></g><!--link Request to Person--><g id="link_Request_Person"><path codeLine="91" d="M342.17,81.04 C361.33,85.95 386.23,91.52 408.75,94 C446.19,98.12 488.34,92.08 520.29,85.3 " fill="none" id="Request-Person" style="stroke:#181818;stroke-width:1.0;"/><polygon fill="#000000" points="408.7514,84.526,417.7237,87.6803,417.8642,81.8041,408.7514,84.526" style="stroke:#000000;stroke-width:1.0;"/><text fill="#000000" font-family="sans-serif" font-size="13" lengthAdjust="spacing" textLength="30" x="422.75" y="90.0283">owns</text><text fill="#000000" font-family="sans-serif" font-size="13" lengthAdjust="spacing" textLength="20" x="349.9451" y="78.176">1..*</text><text fill="#000000" font-family="sans-serif" font-size="13" lengthAdjust="spacing" textLength="7" x="505.6667" y="83.043">1</text></g><!--link Person to Request--><g id="link_Person_Request"><path codeLine="92" d="M520.35,72 C467.58,72 386.52,72 342,72 " fill="none" id="Person-Request" style="stroke:#181818;stroke-width:1.0;"/><polygon fill="#000000" points="382.25,59.6455,391.2951,62.5844,391.2951,56.7066,382.25,59.6455" style="stroke:#000000;stroke-width:1.0;"/><text fill="#000000" font-family="sans-serif" font-size="13" lengthAdjust="spacing" textLength="83" x="396.25" y="65.0283">asks to create</text><text fill="#000000" font-family="sans-serif" font-size="13" lengthAdjust="spacing" textLength="7" x="505.3967" y="67.8213">1</text><text fill="#000000" font-family="sans-serif" font-size="13" lengthAdjust="spacing" textLength="5" x="349.9781" y="67.0729">*</text></g><!--link Person to Offer--><g id="link_Person_Offer"><path codeLine="93" d="M600.27,137.22 C617.36,174.71 638.29,220.63 652.54,251.88 " fill="none" id="Person-Offer" style="stroke:#181818;stroke-width:1.0;"/><polygon fill="#000000" points="627.074,181.1951,625.9963,171.7458,620.6479,174.1839,627.074,181.1951" style="stroke:#000000;stroke-width:1.0;"/><text fill="#000000" font-family="sans-serif" font-size="13" lengthAdjust="spacing" textLength="39" x="634" y="182.0283">makes</text><text fill="#000000" font-family="sans-serif" font-size="13" lengthAdjust="spacing" textLength="7" x="595.9275" y="158.8798">1</text><text fill="#000000" font-family="sans-serif" font-size="13" lengthAdjust="spacing" textLength="5" x="650.0534" y="240.8204">*</text></g><!--reverse link Property to House--><g id="link_Property_House"><path codeLine="95" d="M205.35,565.81 C191.3,582.17 176.18,599.79 161.75,616.59 " fill="none" id="Property-backto-House" style="stroke:#181818;stroke-width:1.0;stroke-dasharray:7.0,7.0;"/><polygon fill="none" points="200.1,561.17,218.44,550.56,210.73,570.29,200.1,561.17" style="stroke:#181818;stroke-width:1.0;"/></g><!--reverse link Property to Apartment--><g id="link_Property_Apartment"><path codeLine="96" d="M264,570.73 C264,593.97 264,619.23 264,640.91 " fill="none" id="Property-backto-Apartment" style="stroke:#181818;stroke-width:1.0;stroke-dasharray:7.0,7.0;"/><polygon fill="none" points="257,570.56,264,550.56,271,570.56,257,570.56" style="stroke:#181818;stroke-width:1.0;"/></g><!--reverse link Property to Land--><g id="link_Property_Land"><path codeLine="97" d="M318.65,566.78 C329.31,581.64 339.98,597.53 349,613 C361.5,634.42 372.66,660.83 379.38,677.91 " fill="none" id="Property-backto-Land" style="stroke:#181818;stroke-width:1.0;stroke-dasharray:7.0,7.0;"/><polygon fill="none" points="312.9,570.77,306.68,550.52,324.17,562.48,312.9,570.77" style="stroke:#181818;stroke-width:1.0;"/></g><!--link PropertyType to Property--><g id="link_PropertyType_Property"><path codeLine="98" d="M99.04,496.5 C127.9,496.5 165.58,496.5 197.63,496.5 " fill="none" id="PropertyType-Property" style="stroke:#181818;stroke-width:1.0;"/><polygon fill="#000000" points="116.5,484.1455,125.5451,487.0844,125.5451,481.2066,116.5,484.1455" style="stroke:#000000;stroke-width:1.0;"/><text fill="#000000" font-family="sans-serif" font-size="13" lengthAdjust="spacing" textLength="49" x="130.5" y="489.5283">contains</text><text fill="#000000" font-family="sans-serif" font-size="13" lengthAdjust="spacing" textLength="7" x="106.9354" y="492.1775">1</text><text fill="#000000" font-family="sans-serif" font-size="13" lengthAdjust="spacing" textLength="5" x="185.0973" y="492.5902">*</text></g><!--reverse link Location to Property--><g id="link_Location_Property"><path codeLine="100" d="M540.61,379.69 C533.1,391.31 524.27,402.2 514,411 C499.6,423.33 399.34,455.04 330.24,475.91 " fill="none" id="Location-backto-Property" style="stroke:#181818;stroke-width:1.0;stroke-dasharray:7.0,7.0;"/><polygon fill="none" points="534.6,376.1,550.69,362.31,546.71,383.12,534.6,376.1" style="stroke:#181818;stroke-width:1.0;"/></g><!--reverse link Location to Store--><g id="link_Location_Store"><path codeLine="101" d="M563.13,381.85 C560.79,391.79 558.1,401.67 555,411 C551.7,420.95 547.42,431.21 542.86,440.99 " fill="none" id="Location-backto-Store" style="stroke:#181818;stroke-width:1.0;stroke-dasharray:7.0,7.0;"/><polygon fill="none" points="556.3,380.28,567.31,362.18,570,383.2,556.3,380.28" style="stroke:#181818;stroke-width:1.0;"/></g><!--link Advertisement to Store--><g id="link_Advertisement_Store"><path codeLine="103" d="M460.88,335.03 C467.11,357.9 475.07,386.04 483,411 C486.06,420.64 489.5,430.84 492.94,440.68 " fill="none" id="Advertisement-Store" style="stroke:#181818;stroke-width:1.0;"/><polygon fill="#000000" points="486.5481,396.8609,486.3623,406.3697,491.9869,404.6629,486.5481,396.8609" style="stroke:#000000;stroke-width:1.0;"/><text fill="#000000" font-family="sans-serif" font-size="13" lengthAdjust="spacing" textLength="49" x="497" y="407.0283">contains</text><text fill="#000000" font-family="sans-serif" font-size="13" lengthAdjust="spacing" textLength="5" x="457.3163" y="357.3934">*</text><text fill="#000000" font-family="sans-serif" font-size="13" lengthAdjust="spacing" textLength="7" x="483.0686" y="429.8806">1</text></g><!--link Request to Property--><g id="link_Request_Property"><path codeLine="105" d="M277.97,103.28 C252.12,130.08 217.73,171.72 203,216 C182.51,277.57 189.2,298.6 203,362 C209.04,389.76 221.39,418.67 233.41,442.45 " fill="none" id="Request-Property" style="stroke:#181818;stroke-width:1.0;"/><text fill="#000000" font-family="sans-serif" font-size="13" lengthAdjust="spacing" textLength="7" x="263.1978" y="105.3011">1</text><text fill="#000000" font-family="sans-serif" font-size="13" lengthAdjust="spacing" textLength="7" x="221.8292" y="431.0628">1</text></g><!--reverse link Request to RequestLease--><g id="link_Request_RequestLease"><path codeLine="106" d="M304.18,127.44 C300.01,166.38 294.52,217.72 290.88,251.75 " fill="none" id="Request-backto-RequestLease" style="stroke:#181818;stroke-width:1.0;stroke-dasharray:7.0,7.0;"/><polygon fill="none" points="297.22,126.69,306.3,107.54,311.14,128.17,297.22,126.69" style="stroke:#181818;stroke-width:1.0;"/></g><!--reverse link Request to RequestSale--><g id="link_Request_RequestSale"><path codeLine="107" d="M260.57,101.33 C240.85,112.54 217.91,125.48 197,137 C172.27,150.63 161.35,147.43 141,167 C112.91,194.02 92.2,234.53 80.62,261.11 " fill="none" id="Request-backto-RequestSale" style="stroke:#181818;stroke-width:1.0;stroke-dasharray:7.0,7.0;"/><polygon fill="none" points="257.12,95.24,277.97,91.41,264.06,107.4,257.12,95.24" style="stroke:#181818;stroke-width:1.0;"/></g><!--link BusinessType to Request--><g id="link_BusinessType_Request"><path codeLine="108" d="M179.7,72 C210.8,72 250.55,72 277.92,72 " fill="none" id="BusinessType-Request" style="stroke:#181818;stroke-width:1.0;"/><polygon fill="#000000" points="196.75,59.6455,205.7951,62.5844,205.7951,56.7066,196.75,59.6455" style="stroke:#000000;stroke-width:1.0;"/><text fill="#000000" font-family="sans-serif" font-size="13" lengthAdjust="spacing" textLength="49" x="210.75" y="65.0283">contains</text><text fill="#000000" font-family="sans-serif" font-size="13" lengthAdjust="spacing" textLength="7" x="187.54" y="67.7305">1</text><text fill="#000000" font-family="sans-serif" font-size="13" lengthAdjust="spacing" textLength="5" x="264.9234" y="67.0729">*</text></g><!--link Request to Advertisement--><g id="link_Request_Advertisement"><path codeLine="109" d="M332.33,107.54 C356.05,144.22 393.63,202.36 419.71,242.69 " fill="none" id="Request-Advertisement" style="stroke:#181818;stroke-width:1.0;"/><polygon fill="#000000" points="381.2853,172.4467,383.7282,181.6381,388.6643,178.4468,381.2853,172.4467" style="stroke:#000000;stroke-width:1.0;"/><text fill="#000000" font-family="sans-serif" font-size="13" lengthAdjust="spacing" textLength="49" x="393" y="182.0283">contains</text><text fill="#000000" font-family="sans-serif" font-size="13" lengthAdjust="spacing" textLength="7" x="328.8018" y="129.6963">1</text><text fill="#000000" font-family="sans-serif" font-size="13" lengthAdjust="spacing" textLength="7" x="407.894" y="231.6539">1</text></g><!--link Advertisement to Offer--><g id="link_Advertisement_Offer"><path codeLine="111" d="M463.35,242.99 C472.68,221.34 487.25,197.56 509,185 C555.96,157.88 588.34,177.98 627,216 C637.32,226.15 645.94,239.37 652.63,251.76 " fill="none" id="Advertisement-Offer" style="stroke:#181818;stroke-width:1.0;"/><polygon fill="#000000" points="518.9946,176.8769,510.0953,173.5225,509.8232,179.3941,518.9946,176.8769" style="stroke:#000000;stroke-width:1.0;"/><text fill="#000000" font-family="sans-serif" font-size="13" lengthAdjust="spacing" textLength="47" x="523" y="182.0283">receives</text><text fill="#000000" font-family="sans-serif" font-size="13" lengthAdjust="spacing" textLength="7" x="458.0114" y="231.6567">1</text><text fill="#000000" font-family="sans-serif" font-size="13" lengthAdjust="spacing" textLength="5" x="644.2688" y="240.679">*</text></g><!--SRC=[hLLDRzim3BthLmWv5gYnNeiYG1iCM85Y3PPjTqQcOo6sw8fIkpJTVvyiEOwSP3ijbz3ayoCVFnBUQjE1XLQsP4ZLbbgKpdeKF4OwK5lOuChj6fGMbGEpQN80rr3IcpORMK73ABAGQe3vtZchrzxXeoApqkyeFmbHwnAbqbO5gcYtw6egMOZuZbnQwj2wtVTTXtiXmwT4rXi3JfCHlqzXykxkqJYq5IYSpzCBNKsEE9fW4GxGHAOvw52uq6wtmFxD8-SNyemoSHZVhj4-O6c9MivTuEfJtn9iKBv96Lz1Dx1kyFEBrrqRKaJt6XZ7XuQgPB0tdtzrnDxYiOpxq4BNO_z_9MEE9p3bVdpwXYyUsLrePGakgsp0hQ0PHiF1MbgjpZ5F60Gda0sPeKcmoEbj7EPpjI3ZBAYihWVFsY1pFttvZ_6l7Dc1NfT9FxI97jiW-xuiRQ0vh8F1hx4zMGD8HShf_WmfsLd4DA5ttIsenC4Tkl5Z5MsbiuKAqZ8DIxHCPl-NOWAY8vl8dJPd5OvQZljGleRrrMb_XWeLjQrc3W9-GkFnnDTtxyBudgiAxNwKubD5r7jxKAfR5iN7V6pFmJcxcSdh1Yjt7SoYk9eTvdmhwSsmd4-0SfO3WBSi7KaLRj7X2JHXOsMtieKjzbmYNMBXkxwMyNx7mpYBzEjyvin_IL8ogpUrInaFmTlGjh2UEcYu4-Au5Hz5aT5Ft77tX8XVYTTtYNGogOmvA1gwCOg-EPOmnY9xVZyN8_tr7UckihdC9kSpoNyX_RJOl0kJo6dZXb65_mFKht5QVm00]--></g></svg>